<?xml version="1.0" encoding="utf-8"?>
<!-- Generator: Adobe Illustrator 23.0.3, SVG Export Plug-In . SVG Version: 6.00 Build 0)  -->
<svg version="1.1" xmlns="http://www.w3.org/2000/svg" xmlns:xlink="http://www.w3.org/1999/xlink" x="0px" y="0px"
	 viewBox="0 0 48 48" style="enable-background:new 0 0 48 48;" xml:space="preserve">
<style type="text/css">
	.st0{opacity:0.53;clip-path:url(#SVGID_2_);fill:#FFFFFF;}
	.st1{display:none;opacity:0.8;clip-path:url(#SVGID_2_);fill:#FFFFFF;}
	.st2{opacity:0.3;clip-path:url(#SVGID_2_);fill:#FFFFFF;}
	.st3{clip-path:url(#SVGID_2_);fill:#06BF7F;}
	.st4{clip-path:url(#SVGID_2_);}
	.st5{fill:none;stroke:#78D8DD;stroke-miterlimit:10;}
	.st6{opacity:0.52;clip-path:url(#SVGID_2_);}
	.st7{fill:none;stroke:#FFFFFF;stroke-miterlimit:10;}
	.st8{display:none;clip-path:url(#SVGID_2_);fill:none;stroke:#FFFFFF;stroke-miterlimit:10;}
	.st9{display:none;clip-path:url(#SVGID_2_);fill:none;stroke:#78D8DD;stroke-miterlimit:10;}
	.st10{fill-rule:evenodd;clip-rule:evenodd;fill:#FFFFFF;}
</style>
<g id="Layer_1">
	<g>
		<defs>
			<ellipse id="SVGID_1_" transform="matrix(0.6223 -0.7828 0.7828 0.6223 -9.7217 27.8521)" cx="24" cy="24" rx="24" ry="24"/>
		</defs>
		<use xlink:href="#SVGID_1_"  style="overflow:visible;fill:#78D8DD;"/>
		<clipPath id="SVGID_2_">
			<use xlink:href="#SVGID_1_"  style="overflow:visible;"/>
		</clipPath>
		
			<rect x="12.73" y="30.74" transform="matrix(0.7071 -0.7071 0.7071 0.7071 -23.7089 28.2382)" class="st0" width="19" height="24"/>
		<rect x="-5.7" y="10.23" transform="matrix(0.7071 -0.7071 0.7071 0.7071 -13.1441 12.732)" class="st1" width="29" height="24"/>
		<rect x="16.27" y="-6.74" transform="matrix(0.7071 -0.7071 0.7071 0.7071 3.8258 19.7627)" class="st2" width="19" height="24"/>
		<path class="st3" d="M52.28,18.34"/>
		<g class="st4">
			<line class="st5" x1="23.29" y1="30.36" x2="9.86" y2="43.8"/>
			<line class="st5" x1="26.12" y1="33.19" x2="12.69" y2="46.63"/>
			<line class="st5" x1="28.95" y1="36.02" x2="15.52" y2="49.46"/>
			<line class="st5" x1="31.78" y1="38.85" x2="18.34" y2="52.28"/>
			<line class="st5" x1="34.61" y1="41.68" x2="21.17" y2="55.11"/>
		</g>
		<g class="st6">
			<line class="st7" x1="26.83" y1="-7.11" x2="13.4" y2="6.32"/>
			<line class="st7" x1="29.66" y1="-4.28" x2="16.22" y2="9.15"/>
			<line class="st7" x1="32.49" y1="-1.45" x2="19.05" y2="11.98"/>
			<line class="st7" x1="35.31" y1="1.37" x2="21.88" y2="14.81"/>
			<line class="st7" x1="38.14" y1="4.2" x2="24.71" y2="17.64"/>
		</g>
		<polyline class="st8" points="32.48,32.48 40.97,24 32.48,15.52 		"/>
		<polyline class="st9" points="15.51,15.51 7.06,24.03 15.51,32.49 		"/>
	</g>
</g>
<g id="Layer_2">
	<path class="st10" d="M21.63,12.26l8.06,4.95l6.4-2.53c-1.19-0.58-2.49-1.15-3.67-1.84c-1.78-0.81-3.56-1.73-5.33-2.65L21.63,12.26
		L21.63,12.26z M10.72,20.09c-0.47-0.23,0-0.92,0.47-0.69c3.44,2.07,6.76,4.14,10.19,6.22c5.81-2.19,11.61-4.49,17.42-6.68
		c0.47-0.23,0.83,0.58,0.36,0.69c-5.93,2.3-11.73,4.49-17.66,6.79c0,0-0.12,0-0.12,0.12c-0.12-0.12-0.12-0.12-0.24-0.12
		C17.71,24.35,14.16,22.16,10.72,20.09L10.72,20.09z M10.72,22.04c-0.47-0.23,0-0.92,0.47-0.69l10.19,6.22l17.42-6.68
		c0.47-0.23,0.83,0.46,0.36,0.69l-17.66,6.79l-0.12,0.12l-0.24-0.12L10.72,22.04L10.72,22.04z M10.72,18.13
		c-0.47-0.23,0-0.92,0.47-0.69l10.19,6.22l17.42-6.68c0.47-0.23,0.83,0.58,0.36,0.69l-17.66,6.79l-0.12,0.12l-0.24-0.12L10.72,18.13
		L10.72,18.13z M10.72,29.3c-0.47-0.23,0-0.92,0.47-0.69c3.44,2.07,6.87,4.14,10.19,6.22c5.81-2.3,11.61-4.49,17.42-6.68
		c0.47-0.23,0.83,0.46,0.36,0.69c-5.93,2.3-11.73,4.49-17.66,6.79h-0.12h-0.24C17.71,33.44,14.28,31.37,10.72,29.3L10.72,29.3z
		 M10.72,31.25c-0.47-0.23,0-0.92,0.47-0.69l10.19,6.22l17.42-6.68c0.47-0.23,0.83,0.46,0.36,0.69l-17.66,6.79h-0.12l-0.24-0.12
		L10.72,31.25L10.72,31.25z M10.72,27.34c-0.47-0.23,0-0.92,0.47-0.69l10.19,6.22l17.42-6.68c0.47-0.23,0.83,0.58,0.36,0.69
		l-17.66,6.79l-0.12,0.12l-0.24-0.12L10.72,27.34L10.72,27.34z M21.27,29.53L40,22.16v2.42l-18.49,7.14l-10.9-6.56
		c-1.66-1.04-2.01,5.76-0.47,6.56l11.14,6.91L40,31.37v1.38L21.15,40L9.9,32.98c-2.61-1.61-2.25-7.94-0.36-9.32
		c-2.37-1.96-1.78-8.17,0.24-9.32c2.96-1.04,5.93-2.07,8.89-3.22c2.84-1.04,5.57-2.07,8.41-2.99L27.2,8l0.24,0.12
		c1.9,0.92,3.91,1.96,5.93,2.99c2.13,1.04,4.27,2.07,6.4,3.22L40,14.45v0.92L21.51,22.5l-10.9-6.56c-1.66-0.92-2.01,5.76-0.47,6.56
		L21.27,29.53L21.27,29.53z"/>
</g>
</svg>
