<?xml version="1.0" encoding="utf-8"?>
<!-- Generator: Adobe Illustrator 23.0.3, SVG Export Plug-In . SVG Version: 6.00 Build 0)  -->
<svg version="1.1" xmlns="http://www.w3.org/2000/svg" xmlns:xlink="http://www.w3.org/1999/xlink" x="0px" y="0px"
	 viewBox="0 0 48 48" style="enable-background:new 0 0 48 48;" xml:space="preserve">
<style type="text/css">
	.st0{opacity:0.9;clip-path:url(#SVGID_2_);fill:#FFFFFF;fill-opacity:0.68;}
	.st1{opacity:0.7;clip-path:url(#SVGID_2_);fill:#FFFFFF;}
	.st2{opacity:0.4;clip-path:url(#SVGID_2_);fill:#FFFFFF;}
	.st3{clip-path:url(#SVGID_2_);fill:#06BF7F;}
	.st4{clip-path:url(#SVGID_2_);}
	.st5{fill:none;stroke:#06BF7F;stroke-miterlimit:10;}
	.st6{opacity:0.66;clip-path:url(#SVGID_2_);}
	.st7{fill:none;stroke:#FFFFFF;stroke-miterlimit:10;}
	.st8{opacity:0.5;clip-path:url(#SVGID_2_);}
	.st9{fill:#069966;}
	.st10{fill:#FFFFFF;}
	.st11{fill:#9BE5CC;}
</style>
<g id="Layer_1">
	<g>
		<defs>
			<circle id="SVGID_1_" cx="24" cy="24" r="24"/>
		</defs>
		<use xlink:href="#SVGID_1_"  style="overflow:visible;fill:#06BF7F;"/>
		<clipPath id="SVGID_2_">
			<use xlink:href="#SVGID_1_"  style="overflow:visible;"/>
		</clipPath>
		<rect x="0" y="0" class="st0" width="24" height="24"/>
		<path class="st1" d="M56,24c-6.71,0-13.42,0-20.12,0c-3.96,0-7.92,0-11.88,0c0-8,0-16,0-24l32,0L56,24z"/>
		<rect x="-8" y="24" class="st2" width="32" height="24"/>
		<path class="st3" d="M0,40"/>
		<g class="st4">
			<line class="st5" x1="48" y1="4" x2="24" y2="4"/>
			<line class="st5" x1="48" y1="8" x2="32" y2="8"/>
			<line class="st5" x1="48" y1="12" x2="24" y2="12"/>
			<line class="st5" x1="48" y1="16" x2="32" y2="16"/>
			<line class="st5" x1="48" y1="20" x2="24" y2="20"/>
		</g>
		<g class="st6">
			<line class="st7" x1="24" y1="28" x2="0" y2="28"/>
			<line class="st7" x1="16" y1="32" x2="0" y2="32"/>
			<line class="st7" x1="24" y1="36" x2="0" y2="36"/>
			<line class="st7" x1="16" y1="40" x2="0" y2="40"/>
			<line class="st7" x1="24" y1="44" x2="0" y2="44"/>
		</g>
		<g class="st8">
			<ellipse transform="matrix(0.2821 -0.9594 0.9594 0.2821 -16.3161 18.1962)" class="st9" cx="4" cy="20" rx="1" ry="1"/>
			<ellipse transform="matrix(0.2821 -0.9594 0.9594 0.2821 -19.1878 14.3586)" class="st9" cx="0" cy="20" rx="1" ry="1"/>
			<ellipse transform="matrix(0.2821 -0.9594 0.9594 0.2821 -12.4785 15.3244)" class="st9" cx="4" cy="16" rx="1" ry="1"/>
			<ellipse transform="matrix(0.2821 -0.9594 0.9594 0.2821 -8.641 12.4527)" class="st9" cx="4" cy="12" rx="1" ry="1"/>
			<ellipse transform="matrix(0.2821 -0.9594 0.9594 0.2821 -4.8034 9.581)" class="st9" cx="4" cy="8" rx="1" ry="1"/>
			<ellipse transform="matrix(0.2821 -0.9594 0.9594 0.2821 -0.9658 6.7093)" class="st9" cx="4" cy="4" rx="1" ry="1"/>
			<ellipse transform="matrix(0.2821 -0.9594 0.9594 0.2821 -13.4444 22.0337)" class="st9" cx="8" cy="20" rx="1" ry="1"/>
			<ellipse transform="matrix(0.2821 -0.9594 0.9594 0.2821 -9.6068 19.162)" class="st9" cx="8" cy="16" rx="1" ry="1"/>
			<ellipse transform="matrix(0.2821 -0.9594 0.9594 0.2821 -5.7692 16.2903)" class="st9" cx="8" cy="12" rx="1" ry="1"/>
			<ellipse transform="matrix(0.2821 -0.9594 0.9594 0.2821 -1.9317 13.4186)" class="st9" cx="8" cy="8" rx="1" ry="1"/>
			<ellipse transform="matrix(0.2821 -0.9594 0.9594 0.2821 1.9059 10.5468)" class="st9" cx="8" cy="4" rx="1" ry="1"/>
			<ellipse transform="matrix(0.2821 -0.9594 0.9594 0.2821 -10.5727 25.8713)" class="st9" cx="12" cy="20" rx="1" ry="1"/>
			<ellipse transform="matrix(0.2821 -0.9594 0.9594 0.2821 -6.7351 22.9996)" class="st9" cx="12" cy="16" rx="1" ry="1"/>
			<ellipse transform="matrix(0.2821 -0.9594 0.9594 0.2821 -2.8975 20.1279)" class="st9" cx="12" cy="12" rx="1" ry="1"/>
			<ellipse transform="matrix(0.2821 -0.9594 0.9594 0.2821 0.94 17.2561)" class="st9" cx="12" cy="8" rx="1" ry="1"/>
			<ellipse transform="matrix(0.2821 -0.9594 0.9594 0.2821 4.7776 14.3844)" class="st9" cx="12" cy="4" rx="1" ry="1"/>
			<ellipse transform="matrix(0.2821 -0.9594 0.9594 0.2821 -7.701 29.7089)" class="st9" cx="16" cy="20" rx="1" ry="1"/>
			<ellipse transform="matrix(0.2821 -0.9594 0.9594 0.2821 -3.8634 26.8372)" class="st9" cx="16" cy="16" rx="1" ry="1"/>
			<ellipse transform="matrix(0.2821 -0.9594 0.9594 0.2821 -0.0258 23.9654)" class="st9" cx="16" cy="12" rx="1" ry="1"/>
			<ellipse transform="matrix(0.2821 -0.9594 0.9594 0.2821 3.8118 21.0937)" class="st9" cx="16" cy="8" rx="1" ry="1"/>
			<ellipse transform="matrix(0.2821 -0.9594 0.9594 0.2821 7.6493 18.222)" class="st9" cx="16" cy="4" rx="1" ry="1"/>
			<ellipse transform="matrix(0.2821 -0.9594 0.9594 0.2821 -4.8292 33.5465)" class="st9" cx="20" cy="20" rx="1" ry="1"/>
			<ellipse transform="matrix(0.2821 -0.9594 0.9594 0.2821 -0.9917 30.6747)" class="st9" cx="20" cy="16" rx="1" ry="1"/>
			<ellipse transform="matrix(0.2821 -0.9594 0.9594 0.2821 2.8459 27.803)" class="st9" cx="20" cy="12" rx="1" ry="1"/>
			<ellipse transform="matrix(0.2821 -0.9594 0.9594 0.2821 6.6835 24.9313)" class="st9" cx="20" cy="8" rx="1" ry="1"/>
			<ellipse transform="matrix(0.2821 -0.9594 0.9594 0.2821 10.5211 22.0596)" class="st9" cx="20" cy="4" rx="1" ry="1"/>
			<ellipse transform="matrix(0.2821 -0.9594 0.9594 0.2821 14.3586 19.1879)" class="st9" cx="20" cy="0" rx="1" ry="1"/>
		</g>
		<g class="st8">
			<ellipse transform="matrix(0.2821 -0.9594 0.9594 0.2821 4.7241 62.3171)" class="st10" cx="44" cy="28" rx="1" ry="1"/>
			<ellipse transform="matrix(0.2821 -0.9594 0.9594 0.2821 7.5959 66.1547)" class="st10" cx="48" cy="28" rx="1" ry="1"/>
			<ellipse transform="matrix(0.2821 -0.9594 0.9594 0.2821 0.8866 65.1888)" class="st10" cx="44" cy="32" rx="1" ry="1"/>
			<ellipse transform="matrix(0.2821 -0.9594 0.9594 0.2821 -2.951 68.0605)" class="st10" cx="44" cy="36" rx="1" ry="1"/>
			<ellipse transform="matrix(0.2821 -0.9594 0.9594 0.2821 -6.7886 70.9323)" class="st10" cx="44" cy="40" rx="1" ry="1"/>
			<ellipse transform="matrix(0.2821 -0.9594 0.9594 0.2821 -10.6262 73.804)" class="st10" cx="44" cy="44" rx="1" ry="1"/>
			<ellipse transform="matrix(0.2821 -0.9594 0.9594 0.2821 1.8524 58.4795)" class="st10" cx="40" cy="28" rx="1" ry="1"/>
			<ellipse transform="matrix(0.2821 -0.9594 0.9594 0.2821 -1.9852 61.3512)" class="st10" cx="40" cy="32" rx="1" ry="1"/>
			<ellipse transform="matrix(0.2821 -0.9594 0.9594 0.2821 -5.8227 64.223)" class="st10" cx="40" cy="36" rx="1" ry="1"/>
			<ellipse transform="matrix(0.2821 -0.9594 0.9594 0.2821 -9.6603 67.0947)" class="st10" cx="40" cy="40" rx="1" ry="1"/>
			<ellipse transform="matrix(0.2821 -0.9594 0.9594 0.2821 -13.4979 69.9664)" class="st10" cx="40" cy="44" rx="1" ry="1"/>
			<ellipse transform="matrix(0.2821 -0.9594 0.9594 0.2821 -1.0193 54.6419)" class="st10" cx="36" cy="28" rx="1" ry="1"/>
			<ellipse transform="matrix(0.2821 -0.9594 0.9594 0.2821 -4.8569 57.5137)" class="st10" cx="36" cy="32" rx="1" ry="1"/>
			<ellipse transform="matrix(0.2821 -0.9594 0.9594 0.2821 -8.6945 60.3854)" class="st10" cx="36" cy="36" rx="1" ry="1"/>
			<ellipse transform="matrix(0.2821 -0.9594 0.9594 0.2821 -12.532 63.2571)" class="st10" cx="36" cy="40" rx="1" ry="1"/>
			<ellipse transform="matrix(0.2821 -0.9594 0.9594 0.2821 -16.3696 66.1288)" class="st10" cx="36" cy="44" rx="1" ry="1"/>
			<ellipse transform="matrix(0.2821 -0.9594 0.9594 0.2821 -3.891 50.8044)" class="st10" cx="32" cy="28" rx="1" ry="1"/>
			<ellipse transform="matrix(0.2821 -0.9594 0.9594 0.2821 -7.7286 53.6761)" class="st10" cx="32" cy="32" rx="1" ry="1"/>
			<ellipse transform="matrix(0.2821 -0.9594 0.9594 0.2821 -11.5662 56.5478)" class="st10" cx="32" cy="36" rx="1" ry="1"/>
			<ellipse transform="matrix(0.2821 -0.9594 0.9594 0.2821 -15.4038 59.4195)" class="st10" cx="32" cy="40" rx="1" ry="1"/>
			<ellipse transform="matrix(0.2821 -0.9594 0.9594 0.2821 -19.2413 62.2913)" class="st10" cx="32" cy="44" rx="1" ry="1"/>
			<ellipse transform="matrix(0.2821 -0.9594 0.9594 0.2821 -6.7627 46.9668)" class="st10" cx="28" cy="28" rx="1" ry="1"/>
			<ellipse transform="matrix(0.2821 -0.9594 0.9594 0.2821 -10.6003 49.8385)" class="st10" cx="28" cy="32" rx="1" ry="1"/>
			<ellipse transform="matrix(0.2821 -0.9594 0.9594 0.2821 -14.4379 52.7102)" class="st10" cx="28" cy="36" rx="1" ry="1"/>
			<ellipse transform="matrix(0.2821 -0.9594 0.9594 0.2821 -18.2755 55.582)" class="st10" cx="28" cy="40" rx="1" ry="1"/>
			<ellipse transform="matrix(0.2821 -0.9594 0.9594 0.2821 -22.113 58.4537)" class="st10" cx="28" cy="44" rx="1" ry="1"/>
			<ellipse transform="matrix(0.2821 -0.9594 0.9594 0.2821 -25.9506 61.3254)" class="st10" cx="28" cy="48" rx="1" ry="1"/>
		</g>
	</g>
	<path class="st10" d="M32,20"/>
</g>
<g id="Layer_3">
	<rect x="8" y="12" class="st11" width="32" height="24"/>
</g>
<g id="Layer_2">
	<path class="st10" d="M8,33.75V36h32v-2.25H8z M20.8,19.5l9.14,4.5l-9.14,4.5V19.5z M8,15.75v16.5h32v-16.5H8z M8,12v2.25h32V12H8z
		"/>
</g>
</svg>
