<?xml version="1.0" encoding="utf-8"?>
<!-- Generator: Adobe Illustrator 23.0.4, SVG Export Plug-In . SVG Version: 6.00 Build 0)  -->
<svg version="1.1" id="Layer_1" xmlns="http://www.w3.org/2000/svg" xmlns:xlink="http://www.w3.org/1999/xlink" x="0px" y="0px"
	 viewBox="0 0 700 255" style="enable-background:new 0 0 700 255;" xml:space="preserve">
<style type="text/css">
	.st0{display:none;}
	.st1{fill:none;stroke:#000000;stroke-width:2.5;stroke-miterlimit:10;}
	.st2{fill:#FFFFFF;stroke:#000000;stroke-width:2.5;stroke-miterlimit:10;}
	.st3{fill:#8C3123;}
	.st4{fill:#E05243;}
	.st5{fill:#5E1F18;}
	.st6{fill:#F2B0A9;}
	.st7{fill:url(#SVGID_1_);}
	.st8{fill:url(#SVGID_2_);}
	.st9{fill-rule:evenodd;clip-rule:evenodd;}
</style>
<g class="st0">
	
		<image style="display:inline;overflow:visible;enable-background:new    ;" width="1805" height="368" xlink:href="cloud-vm-storage.png"  transform="matrix(1.0019 0 0 1.0019 -538.2466 -53.6067)">
	</image>
</g>
<g>
	<line class="st1" x1="83.9" y1="85.8" x2="83.9" y2="63.5"/>
	<line class="st1" x1="261.8" y1="85.8" x2="261.8" y2="63.5"/>
	<line class="st1" x1="441.9" y1="86.5" x2="441.9" y2="64.1"/>
	<line class="st1" x1="611.9" y1="88.2" x2="611.9" y2="65.9"/>
</g>
<line class="st1" x1="148.6" y1="37.7" x2="545.2" y2="37.7"/>
<rect x="2.2" y="5.7" class="st2" width="154.5" height="64.4"/>
<rect x="179.4" y="5.7" class="st2" width="154.5" height="64.4"/>
<rect x="357.1" y="5.7" class="st2" width="154.5" height="64.4"/>
<rect x="533.5" y="5.7" class="st2" width="154.5" height="64.4"/>
<rect x="2.2" y="79.3" class="st2" width="685.9" height="169.2"/>
<g>
	<path d="M49.3,42.1l-3-9.2h1.3l1.4,4.6c0.4,1.2,0.7,2.4,1,3.5l0,0c0.3-1.1,0.6-2.2,1.1-3.4l1.6-4.6H54l-3.3,9.2L49.3,42.1
		L49.3,42.1z"/>
	<path d="M62.7,38c-0.1-1.3-0.2-2.8-0.1-4l0,0c-0.3,1.1-0.7,2.2-1.2,3.5L59.8,42h-0.9l-1.5-4.4c-0.4-1.3-0.8-2.5-1.1-3.6l0,0
		c0,1.2-0.1,2.7-0.2,4.1l-0.2,4h-1.1l0.6-9.2h1.5l1.6,4.5c0.4,1.1,0.7,2.2,0.9,3.1l0,0c0.2-0.9,0.6-1.9,1-3.1l1.6-4.5h1.5l0.6,9.2
		h-1.2L62.7,38z"/>
	<path d="M70,32.9v9.2h-1.2v-9.2H70z"/>
	<path d="M72.2,37.3c0-0.7,0-1.2-0.1-1.8h1.1l0.1,1.1l0,0c0.3-0.6,1.1-1.2,2.2-1.2c0.9,0,2.3,0.5,2.3,2.8v4h-1.2v-3.8
		c0-1.1-0.4-2-1.5-2c-0.8,0-1.4,0.6-1.6,1.2c0,0.1-0.1,0.3-0.1,0.5v4h-1.2V37.3z"/>
	<path d="M79.7,40.9c0.4,0.2,1,0.5,1.6,0.5c0.9,0,1.3-0.4,1.3-1s-0.3-0.9-1.2-1.2c-1.2-0.4-1.8-1.1-1.8-1.9c0-1.1,0.9-1.9,2.3-1.9
		c0.7,0,1.3,0.2,1.6,0.4l-0.3,0.9c-0.3-0.2-0.7-0.4-1.4-0.4c-0.7,0-1.1,0.4-1.1,0.9s0.4,0.8,1.3,1.1c1.2,0.4,1.7,1,1.7,2
		c0,1.2-0.9,2-2.5,2c-0.7,0-1.4-0.2-1.9-0.5L79.7,40.9z"/>
	<path d="M86.7,33.6v1.9h1.7v0.9h-1.7V40c0,0.8,0.2,1.3,0.9,1.3c0.3,0,0.5,0,0.7-0.1l0.1,0.9c-0.2,0.1-0.6,0.2-1.1,0.2
		c-0.6,0-1-0.2-1.3-0.5c-0.3-0.4-0.5-0.9-0.5-1.7v-3.6h-1v-0.9h1v-1.7L86.7,33.6z"/>
	<path d="M93.5,42.1l-0.1-0.8l0,0c-0.4,0.5-1.1,1-2,1c-1.3,0-2-0.9-2-1.9c0-1.6,1.4-2.5,4-2.5v-0.1c0-0.5-0.2-1.5-1.5-1.5
		c-0.6,0-1.3,0.2-1.7,0.5l-0.4-0.9c0.5-0.4,1.3-0.6,2.2-0.6c2,0,2.5,1.4,2.5,2.7v2.5c0,0.6,0,1.1,0.1,1.6H93.5z M93.3,38.7
		c-1.3,0-2.8,0.2-2.8,1.5c0,0.8,0.5,1.2,1.1,1.2c0.9,0,1.4-0.5,1.6-1.1c0-0.1,0.1-0.3,0.1-0.4C93.3,39.9,93.3,38.7,93.3,38.7z"/>
	<path d="M96.4,37.3c0-0.7,0-1.2-0.1-1.8h1.1l0.1,1.1l0,0c0.3-0.6,1.1-1.2,2.2-1.2c0.9,0,2.3,0.5,2.3,2.8v4h-1.2v-3.8
		c0-1.1-0.4-2-1.5-2c-0.8,0-1.4,0.6-1.6,1.2c-0.1,0.2-0.1,0.4-0.1,0.6v4h-1.2V37.3z"/>
	<path d="M108.8,41.9c-0.3,0.2-1,0.4-1.9,0.4c-2,0-3.3-1.4-3.3-3.4s1.4-3.5,3.6-3.5c0.7,0,1.3,0.2,1.7,0.3l-0.3,0.9
		c-0.3-0.2-0.7-0.3-1.4-0.3c-1.5,0-2.3,1.1-2.3,2.5c0,1.5,1,2.5,2.3,2.5c0.7,0,1.1-0.2,1.5-0.3L108.8,41.9z"/>
	<path d="M110.8,39c0,1.6,1.1,2.3,2.3,2.3c0.9,0,1.4-0.2,1.8-0.3l0.2,0.9c-0.4,0.2-1.2,0.4-2.2,0.4c-2,0-3.3-1.3-3.3-3.3
		s1.2-3.6,3.1-3.6c2.2,0,2.7,1.9,2.7,3.1c0,0.2,0,0.4,0,0.6h-4.6V39z M114.3,38.1c0-0.8-0.3-2-1.7-2c-1.2,0-1.8,1.1-1.9,2H114.3z"/>
</g>
<g>
	<path d="M225.4,42.1l-3-9.2h1.3l1.4,4.6c0.4,1.2,0.7,2.4,1,3.5l0,0c0.3-1.1,0.6-2.2,1.1-3.4l1.6-4.6h1.3l-3.3,9.2L225.4,42.1
		L225.4,42.1z"/>
	<path d="M238.9,38c-0.1-1.3-0.2-2.8-0.1-4l0,0c-0.3,1.1-0.7,2.2-1.2,3.5L236,42h-0.9l-1.5-4.4c-0.4-1.3-0.8-2.5-1.1-3.6l0,0
		c0,1.2-0.1,2.7-0.2,4.1l-0.2,4H231l0.6-9.2h1.5l1.6,4.5c0.4,1.1,0.7,2.2,0.9,3.1l0,0c0.2-0.9,0.6-1.9,1-3.1l1.6-4.5h1.5l0.6,9.2
		h-1.2L238.9,38z"/>
	<path d="M246.2,32.9v9.2H245v-9.2H246.2z"/>
	<path d="M248.4,37.3c0-0.7,0-1.2-0.1-1.8h1.1l0.1,1.1l0,0c0.3-0.6,1.1-1.2,2.2-1.2c0.9,0,2.3,0.5,2.3,2.8v4h-1.2v-3.8
		c0-1.1-0.4-2-1.5-2c-0.8,0-1.4,0.6-1.6,1.2c-0.1,0.2-0.1,0.4-0.1,0.6v4h-1.2V37.3z"/>
	<path d="M255.8,40.9c0.4,0.2,1,0.5,1.6,0.5c0.9,0,1.3-0.4,1.3-1s-0.3-0.9-1.2-1.2c-1.2-0.4-1.8-1.1-1.8-1.9c0-1.1,0.9-1.9,2.3-1.9
		c0.7,0,1.3,0.2,1.6,0.4l-0.3,0.9c-0.3-0.2-0.7-0.4-1.4-0.4c-0.7,0-1.1,0.4-1.1,0.9s0.4,0.8,1.3,1.1c1.2,0.4,1.7,1,1.7,2
		c0,1.2-0.9,2-2.5,2c-0.7,0-1.4-0.2-1.9-0.5L255.8,40.9z"/>
	<path d="M262.9,33.6v1.9h1.7v0.9h-1.7V40c0,0.8,0.2,1.3,0.9,1.3c0.3,0,0.5,0,0.7-0.1l0.1,0.9c-0.2,0.1-0.6,0.2-1.1,0.2
		c-0.6,0-1-0.2-1.3-0.5c-0.3-0.4-0.5-0.9-0.5-1.7v-3.6h-1v-0.9h1v-1.7L262.9,33.6z"/>
	<path d="M269.7,42.1l-0.1-0.8l0,0c-0.4,0.5-1.1,1-2,1c-1.3,0-2-0.9-2-1.9c0-1.6,1.4-2.5,4-2.5v-0.1c0-0.5-0.2-1.5-1.5-1.5
		c-0.6,0-1.3,0.2-1.7,0.5l-0.3-0.8c0.5-0.4,1.3-0.6,2.2-0.6c2,0,2.5,1.4,2.5,2.7v2.5c0,0.6,0,1.1,0.1,1.6h-1.2V42.1z M269.5,38.7
		c-1.3,0-2.8,0.2-2.8,1.5c0,0.8,0.5,1.2,1.1,1.2c0.9,0,1.4-0.5,1.6-1.1c0-0.1,0.1-0.3,0.1-0.4L269.5,38.7L269.5,38.7z"/>
	<path d="M272.6,37.3c0-0.7,0-1.2-0.1-1.8h1.1l0.1,1.1l0,0c0.3-0.6,1.1-1.2,2.2-1.2c0.9,0,2.3,0.5,2.3,2.8v4H277v-3.8
		c0-1.1-0.4-2-1.5-2c-0.8,0-1.4,0.6-1.6,1.2c-0.1,0.2-0.1,0.4-0.1,0.6v4h-1.2L272.6,37.3L272.6,37.3z"/>
	<path d="M284.9,41.9c-0.3,0.2-1,0.4-1.9,0.4c-2,0-3.3-1.4-3.3-3.4s1.4-3.5,3.6-3.5c0.7,0,1.3,0.2,1.7,0.3l-0.3,0.9
		c-0.3-0.2-0.7-0.3-1.4-0.3c-1.5,0-2.3,1.1-2.3,2.5c0,1.5,1,2.5,2.3,2.5c0.7,0,1.1-0.2,1.5-0.3L284.9,41.9z"/>
	<path d="M286.9,39c0,1.6,1.1,2.3,2.3,2.3c0.9,0,1.4-0.2,1.8-0.3l0.2,0.9c-0.4,0.2-1.2,0.4-2.2,0.4c-2,0-3.3-1.3-3.3-3.3
		s1.2-3.6,3.1-3.6c2.2,0,2.7,1.9,2.7,3.1c0,0.2,0,0.4,0,0.6h-4.6V39z M290.5,38.1c0-0.8-0.3-2-1.7-2c-1.2,0-1.8,1.1-1.9,2H290.5z"/>
</g>
<g>
	<path d="M406.2,42.1l-3-9.2h1.3l1.4,4.6c0.4,1.2,0.7,2.4,1,3.5l0,0c0.3-1.1,0.6-2.2,1.1-3.4l1.6-4.6h1.3l-3.3,9.2L406.2,42.1
		L406.2,42.1z"/>
	<path d="M419.6,38c-0.1-1.3-0.2-2.8-0.1-4l0,0c-0.3,1.1-0.7,2.2-1.2,3.5l-1.6,4.5h-0.9l-1.5-4.4c-0.4-1.3-0.8-2.5-1.1-3.6l0,0
		c0,1.2-0.1,2.7-0.2,4.1l-0.2,4h-1.1l0.6-9.2h1.5l1.6,4.5c0.4,1.1,0.7,2.2,0.9,3.1l0,0c0.2-0.9,0.6-1.9,1-3.1l1.6-4.5h1.5l0.6,9.2
		h-1.2L419.6,38z"/>
	<path d="M426.9,32.9v9.2h-1.2v-9.2H426.9z"/>
	<path d="M429.1,37.3c0-0.7,0-1.2-0.1-1.8h1.1l0.1,1.1l0,0c0.3-0.6,1.1-1.2,2.2-1.2c0.9,0,2.3,0.5,2.3,2.8v4h-1.2v-3.8
		c0-1.1-0.4-2-1.5-2c-0.8,0-1.4,0.6-1.6,1.2c-0.1,0.2-0.1,0.4-0.1,0.6v4h-1.2L429.1,37.3L429.1,37.3z"/>
	<path d="M436.6,40.9c0.4,0.2,1,0.5,1.6,0.5c0.9,0,1.3-0.4,1.3-1s-0.3-0.9-1.2-1.2c-1.2-0.4-1.8-1.1-1.8-1.9c0-1.1,0.9-1.9,2.3-1.9
		c0.7,0,1.3,0.2,1.6,0.4l-0.3,0.9c-0.3-0.2-0.7-0.4-1.4-0.4c-0.7,0-1.1,0.4-1.1,0.9s0.4,0.8,1.3,1.1c1.2,0.4,1.7,1,1.7,2
		c0,1.2-0.9,2-2.5,2c-0.7,0-1.4-0.2-1.9-0.5L436.6,40.9z"/>
	<path d="M443.6,33.6v1.9h1.7v0.9h-1.7V40c0,0.8,0.2,1.3,0.9,1.3c0.3,0,0.5,0,0.7-0.1l0.1,0.9c-0.2,0.1-0.6,0.2-1.1,0.2
		c-0.6,0-1-0.2-1.3-0.5c-0.3-0.4-0.5-0.9-0.5-1.7v-3.6h-1v-0.9h1v-1.7L443.6,33.6z"/>
	<path d="M450.4,42.1l-0.1-0.8l0,0c-0.4,0.5-1.1,1-2,1c-1.3,0-2-0.9-2-1.9c0-1.6,1.4-2.5,4-2.5v-0.1c0-0.5-0.2-1.5-1.5-1.5
		c-0.6,0-1.3,0.2-1.7,0.5l-0.3-0.8c0.5-0.4,1.3-0.6,2.2-0.6c2,0,2.5,1.4,2.5,2.7v2.5c0,0.6,0,1.1,0.1,1.6h-1.2V42.1z M450.2,38.7
		c-1.3,0-2.8,0.2-2.8,1.5c0,0.8,0.5,1.2,1.1,1.2c0.9,0,1.4-0.5,1.6-1.1c0-0.1,0.1-0.3,0.1-0.4L450.2,38.7L450.2,38.7z"/>
	<path d="M453.3,37.3c0-0.7,0-1.2-0.1-1.8h1.1l0.1,1.1l0,0c0.3-0.6,1.1-1.2,2.2-1.2c0.9,0,2.3,0.5,2.3,2.8v4h-1.2v-3.8
		c0-1.1-0.4-2-1.5-2c-0.8,0-1.4,0.6-1.6,1.2c-0.1,0.2-0.1,0.4-0.1,0.6v4h-1.2L453.3,37.3L453.3,37.3z"/>
	<path d="M465.7,41.9c-0.3,0.2-1,0.4-1.9,0.4c-2,0-3.3-1.4-3.3-3.4s1.4-3.5,3.6-3.5c0.7,0,1.3,0.2,1.7,0.3l-0.3,0.9
		c-0.3-0.2-0.7-0.3-1.4-0.3c-1.5,0-2.3,1.1-2.3,2.5c0,1.5,1,2.5,2.3,2.5c0.7,0,1.1-0.2,1.5-0.3L465.7,41.9z"/>
	<path d="M467.7,39c0,1.6,1.1,2.3,2.3,2.3c0.9,0,1.4-0.2,1.8-0.3l0.2,0.9c-0.4,0.2-1.2,0.4-2.2,0.4c-2,0-3.3-1.3-3.3-3.3
		s1.2-3.6,3.1-3.6c2.2,0,2.7,1.9,2.7,3.1c0,0.2,0,0.4,0,0.6h-4.6V39z M471.2,38.1c0-0.8-0.3-2-1.7-2c-1.2,0-1.8,1.1-1.9,2H471.2z"/>
</g>
<g>
	<path d="M577.2,42.1l-3-9.2h1.3l1.4,4.6c0.4,1.2,0.7,2.4,1,3.5l0,0c0.3-1.1,0.6-2.2,1.1-3.4l1.6-4.6h1.3l-3.3,9.2L577.2,42.1
		L577.2,42.1z"/>
	<path d="M590.6,38c-0.1-1.3-0.2-2.8-0.1-4l0,0c-0.3,1.1-0.7,2.2-1.2,3.5l-1.6,4.5h-0.9l-1.5-4.4c-0.4-1.3-0.8-2.5-1.1-3.6l0,0
		c0,1.2-0.1,2.7-0.2,4.1l-0.2,4h-1.1l0.6-9.2h1.5l1.6,4.5c0.4,1.1,0.7,2.2,0.9,3.1l0,0c0.2-0.9,0.6-1.9,1-3.1l1.6-4.5h1.5l0.6,9.2
		h-1.2L590.6,38z"/>
	<path d="M598,32.9v9.2h-1.2v-9.2H598z"/>
	<path d="M600.2,37.3c0-0.7,0-1.2-0.1-1.8h1.1l0.1,1.1l0,0c0.3-0.6,1.1-1.2,2.2-1.2c0.9,0,2.3,0.5,2.3,2.8v4h-1.2v-3.8
		c0-1.1-0.4-2-1.5-2c-0.8,0-1.4,0.6-1.6,1.2c-0.1,0.2-0.1,0.4-0.1,0.6v4h-1.2V37.3z"/>
	<path d="M607.6,40.9c0.4,0.2,1,0.5,1.6,0.5c0.9,0,1.3-0.4,1.3-1s-0.3-0.9-1.2-1.2c-1.2-0.4-1.8-1.1-1.8-1.9c0-1.1,0.9-1.9,2.3-1.9
		c0.7,0,1.3,0.2,1.6,0.4l-0.3,0.9c-0.3-0.2-0.7-0.4-1.4-0.4s-1.1,0.4-1.1,0.9s0.4,0.8,1.3,1.1c1.2,0.4,1.7,1,1.7,2
		c0,1.2-0.9,2-2.5,2c-0.7,0-1.4-0.2-1.9-0.5L607.6,40.9z"/>
	<path d="M614.7,33.6v1.9h1.7v0.9h-1.7V40c0,0.8,0.2,1.3,0.9,1.3c0.3,0,0.5,0,0.7-0.1l0.1,0.9c-0.2,0.1-0.6,0.2-1.1,0.2
		c-0.6,0-1-0.2-1.3-0.5c-0.3-0.4-0.5-0.9-0.5-1.7v-3.6h-1v-0.9h1v-1.7L614.7,33.6z"/>
	<path d="M621.4,42.1l-0.1-0.8l0,0c-0.4,0.5-1.1,1-2,1c-1.3,0-2-0.9-2-1.9c0-1.6,1.4-2.5,4-2.5v-0.1c0-0.5-0.2-1.5-1.5-1.5
		c-0.6,0-1.3,0.2-1.7,0.5l-0.3-0.8c0.5-0.4,1.3-0.6,2.2-0.6c2,0,2.5,1.4,2.5,2.7v2.5c0,0.6,0,1.1,0.1,1.6h-1.2V42.1z M621.2,38.7
		c-1.3,0-2.8,0.2-2.8,1.5c0,0.8,0.5,1.2,1.1,1.2c0.9,0,1.4-0.5,1.6-1.1c0-0.1,0.1-0.3,0.1-0.4L621.2,38.7L621.2,38.7z"/>
	<path d="M624.4,37.3c0-0.7,0-1.2-0.1-1.8h1.1l0.1,1.1l0,0c0.3-0.6,1.1-1.2,2.2-1.2c0.9,0,2.3,0.5,2.3,2.8v4h-1.2v-3.8
		c0-1.1-0.4-2-1.5-2c-0.8,0-1.4,0.6-1.6,1.2c-0.1,0.2-0.1,0.4-0.1,0.6v4h-1.2V37.3z"/>
	<path d="M636.7,41.9c-0.3,0.2-1,0.4-1.9,0.4c-2,0-3.3-1.4-3.3-3.4s1.4-3.5,3.6-3.5c0.7,0,1.3,0.2,1.7,0.3l-0.3,0.9
		c-0.3-0.2-0.7-0.3-1.4-0.3c-1.5,0-2.3,1.1-2.3,2.5c0,1.5,1,2.5,2.3,2.5c0.7,0,1.1-0.2,1.5-0.3L636.7,41.9z"/>
	<path d="M638.7,39c0,1.6,1.1,2.3,2.3,2.3c0.9,0,1.4-0.2,1.8-0.3l0.2,0.9c-0.4,0.2-1.2,0.4-2.2,0.4c-2,0-3.3-1.3-3.3-3.3
		s1.2-3.6,3.1-3.6c2.2,0,2.7,1.9,2.7,3.1c0,0.2,0,0.4,0,0.6h-4.6V39z M642.2,38.1c0-0.8-0.3-2-1.7-2c-1.2,0-1.8,1.1-1.9,2H642.2z"/>
</g>
<g>
	<path d="M117,147.4v4.7h5.5v-4.7h1.5v11.2h-1.5v-5.2H117v5.2h-1.5v-11.2H117z"/>
	<path d="M128.2,148.3c0,0.5-0.4,0.9-1,0.9c-0.5,0-0.9-0.4-0.9-0.9c0-0.5,0.4-1,1-1C127.9,147.3,128.2,147.8,128.2,148.3z
		 M126.6,158.6v-8h1.5v8H126.6z"/>
	<path d="M137.4,150.6c0,0.6-0.1,1.2-0.1,2.2v4.7c0,1.8-0.4,3-1.1,3.6c-0.7,0.7-1.9,1-2.9,1c-1,0-2.1-0.2-2.7-0.6l0.4-1.1
		c0.5,0.4,1.3,0.6,2.3,0.6c1.5,0,2.6-0.7,2.6-2.8v-0.9l0,0c-0.5,0.7-1.3,1.3-2.6,1.3c-1.9,0-3.4-1.7-3.4-3.9c0-2.7,1.8-4.3,3.6-4.3
		c1.5,0,2.2,0.7,2.6,1.5l0,0l0.1-1.2h1.2V150.6z M135.9,153.8c0-0.2,0-0.5-0.1-0.6c-0.2-0.9-1-1.6-2.1-1.6c-1.5,0-2.4,1.2-2.4,3
		c0,1.6,0.9,2.9,2.4,2.9c0.9,0,1.7-0.6,2.1-1.5c0.1-0.2,0.1-0.5,0.1-0.7V153.8z"/>
	<path d="M139.8,146.8h1.5v5l0,0c0.2-0.4,0.6-0.7,1.1-1s1-0.4,1.5-0.4c1.1,0,2.8,0.6,2.8,3.4v4.9h-1.5v-4.6c0-1.3-0.5-2.4-1.8-2.4
		c-1,0-1.7,0.6-1.9,1.5c-0.1,0.2-0.1,0.4-0.1,0.7v4.9h-1.5L139.8,146.8L139.8,146.8z"/>
	<path d="M149.1,146.8h1.5v11.8h-1.5V146.8z"/>
	<path d="M153.6,150.6l1.8,4.7c0.2,0.5,0.4,1.2,0.5,1.7l0,0c0.1-0.5,0.4-1.1,0.5-1.7l1.6-4.7h1.6l-2.2,5.7c-1.1,2.8-1.8,4.1-2.8,5.1
		c-0.7,0.6-1.5,0.9-1.8,1l-0.4-1.2c0.4-0.1,0.9-0.4,1.3-0.7c0.4-0.4,0.9-0.9,1.2-1.6c0.1-0.1,0.1-0.2,0.1-0.4c0-0.1,0-0.2-0.1-0.4
		l-3-7.4h1.7V150.6z"/>
	<path d="M166.2,155.1l-1.2,3.5h-1.5l3.8-11.2h1.7l3.9,11.2h-1.6l-1.2-3.5H166.2z M170,154l-1.1-3.3c-0.2-0.7-0.4-1.5-0.6-2.1l0,0
		c-0.1,0.6-0.4,1.3-0.6,2.1l-1.1,3.3H170z"/>
	<path d="M174.8,150.6l1.6,4.5c0.2,0.7,0.5,1.5,0.6,2.1l0,0c0.2-0.6,0.4-1.3,0.7-2.1l1.6-4.5h1.6l-3.2,8h-1.5l-3-8H174.8z"/>
	<path d="M186.6,158.6l-0.1-1l0,0c-0.5,0.6-1.3,1.2-2.4,1.2c-1.6,0-2.4-1.1-2.4-2.3c0-1.9,1.7-3,4.9-3v-0.1c0-0.6-0.2-1.8-1.8-1.8
		c-0.7,0-1.6,0.2-2.1,0.6l-0.4-1c0.6-0.5,1.6-0.7,2.7-0.7c2.4,0,3,1.7,3,3.3v3c0,0.7,0,1.3,0.1,1.9h-1.5V158.6z M186.4,154.5
		c-1.6,0-3.4,0.2-3.4,1.8c0,1,0.6,1.5,1.3,1.5c1.1,0,1.7-0.6,1.9-1.3c0-0.1,0.1-0.4,0.1-0.5L186.4,154.5L186.4,154.5z"/>
	<path d="M190.2,146.8h1.5v11.8h-1.5V146.8z"/>
	<path d="M195.7,148.3c0,0.5-0.4,0.9-1,0.9c-0.5,0-0.9-0.4-0.9-0.9c0-0.5,0.4-1,1-1C195.5,147.3,195.7,147.8,195.7,148.3z
		 M194.1,158.6v-8h1.5v8H194.1z"/>
	<path d="M202.5,158.6l-0.1-1l0,0c-0.5,0.6-1.3,1.2-2.4,1.2c-1.6,0-2.4-1.1-2.4-2.3c0-1.9,1.7-3,4.9-3v-0.1c0-0.6-0.2-1.8-1.8-1.8
		c-0.7,0-1.6,0.2-2.1,0.6l-0.4-1c0.6-0.5,1.6-0.7,2.7-0.7c2.4,0,3,1.7,3,3.3v3c0,0.7,0,1.3,0.1,1.9h-1.5V158.6z M202.3,154.5
		c-1.6,0-3.4,0.2-3.4,1.8c0,1,0.6,1.5,1.3,1.5c1.1,0,1.7-0.6,1.9-1.3c0-0.1,0.1-0.4,0.1-0.5L202.3,154.5L202.3,154.5z"/>
	<path d="M206,158.6c0-0.6,0.1-1.3,0.1-2.1v-9.7h1.5v5.1l0,0c0.5-0.9,1.5-1.5,2.8-1.5c1.9,0,3.4,1.7,3.4,4.1c0,2.9-1.8,4.4-3.6,4.4
		c-1.2,0-2.1-0.5-2.7-1.5l0,0l-0.1,1.3H206V158.6z M207.5,155.3c0,0.2,0,0.4,0.1,0.5c0.2,1,1.1,1.7,2.2,1.7c1.6,0,2.4-1.2,2.4-3.2
		c0-1.6-0.9-3-2.4-3c-1,0-1.9,0.7-2.2,1.8c0,0.1-0.1,0.4-0.1,0.6V155.3z"/>
	<path d="M215.5,146.8h1.5v11.8h-1.5V146.8z"/>
	<path d="M220.3,154.8c0,1.9,1.3,2.8,2.8,2.8c1.1,0,1.7-0.2,2.2-0.4l0.2,1.1c-0.5,0.2-1.5,0.5-2.7,0.5c-2.4,0-4-1.6-4-4
		s1.5-4.4,3.8-4.4c2.7,0,3.3,2.3,3.3,3.8c0,0.2,0,0.5,0,0.7h-5.6V154.8z M224.6,153.8c0-1-0.4-2.4-2.1-2.4c-1.5,0-2.2,1.3-2.3,2.4
		H224.6z"/>
	<path d="M231.4,147.6c0.7-0.1,1.6-0.2,2.8-0.2c1.5,0,2.4,0.4,3.2,1c0.6,0.5,1,1.3,1,2.3c0,1-0.2,1.8-0.9,2.4
		c-0.7,0.9-2.1,1.2-3.4,1.2c-0.5,0-0.9,0-1.2-0.1v4.5h-1.5L231.4,147.6L231.4,147.6z M232.9,152.9c0.4,0.1,0.7,0.1,1.2,0.1
		c1.7,0,2.8-0.9,2.8-2.4c0-1.5-1.1-2.2-2.7-2.2c-0.6,0-1.1,0-1.3,0.1L232.9,152.9L232.9,152.9z"/>
	<path d="M240.7,154.8c0,1.9,1.3,2.8,2.8,2.8c1.1,0,1.7-0.2,2.2-0.4l0.2,1.1c-0.5,0.2-1.5,0.5-2.7,0.5c-2.4,0-4-1.6-4-4
		s1.5-4.4,3.8-4.4c2.7,0,3.3,2.3,3.3,3.8c0,0.2,0,0.5,0,0.7h-5.6V154.8z M244.9,153.8c0-1-0.4-2.4-2.1-2.4c-1.5,0-2.2,1.3-2.3,2.4
		H244.9z"/>
	<path d="M248.2,153c0-1,0-1.8-0.1-2.6h1.3v1.6h0.1c0.4-1.1,1.2-1.8,2.2-1.8c0.1,0,0.2,0,0.4,0v1.3c-0.1,0-0.2,0-0.5,0
		c-1.1,0-1.8,0.7-1.9,1.9c0,0.2-0.1,0.5-0.1,0.7v4.3h-1.3V153z"/>
	<path d="M253.4,157.2c0.5,0.2,1.2,0.6,1.9,0.6c1.1,0,1.6-0.5,1.6-1.2s-0.4-1.1-1.5-1.5c-1.5-0.5-2.2-1.3-2.2-2.3
		c0-1.3,1.1-2.3,2.8-2.3c0.9,0,1.6,0.2,1.9,0.5l-0.4,1.1c-0.4-0.2-0.9-0.5-1.7-0.5c-0.9,0-1.3,0.5-1.3,1.1s0.5,1,1.6,1.3
		c1.5,0.5,2.1,1.2,2.1,2.4c0,1.5-1.1,2.4-3,2.4c-0.9,0-1.7-0.2-2.3-0.6L253.4,157.2z"/>
	<path d="M261.8,148.3c0,0.5-0.4,0.9-1,0.9c-0.5,0-0.9-0.4-0.9-0.9c0-0.5,0.4-1,1-1S261.8,147.8,261.8,148.3z M260.2,158.6v-8h1.5v8
		H260.2z"/>
	<path d="M263.9,157.2c0.5,0.2,1.2,0.6,1.9,0.6c1.1,0,1.6-0.5,1.6-1.2s-0.4-1.1-1.5-1.5c-1.5-0.5-2.2-1.3-2.2-2.3
		c0-1.3,1.1-2.3,2.8-2.3c0.9,0,1.6,0.2,1.9,0.5l-0.4,1.1c-0.4-0.2-0.9-0.5-1.7-0.5c-0.9,0-1.3,0.5-1.3,1.1s0.5,1,1.6,1.3
		c1.5,0.5,2.1,1.2,2.1,2.4c0,1.5-1.1,2.4-3,2.4c-0.9,0-1.7-0.2-2.3-0.6L263.9,157.2z"/>
	<path d="M272.5,148.3v2.3h2.1v1.1h-2.1v4.4c0,1,0.2,1.6,1.1,1.6c0.4,0,0.6,0,0.9-0.1l0.1,1.1c-0.2,0.1-0.7,0.2-1.3,0.2
		c-0.7,0-1.2-0.2-1.6-0.6c-0.4-0.5-0.6-1.1-0.6-2.1v-4.4h-1.2v-1.1h1.2v-1.9L272.5,148.3z"/>
	<path d="M277,154.8c0,1.9,1.3,2.8,2.8,2.8c1.1,0,1.7-0.2,2.2-0.4l0.2,1.1c-0.5,0.2-1.5,0.5-2.7,0.5c-2.4,0-4-1.6-4-4
		s1.5-4.4,3.8-4.4c2.7,0,3.3,2.3,3.3,3.8c0,0.2,0,0.5,0,0.7H277V154.8z M281.3,153.8c0-1-0.4-2.4-2.1-2.4c-1.5,0-2.2,1.3-2.3,2.4
		H281.3z"/>
	<path d="M284.5,152.8c0-0.9,0-1.5-0.1-2.2h1.3l0.1,1.3l0,0c0.4-0.7,1.3-1.5,2.7-1.5c1.1,0,2.8,0.6,2.8,3.4v4.9h-1.5v-4.6
		c0-1.3-0.5-2.4-1.8-2.4c-1,0-1.7,0.7-1.9,1.5c-0.1,0.2-0.1,0.5-0.1,0.7v4.9h-1.5L284.5,152.8L284.5,152.8z"/>
	<path d="M295.5,148.3v2.3h2.1v1.1h-2.1v4.4c0,1,0.2,1.6,1.1,1.6c0.4,0,0.6,0,0.9-0.1l0.1,1.1c-0.2,0.1-0.7,0.2-1.3,0.2
		c-0.7,0-1.2-0.2-1.6-0.6c-0.4-0.5-0.6-1.1-0.6-2.1v-4.4h-1.2v-1.1h1.2v-1.9L295.5,148.3z"/>
	<path d="M302.6,156.8c0.6,0.4,1.6,0.7,2.6,0.7c1.5,0,2.3-0.7,2.3-1.9c0-1.1-0.6-1.7-2.1-2.2c-1.8-0.6-2.9-1.6-2.9-3.2
		c0-1.7,1.5-3,3.6-3c1.1,0,1.9,0.2,2.4,0.6l-0.4,1.2c-0.4-0.2-1.1-0.5-2.2-0.5c-1.6,0-2.1,1-2.1,1.7c0,1.1,0.7,1.6,2.2,2.2
		c1.9,0.7,2.9,1.7,2.9,3.3c0,1.7-1.3,3.3-3.9,3.3c-1.1,0-2.3-0.4-2.9-0.7L302.6,156.8z"/>
	<path d="M312.7,148.3v2.3h2.1v1.1h-2.1v4.4c0,1,0.2,1.6,1.1,1.6c0.4,0,0.6,0,0.9-0.1l0.1,1.1c-0.2,0.1-0.7,0.2-1.3,0.2
		c-0.7,0-1.2-0.2-1.6-0.6c-0.4-0.5-0.6-1.1-0.6-2.1v-4.4h-1.2v-1.1h1.2v-1.9L312.7,148.3z"/>
	<path d="M323.7,154.5c0,3-2.1,4.3-4,4.3c-2.2,0-3.9-1.6-3.9-4.1c0-2.7,1.8-4.3,4-4.3C322.1,150.4,323.7,152.1,323.7,154.5z
		 M317.2,154.6c0,1.8,1,3.2,2.4,3.2s2.4-1.3,2.4-3.2c0-1.3-0.7-3.2-2.4-3.2S317.2,153,317.2,154.6z"/>
	<path d="M325.5,153c0-1,0-1.8-0.1-2.6h1.3v1.6h0.1c0.4-1.1,1.2-1.8,2.2-1.8c0.1,0,0.2,0,0.4,0v1.3c-0.1,0-0.2,0-0.5,0
		c-1.1,0-1.8,0.7-1.9,1.9c0,0.2-0.1,0.5-0.1,0.7v4.3h-1.5V153H325.5z"/>
	<path d="M335.3,158.6l-0.1-1l0,0c-0.5,0.6-1.3,1.2-2.4,1.2c-1.6,0-2.4-1.1-2.4-2.3c0-1.9,1.7-3,4.9-3v-0.1c0-0.6-0.2-1.8-1.8-1.8
		c-0.7,0-1.6,0.2-2.1,0.6l-0.4-1c0.6-0.5,1.6-0.7,2.7-0.7c2.4,0,3,1.7,3,3.3v3c0,0.7,0,1.3,0.1,1.9h-1.5V158.6z M335.1,154.5
		c-1.6,0-3.4,0.2-3.4,1.8c0,1,0.6,1.5,1.3,1.5c1.1,0,1.7-0.6,1.9-1.3c0-0.1,0.1-0.4,0.1-0.5L335.1,154.5L335.1,154.5z"/>
	<path d="M345.8,150.6c0,0.6-0.1,1.2-0.1,2.2v4.7c0,1.8-0.4,3-1.1,3.6c-0.7,0.7-1.9,1-2.9,1c-1,0-2.1-0.2-2.7-0.6l0.4-1.1
		c0.5,0.4,1.3,0.6,2.3,0.6c1.5,0,2.6-0.7,2.6-2.8v-0.9l0,0c-0.5,0.7-1.3,1.3-2.6,1.3c-1.9,0-3.4-1.7-3.4-3.9c0-2.7,1.8-4.3,3.6-4.3
		c1.5,0,2.2,0.7,2.6,1.5l0,0l0.1-1.2h1.2V150.6z M344.3,153.8c0-0.2,0-0.5-0.1-0.6c-0.2-0.9-1-1.6-2.1-1.6c-1.5,0-2.4,1.2-2.4,3
		c0,1.6,0.9,2.9,2.4,2.9c0.9,0,1.7-0.6,2.1-1.5c0.1-0.2,0.1-0.5,0.1-0.7V153.8z"/>
	<path d="M349.1,154.8c0,1.9,1.3,2.8,2.8,2.8c1.1,0,1.7-0.2,2.2-0.4l0.2,1.1c-0.5,0.2-1.5,0.5-2.7,0.5c-2.4,0-4-1.6-4-4
		s1.5-4.4,3.8-4.4c2.7,0,3.3,2.3,3.3,3.8c0,0.2,0,0.5,0,0.7h-5.6V154.8z M353.3,153.8c0-1-0.4-2.4-2.1-2.4c-1.5,0-2.2,1.3-2.3,2.4
		H353.3z"/>
</g>
<g>
	<path class="st3" d="M397.1,112.4l-5.5,2.8v48.7l5.5,2.8l0,0V112.4L397.1,112.4"/>
	<path class="st4" d="M426.8,159.6l-29.7,7.1v-54.2l29.7,6.9V159.6"/>
	<path class="st3" d="M413.4,148.5l12.6,1.6l0.1-0.2l0.1-20.7l-0.1-0.2l-12.6,1.6v17.9"/>
	<path class="st3" d="M426,159.6l28.9,7v-0.1v-54.1l0,0l-28.9,7V159.6"/>
	<path class="st4" d="M438.6,148.5l-12.6,1.6v-21l12.6,1.6V148.5"/>
	<path class="st5" d="M438.6,122.1l-12.6,2.3l-12.6-2.3l12.6-3.3L438.6,122.1"/>
	<path class="st6" d="M438.6,157.1l-12.6-2.3l-12.6,2.3l12.6,3.5L438.6,157.1"/>
	<path class="st3" d="M413.4,122.1L426,119h0.1V98l-0.1-0.1l-12.6,6.3V122.1"/>
	<path class="st4" d="M438.6,122.1L426,119V98l12.6,6.3V122.1"/>
	<path class="st3" d="M426,181.2l-12.6-6.3v-17.8l12.6,3.1l0.2,0.2l-0.1,20.4L426,181.2"/>
	<path class="st4" d="M426,181.2l12.6-6.3v-17.8l-12.6,3.1V181.2 M454.9,112.4l5.6,2.8v48.7l-5.6,2.8V112.4"/>
</g>
<g>
	<path d="M420.5,209.7c0.1,0.4,0.2,0.7,0.3,0.8c0.3,0.3,0.8,0.5,1.5,0.5c0.4,0,0.8,0,1-0.1c0.5-0.2,0.7-0.5,0.7-1
		c0-0.3-0.1-0.5-0.4-0.6c-0.2-0.1-0.6-0.3-1.1-0.4l-0.9-0.2c-0.9-0.2-1.5-0.4-1.8-0.6c-0.6-0.4-0.8-1-0.8-1.8c0-0.7,0.3-1.4,0.8-1.8
		c0.5-0.5,1.3-0.7,2.4-0.7c0.9,0,1.6,0.2,2.2,0.7s0.9,1.1,1,2h-1.7c0-0.5-0.3-0.8-0.7-1.1c-0.3-0.1-0.6-0.2-1-0.2
		c-0.5,0-0.8,0.1-1.1,0.3c-0.3,0.2-0.4,0.4-0.4,0.7c0,0.3,0.1,0.5,0.4,0.7c0.2,0.1,0.5,0.2,1.1,0.3l1.4,0.3c0.6,0.1,1.1,0.3,1.4,0.6
		c0.5,0.4,0.7,0.9,0.7,1.7c0,0.8-0.3,1.4-0.9,1.9s-1.4,0.7-2.5,0.7s-1.9-0.2-2.6-0.7c-0.6-0.5-0.9-1.2-0.9-2L420.5,209.7
		L420.5,209.7z"/>
	<path d="M427.9,209.7c0,0.3,0.1,0.6,0.2,0.8c0.2,0.4,0.5,0.6,1.1,0.6c0.3,0,0.6-0.1,0.8-0.3c0.2-0.2,0.3-0.5,0.3-0.9
		c0-0.5-0.2-0.9-0.6-1.1c-0.2-0.1-0.6-0.2-1.2-0.2v-1.1c0.5,0,0.9-0.1,1.1-0.2c0.4-0.2,0.5-0.5,0.5-1c0-0.3-0.1-0.6-0.3-0.8
		s-0.4-0.3-0.8-0.3s-0.7,0.1-0.8,0.4c-0.2,0.2-0.3,0.6-0.3,1h-1.5c0-0.4,0.1-0.8,0.2-1.1c0.1-0.3,0.3-0.6,0.6-0.9
		c0.2-0.2,0.5-0.3,0.7-0.4c0.3-0.1,0.6-0.2,1.1-0.2c0.8,0,1.4,0.2,1.9,0.6s0.7,0.9,0.7,1.6c0,0.5-0.1,0.9-0.4,1.2
		c-0.2,0.2-0.4,0.3-0.6,0.4c0.1,0,0.4,0.1,0.6,0.4c0.4,0.4,0.6,0.9,0.6,1.5c0,0.7-0.2,1.3-0.7,1.8s-1.2,0.8-2.1,0.8
		c-1.1,0-1.9-0.4-2.4-1.1c-0.2-0.4-0.4-0.9-0.4-1.6h1.7V209.7z"/>
</g>
<g>
	<path d="M543.3,205.3h-4.2v1.7h3.9v1.4h-3.9v2.1h4.4v1.4h-6.1v-8h5.9V205.3L543.3,205.3z"/>
	<path d="M550.7,204.7c0.2,0.3,0.4,0.7,0.4,1.2s-0.1,0.9-0.4,1.2c-0.1,0.2-0.3,0.3-0.6,0.5c0.4,0.1,0.7,0.4,0.9,0.7
		c0.2,0.3,0.3,0.7,0.3,1.2s-0.1,0.9-0.4,1.3c-0.2,0.2-0.3,0.5-0.6,0.6c-0.3,0.2-0.6,0.3-0.9,0.4s-0.7,0.1-1.1,0.1h-3.6v-8h3.9
		C549.7,203.9,550.3,204.2,550.7,204.7z M546.4,205.3v1.8h1.9c0.3,0,0.6-0.1,0.8-0.2c0.2-0.1,0.3-0.4,0.3-0.7c0-0.4-0.1-0.6-0.4-0.7
		c-0.2-0.1-0.6-0.1-0.9-0.1L546.4,205.3L546.4,205.3z M546.4,208.4v2.1h1.9c0.3,0,0.6,0,0.8-0.1c0.4-0.2,0.5-0.5,0.5-1
		c0-0.4-0.2-0.7-0.5-0.9c-0.2-0.1-0.5-0.1-0.8-0.1H546.4z"/>
	<path d="M554,209.4c0.1,0.4,0.2,0.6,0.3,0.8c0.3,0.3,0.8,0.5,1.4,0.5c0.4,0,0.7,0,1-0.1c0.5-0.2,0.7-0.5,0.7-0.9
		c0-0.3-0.1-0.5-0.3-0.6c-0.2-0.1-0.6-0.3-1.1-0.4l-0.9-0.2c-0.8-0.2-1.4-0.4-1.8-0.6c-0.5-0.4-0.8-0.9-0.8-1.7
		c0-0.7,0.3-1.3,0.8-1.8s1.3-0.7,2.3-0.7c0.9,0,1.6,0.2,2.2,0.7c0.6,0.4,0.9,1.1,0.9,1.9h-1.6c0-0.5-0.2-0.8-0.6-1
		c-0.3-0.1-0.6-0.2-1-0.2c-0.4,0-0.8,0.1-1.1,0.3c-0.3,0.2-0.4,0.4-0.4,0.7c0,0.3,0.1,0.5,0.4,0.6c0.2,0.1,0.5,0.2,1.1,0.3l1.4,0.3
		c0.6,0.1,1.1,0.3,1.4,0.6c0.5,0.4,0.7,0.9,0.7,1.6s-0.3,1.3-0.8,1.8s-1.4,0.7-2.4,0.7c-1.1,0-1.9-0.2-2.5-0.7
		c-0.6-0.5-0.9-1.1-0.9-2h1.6V209.4z"/>
</g>
<g>
	<path d="M486.6,141.8c-0.5,0.6-1.3,1-2.3,1s-1.8-0.3-2.3-1c-0.5-0.6-0.8-1.4-0.8-2.3c0-0.9,0.3-1.6,0.8-2.3c0.5-0.6,1.3-1,2.3-1
		s1.8,0.3,2.3,1c0.5,0.6,0.8,1.4,0.8,2.3C487.4,140.4,487.2,141.1,486.6,141.8z M485.4,140.9c0.2-0.3,0.4-0.8,0.4-1.4
		c0-0.6-0.1-1.1-0.4-1.4c-0.2-0.3-0.6-0.5-1.1-0.5s-0.8,0.2-1.1,0.5c-0.3,0.3-0.4,0.8-0.4,1.4c0,0.6,0.1,1.1,0.4,1.4
		c0.3,0.3,0.6,0.5,1.1,0.5S485.1,141.2,485.4,140.9z"/>
	<path d="M491.9,136.3h0.1v1.6c-0.1,0-0.2,0-0.3,0s-0.1,0-0.2,0c-0.6,0-1.1,0.2-1.3,0.6c-0.1,0.2-0.2,0.6-0.2,1.1v2.9h-1.6v-6.1h1.5
		v1.1c0.2-0.4,0.5-0.7,0.6-0.8C491,136.4,491.4,136.3,491.9,136.3L491.9,136.3z"/>
</g>
<g>
	<path d="M397.2,222.5c0.5,0.7,0.8,1.7,0.8,2.8c0,1.2-0.3,2.2-0.9,3.1c-0.7,1-1.8,1.4-3.1,1.4c-1.3,0-2.3-0.4-3-1.3
		c-0.6-0.8-1-1.8-1-3.1c0-1.1,0.3-2.1,0.8-2.8c0.7-1,1.8-1.5,3.1-1.5C395.5,221.1,396.5,221.6,397.2,222.5z M396.3,227.8
		c0.4-0.7,0.7-1.5,0.7-2.4c0-1-0.3-1.7-0.8-2.3c-0.5-0.6-1.2-0.9-2.1-0.9c-0.8,0-1.5,0.3-2.1,0.9c-0.5,0.6-0.8,1.4-0.8,2.6
		c0,0.9,0.2,1.7,0.7,2.3c0.5,0.6,1.2,0.9,2.2,0.9C395.1,228.8,395.8,228.5,396.3,227.8z"/>
	<path d="M399.2,221.3h1v3c0.2-0.3,0.5-0.5,0.8-0.7s0.6-0.2,1-0.2c0.7,0,1.4,0.3,1.8,0.8c0.5,0.5,0.7,1.3,0.7,2.3
		c0,0.9-0.2,1.7-0.7,2.4s-1.1,0.9-1.9,0.9c-0.5,0-0.8-0.1-1.2-0.3c-0.2-0.1-0.4-0.3-0.6-0.6v0.8h-0.9L399.2,221.3L399.2,221.3z
		 M403,228.2c0.3-0.4,0.4-1,0.4-1.7c0-0.6-0.1-1.2-0.4-1.6s-0.7-0.6-1.2-0.6s-0.9,0.2-1.2,0.5c-0.3,0.3-0.5,0.9-0.5,1.7
		c0,0.6,0.1,1,0.2,1.4c0.3,0.7,0.8,1,1.5,1C402.3,228.9,402.7,228.6,403,228.2z"/>
	<path d="M404.7,231.1c0.5,0,0.7-0.1,0.8-0.1s0.1-0.3,0.1-0.6v-6.7h1v6.8c0,0.4-0.1,0.8-0.2,1c-0.2,0.4-0.7,0.5-1.3,0.5
		c0,0-0.1,0-0.2,0s-0.1,0-0.3,0v-0.9H404.7z M406.6,222.5h-1v-1.2h1V222.5z"/>
	<path d="M411.9,223.7c0.4,0.2,0.7,0.5,0.9,0.8c0.2,0.3,0.3,0.7,0.4,1.1c0.1,0.3,0.1,0.7,0.1,1.3h-4.4c0,0.6,0.2,1.1,0.4,1.5
		c0.3,0.4,0.7,0.6,1.2,0.6s0.9-0.2,1.2-0.5c0.2-0.2,0.3-0.4,0.4-0.7h1c0,0.2-0.1,0.5-0.3,0.7c-0.1,0.3-0.3,0.5-0.5,0.7
		c-0.3,0.3-0.7,0.5-1.1,0.6c-0.2,0.1-0.5,0.1-0.8,0.1c-0.7,0-1.4-0.3-1.9-0.8s-0.8-1.3-0.8-2.3s0.3-1.7,0.8-2.3s1.2-0.9,2-0.9
		C411,223.4,411.5,223.5,411.9,223.7z M412.2,226.1c0-0.4-0.1-0.8-0.3-1c-0.3-0.5-0.7-0.7-1.4-0.7c-0.5,0-0.8,0.2-1.2,0.5
		c-0.3,0.3-0.5,0.8-0.5,1.3L412.2,226.1L412.2,226.1z"/>
	<path d="M418.5,223.9c0.4,0.3,0.7,0.9,0.8,1.7h-1c-0.1-0.4-0.2-0.7-0.4-0.9c-0.2-0.2-0.6-0.4-1-0.4c-0.6,0-1.1,0.3-1.4,0.9
		c-0.2,0.4-0.3,0.9-0.3,1.5s0.1,1.1,0.4,1.5s0.7,0.6,1.2,0.6c0.4,0,0.7-0.1,1-0.4s0.4-0.6,0.5-1h1c-0.1,0.8-0.4,1.4-0.8,1.7
		c-0.4,0.4-1,0.6-1.7,0.6c-0.8,0-1.4-0.3-1.9-0.9s-0.7-1.3-0.7-2.1c0-1.1,0.3-1.9,0.8-2.5s1.2-0.9,2-0.9
		C417.5,223.4,418.1,223.6,418.5,223.9z"/>
	<path d="M420.4,221.9h1v1.7h1v0.8h-1v3.9c0,0.2,0.1,0.3,0.2,0.4c0.1,0,0.2,0.1,0.4,0.1c0,0,0.1,0,0.2,0s0.1,0,0.2,0v0.8
		c-0.1,0-0.2,0.1-0.4,0.1c-0.1,0-0.3,0-0.4,0c-0.5,0-0.8-0.1-1-0.4s-0.3-0.6-0.3-0.9v-4h-0.8v-0.8h0.8L420.4,221.9L420.4,221.9z"/>
	<path d="M427.5,226.9c0,0.5,0.1,0.8,0.3,1.1c0.4,0.5,1,0.8,1.9,0.8c0.4,0,0.8-0.1,1.1-0.2c0.6-0.2,1-0.6,1-1.2c0-0.4-0.1-0.8-0.4-1
		s-0.7-0.3-1.3-0.5l-1.1-0.3c-0.7-0.2-1.2-0.3-1.5-0.5c-0.5-0.3-0.8-0.9-0.8-1.5c0-0.7,0.2-1.3,0.7-1.8s1.2-0.7,2.1-0.7
		c0.8,0,1.5,0.2,2.1,0.6s0.9,1.1,0.9,2h-1c-0.1-0.4-0.2-0.8-0.3-1c-0.3-0.4-0.9-0.6-1.7-0.6c-0.6,0-1.1,0.1-1.4,0.4s-0.4,0.6-0.4,1
		s0.2,0.7,0.5,0.9c0.2,0.1,0.7,0.3,1.4,0.4l1.1,0.3c0.5,0.1,1,0.3,1.2,0.5c0.5,0.4,0.8,0.9,0.8,1.7c0,0.9-0.3,1.6-1,2
		c-0.6,0.4-1.4,0.6-2.2,0.6c-1,0-1.8-0.3-2.3-0.8c-0.6-0.5-0.8-1.2-0.8-2.1L427.5,226.9L427.5,226.9z"/>
	<path d="M434.4,221.9h1v1.7h1v0.8h-1v3.9c0,0.2,0.1,0.3,0.2,0.4c0.1,0,0.2,0.1,0.4,0.1c0,0,0.1,0,0.2,0s0.1,0,0.2,0v0.8
		c-0.1,0-0.2,0.1-0.4,0.1c-0.1,0-0.3,0-0.4,0c-0.5,0-0.8-0.1-1-0.4s-0.3-0.6-0.3-0.9v-4h-0.8v-0.8h0.8L434.4,221.9L434.4,221.9z"/>
	<path d="M441.8,224.2c0.5,0.5,0.8,1.3,0.8,2.3s-0.2,1.8-0.7,2.4s-1.2,0.9-2.2,0.9c-0.8,0-1.5-0.3-1.9-0.8s-0.7-1.3-0.7-2.2
		c0-1,0.3-1.8,0.8-2.4s1.2-0.9,2-0.9C440.6,223.4,441.2,223.7,441.8,224.2z M441.1,228.2c0.2-0.5,0.4-1.1,0.4-1.7s-0.1-1-0.3-1.4
		c-0.3-0.6-0.8-0.8-1.4-0.8s-1.1,0.2-1.3,0.7c-0.3,0.5-0.4,1-0.4,1.7c0,0.6,0.1,1.2,0.4,1.6s0.7,0.6,1.3,0.6
		C440.4,228.9,440.9,228.7,441.1,228.2z"/>
	<path d="M443.8,223.6h1v1c0.1-0.2,0.3-0.4,0.6-0.7s0.7-0.4,1.1-0.4h0.1c0,0,0.1,0,0.2,0v1.1c-0.1,0-0.1,0-0.2,0s-0.1,0-0.2,0
		c-0.5,0-0.9,0.2-1.2,0.5c-0.3,0.3-0.4,0.7-0.4,1.1v3.4h-1V223.6z"/>
	<path d="M450.8,225.9c0.2,0,0.4-0.1,0.5-0.3c0-0.1,0.1-0.2,0.1-0.4c0-0.3-0.1-0.6-0.4-0.7c-0.2-0.2-0.6-0.2-1-0.2
		c-0.5,0-0.9,0.1-1.1,0.4c-0.1,0.2-0.2,0.4-0.2,0.7h-0.9c0-0.7,0.3-1.3,0.7-1.5c0.5-0.3,1-0.4,1.6-0.4c0.7,0,1.3,0.1,1.7,0.4
		c0.4,0.3,0.7,0.7,0.7,1.3v3.4c0,0.1,0,0.2,0.1,0.3c0,0.1,0.1,0.1,0.3,0.1c0,0,0.1,0,0.2,0s0.1,0,0.2,0v0.7c-0.2,0-0.3,0.1-0.4,0.1
		s-0.2,0-0.3,0c-0.3,0-0.6-0.1-0.8-0.4c-0.1-0.1-0.1-0.3-0.2-0.6c-0.2,0.3-0.5,0.5-0.9,0.7s-0.8,0.3-1.3,0.3c-0.6,0-1-0.2-1.4-0.5
		s-0.5-0.8-0.5-1.3c0-0.6,0.2-1,0.5-1.3s0.8-0.5,1.4-0.6L450.8,225.9z M448.7,228.7c0.2,0.2,0.5,0.3,0.8,0.3c0.4,0,0.7-0.1,1-0.2
		c0.6-0.3,0.8-0.7,0.8-1.3v-0.8c-0.1,0.1-0.3,0.1-0.5,0.2s-0.4,0.1-0.6,0.1l-0.6,0.1c-0.4,0-0.6,0.1-0.8,0.2
		c-0.3,0.2-0.5,0.5-0.5,0.8C448.4,228.3,448.5,228.5,448.7,228.7z"/>
	<path d="M457.3,223.8c0.2,0.1,0.4,0.3,0.6,0.6v-0.8h0.9v5.4c0,0.8-0.1,1.4-0.3,1.8c-0.4,0.8-1.2,1.2-2.4,1.2
		c-0.6,0-1.2-0.1-1.6-0.4s-0.7-0.7-0.7-1.4h1c0,0.3,0.1,0.5,0.3,0.6c0.2,0.2,0.6,0.3,1.1,0.3c0.8,0,1.3-0.3,1.5-0.8
		c0.1-0.3,0.2-0.9,0.2-1.7c-0.2,0.3-0.4,0.5-0.7,0.7c-0.3,0.1-0.7,0.2-1.1,0.2c-0.6,0-1.2-0.2-1.7-0.7s-0.7-1.2-0.7-2.3
		c0-1,0.2-1.8,0.7-2.3c0.5-0.6,1.1-0.8,1.8-0.8C456.5,223.5,456.9,223.6,457.3,223.8z M457.4,224.9c-0.3-0.4-0.7-0.5-1.2-0.5
		c-0.7,0-1.2,0.3-1.4,1c-0.1,0.4-0.2,0.8-0.2,1.4c0,0.7,0.1,1.2,0.4,1.5c0.3,0.4,0.6,0.5,1.1,0.5c0.7,0,1.2-0.3,1.5-1
		c0.2-0.4,0.2-0.8,0.2-1.3C457.9,225.8,457.7,225.3,457.4,224.9z"/>
	<path d="M464,223.7c0.4,0.2,0.7,0.5,0.9,0.8c0.2,0.3,0.3,0.7,0.4,1.1c0.1,0.3,0.1,0.7,0.1,1.3H461c0,0.6,0.2,1.1,0.4,1.5
		c0.3,0.4,0.7,0.6,1.2,0.6s0.9-0.2,1.2-0.5c0.2-0.2,0.3-0.4,0.4-0.7h1c0,0.2-0.1,0.5-0.3,0.7c-0.1,0.3-0.3,0.5-0.5,0.7
		c-0.3,0.3-0.7,0.5-1.1,0.6c-0.2,0.1-0.5,0.1-0.8,0.1c-0.7,0-1.4-0.3-1.9-0.8s-0.8-1.3-0.8-2.3s0.3-1.7,0.8-2.3s1.2-0.9,2-0.9
		C463.2,223.4,463.6,223.5,464,223.7z M464.4,226.1c0-0.4-0.1-0.8-0.3-1c-0.3-0.5-0.7-0.7-1.4-0.7c-0.5,0-0.8,0.2-1.2,0.5
		c-0.3,0.3-0.5,0.8-0.5,1.3L464.4,226.1L464.4,226.1z"/>
</g>
<g>
	<path d="M513.1,221.4h3.5c1,0,1.7,0.3,2.1,0.9c0.2,0.3,0.4,0.7,0.4,1.2s-0.1,0.9-0.4,1.3c-0.2,0.2-0.4,0.3-0.7,0.5
		c0.4,0.2,0.7,0.3,0.9,0.5c0.4,0.4,0.6,0.9,0.6,1.5c0,0.5-0.2,1-0.5,1.4c-0.5,0.6-1.3,1-2.4,1h-3.5V221.4z M516.3,224.8
		c0.5,0,0.8-0.1,1.1-0.2c0.4-0.2,0.6-0.6,0.6-1.1s-0.2-0.9-0.7-1.1c-0.2-0.1-0.6-0.2-1.1-0.2h-2v2.5h2.1V224.8z M516.7,228.6
		c0.7,0,1.2-0.2,1.5-0.6c0.2-0.2,0.3-0.6,0.3-0.9c0-0.6-0.3-1-0.8-1.2c-0.3-0.1-0.7-0.2-1.1-0.2h-2.2v2.9L516.7,228.6L516.7,228.6z"
		/>
	<path d="M520.7,221.4h1v8.2h-1V221.4z"/>
	<path d="M527.6,224.2c0.5,0.5,0.8,1.3,0.8,2.3s-0.2,1.8-0.7,2.4s-1.2,0.9-2.2,0.9c-0.8,0-1.5-0.3-1.9-0.8c-0.5-0.6-0.7-1.3-0.7-2.2
		c0-1,0.3-1.8,0.8-2.4s1.2-0.9,2-0.9C526.4,223.4,527,223.7,527.6,224.2z M526.9,228.2c0.2-0.5,0.4-1.1,0.4-1.7s-0.1-1-0.3-1.4
		c-0.3-0.6-0.8-0.8-1.4-0.8c-0.6,0-1,0.2-1.3,0.7s-0.4,1-0.4,1.7c0,0.6,0.1,1.2,0.4,1.6s0.7,0.6,1.3,0.6
		C526.2,228.9,526.7,228.7,526.9,228.2z"/>
	<path d="M533.5,223.9c0.4,0.3,0.7,0.9,0.8,1.7h-1c-0.1-0.4-0.2-0.7-0.4-0.9c-0.2-0.2-0.6-0.4-1-0.4c-0.6,0-1.1,0.3-1.4,0.9
		c-0.2,0.4-0.3,0.9-0.3,1.5s0.1,1.1,0.4,1.5s0.7,0.6,1.2,0.6c0.4,0,0.7-0.1,1-0.4s0.4-0.6,0.5-1h1c-0.1,0.8-0.4,1.4-0.8,1.7
		c-0.4,0.4-1,0.6-1.7,0.6c-0.8,0-1.4-0.3-1.9-0.9s-0.7-1.3-0.7-2.1c0-1.1,0.3-1.9,0.8-2.5s1.2-0.9,2-0.9
		C532.6,223.4,533.1,223.6,533.5,223.9z"/>
	<path d="M535.3,221.4h1v4.8l2.6-2.5h1.3l-2.3,2.2l2.4,3.8H539l-1.9-3l-0.8,0.8v2.2h-1L535.3,221.4L535.3,221.4z"/>
	<path d="M545.1,226.9c0,0.5,0.1,0.8,0.3,1.1c0.4,0.5,1,0.8,1.9,0.8c0.4,0,0.8-0.1,1.1-0.2c0.6-0.2,1-0.6,1-1.2c0-0.4-0.1-0.8-0.4-1
		s-0.7-0.3-1.3-0.5l-1.1-0.3c-0.7-0.2-1.2-0.3-1.5-0.5c-0.5-0.3-0.8-0.9-0.8-1.5c0-0.7,0.2-1.3,0.7-1.8s1.2-0.7,2.1-0.7
		c0.8,0,1.5,0.2,2.1,0.6c0.6,0.4,0.9,1.1,0.9,2h-1c-0.1-0.4-0.2-0.8-0.3-1c-0.3-0.4-0.9-0.6-1.7-0.6c-0.6,0-1.1,0.1-1.4,0.4
		s-0.4,0.6-0.4,1s0.2,0.7,0.5,0.9c0.2,0.1,0.7,0.3,1.4,0.4l1.1,0.3c0.5,0.1,1,0.3,1.2,0.5c0.5,0.4,0.8,0.9,0.8,1.7
		c0,0.9-0.3,1.6-1,2c-0.6,0.4-1.4,0.6-2.2,0.6c-1,0-1.8-0.3-2.3-0.8c-0.6-0.5-0.8-1.2-0.8-2.1L545.1,226.9L545.1,226.9z"/>
	<path d="M552,221.9h1v1.7h1v0.8h-1v3.9c0,0.2,0.1,0.3,0.2,0.4c0.1,0,0.2,0.1,0.4,0.1c0,0,0.1,0,0.2,0c0.1,0,0.1,0,0.2,0v0.8
		c-0.1,0-0.2,0.1-0.4,0.1c-0.1,0-0.3,0-0.4,0c-0.5,0-0.8-0.1-1-0.4s-0.3-0.6-0.3-0.9v-4h-0.8v-0.8h0.8L552,221.9L552,221.9z"/>
	<path d="M559.4,224.2c0.5,0.5,0.8,1.3,0.8,2.3s-0.2,1.8-0.7,2.4s-1.2,0.9-2.2,0.9c-0.8,0-1.5-0.3-1.9-0.8c-0.5-0.6-0.7-1.3-0.7-2.2
		c0-1,0.3-1.8,0.8-2.4s1.2-0.9,2-0.9C558.2,223.4,558.8,223.7,559.4,224.2z M558.7,228.2c0.2-0.5,0.4-1.1,0.4-1.7s-0.1-1-0.3-1.4
		c-0.3-0.6-0.8-0.8-1.4-0.8c-0.6,0-1,0.2-1.3,0.7s-0.4,1-0.4,1.7c0,0.6,0.1,1.2,0.4,1.6s0.7,0.6,1.3,0.6
		C558,228.9,558.5,228.7,558.7,228.2z"/>
	<path d="M561.4,223.6h1v1c0.1-0.2,0.3-0.4,0.6-0.7c0.3-0.3,0.7-0.4,1.1-0.4c0,0,0,0,0.1,0c0.1,0,0.1,0,0.2,0v1.1
		c-0.1,0-0.1,0-0.2,0c-0.1,0-0.1,0-0.2,0c-0.5,0-0.9,0.2-1.2,0.5c-0.3,0.3-0.4,0.7-0.4,1.1v3.4h-1V223.6z"/>
	<path d="M568.4,225.9c0.2,0,0.4-0.1,0.5-0.3c0-0.1,0.1-0.2,0.1-0.4c0-0.3-0.1-0.6-0.4-0.7c-0.2-0.2-0.6-0.2-1-0.2
		c-0.5,0-0.9,0.1-1.1,0.4c-0.1,0.2-0.2,0.4-0.2,0.7h-0.9c0-0.7,0.3-1.3,0.7-1.5c0.5-0.3,1-0.4,1.6-0.4c0.7,0,1.3,0.1,1.7,0.4
		s0.7,0.7,0.7,1.3v3.4c0,0.1,0,0.2,0.1,0.3c0,0.1,0.1,0.1,0.3,0.1c0,0,0.1,0,0.2,0c0.1,0,0.1,0,0.2,0v0.7c-0.2,0-0.3,0.1-0.4,0.1
		c-0.1,0-0.2,0-0.3,0c-0.3,0-0.6-0.1-0.8-0.4c-0.1-0.1-0.1-0.3-0.2-0.6c-0.2,0.3-0.5,0.5-0.9,0.7c-0.4,0.2-0.8,0.3-1.3,0.3
		c-0.6,0-1-0.2-1.4-0.5c-0.4-0.3-0.5-0.8-0.5-1.3c0-0.6,0.2-1,0.5-1.3s0.8-0.5,1.4-0.6L568.4,225.9z M566.3,228.7
		c0.2,0.2,0.5,0.3,0.8,0.3c0.4,0,0.7-0.1,1-0.2c0.6-0.3,0.8-0.7,0.8-1.3v-0.8c-0.1,0.1-0.3,0.1-0.5,0.2s-0.4,0.1-0.6,0.1l-0.6,0.1
		c-0.4,0-0.6,0.1-0.8,0.2c-0.3,0.2-0.5,0.5-0.5,0.8C566,228.3,566.1,228.5,566.3,228.7z"/>
	<path d="M574.9,223.8c0.2,0.1,0.4,0.3,0.6,0.6v-0.8h0.9v5.4c0,0.8-0.1,1.4-0.3,1.8c-0.4,0.8-1.2,1.2-2.4,1.2
		c-0.6,0-1.2-0.1-1.6-0.4c-0.4-0.3-0.7-0.7-0.7-1.4h1c0,0.3,0.1,0.5,0.3,0.6c0.2,0.2,0.6,0.3,1.1,0.3c0.8,0,1.3-0.3,1.5-0.8
		c0.1-0.3,0.2-0.9,0.2-1.7c-0.2,0.3-0.4,0.5-0.7,0.7c-0.3,0.1-0.7,0.2-1.1,0.2c-0.6,0-1.2-0.2-1.7-0.7s-0.7-1.2-0.7-2.3
		c0-1,0.2-1.8,0.7-2.3c0.5-0.6,1.1-0.8,1.8-0.8C574.1,223.5,574.5,223.6,574.9,223.8z M575,224.9c-0.3-0.4-0.7-0.5-1.2-0.5
		c-0.7,0-1.2,0.3-1.4,1c-0.1,0.4-0.2,0.8-0.2,1.4c0,0.7,0.1,1.2,0.4,1.5c0.3,0.4,0.6,0.5,1.1,0.5c0.7,0,1.2-0.3,1.5-1
		c0.2-0.4,0.2-0.8,0.2-1.3C575.5,225.8,575.3,225.3,575,224.9z"/>
	<path d="M581.6,223.7c0.4,0.2,0.7,0.5,0.9,0.8c0.2,0.3,0.3,0.7,0.4,1.1c0.1,0.3,0.1,0.7,0.1,1.3h-4.4c0,0.6,0.2,1.1,0.4,1.5
		c0.3,0.4,0.7,0.6,1.2,0.6s0.9-0.2,1.2-0.5c0.2-0.2,0.3-0.4,0.4-0.7h1c0,0.2-0.1,0.5-0.3,0.7c-0.1,0.3-0.3,0.5-0.5,0.7
		c-0.3,0.3-0.7,0.5-1.1,0.6c-0.2,0.1-0.5,0.1-0.8,0.1c-0.7,0-1.4-0.3-1.9-0.8s-0.8-1.3-0.8-2.3s0.3-1.7,0.8-2.3
		c0.5-0.6,1.2-0.9,2-0.9C580.8,223.4,581.2,223.5,581.6,223.7z M582,226.1c0-0.4-0.1-0.8-0.3-1c-0.3-0.5-0.7-0.7-1.4-0.7
		c-0.5,0-0.8,0.2-1.2,0.5c-0.3,0.3-0.5,0.8-0.5,1.3L582,226.1L582,226.1z"/>
</g>
<linearGradient id="SVGID_1_" gradientUnits="userSpaceOnUse" x1="517.3806" y1="108.7" x2="540.0966" y2="108.7" gradientTransform="matrix(1 0 0 -1 0 257)">
	<stop  offset="0" style="stop-color:#CCE0F4"/>
	<stop  offset="0" style="stop-color:#CDD8EB"/>
	<stop  offset="0" style="stop-color:#D0C4D1"/>
	<stop  offset="0" style="stop-color:#D5A3A8"/>
	<stop  offset="0" style="stop-color:#DB756F"/>
	<stop  offset="0" style="stop-color:#E05243"/>
	<stop  offset="0.1406" style="stop-color:#E05243"/>
	<stop  offset="0.9947" style="stop-color:#E05243"/>
</linearGradient>
<path class="st7" d="M576.4,182.3c-19.7,0-39.4,0-59.1,0c0-0.2,0-0.4,0-0.6c0-21.3,0-42.7,0-64c0-0.9,0-1.9,0-2.8
	c0-0.4,0.1-0.6,0.5-0.6c0.1,0,0.2,0,0.4,0c19,0,38.1,0,57.1,0c0.9,0,0.9,0,0.9,0.9c0,22.1,0,44.2,0.1,66.3
	C576.4,181.8,576.4,182,576.4,182.3z"/>
<g>
	
		<linearGradient id="SVGID_2_" gradientUnits="userSpaceOnUse" x1="518.4" y1="152.3" x2="575.1" y2="152.3" gradientTransform="matrix(1 0 0 -1 0 257)">
		<stop  offset="0" style="stop-color:#CCE0F4"/>
		<stop  offset="0" style="stop-color:#CDD8EB"/>
		<stop  offset="0" style="stop-color:#D0C4D1"/>
		<stop  offset="0" style="stop-color:#D5A3A8"/>
		<stop  offset="0" style="stop-color:#DB756F"/>
		<stop  offset="0" style="stop-color:#E05243"/>
		<stop  offset="0.1406" style="stop-color:#E05243"/>
		<stop  offset="0.9947" style="stop-color:#E05243"/>
	</linearGradient>
	<path class="st8" d="M575,110.3c-0.3,0-0.5,0-0.7,0c-18.5,0-55.9,0-55.9,0v-0.7v-2.4c0,0,0,0,0-0.1c0.2-0.2,1.5-1.6,1.5-1.6
		l6.6-6.1c0,0,0.5-0.3,0.8-0.3c13.1,0,26.2,0,39.3,0c0.2,0,0.6,0.1,0.8,0.3c2.5,2.5,4.9,5,7.4,7.5c0.1,0.1,0.3,0.3,0.3,0.4
		C575,108.3,575,109.2,575,110.3z"/>
	<g id="darker_bars">
		<rect x="518.4" y="107.2" class="st3" width="56.6" height="3"/>
		<rect x="517.4" y="179.3" class="st3" width="59.1" height="3"/>
	</g>
</g>
<g>
	<path id="path12" class="st9" d="M429.5,192.6v-1c0-0.2,0.1-0.3,0.3-0.3h4.5c0.1,0,0.3,0.1,0.3,0.3v0.9c0,0.1-0.1,0.3-0.3,0.6
		l-2.3,3.4c0.9,0,1.8,0.1,2.6,0.6c0.2,0.1,0.2,0.2,0.2,0.4v1.1c0,0.1-0.2,0.3-0.3,0.2c-1.4-0.7-3.2-0.8-4.8,0
		c-0.2,0.1-0.3-0.1-0.3-0.2v-1c0-0.2,0-0.4,0.2-0.7l2.7-3.9h-2.4C429.7,192.8,429.5,192.7,429.5,192.6"/>
	<path id="path14" class="st9" d="M413,198.9h-1.4c-0.1,0-0.2-0.1-0.2-0.2v-7.1c0-0.1,0.1-0.3,0.3-0.3h1.3c0.1,0,0.2,0.1,0.3,0.2
		v0.9l0,0c0.3-0.9,1-1.3,1.8-1.3c0.9,0,1.4,0.4,1.8,1.3c0.3-0.9,1.1-1.3,1.9-1.3c0.6,0,1.2,0.2,1.6,0.8c0.4,0.6,0.3,1.5,0.3,2.2v4.5
		c0,0.1-0.1,0.3-0.3,0.3H419c-0.1,0-0.2-0.1-0.2-0.3v-3.8c0-0.3,0-1,0-1.3c-0.1-0.5-0.4-0.6-0.8-0.6c-0.3,0-0.7,0.2-0.8,0.6
		c-0.1,0.4-0.1,1-0.1,1.4v3.8c0,0.1-0.1,0.3-0.3,0.3h-1.4c-0.1,0-0.2-0.1-0.2-0.3v-3.8c0-0.8,0.1-2-0.8-2c-1,0-1,1.1-1,2v3.8
		C413.3,198.8,413.2,198.9,413,198.9"/>
	<path id="path16" class="st9" d="M438.5,191.2c2,0,3.2,1.8,3.2,4s-1.2,3.9-3.2,3.9s-3.1-1.8-3.1-3.9
		C435.4,192.9,436.5,191.2,438.5,191.2 M438.5,192.6c-1,0-1.1,1.4-1.1,2.2c0,0.9,0,2.7,1.1,2.7s1.1-1.5,1.1-2.4c0-0.6,0-1.3-0.2-1.9
		C439.2,192.8,438.9,192.6,438.5,192.6"/>
	<path id="path18" class="st9" d="M444.3,198.9h-1.4c-0.1,0-0.2-0.1-0.2-0.3v-7.1c0-0.1,0.1-0.2,0.3-0.2h1.3c0.1,0,0.2,0.1,0.2,0.2
		v1.1l0,0c0.4-1,0.9-1.4,1.9-1.4c0.6,0,1.2,0.2,1.6,0.8c0.4,0.6,0.4,1.5,0.4,2.2v4.5c0,0.1-0.1,0.2-0.3,0.2h-1.4
		c-0.1,0-0.2-0.1-0.2-0.2v-3.8c0-0.8,0.1-1.9-0.9-1.9c-0.3,0-0.6,0.2-0.8,0.6c-0.2,0.4-0.2,0.9-0.2,1.3v3.8
		C444.6,198.8,444.4,198.9,444.3,198.9"/>
	<path id="path28" class="st9" d="M425.9,195.5c0,0.5,0,1-0.3,1.5c-0.2,0.4-0.6,0.6-1,0.6c-0.5,0-0.8-0.4-0.8-1
		c0-1.2,1.1-1.4,2.1-1.4L425.9,195.5 M427.3,198.9c-0.1,0.1-0.2,0.1-0.3,0c-0.5-0.4-0.5-0.6-0.8-0.9c-0.8,0.8-1.3,1-2.3,1
		c-1.2,0-2.1-0.7-2.1-2.1c0-1.1,0.6-1.9,1.5-2.3c0.7-0.3,1.8-0.4,2.6-0.5v-0.2c0-0.3,0-0.7-0.2-1s-0.5-0.4-0.8-0.4
		c-0.5,0-1,0.3-1.1,0.8c0,0.1-0.1,0.2-0.2,0.3l-1.3-0.1c-0.1,0-0.2-0.1-0.2-0.3c0.3-1.6,1.8-2.1,3.1-2.1c0.7,0,1.5,0.2,2.1,0.7
		c0.7,0.6,0.6,1.5,0.6,2.4v2.1c0,0.6,0.3,0.9,0.5,1.3c0.1,0.1,0.1,0.3,0,0.4C428.1,198.2,427.6,198.6,427.3,198.9L427.3,198.9"/>
	<path id="path30" class="st9" d="M407.9,195.5c0,0.5,0,1-0.3,1.5c-0.2,0.4-0.6,0.6-1,0.6c-0.5,0-0.8-0.4-0.8-1c0-1.2,1.1-1.4,2-1.4
		L407.9,195.5 M409.2,198.9c-0.1,0.1-0.2,0.1-0.3,0c-0.5-0.4-0.5-0.6-0.8-0.9c-0.8,0.8-1.3,1-2.3,1c-1.2,0-2.1-0.7-2.1-2.1
		c0-1.1,0.6-1.9,1.5-2.3c0.7-0.3,1.8-0.4,2.6-0.5v-0.2c0-0.3,0-0.7-0.2-1s-0.5-0.4-0.8-0.4c-0.5,0-1,0.3-1.1,0.8
		c0,0.1-0.1,0.2-0.2,0.3l-1.3-0.1c-0.1,0-0.2-0.1-0.2-0.3c0.3-1.6,1.8-2.1,3.1-2.1c0.7,0,1.5,0.2,2.1,0.7c0.7,0.6,0.6,1.5,0.6,2.4
		v2.1c0,0.6,0.3,0.9,0.5,1.3c0.1,0.1,0.1,0.3,0,0.4C410,198.2,409.5,198.6,409.2,198.9L409.2,198.9"/>
</g>
<g>
	<path id="path12_1_" class="st9" d="M550.5,192.6v-1c0-0.2,0.1-0.3,0.3-0.3h4.5c0.1,0,0.3,0.1,0.3,0.3v0.9c0,0.1-0.1,0.3-0.3,0.6
		l-2.3,3.4c0.9,0,1.8,0.1,2.6,0.6c0.2,0.1,0.2,0.2,0.2,0.4v1.1c0,0.1-0.2,0.3-0.3,0.2c-1.4-0.7-3.2-0.8-4.8,0
		c-0.2,0.1-0.3-0.1-0.3-0.2v-1c0-0.2,0-0.4,0.2-0.7l2.7-3.9h-2.4C550.7,192.8,550.5,192.7,550.5,192.6"/>
	<path id="path14_1_" class="st9" d="M534,198.9h-1.4c-0.1,0-0.2-0.1-0.2-0.2v-7.1c0-0.1,0.1-0.3,0.3-0.3h1.3c0.1,0,0.2,0.1,0.3,0.2
		v0.9l0,0c0.3-0.9,1-1.3,1.8-1.3c0.9,0,1.4,0.4,1.8,1.3c0.3-0.9,1.1-1.3,1.9-1.3c0.6,0,1.2,0.2,1.6,0.8c0.4,0.6,0.3,1.5,0.3,2.2v4.5
		c0,0.1-0.1,0.3-0.3,0.3H540c-0.1,0-0.2-0.1-0.2-0.3v-3.8c0-0.3,0-1,0-1.3c-0.1-0.5-0.4-0.6-0.8-0.6c-0.3,0-0.7,0.2-0.8,0.6
		s-0.1,1-0.1,1.4v3.8c0,0.1-0.1,0.3-0.3,0.3h-1.4c-0.1,0-0.2-0.1-0.2-0.3v-3.8c0-0.8,0.1-2-0.8-2c-1,0-1,1.1-1,2v3.8
		C534.3,198.8,534.2,198.9,534,198.9"/>
	<path id="path16_1_" class="st9" d="M559.5,191.2c2,0,3.2,1.8,3.2,4s-1.2,3.9-3.2,3.9s-3.1-1.8-3.1-3.9
		C556.4,192.9,557.5,191.2,559.5,191.2 M559.5,192.6c-1,0-1.1,1.4-1.1,2.2c0,0.9,0,2.7,1.1,2.7c1.1,0,1.1-1.5,1.1-2.4
		c0-0.6,0-1.3-0.2-1.9C560.2,192.8,559.9,192.6,559.5,192.6"/>
	<path id="path18_1_" class="st9" d="M565.3,198.9h-1.4c-0.1,0-0.2-0.1-0.2-0.3v-7.1c0-0.1,0.1-0.2,0.3-0.2h1.3
		c0.1,0,0.2,0.1,0.2,0.2v1.1l0,0c0.4-1,0.9-1.4,1.9-1.4c0.6,0,1.2,0.2,1.6,0.8c0.4,0.6,0.4,1.5,0.4,2.2v4.5c0,0.1-0.1,0.2-0.3,0.2
		h-1.4c-0.1,0-0.2-0.1-0.2-0.2v-3.8c0-0.8,0.1-1.9-0.9-1.9c-0.3,0-0.6,0.2-0.8,0.6s-0.2,0.9-0.2,1.3v3.8
		C565.6,198.8,565.4,198.9,565.3,198.9"/>
	<path id="path28_1_" class="st9" d="M546.9,195.5c0,0.5,0,1-0.3,1.5c-0.2,0.4-0.6,0.6-1,0.6c-0.5,0-0.8-0.4-0.8-1
		c0-1.2,1.1-1.4,2.1-1.4V195.5 M548.3,198.9c-0.1,0.1-0.2,0.1-0.3,0c-0.5-0.4-0.5-0.6-0.8-0.9c-0.8,0.8-1.3,1-2.3,1
		c-1.2,0-2.1-0.7-2.1-2.1c0-1.1,0.6-1.9,1.5-2.3c0.7-0.3,1.8-0.4,2.6-0.5v-0.2c0-0.3,0-0.7-0.2-1s-0.5-0.4-0.8-0.4
		c-0.5,0-1,0.3-1.1,0.8c0,0.1-0.1,0.2-0.2,0.3l-1.3-0.1c-0.1,0-0.2-0.1-0.2-0.3c0.3-1.6,1.8-2.1,3.1-2.1c0.7,0,1.5,0.2,2.1,0.7
		c0.7,0.6,0.6,1.5,0.6,2.4v2.1c0,0.6,0.3,0.9,0.5,1.3c0.1,0.1,0.1,0.3,0,0.4C549.1,198.2,548.6,198.6,548.3,198.9L548.3,198.9"/>
	<path id="path30_1_" class="st9" d="M528.9,195.5c0,0.5,0,1-0.3,1.5c-0.2,0.4-0.6,0.6-1,0.6c-0.5,0-0.8-0.4-0.8-1
		c0-1.2,1.1-1.4,2-1.4L528.9,195.5 M530.2,198.9c-0.1,0.1-0.2,0.1-0.3,0c-0.5-0.4-0.5-0.6-0.8-0.9c-0.8,0.8-1.3,1-2.3,1
		c-1.2,0-2.1-0.7-2.1-2.1c0-1.1,0.6-1.9,1.5-2.3c0.7-0.3,1.8-0.4,2.6-0.5v-0.2c0-0.3,0-0.7-0.2-1s-0.5-0.4-0.8-0.4
		c-0.5,0-1,0.3-1.1,0.8c0,0.1-0.1,0.2-0.2,0.3l-1.3-0.1c-0.1,0-0.2-0.1-0.2-0.3c0.3-1.6,1.8-2.1,3.1-2.1c0.7,0,1.5,0.2,2.1,0.7
		c0.7,0.6,0.6,1.5,0.6,2.4v2.1c0,0.6,0.3,0.9,0.5,1.3c0.1,0.1,0.1,0.3,0,0.4C531,198.2,530.5,198.6,530.2,198.9L530.2,198.9"/>
</g>
</svg>
