<?xml version="1.0" encoding="utf-8"?>
<!-- Generator: Adobe Illustrator 24.1.2, SVG Export Plug-In . SVG Version: 6.00 Build 0)  -->
<svg version="1.1" id="Layer_1" xmlns="http://www.w3.org/2000/svg" xmlns:xlink="http://www.w3.org/1999/xlink" x="0px" y="0px"
	 viewBox="0 0 133 58" style="enable-background:new 0 0 133 58;" xml:space="preserve">
<style type="text/css">
	.st0{fill:#FFFFFF;}
	.st1{fill:none;stroke:#2E75F0;}
	.st2{fill:#2E75F0;}
</style>
<g>
	<path class="st0" d="M23.3,11.1h84c9.7,0,17.5,7.8,17.5,17.5s-7.8,17.5-17.5,17.5h-84c-9.7,0-17.5-7.8-17.5-17.5
		S13.7,11.1,23.3,11.1z"/>
	<path class="st1" d="M23.3,11.1h84c9.7,0,17.5,7.8,17.5,17.5s-7.8,17.5-17.5,17.5h-84c-9.7,0-17.5-7.8-17.5-17.5
		S13.7,11.1,23.3,11.1z"/>
	<path class="st2" d="M65.8,32.6h2.8c1.8,0,2.8-0.4,3.6-1c1.1-0.9,1.7-2.3,1.7-3.9c0-2.2-0.9-3.7-2.5-4.5c-0.8-0.4-1.6-0.5-3-0.5
		h-2.5V32.6z M67,23.6c0.5,0,0.9,0,1.4,0c2.6,0,4.2,1.4,4.2,4c0,2.9-1.6,4-4.3,4H67V23.6z M76.7,25.3h-1.1c0,0.3,0,0.8,0,1.1v6.2
		h1.2v-4c0-1.5,0.4-2.4,1.5-2.4c0.2,0,0.4,0,0.5,0v-1.1l-0.2,0c-0.8,0-1.6,0.6-1.9,1.4V25.3z M81.3,24v-1.4h-1.2V24H81.3z
		 M80.1,25.3v7.4h1.1v-7.4H80.1z M83.5,32.6h1.2v-10h-1.2V32.6z M86.9,32.6h1.2v-10h-1.2V32.6z"/>
	<path class="st2" d="M53.3,30.4h3.5l-5.3,5.3l-5.3-5.3h3.6c0-6.1-0.7-8.6-5.3-9.8C53.3,20.6,53.3,26.6,53.3,30.4z"/>
</g>
</svg>
