<?xml version="1.0" encoding="utf-8"?>
<!-- Generator: Adobe Illustrator 23.0.4, SVG Export Plug-In . SVG Version: 6.00 Build 0)  -->
<svg version="1.1" id="Layer_1" xmlns="http://www.w3.org/2000/svg" xmlns:xlink="http://www.w3.org/1999/xlink" x="0px" y="0px"
	 viewBox="0 0 700 245" style="enable-background:new 0 0 700 245;" xml:space="preserve">
<style type="text/css">
	.st0{display:none;}
	.st1{fill:none;stroke:#000000;stroke-width:2.5;stroke-miterlimit:10;}
	.st2{fill:#FFFFFF;stroke:#000000;stroke-width:2.5;stroke-miterlimit:10;}
	.st3{fill:#8C3123;}
	.st4{fill:#E05243;}
	.st5{fill:#5E1F18;}
	.st6{fill:#F2B0A9;}
	.st7{fill:url(#SVGID_1_);}
	.st8{fill:url(#SVGID_2_);}
	.st9{fill-rule:evenodd;clip-rule:evenodd;}
</style>
<g class="st0">
	
		<image style="display:inline;overflow:visible;enable-background:new    ;" width="1805" height="368" xlink:href="cloud-vm-storage.png"  transform="matrix(1.0019 0 0 1.0019 -538.2466 -58.6067)">
	</image>
</g>
<g>
	<line class="st1" x1="88.7" y1="86.8" x2="88.7" y2="64.5"/>
	<line class="st1" x1="266.6" y1="86.8" x2="266.6" y2="64.5"/>
	<line class="st1" x1="446.7" y1="87.5" x2="446.7" y2="65.1"/>
	<line class="st1" x1="616.7" y1="89.2" x2="616.7" y2="66.9"/>
</g>
<line class="st1" x1="153.4" y1="38.7" x2="550" y2="38.7"/>
<rect x="7" y="6.7" class="st2" width="154.5" height="64.4"/>
<rect x="184.2" y="6.7" class="st2" width="154.5" height="64.4"/>
<rect x="361.9" y="6.7" class="st2" width="154.5" height="64.4"/>
<rect x="538.3" y="6.7" class="st2" width="154.5" height="64.4"/>
<rect x="7" y="80.3" class="st2" width="685.9" height="157.5"/>
<g>
	<path d="M54.1,43.1l-3-9.2h1.3l1.4,4.6c0.4,1.2,0.7,2.4,1,3.5l0,0c0.3-1.1,0.6-2.2,1.1-3.4l1.6-4.6h1.3l-3.3,9.2L54.1,43.1
		L54.1,43.1z"/>
	<path d="M67.5,39c-0.1-1.3-0.2-2.8-0.1-4l0,0c-0.3,1.1-0.7,2.2-1.2,3.5L64.6,43h-0.9l-1.5-4.4c-0.4-1.3-0.8-2.5-1.1-3.6l0,0
		c0,1.2-0.1,2.7-0.2,4.1l-0.2,4h-1.1l0.6-9.2h1.5l1.6,4.5c0.4,1.1,0.7,2.2,0.9,3.1l0,0c0.2-0.9,0.6-1.9,1-3.1l1.6-4.5h1.5l0.6,9.2
		h-1.2L67.5,39z"/>
	<path d="M74.8,33.9v9.2h-1.2v-9.2H74.8z"/>
	<path d="M77,38.3c0-0.7,0-1.2-0.1-1.8H78l0.1,1.1l0,0c0.3-0.6,1.1-1.2,2.2-1.2c0.9,0,2.3,0.5,2.3,2.8v4h-1.2v-3.8
		c0-1.1-0.4-2-1.5-2c-0.8,0-1.4,0.6-1.6,1.2c0,0.1-0.1,0.3-0.1,0.5v4H77V38.3z"/>
	<path d="M84.5,41.9c0.4,0.2,1,0.5,1.6,0.5c0.9,0,1.3-0.4,1.3-1s-0.3-0.9-1.2-1.2c-1.2-0.4-1.8-1.1-1.8-1.9c0-1.1,0.9-1.9,2.3-1.9
		c0.7,0,1.3,0.2,1.6,0.4L88,37.7c-0.3-0.2-0.7-0.4-1.4-0.4c-0.7,0-1.1,0.4-1.1,0.9s0.4,0.8,1.3,1.1c1.2,0.4,1.7,1,1.7,2
		c0,1.2-0.9,2-2.5,2c-0.7,0-1.4-0.2-1.9-0.5L84.5,41.9z"/>
	<path d="M91.5,34.6v1.9h1.7v0.9h-1.7V41c0,0.8,0.2,1.3,0.9,1.3c0.3,0,0.5,0,0.7-0.1l0.1,0.9c-0.2,0.1-0.6,0.2-1.1,0.2
		c-0.6,0-1-0.2-1.3-0.5c-0.3-0.4-0.5-0.9-0.5-1.7v-3.6h-1v-0.9h1v-1.7L91.5,34.6z"/>
	<path d="M98.3,43.1l-0.1-0.8l0,0c-0.4,0.5-1.1,1-2,1c-1.3,0-2-0.9-2-1.9c0-1.6,1.4-2.5,4-2.5v-0.1c0-0.5-0.2-1.5-1.5-1.5
		c-0.6,0-1.3,0.2-1.7,0.5l-0.4-0.9c0.5-0.4,1.3-0.6,2.2-0.6c2,0,2.5,1.4,2.5,2.7v2.5c0,0.6,0,1.1,0.1,1.6H98.3z M98.1,39.7
		c-1.3,0-2.8,0.2-2.8,1.5c0,0.8,0.5,1.2,1.1,1.2c0.9,0,1.4-0.5,1.6-1.1c0-0.1,0.1-0.3,0.1-0.4C98.1,40.9,98.1,39.7,98.1,39.7z"/>
	<path d="M101.2,38.3c0-0.7,0-1.2-0.1-1.8h1.1l0.1,1.1l0,0c0.3-0.6,1.1-1.2,2.2-1.2c0.9,0,2.3,0.5,2.3,2.8v4h-1.2v-3.8
		c0-1.1-0.4-2-1.5-2c-0.8,0-1.4,0.6-1.6,1.2c-0.1,0.2-0.1,0.4-0.1,0.6v4h-1.2V38.3z"/>
	<path d="M113.6,42.9c-0.3,0.2-1,0.4-1.9,0.4c-2,0-3.3-1.4-3.3-3.4s1.4-3.5,3.6-3.5c0.7,0,1.3,0.2,1.7,0.3l-0.3,0.9
		c-0.3-0.2-0.7-0.3-1.4-0.3c-1.5,0-2.3,1.1-2.3,2.5c0,1.5,1,2.5,2.3,2.5c0.7,0,1.1-0.2,1.5-0.3L113.6,42.9z"/>
	<path d="M115.6,40c0,1.6,1.1,2.3,2.3,2.3c0.9,0,1.4-0.2,1.8-0.3l0.2,0.9c-0.4,0.2-1.2,0.4-2.2,0.4c-2,0-3.3-1.3-3.3-3.3
		s1.2-3.6,3.1-3.6c2.2,0,2.7,1.9,2.7,3.1c0,0.2,0,0.4,0,0.6h-4.6V40z M119.1,39.1c0-0.8-0.3-2-1.7-2c-1.2,0-1.8,1.1-1.9,2H119.1z"/>
</g>
<g>
	<path d="M230.2,43.1l-3-9.2h1.3l1.4,4.6c0.4,1.2,0.7,2.4,1,3.5l0,0c0.3-1.1,0.6-2.2,1.1-3.4l1.6-4.6h1.3l-3.3,9.2L230.2,43.1
		L230.2,43.1z"/>
	<path d="M243.7,39c-0.1-1.3-0.2-2.8-0.1-4l0,0c-0.3,1.1-0.7,2.2-1.2,3.5l-1.6,4.5h-0.9l-1.5-4.4c-0.4-1.3-0.8-2.5-1.1-3.6l0,0
		c0,1.2-0.1,2.7-0.2,4.1l-0.2,4h-1.1l0.6-9.2h1.5l1.6,4.5c0.4,1.1,0.7,2.2,0.9,3.1l0,0c0.2-0.9,0.6-1.9,1-3.1l1.6-4.5h1.5l0.6,9.2
		h-1.2L243.7,39z"/>
	<path d="M251,33.9v9.2h-1.2v-9.2H251z"/>
	<path d="M253.2,38.3c0-0.7,0-1.2-0.1-1.8h1.1l0.1,1.1l0,0c0.3-0.6,1.1-1.2,2.2-1.2c0.9,0,2.3,0.5,2.3,2.8v4h-1.2v-3.8
		c0-1.1-0.4-2-1.5-2c-0.8,0-1.4,0.6-1.6,1.2c-0.1,0.2-0.1,0.4-0.1,0.6v4h-1.2V38.3z"/>
	<path d="M260.6,41.9c0.4,0.2,1,0.5,1.6,0.5c0.9,0,1.3-0.4,1.3-1s-0.3-0.9-1.2-1.2c-1.2-0.4-1.8-1.1-1.8-1.9c0-1.1,0.9-1.9,2.3-1.9
		c0.7,0,1.3,0.2,1.6,0.4l-0.3,0.9c-0.3-0.2-0.7-0.4-1.4-0.4c-0.7,0-1.1,0.4-1.1,0.9s0.4,0.8,1.3,1.1c1.2,0.4,1.7,1,1.7,2
		c0,1.2-0.9,2-2.5,2c-0.7,0-1.4-0.2-1.9-0.5L260.6,41.9z"/>
	<path d="M267.7,34.6v1.9h1.7v0.9h-1.7V41c0,0.8,0.2,1.3,0.9,1.3c0.3,0,0.5,0,0.7-0.1l0.1,0.9c-0.2,0.1-0.6,0.2-1.1,0.2
		c-0.6,0-1-0.2-1.3-0.5c-0.3-0.4-0.5-0.9-0.5-1.7v-3.6h-1v-0.9h1v-1.7L267.7,34.6z"/>
	<path d="M274.5,43.1l-0.1-0.8l0,0c-0.4,0.5-1.1,1-2,1c-1.3,0-2-0.9-2-1.9c0-1.6,1.4-2.5,4-2.5v-0.1c0-0.5-0.2-1.5-1.5-1.5
		c-0.6,0-1.3,0.2-1.7,0.5l-0.3-0.8c0.5-0.4,1.3-0.6,2.2-0.6c2,0,2.5,1.4,2.5,2.7v2.5c0,0.6,0,1.1,0.1,1.6h-1.2V43.1z M274.3,39.7
		c-1.3,0-2.8,0.2-2.8,1.5c0,0.8,0.5,1.2,1.1,1.2c0.9,0,1.4-0.5,1.6-1.1c0-0.1,0.1-0.3,0.1-0.4L274.3,39.7L274.3,39.7z"/>
	<path d="M277.4,38.3c0-0.7,0-1.2-0.1-1.8h1.1l0.1,1.1l0,0c0.3-0.6,1.1-1.2,2.2-1.2c0.9,0,2.3,0.5,2.3,2.8v4h-1.2v-3.8
		c0-1.1-0.4-2-1.5-2c-0.8,0-1.4,0.6-1.6,1.2c-0.1,0.2-0.1,0.4-0.1,0.6v4h-1.2L277.4,38.3L277.4,38.3z"/>
	<path d="M289.7,42.9c-0.3,0.2-1,0.4-1.9,0.4c-2,0-3.3-1.4-3.3-3.4s1.4-3.5,3.6-3.5c0.7,0,1.3,0.2,1.7,0.3l-0.3,0.9
		c-0.3-0.2-0.7-0.3-1.4-0.3c-1.5,0-2.3,1.1-2.3,2.5c0,1.5,1,2.5,2.3,2.5c0.7,0,1.1-0.2,1.5-0.3L289.7,42.9z"/>
	<path d="M291.7,40c0,1.6,1.1,2.3,2.3,2.3c0.9,0,1.4-0.2,1.8-0.3l0.2,0.9c-0.4,0.2-1.2,0.4-2.2,0.4c-2,0-3.3-1.3-3.3-3.3
		s1.2-3.6,3.1-3.6c2.2,0,2.7,1.9,2.7,3.1c0,0.2,0,0.4,0,0.6h-4.6V40z M295.3,39.1c0-0.8-0.3-2-1.7-2c-1.2,0-1.8,1.1-1.9,2H295.3z"/>
</g>
<g>
	<path d="M411,43.1l-3-9.2h1.3l1.4,4.6c0.4,1.2,0.7,2.4,1,3.5l0,0c0.3-1.1,0.6-2.2,1.1-3.4l1.6-4.6h1.3l-3.3,9.2L411,43.1L411,43.1z
		"/>
	<path d="M424.4,39c-0.1-1.3-0.2-2.8-0.1-4l0,0c-0.3,1.1-0.7,2.2-1.2,3.5l-1.6,4.5h-0.9l-1.5-4.4c-0.4-1.3-0.8-2.5-1.1-3.6l0,0
		c0,1.2-0.1,2.7-0.2,4.1l-0.2,4h-1.1l0.6-9.2h1.5l1.6,4.5c0.4,1.1,0.7,2.2,0.9,3.1l0,0c0.2-0.9,0.6-1.9,1-3.1l1.6-4.5h1.5l0.6,9.2
		h-1.2L424.4,39z"/>
	<path d="M431.7,33.9v9.2h-1.2v-9.2H431.7z"/>
	<path d="M433.9,38.3c0-0.7,0-1.2-0.1-1.8h1.1l0.1,1.1l0,0c0.3-0.6,1.1-1.2,2.2-1.2c0.9,0,2.3,0.5,2.3,2.8v4h-1.2v-3.8
		c0-1.1-0.4-2-1.5-2c-0.8,0-1.4,0.6-1.6,1.2c-0.1,0.2-0.1,0.4-0.1,0.6v4h-1.2L433.9,38.3L433.9,38.3z"/>
	<path d="M441.4,41.9c0.4,0.2,1,0.5,1.6,0.5c0.9,0,1.3-0.4,1.3-1s-0.3-0.9-1.2-1.2c-1.2-0.4-1.8-1.1-1.8-1.9c0-1.1,0.9-1.9,2.3-1.9
		c0.7,0,1.3,0.2,1.6,0.4l-0.3,0.9c-0.3-0.2-0.7-0.4-1.4-0.4c-0.7,0-1.1,0.4-1.1,0.9s0.4,0.8,1.3,1.1c1.2,0.4,1.7,1,1.7,2
		c0,1.2-0.9,2-2.5,2c-0.7,0-1.4-0.2-1.9-0.5L441.4,41.9z"/>
	<path d="M448.4,34.6v1.9h1.7v0.9h-1.7V41c0,0.8,0.2,1.3,0.9,1.3c0.3,0,0.5,0,0.7-0.1l0.1,0.9c-0.2,0.1-0.6,0.2-1.1,0.2
		c-0.6,0-1-0.2-1.3-0.5c-0.3-0.4-0.5-0.9-0.5-1.7v-3.6h-1v-0.9h1v-1.7L448.4,34.6z"/>
	<path d="M455.2,43.1l-0.1-0.8l0,0c-0.4,0.5-1.1,1-2,1c-1.3,0-2-0.9-2-1.9c0-1.6,1.4-2.5,4-2.5v-0.1c0-0.5-0.2-1.5-1.5-1.5
		c-0.6,0-1.3,0.2-1.7,0.5l-0.3-0.8c0.5-0.4,1.3-0.6,2.2-0.6c2,0,2.5,1.4,2.5,2.7v2.5c0,0.6,0,1.1,0.1,1.6h-1.2V43.1z M455,39.7
		c-1.3,0-2.8,0.2-2.8,1.5c0,0.8,0.5,1.2,1.1,1.2c0.9,0,1.4-0.5,1.6-1.1c0-0.1,0.1-0.3,0.1-0.4L455,39.7L455,39.7z"/>
	<path d="M458.1,38.3c0-0.7,0-1.2-0.1-1.8h1.1l0.1,1.1l0,0c0.3-0.6,1.1-1.2,2.2-1.2c0.9,0,2.3,0.5,2.3,2.8v4h-1.2v-3.8
		c0-1.1-0.4-2-1.5-2c-0.8,0-1.4,0.6-1.6,1.2c-0.1,0.2-0.1,0.4-0.1,0.6v4h-1.2L458.1,38.3L458.1,38.3z"/>
	<path d="M470.5,42.9c-0.3,0.2-1,0.4-1.9,0.4c-2,0-3.3-1.4-3.3-3.4s1.4-3.5,3.6-3.5c0.7,0,1.3,0.2,1.7,0.3l-0.3,0.9
		c-0.3-0.2-0.7-0.3-1.4-0.3c-1.5,0-2.3,1.1-2.3,2.5c0,1.5,1,2.5,2.3,2.5c0.7,0,1.1-0.2,1.5-0.3L470.5,42.9z"/>
	<path d="M472.5,40c0,1.6,1.1,2.3,2.3,2.3c0.9,0,1.4-0.2,1.8-0.3l0.2,0.9c-0.4,0.2-1.2,0.4-2.2,0.4c-2,0-3.3-1.3-3.3-3.3
		s1.2-3.6,3.1-3.6c2.2,0,2.7,1.9,2.7,3.1c0,0.2,0,0.4,0,0.6h-4.6V40z M476,39.1c0-0.8-0.3-2-1.7-2c-1.2,0-1.8,1.1-1.9,2H476z"/>
</g>
<g>
	<path d="M582,43.1l-3-9.2h1.3l1.4,4.6c0.4,1.2,0.7,2.4,1,3.5l0,0c0.3-1.1,0.6-2.2,1.1-3.4l1.6-4.6h1.3l-3.3,9.2L582,43.1L582,43.1z
		"/>
	<path d="M595.4,39c-0.1-1.3-0.2-2.8-0.1-4l0,0c-0.3,1.1-0.7,2.2-1.2,3.5l-1.6,4.5h-0.9l-1.5-4.4c-0.4-1.3-0.8-2.5-1.1-3.6l0,0
		c0,1.2-0.1,2.7-0.2,4.1l-0.2,4h-1.1l0.6-9.2h1.5l1.6,4.5c0.4,1.1,0.7,2.2,0.9,3.1l0,0c0.2-0.9,0.6-1.9,1-3.1l1.6-4.5h1.5l0.6,9.2
		h-1.2L595.4,39z"/>
	<path d="M602.8,33.9v9.2h-1.2v-9.2H602.8z"/>
	<path d="M605,38.3c0-0.7,0-1.2-0.1-1.8h1.1l0.1,1.1l0,0c0.3-0.6,1.1-1.2,2.2-1.2c0.9,0,2.3,0.5,2.3,2.8v4h-1.2v-3.8
		c0-1.1-0.4-2-1.5-2c-0.8,0-1.4,0.6-1.6,1.2c-0.1,0.2-0.1,0.4-0.1,0.6v4H605V38.3z"/>
	<path d="M612.4,41.9c0.4,0.2,1,0.5,1.6,0.5c0.9,0,1.3-0.4,1.3-1s-0.3-0.9-1.2-1.2c-1.2-0.4-1.8-1.1-1.8-1.9c0-1.1,0.9-1.9,2.3-1.9
		c0.7,0,1.3,0.2,1.6,0.4l-0.3,0.9c-0.3-0.2-0.7-0.4-1.4-0.4s-1.1,0.4-1.1,0.9s0.4,0.8,1.3,1.1c1.2,0.4,1.7,1,1.7,2
		c0,1.2-0.9,2-2.5,2c-0.7,0-1.4-0.2-1.9-0.5L612.4,41.9z"/>
	<path d="M619.5,34.6v1.9h1.7v0.9h-1.7V41c0,0.8,0.2,1.3,0.9,1.3c0.3,0,0.5,0,0.7-0.1l0.1,0.9c-0.2,0.1-0.6,0.2-1.1,0.2
		c-0.6,0-1-0.2-1.3-0.5c-0.3-0.4-0.5-0.9-0.5-1.7v-3.6h-1v-0.9h1v-1.7L619.5,34.6z"/>
	<path d="M626.2,43.1l-0.1-0.8l0,0c-0.4,0.5-1.1,1-2,1c-1.3,0-2-0.9-2-1.9c0-1.6,1.4-2.5,4-2.5v-0.1c0-0.5-0.2-1.5-1.5-1.5
		c-0.6,0-1.3,0.2-1.7,0.5l-0.3-0.8c0.5-0.4,1.3-0.6,2.2-0.6c2,0,2.5,1.4,2.5,2.7v2.5c0,0.6,0,1.1,0.1,1.6h-1.2V43.1z M626,39.7
		c-1.3,0-2.8,0.2-2.8,1.5c0,0.8,0.5,1.2,1.1,1.2c0.9,0,1.4-0.5,1.6-1.1c0-0.1,0.1-0.3,0.1-0.4L626,39.7L626,39.7z"/>
	<path d="M629.2,38.3c0-0.7,0-1.2-0.1-1.8h1.1l0.1,1.1l0,0c0.3-0.6,1.1-1.2,2.2-1.2c0.9,0,2.3,0.5,2.3,2.8v4h-1.2v-3.8
		c0-1.1-0.4-2-1.5-2c-0.8,0-1.4,0.6-1.6,1.2c-0.1,0.2-0.1,0.4-0.1,0.6v4h-1.2V38.3z"/>
	<path d="M641.5,42.9c-0.3,0.2-1,0.4-1.9,0.4c-2,0-3.3-1.4-3.3-3.4s1.4-3.5,3.6-3.5c0.7,0,1.3,0.2,1.7,0.3l-0.3,0.9
		c-0.3-0.2-0.7-0.3-1.4-0.3c-1.5,0-2.3,1.1-2.3,2.5c0,1.5,1,2.5,2.3,2.5c0.7,0,1.1-0.2,1.5-0.3L641.5,42.9z"/>
	<path d="M643.5,40c0,1.6,1.1,2.3,2.3,2.3c0.9,0,1.4-0.2,1.8-0.3l0.2,0.9c-0.4,0.2-1.2,0.4-2.2,0.4c-2,0-3.3-1.3-3.3-3.3
		s1.2-3.6,3.1-3.6c2.2,0,2.7,1.9,2.7,3.1c0,0.2,0,0.4,0,0.6h-4.6V40z M647,39.1c0-0.8-0.3-2-1.7-2c-1.2,0-1.8,1.1-1.9,2H647z"/>
</g>
<g>
	<path d="M121.3,146v5.4h6.2V146h1.7v12.8h-1.7v-6h-6.2v6h-1.7V146H121.3z"/>
	<path d="M134,147c0,0.6-0.4,1-1.1,1c-0.6,0-1-0.4-1-1c0-0.6,0.4-1.1,1.1-1.1C133.8,145.9,134,146.4,134,147z M132.2,158.8v-9.2h1.7
		v9.2H132.2z"/>
	<path d="M144.6,149.6c0,0.7-0.1,1.4-0.1,2.5v5.4c0,2.1-0.4,3.5-1.2,4.2c-0.8,0.8-2.2,1.1-3.3,1.1s-2.4-0.3-3.1-0.7l0.4-1.2
		c0.6,0.4,1.5,0.7,2.6,0.7c1.7,0,2.9-0.8,2.9-3.2v-1l0,0c-0.6,0.8-1.5,1.5-2.9,1.5c-2.2,0-3.9-1.9-3.9-4.4c0-3.1,2.1-4.9,4.2-4.9
		c1.7,0,2.5,0.8,2.9,1.7l0,0l0.1-1.4h1.4V149.6z M142.9,153.2c0-0.3,0-0.6-0.1-0.7c-0.3-1-1.1-1.8-2.4-1.8c-1.7,0-2.8,1.4-2.8,3.5
		c0,1.8,1,3.3,2.8,3.3c1,0,1.9-0.7,2.4-1.7c0.1-0.3,0.1-0.6,0.1-0.8V153.2z"/>
	<path d="M147.4,145.3h1.7v5.7l0,0c0.3-0.4,0.7-0.8,1.2-1.1s1.1-0.4,1.7-0.4c1.2,0,3.2,0.7,3.2,3.9v5.6h-1.7v-5.3
		c0-1.5-0.6-2.8-2.1-2.8c-1.1,0-1.9,0.7-2.2,1.7c-0.1,0.3-0.1,0.4-0.1,0.8v5.6h-1.7L147.4,145.3L147.4,145.3z"/>
	<path d="M157.9,145.3h1.7v13.5h-1.7V145.3z"/>
	<path d="M163,149.6l2.1,5.4c0.3,0.6,0.4,1.4,0.6,1.9l0,0c0.1-0.6,0.4-1.2,0.6-1.9l1.8-5.4h1.8l-2.5,6.5c-1.2,3.2-2.1,4.7-3.2,5.8
		c-0.8,0.7-1.7,1-2.1,1.1l-0.4-1.4c0.4-0.1,1-0.4,1.5-0.8c0.4-0.4,1-1,1.4-1.8c0.1-0.1,0.1-0.3,0.1-0.4c0-0.1,0-0.3-0.1-0.4
		l-3.5-8.5h1.9V149.6z"/>
	<path d="M177.5,154.8l-1.4,4h-1.7l4.3-12.8h1.9l4.4,12.8h-1.8l-1.4-4H177.5z M181.8,153.5l-1.2-3.7c-0.3-0.8-0.4-1.7-0.7-2.4l0,0
		c-0.1,0.7-0.4,1.5-0.7,2.4l-1.2,3.7H181.8z"/>
	<path d="M187.3,149.6l1.8,5.1c0.3,0.8,0.6,1.7,0.7,2.4l0,0c0.3-0.7,0.4-1.5,0.8-2.4l1.8-5.1h1.8l-3.6,9.2H189l-3.5-9.2H187.3z"/>
	<path d="M200.8,158.8l-0.1-1.1l0,0c-0.6,0.7-1.5,1.4-2.8,1.4c-1.8,0-2.8-1.2-2.8-2.6c0-2.2,1.9-3.5,5.6-3.5v-0.1
		c0-0.7-0.3-2.1-2.1-2.1c-0.8,0-1.8,0.3-2.4,0.7l-0.4-1.1c0.7-0.6,1.8-0.8,3.1-0.8c2.8,0,3.5,1.9,3.5,3.7v3.5c0,0.8,0,1.5,0.1,2.2
		h-1.7V158.8z M200.5,154.1c-1.8,0-3.9,0.3-3.9,2.1c0,1.1,0.7,1.7,1.5,1.7c1.2,0,1.9-0.7,2.2-1.5c0-0.1,0.1-0.4,0.1-0.6L200.5,154.1
		L200.5,154.1z"/>
	<path d="M205,145.3h1.7v13.5H205V145.3z"/>
	<path d="M211.2,147c0,0.6-0.4,1-1.1,1c-0.6,0-1-0.4-1-1c0-0.6,0.4-1.1,1.1-1.1C210.9,145.9,211.2,146.4,211.2,147z M209.4,158.8
		v-9.2h1.7v9.2H209.4z"/>
	<path d="M219,158.8l-0.1-1.1l0,0c-0.6,0.7-1.5,1.4-2.8,1.4c-1.8,0-2.8-1.2-2.8-2.6c0-2.2,1.9-3.5,5.6-3.5v-0.1
		c0-0.7-0.3-2.1-2.1-2.1c-0.8,0-1.8,0.3-2.4,0.7l-0.4-1.1c0.7-0.6,1.8-0.8,3.1-0.8c2.8,0,3.5,1.9,3.5,3.7v3.5c0,0.8,0,1.5,0.1,2.2
		H219V158.8z M218.7,154.1c-1.8,0-3.9,0.3-3.9,2.1c0,1.1,0.7,1.7,1.5,1.7c1.2,0,1.9-0.7,2.2-1.5c0-0.1,0.1-0.4,0.1-0.6L218.7,154.1
		L218.7,154.1z"/>
	<path d="M223,158.8c0-0.7,0.1-1.5,0.1-2.4v-11.1h1.7v5.8l0,0c0.6-1,1.7-1.7,3.2-1.7c2.2,0,3.9,1.9,3.9,4.7c0,3.3-2.1,5-4.2,5
		c-1.4,0-2.4-0.6-3.1-1.7l0,0l-0.1,1.5H223V158.8z M224.7,155.1c0,0.3,0,0.4,0.1,0.6c0.3,1.1,1.2,1.9,2.5,1.9c1.8,0,2.8-1.4,2.8-3.6
		c0-1.8-1-3.5-2.8-3.5c-1.1,0-2.2,0.8-2.5,2.1c0,0.1-0.1,0.4-0.1,0.7V155.1z"/>
	<path d="M233.8,145.3h1.7v13.5h-1.7V145.3z"/>
	<path d="M239.2,154.5c0,2.2,1.5,3.2,3.2,3.2c1.2,0,1.9-0.3,2.5-0.4l0.3,1.2c-0.6,0.3-1.7,0.6-3.1,0.6c-2.8,0-4.6-1.8-4.6-4.6
		c0-2.8,1.7-5,4.3-5c3.1,0,3.7,2.6,3.7,4.3c0,0.3,0,0.6,0,0.8h-6.4V154.5z M244.2,153.2c0-1.1-0.4-2.8-2.4-2.8
		c-1.7,0-2.5,1.5-2.6,2.8H244.2z"/>
	<path d="M252,146.2c0.8-0.1,1.8-0.3,3.2-0.3c1.7,0,2.8,0.4,3.6,1.1c0.7,0.6,1.1,1.5,1.1,2.6s-0.3,2.1-1,2.8c-0.8,1-2.4,1.4-3.9,1.4
		c-0.6,0-1,0-1.4-0.1v5.1H252L252,146.2L252,146.2z M253.7,152.3c0.4,0.1,0.8,0.1,1.4,0.1c1.9,0,3.2-1,3.2-2.8
		c0-1.7-1.2-2.5-3.1-2.5c-0.7,0-1.2,0-1.5,0.1L253.7,152.3L253.7,152.3z"/>
	<path d="M262.5,154.5c0,2.2,1.5,3.2,3.2,3.2c1.2,0,1.9-0.3,2.5-0.4l0.3,1.2c-0.6,0.3-1.7,0.6-3.1,0.6c-2.8,0-4.6-1.8-4.6-4.6
		c0-2.8,1.7-5,4.3-5c3.1,0,3.7,2.6,3.7,4.3c0,0.3,0,0.6,0,0.8h-6.4V154.5z M267.4,153.2c0-1.1-0.4-2.8-2.4-2.8
		c-1.7,0-2.5,1.5-2.6,2.8H267.4z"/>
	<path d="M271.1,152.4c0-1.1,0-2.1-0.1-2.9h1.5v1.8h0.1c0.4-1.2,1.4-2.1,2.5-2.1c0.1,0,0.3,0,0.4,0v1.5c-0.1,0-0.3,0-0.6,0
		c-1.2,0-2.1,0.8-2.2,2.2c0,0.3-0.1,0.6-0.1,0.8v4.9h-1.5V152.4z"/>
	<path d="M277.1,157.1c0.6,0.3,1.4,0.7,2.2,0.7c1.2,0,1.8-0.6,1.8-1.4s-0.4-1.2-1.7-1.7c-1.7-0.6-2.5-1.5-2.5-2.6
		c0-1.5,1.2-2.6,3.2-2.6c1,0,1.8,0.3,2.2,0.6l-0.4,1.2c-0.4-0.3-1-0.6-1.9-0.6c-1,0-1.5,0.6-1.5,1.2c0,0.7,0.6,1.1,1.8,1.5
		c1.7,0.6,2.4,1.4,2.4,2.8c0,1.7-1.2,2.8-3.5,2.8c-1,0-1.9-0.3-2.6-0.7L277.1,157.1z"/>
	<path d="M286.7,147c0,0.6-0.4,1-1.1,1c-0.6,0-1-0.4-1-1c0-0.6,0.4-1.1,1.1-1.1S286.7,146.4,286.7,147z M284.9,158.8v-9.2h1.7v9.2
		H284.9z"/>
	<path d="M289,157.1c0.6,0.3,1.4,0.7,2.2,0.7c1.2,0,1.8-0.6,1.8-1.4s-0.4-1.2-1.7-1.7c-1.7-0.6-2.5-1.5-2.5-2.6
		c0-1.5,1.2-2.6,3.2-2.6c1,0,1.8,0.3,2.2,0.6l-0.4,1.2c-0.4-0.3-1-0.6-1.9-0.6c-1,0-1.5,0.6-1.5,1.2c0,0.7,0.6,1.1,1.8,1.5
		c1.7,0.6,2.4,1.4,2.4,2.8c0,1.7-1.2,2.8-3.5,2.8c-1,0-1.9-0.3-2.6-0.7L289,157.1z"/>
	<path d="M298.9,147v2.6h2.4v1.2h-2.4v5c0,1.1,0.3,1.8,1.2,1.8c0.4,0,0.7,0,1-0.1l0.1,1.2c-0.3,0.1-0.8,0.3-1.5,0.3
		c-0.8,0-1.4-0.3-1.8-0.7c-0.4-0.6-0.7-1.2-0.7-2.4v-5h-1.4v-1.2h1.4v-2.2L298.9,147z"/>
	<path d="M304,154.5c0,2.2,1.5,3.2,3.2,3.2c1.2,0,1.9-0.3,2.5-0.4l0.3,1.2c-0.6,0.3-1.7,0.6-3.1,0.6c-2.8,0-4.6-1.8-4.6-4.6
		c0-2.8,1.7-5,4.3-5c3.1,0,3.7,2.6,3.7,4.3c0,0.3,0,0.6,0,0.8H304V154.5z M308.9,153.2c0-1.1-0.4-2.8-2.4-2.8
		c-1.7,0-2.5,1.5-2.6,2.8H308.9z"/>
	<path d="M312.6,152.1c0-1,0-1.7-0.1-2.5h1.5l0.1,1.5l0,0c0.4-0.8,1.5-1.7,3.1-1.7c1.2,0,3.2,0.7,3.2,3.9v5.6h-1.7v-5.3
		c0-1.5-0.6-2.8-2.1-2.8c-1.1,0-1.9,0.8-2.2,1.7c-0.1,0.3-0.1,0.6-0.1,0.8v5.6h-1.7L312.6,152.1L312.6,152.1z"/>
	<path d="M325.1,147v2.6h2.4v1.2h-2.4v5c0,1.1,0.3,1.8,1.2,1.8c0.4,0,0.7,0,1-0.1l0.1,1.2c-0.3,0.1-0.8,0.3-1.5,0.3
		c-0.8,0-1.4-0.3-1.8-0.7c-0.4-0.6-0.7-1.2-0.7-2.4v-5h-1.4v-1.2h1.4v-2.2L325.1,147z"/>
	<path d="M333.3,156.7c0.7,0.4,1.8,0.8,2.9,0.8c1.7,0,2.6-0.8,2.6-2.2c0-1.2-0.7-1.9-2.4-2.5c-2.1-0.7-3.3-1.8-3.3-3.6
		c0-1.9,1.7-3.5,4.2-3.5c1.2,0,2.2,0.3,2.8,0.7l-0.4,1.4c-0.4-0.3-1.2-0.6-2.5-0.6c-1.8,0-2.4,1.1-2.4,1.9c0,1.2,0.8,1.8,2.5,2.5
		c2.2,0.8,3.3,1.9,3.3,3.7c0,1.9-1.5,3.7-4.4,3.7c-1.2,0-2.6-0.4-3.3-0.8L333.3,156.7z"/>
	<path d="M344.8,147v2.6h2.4v1.2h-2.4v5c0,1.1,0.3,1.8,1.2,1.8c0.4,0,0.7,0,1-0.1l0.1,1.2c-0.3,0.1-0.8,0.3-1.5,0.3
		c-0.8,0-1.4-0.3-1.8-0.7c-0.4-0.6-0.7-1.2-0.7-2.4v-5h-1.4v-1.2h1.4v-2.2L344.8,147z"/>
	<path d="M357.3,154.1c0,3.5-2.4,4.9-4.6,4.9c-2.5,0-4.4-1.8-4.4-4.7c0-3.1,2.1-4.9,4.6-4.9C355.5,149.4,357.3,151.3,357.3,154.1z
		 M350,154.2c0,2.1,1.1,3.6,2.8,3.6s2.8-1.5,2.8-3.6c0-1.5-0.8-3.6-2.8-3.6S350,152.4,350,154.2z"/>
	<path d="M359.4,152.4c0-1.1,0-2.1-0.1-2.9h1.5v1.8h0.1c0.4-1.2,1.4-2.1,2.5-2.1c0.1,0,0.3,0,0.4,0v1.5c-0.1,0-0.3,0-0.6,0
		c-1.2,0-2.1,0.8-2.2,2.2c0,0.3-0.1,0.6-0.1,0.8v4.9h-1.7v-6.2H359.4z"/>
	<path d="M370.6,158.8l-0.1-1.1l0,0c-0.6,0.7-1.5,1.4-2.8,1.4c-1.8,0-2.8-1.2-2.8-2.6c0-2.2,1.9-3.5,5.6-3.5v-0.1
		c0-0.7-0.3-2.1-2.1-2.1c-0.8,0-1.8,0.3-2.4,0.7l-0.4-1.1c0.7-0.6,1.8-0.8,3.1-0.8c2.8,0,3.5,1.9,3.5,3.7v3.5c0,0.8,0,1.5,0.1,2.2
		h-1.7V158.8z M370.4,154.1c-1.8,0-3.9,0.3-3.9,2.1c0,1.1,0.7,1.7,1.5,1.7c1.2,0,1.9-0.7,2.2-1.5c0-0.1,0.1-0.4,0.1-0.6L370.4,154.1
		L370.4,154.1z"/>
	<path d="M382.6,149.6c0,0.7-0.1,1.4-0.1,2.5v5.4c0,2.1-0.4,3.5-1.2,4.2c-0.8,0.8-2.2,1.1-3.3,1.1s-2.4-0.3-3.1-0.7l0.4-1.2
		c0.6,0.4,1.5,0.7,2.6,0.7c1.7,0,2.9-0.8,2.9-3.2v-1l0,0c-0.6,0.8-1.5,1.5-2.9,1.5c-2.2,0-3.9-1.9-3.9-4.4c0-3.1,2.1-4.9,4.2-4.9
		c1.7,0,2.5,0.8,2.9,1.7l0,0l0.1-1.4h1.4V149.6z M380.9,153.2c0-0.3,0-0.6-0.1-0.7c-0.3-1-1.1-1.8-2.4-1.8c-1.7,0-2.8,1.4-2.8,3.5
		c0,1.8,1,3.3,2.8,3.3c1,0,1.9-0.7,2.4-1.7c0.1-0.3,0.1-0.6,0.1-0.8V153.2z"/>
	<path d="M386.3,154.5c0,2.2,1.5,3.2,3.2,3.2c1.2,0,1.9-0.3,2.5-0.4l0.3,1.2c-0.6,0.3-1.7,0.6-3.1,0.6c-2.8,0-4.6-1.8-4.6-4.6
		c0-2.8,1.7-5,4.3-5c3.1,0,3.7,2.6,3.7,4.3c0,0.3,0,0.6,0,0.8h-6.4V154.5z M391.2,153.2c0-1.1-0.4-2.8-2.4-2.8
		c-1.7,0-2.5,1.5-2.6,2.8H391.2z"/>
</g>
<g>
	<path class="st3" d="M427,114.6l-4.8,2.4v42.5l4.8,2.4l0,0V114.6L427,114.6"/>
	<path class="st4" d="M452.9,155.8L427,162v-47.3l25.9,6V155.8"/>
	<path class="st3" d="M441.3,146.1l11,1.4l0.1-0.2l0.1-18.1l-0.1-0.2l-11,1.4L441.3,146.1"/>
	<path class="st3" d="M452.2,155.8l25.2,6.1v-0.1v-47.2l0,0l-25.2,6.1V155.8"/>
	<path class="st4" d="M463.2,146.1l-11,1.4v-18.3l11,1.4V146.1"/>
	<path class="st5" d="M463.2,123.1l-11,2l-11-2l11-2.9L463.2,123.1"/>
	<path class="st6" d="M463.2,153.6l-11-2l-11,2l11,3.1L463.2,153.6"/>
	<path class="st3" d="M441.3,123.1l11-2.7h0.1v-18.3l-0.1-0.1l-11,5.5V123.1"/>
	<path class="st4" d="M463.2,123.1l-11-2.7v-18.3l11,5.5V123.1"/>
	<path class="st3" d="M452.2,174.7l-11-5.5v-15.5l11,2.7l0.2,0.2l-0.1,17.8L452.2,174.7"/>
	<path class="st4" d="M452.2,174.7l11-5.5v-15.5l-11,2.7V174.7 M477.5,114.6l4.9,2.4v42.5l-4.9,2.4V114.6"/>
</g>
<g>
	<path d="M447.4,199.6c0.1,0.3,0.2,0.6,0.3,0.7c0.3,0.3,0.7,0.4,1.3,0.4c0.3,0,0.7,0,0.9-0.1c0.4-0.2,0.6-0.4,0.6-0.9
		c0-0.3-0.1-0.4-0.3-0.5c-0.2-0.1-0.5-0.3-1-0.3l-0.8-0.2c-0.8-0.2-1.3-0.3-1.6-0.5c-0.5-0.3-0.7-0.9-0.7-1.6c0-0.6,0.3-1.2,0.7-1.6
		c0.4-0.4,1.1-0.6,2.1-0.6c0.8,0,1.4,0.2,1.9,0.6c0.5,0.4,0.8,1,0.9,1.7h-1.5c0-0.4-0.3-0.7-0.6-1c-0.3-0.1-0.5-0.2-0.9-0.2
		c-0.4,0-0.7,0.1-1,0.3c-0.3,0.2-0.3,0.3-0.3,0.6c0,0.3,0.1,0.4,0.3,0.6c0.2,0.1,0.4,0.2,1,0.3l1.2,0.3c0.5,0.1,1,0.3,1.2,0.5
		c0.4,0.3,0.6,0.8,0.6,1.5c0,0.7-0.3,1.2-0.8,1.7c-0.5,0.4-1.2,0.6-2.2,0.6s-1.7-0.2-2.3-0.6c-0.5-0.4-0.8-1-0.8-1.7L447.4,199.6
		L447.4,199.6z"/>
	<path d="M453.9,199.6c0,0.3,0.1,0.5,0.2,0.7c0.2,0.3,0.4,0.5,1,0.5c0.3,0,0.5-0.1,0.7-0.3c0.2-0.2,0.3-0.4,0.3-0.8
		c0-0.4-0.2-0.8-0.5-1c-0.2-0.1-0.5-0.2-1-0.2v-1c0.4,0,0.8-0.1,1-0.2c0.3-0.2,0.4-0.4,0.4-0.9c0-0.3-0.1-0.5-0.3-0.7
		s-0.3-0.3-0.7-0.3s-0.6,0.1-0.7,0.3c-0.2,0.2-0.3,0.5-0.3,0.9h-1.3c0-0.3,0.1-0.7,0.2-1c0.1-0.3,0.3-0.5,0.5-0.8
		c0.2-0.2,0.4-0.3,0.6-0.3c0.3-0.1,0.5-0.2,1-0.2c0.7,0,1.2,0.2,1.7,0.5c0.4,0.3,0.6,0.8,0.6,1.4c0,0.4-0.1,0.8-0.3,1
		c-0.2,0.2-0.3,0.3-0.5,0.3c0.1,0,0.3,0.1,0.5,0.3c0.3,0.3,0.5,0.8,0.5,1.3c0,0.6-0.2,1.1-0.6,1.6c-0.4,0.4-1,0.7-1.8,0.7
		c-1,0-1.7-0.3-2.1-1c-0.2-0.3-0.3-0.8-0.3-1.4L453.9,199.6L453.9,199.6z"/>
</g>
<g>
	<path d="M554.6,195.7H551v1.5h3.4v1.2H551v1.8h3.8v1.2h-5.3v-7h5.2V195.7L554.6,195.7z"/>
	<path d="M561.1,195.2c0.2,0.3,0.3,0.6,0.3,1s-0.1,0.8-0.3,1c-0.1,0.2-0.3,0.3-0.5,0.4c0.3,0.1,0.6,0.3,0.8,0.6
		c0.2,0.3,0.3,0.6,0.3,1c0,0.4-0.1,0.8-0.3,1.1c-0.2,0.2-0.3,0.4-0.5,0.5c-0.3,0.2-0.5,0.3-0.8,0.3s-0.6,0.1-1,0.1h-3.1v-7h3.4
		C560.2,194.5,560.7,194.8,561.1,195.2z M557.3,195.7v1.6h1.7c0.3,0,0.5-0.1,0.7-0.2s0.3-0.3,0.3-0.6c0-0.3-0.1-0.5-0.3-0.6
		c-0.2-0.1-0.5-0.1-0.8-0.1L557.3,195.7L557.3,195.7z M557.3,198.4v1.8h1.7c0.3,0,0.5,0,0.7-0.1c0.3-0.2,0.4-0.4,0.4-0.9
		c0-0.3-0.2-0.6-0.4-0.8c-0.2-0.1-0.4-0.1-0.7-0.1H557.3z"/>
	<path d="M564,199.3c0.1,0.3,0.2,0.5,0.3,0.7c0.3,0.3,0.7,0.4,1.2,0.4c0.3,0,0.6,0,0.9-0.1c0.4-0.2,0.6-0.4,0.6-0.8
		c0-0.3-0.1-0.4-0.3-0.5c-0.2-0.1-0.5-0.3-1-0.3l-0.8-0.2c-0.7-0.2-1.2-0.3-1.6-0.5c-0.4-0.3-0.7-0.8-0.7-1.5c0-0.6,0.3-1.1,0.7-1.6
		c0.4-0.4,1.1-0.6,2-0.6c0.8,0,1.4,0.2,1.9,0.6c0.5,0.3,0.8,1,0.8,1.7h-1.4c0-0.4-0.2-0.7-0.5-0.9c-0.3-0.1-0.5-0.2-0.9-0.2
		c-0.3,0-0.7,0.1-1,0.3c-0.3,0.2-0.3,0.3-0.3,0.6c0,0.3,0.1,0.4,0.3,0.5c0.2,0.1,0.4,0.2,1,0.3l1.2,0.3c0.5,0.1,1,0.3,1.2,0.5
		c0.4,0.3,0.6,0.8,0.6,1.4c0,0.6-0.3,1.1-0.7,1.6c-0.4,0.4-1.2,0.6-2.1,0.6c-1,0-1.7-0.2-2.2-0.6s-0.8-1-0.8-1.7L564,199.3
		L564,199.3z"/>
</g>
<g>
	<path d="M505.1,140.3c-0.4,0.5-1.1,0.9-2,0.9c-0.9,0-1.6-0.3-2-0.9c-0.4-0.5-0.7-1.2-0.7-2c0-0.8,0.3-1.4,0.7-2
		c0.4-0.5,1.1-0.9,2-0.9c0.9,0,1.6,0.3,2,0.9c0.4,0.5,0.7,1.2,0.7,2S505.7,139.7,505.1,140.3z M504.1,139.5c0.2-0.3,0.3-0.7,0.3-1.2
		s-0.1-1-0.3-1.2c-0.2-0.3-0.5-0.4-1-0.4s-0.7,0.2-1,0.4s-0.3,0.7-0.3,1.2c0,0.5,0.1,1,0.3,1.2c0.3,0.3,0.5,0.4,1,0.4
		S503.8,139.8,504.1,139.5z"/>
	<path d="M509.8,135.5L509.8,135.5l0.1,1.4c-0.1,0-0.2,0-0.3,0c-0.1,0-0.1,0-0.2,0c-0.5,0-1,0.2-1.1,0.5c-0.1,0.2-0.2,0.5-0.2,1v2.5
		h-1.4v-5.3h1.3v1c0.2-0.3,0.4-0.6,0.5-0.7C509,135.6,509.3,135.5,509.8,135.5L509.8,135.5z"/>
</g>
<g>
	<path d="M427.1,210.7c0.4,0.6,0.7,1.5,0.7,2.4c0,1-0.3,1.9-0.8,2.7c-0.6,0.9-1.6,1.2-2.7,1.2c-1.1,0-2-0.3-2.6-1.1
		c-0.5-0.7-0.9-1.6-0.9-2.7c0-1,0.3-1.8,0.7-2.4c0.6-0.9,1.6-1.3,2.7-1.3C425.6,209.5,426.5,209.9,427.1,210.7z M426.3,215.4
		c0.3-0.6,0.6-1.3,0.6-2.1c0-0.9-0.3-1.5-0.7-2c-0.4-0.5-1-0.8-1.8-0.8c-0.7,0-1.3,0.3-1.8,0.8c-0.4,0.5-0.7,1.2-0.7,2.3
		c0,0.8,0.2,1.5,0.6,2c0.4,0.5,1,0.8,1.9,0.8C425.3,216.2,425.9,216,426.3,215.4z"/>
	<path d="M428.9,209.7h0.9v2.6c0.2-0.3,0.4-0.4,0.7-0.6c0.3-0.2,0.5-0.2,0.9-0.2c0.6,0,1.2,0.3,1.6,0.7c0.4,0.4,0.6,1.1,0.6,2
		c0,0.8-0.2,1.5-0.6,2.1c-0.4,0.6-1,0.8-1.7,0.8c-0.4,0-0.7-0.1-1-0.3c-0.2-0.1-0.3-0.3-0.5-0.5v0.7h-0.8L428.9,209.7L428.9,209.7z
		 M432.2,215.7c0.3-0.3,0.3-0.9,0.3-1.5c0-0.5-0.1-1-0.3-1.4c-0.3-0.3-0.6-0.5-1-0.5s-0.8,0.2-1,0.4s-0.4,0.8-0.4,1.5
		c0,0.5,0.1,0.9,0.2,1.2c0.3,0.6,0.7,0.9,1.3,0.9C431.6,216.3,431.9,216.1,432.2,215.7z"/>
	<path d="M433.7,218.2c0.4,0,0.6-0.1,0.7-0.1c0.1,0,0.1-0.3,0.1-0.5v-5.8h0.9v5.9c0,0.3-0.1,0.7-0.2,0.9c-0.2,0.3-0.6,0.4-1.1,0.4
		c0,0-0.1,0-0.2,0c-0.1,0-0.1,0-0.3,0L433.7,218.2L433.7,218.2z M435.3,210.7h-0.9v-1h0.9V210.7z"/>
	<path d="M439.9,211.8c0.3,0.2,0.6,0.4,0.8,0.7c0.2,0.3,0.3,0.6,0.3,1c0.1,0.3,0.1,0.6,0.1,1.1h-3.8c0,0.5,0.2,1,0.3,1.3
		c0.3,0.3,0.6,0.5,1,0.5c0.4,0,0.8-0.2,1-0.4c0.2-0.2,0.3-0.3,0.3-0.6h0.9c0,0.2-0.1,0.4-0.3,0.6c-0.1,0.3-0.3,0.4-0.4,0.6
		c-0.3,0.3-0.6,0.4-1,0.5c-0.2,0.1-0.4,0.1-0.7,0.1c-0.6,0-1.2-0.3-1.7-0.7c-0.4-0.4-0.7-1.1-0.7-2s0.3-1.5,0.7-2
		c0.4-0.5,1-0.8,1.7-0.8C439.2,211.5,439.6,211.6,439.9,211.8z M440.2,213.9c0-0.3-0.1-0.7-0.3-0.9c-0.3-0.4-0.6-0.6-1.2-0.6
		c-0.4,0-0.7,0.2-1,0.4c-0.3,0.3-0.4,0.7-0.4,1.1L440.2,213.9L440.2,213.9z"/>
	<path d="M445.7,212c0.3,0.3,0.6,0.8,0.7,1.5h-0.9c-0.1-0.3-0.2-0.6-0.3-0.8c-0.2-0.2-0.5-0.3-0.9-0.3c-0.5,0-1,0.3-1.2,0.8
		c-0.2,0.3-0.3,0.8-0.3,1.3c0,0.5,0.1,1,0.3,1.3s0.6,0.5,1,0.5c0.3,0,0.6-0.1,0.9-0.3c0.3-0.3,0.3-0.5,0.4-0.9h0.9
		c-0.1,0.7-0.3,1.2-0.7,1.5c-0.3,0.3-0.9,0.5-1.5,0.5c-0.7,0-1.2-0.3-1.7-0.8c-0.4-0.5-0.6-1.1-0.6-1.8c0-1,0.3-1.7,0.7-2.2
		c0.4-0.5,1-0.8,1.7-0.8C444.8,211.5,445.4,211.7,445.7,212z"/>
	<path d="M447.4,210.2h0.9v1.5h0.9v0.7h-0.9v3.4c0,0.2,0.1,0.3,0.2,0.3c0.1,0,0.2,0.1,0.3,0.1c0,0,0.1,0,0.2,0c0.1,0,0.1,0,0.2,0
		v0.7c-0.1,0-0.2,0.1-0.3,0.1c-0.1,0-0.3,0-0.3,0c-0.4,0-0.7-0.1-0.9-0.3c-0.2-0.3-0.3-0.5-0.3-0.8v-3.5h-0.7v-0.7h0.7L447.4,210.2
		L447.4,210.2z"/>
	<path d="M453.6,214.6c0,0.4,0.1,0.7,0.3,1c0.3,0.4,0.9,0.7,1.7,0.7c0.3,0,0.7-0.1,1-0.2c0.5-0.2,0.9-0.5,0.9-1
		c0-0.3-0.1-0.7-0.3-0.9c-0.3-0.2-0.6-0.3-1.1-0.4l-1-0.3c-0.6-0.2-1-0.3-1.3-0.4c-0.4-0.3-0.7-0.8-0.7-1.3c0-0.6,0.2-1.1,0.6-1.6
		c0.4-0.4,1-0.6,1.8-0.6c0.7,0,1.3,0.2,1.8,0.5s0.8,1,0.8,1.7H457c-0.1-0.3-0.2-0.7-0.3-0.9c-0.3-0.3-0.8-0.5-1.5-0.5
		c-0.5,0-1,0.1-1.2,0.3c-0.3,0.3-0.3,0.5-0.3,0.9s0.2,0.6,0.4,0.8c0.2,0.1,0.6,0.3,1.2,0.3l1,0.3c0.4,0.1,0.9,0.3,1,0.4
		c0.4,0.3,0.7,0.8,0.7,1.5c0,0.8-0.3,1.4-0.9,1.7c-0.5,0.3-1.2,0.5-1.9,0.5c-0.9,0-1.6-0.3-2-0.7c-0.5-0.4-0.7-1-0.7-1.8
		L453.6,214.6L453.6,214.6z"/>
	<path d="M459.6,210.2h0.9v1.5h0.9v0.7h-0.9v3.4c0,0.2,0.1,0.3,0.2,0.3c0.1,0,0.2,0.1,0.3,0.1c0,0,0.1,0,0.2,0c0.1,0,0.1,0,0.2,0
		v0.7c-0.1,0-0.2,0.1-0.3,0.1c-0.1,0-0.3,0-0.3,0c-0.4,0-0.7-0.1-0.9-0.3c-0.2-0.3-0.3-0.5-0.3-0.8v-3.5h-0.7v-0.7h0.7L459.6,210.2
		L459.6,210.2z"/>
	<path d="M466,212.2c0.4,0.4,0.7,1.1,0.7,2c0,0.9-0.2,1.6-0.6,2.1c-0.4,0.5-1,0.8-1.9,0.8c-0.7,0-1.3-0.3-1.7-0.7
		c-0.3-0.4-0.6-1.1-0.6-1.9c0-0.9,0.3-1.6,0.7-2.1c0.4-0.5,1-0.8,1.7-0.8C465,211.5,465.5,211.8,466,212.2z M465.4,215.7
		c0.2-0.4,0.3-1,0.3-1.5c0-0.5-0.1-0.9-0.3-1.2c-0.3-0.5-0.7-0.7-1.2-0.7s-1,0.2-1.1,0.6c-0.3,0.4-0.3,0.9-0.3,1.5
		c0,0.5,0.1,1,0.3,1.4c0.3,0.3,0.6,0.5,1.1,0.5C464.8,216.3,465.3,216.1,465.4,215.7z"/>
	<path d="M467.8,211.7h0.9v0.9c0.1-0.2,0.3-0.3,0.5-0.6c0.3-0.3,0.6-0.3,1-0.3h0.1c0,0,0.1,0,0.2,0v1c-0.1,0-0.1,0-0.2,0
		c-0.1,0-0.1,0-0.2,0c-0.4,0-0.8,0.2-1,0.4c-0.3,0.3-0.3,0.6-0.3,1v3h-0.9V211.7z"/>
	<path d="M473.9,213.7c0.2,0,0.3-0.1,0.4-0.3c0-0.1,0.1-0.2,0.1-0.3c0-0.3-0.1-0.5-0.3-0.6c-0.2-0.2-0.5-0.2-0.9-0.2
		c-0.4,0-0.8,0.1-1,0.3c-0.1,0.2-0.2,0.3-0.2,0.6h-0.8c0-0.6,0.3-1.1,0.6-1.3c0.4-0.3,0.9-0.3,1.4-0.3c0.6,0,1.1,0.1,1.5,0.3
		c0.3,0.3,0.6,0.6,0.6,1.1v3c0,0.1,0,0.2,0.1,0.3c0,0.1,0.1,0.1,0.3,0.1c0,0,0.1,0,0.2,0c0.1,0,0.1,0,0.2,0v0.6
		c-0.2,0-0.3,0.1-0.3,0.1c-0.1,0-0.2,0-0.3,0c-0.3,0-0.5-0.1-0.7-0.3c-0.1-0.1-0.1-0.3-0.2-0.5c-0.2,0.3-0.4,0.4-0.8,0.6
		c-0.3,0.2-0.7,0.3-1.1,0.3c-0.5,0-0.9-0.2-1.2-0.4c-0.3-0.3-0.4-0.7-0.4-1.1c0-0.5,0.2-0.9,0.4-1.1s0.7-0.4,1.2-0.5L473.9,213.7z
		 M472.1,216.1c0.2,0.2,0.4,0.3,0.7,0.3c0.3,0,0.6-0.1,0.9-0.2c0.5-0.3,0.7-0.6,0.7-1.1v-0.7c-0.1,0.1-0.3,0.1-0.4,0.2
		c-0.2,0.1-0.3,0.1-0.5,0.1l-0.5,0.1c-0.3,0-0.5,0.1-0.7,0.2c-0.3,0.2-0.4,0.4-0.4,0.7C471.8,215.8,471.9,216,472.1,216.1z"/>
	<path d="M479.6,211.9c0.2,0.1,0.3,0.3,0.5,0.5v-0.7h0.8v4.7c0,0.7-0.1,1.2-0.3,1.6c-0.3,0.7-1,1-2.1,1c-0.5,0-1-0.1-1.4-0.3
		c-0.3-0.3-0.6-0.6-0.6-1.2h0.9c0,0.3,0.1,0.4,0.3,0.5c0.2,0.2,0.5,0.3,1,0.3c0.7,0,1.1-0.3,1.3-0.7c0.1-0.3,0.2-0.8,0.2-1.5
		c-0.2,0.3-0.3,0.4-0.6,0.6c-0.3,0.1-0.6,0.2-1,0.2c-0.5,0-1-0.2-1.5-0.6c-0.4-0.4-0.6-1-0.6-2c0-0.9,0.2-1.6,0.6-2
		c0.4-0.5,1-0.7,1.6-0.7C478.9,211.6,479.2,211.7,479.6,211.9z M479.7,212.8c-0.3-0.3-0.6-0.4-1-0.4c-0.6,0-1,0.3-1.2,0.9
		c-0.1,0.3-0.2,0.7-0.2,1.2c0,0.6,0.1,1,0.3,1.3c0.3,0.3,0.5,0.4,1,0.4c0.6,0,1-0.3,1.3-0.9c0.2-0.3,0.2-0.7,0.2-1.1
		C480.1,213.6,479.9,213.2,479.7,212.8z"/>
	<path d="M485.4,211.8c0.3,0.2,0.6,0.4,0.8,0.7c0.2,0.3,0.3,0.6,0.3,1c0.1,0.3,0.1,0.6,0.1,1.1h-3.8c0,0.5,0.2,1,0.3,1.3
		c0.3,0.3,0.6,0.5,1,0.5s0.8-0.2,1-0.4c0.2-0.2,0.3-0.3,0.3-0.6h0.9c0,0.2-0.1,0.4-0.3,0.6c-0.1,0.3-0.3,0.4-0.4,0.6
		c-0.3,0.3-0.6,0.4-1,0.5c-0.2,0.1-0.4,0.1-0.7,0.1c-0.6,0-1.2-0.3-1.7-0.7c-0.4-0.4-0.7-1.1-0.7-2s0.3-1.5,0.7-2
		c0.4-0.5,1-0.8,1.7-0.8C484.7,211.5,485.1,211.6,485.4,211.8z M485.8,213.9c0-0.3-0.1-0.7-0.3-0.9c-0.3-0.4-0.6-0.6-1.2-0.6
		c-0.4,0-0.7,0.2-1,0.4c-0.3,0.3-0.4,0.7-0.4,1.1L485.8,213.9L485.8,213.9z"/>
</g>
<g>
	<path d="M528.3,209.8h3.1c0.9,0,1.5,0.3,1.8,0.8c0.2,0.3,0.3,0.6,0.3,1c0,0.4-0.1,0.8-0.3,1.1c-0.2,0.2-0.3,0.3-0.6,0.4
		c0.3,0.2,0.6,0.3,0.8,0.4c0.3,0.3,0.5,0.8,0.5,1.3c0,0.4-0.2,0.9-0.4,1.2c-0.4,0.5-1.1,0.9-2.1,0.9h-3.1V209.8z M531.1,212.7
		c0.4,0,0.7-0.1,1-0.2c0.3-0.2,0.5-0.5,0.5-1s-0.2-0.8-0.6-1c-0.2-0.1-0.5-0.2-1-0.2h-1.7v2.2L531.1,212.7L531.1,212.7z
		 M531.4,216.1c0.6,0,1-0.2,1.3-0.5c0.2-0.2,0.3-0.5,0.3-0.8c0-0.5-0.3-0.9-0.7-1c-0.3-0.1-0.6-0.2-1-0.2h-1.9v2.5L531.4,216.1
		L531.4,216.1z"/>
	<path d="M534.9,209.8h0.9v7.2h-0.9V209.8z"/>
	<path d="M540.9,212.2c0.4,0.4,0.7,1.1,0.7,2c0,0.9-0.2,1.6-0.6,2.1c-0.4,0.5-1,0.8-1.9,0.8c-0.7,0-1.3-0.3-1.7-0.7
		c-0.4-0.5-0.6-1.1-0.6-1.9c0-0.9,0.3-1.6,0.7-2.1c0.4-0.5,1-0.8,1.7-0.8C539.9,211.5,540.4,211.8,540.9,212.2z M540.3,215.7
		c0.2-0.4,0.3-1,0.3-1.5c0-0.5-0.1-0.9-0.3-1.2c-0.3-0.5-0.7-0.7-1.2-0.7s-0.9,0.2-1.1,0.6c-0.3,0.4-0.3,0.9-0.3,1.5
		c0,0.5,0.1,1,0.3,1.4c0.3,0.3,0.6,0.5,1.1,0.5C539.7,216.3,540.1,216.1,540.3,215.7z"/>
	<path d="M546.1,212c0.3,0.3,0.6,0.8,0.7,1.5h-0.9c-0.1-0.3-0.2-0.6-0.3-0.8c-0.2-0.2-0.5-0.3-0.9-0.3c-0.5,0-1,0.3-1.2,0.8
		c-0.2,0.3-0.3,0.8-0.3,1.3c0,0.5,0.1,1,0.3,1.3s0.6,0.5,1,0.5c0.3,0,0.6-0.1,0.9-0.3s0.3-0.5,0.4-0.9h0.9c-0.1,0.7-0.3,1.2-0.7,1.5
		c-0.3,0.3-0.9,0.5-1.5,0.5c-0.7,0-1.2-0.3-1.7-0.8c-0.4-0.5-0.6-1.1-0.6-1.8c0-1,0.3-1.7,0.7-2.2c0.4-0.5,1-0.8,1.7-0.8
		C545.3,211.5,545.7,211.7,546.1,212z"/>
	<path d="M547.7,209.8h0.9v4.2l2.3-2.2h1.1l-2,1.9l2.1,3.3h-1.1l-1.7-2.6l-0.7,0.7v1.9h-0.9V209.8L547.7,209.8z"/>
	<path d="M556.2,214.6c0,0.4,0.1,0.7,0.3,1c0.3,0.4,0.9,0.7,1.7,0.7c0.3,0,0.7-0.1,1-0.2c0.5-0.2,0.9-0.5,0.9-1
		c0-0.3-0.1-0.7-0.3-0.9s-0.6-0.3-1.1-0.4l-1-0.3c-0.6-0.2-1-0.3-1.3-0.4c-0.4-0.3-0.7-0.8-0.7-1.3c0-0.6,0.2-1.1,0.6-1.6
		s1-0.6,1.8-0.6c0.7,0,1.3,0.2,1.8,0.5s0.8,1,0.8,1.7h-0.9c-0.1-0.3-0.2-0.7-0.3-0.9c-0.3-0.3-0.8-0.5-1.5-0.5c-0.5,0-1,0.1-1.2,0.3
		c-0.3,0.3-0.3,0.5-0.3,0.9s0.2,0.6,0.4,0.8c0.2,0.1,0.6,0.3,1.2,0.3l1,0.3c0.4,0.1,0.9,0.3,1,0.4c0.4,0.3,0.7,0.8,0.7,1.5
		c0,0.8-0.3,1.4-0.9,1.7c-0.5,0.3-1.2,0.5-1.9,0.5c-0.9,0-1.6-0.3-2-0.7c-0.5-0.4-0.7-1-0.7-1.8L556.2,214.6L556.2,214.6z"/>
	<path d="M562.2,210.2h0.9v1.5h0.9v0.7h-0.9v3.4c0,0.2,0.1,0.3,0.2,0.3c0.1,0,0.2,0.1,0.3,0.1c0,0,0.1,0,0.2,0c0.1,0,0.1,0,0.2,0
		v0.7c-0.1,0-0.2,0.1-0.3,0.1c-0.1,0-0.3,0-0.3,0c-0.4,0-0.7-0.1-0.9-0.3c-0.2-0.3-0.3-0.5-0.3-0.8v-3.5h-0.7v-0.7h0.7L562.2,210.2
		L562.2,210.2z"/>
	<path d="M568.7,212.2c0.4,0.4,0.7,1.1,0.7,2c0,0.9-0.2,1.6-0.6,2.1c-0.4,0.5-1,0.8-1.9,0.8c-0.7,0-1.3-0.3-1.7-0.7
		c-0.4-0.5-0.6-1.1-0.6-1.9c0-0.9,0.3-1.6,0.7-2.1c0.4-0.5,1-0.8,1.7-0.8C567.6,211.5,568.2,211.8,568.7,212.2z M568.1,215.7
		c0.2-0.4,0.3-1,0.3-1.5c0-0.5-0.1-0.9-0.3-1.2c-0.3-0.5-0.7-0.7-1.2-0.7s-0.9,0.2-1.1,0.6c-0.3,0.4-0.3,0.9-0.3,1.5
		c0,0.5,0.1,1,0.3,1.4c0.3,0.3,0.6,0.5,1.1,0.5C567.5,216.3,567.9,216.1,568.1,215.7z"/>
	<path d="M570.4,211.7h0.9v0.9c0.1-0.2,0.3-0.3,0.5-0.6c0.3-0.3,0.6-0.3,1-0.3c0,0,0,0,0.1,0s0.1,0,0.2,0v1c-0.1,0-0.1,0-0.2,0
		s-0.1,0-0.2,0c-0.4,0-0.8,0.2-1,0.4c-0.3,0.3-0.3,0.6-0.3,1v3h-0.9V211.7z"/>
	<path d="M576.5,213.7c0.2,0,0.3-0.1,0.4-0.3c0-0.1,0.1-0.2,0.1-0.3c0-0.3-0.1-0.5-0.3-0.6c-0.2-0.2-0.5-0.2-0.9-0.2
		c-0.4,0-0.8,0.1-1,0.3c-0.1,0.2-0.2,0.3-0.2,0.6h-0.8c0-0.6,0.3-1.1,0.6-1.3c0.4-0.3,0.9-0.3,1.4-0.3c0.6,0,1.1,0.1,1.5,0.3
		s0.6,0.6,0.6,1.1v3c0,0.1,0,0.2,0.1,0.3c0,0.1,0.1,0.1,0.3,0.1c0,0,0.1,0,0.2,0s0.1,0,0.2,0v0.6c-0.2,0-0.3,0.1-0.3,0.1
		s-0.2,0-0.3,0c-0.3,0-0.5-0.1-0.7-0.3c-0.1-0.1-0.1-0.3-0.2-0.5c-0.2,0.3-0.4,0.4-0.8,0.6c-0.3,0.2-0.7,0.3-1.1,0.3
		c-0.5,0-0.9-0.2-1.2-0.4c-0.3-0.3-0.4-0.7-0.4-1.1c0-0.5,0.2-0.9,0.4-1.1c0.3-0.3,0.7-0.4,1.2-0.5L576.5,213.7z M574.7,216.1
		c0.2,0.2,0.4,0.3,0.7,0.3c0.3,0,0.6-0.1,0.9-0.2c0.5-0.3,0.7-0.6,0.7-1.1v-0.7c-0.1,0.1-0.3,0.1-0.4,0.2s-0.3,0.1-0.5,0.1l-0.5,0.1
		c-0.3,0-0.5,0.1-0.7,0.2c-0.3,0.2-0.4,0.4-0.4,0.7C574.5,215.8,574.5,216,574.7,216.1z"/>
	<path d="M582.2,211.9c0.2,0.1,0.3,0.3,0.5,0.5v-0.7h0.8v4.7c0,0.7-0.1,1.2-0.3,1.6c-0.3,0.7-1,1-2.1,1c-0.5,0-1-0.1-1.4-0.3
		c-0.3-0.3-0.6-0.6-0.6-1.2h0.9c0,0.3,0.1,0.4,0.3,0.5c0.2,0.2,0.5,0.3,1,0.3c0.7,0,1.1-0.3,1.3-0.7c0.1-0.3,0.2-0.8,0.2-1.5
		c-0.2,0.3-0.3,0.4-0.6,0.6c-0.3,0.1-0.6,0.2-1,0.2c-0.5,0-1-0.2-1.5-0.6c-0.4-0.4-0.6-1-0.6-2c0-0.9,0.2-1.6,0.6-2
		c0.4-0.5,1-0.7,1.6-0.7C581.5,211.6,581.9,211.7,582.2,211.9z M582.3,212.8c-0.3-0.3-0.6-0.4-1-0.4c-0.6,0-1,0.3-1.2,0.9
		c-0.1,0.3-0.2,0.7-0.2,1.2c0,0.6,0.1,1,0.3,1.3c0.3,0.3,0.5,0.4,1,0.4c0.6,0,1-0.3,1.3-0.9c0.2-0.3,0.2-0.7,0.2-1.1
		C582.7,213.6,582.6,213.2,582.3,212.8z"/>
	<path d="M588.1,211.8c0.3,0.2,0.6,0.4,0.8,0.7c0.2,0.3,0.3,0.6,0.3,1c0.1,0.3,0.1,0.6,0.1,1.1h-3.8c0,0.5,0.2,1,0.3,1.3
		c0.3,0.3,0.6,0.5,1,0.5c0.4,0,0.8-0.2,1-0.4c0.2-0.2,0.3-0.3,0.3-0.6h0.9c0,0.2-0.1,0.4-0.3,0.6c-0.1,0.3-0.3,0.4-0.4,0.6
		c-0.3,0.3-0.6,0.4-1,0.5c-0.2,0.1-0.4,0.1-0.7,0.1c-0.6,0-1.2-0.3-1.7-0.7c-0.4-0.4-0.7-1.1-0.7-2s0.3-1.5,0.7-2
		c0.4-0.5,1-0.8,1.7-0.8C587.4,211.5,587.7,211.6,588.1,211.8z M588.4,213.9c0-0.3-0.1-0.7-0.3-0.9c-0.3-0.4-0.6-0.6-1.2-0.6
		c-0.4,0-0.7,0.2-1,0.4c-0.3,0.3-0.4,0.7-0.4,1.1L588.4,213.9L588.4,213.9z"/>
</g>
<linearGradient id="SVGID_1_" gradientUnits="userSpaceOnUse" x1="532.0132" y1="101.0359" x2="551.8416" y2="101.0359" gradientTransform="matrix(1 0 0 -1 0 247)">
	<stop  offset="0" style="stop-color:#CCE0F4"/>
	<stop  offset="0" style="stop-color:#CDD8EB"/>
	<stop  offset="0" style="stop-color:#D0C4D1"/>
	<stop  offset="0" style="stop-color:#D5A3A8"/>
	<stop  offset="0" style="stop-color:#DB756F"/>
	<stop  offset="0" style="stop-color:#E05243"/>
	<stop  offset="0.1406" style="stop-color:#E05243"/>
	<stop  offset="0.9947" style="stop-color:#E05243"/>
</linearGradient>
<path class="st7" d="M583.5,175.6c-17.2,0-34.4,0-51.6,0c0-0.2,0-0.3,0-0.5c0-18.6,0-37.3,0-55.9c0-0.8,0-1.7,0-2.4
	c0-0.3,0.1-0.5,0.4-0.5c0.1,0,0.2,0,0.3,0c16.6,0,33.3,0,49.8,0c0.8,0,0.8,0,0.8,0.8c0,19.3,0,38.6,0.1,57.9
	C583.5,175.2,583.5,175.4,583.5,175.6z"/>
<g>
	
		<linearGradient id="SVGID_2_" gradientUnits="userSpaceOnUse" x1="532.903" y1="139.0936" x2="582.3954" y2="139.0936" gradientTransform="matrix(1 0 0 -1 0 247)">
		<stop  offset="0" style="stop-color:#CCE0F4"/>
		<stop  offset="0" style="stop-color:#CDD8EB"/>
		<stop  offset="0" style="stop-color:#D0C4D1"/>
		<stop  offset="0" style="stop-color:#D5A3A8"/>
		<stop  offset="0" style="stop-color:#DB756F"/>
		<stop  offset="0" style="stop-color:#E05243"/>
		<stop  offset="0.1406" style="stop-color:#E05243"/>
		<stop  offset="0.9947" style="stop-color:#E05243"/>
	</linearGradient>
	<path class="st8" d="M582.3,112.8c-0.3,0-0.4,0-0.6,0c-16.1,0-48.8,0-48.8,0v-0.6v-2.1c0,0,0,0,0-0.1c0.2-0.2,1.3-1.4,1.3-1.4
		l5.8-5.3c0,0,0.4-0.3,0.7-0.3c11.4,0,22.9,0,34.3,0c0.2,0,0.5,0.1,0.7,0.3c2.2,2.2,4.3,4.4,6.5,6.5c0.1,0.1,0.3,0.3,0.3,0.3
		C582.3,111,582.3,111.8,582.3,112.8z"/>
	<g id="darker_bars">
		<rect x="532.9" y="110.1" class="st3" width="49.4" height="2.6"/>
		<rect x="532" y="173" class="st3" width="51.6" height="2.6"/>
	</g>
</g>
<g>
	<path id="path12" class="st9" d="M455.3,184.6v-0.9c0-0.2,0.1-0.3,0.3-0.3h3.9c0.1,0,0.3,0.1,0.3,0.3v0.8c0,0.1-0.1,0.3-0.3,0.5
		l-2,3c0.8,0,1.6,0.1,2.3,0.5c0.2,0.1,0.2,0.2,0.2,0.3v1c0,0.1-0.2,0.3-0.3,0.2c-1.2-0.6-2.8-0.7-4.2,0c-0.2,0.1-0.3-0.1-0.3-0.2
		V189c0-0.2,0-0.3,0.2-0.6l2.4-3.4h-2.1C455.5,184.8,455.3,184.7,455.3,184.6"/>
	<path id="path14" class="st9" d="M440.9,190.1h-1.2c-0.1,0-0.2-0.1-0.2-0.2v-6.2c0-0.1,0.1-0.3,0.3-0.3h1.1c0.1,0,0.2,0.1,0.3,0.2
		v0.8l0,0c0.3-0.8,0.9-1.1,1.6-1.1c0.8,0,1.2,0.3,1.6,1.1c0.3-0.8,1-1.1,1.7-1.1c0.5,0,1,0.2,1.4,0.7c0.3,0.5,0.3,1.3,0.3,1.9v3.9
		c0,0.1-0.1,0.3-0.3,0.3h-1.2c-0.1,0-0.2-0.1-0.2-0.3v-3.3c0-0.3,0-0.9,0-1.1c-0.1-0.4-0.3-0.5-0.7-0.5c-0.3,0-0.6,0.2-0.7,0.5
		c-0.1,0.3-0.1,0.9-0.1,1.2v3.3c0,0.1-0.1,0.3-0.3,0.3H443c-0.1,0-0.2-0.1-0.2-0.3v-3.3c0-0.7,0.1-1.7-0.7-1.7c-0.9,0-0.9,1-0.9,1.7
		v3.3C441.2,190,441.1,190.1,440.9,190.1"/>
	<path id="path16" class="st9" d="M463.2,183.4c1.7,0,2.8,1.6,2.8,3.5s-1,3.4-2.8,3.4c-1.7,0-2.7-1.6-2.7-3.4
		C460.5,184.9,461.4,183.4,463.2,183.4 M463.2,184.6c-0.9,0-1,1.2-1,1.9c0,0.8,0,2.4,1,2.4s1-1.3,1-2.1c0-0.5,0-1.1-0.2-1.7
		C463.8,184.8,463.5,184.6,463.2,184.6"/>
	<path id="path18" class="st9" d="M468.2,190.1H467c-0.1,0-0.2-0.1-0.2-0.3v-6.2c0-0.1,0.1-0.2,0.3-0.2h1.1c0.1,0,0.2,0.1,0.2,0.2v1
		l0,0c0.3-0.9,0.8-1.2,1.7-1.2c0.5,0,1,0.2,1.4,0.7c0.3,0.5,0.3,1.3,0.3,1.9v3.9c0,0.1-0.1,0.2-0.3,0.2h-1.2c-0.1,0-0.2-0.1-0.2-0.2
		v-3.3c0-0.7,0.1-1.7-0.8-1.7c-0.3,0-0.5,0.2-0.7,0.5c-0.2,0.3-0.2,0.8-0.2,1.1v3.3C468.5,190,468.3,190.1,468.2,190.1"/>
	<path id="path28" class="st9" d="M452.2,187.2c0,0.4,0,0.9-0.3,1.3c-0.2,0.3-0.5,0.5-0.9,0.5c-0.4,0-0.7-0.3-0.7-0.9
		c0-1,1-1.2,1.8-1.2L452.2,187.2 M453.4,190.1c-0.1,0.1-0.2,0.1-0.3,0c-0.4-0.3-0.4-0.5-0.7-0.8c-0.7,0.7-1.1,0.9-2,0.9
		c-1,0-1.8-0.6-1.8-1.8c0-1,0.5-1.7,1.3-2c0.6-0.3,1.6-0.3,2.3-0.4v-0.2c0-0.3,0-0.6-0.2-0.9s-0.4-0.3-0.7-0.3c-0.4,0-0.9,0.3-1,0.7
		c0,0.1-0.1,0.2-0.2,0.3l-1.1-0.1c-0.1,0-0.2-0.1-0.2-0.3c0.3-1.4,1.6-1.8,2.7-1.8c0.6,0,1.3,0.2,1.8,0.6c0.6,0.5,0.5,1.3,0.5,2.1
		v1.8c0,0.5,0.3,0.8,0.4,1.1c0.1,0.1,0.1,0.3,0,0.3C454.1,189.5,453.6,189.9,453.4,190.1L453.4,190.1"/>
	<path id="path30" class="st9" d="M436.4,187.2c0,0.4,0,0.9-0.3,1.3c-0.2,0.3-0.5,0.5-0.9,0.5c-0.4,0-0.7-0.3-0.7-0.9
		c0-1,1-1.2,1.7-1.2L436.4,187.2 M437.6,190.1c-0.1,0.1-0.2,0.1-0.3,0c-0.4-0.3-0.4-0.5-0.7-0.8c-0.7,0.7-1.1,0.9-2,0.9
		c-1,0-1.8-0.6-1.8-1.8c0-1,0.5-1.7,1.3-2c0.6-0.3,1.6-0.3,2.3-0.4v-0.2c0-0.3,0-0.6-0.2-0.9s-0.4-0.3-0.7-0.3c-0.4,0-0.9,0.3-1,0.7
		c0,0.1-0.1,0.2-0.2,0.3l-1.1-0.1c-0.1,0-0.2-0.1-0.2-0.3c0.3-1.4,1.6-1.8,2.7-1.8c0.6,0,1.3,0.2,1.8,0.6c0.6,0.5,0.5,1.3,0.5,2.1
		v1.8c0,0.5,0.3,0.8,0.4,1.1c0.1,0.1,0.1,0.3,0,0.3C438.3,189.5,437.8,189.9,437.6,190.1L437.6,190.1"/>
</g>
<g>
	<path id="path12_1_" class="st9" d="M560.9,184.6v-0.9c0-0.2,0.1-0.3,0.3-0.3h3.9c0.1,0,0.3,0.1,0.3,0.3v0.8c0,0.1-0.1,0.3-0.3,0.5
		l-2,3c0.8,0,1.6,0.1,2.3,0.5c0.2,0.1,0.2,0.2,0.2,0.3v1c0,0.1-0.2,0.3-0.3,0.2c-1.2-0.6-2.8-0.7-4.2,0c-0.2,0.1-0.3-0.1-0.3-0.2
		V189c0-0.2,0-0.3,0.2-0.6l2.4-3.4h-2.1C561.1,184.8,560.9,184.7,560.9,184.6"/>
	<path id="path14_1_" class="st9" d="M546.5,190.1h-1.2c-0.1,0-0.2-0.1-0.2-0.2v-6.2c0-0.1,0.1-0.3,0.3-0.3h1.1
		c0.1,0,0.2,0.1,0.3,0.2v0.8l0,0c0.3-0.8,0.9-1.1,1.6-1.1c0.8,0,1.2,0.3,1.6,1.1c0.3-0.8,1-1.1,1.7-1.1c0.5,0,1,0.2,1.4,0.7
		c0.3,0.5,0.3,1.3,0.3,1.9v3.9c0,0.1-0.1,0.3-0.3,0.3h-1.2c-0.1,0-0.2-0.1-0.2-0.3v-3.3c0-0.3,0-0.9,0-1.1c-0.1-0.4-0.3-0.5-0.7-0.5
		c-0.3,0-0.6,0.2-0.7,0.5s-0.1,0.9-0.1,1.2v3.3c0,0.1-0.1,0.3-0.3,0.3h-1.2c-0.1,0-0.2-0.1-0.2-0.3v-3.3c0-0.7,0.1-1.7-0.7-1.7
		c-0.9,0-0.9,1-0.9,1.7v3.3C546.8,190,546.7,190.1,546.5,190.1"/>
	<path id="path16_1_" class="st9" d="M568.8,183.4c1.7,0,2.8,1.6,2.8,3.5s-1,3.4-2.8,3.4c-1.7,0-2.7-1.6-2.7-3.4
		C566.1,184.9,567,183.4,568.8,183.4 M568.8,184.6c-0.9,0-1,1.2-1,1.9c0,0.8,0,2.4,1,2.4c1,0,1-1.3,1-2.1c0-0.5,0-1.1-0.2-1.7
		C569.4,184.8,569.1,184.6,568.8,184.6"/>
	<path id="path18_1_" class="st9" d="M573.8,190.1h-1.2c-0.1,0-0.2-0.1-0.2-0.3v-6.2c0-0.1,0.1-0.2,0.3-0.2h1.1
		c0.1,0,0.2,0.1,0.2,0.2v1l0,0c0.3-0.9,0.8-1.2,1.7-1.2c0.5,0,1,0.2,1.4,0.7c0.3,0.5,0.3,1.3,0.3,1.9v3.9c0,0.1-0.1,0.2-0.3,0.2
		h-1.2c-0.1,0-0.2-0.1-0.2-0.2v-3.3c0-0.7,0.1-1.7-0.8-1.7c-0.3,0-0.5,0.2-0.7,0.5s-0.2,0.8-0.2,1.1v3.3
		C574.1,190,573.9,190.1,573.8,190.1"/>
	<path id="path28_1_" class="st9" d="M557.8,187.2c0,0.4,0,0.9-0.3,1.3c-0.2,0.3-0.5,0.5-0.9,0.5c-0.4,0-0.7-0.3-0.7-0.9
		c0-1,1-1.2,1.8-1.2L557.8,187.2 M559,190.1c-0.1,0.1-0.2,0.1-0.3,0c-0.4-0.3-0.4-0.5-0.7-0.8c-0.7,0.7-1.1,0.9-2,0.9
		c-1,0-1.8-0.6-1.8-1.8c0-1,0.5-1.7,1.3-2c0.6-0.3,1.6-0.3,2.3-0.4v-0.2c0-0.3,0-0.6-0.2-0.9c-0.2-0.3-0.4-0.3-0.7-0.3
		c-0.4,0-0.9,0.3-1,0.7c0,0.1-0.1,0.2-0.2,0.3l-1.1-0.1c-0.1,0-0.2-0.1-0.2-0.3c0.3-1.4,1.6-1.8,2.7-1.8c0.6,0,1.3,0.2,1.8,0.6
		c0.6,0.5,0.5,1.3,0.5,2.1v1.8c0,0.5,0.3,0.8,0.4,1.1c0.1,0.1,0.1,0.3,0,0.3C559.7,189.5,559.3,189.9,559,190.1L559,190.1"/>
	<path id="path30_1_" class="st9" d="M542.1,187.2c0,0.4,0,0.9-0.3,1.3c-0.2,0.3-0.5,0.5-0.9,0.5c-0.4,0-0.7-0.3-0.7-0.9
		c0-1,1-1.2,1.7-1.2L542.1,187.2 M543.2,190.1c-0.1,0.1-0.2,0.1-0.3,0c-0.4-0.3-0.4-0.5-0.7-0.8c-0.7,0.7-1.1,0.9-2,0.9
		c-1,0-1.8-0.6-1.8-1.8c0-1,0.5-1.7,1.3-2c0.6-0.3,1.6-0.3,2.3-0.4v-0.2c0-0.3,0-0.6-0.2-0.9c-0.2-0.3-0.4-0.3-0.7-0.3
		c-0.4,0-0.9,0.3-1,0.7c0,0.1-0.1,0.2-0.2,0.3l-1.1-0.1c-0.1,0-0.2-0.1-0.2-0.3c0.3-1.4,1.6-1.8,2.7-1.8c0.6,0,1.3,0.2,1.8,0.6
		c0.6,0.5,0.5,1.3,0.5,2.1v1.8c0,0.5,0.3,0.8,0.4,1.1c0.1,0.1,0.1,0.3,0,0.3C543.9,189.5,543.5,189.9,543.2,190.1L543.2,190.1"/>
</g>
</svg>
