<?xml version="1.0" encoding="utf-8"?>
<!-- Generator: Adobe Illustrator 24.1.0, SVG Export Plug-In . SVG Version: 6.00 Build 0)  -->
<svg version="1.1" id="Layer_1" xmlns="http://www.w3.org/2000/svg" xmlns:xlink="http://www.w3.org/1999/xlink" x="0px" y="0px"
	 viewBox="0 0 700 150" style="enable-background:new 0 0 700 150;" xml:space="preserve">
<style type="text/css">
	.st0{display:none;}
	.st1{fill:none;stroke:#000000;stroke-width:2.5;stroke-miterlimit:10;}
	.st2{fill:#FFFFFF;stroke:#000000;stroke-width:2.5;stroke-miterlimit:10;}
</style>
<g id="Layer_1_1_" class="st0">
	
		<image style="display:inline;overflow:visible;enable-background:new    ;" width="1805" height="368" xlink:href="../../../Downloads/thoughtspot.github.io-6.0/images/cloud-vm-storage.png"  transform="matrix(1.0019 0 0 1.0019 -538.2466 -106.1067)">
	</image>
</g>
<g id="Layer_2_1_">
</g>
<g id="Layer_3">
	<g>
		<line class="st1" x1="83.5" y1="85.9" x2="83.5" y2="63.6"/>
		<line class="st1" x1="261.4" y1="85.9" x2="261.4" y2="63.6"/>
		<line class="st1" x1="441.5" y1="86.6" x2="441.5" y2="64.2"/>
		<line class="st1" x1="611.5" y1="88.3" x2="611.5" y2="66"/>
	</g>
	<line class="st1" x1="153.2" y1="37.8" x2="549.8" y2="37.8"/>
	<rect x="6.8" y="5.8" class="st2" width="154.5" height="64.4"/>
	<rect x="184" y="5.8" class="st2" width="154.5" height="64.4"/>
	<rect x="361.7" y="5.8" class="st2" width="154.5" height="64.4"/>
	<rect x="538.1" y="5.8" class="st2" width="154.5" height="64.4"/>
	<rect x="6.8" y="79.4" class="st2" width="685.9" height="64.4"/>
	<g>
		<path d="M53.9,42.2l-3-9.2h1.3l1.4,4.6c0.4,1.2,0.7,2.4,1,3.5l0,0c0.3-1.1,0.6-2.2,1.1-3.4l1.6-4.6h1.3l-3.3,9.2L53.9,42.2
			L53.9,42.2z"/>
		<path d="M67.3,38.1c-0.1-1.3-0.2-2.8-0.1-4l0,0c-0.3,1.1-0.7,2.2-1.2,3.5l-1.6,4.5h-0.9L62,37.7c-0.4-1.3-0.8-2.5-1.1-3.6l0,0
			c0,1.2-0.1,2.7-0.2,4.1l-0.2,4h-1.1L60,33h1.5l1.6,4.5c0.4,1.1,0.7,2.2,0.9,3.1l0,0c0.2-0.9,0.6-1.9,1-3.1l1.6-4.5h1.5l0.6,9.2
			h-1.2L67.3,38.1z"/>
		<path d="M74.6,33v9.2h-1.2V33H74.6z"/>
		<path d="M76.8,37.4c0-0.7,0-1.2-0.1-1.8h1.1l0.1,1.1l0,0c0.3-0.6,1.1-1.2,2.2-1.2c0.9,0,2.3,0.5,2.3,2.8v4h-1.2v-3.8
			c0-1.1-0.4-2-1.5-2c-0.8,0-1.4,0.6-1.6,1.2c0,0.1-0.1,0.3-0.1,0.5v4h-1.2V37.4z"/>
		<path d="M84.3,41c0.4,0.2,1,0.5,1.6,0.5c0.9,0,1.3-0.4,1.3-1s-0.3-0.9-1.2-1.2c-1.2-0.4-1.8-1.1-1.8-1.9c0-1.1,0.9-1.9,2.3-1.9
			c0.7,0,1.3,0.2,1.6,0.4l-0.3,0.9c-0.3-0.2-0.7-0.4-1.4-0.4c-0.7,0-1.1,0.4-1.1,0.9s0.4,0.8,1.3,1.1c1.2,0.4,1.7,1,1.7,2
			c0,1.2-0.9,2-2.5,2c-0.7,0-1.4-0.2-1.9-0.5L84.3,41z"/>
		<path d="M91.3,33.7v1.9H93v0.9h-1.7v3.6c0,0.8,0.2,1.3,0.9,1.3c0.3,0,0.5,0,0.7-0.1l0.1,0.9c-0.2,0.1-0.6,0.2-1.1,0.2
			c-0.6,0-1-0.2-1.3-0.5c-0.3-0.4-0.5-0.9-0.5-1.7v-3.6h-1v-0.9h1V34L91.3,33.7z"/>
		<path d="M98.1,42.2L98,41.4l0,0c-0.4,0.5-1.1,1-2,1c-1.3,0-2-0.9-2-1.9c0-1.6,1.4-2.5,4-2.5v-0.1c0-0.5-0.2-1.5-1.5-1.5
			c-0.6,0-1.3,0.2-1.7,0.5L94.4,36c0.5-0.4,1.3-0.6,2.2-0.6c2,0,2.5,1.4,2.5,2.7v2.5c0,0.6,0,1.1,0.1,1.6H98.1z M97.9,38.8
			c-1.3,0-2.8,0.2-2.8,1.5c0,0.8,0.5,1.2,1.1,1.2c0.9,0,1.4-0.5,1.6-1.1c0-0.1,0.1-0.3,0.1-0.4C97.9,40,97.9,38.8,97.9,38.8z"/>
		<path d="M101,37.4c0-0.7,0-1.2-0.1-1.8h1.1l0.1,1.1l0,0c0.3-0.6,1.1-1.2,2.2-1.2c0.9,0,2.3,0.5,2.3,2.8v4h-1.2v-3.8
			c0-1.1-0.4-2-1.5-2c-0.8,0-1.4,0.6-1.6,1.2c-0.1,0.2-0.1,0.4-0.1,0.6v4H101V37.4z"/>
		<path d="M113.4,42c-0.3,0.2-1,0.4-1.9,0.4c-2,0-3.3-1.4-3.3-3.4s1.4-3.5,3.6-3.5c0.7,0,1.3,0.2,1.7,0.3l-0.3,0.9
			c-0.3-0.2-0.7-0.3-1.4-0.3c-1.5,0-2.3,1.1-2.3,2.5c0,1.5,1,2.5,2.3,2.5c0.7,0,1.1-0.2,1.5-0.3L113.4,42z"/>
		<path d="M115.4,39.1c0,1.6,1.1,2.3,2.3,2.3c0.9,0,1.4-0.2,1.8-0.3l0.2,0.9c-0.4,0.2-1.2,0.4-2.2,0.4c-2,0-3.3-1.3-3.3-3.3
			s1.2-3.6,3.1-3.6c2.2,0,2.7,1.9,2.7,3.1c0,0.2,0,0.4,0,0.6h-4.6V39.1z M118.9,38.2c0-0.8-0.3-2-1.7-2c-1.2,0-1.8,1.1-1.9,2H118.9z
			"/>
	</g>
	<g>
		<path d="M230,42.2l-3-9.2h1.3l1.4,4.6c0.4,1.2,0.7,2.4,1,3.5l0,0c0.3-1.1,0.6-2.2,1.1-3.4l1.6-4.6h1.3l-3.3,9.2L230,42.2L230,42.2
			z"/>
		<path d="M243.5,38.1c-0.1-1.3-0.2-2.8-0.1-4l0,0c-0.3,1.1-0.7,2.2-1.2,3.5l-1.6,4.5h-0.9l-1.5-4.4c-0.4-1.3-0.8-2.5-1.1-3.6l0,0
			c0,1.2-0.1,2.7-0.2,4.1l-0.2,4h-1.1l0.6-9.2h1.5l1.6,4.5c0.4,1.1,0.7,2.2,0.9,3.1l0,0c0.2-0.9,0.6-1.9,1-3.1l1.6-4.5h1.5l0.6,9.2
			h-1.2L243.5,38.1z"/>
		<path d="M250.8,33v9.2h-1.2V33H250.8z"/>
		<path d="M253,37.4c0-0.7,0-1.2-0.1-1.8h1.1l0.1,1.1l0,0c0.3-0.6,1.1-1.2,2.2-1.2c0.9,0,2.3,0.5,2.3,2.8v4h-1.2v-3.8
			c0-1.1-0.4-2-1.5-2c-0.8,0-1.4,0.6-1.6,1.2c-0.1,0.2-0.1,0.4-0.1,0.6v4H253V37.4z"/>
		<path d="M260.4,41c0.4,0.2,1,0.5,1.6,0.5c0.9,0,1.3-0.4,1.3-1s-0.3-0.9-1.2-1.2c-1.2-0.4-1.8-1.1-1.8-1.9c0-1.1,0.9-1.9,2.3-1.9
			c0.7,0,1.3,0.2,1.6,0.4l-0.3,0.9c-0.3-0.2-0.7-0.4-1.4-0.4c-0.7,0-1.1,0.4-1.1,0.9s0.4,0.8,1.3,1.1c1.2,0.4,1.7,1,1.7,2
			c0,1.2-0.9,2-2.5,2c-0.7,0-1.4-0.2-1.9-0.5L260.4,41z"/>
		<path d="M267.5,33.7v1.9h1.7v0.9h-1.7v3.6c0,0.8,0.2,1.3,0.9,1.3c0.3,0,0.5,0,0.7-0.1l0.1,0.9c-0.2,0.1-0.6,0.2-1.1,0.2
			c-0.6,0-1-0.2-1.3-0.5c-0.3-0.4-0.5-0.9-0.5-1.7v-3.6h-1v-0.9h1V34L267.5,33.7z"/>
		<path d="M274.3,42.2l-0.1-0.8l0,0c-0.4,0.5-1.1,1-2,1c-1.3,0-2-0.9-2-1.9c0-1.6,1.4-2.5,4-2.5v-0.1c0-0.5-0.2-1.5-1.5-1.5
			c-0.6,0-1.3,0.2-1.7,0.5l-0.3-0.8c0.5-0.4,1.3-0.6,2.2-0.6c2,0,2.5,1.4,2.5,2.7v2.5c0,0.6,0,1.1,0.1,1.6h-1.2V42.2z M274.1,38.8
			c-1.3,0-2.8,0.2-2.8,1.5c0,0.8,0.5,1.2,1.1,1.2c0.9,0,1.4-0.5,1.6-1.1c0-0.1,0.1-0.3,0.1-0.4L274.1,38.8L274.1,38.8z"/>
		<path d="M277.2,37.4c0-0.7,0-1.2-0.1-1.8h1.1l0.1,1.1l0,0c0.3-0.6,1.1-1.2,2.2-1.2c0.9,0,2.3,0.5,2.3,2.8v4h-1.2v-3.8
			c0-1.1-0.4-2-1.5-2c-0.8,0-1.4,0.6-1.6,1.2c-0.1,0.2-0.1,0.4-0.1,0.6v4h-1.2L277.2,37.4L277.2,37.4z"/>
		<path d="M289.5,42c-0.3,0.2-1,0.4-1.9,0.4c-2,0-3.3-1.4-3.3-3.4s1.4-3.5,3.6-3.5c0.7,0,1.3,0.2,1.7,0.3l-0.3,0.9
			c-0.3-0.2-0.7-0.3-1.4-0.3c-1.5,0-2.3,1.1-2.3,2.5c0,1.5,1,2.5,2.3,2.5c0.7,0,1.1-0.2,1.5-0.3L289.5,42z"/>
		<path d="M291.5,39.1c0,1.6,1.1,2.3,2.3,2.3c0.9,0,1.4-0.2,1.8-0.3l0.2,0.9c-0.4,0.2-1.2,0.4-2.2,0.4c-2,0-3.3-1.3-3.3-3.3
			s1.2-3.6,3.1-3.6c2.2,0,2.7,1.9,2.7,3.1c0,0.2,0,0.4,0,0.6h-4.6V39.1z M295.1,38.2c0-0.8-0.3-2-1.7-2c-1.2,0-1.8,1.1-1.9,2H295.1z
			"/>
	</g>
	<g>
		<path d="M410.8,42.2l-3-9.2h1.3l1.4,4.6c0.4,1.2,0.7,2.4,1,3.5l0,0c0.3-1.1,0.6-2.2,1.1-3.4l1.6-4.6h1.3l-3.3,9.2L410.8,42.2
			L410.8,42.2z"/>
		<path d="M424.2,38.1c-0.1-1.3-0.2-2.8-0.1-4l0,0c-0.3,1.1-0.7,2.2-1.2,3.5l-1.6,4.5h-0.9l-1.5-4.4c-0.4-1.3-0.8-2.5-1.1-3.6l0,0
			c0,1.2-0.1,2.7-0.2,4.1l-0.2,4h-1.1l0.6-9.2h1.5l1.6,4.5c0.4,1.1,0.7,2.2,0.9,3.1l0,0c0.2-0.9,0.6-1.9,1-3.1l1.6-4.5h1.5l0.6,9.2
			h-1.2L424.2,38.1z"/>
		<path d="M431.5,33v9.2h-1.2V33H431.5z"/>
		<path d="M433.7,37.4c0-0.7,0-1.2-0.1-1.8h1.1l0.1,1.1l0,0c0.3-0.6,1.1-1.2,2.2-1.2c0.9,0,2.3,0.5,2.3,2.8v4h-1.2v-3.8
			c0-1.1-0.4-2-1.5-2c-0.8,0-1.4,0.6-1.6,1.2c-0.1,0.2-0.1,0.4-0.1,0.6v4h-1.2L433.7,37.4L433.7,37.4z"/>
		<path d="M441.2,41c0.4,0.2,1,0.5,1.6,0.5c0.9,0,1.3-0.4,1.3-1s-0.3-0.9-1.2-1.2c-1.2-0.4-1.8-1.1-1.8-1.9c0-1.1,0.9-1.9,2.3-1.9
			c0.7,0,1.3,0.2,1.6,0.4l-0.3,0.9c-0.3-0.2-0.7-0.4-1.4-0.4c-0.7,0-1.1,0.4-1.1,0.9s0.4,0.8,1.3,1.1c1.2,0.4,1.7,1,1.7,2
			c0,1.2-0.9,2-2.5,2c-0.7,0-1.4-0.2-1.9-0.5L441.2,41z"/>
		<path d="M448.2,33.7v1.9h1.7v0.9h-1.7v3.6c0,0.8,0.2,1.3,0.9,1.3c0.3,0,0.5,0,0.7-0.1l0.1,0.9c-0.2,0.1-0.6,0.2-1.1,0.2
			c-0.6,0-1-0.2-1.3-0.5c-0.3-0.4-0.5-0.9-0.5-1.7v-3.6h-1v-0.9h1V34L448.2,33.7z"/>
		<path d="M455,42.2l-0.1-0.8l0,0c-0.4,0.5-1.1,1-2,1c-1.3,0-2-0.9-2-1.9c0-1.6,1.4-2.5,4-2.5v-0.1c0-0.5-0.2-1.5-1.5-1.5
			c-0.6,0-1.3,0.2-1.7,0.5l-0.3-0.8c0.5-0.4,1.3-0.6,2.2-0.6c2,0,2.5,1.4,2.5,2.7v2.5c0,0.6,0,1.1,0.1,1.6H455V42.2z M454.8,38.8
			c-1.3,0-2.8,0.2-2.8,1.5c0,0.8,0.5,1.2,1.1,1.2c0.9,0,1.4-0.5,1.6-1.1c0-0.1,0.1-0.3,0.1-0.4L454.8,38.8L454.8,38.8z"/>
		<path d="M457.9,37.4c0-0.7,0-1.2-0.1-1.8h1.1l0.1,1.1l0,0c0.3-0.6,1.1-1.2,2.2-1.2c0.9,0,2.3,0.5,2.3,2.8v4h-1.2v-3.8
			c0-1.1-0.4-2-1.5-2c-0.8,0-1.4,0.6-1.6,1.2c-0.1,0.2-0.1,0.4-0.1,0.6v4h-1.2L457.9,37.4L457.9,37.4z"/>
		<path d="M470.3,42c-0.3,0.2-1,0.4-1.9,0.4c-2,0-3.3-1.4-3.3-3.4s1.4-3.5,3.6-3.5c0.7,0,1.3,0.2,1.7,0.3l-0.3,0.9
			c-0.3-0.2-0.7-0.3-1.4-0.3c-1.5,0-2.3,1.1-2.3,2.5c0,1.5,1,2.5,2.3,2.5c0.7,0,1.1-0.2,1.5-0.3L470.3,42z"/>
		<path d="M472.3,39.1c0,1.6,1.1,2.3,2.3,2.3c0.9,0,1.4-0.2,1.8-0.3l0.2,0.9c-0.4,0.2-1.2,0.4-2.2,0.4c-2,0-3.3-1.3-3.3-3.3
			s1.2-3.6,3.1-3.6c2.2,0,2.7,1.9,2.7,3.1c0,0.2,0,0.4,0,0.6h-4.6V39.1z M475.8,38.2c0-0.8-0.3-2-1.7-2c-1.2,0-1.8,1.1-1.9,2H475.8z
			"/>
	</g>
	<g>
		<path d="M581.8,42.2l-3-9.2h1.3l1.4,4.6c0.4,1.2,0.7,2.4,1,3.5l0,0c0.3-1.1,0.6-2.2,1.1-3.4l1.6-4.6h1.3l-3.3,9.2L581.8,42.2
			L581.8,42.2z"/>
		<path d="M595.2,38.1c-0.1-1.3-0.2-2.8-0.1-4l0,0c-0.3,1.1-0.7,2.2-1.2,3.5l-1.6,4.5h-0.9l-1.5-4.4c-0.4-1.3-0.8-2.5-1.1-3.6l0,0
			c0,1.2-0.1,2.7-0.2,4.1l-0.2,4h-1.1l0.6-9.2h1.5l1.6,4.5c0.4,1.1,0.7,2.2,0.9,3.1l0,0c0.2-0.9,0.6-1.9,1-3.1l1.6-4.5h1.5l0.6,9.2
			h-1.2L595.2,38.1z"/>
		<path d="M602.6,33v9.2h-1.2V33H602.6z"/>
		<path d="M604.8,37.4c0-0.7,0-1.2-0.1-1.8h1.1l0.1,1.1l0,0c0.3-0.6,1.1-1.2,2.2-1.2c0.9,0,2.3,0.5,2.3,2.8v4h-1.2v-3.8
			c0-1.1-0.4-2-1.5-2c-0.8,0-1.4,0.6-1.6,1.2c-0.1,0.2-0.1,0.4-0.1,0.6v4h-1.2V37.4z"/>
		<path d="M612.2,41c0.4,0.2,1,0.5,1.6,0.5c0.9,0,1.3-0.4,1.3-1s-0.3-0.9-1.2-1.2c-1.2-0.4-1.8-1.1-1.8-1.9c0-1.1,0.9-1.9,2.3-1.9
			c0.7,0,1.3,0.2,1.6,0.4l-0.3,0.9c-0.3-0.2-0.7-0.4-1.4-0.4s-1.1,0.4-1.1,0.9s0.4,0.8,1.3,1.1c1.2,0.4,1.7,1,1.7,2
			c0,1.2-0.9,2-2.5,2c-0.7,0-1.4-0.2-1.9-0.5L612.2,41z"/>
		<path d="M619.3,33.7v1.9h1.7v0.9h-1.7v3.6c0,0.8,0.2,1.3,0.9,1.3c0.3,0,0.5,0,0.7-0.1l0.1,0.9c-0.2,0.1-0.6,0.2-1.1,0.2
			c-0.6,0-1-0.2-1.3-0.5c-0.3-0.4-0.5-0.9-0.5-1.7v-3.6h-1v-0.9h1V34L619.3,33.7z"/>
		<path d="M626,42.2l-0.1-0.8l0,0c-0.4,0.5-1.1,1-2,1c-1.3,0-2-0.9-2-1.9c0-1.6,1.4-2.5,4-2.5v-0.1c0-0.5-0.2-1.5-1.5-1.5
			c-0.6,0-1.3,0.2-1.7,0.5l-0.3-0.8c0.5-0.4,1.3-0.6,2.2-0.6c2,0,2.5,1.4,2.5,2.7v2.5c0,0.6,0,1.1,0.1,1.6H626V42.2z M625.8,38.8
			c-1.3,0-2.8,0.2-2.8,1.5c0,0.8,0.5,1.2,1.1,1.2c0.9,0,1.4-0.5,1.6-1.1c0-0.1,0.1-0.3,0.1-0.4L625.8,38.8L625.8,38.8z"/>
		<path d="M629,37.4c0-0.7,0-1.2-0.1-1.8h1.1l0.1,1.1l0,0c0.3-0.6,1.1-1.2,2.2-1.2c0.9,0,2.3,0.5,2.3,2.8v4h-1.2v-3.8
			c0-1.1-0.4-2-1.5-2c-0.8,0-1.4,0.6-1.6,1.2c-0.1,0.2-0.1,0.4-0.1,0.6v4H629V37.4z"/>
		<path d="M641.3,42c-0.3,0.2-1,0.4-1.9,0.4c-2,0-3.3-1.4-3.3-3.4s1.4-3.5,3.6-3.5c0.7,0,1.3,0.2,1.7,0.3l-0.3,0.9
			c-0.3-0.2-0.7-0.3-1.4-0.3c-1.5,0-2.3,1.1-2.3,2.5c0,1.5,1,2.5,2.3,2.5c0.7,0,1.1-0.2,1.5-0.3L641.3,42z"/>
		<path d="M643.3,39.1c0,1.6,1.1,2.3,2.3,2.3c0.9,0,1.4-0.2,1.8-0.3l0.2,0.9c-0.4,0.2-1.2,0.4-2.2,0.4c-2,0-3.3-1.3-3.3-3.3
			s1.2-3.6,3.1-3.6c2.2,0,2.7,1.9,2.7,3.1c0,0.2,0,0.4,0,0.6h-4.6V39.1z M646.8,38.2c0-0.8-0.3-2-1.7-2c-1.2,0-1.8,1.1-1.9,2H646.8z
			"/>
	</g>
	<g>
		<path d="M253,106.8v3.9h4.5v-3.9h1.2v9.2h-1.2v-4.3H253v4.3h-1.2v-9.2H253z"/>
		<path d="M262.2,107.5c0,0.4-0.3,0.7-0.8,0.7c-0.4,0-0.7-0.3-0.7-0.7c0-0.4,0.3-0.8,0.8-0.8S262.2,107.1,262.2,107.5z M260.9,116
			v-6.6h1.2v6.6H260.9z"/>
		<path d="M269.8,109.4c0,0.5-0.1,1-0.1,1.8v3.9c0,1.5-0.3,2.5-0.9,3c-0.6,0.6-1.6,0.8-2.4,0.8s-1.7-0.2-2.2-0.5l0.3-0.9
			c0.4,0.3,1.1,0.5,1.9,0.5c1.2,0,2.1-0.6,2.1-2.3V115l0,0c-0.4,0.6-1.1,1.1-2.1,1.1c-1.6,0-2.8-1.4-2.8-3.2c0-2.2,1.5-3.5,3-3.5
			c1.2,0,1.8,0.6,2.1,1.2l0,0l0.1-1h1V109.4z M268.6,112c0-0.2,0-0.4-0.1-0.5c-0.2-0.7-0.8-1.3-1.7-1.3c-1.2,0-2,1-2,2.5
			c0,1.3,0.7,2.4,2,2.4c0.7,0,1.4-0.5,1.7-1.2c0.1-0.2,0.1-0.4,0.1-0.6V112z"/>
		<path d="M271.8,106.3h1.2v4.1l0,0c0.2-0.3,0.5-0.6,0.9-0.8c0.4-0.2,0.8-0.3,1.2-0.3c0.9,0,2.3,0.5,2.3,2.8v4h-1.2v-3.8
			c0-1.1-0.4-2-1.5-2c-0.8,0-1.4,0.5-1.6,1.2c-0.1,0.2-0.1,0.3-0.1,0.6v4h-1.2L271.8,106.3L271.8,106.3z"/>
		<path d="M279.4,106.3h1.2v9.7h-1.2V106.3z"/>
		<path d="M283.1,109.4l1.5,3.9c0.2,0.4,0.3,1,0.4,1.4l0,0c0.1-0.4,0.3-0.9,0.4-1.4l1.3-3.9h1.3l-1.8,4.7c-0.9,2.3-1.5,3.4-2.3,4.2
			c-0.6,0.5-1.2,0.7-1.5,0.8l-0.3-1c0.3-0.1,0.7-0.3,1.1-0.6c0.3-0.3,0.7-0.7,1-1.3c0.1-0.1,0.1-0.2,0.1-0.3c0-0.1,0-0.2-0.1-0.3
			l-2.5-6.1L283.1,109.4L283.1,109.4z"/>
		<path d="M293.5,113.1l-1,2.9h-1.2l3.1-9.2h1.4l3.2,9.2h-1.3l-1-2.9H293.5z M296.6,112.2l-0.9-2.7c-0.2-0.6-0.3-1.2-0.5-1.7l0,0
			c-0.1,0.5-0.3,1.1-0.5,1.7l-0.9,2.7H296.6z"/>
		<path d="M300.6,109.4l1.3,3.7c0.2,0.6,0.4,1.2,0.5,1.7l0,0c0.2-0.5,0.3-1.1,0.6-1.7l1.3-3.7h1.3L303,116h-1.2l-2.5-6.6H300.6z"/>
		<path d="M310.3,116l-0.1-0.8l0,0c-0.4,0.5-1.1,1-2,1c-1.3,0-2-0.9-2-1.9c0-1.6,1.4-2.5,4-2.5v-0.1c0-0.5-0.2-1.5-1.5-1.5
			c-0.6,0-1.3,0.2-1.7,0.5l-0.3-0.8c0.5-0.4,1.3-0.6,2.2-0.6c2,0,2.5,1.4,2.5,2.7v2.5c0,0.6,0,1.1,0.1,1.6L310.3,116L310.3,116z
			 M310.1,112.6c-1.3,0-2.8,0.2-2.8,1.5c0,0.8,0.5,1.2,1.1,1.2c0.9,0,1.4-0.5,1.6-1.1c0-0.1,0.1-0.3,0.1-0.4L310.1,112.6
			L310.1,112.6z"/>
		<path d="M316.5,106.3h1.2v9.7h-1.2V106.3z"/>
		<path d="M314.6,107.5c0,0.4-0.3,0.7-0.8,0.7c-0.4,0-0.7-0.3-0.7-0.7c0-0.4,0.3-0.8,0.8-0.8C314.4,106.7,314.6,107.1,314.6,107.5z
			 M313.3,116v-6.6h1.2v6.6H313.3z"/>
		<path d="M323.4,116l-0.1-0.8l0,0c-0.4,0.5-1.1,1-2,1c-1.3,0-2-0.9-2-1.9c0-1.6,1.4-2.5,4-2.5v-0.1c0-0.5-0.2-1.5-1.5-1.5
			c-0.6,0-1.3,0.2-1.7,0.5l-0.3-0.8c0.5-0.4,1.3-0.6,2.2-0.6c2,0,2.5,1.4,2.5,2.7v2.5c0,0.6,0,1.1,0.1,1.6L323.4,116L323.4,116z
			 M323.2,112.6c-1.3,0-2.8,0.2-2.8,1.5c0,0.8,0.5,1.2,1.1,1.2c0.9,0,1.4-0.5,1.6-1.1c0-0.1,0.1-0.3,0.1-0.4L323.2,112.6
			L323.2,112.6z"/>
		<path d="M326.3,116c0-0.5,0.1-1.1,0.1-1.7v-8h1.2v4.2l0,0c0.4-0.7,1.2-1.2,2.3-1.2c1.6,0,2.8,1.4,2.8,3.4c0,2.4-1.5,3.6-3,3.6
			c-1,0-1.7-0.4-2.2-1.2l0,0l-0.1,1.1h-1.1V116z M327.5,113.3c0,0.2,0,0.3,0.1,0.4c0.2,0.8,0.9,1.4,1.8,1.4c1.3,0,2-1,2-2.6
			c0-1.3-0.7-2.5-2-2.5c-0.8,0-1.6,0.6-1.8,1.5c0,0.1-0.1,0.3-0.1,0.5V113.3z"/>
		<path d="M334.1,106.3h1.2v9.7h-1.2V106.3z"/>
		<path d="M338,112.9c0,1.6,1.1,2.3,2.3,2.3c0.9,0,1.4-0.2,1.8-0.3l0.2,0.9c-0.4,0.2-1.2,0.4-2.2,0.4c-2,0-3.3-1.3-3.3-3.3
			s1.2-3.6,3.1-3.6c2.2,0,2.7,1.9,2.7,3.1c0,0.2,0,0.4,0,0.6L338,112.9L338,112.9z M341.6,112c0-0.8-0.3-2-1.7-2
			c-1.2,0-1.8,1.1-1.9,2H341.6z"/>
		<path d="M347.2,106.9c0.6-0.1,1.3-0.2,2.3-0.2c1.2,0,2,0.3,2.6,0.8c0.5,0.4,0.8,1.1,0.8,1.9s-0.2,1.5-0.7,2c-0.6,0.7-1.7,1-2.8,1
			c-0.4,0-0.7,0-1-0.1v3.7h-1.2L347.2,106.9L347.2,106.9z M348.4,111.3c0.3,0.1,0.6,0.1,1,0.1c1.4,0,2.3-0.7,2.3-2
			c0-1.2-0.9-1.8-2.2-1.8c-0.5,0-0.9,0-1.1,0.1L348.4,111.3L348.4,111.3z"/>
		<path d="M354.8,112.9c0,1.6,1.1,2.3,2.3,2.3c0.9,0,1.4-0.2,1.8-0.3l0.2,0.9c-0.4,0.2-1.2,0.4-2.2,0.4c-2,0-3.3-1.3-3.3-3.3
			s1.2-3.6,3.1-3.6c2.2,0,2.7,1.9,2.7,3.1c0,0.2,0,0.4,0,0.6L354.8,112.9L354.8,112.9z M358.3,112c0-0.8-0.3-2-1.7-2
			c-1.2,0-1.8,1.1-1.9,2H358.3z"/>
		<path d="M361,111.4c0-0.8,0-1.5-0.1-2.1h1.1v1.3h0.1c0.3-0.9,1-1.5,1.8-1.5c0.1,0,0.2,0,0.3,0v1.1c-0.1,0-0.2,0-0.4,0
			c-0.9,0-1.5,0.6-1.6,1.6c0,0.2-0.1,0.4-0.1,0.6v3.5H361V111.4z"/>
		<path d="M365.3,114.8c0.4,0.2,1,0.5,1.6,0.5c0.9,0,1.3-0.4,1.3-1s-0.3-0.9-1.2-1.2c-1.2-0.4-1.8-1.1-1.8-1.9
			c0-1.1,0.9-1.9,2.3-1.9c0.7,0,1.3,0.2,1.6,0.4l-0.3,0.9c-0.3-0.2-0.7-0.4-1.4-0.4c-0.7,0-1.1,0.4-1.1,0.9s0.4,0.8,1.3,1.1
			c1.2,0.4,1.7,1,1.7,2c0,1.2-0.9,2-2.5,2c-0.7,0-1.4-0.2-1.9-0.5L365.3,114.8z"/>
		<path d="M372.2,107.5c0,0.4-0.3,0.7-0.8,0.7c-0.4,0-0.7-0.3-0.7-0.7c0-0.4,0.3-0.8,0.8-0.8S372.2,107.1,372.2,107.5z M370.9,116
			v-6.6h1.2v6.6H370.9z"/>
		<path d="M373.9,114.8c0.4,0.2,1,0.5,1.6,0.5c0.9,0,1.3-0.4,1.3-1s-0.3-0.9-1.2-1.2c-1.2-0.4-1.8-1.1-1.8-1.9
			c0-1.1,0.9-1.9,2.3-1.9c0.7,0,1.3,0.2,1.6,0.4l-0.3,0.9c-0.3-0.2-0.7-0.4-1.4-0.4c-0.7,0-1.1,0.4-1.1,0.9s0.4,0.8,1.3,1.1
			c1.2,0.4,1.7,1,1.7,2c0,1.2-0.9,2-2.5,2c-0.7,0-1.4-0.2-1.9-0.5L373.9,114.8z"/>
		<path d="M381,107.5v1.9h1.7v0.9H381v3.6c0,0.8,0.2,1.3,0.9,1.3c0.3,0,0.5,0,0.7-0.1l0.1,0.9c-0.2,0.1-0.6,0.2-1.1,0.2
			c-0.6,0-1-0.2-1.3-0.5c-0.3-0.4-0.5-0.9-0.5-1.7v-3.6h-1v-0.9h1v-1.6L381,107.5z"/>
		<path d="M384.7,112.9c0,1.6,1.1,2.3,2.3,2.3c0.9,0,1.4-0.2,1.8-0.3l0.2,0.9c-0.4,0.2-1.2,0.4-2.2,0.4c-2,0-3.3-1.3-3.3-3.3
			s1.2-3.6,3.1-3.6c2.2,0,2.7,1.9,2.7,3.1c0,0.2,0,0.4,0,0.6L384.7,112.9L384.7,112.9z M388.2,112c0-0.8-0.3-2-1.7-2
			c-1.2,0-1.8,1.1-1.9,2H388.2z"/>
		<path d="M390.9,111.2c0-0.7,0-1.2-0.1-1.8h1.1l0.1,1.1l0,0c0.3-0.6,1.1-1.2,2.2-1.2c0.9,0,2.3,0.5,2.3,2.8v4h-1.2v-3.8
			c0-1.1-0.4-2-1.5-2c-0.8,0-1.4,0.6-1.6,1.2c-0.1,0.2-0.1,0.4-0.1,0.6v4h-1.2L390.9,111.2L390.9,111.2z"/>
		<path d="M399.9,107.5v1.9h1.7v0.9h-1.7v3.6c0,0.8,0.2,1.3,0.9,1.3c0.3,0,0.5,0,0.7-0.1l0.1,0.9c-0.2,0.1-0.6,0.2-1.1,0.2
			c-0.6,0-1-0.2-1.3-0.5c-0.3-0.4-0.5-0.9-0.5-1.7v-3.6h-1v-0.9h1v-1.6L399.9,107.5z"/>
		<path d="M405.8,114.5c0.5,0.3,1.3,0.6,2.1,0.6c1.2,0,1.9-0.6,1.9-1.6c0-0.9-0.5-1.4-1.7-1.8c-1.5-0.5-2.4-1.3-2.4-2.6
			c0-1.4,1.2-2.5,3-2.5c0.9,0,1.6,0.2,2,0.5l-0.3,1c-0.3-0.2-0.9-0.4-1.8-0.4c-1.3,0-1.7,0.8-1.7,1.4c0,0.9,0.6,1.3,1.8,1.8
			c1.6,0.6,2.4,1.4,2.4,2.7c0,1.4-1.1,2.7-3.2,2.7c-0.9,0-1.9-0.3-2.4-0.6L405.8,114.5z"/>
		<path d="M414.1,107.5v1.9h1.7v0.9h-1.7v3.6c0,0.8,0.2,1.3,0.9,1.3c0.3,0,0.5,0,0.7-0.1l0.1,0.9c-0.2,0.1-0.6,0.2-1.1,0.2
			c-0.6,0-1-0.2-1.3-0.5c-0.3-0.4-0.5-0.9-0.5-1.7v-3.6h-1v-0.9h1v-1.6L414.1,107.5z"/>
		<path d="M423.1,112.6c0,2.5-1.7,3.5-3.3,3.5c-1.8,0-3.2-1.3-3.2-3.4c0-2.2,1.5-3.5,3.3-3.5C421.8,109.2,423.1,110.6,423.1,112.6z
			 M417.8,112.7c0,1.5,0.8,2.6,2,2.6s2-1.1,2-2.6c0-1.1-0.6-2.6-2-2.6S417.8,111.4,417.8,112.7z"/>
		<path d="M424.6,111.4c0-0.8,0-1.5-0.1-2.1h1.1v1.3h0.1c0.3-0.9,1-1.5,1.8-1.5c0.1,0,0.2,0,0.3,0v1.1c-0.1,0-0.2,0-0.4,0
			c-0.9,0-1.5,0.6-1.6,1.6c0,0.2-0.1,0.4-0.1,0.6v3.5h-1.2v-4.5H424.6z"/>
		<path d="M432.7,116l-0.1-0.8l0,0c-0.4,0.5-1.1,1-2,1c-1.3,0-2-0.9-2-1.9c0-1.6,1.4-2.5,4-2.5v-0.1c0-0.5-0.2-1.5-1.5-1.5
			c-0.6,0-1.3,0.2-1.7,0.5l-0.3-0.8c0.5-0.4,1.3-0.6,2.2-0.6c2,0,2.5,1.4,2.5,2.7v2.5c0,0.6,0,1.1,0.1,1.6L432.7,116L432.7,116z
			 M432.5,112.6c-1.3,0-2.8,0.2-2.8,1.5c0,0.8,0.5,1.2,1.1,1.2c0.9,0,1.4-0.5,1.6-1.1c0-0.1,0.1-0.3,0.1-0.4L432.5,112.6
			L432.5,112.6z"/>
		<path d="M441.3,109.4c0,0.5-0.1,1-0.1,1.8v3.9c0,1.5-0.3,2.5-0.9,3c-0.6,0.6-1.6,0.8-2.4,0.8s-1.7-0.2-2.2-0.5l0.3-0.9
			c0.4,0.3,1.1,0.5,1.9,0.5c1.2,0,2.1-0.6,2.1-2.3V115l0,0c-0.4,0.6-1.1,1.1-2.1,1.1c-1.6,0-2.8-1.4-2.8-3.2c0-2.2,1.5-3.5,3-3.5
			c1.2,0,1.8,0.6,2.1,1.2l0,0l0.1-1h1V109.4z M440.1,112c0-0.2,0-0.4-0.1-0.5c-0.2-0.7-0.8-1.3-1.7-1.3c-1.2,0-2,1-2,2.5
			c0,1.3,0.7,2.4,2,2.4c0.7,0,1.4-0.5,1.7-1.2c0.1-0.2,0.1-0.4,0.1-0.6V112z"/>
		<path d="M444,112.9c0,1.6,1.1,2.3,2.3,2.3c0.9,0,1.4-0.2,1.8-0.3l0.2,0.9c-0.4,0.2-1.2,0.4-2.2,0.4c-2,0-3.3-1.3-3.3-3.3
			s1.2-3.6,3.1-3.6c2.2,0,2.7,1.9,2.7,3.1c0,0.2,0,0.4,0,0.6L444,112.9L444,112.9z M447.5,112c0-0.8-0.3-2-1.7-2
			c-1.2,0-1.8,1.1-1.9,2H447.5z"/>
	</g>
</g>
</svg>
