<?xml version="1.0" encoding="utf-8"?>
<!-- Generator: Adobe Illustrator 24.0.3, SVG Export Plug-In . SVG Version: 6.00 Build 0)  -->
<svg version="1.1" xmlns="http://www.w3.org/2000/svg" xmlns:xlink="http://www.w3.org/1999/xlink" x="0px" y="0px"
	 viewBox="0 0 1511 150" style="enable-background:new 0 0 1511 150;" xml:space="preserve">
<style type="text/css">
	.st0{fill:#4E55FD;}
	.st1{fill:none;stroke:#4E55FD;stroke-width:5;stroke-miterlimit:10;}
	.st2{font-family:'Tahoma';}
	.st3{font-size:24px;}
</style>
<g id="arrows">
	<polygon class="st0" points="273,95.7 300.4,73.9 300.4,73.9 300.4,73.9 300.4,73.9 300.4,73.9 273,52.1 276.3,63.9 245.7,63.9 
		245.7,83.8 276.3,83.8 	"/>
	<polygon class="st0" points="594.7,95.7 622,73.9 622.1,73.9 622,73.9 622.1,73.9 622,73.9 594.7,52.1 598,63.9 567.3,63.9 
		567.3,83.8 598,83.8 	"/>
	<polygon class="st0" points="916.4,95.7 943.7,73.9 943.7,73.9 943.7,73.9 943.7,73.9 943.7,73.9 916.4,52.1 919.7,63.9 889,63.9 
		889,83.8 919.7,83.8 	"/>
	<polygon class="st0" points="1238,95.7 1265.4,73.9 1265.4,73.9 1265.4,73.9 1265.4,73.9 1265.4,73.9 1238,52.1 1241.3,63.9 
		1210.7,63.9 1210.7,83.8 1241.3,83.8 	"/>
</g>
<g id="Sign_up">
	<g>
		<rect x="4.2" y="2.9" class="st1" width="216" height="142"/>
		<text transform="matrix(1 0 0 1 68.501 80.9135)" class="st2 st3">Sign Up</text>
	</g>
</g>
<g id="Deploy">
	<path class="st1" d="M353.5,73.9"/>
	<path class="st1" d="M192.6,73.9"/>
	<g>
		<text transform="matrix(1 0 0 1 394.1051 80.9137)" class="st2 st3">Deploy</text>
		<rect x="325.9" y="2.9" class="st1" width="216" height="142"/>
	</g>
	<g id="Deploy_1_">
	</g>
</g>
<g id="Log_in_and_connect">
	<text transform="matrix(1 0 0 1 717.8702 66.5139)"><tspan x="0" y="0" class="st2 st3">Sign In </tspan><tspan x="-28.7" y="28.8" class="st2 st3">and Connect</tspan></text>
	<rect x="647.5" y="2.9" class="st1" width="216" height="142"/>
	<g id="Log_In_and_Connect">
	</g>
</g>
<g id="Model_data">
	<g>
		<text transform="matrix(1 0 0 1 1017.255 80.9134)" class="st2 st3">Model Data</text>
		<rect x="969.2" y="2.9" class="st1" width="216" height="142"/>
	</g>
	<g id="Model_data_text">
	</g>
</g>
<g id="Search">
	<g>
		<text transform="matrix(1 0 0 1 1363.0215 80.9134)" class="st2 st3">Search</text>
		<rect x="1290.9" y="2.9" class="st1" width="216" height="142"/>
	</g>
	<g id="Search_text">
	</g>
</g>
</svg>
