<?xml version="1.0" encoding="UTF-8"?>
<svg focusable="false" width="53px" height="59px" viewBox="0 0 53 59" version="1.1" xmlns="http://www.w3.org/2000/svg" xmlns:xlink="http://www.w3.org/1999/xlink">
    <!-- Generator: Sketch 60 (88103) - https://sketch.com -->
    <title>db_Amazon_RedShift_259314</title>
    <desc>Created with Sketch.</desc>
    <g id="azure-logo" stroke="none" stroke-width="1" fill="none" fill-rule="evenodd">
        <g id="db_Amazon_RedShift_259314" transform="translate(-4.000000, -1.000000)">
            <rect id="Rectangle" x="0" y="0" width="60" height="60"></rect>
            <g id="Group-2" transform="translate(4.000000, 1.000000)" fill-rule="nonzero">
                <polygon id="Path" fill="#205B98" points="26.4723529 44.5747059 48.6758824 49.9482353 48.6758824 8.25970588 26.4723529 13.635"></polygon>
                <polygon id="Path" fill="#5294CF" points="48.6741176 8.25970588 52.9411765 10.3932353 52.9411765 47.8270588 48.6741176 49.9588235"></polygon>
                <polygon id="Path" fill="#5294CF" points="26.4723529 44.5747059 4.26705882 49.9482353 4.26705882 8.25970588 26.4723529 13.635"></polygon>
                <polygon id="Path" fill="#205B98" points="4.26705882 8.25970588 -6.26165786e-14 10.3932353 -6.26165786e-14 47.8270588 4.26705882 49.9588235"></polygon>
                <polygon id="Path" fill="#5294CF" points="32.1555882 58.3341176 40.5864706 54.1191176 40.5864706 4.215 32.1555882 4.97379915e-14 29.5067647 27.7411764"></polygon>
                <polygon id="Path" fill="#205B98" points="20.7855882 58.3341176 12.3564706 54.1191176 12.3564706 4.215 20.7855882 4.97379915e-14 23.4361765 27.645"></polygon>
                <rect id="Rectangle" fill="#2D72B8" x="20.7855882" y="3.55271368e-14" width="11.3708824" height="58.3332353"></rect>
            </g>
        </g>
    </g>
</svg>