<?xml version="1.0" encoding="utf-8"?>
<!-- Generator: Adobe Illustrator 25.2.0, SVG Export Plug-In . SVG Version: 6.00 Build 0)  -->
<svg version="1.1" id="Layer_1" xmlns="http://www.w3.org/2000/svg" xmlns:xlink="http://www.w3.org/1999/xlink" x="0px" y="0px"
	 viewBox="0 0 1193.9 78" style="enable-background:new 0 0 1193.9 78;" xml:space="preserve">
<style type="text/css">
	.st0{enable-background:new    ;}
	.st1{fill:#DEDBDA;}
	.st2{fill:#FFFFFF;}
</style>
<g>
	<g class="st0">
		<path class="st1" d="M465.6,48.2c-2.6,5.5-7.5,9.2-14.6,9.2c-8.1,0-13.5-4.5-13.5-13.4c0-9.3,6.5-17.6,16.5-17.6
			c6.8,0,11.5,3.4,12.9,9.5h-5.8c-1.2-3.1-3.6-4.9-7.4-4.9c-6.8,0-10.5,6.2-10.5,12.4c0,5.7,2.9,9.4,8.3,9.4c3.9,0,6.5-1.8,8.3-4.5
			H465.6z"/>
		<path class="st1" d="M491.5,44.2c0,7.4-4.6,13.4-12.8,13.4c-6.1,0-10.4-3.5-10.4-10c0-7.2,4.7-13.3,12.8-13.3
			C487.3,34.2,491.5,37.7,491.5,44.2z M486.1,44.4c0-3.5-1.7-5.8-5.4-5.8c-4.8,0-7.1,4.5-7.1,8.8c0,3.7,1.9,5.9,5.5,5.9
			C483.8,53.2,486.1,48.7,486.1,44.4z"/>
		<path class="st1" d="M497.9,34.8h4.9l-0.5,2.8c1-1.5,3.6-3.3,7.2-3.3c4.4,0,6.9,2.5,6.9,6.7c0,0.7-0.1,1.6-0.3,2.6l-2.4,13.3h-5.1
			l1.9-11.3c0.2-0.9,0.3-1.9,0.3-2.8c0-2.2-0.9-4.2-3.8-4.2c-3.4,0-5.2,2.7-5.8,6.2l-2.1,12.1h-5.1L497.9,34.8z"/>
		<path class="st1" d="M533.6,30.8c-0.3,0-0.7-0.1-0.9-0.1c-1.7,0-2.9,0.8-3.2,2.5l-0.3,1.6h3.7l-0.7,4h-3.6l-3.2,18h-5.1l3.2-18
			h-2.9l0.7-4h2.9l0.4-2.1c0.8-4.2,3.8-6.2,8.2-6.2c0.5,0,1,0,1.6,0.1L533.6,30.8z M535.8,34.8h5.2l-3.9,22.1H532L535.8,34.8z
			 M537.1,26.8h5.3l-0.8,4.8h-5.3L537.1,26.8z"/>
		<path class="st1" d="M558.8,56.8c0.1-0.6,0.2-1.2,0.4-2c-0.7,0.9-3,2.7-6.7,2.7c-5.3,0-9.1-3.6-9.1-10c0-6.8,4.5-13.4,11.8-13.4
			c3.4,0,6,1.5,7,3.1l1.9-10.5h5.2l-5.3,30H558.8z M548.8,47.6c0,3.3,1.8,5.8,5.3,5.8c4.9,0,7.1-4.5,7.1-8.8c0-3.7-1.8-5.9-5.4-5.9
			C551,38.6,548.8,43.2,548.8,47.6z"/>
		<path class="st1" d="M575.5,47.2c0,3.6,2.1,6,5.5,6c2.5,0,4.3-1.1,5.3-2.6h5.3c-1.7,3.9-5.6,7-11.2,7c-5.8,0-10.2-3.4-10.2-10.2
			c0-7.2,4.9-13.1,12.4-13.1c6.7,0,9.9,4.4,9.9,10c0,1-0.1,2-0.3,3.1C586.8,47.3,581.1,47.2,575.5,47.2z M582.5,38.3
			c-3.3,0-5.6,1.8-6.4,5.3h11.6C587.6,40.4,585.6,38.3,582.5,38.3z"/>
		<path class="st1" d="M598.7,34.8h4.9l-0.5,2.8c1-1.5,3.6-3.3,7.2-3.3c4.4,0,6.9,2.5,6.9,6.7c0,0.7-0.1,1.6-0.3,2.6l-2.4,13.3h-5.1
			l1.9-11.3c0.2-0.9,0.3-1.9,0.3-2.8c0-2.2-0.9-4.2-3.8-4.2c-3.4,0-5.2,2.7-5.8,6.2L600,56.8h-5.1L598.7,34.8z"/>
		<path class="st1" d="M620.9,38.8l0.7-4h3.3l1.1-6h5.2l-1.1,6h4l-0.7,4h-4l-2,11.3c-0.1,0.5-0.2,0.9-0.2,1.5c0,1.3,0.8,1.8,2.3,1.8
			c0.3,0,0.7,0,1-0.1l-0.7,3.9c-0.6,0.1-1.1,0.1-1.7,0.1c-3.8,0-6.2-1-6.2-4.2c0-0.7,0.1-1.4,0.3-2.2l2.1-12.1H620.9z"/>
		<path class="st1" d="M638.1,34.8h5.2l-3.9,22.1h-5.1L638.1,34.8z M639.3,26.8h5.3l-0.8,4.8h-5.3L639.3,26.8z"/>
		<path class="st1" d="M660.8,43.1c0.1-0.6,0.2-1.2,0.2-1.7c0-2.1-1.3-3.3-3.9-3.3c-3,0-4.2,1.7-4.7,3.5h-5.1
			c0.9-4.3,4.5-7.5,10.3-7.5c5.3,0,8.4,2.4,8.4,7c0,1.3-0.1,2.5-0.4,3.8l-1,5c-0.5,2.7-0.8,5.2-1,6.9h-4.7c0-0.6,0.2-1.5,0.4-2.6
			h-0.1c-1.1,1.1-3.3,3-7.5,3c-4.2,0-6.9-2-6.9-5.8c0-6.8,9.3-7.8,15-8.3C660.2,43.1,660.6,43.1,660.8,43.1z M658.1,46.9
			c-4,0.5-7.8,1.1-7.8,3.9c0,1.6,1.3,2.5,3.4,2.5c3.7,0,5.5-2.1,6.3-6l0.2-0.8L658.1,46.9z"/>
		<path class="st1" d="M674.3,26.8h5.2l-5.3,30H669L674.3,26.8z"/>
		<path class="st1" d="M692.8,42.3h11.4l-0.8,4.4H692L692.8,42.3z"/>
		<path class="st1" d="M723.5,26.8h17.6l-0.8,4.8H728l-1.3,7.6H738l-0.8,4.8h-11.3l-2.3,12.9h-5.4L723.5,26.8z"/>
		<path class="st1" d="M763.8,44.2c0,7.4-4.6,13.4-12.8,13.4c-6.1,0-10.4-3.5-10.4-10c0-7.2,4.7-13.3,12.8-13.3
			C759.6,34.2,763.8,37.7,763.8,44.2z M758.4,44.4c0-3.5-1.7-5.8-5.4-5.8c-4.8,0-7.1,4.5-7.1,8.8c0,3.7,1.9,5.9,5.5,5.9
			C756.1,53.2,758.4,48.7,758.4,44.4z"/>
		<path class="st1" d="M780.3,39.6c-0.2,0-0.8-0.1-1.3-0.1c-3.9,0-5,2.8-5.8,7.3l-1.8,10.1h-5.1l3.8-22.1h4.9l-0.5,3
			c1.1-2,3.5-3.2,5.5-3.2c0.5,0,0.9,0,1.1,0.1L780.3,39.6z"/>
		<path class="st1" d="M794.4,34.8h5.2l-3.9,22.1h-5.1L794.4,34.8z M795.7,26.8h5.3l-0.8,4.8h-5.3L795.7,26.8z"/>
		<path class="st1" d="M805.4,34.8h4.9l-0.5,2.8c1-1.5,3.6-3.3,7.2-3.3c4.4,0,6.9,2.5,6.9,6.7c0,0.7-0.1,1.6-0.3,2.6l-2.4,13.3h-5.1
			l1.9-11.3c0.2-0.9,0.3-1.9,0.3-2.8c0-2.2-0.9-4.2-3.8-4.2c-3.4,0-5.2,2.7-5.8,6.2l-2.1,12.1h-5.1L805.4,34.8z"/>
		<path class="st1" d="M827.6,38.8l0.7-4h3.3l1.1-6h5.2l-1.1,6h4l-0.7,4h-4l-2,11.3c-0.1,0.5-0.2,0.9-0.2,1.5c0,1.3,0.8,1.8,2.3,1.8
			c0.3,0,0.7,0,1-0.1l-0.7,3.9c-0.6,0.1-1.1,0.1-1.7,0.1c-3.8,0-6.2-1-6.2-4.2c0-0.7,0.1-1.4,0.3-2.2l2.1-12.1H827.6z"/>
		<path class="st1" d="M846.4,47.2c0,3.6,2.1,6,5.5,6c2.5,0,4.3-1.1,5.3-2.6h5.3c-1.7,3.9-5.6,7-11.2,7c-5.8,0-10.2-3.4-10.2-10.2
			c0-7.2,4.9-13.1,12.4-13.1c6.7,0,9.9,4.4,9.9,10c0,1-0.1,2-0.3,3.1C857.7,47.3,851.9,47.2,846.4,47.2z M853.3,38.3
			c-3.3,0-5.6,1.8-6.4,5.3h11.6C858.4,40.4,856.5,38.3,853.3,38.3z"/>
		<path class="st1" d="M879.7,39.6c-0.2,0-0.8-0.1-1.3-0.1c-3.9,0-5,2.8-5.8,7.3l-1.8,10.1h-5.1l3.8-22.1h4.9l-0.5,3
			c1.1-2,3.5-3.2,5.5-3.2c0.5,0,0.9,0,1.1,0.1L879.7,39.6z"/>
		<path class="st1" d="M884.3,34.8h4.9l-0.5,2.8c1-1.5,3.6-3.3,7.2-3.3c4.4,0,6.9,2.5,6.9,6.7c0,0.7-0.1,1.6-0.3,2.6l-2.4,13.3h-5.1
			l1.9-11.3c0.2-0.9,0.3-1.9,0.3-2.8c0-2.2-0.9-4.2-3.8-4.2c-3.4,0-5.2,2.7-5.8,6.2l-2.1,12.1h-5.1L884.3,34.8z"/>
		<path class="st1" d="M921.4,43.1c0.1-0.6,0.2-1.2,0.2-1.7c0-2.1-1.3-3.3-3.9-3.3c-3,0-4.2,1.7-4.7,3.5h-5.1
			c0.9-4.3,4.5-7.5,10.3-7.5c5.3,0,8.4,2.4,8.4,7c0,1.3-0.1,2.5-0.4,3.8l-1,5c-0.5,2.7-0.8,5.2-1,6.9h-4.7c0-0.6,0.2-1.5,0.4-2.6
			h-0.1c-1.1,1.1-3.3,3-7.5,3c-4.2,0-6.9-2-6.9-5.8c0-6.8,9.3-7.8,15-8.3C920.8,43.1,921.2,43.1,921.4,43.1z M918.7,46.9
			c-4,0.5-7.8,1.1-7.8,3.9c0,1.6,1.3,2.5,3.4,2.5c3.7,0,5.5-2.1,6.3-6l0.2-0.8L918.7,46.9z"/>
		<path class="st1" d="M934.9,26.8h5.2l-5.3,30h-5.1L934.9,26.8z"/>
		<path class="st1" d="M965.1,39.6c-0.2,0-0.8-0.1-1.3-0.1c-3.9,0-5,2.8-5.8,7.3l-1.8,10.1h-5.1l3.8-22.1h4.9l-0.5,3
			c1.1-2,3.5-3.2,5.5-3.2c0.5,0,0.9,0,1.1,0.1L965.1,39.6z"/>
		<path class="st1" d="M971.4,47.2c0,3.6,2.1,6,5.5,6c2.5,0,4.3-1.1,5.3-2.6h5.3c-1.7,3.9-5.6,7-11.2,7c-5.8,0-10.2-3.4-10.2-10.2
			c0-7.2,4.9-13.1,12.4-13.1c6.7,0,9.9,4.4,9.9,10c0,1-0.1,2-0.3,3.1C982.7,47.3,976.9,47.2,971.4,47.2z M978.3,38.3
			c-3.3,0-5.6,1.8-6.4,5.3h11.6C983.4,40.4,981.5,38.3,978.3,38.3z"/>
		<path class="st1" d="M991.2,34.8h5.5l1.3,8.6c0.4,2.6,0.7,4,1.1,7.2h0.1c1.5-3.1,2.2-4.3,3.9-7.7l4.1-8.1h5.6l-12.4,22.1h-4.8
			C994.2,49.7,992.7,41.9,991.2,34.8z"/>
		<path class="st1" d="M1016.3,34.8h5.2l-3.9,22.1h-5.1L1016.3,34.8z M1017.5,26.8h5.3l-0.8,4.8h-5.3L1017.5,26.8z"/>
		<path class="st1" d="M1029.1,47.2c0,3.6,2.1,6,5.5,6c2.5,0,4.3-1.1,5.3-2.6h5.3c-1.7,3.9-5.6,7-11.2,7c-5.8,0-10.2-3.4-10.2-10.2
			c0-7.2,4.9-13.1,12.4-13.1c6.7,0,9.9,4.4,9.9,10c0,1-0.1,2-0.3,3.1C1040.4,47.3,1034.6,47.2,1029.1,47.2z M1036,38.3
			c-3.3,0-5.6,1.8-6.4,5.3h11.6C1041.1,40.4,1039.2,38.3,1036,38.3z"/>
		<path class="st1" d="M1049.3,34.8h5.1l1,8.6c0.3,2.6,0.4,4.1,0.7,7.3h0.1c1.3-3.1,1.9-4.7,3.4-8.2l3.2-7.6h4.9l0.7,8.6
			c0.3,2.6,0.3,3.9,0.6,7.3h0.1c1.3-3.1,1.8-4.3,3.4-7.8l3.7-8.1h5.3l-11,22.1h-5.3c-0.5-3.8-1.1-9.4-1.3-13.5h-0.1
			c-1.8,4.4-4.2,9.6-6,13.5h-5.3C1051.3,49.7,1050.4,41.9,1049.3,34.8z"/>
		<path class="st1" d="M1114.2,44.2c0,7.4-4.6,13.4-12.8,13.4c-6.1,0-10.4-3.5-10.4-10c0-7.2,4.7-13.3,12.8-13.3
			C1110,34.2,1114.2,37.7,1114.2,44.2z M1108.8,44.4c0-3.5-1.7-5.8-5.4-5.8c-4.8,0-7.1,4.5-7.1,8.8c0,3.7,1.9,5.9,5.5,5.9
			C1106.5,53.2,1108.8,48.7,1108.8,44.4z"/>
		<path class="st1" d="M1120.5,34.8h4.9l-0.5,2.8c1-1.5,3.6-3.3,7.2-3.3c4.4,0,6.9,2.5,6.9,6.7c0,0.7-0.1,1.6-0.3,2.6l-2.4,13.3
			h-5.1l1.9-11.3c0.2-0.9,0.3-1.9,0.3-2.8c0-2.2-0.9-4.2-3.8-4.2c-3.4,0-5.2,2.7-5.8,6.2l-2.1,12.1h-5.1L1120.5,34.8z"/>
		<path class="st1" d="M1147.4,26.8h5.2l-5.3,30h-5.1L1147.4,26.8z"/>
		<path class="st1" d="M1154.3,64.4l4.8-8.1c-1.4-6.7-3-14.5-4.5-21.5h5.5c1.2,7,1.8,11.3,2.6,15.6h0.1c2-3.8,5.5-10.7,8-15.6h5.6
			c-4.5,7.8-8.8,15.8-13.3,23.5l-3.6,6.1H1154.3z"/>
	</g>
	<path class="st2" d="M392.4,35.3v-4.9h-5.8v-7.1h-4.9v7.1H377v4.9h4.6v14.2c0,4.2,3.4,7.5,7.5,7.5h3.3v-4.9h-3.3
		c-1.4,0-2.6-1.2-2.6-2.6V35.3H392.4z"/>
	<path class="st2" d="M363.7,29.9c5.3,0,9.5,4.3,9.5,9.5v8c0,5.2-4.3,9.5-9.5,9.5h-1.9c-5.2,0-9.5-4.3-9.5-9.5v-8
		c0-5.3,4.3-9.5,9.5-9.5C361.8,29.9,363.7,29.9,363.7,29.9z M357.2,39.5v8c0,2.6,2.1,4.6,4.6,4.6h1.9c2.6,0,4.6-2,4.6-4.6v-8
		c0-2.6-2-4.6-4.6-4.6h-1.9C359.4,34.8,357.2,36.9,357.2,39.5z"/>
	<path class="st2" d="M346.9,39.5v8c0,5.3-4.3,9.5-9.5,9.5h-0.6c-2.2,0-4.3-0.8-5.9-2.1v10.6H326V30.4h4.9V32
		c1.6-1.3,3.6-2.1,5.9-2.1h0.6C342.6,29.9,346.9,34.2,346.9,39.5z M342,39.5c0-2.5-2-4.6-4.6-4.6h-1.9c-2.5,0-4.6,2.1-4.6,4.6v8
		c0,2.6,2.1,4.6,4.6,4.6h1.9c2.6,0,4.6-2,4.6-4.6V39.5z"/>
	<path class="st2" d="M303,48.4c0.5,2.1,2.3,3.7,4.6,3.7h3.4c2.5,0,4.6-2.1,4.6-4.6c0-2.9-1.8-4.6-4.4-5.6l-4.5-1.7
		c-4.2-1.6-7.7-4.4-7.7-9.7s4.3-9.5,9.5-9.5h2.4c4.4,0,8.2,3,9.2,7.2l-4.8,1.4c-0.4-2.1-2.3-3.6-4.5-3.6h-2.4c-2.6,0-4.6,2-4.6,4.6
		c0,2,0.7,3.5,4.7,5.1l4.5,1.8c4.6,1.8,7.5,5.3,7.5,10.1c0,5.3-4.3,9.5-9.5,9.5h-3.4c-4.5,0-8.2-3.1-9.3-7.2L303,48.4z"/>
	<path class="st2" d="M293.6,35.3v-4.9h-5.8v-7.1h-4.9v7.1h-4.6v4.9h4.6v14.2c0,4.2,3.4,7.5,7.5,7.5h3.3v-4.9h-3.3
		c-1.4,0-2.6-1.2-2.6-2.6V35.3H293.6z"/>
	<path class="st2" d="M273.9,39.5v17.1H269V39.5c0-2.6-2-4.6-4.6-4.6h-1.9c-2.5,0-4.6,2-4.6,4.6v17.1H253V21.4h4.9V32
		c1.6-1.3,3.6-2.1,5.9-2.1h0.6C269.7,29.9,273.9,34.2,273.9,39.5z"/>
	<path class="st2" d="M246.6,30.4v26c0,5.3-4.2,9.6-9.5,9.6h-1.9c-4.5,0-8.2-3.1-9.2-7.2l4.7-1.4c0.5,2,2.3,3.7,4.5,3.7h1.9
		c2.5,0,4.6-2.1,4.6-4.6v-3.1c-1.6,1.3-3.6,2.1-5.9,2.1h-0.6c-5.2,0-9.6-4.3-9.6-9.5v-6.4c0-5.3,4.3-9.5,9.6-9.5h0.6
		c2.2,0,4.3,0.8,5.9,2v-1.6L246.6,30.4L246.6,30.4z M241.6,45.9v-6.4c0-2.6-2.1-4.6-4.6-4.6h-1.9c-2.5,0-4.6,2-4.6,4.6v6.4
		c0,2.5,2.1,4.6,4.6,4.6h1.9C239.6,50.5,241.6,48.4,241.6,45.9z"/>
	<path class="st2" d="M204.1,30.4v17.1c0,2.6,2.1,4.6,4.6,4.6h1.9c2.6,0,4.6-2,4.6-4.6V30.4h4.9v17.1c0,5.3-4.3,9.5-9.6,9.5h-1.9
		c-5.3,0-9.6-4.3-9.6-9.5V30.4H204.1z"/>
	<path class="st2" d="M183.9,29.9c5.3,0,9.6,4.3,9.6,9.5v8c0,5.2-4.3,9.5-9.6,9.5H182c-5.2,0-9.6-4.3-9.6-9.5v-8
		c0-5.3,4.3-9.5,9.6-9.5C182,29.9,183.9,29.9,183.9,29.9z M177.4,39.5v8c0,2.6,2.1,4.6,4.6,4.6h1.9c2.6,0,4.6-2,4.6-4.6v-8
		c0-2.6-2.1-4.6-4.6-4.6H182C179.5,34.8,177.4,36.9,177.4,39.5z"/>
	<path class="st2" d="M166.8,39.5v17.1h-4.9V39.5c0-2.6-2.1-4.6-4.6-4.6h-1.9c-2.5,0-4.6,2-4.6,4.6v17.1h-4.9V21.4h4.9V32
		c1.6-1.3,3.6-2.1,5.9-2.1h0.6C162.5,29.9,166.8,34.2,166.8,39.5z"/>
	<path class="st2" d="M140.6,21.4v4.9h-9.9v30.2h-4.9V26.4h-9.9v-4.9h24.7V21.4z"/>
	<circle class="st2" cx="68.8" cy="68.8" r="9.8"/>
	<polygon class="st2" points="78,19.5 0,19.5 0,24.4 26.8,24.4 26.8,78 31.7,78 31.7,24.4 36.6,24.4 36.6,78 41.4,78 41.4,24.4 
		46.3,24.4 46.3,78 51.2,78 51.2,24.4 78,24.4 	"/>
	<rect y="9.8" class="st2" width="78" height="4.9"/>
	<rect y="0" class="st2" width="78" height="4.9"/>
</g>
</svg>
