<?xml version="1.0" encoding="utf-8"?>
<!-- Generator: Adobe Illustrator 24.1.0, SVG Export Plug-In . SVG Version: 6.00 Build 0)  -->
<svg version="1.1" id="Layer_1" xmlns="http://www.w3.org/2000/svg" xmlns:xlink="http://www.w3.org/1999/xlink" x="0px" y="0px"
	 viewBox="0 0 700 265" style="enable-background:new 0 0 700 265;" xml:space="preserve">
<style type="text/css">
	.st0{display:none;}
	.st1{fill:none;stroke:#000000;stroke-width:2.5;stroke-miterlimit:10;}
	.st2{fill:#FFFFFF;stroke:#000000;stroke-width:2.5;stroke-miterlimit:10;}
	.st3{fill:url(#SVGID_1_);}
	.st4{fill:url(#SVGID_2_);}
	.st5{fill:#8C3123;}
	.st6{fill-rule:evenodd;clip-rule:evenodd;}
</style>
<g class="st0">
	
		<image style="display:inline;overflow:visible;enable-background:new    ;" width="1805" height="368" xlink:href="../../repos/thoughtspot.github.io/images/cloud-vm-storage.png"  transform="matrix(1.0019 0 0 1.0019 -538.2466 -48.6067)">
	</image>
</g>
<g>
	<line class="st1" x1="88.3" y1="95.1" x2="88.3" y2="72.8"/>
	<line class="st1" x1="266.2" y1="95.1" x2="266.2" y2="72.8"/>
	<line class="st1" x1="446.3" y1="95.8" x2="446.3" y2="73.4"/>
	<line class="st1" x1="616.3" y1="97.5" x2="616.3" y2="75.2"/>
</g>
<line class="st1" x1="153" y1="40" x2="549.6" y2="40"/>
<rect x="6.6" y="8" class="st2" width="154.5" height="64.4"/>
<rect x="183.8" y="8" class="st2" width="154.5" height="64.4"/>
<rect x="361.5" y="8" class="st2" width="154.5" height="64.4"/>
<rect x="537.9" y="8" class="st2" width="154.5" height="64.4"/>
<rect x="6.6" y="88.6" class="st2" width="685.9" height="169.2"/>
<g>
	<path d="M53.7,44.4l-3-9.2H52l1.4,4.6c0.4,1.2,0.7,2.4,1,3.5l0,0c0.3-1.1,0.6-2.2,1.1-3.4l1.6-4.6h1.3l-3.3,9.2L53.7,44.4
		L53.7,44.4z"/>
	<path d="M67.1,40.3c-0.1-1.3-0.2-2.8-0.1-4l0,0c-0.3,1.1-0.7,2.2-1.2,3.5l-1.6,4.5h-0.9l-1.5-4.4c-0.4-1.3-0.8-2.5-1.1-3.6l0,0
		c0,1.2-0.1,2.7-0.2,4.1l-0.2,4h-1.1l0.6-9.2h1.5l1.6,4.5c0.4,1.1,0.7,2.2,0.9,3.1l0,0c0.2-0.9,0.6-1.9,1-3.1l1.6-4.5h1.5l0.6,9.2
		h-1.2L67.1,40.3z"/>
	<path d="M74.4,35.2v9.2h-1.2v-9.2H74.4z"/>
	<path d="M76.6,39.6c0-0.7,0-1.2-0.1-1.8h1.1l0.1,1.1l0,0c0.3-0.6,1.1-1.2,2.2-1.2c0.9,0,2.3,0.5,2.3,2.8v4H81v-3.8
		c0-1.1-0.4-2-1.5-2c-0.8,0-1.4,0.6-1.6,1.2c0,0.1-0.1,0.3-0.1,0.5v4h-1.2C76.6,44.4,76.6,39.6,76.6,39.6z"/>
	<path d="M84.1,43.2c0.4,0.2,1,0.5,1.6,0.5c0.9,0,1.3-0.4,1.3-1s-0.3-0.9-1.2-1.2c-1.2-0.4-1.8-1.1-1.8-1.9c0-1.1,0.9-1.9,2.3-1.9
		c0.7,0,1.3,0.2,1.6,0.4L87.6,39c-0.3-0.2-0.7-0.4-1.4-0.4c-0.7,0-1.1,0.4-1.1,0.9s0.4,0.8,1.3,1.1c1.2,0.4,1.7,1,1.7,2
		c0,1.2-0.9,2-2.5,2c-0.7,0-1.4-0.2-1.9-0.5L84.1,43.2z"/>
	<path d="M91.1,35.9v1.9h1.7v0.9h-1.7v3.6c0,0.8,0.2,1.3,0.9,1.3c0.3,0,0.5,0,0.7-0.1l0.1,0.9c-0.2,0.1-0.6,0.2-1.1,0.2
		c-0.6,0-1-0.2-1.3-0.5c-0.3-0.4-0.5-0.9-0.5-1.7v-3.6h-1v-0.9h1v-1.7L91.1,35.9z"/>
	<path d="M97.9,44.4l-0.1-0.8l0,0c-0.4,0.5-1.1,1-2,1c-1.3,0-2-0.9-2-1.9c0-1.6,1.4-2.5,4-2.5v-0.1c0-0.5-0.2-1.5-1.5-1.5
		c-0.6,0-1.3,0.2-1.7,0.5l-0.4-0.9c0.5-0.4,1.3-0.6,2.2-0.6c2,0,2.5,1.4,2.5,2.7v2.5c0,0.6,0,1.1,0.1,1.6H97.9z M97.7,41
		c-1.3,0-2.8,0.2-2.8,1.5c0,0.8,0.5,1.2,1.1,1.2c0.9,0,1.4-0.5,1.6-1.1c0-0.1,0.1-0.3,0.1-0.4C97.7,42.2,97.7,41,97.7,41z"/>
	<path d="M100.8,39.6c0-0.7,0-1.2-0.1-1.8h1.1l0.1,1.1l0,0c0.3-0.6,1.1-1.2,2.2-1.2c0.9,0,2.3,0.5,2.3,2.8v4h-1.2v-3.8
		c0-1.1-0.4-2-1.5-2c-0.8,0-1.4,0.6-1.6,1.2c-0.1,0.2-0.1,0.4-0.1,0.6v4h-1.2C100.8,44.5,100.8,39.6,100.8,39.6z"/>
	<path d="M113.2,44.2c-0.3,0.2-1,0.4-1.9,0.4c-2,0-3.3-1.4-3.3-3.4s1.4-3.5,3.6-3.5c0.7,0,1.3,0.2,1.7,0.3l-0.3,0.9
		c-0.3-0.2-0.7-0.3-1.4-0.3c-1.5,0-2.3,1.1-2.3,2.5c0,1.5,1,2.5,2.3,2.5c0.7,0,1.1-0.2,1.5-0.3L113.2,44.2z"/>
	<path d="M115.2,41.3c0,1.6,1.1,2.3,2.3,2.3c0.9,0,1.4-0.2,1.8-0.3l0.2,0.9c-0.4,0.2-1.2,0.4-2.2,0.4c-2,0-3.3-1.3-3.3-3.3
		s1.2-3.6,3.1-3.6c2.2,0,2.7,1.9,2.7,3.1c0,0.2,0,0.4,0,0.6h-4.6V41.3z M118.7,40.4c0-0.8-0.3-2-1.7-2c-1.2,0-1.8,1.1-1.9,2H118.7z"
		/>
</g>
<g>
	<path d="M229.8,44.4l-3-9.2h1.3l1.4,4.6c0.4,1.2,0.7,2.4,1,3.5l0,0c0.3-1.1,0.6-2.2,1.1-3.4l1.6-4.6h1.3l-3.3,9.2L229.8,44.4
		L229.8,44.4z"/>
	<path d="M243.3,40.3c-0.1-1.3-0.2-2.8-0.1-4l0,0c-0.3,1.1-0.7,2.2-1.2,3.5l-1.6,4.5h-0.9l-1.5-4.4c-0.4-1.3-0.8-2.5-1.1-3.6l0,0
		c0,1.2-0.1,2.7-0.2,4.1l-0.2,4h-1.1l0.6-9.2h1.5l1.6,4.5c0.4,1.1,0.7,2.2,0.9,3.1l0,0c0.2-0.9,0.6-1.9,1-3.1l1.6-4.5h1.5l0.6,9.2
		h-1.2L243.3,40.3z"/>
	<path d="M250.6,35.2v9.2h-1.2v-9.2H250.6z"/>
	<path d="M252.8,39.6c0-0.7,0-1.2-0.1-1.8h1.1l0.1,1.1l0,0c0.3-0.6,1.1-1.2,2.2-1.2c0.9,0,2.3,0.5,2.3,2.8v4h-1.2v-3.8
		c0-1.1-0.4-2-1.5-2c-0.8,0-1.4,0.6-1.6,1.2c-0.1,0.2-0.1,0.4-0.1,0.6v4h-1.2L252.8,39.6L252.8,39.6z"/>
	<path d="M260.2,43.2c0.4,0.2,1,0.5,1.6,0.5c0.9,0,1.3-0.4,1.3-1s-0.3-0.9-1.2-1.2c-1.2-0.4-1.8-1.1-1.8-1.9c0-1.1,0.9-1.9,2.3-1.9
		c0.7,0,1.3,0.2,1.6,0.4l-0.3,0.9c-0.3-0.2-0.7-0.4-1.4-0.4c-0.7,0-1.1,0.4-1.1,0.9s0.4,0.8,1.3,1.1c1.2,0.4,1.7,1,1.7,2
		c0,1.2-0.9,2-2.5,2c-0.7,0-1.4-0.2-1.9-0.5L260.2,43.2z"/>
	<path d="M267.3,35.9v1.9h1.7v0.9h-1.7v3.6c0,0.8,0.2,1.3,0.9,1.3c0.3,0,0.5,0,0.7-0.1l0.1,0.9c-0.2,0.1-0.6,0.2-1.1,0.2
		c-0.6,0-1-0.2-1.3-0.5c-0.3-0.4-0.5-0.9-0.5-1.7v-3.6h-1v-0.9h1v-1.7L267.3,35.9z"/>
	<path d="M274.1,44.4l-0.1-0.8l0,0c-0.4,0.5-1.1,1-2,1c-1.3,0-2-0.9-2-1.9c0-1.6,1.4-2.5,4-2.5v-0.1c0-0.5-0.2-1.5-1.5-1.5
		c-0.6,0-1.3,0.2-1.7,0.5l-0.3-0.8c0.5-0.4,1.3-0.6,2.2-0.6c2,0,2.5,1.4,2.5,2.7v2.5c0,0.6,0,1.1,0.1,1.6h-1.2V44.4z M273.9,41
		c-1.3,0-2.8,0.2-2.8,1.5c0,0.8,0.5,1.2,1.1,1.2c0.9,0,1.4-0.5,1.6-1.1c0-0.1,0.1-0.3,0.1-0.4L273.9,41L273.9,41z"/>
	<path d="M277,39.6c0-0.7,0-1.2-0.1-1.8h1.1l0.1,1.1l0,0c0.3-0.6,1.1-1.2,2.2-1.2c0.9,0,2.3,0.5,2.3,2.8v4h-1.2v-3.8
		c0-1.1-0.4-2-1.5-2c-0.8,0-1.4,0.6-1.6,1.2c-0.1,0.2-0.1,0.4-0.1,0.6v4H277V39.6L277,39.6z"/>
	<path d="M289.3,44.2c-0.3,0.2-1,0.4-1.9,0.4c-2,0-3.3-1.4-3.3-3.4s1.4-3.5,3.6-3.5c0.7,0,1.3,0.2,1.7,0.3l-0.3,0.9
		c-0.3-0.2-0.7-0.3-1.4-0.3c-1.5,0-2.3,1.1-2.3,2.5c0,1.5,1,2.5,2.3,2.5c0.7,0,1.1-0.2,1.5-0.3L289.3,44.2z"/>
	<path d="M291.3,41.3c0,1.6,1.1,2.3,2.3,2.3c0.9,0,1.4-0.2,1.8-0.3l0.2,0.9c-0.4,0.2-1.2,0.4-2.2,0.4c-2,0-3.3-1.3-3.3-3.3
		s1.2-3.6,3.1-3.6c2.2,0,2.7,1.9,2.7,3.1c0,0.2,0,0.4,0,0.6h-4.6V41.3z M294.9,40.4c0-0.8-0.3-2-1.7-2c-1.2,0-1.8,1.1-1.9,2H294.9z"
		/>
</g>
<g>
	<path d="M410.6,44.4l-3-9.2h1.3l1.4,4.6c0.4,1.2,0.7,2.4,1,3.5l0,0c0.3-1.1,0.6-2.2,1.1-3.4l1.6-4.6h1.3l-3.3,9.2L410.6,44.4
		L410.6,44.4z"/>
	<path d="M424,40.3c-0.1-1.3-0.2-2.8-0.1-4l0,0c-0.3,1.1-0.7,2.2-1.2,3.5l-1.6,4.5h-0.9l-1.5-4.4c-0.4-1.3-0.8-2.5-1.1-3.6l0,0
		c0,1.2-0.1,2.7-0.2,4.1l-0.2,4h-1.1l0.6-9.2h1.5l1.6,4.5c0.4,1.1,0.7,2.2,0.9,3.1l0,0c0.2-0.9,0.6-1.9,1-3.1l1.6-4.5h1.5l0.6,9.2
		h-1.2L424,40.3z"/>
	<path d="M431.3,35.2v9.2h-1.2v-9.2H431.3z"/>
	<path d="M433.5,39.6c0-0.7,0-1.2-0.1-1.8h1.1l0.1,1.1l0,0c0.3-0.6,1.1-1.2,2.2-1.2c0.9,0,2.3,0.5,2.3,2.8v4h-1.2v-3.8
		c0-1.1-0.4-2-1.5-2c-0.8,0-1.4,0.6-1.6,1.2c-0.1,0.2-0.1,0.4-0.1,0.6v4h-1.2L433.5,39.6L433.5,39.6z"/>
	<path d="M441,43.2c0.4,0.2,1,0.5,1.6,0.5c0.9,0,1.3-0.4,1.3-1s-0.3-0.9-1.2-1.2c-1.2-0.4-1.8-1.1-1.8-1.9c0-1.1,0.9-1.9,2.3-1.9
		c0.7,0,1.3,0.2,1.6,0.4l-0.3,0.9c-0.3-0.2-0.7-0.4-1.4-0.4c-0.7,0-1.1,0.4-1.1,0.9s0.4,0.8,1.3,1.1c1.2,0.4,1.7,1,1.7,2
		c0,1.2-0.9,2-2.5,2c-0.7,0-1.4-0.2-1.9-0.5L441,43.2z"/>
	<path d="M448,35.9v1.9h1.7v0.9H448v3.6c0,0.8,0.2,1.3,0.9,1.3c0.3,0,0.5,0,0.7-0.1l0.1,0.9c-0.2,0.1-0.6,0.2-1.1,0.2
		c-0.6,0-1-0.2-1.3-0.5c-0.3-0.4-0.5-0.9-0.5-1.7v-3.6h-1v-0.9h1v-1.7L448,35.9z"/>
	<path d="M454.8,44.4l-0.1-0.8l0,0c-0.4,0.5-1.1,1-2,1c-1.3,0-2-0.9-2-1.9c0-1.6,1.4-2.5,4-2.5v-0.1c0-0.5-0.2-1.5-1.5-1.5
		c-0.6,0-1.3,0.2-1.7,0.5l-0.3-0.8c0.5-0.4,1.3-0.6,2.2-0.6c2,0,2.5,1.4,2.5,2.7v2.5c0,0.6,0,1.1,0.1,1.6h-1.2V44.4z M454.6,41
		c-1.3,0-2.8,0.2-2.8,1.5c0,0.8,0.5,1.2,1.1,1.2c0.9,0,1.4-0.5,1.6-1.1c0-0.1,0.1-0.3,0.1-0.4L454.6,41L454.6,41z"/>
	<path d="M457.7,39.6c0-0.7,0-1.2-0.1-1.8h1.1l0.1,1.1l0,0c0.3-0.6,1.1-1.2,2.2-1.2c0.9,0,2.3,0.5,2.3,2.8v4h-1.2v-3.8
		c0-1.1-0.4-2-1.5-2c-0.8,0-1.4,0.6-1.6,1.2c-0.1,0.2-0.1,0.4-0.1,0.6v4h-1.2L457.7,39.6L457.7,39.6z"/>
	<path d="M470.1,44.2c-0.3,0.2-1,0.4-1.9,0.4c-2,0-3.3-1.4-3.3-3.4s1.4-3.5,3.6-3.5c0.7,0,1.3,0.2,1.7,0.3l-0.3,0.9
		c-0.3-0.2-0.7-0.3-1.4-0.3c-1.5,0-2.3,1.1-2.3,2.5c0,1.5,1,2.5,2.3,2.5c0.7,0,1.1-0.2,1.5-0.3L470.1,44.2z"/>
	<path d="M472.1,41.3c0,1.6,1.1,2.3,2.3,2.3c0.9,0,1.4-0.2,1.8-0.3l0.2,0.9c-0.4,0.2-1.2,0.4-2.2,0.4c-2,0-3.3-1.3-3.3-3.3
		s1.2-3.6,3.1-3.6c2.2,0,2.7,1.9,2.7,3.1c0,0.2,0,0.4,0,0.6h-4.6V41.3z M475.6,40.4c0-0.8-0.3-2-1.7-2c-1.2,0-1.8,1.1-1.9,2H475.6z"
		/>
</g>
<g>
	<path d="M581.6,44.4l-3-9.2h1.3l1.4,4.6c0.4,1.2,0.7,2.4,1,3.5l0,0c0.3-1.1,0.6-2.2,1.1-3.4l1.6-4.6h1.3l-3.3,9.2L581.6,44.4
		L581.6,44.4z"/>
	<path d="M595,40.3c-0.1-1.3-0.2-2.8-0.1-4l0,0c-0.3,1.1-0.7,2.2-1.2,3.5l-1.6,4.5h-0.9l-1.5-4.4c-0.4-1.3-0.8-2.5-1.1-3.6l0,0
		c0,1.2-0.1,2.7-0.2,4.1l-0.2,4h-1.1l0.6-9.2h1.5l1.6,4.5c0.4,1.1,0.7,2.2,0.9,3.1l0,0c0.2-0.9,0.6-1.9,1-3.1l1.6-4.5h1.5l0.6,9.2
		h-1.2L595,40.3z"/>
	<path d="M602.4,35.2v9.2h-1.2v-9.2H602.4z"/>
	<path d="M604.6,39.6c0-0.7,0-1.2-0.1-1.8h1.1l0.1,1.1l0,0c0.3-0.6,1.1-1.2,2.2-1.2c0.9,0,2.3,0.5,2.3,2.8v4H609v-3.8
		c0-1.1-0.4-2-1.5-2c-0.8,0-1.4,0.6-1.6,1.2c-0.1,0.2-0.1,0.4-0.1,0.6v4h-1.2L604.6,39.6L604.6,39.6z"/>
	<path d="M612,43.2c0.4,0.2,1,0.5,1.6,0.5c0.9,0,1.3-0.4,1.3-1s-0.3-0.9-1.2-1.2c-1.2-0.4-1.8-1.1-1.8-1.9c0-1.1,0.9-1.9,2.3-1.9
		c0.7,0,1.3,0.2,1.6,0.4l-0.3,0.9c-0.3-0.2-0.7-0.4-1.4-0.4S613,39,613,39.5s0.4,0.8,1.3,1.1c1.2,0.4,1.7,1,1.7,2c0,1.2-0.9,2-2.5,2
		c-0.7,0-1.4-0.2-1.9-0.5L612,43.2z"/>
	<path d="M619.1,35.9v1.9h1.7v0.9h-1.7v3.6c0,0.8,0.2,1.3,0.9,1.3c0.3,0,0.5,0,0.7-0.1l0.1,0.9c-0.2,0.1-0.6,0.2-1.1,0.2
		c-0.6,0-1-0.2-1.3-0.5c-0.3-0.4-0.5-0.9-0.5-1.7v-3.6h-1v-0.9h1v-1.7L619.1,35.9z"/>
	<path d="M625.8,44.4l-0.1-0.8l0,0c-0.4,0.5-1.1,1-2,1c-1.3,0-2-0.9-2-1.9c0-1.6,1.4-2.5,4-2.5v-0.1c0-0.5-0.2-1.5-1.5-1.5
		c-0.6,0-1.3,0.2-1.7,0.5l-0.3-0.8c0.5-0.4,1.3-0.6,2.2-0.6c2,0,2.5,1.4,2.5,2.7v2.5c0,0.6,0,1.1,0.1,1.6h-1.2V44.4z M625.6,41
		c-1.3,0-2.8,0.2-2.8,1.5c0,0.8,0.5,1.2,1.1,1.2c0.9,0,1.4-0.5,1.6-1.1c0-0.1,0.1-0.3,0.1-0.4L625.6,41L625.6,41z"/>
	<path d="M628.8,39.6c0-0.7,0-1.2-0.1-1.8h1.1l0.1,1.1l0,0c0.3-0.6,1.1-1.2,2.2-1.2c0.9,0,2.3,0.5,2.3,2.8v4h-1.2v-3.8
		c0-1.1-0.4-2-1.5-2c-0.8,0-1.4,0.6-1.6,1.2c-0.1,0.2-0.1,0.4-0.1,0.6v4h-1.2V39.6z"/>
	<path d="M641.1,44.2c-0.3,0.2-1,0.4-1.9,0.4c-2,0-3.3-1.4-3.3-3.4s1.4-3.5,3.6-3.5c0.7,0,1.3,0.2,1.7,0.3l-0.3,0.9
		c-0.3-0.2-0.7-0.3-1.4-0.3c-1.5,0-2.3,1.1-2.3,2.5c0,1.5,1,2.5,2.3,2.5c0.7,0,1.1-0.2,1.5-0.3L641.1,44.2z"/>
	<path d="M643.1,41.3c0,1.6,1.1,2.3,2.3,2.3c0.9,0,1.4-0.2,1.8-0.3l0.2,0.9c-0.4,0.2-1.2,0.4-2.2,0.4c-2,0-3.3-1.3-3.3-3.3
		s1.2-3.6,3.1-3.6c2.2,0,2.7,1.9,2.7,3.1c0,0.2,0,0.4,0,0.6h-4.6V41.3z M646.6,40.4c0-0.8-0.3-2-1.7-2c-1.2,0-1.8,1.1-1.9,2H646.6z"
		/>
</g>
<g>
	<path d="M185.8,156.7v4.7h5.5v-4.7h1.5v11.2h-1.5v-5.2h-5.5v5.2h-1.5v-11.2H185.8z"/>
	<path d="M197,157.6c0,0.5-0.4,0.9-1,0.9c-0.5,0-0.9-0.4-0.9-0.9s0.4-1,1-1C196.7,156.6,197,157.1,197,157.6z M195.4,167.9v-8h1.5v8
		H195.4z"/>
	<path d="M206.2,159.9c0,0.6-0.1,1.2-0.1,2.2v4.7c0,1.8-0.4,3-1.1,3.6c-0.7,0.7-1.9,1-2.9,1s-2.1-0.2-2.7-0.6l0.4-1.1
		c0.5,0.4,1.3,0.6,2.3,0.6c1.5,0,2.6-0.7,2.6-2.8v-0.9l0,0c-0.5,0.7-1.3,1.3-2.6,1.3c-1.9,0-3.4-1.7-3.4-3.9c0-2.7,1.8-4.3,3.6-4.3
		c1.5,0,2.2,0.7,2.6,1.5l0,0l0.1-1.2h1.2L206.2,159.9L206.2,159.9z M204.7,163.1c0-0.2,0-0.5-0.1-0.6c-0.2-0.9-1-1.6-2.1-1.6
		c-1.5,0-2.4,1.2-2.4,3c0,1.6,0.9,2.9,2.4,2.9c0.9,0,1.7-0.6,2.1-1.5c0.1-0.2,0.1-0.5,0.1-0.7V163.1z"/>
	<path d="M208.6,156.1h1.5v5l0,0c0.2-0.4,0.6-0.7,1.1-1s1-0.4,1.5-0.4c1.1,0,2.8,0.6,2.8,3.4v4.9H214v-4.6c0-1.3-0.5-2.4-1.8-2.4
		c-1,0-1.7,0.6-1.9,1.5c-0.1,0.2-0.1,0.4-0.1,0.7v4.9h-1.5L208.6,156.1L208.6,156.1z"/>
	<path d="M217.9,156.1h1.5v11.8h-1.5V156.1z"/>
	<path d="M222.4,159.9l1.8,4.7c0.2,0.5,0.4,1.2,0.5,1.7l0,0c0.1-0.5,0.4-1.1,0.5-1.7l1.6-4.7h1.6l-2.2,5.7c-1.1,2.8-1.8,4.1-2.8,5.1
		c-0.7,0.6-1.5,0.9-1.8,1l-0.4-1.2c0.4-0.1,0.9-0.4,1.3-0.7c0.4-0.4,0.9-0.9,1.2-1.6c0.1-0.1,0.1-0.2,0.1-0.4c0-0.1,0-0.2-0.1-0.4
		l-3-7.4h1.7L222.4,159.9L222.4,159.9z"/>
	<path d="M235,164.4l-1.2,3.5h-1.5l3.8-11.2h1.7l3.9,11.2h-1.6l-1.2-3.5H235z M238.8,163.3l-1.1-3.3c-0.2-0.7-0.4-1.5-0.6-2.1l0,0
		c-0.1,0.6-0.4,1.3-0.6,2.1l-1.1,3.3H238.8z"/>
	<path d="M243.6,159.9l1.6,4.5c0.2,0.7,0.5,1.5,0.6,2.1l0,0c0.2-0.6,0.4-1.3,0.7-2.1l1.6-4.5h1.6l-3.2,8H245l-3-8H243.6z"/>
	<path d="M255.4,167.9l-0.1-1l0,0c-0.5,0.6-1.3,1.2-2.4,1.2c-1.6,0-2.4-1.1-2.4-2.3c0-1.9,1.7-3,4.9-3v-0.1c0-0.6-0.2-1.8-1.8-1.8
		c-0.7,0-1.6,0.2-2.1,0.6l-0.4-1c0.6-0.5,1.6-0.7,2.7-0.7c2.4,0,3,1.7,3,3.3v3c0,0.7,0,1.3,0.1,1.9L255.4,167.9L255.4,167.9z
		 M255.2,163.8c-1.6,0-3.4,0.2-3.4,1.8c0,1,0.6,1.5,1.3,1.5c1.1,0,1.7-0.6,1.9-1.3c0-0.1,0.1-0.4,0.1-0.5L255.2,163.8L255.2,163.8z"
		/>
	<path d="M262.9,156.1h1.5v11.8h-1.5V156.1z"/>
	<path d="M260.7,157.6c0,0.5-0.4,0.9-1,0.9c-0.5,0-0.9-0.4-0.9-0.9s0.4-1,1-1C260.5,156.6,260.7,157.1,260.7,157.6z M259.1,167.9v-8
		h1.5v8H259.1z"/>
	<path d="M271.3,167.9l-0.1-1l0,0c-0.5,0.6-1.3,1.2-2.4,1.2c-1.6,0-2.4-1.1-2.4-2.3c0-1.9,1.7-3,4.9-3v-0.1c0-0.6-0.2-1.8-1.8-1.8
		c-0.7,0-1.6,0.2-2.1,0.6l-0.4-1c0.6-0.5,1.6-0.7,2.7-0.7c2.4,0,3,1.7,3,3.3v3c0,0.7,0,1.3,0.1,1.9L271.3,167.9L271.3,167.9z
		 M271.1,163.8c-1.6,0-3.4,0.2-3.4,1.8c0,1,0.6,1.5,1.3,1.5c1.1,0,1.7-0.6,1.9-1.3c0-0.1,0.1-0.4,0.1-0.5L271.1,163.8L271.1,163.8z"
		/>
	<path d="M274.8,167.9c0-0.6,0.1-1.3,0.1-2.1v-9.7h1.5v5.1l0,0c0.5-0.9,1.5-1.5,2.8-1.5c1.9,0,3.4,1.7,3.4,4.1
		c0,2.9-1.8,4.4-3.6,4.4c-1.2,0-2.1-0.5-2.7-1.5l0,0l-0.1,1.3h-1.4L274.8,167.9L274.8,167.9z M276.3,164.6c0,0.2,0,0.4,0.1,0.5
		c0.2,1,1.1,1.7,2.2,1.7c1.6,0,2.4-1.2,2.4-3.2c0-1.6-0.9-3-2.4-3c-1,0-1.9,0.7-2.2,1.8c0,0.1-0.1,0.4-0.1,0.6V164.6z"/>
	<path d="M284.3,156.1h1.5v11.8h-1.5V156.1z"/>
	<path d="M289.1,164.1c0,1.9,1.3,2.8,2.8,2.8c1.1,0,1.7-0.2,2.2-0.4l0.2,1.1c-0.5,0.2-1.5,0.5-2.7,0.5c-2.4,0-4-1.6-4-4
		s1.5-4.4,3.8-4.4c2.7,0,3.3,2.3,3.3,3.8c0,0.2,0,0.5,0,0.7h-5.6L289.1,164.1L289.1,164.1z M293.4,163.1c0-1-0.4-2.4-2.1-2.4
		c-1.5,0-2.2,1.3-2.3,2.4H293.4z"/>
	<path d="M300.2,156.9c0.7-0.1,1.6-0.2,2.8-0.2c1.5,0,2.4,0.4,3.2,1c0.6,0.5,1,1.3,1,2.3s-0.2,1.8-0.9,2.4c-0.7,0.9-2.1,1.2-3.4,1.2
		c-0.5,0-0.9,0-1.2-0.1v4.5h-1.5V156.9L300.2,156.9z M301.7,162.2c0.4,0.1,0.7,0.1,1.2,0.1c1.7,0,2.8-0.9,2.8-2.4s-1.1-2.2-2.7-2.2
		c-0.6,0-1.1,0-1.3,0.1V162.2L301.7,162.2z"/>
	<path d="M309.5,164.1c0,1.9,1.3,2.8,2.8,2.8c1.1,0,1.7-0.2,2.2-0.4l0.2,1.1c-0.5,0.2-1.5,0.5-2.7,0.5c-2.4,0-4-1.6-4-4
		s1.5-4.4,3.8-4.4c2.7,0,3.3,2.3,3.3,3.8c0,0.2,0,0.5,0,0.7h-5.6L309.5,164.1L309.5,164.1z M313.7,163.1c0-1-0.4-2.4-2.1-2.4
		c-1.5,0-2.2,1.3-2.3,2.4H313.7z"/>
	<path d="M317,162.3c0-1,0-1.8-0.1-2.6h1.3v1.6h0.1c0.4-1.1,1.2-1.8,2.2-1.8c0.1,0,0.2,0,0.4,0v1.3c-0.1,0-0.2,0-0.5,0
		c-1.1,0-1.8,0.7-1.9,1.9c0,0.2-0.1,0.5-0.1,0.7v4.3h-1.3L317,162.3L317,162.3z"/>
	<path d="M322.2,166.5c0.5,0.2,1.2,0.6,1.9,0.6c1.1,0,1.6-0.5,1.6-1.2s-0.4-1.1-1.5-1.5c-1.5-0.5-2.2-1.3-2.2-2.3
		c0-1.3,1.1-2.3,2.8-2.3c0.9,0,1.6,0.2,1.9,0.5l-0.4,1.1c-0.4-0.2-0.9-0.5-1.7-0.5c-0.9,0-1.3,0.5-1.3,1.1s0.5,1,1.6,1.3
		c1.5,0.5,2.1,1.2,2.1,2.4c0,1.5-1.1,2.4-3,2.4c-0.9,0-1.7-0.2-2.3-0.6L322.2,166.5z"/>
	<path d="M330.6,157.6c0,0.5-0.4,0.9-1,0.9c-0.5,0-0.9-0.4-0.9-0.9s0.4-1,1-1S330.6,157.1,330.6,157.6z M329,167.9v-8h1.5v8H329z"/>
	<path d="M332.7,166.5c0.5,0.2,1.2,0.6,1.9,0.6c1.1,0,1.6-0.5,1.6-1.2s-0.4-1.1-1.5-1.5c-1.5-0.5-2.2-1.3-2.2-2.3
		c0-1.3,1.1-2.3,2.8-2.3c0.9,0,1.6,0.2,1.9,0.5l-0.4,1.1c-0.4-0.2-0.9-0.5-1.7-0.5c-0.9,0-1.3,0.5-1.3,1.1s0.5,1,1.6,1.3
		c1.5,0.5,2.1,1.2,2.1,2.4c0,1.5-1.1,2.4-3,2.4c-0.9,0-1.7-0.2-2.3-0.6L332.7,166.5z"/>
	<path d="M341.3,157.6v2.3h2.1v1.1h-2.1v4.4c0,1,0.2,1.6,1.1,1.6c0.4,0,0.6,0,0.9-0.1l0.1,1.1c-0.2,0.1-0.7,0.2-1.3,0.2
		c-0.7,0-1.2-0.2-1.6-0.6c-0.4-0.5-0.6-1.1-0.6-2.1v-4.4h-1.2V160h1.2v-1.9L341.3,157.6z"/>
	<path d="M345.8,164.1c0,1.9,1.3,2.8,2.8,2.8c1.1,0,1.7-0.2,2.2-0.4l0.2,1.1c-0.5,0.2-1.5,0.5-2.7,0.5c-2.4,0-4-1.6-4-4
		s1.5-4.4,3.8-4.4c2.7,0,3.3,2.3,3.3,3.8c0,0.2,0,0.5,0,0.7h-5.6L345.8,164.1L345.8,164.1z M350.1,163.1c0-1-0.4-2.4-2.1-2.4
		c-1.5,0-2.2,1.3-2.3,2.4H350.1z"/>
	<path d="M353.3,162.1c0-0.9,0-1.5-0.1-2.2h1.3l0.1,1.3l0,0c0.4-0.7,1.3-1.5,2.7-1.5c1.1,0,2.8,0.6,2.8,3.4v4.9h-1.5v-4.6
		c0-1.3-0.5-2.4-1.8-2.4c-1,0-1.7,0.7-1.9,1.5c-0.1,0.2-0.1,0.5-0.1,0.7v4.9h-1.5V162.1L353.3,162.1z"/>
	<path d="M364.3,157.6v2.3h2.1v1.1h-2.1v4.4c0,1,0.2,1.6,1.1,1.6c0.4,0,0.6,0,0.9-0.1l0.1,1.1c-0.2,0.1-0.7,0.2-1.3,0.2
		c-0.7,0-1.2-0.2-1.6-0.6c-0.4-0.5-0.6-1.1-0.6-2.1v-4.4h-1.2V160h1.2v-1.9L364.3,157.6z"/>
	<path d="M371.4,166.1c0.6,0.4,1.6,0.7,2.6,0.7c1.5,0,2.3-0.7,2.3-1.9c0-1.1-0.6-1.7-2.1-2.2c-1.8-0.6-2.9-1.6-2.9-3.2
		c0-1.7,1.5-3,3.6-3c1.1,0,1.9,0.2,2.4,0.6l-0.4,1.2c-0.4-0.2-1.1-0.5-2.2-0.5c-1.6,0-2.1,1-2.1,1.7c0,1.1,0.7,1.6,2.2,2.2
		c1.9,0.7,2.9,1.7,2.9,3.3c0,1.7-1.3,3.3-3.9,3.3c-1.1,0-2.3-0.4-2.9-0.7L371.4,166.1z"/>
	<path d="M381.5,157.6v2.3h2.1v1.1h-2.1v4.4c0,1,0.2,1.6,1.1,1.6c0.4,0,0.6,0,0.9-0.1l0.1,1.1c-0.2,0.1-0.7,0.2-1.3,0.2
		c-0.7,0-1.2-0.2-1.6-0.6c-0.4-0.5-0.6-1.1-0.6-2.1v-4.4h-1.2V160h1.2v-1.9L381.5,157.6z"/>
	<path d="M392.5,163.8c0,3-2.1,4.3-4,4.3c-2.2,0-3.9-1.6-3.9-4.1c0-2.7,1.8-4.3,4-4.3C390.9,159.7,392.5,161.4,392.5,163.8z
		 M386,163.9c0,1.8,1,3.2,2.4,3.2s2.4-1.3,2.4-3.2c0-1.3-0.7-3.2-2.4-3.2S386,162.3,386,163.9z"/>
	<path d="M394.3,162.3c0-1,0-1.8-0.1-2.6h1.3v1.6h0.1c0.4-1.1,1.2-1.8,2.2-1.8c0.1,0,0.2,0,0.4,0v1.3c-0.1,0-0.2,0-0.5,0
		c-1.1,0-1.8,0.7-1.9,1.9c0,0.2-0.1,0.5-0.1,0.7v4.3h-1.5v-5.4H394.3z"/>
	<path d="M404.1,167.9l-0.1-1l0,0c-0.5,0.6-1.3,1.2-2.4,1.2c-1.6,0-2.4-1.1-2.4-2.3c0-1.9,1.7-3,4.9-3v-0.1c0-0.6-0.2-1.8-1.8-1.8
		c-0.7,0-1.6,0.2-2.1,0.6l-0.4-1c0.6-0.5,1.6-0.7,2.7-0.7c2.4,0,3,1.7,3,3.3v3c0,0.7,0,1.3,0.1,1.9L404.1,167.9L404.1,167.9
		L404.1,167.9z M403.9,163.8c-1.6,0-3.4,0.2-3.4,1.8c0,1,0.6,1.5,1.3,1.5c1.1,0,1.7-0.6,1.9-1.3c0-0.1,0.1-0.4,0.1-0.5L403.9,163.8
		L403.9,163.8z"/>
	<path d="M414.6,159.9c0,0.6-0.1,1.2-0.1,2.2v4.7c0,1.8-0.4,3-1.1,3.6c-0.7,0.7-1.9,1-2.9,1s-2.1-0.2-2.7-0.6l0.4-1.1
		c0.5,0.4,1.3,0.6,2.3,0.6c1.5,0,2.6-0.7,2.6-2.8v-0.9l0,0c-0.5,0.7-1.3,1.3-2.6,1.3c-1.9,0-3.4-1.7-3.4-3.9c0-2.7,1.8-4.3,3.6-4.3
		c1.5,0,2.2,0.7,2.6,1.5l0,0l0.1-1.2h1.2V159.9z M413.1,163.1c0-0.2,0-0.5-0.1-0.6c-0.2-0.9-1-1.6-2.1-1.6c-1.5,0-2.4,1.2-2.4,3
		c0,1.6,0.9,2.9,2.4,2.9c0.9,0,1.7-0.6,2.1-1.5c0.1-0.2,0.1-0.5,0.1-0.7V163.1z"/>
	<path d="M417.9,164.1c0,1.9,1.3,2.8,2.8,2.8c1.1,0,1.7-0.2,2.2-0.4l0.2,1.1c-0.5,0.2-1.5,0.5-2.7,0.5c-2.4,0-4-1.6-4-4
		s1.5-4.4,3.8-4.4c2.7,0,3.3,2.3,3.3,3.8c0,0.2,0,0.5,0,0.7h-5.6L417.9,164.1L417.9,164.1z M422.1,163.1c0-1-0.4-2.4-2.1-2.4
		c-1.5,0-2.2,1.3-2.3,2.4H422.1z"/>
</g>
<g>
	<g>
		<path d="M477.5,214.6h-4.2v1.7h3.9v1.4h-3.9v2.1h4.4v1.4h-6.1v-8h5.9L477.5,214.6L477.5,214.6z"/>
		<path d="M484.9,214c0.2,0.3,0.4,0.7,0.4,1.2s-0.1,0.9-0.4,1.2c-0.1,0.2-0.3,0.3-0.6,0.5c0.4,0.1,0.7,0.4,0.9,0.7s0.3,0.7,0.3,1.2
			s-0.1,0.9-0.4,1.3c-0.2,0.2-0.3,0.5-0.6,0.6c-0.3,0.2-0.6,0.3-0.9,0.4s-0.7,0.1-1.1,0.1h-3.6v-8h3.9
			C483.9,213.2,484.5,213.5,484.9,214z M480.6,214.6v1.8h1.9c0.3,0,0.6-0.1,0.8-0.2c0.2-0.1,0.3-0.4,0.3-0.7c0-0.4-0.1-0.6-0.4-0.7
			c-0.2-0.1-0.6-0.1-0.9-0.1L480.6,214.6L480.6,214.6z M480.6,217.7v2.1h1.9c0.3,0,0.6,0,0.8-0.1c0.4-0.2,0.5-0.5,0.5-1
			c0-0.4-0.2-0.7-0.5-0.9c-0.2-0.1-0.5-0.1-0.8-0.1H480.6z"/>
		<path d="M488.2,218.7c0.1,0.4,0.2,0.6,0.3,0.8c0.3,0.3,0.8,0.5,1.4,0.5c0.4,0,0.7,0,1-0.1c0.5-0.2,0.7-0.5,0.7-0.9
			c0-0.3-0.1-0.5-0.3-0.6s-0.6-0.3-1.1-0.4l-0.9-0.2c-0.8-0.2-1.4-0.4-1.8-0.6c-0.5-0.4-0.8-0.9-0.8-1.7c0-0.7,0.3-1.3,0.8-1.8
			s1.3-0.7,2.3-0.7c0.9,0,1.6,0.2,2.2,0.7c0.6,0.4,0.9,1.1,0.9,1.9h-1.6c0-0.5-0.2-0.8-0.6-1c-0.3-0.1-0.6-0.2-1-0.2
			s-0.8,0.1-1.1,0.3s-0.4,0.4-0.4,0.7s0.1,0.5,0.4,0.6c0.2,0.1,0.5,0.2,1.1,0.3l1.4,0.3c0.6,0.1,1.1,0.3,1.4,0.6
			c0.5,0.4,0.7,0.9,0.7,1.6s-0.3,1.3-0.8,1.8s-1.4,0.7-2.4,0.7c-1.1,0-1.9-0.2-2.5-0.7s-0.9-1.1-0.9-2L488.2,218.7L488.2,218.7
			L488.2,218.7z"/>
	</g>
	<g>
		<path d="M447.3,230.7h3.5c1,0,1.7,0.3,2.1,0.9c0.2,0.3,0.4,0.7,0.4,1.2s-0.1,0.9-0.4,1.3c-0.2,0.2-0.4,0.3-0.7,0.5
			c0.4,0.2,0.7,0.3,0.9,0.5c0.4,0.4,0.6,0.9,0.6,1.5c0,0.5-0.2,1-0.5,1.4c-0.5,0.6-1.3,1-2.4,1h-3.5V230.7L447.3,230.7z
			 M450.5,234.1c0.5,0,0.8-0.1,1.1-0.2c0.4-0.2,0.6-0.6,0.6-1.1s-0.2-0.9-0.7-1.1c-0.2-0.1-0.6-0.2-1.1-0.2h-2v2.5h2.1V234.1
			L450.5,234.1z M450.9,237.9c0.7,0,1.2-0.2,1.5-0.6c0.2-0.2,0.3-0.6,0.3-0.9c0-0.6-0.3-1-0.8-1.2c-0.3-0.1-0.7-0.2-1.1-0.2h-2.2
			v2.9H450.9L450.9,237.9z"/>
		<path d="M454.9,230.7h1v8.2h-1V230.7z"/>
		<path d="M461.8,233.5c0.5,0.5,0.8,1.3,0.8,2.3s-0.2,1.8-0.7,2.4s-1.2,0.9-2.2,0.9c-0.8,0-1.5-0.3-1.9-0.8
			c-0.5-0.6-0.7-1.3-0.7-2.2c0-1,0.3-1.8,0.8-2.4s1.2-0.9,2-0.9C460.6,232.7,461.2,233,461.8,233.5z M461.1,237.5
			c0.2-0.5,0.4-1.1,0.4-1.7s-0.1-1-0.3-1.4c-0.3-0.6-0.8-0.8-1.4-0.8s-1,0.2-1.3,0.7s-0.4,1-0.4,1.7c0,0.6,0.1,1.2,0.4,1.6
			s0.7,0.6,1.3,0.6C460.4,238.2,460.9,238,461.1,237.5z"/>
		<path d="M467.7,233.2c0.4,0.3,0.7,0.9,0.8,1.7h-1c-0.1-0.4-0.2-0.7-0.4-0.9s-0.6-0.4-1-0.4c-0.6,0-1.1,0.3-1.4,0.9
			c-0.2,0.4-0.3,0.9-0.3,1.5s0.1,1.1,0.4,1.5s0.7,0.6,1.2,0.6c0.4,0,0.7-0.1,1-0.4s0.4-0.6,0.5-1h1c-0.1,0.8-0.4,1.4-0.8,1.7
			c-0.4,0.4-1,0.6-1.7,0.6c-0.8,0-1.4-0.3-1.9-0.9s-0.7-1.3-0.7-2.1c0-1.1,0.3-1.9,0.8-2.5s1.2-0.9,2-0.9
			C466.8,232.7,467.3,232.9,467.7,233.2z"/>
		<path d="M469.5,230.7h1v4.8l2.6-2.5h1.3l-2.3,2.2l2.4,3.8h-1.3l-1.9-3l-0.8,0.8v2.2h-1L469.5,230.7L469.5,230.7z"/>
		<path d="M479.3,236.2c0,0.5,0.1,0.8,0.3,1.1c0.4,0.5,1,0.8,1.9,0.8c0.4,0,0.8-0.1,1.1-0.2c0.6-0.2,1-0.6,1-1.2
			c0-0.4-0.1-0.8-0.4-1s-0.7-0.3-1.3-0.5l-1.1-0.3c-0.7-0.2-1.2-0.3-1.5-0.5c-0.5-0.3-0.8-0.9-0.8-1.5c0-0.7,0.2-1.3,0.7-1.8
			s1.2-0.7,2.1-0.7c0.8,0,1.5,0.2,2.1,0.6c0.6,0.4,0.9,1.1,0.9,2h-1c-0.1-0.4-0.2-0.8-0.3-1c-0.3-0.4-0.9-0.6-1.7-0.6
			c-0.6,0-1.1,0.1-1.4,0.4s-0.4,0.6-0.4,1s0.2,0.7,0.5,0.9c0.2,0.1,0.7,0.3,1.4,0.4l1.1,0.3c0.5,0.1,1,0.3,1.2,0.5
			c0.5,0.4,0.8,0.9,0.8,1.7c0,0.9-0.3,1.6-1,2c-0.6,0.4-1.4,0.6-2.2,0.6c-1,0-1.8-0.3-2.3-0.8c-0.6-0.5-0.8-1.2-0.8-2.1L479.3,236.2
			L479.3,236.2z"/>
		<path d="M486.2,231.2h1v1.7h1v0.8h-1v3.9c0,0.2,0.1,0.3,0.2,0.4c0.1,0,0.2,0.1,0.4,0.1c0,0,0.1,0,0.2,0s0.1,0,0.2,0v0.8
			c-0.1,0-0.2,0.1-0.4,0.1c-0.1,0-0.3,0-0.4,0c-0.5,0-0.8-0.1-1-0.4s-0.3-0.6-0.3-0.9v-4h-0.8v-0.8h0.8L486.2,231.2L486.2,231.2z"/>
		<path d="M493.6,233.5c0.5,0.5,0.8,1.3,0.8,2.3s-0.2,1.8-0.7,2.4s-1.2,0.9-2.2,0.9c-0.8,0-1.5-0.3-1.9-0.8
			c-0.5-0.6-0.7-1.3-0.7-2.2c0-1,0.3-1.8,0.8-2.4s1.2-0.9,2-0.9C492.4,232.7,493,233,493.6,233.5z M492.9,237.5
			c0.2-0.5,0.4-1.1,0.4-1.7s-0.1-1-0.3-1.4c-0.3-0.6-0.8-0.8-1.4-0.8s-1,0.2-1.3,0.7s-0.4,1-0.4,1.7c0,0.6,0.1,1.2,0.4,1.6
			s0.7,0.6,1.3,0.6C492.2,238.2,492.7,238,492.9,237.5z"/>
		<path d="M495.6,232.9h1v1c0.1-0.2,0.3-0.4,0.6-0.7s0.7-0.4,1.1-0.4c0,0,0,0,0.1,0s0.1,0,0.2,0v1.1c-0.1,0-0.1,0-0.2,0
			s-0.1,0-0.2,0c-0.5,0-0.9,0.2-1.2,0.5s-0.4,0.7-0.4,1.1v3.4h-1V232.9L495.6,232.9z"/>
		<path d="M502.6,235.2c0.2,0,0.4-0.1,0.5-0.3c0-0.1,0.1-0.2,0.1-0.4c0-0.3-0.1-0.6-0.4-0.7c-0.2-0.2-0.6-0.2-1-0.2
			c-0.5,0-0.9,0.1-1.1,0.4c-0.1,0.2-0.2,0.4-0.2,0.7h-0.9c0-0.7,0.3-1.3,0.7-1.5c0.5-0.3,1-0.4,1.6-0.4c0.7,0,1.3,0.1,1.7,0.4
			s0.7,0.7,0.7,1.3v3.4c0,0.1,0,0.2,0.1,0.3c0,0.1,0.1,0.1,0.3,0.1c0,0,0.1,0,0.2,0s0.1,0,0.2,0v0.7c-0.2,0-0.3,0.1-0.4,0.1
			s-0.2,0-0.3,0c-0.3,0-0.6-0.1-0.8-0.4c-0.1-0.1-0.1-0.3-0.2-0.6c-0.2,0.3-0.5,0.5-0.9,0.7s-0.8,0.3-1.3,0.3c-0.6,0-1-0.2-1.4-0.5
			s-0.5-0.8-0.5-1.3c0-0.6,0.2-1,0.5-1.3s0.8-0.5,1.4-0.6L502.6,235.2z M500.5,238c0.2,0.2,0.5,0.3,0.8,0.3c0.4,0,0.7-0.1,1-0.2
			c0.6-0.3,0.8-0.7,0.8-1.3V236c-0.1,0.1-0.3,0.1-0.5,0.2s-0.4,0.1-0.6,0.1l-0.6,0.1c-0.4,0-0.6,0.1-0.8,0.2
			c-0.3,0.2-0.5,0.5-0.5,0.8C500.2,237.6,500.3,237.8,500.5,238z"/>
		<path d="M509.1,233.1c0.2,0.1,0.4,0.3,0.6,0.6v-0.8h0.9v5.4c0,0.8-0.1,1.4-0.3,1.8c-0.4,0.8-1.2,1.2-2.4,1.2
			c-0.6,0-1.2-0.1-1.6-0.4c-0.4-0.3-0.7-0.7-0.7-1.4h1c0,0.3,0.1,0.5,0.3,0.6c0.2,0.2,0.6,0.3,1.1,0.3c0.8,0,1.3-0.3,1.5-0.8
			c0.1-0.3,0.2-0.9,0.2-1.7c-0.2,0.3-0.4,0.5-0.7,0.7c-0.3,0.1-0.7,0.2-1.1,0.2c-0.6,0-1.2-0.2-1.7-0.7s-0.7-1.2-0.7-2.3
			c0-1,0.2-1.8,0.7-2.3c0.5-0.6,1.1-0.8,1.8-0.8C508.3,232.8,508.7,232.9,509.1,233.1z M509.2,234.2c-0.3-0.4-0.7-0.5-1.2-0.5
			c-0.7,0-1.2,0.3-1.4,1c-0.1,0.4-0.2,0.8-0.2,1.4c0,0.7,0.1,1.2,0.4,1.5c0.3,0.4,0.6,0.5,1.1,0.5c0.7,0,1.2-0.3,1.5-1
			c0.2-0.4,0.2-0.8,0.2-1.3C509.7,235.1,509.5,234.6,509.2,234.2z"/>
		<path d="M515.8,233c0.4,0.2,0.7,0.5,0.9,0.8s0.3,0.7,0.4,1.1c0.1,0.3,0.1,0.7,0.1,1.3h-4.4c0,0.6,0.2,1.1,0.4,1.5
			c0.3,0.4,0.7,0.6,1.2,0.6s0.9-0.2,1.2-0.5c0.2-0.2,0.3-0.4,0.4-0.7h1c0,0.2-0.1,0.5-0.3,0.7c-0.1,0.3-0.3,0.5-0.5,0.7
			c-0.3,0.3-0.7,0.5-1.1,0.6c-0.2,0.1-0.5,0.1-0.8,0.1c-0.7,0-1.4-0.3-1.9-0.8s-0.8-1.3-0.8-2.3s0.3-1.7,0.8-2.3s1.2-0.9,2-0.9
			C515,232.7,515.4,232.8,515.8,233z M516.2,235.4c0-0.4-0.1-0.8-0.3-1c-0.3-0.5-0.7-0.7-1.4-0.7c-0.5,0-0.8,0.2-1.2,0.5
			c-0.3,0.3-0.5,0.8-0.5,1.3L516.2,235.4L516.2,235.4z"/>
	</g>
	
		<linearGradient id="SVGID_1_" gradientUnits="userSpaceOnUse" x1="451.5806" y1="-714.6" x2="474.2966" y2="-714.6" gradientTransform="matrix(1 0 0 -1 0 -557)">
		<stop  offset="0" style="stop-color:#CCE0F4"/>
		<stop  offset="0" style="stop-color:#CDD8EB"/>
		<stop  offset="0" style="stop-color:#D0C4D1"/>
		<stop  offset="0" style="stop-color:#D5A3A8"/>
		<stop  offset="0" style="stop-color:#DB756F"/>
		<stop  offset="0" style="stop-color:#E05243"/>
		<stop  offset="0.1406" style="stop-color:#E05243"/>
		<stop  offset="0.9947" style="stop-color:#E05243"/>
	</linearGradient>
	<path class="st3" d="M510.6,191.6c-19.7,0-39.4,0-59.1,0c0-0.2,0-0.4,0-0.6c0-21.3,0-42.7,0-64c0-0.9,0-1.9,0-2.8
		c0-0.4,0.1-0.6,0.5-0.6c0.1,0,0.2,0,0.4,0c19,0,38.1,0,57.1,0c0.9,0,0.9,0,0.9,0.9c0,22.1,0,44.2,0.1,66.3
		C510.6,191.1,510.6,191.3,510.6,191.6z"/>
	<g>
		
			<linearGradient id="SVGID_2_" gradientUnits="userSpaceOnUse" x1="452.6" y1="-671" x2="509.3" y2="-671" gradientTransform="matrix(1 0 0 -1 0 -557)">
			<stop  offset="0" style="stop-color:#CCE0F4"/>
			<stop  offset="0" style="stop-color:#CDD8EB"/>
			<stop  offset="0" style="stop-color:#D0C4D1"/>
			<stop  offset="0" style="stop-color:#D5A3A8"/>
			<stop  offset="0" style="stop-color:#DB756F"/>
			<stop  offset="0" style="stop-color:#E05243"/>
			<stop  offset="0.1406" style="stop-color:#E05243"/>
			<stop  offset="0.9947" style="stop-color:#E05243"/>
		</linearGradient>
		<path class="st4" d="M509.2,119.6c-0.3,0-0.5,0-0.7,0c-18.5,0-55.9,0-55.9,0v-0.7v-2.4c0,0,0,0,0-0.1c0.2-0.2,1.5-1.6,1.5-1.6
			l6.6-6.1c0,0,0.5-0.3,0.8-0.3c13.1,0,26.2,0,39.3,0c0.2,0,0.6,0.1,0.8,0.3c2.5,2.5,4.9,5,7.4,7.5c0.1,0.1,0.3,0.3,0.3,0.4
			C509.2,117.6,509.2,118.5,509.2,119.6z"/>
		<g id="darker_bars">
			<rect x="452.6" y="116.5" class="st5" width="56.6" height="3"/>
			<rect x="451.6" y="188.6" class="st5" width="59.1" height="3"/>
		</g>
	</g>
	<g>
		<path id="path12_1_" class="st6" d="M484.7,201.9v-1c0-0.2,0.1-0.3,0.3-0.3h4.5c0.1,0,0.3,0.1,0.3,0.3v0.9c0,0.1-0.1,0.3-0.3,0.6
			l-2.3,3.4c0.9,0,1.8,0.1,2.6,0.6c0.2,0.1,0.2,0.2,0.2,0.4v1.1c0,0.1-0.2,0.3-0.3,0.2c-1.4-0.7-3.2-0.8-4.8,0
			c-0.2,0.1-0.3-0.1-0.3-0.2v-1c0-0.2,0-0.4,0.2-0.7l2.7-3.9h-2.4C484.9,202.1,484.7,202,484.7,201.9"/>
		<path id="path14_1_" class="st6" d="M468.2,208.2h-1.4c-0.1,0-0.2-0.1-0.2-0.2v-7.1c0-0.1,0.1-0.3,0.3-0.3h1.3
			c0.1,0,0.2,0.1,0.3,0.2v0.9l0,0c0.3-0.9,1-1.3,1.8-1.3c0.9,0,1.4,0.4,1.8,1.3c0.3-0.9,1.1-1.3,1.9-1.3c0.6,0,1.2,0.2,1.6,0.8
			s0.3,1.5,0.3,2.2v4.5c0,0.1-0.1,0.3-0.3,0.3h-1.4c-0.1,0-0.2-0.1-0.2-0.3v-3.8c0-0.3,0-1,0-1.3c-0.1-0.5-0.4-0.6-0.8-0.6
			c-0.3,0-0.7,0.2-0.8,0.6s-0.1,1-0.1,1.4v3.8c0,0.1-0.1,0.3-0.3,0.3h-1.4c-0.1,0-0.2-0.1-0.2-0.3v-3.8c0-0.8,0.1-2-0.8-2
			c-1,0-1,1.1-1,2v3.8C468.5,208.1,468.4,208.2,468.2,208.2"/>
		<path id="path16_1_" class="st6" d="M493.7,200.5c2,0,3.2,1.8,3.2,4s-1.2,3.9-3.2,3.9s-3.1-1.8-3.1-3.9
			C490.6,202.2,491.7,200.5,493.7,200.5 M493.7,201.9c-1,0-1.1,1.4-1.1,2.2c0,0.9,0,2.7,1.1,2.7s1.1-1.5,1.1-2.4
			c0-0.6,0-1.3-0.2-1.9C494.4,202.1,494.1,201.9,493.7,201.9"/>
		<path id="path18_1_" class="st6" d="M499.5,208.2h-1.4c-0.1,0-0.2-0.1-0.2-0.3v-7.1c0-0.1,0.1-0.2,0.3-0.2h1.3
			c0.1,0,0.2,0.1,0.2,0.2v1.1l0,0c0.4-1,0.9-1.4,1.9-1.4c0.6,0,1.2,0.2,1.6,0.8s0.4,1.5,0.4,2.2v4.5c0,0.1-0.1,0.2-0.3,0.2h-1.4
			c-0.1,0-0.2-0.1-0.2-0.2v-3.8c0-0.8,0.1-1.9-0.9-1.9c-0.3,0-0.6,0.2-0.8,0.6s-0.2,0.9-0.2,1.3v3.8
			C499.8,208.1,499.6,208.2,499.5,208.2"/>
		<path id="path28_1_" class="st6" d="M481.1,204.8c0,0.5,0,1-0.3,1.5c-0.2,0.4-0.6,0.6-1,0.6c-0.5,0-0.8-0.4-0.8-1
			c0-1.2,1.1-1.4,2.1-1.4L481.1,204.8 M482.5,208.2c-0.1,0.1-0.2,0.1-0.3,0c-0.5-0.4-0.5-0.6-0.8-0.9c-0.8,0.8-1.3,1-2.3,1
			c-1.2,0-2.1-0.7-2.1-2.1c0-1.1,0.6-1.9,1.5-2.3c0.7-0.3,1.8-0.4,2.6-0.5v-0.2c0-0.3,0-0.7-0.2-1s-0.5-0.4-0.8-0.4
			c-0.5,0-1,0.3-1.1,0.8c0,0.1-0.1,0.2-0.2,0.3l-1.3-0.1c-0.1,0-0.2-0.1-0.2-0.3c0.3-1.6,1.8-2.1,3.1-2.1c0.7,0,1.5,0.2,2.1,0.7
			c0.7,0.6,0.6,1.5,0.6,2.4v2.1c0,0.6,0.3,0.9,0.5,1.3c0.1,0.1,0.1,0.3,0,0.4C483.3,207.5,482.8,207.9,482.5,208.2L482.5,208.2"/>
		<path id="path30_1_" class="st6" d="M463.1,204.8c0,0.5,0,1-0.3,1.5c-0.2,0.4-0.6,0.6-1,0.6c-0.5,0-0.8-0.4-0.8-1
			c0-1.2,1.1-1.4,2-1.4L463.1,204.8 M464.4,208.2c-0.1,0.1-0.2,0.1-0.3,0c-0.5-0.4-0.5-0.6-0.8-0.9c-0.8,0.8-1.3,1-2.3,1
			c-1.2,0-2.1-0.7-2.1-2.1c0-1.1,0.6-1.9,1.5-2.3c0.7-0.3,1.8-0.4,2.6-0.5v-0.2c0-0.3,0-0.7-0.2-1s-0.5-0.4-0.8-0.4
			c-0.5,0-1,0.3-1.1,0.8c0,0.1-0.1,0.2-0.2,0.3l-1.3-0.1c-0.1,0-0.2-0.1-0.2-0.3c0.3-1.6,1.8-2.1,3.1-2.1c0.7,0,1.5,0.2,2.1,0.7
			c0.7,0.6,0.6,1.5,0.6,2.4v2.1c0,0.6,0.3,0.9,0.5,1.3c0.1,0.1,0.1,0.3,0,0.4C465.2,207.5,464.7,207.9,464.4,208.2L464.4,208.2"/>
	</g>
</g>
</svg>
