<?xml version="1.0" encoding="utf-8"?>
<!-- Generator: Adobe Illustrator 24.1.0, SVG Export Plug-In . SVG Version: 6.00 Build 0)  -->
<svg version="1.1" id="Layer_1" xmlns="http://www.w3.org/2000/svg" xmlns:xlink="http://www.w3.org/1999/xlink" x="0px" y="0px"
	 viewBox="0 0 700 265" style="enable-background:new 0 0 700 265;" xml:space="preserve">
<style type="text/css">
	.st0{display:none;}
	.st1{fill:none;stroke:#000000;stroke-width:2.5;stroke-miterlimit:10;}
	.st2{fill:#FFFFFF;stroke:#000000;stroke-width:2.5;stroke-miterlimit:10;}
	.st3{fill:url(#SVGID_1_);}
	.st4{fill:url(#SVGID_2_);}
	.st5{fill:#8C3123;}
	.st6{fill-rule:evenodd;clip-rule:evenodd;}
	.st7{fill:#E05243;}
	.st8{fill:#5E1F18;}
	.st9{fill:#F2B0A9;}
</style>
<g class="st0">
	
		<image style="display:inline;overflow:visible;enable-background:new    ;" width="1805" height="368" xlink:href="../../repos/thoughtspot.github.io/images/cloud-vm-storage.png"  transform="matrix(1.0019 0 0 1.0019 -538.2466 -48.6067)">
	</image>
</g>
<g>
	<line class="st1" x1="88.3" y1="95.1" x2="88.3" y2="72.8"/>
	<line class="st1" x1="266.2" y1="95.1" x2="266.2" y2="72.8"/>
	<line class="st1" x1="446.3" y1="95.8" x2="446.3" y2="73.4"/>
	<line class="st1" x1="616.3" y1="97.5" x2="616.3" y2="75.2"/>
</g>
<line class="st1" x1="153" y1="40" x2="549.6" y2="40"/>
<rect x="6.6" y="8" class="st2" width="154.5" height="64.4"/>
<rect x="183.8" y="8" class="st2" width="154.5" height="64.4"/>
<rect x="361.5" y="8" class="st2" width="154.5" height="64.4"/>
<rect x="537.9" y="8" class="st2" width="154.5" height="64.4"/>
<rect x="6.6" y="88.6" class="st2" width="685.9" height="169.2"/>
<g>
	<path d="M53.7,44.4l-3-9.2H52l1.4,4.6c0.4,1.2,0.7,2.4,1,3.5l0,0c0.3-1.1,0.6-2.2,1.1-3.4l1.6-4.6h1.3l-3.3,9.2L53.7,44.4
		L53.7,44.4z"/>
	<path d="M67.1,40.3c-0.1-1.3-0.2-2.8-0.1-4l0,0c-0.3,1.1-0.7,2.2-1.2,3.5l-1.6,4.5h-0.9l-1.5-4.4c-0.4-1.3-0.8-2.5-1.1-3.6l0,0
		c0,1.2-0.1,2.7-0.2,4.1l-0.2,4h-1.1l0.6-9.2h1.5l1.6,4.5c0.4,1.1,0.7,2.2,0.9,3.1l0,0c0.2-0.9,0.6-1.9,1-3.1l1.6-4.5h1.5l0.6,9.2
		h-1.2L67.1,40.3z"/>
	<path d="M74.4,35.2v9.2h-1.2v-9.2H74.4z"/>
	<path d="M76.6,39.6c0-0.7,0-1.2-0.1-1.8h1.1l0.1,1.1l0,0c0.3-0.6,1.1-1.2,2.2-1.2c0.9,0,2.3,0.5,2.3,2.8v4H81v-3.8
		c0-1.1-0.4-2-1.5-2c-0.8,0-1.4,0.6-1.6,1.2c0,0.1-0.1,0.3-0.1,0.5v4h-1.2C76.6,44.4,76.6,39.6,76.6,39.6z"/>
	<path d="M84.1,43.2c0.4,0.2,1,0.5,1.6,0.5c0.9,0,1.3-0.4,1.3-1s-0.3-0.9-1.2-1.2c-1.2-0.4-1.8-1.1-1.8-1.9c0-1.1,0.9-1.9,2.3-1.9
		c0.7,0,1.3,0.2,1.6,0.4L87.6,39c-0.3-0.2-0.7-0.4-1.4-0.4c-0.7,0-1.1,0.4-1.1,0.9s0.4,0.8,1.3,1.1c1.2,0.4,1.7,1,1.7,2
		c0,1.2-0.9,2-2.5,2c-0.7,0-1.4-0.2-1.9-0.5L84.1,43.2z"/>
	<path d="M91.1,35.9v1.9h1.7v0.9h-1.7v3.6c0,0.8,0.2,1.3,0.9,1.3c0.3,0,0.5,0,0.7-0.1l0.1,0.9c-0.2,0.1-0.6,0.2-1.1,0.2
		c-0.6,0-1-0.2-1.3-0.5c-0.3-0.4-0.5-0.9-0.5-1.7v-3.6h-1v-0.9h1v-1.7L91.1,35.9z"/>
	<path d="M97.9,44.4l-0.1-0.8l0,0c-0.4,0.5-1.1,1-2,1c-1.3,0-2-0.9-2-1.9c0-1.6,1.4-2.5,4-2.5v-0.1c0-0.5-0.2-1.5-1.5-1.5
		c-0.6,0-1.3,0.2-1.7,0.5l-0.4-0.9c0.5-0.4,1.3-0.6,2.2-0.6c2,0,2.5,1.4,2.5,2.7v2.5c0,0.6,0,1.1,0.1,1.6H97.9z M97.7,41
		c-1.3,0-2.8,0.2-2.8,1.5c0,0.8,0.5,1.2,1.1,1.2c0.9,0,1.4-0.5,1.6-1.1c0-0.1,0.1-0.3,0.1-0.4C97.7,42.2,97.7,41,97.7,41z"/>
	<path d="M100.8,39.6c0-0.7,0-1.2-0.1-1.8h1.1l0.1,1.1l0,0c0.3-0.6,1.1-1.2,2.2-1.2c0.9,0,2.3,0.5,2.3,2.8v4h-1.2v-3.8
		c0-1.1-0.4-2-1.5-2c-0.8,0-1.4,0.6-1.6,1.2c-0.1,0.2-0.1,0.4-0.1,0.6v4h-1.2C100.8,44.5,100.8,39.6,100.8,39.6z"/>
	<path d="M113.2,44.2c-0.3,0.2-1,0.4-1.9,0.4c-2,0-3.3-1.4-3.3-3.4s1.4-3.5,3.6-3.5c0.7,0,1.3,0.2,1.7,0.3l-0.3,0.9
		c-0.3-0.2-0.7-0.3-1.4-0.3c-1.5,0-2.3,1.1-2.3,2.5c0,1.5,1,2.5,2.3,2.5c0.7,0,1.1-0.2,1.5-0.3L113.2,44.2z"/>
	<path d="M115.2,41.3c0,1.6,1.1,2.3,2.3,2.3c0.9,0,1.4-0.2,1.8-0.3l0.2,0.9c-0.4,0.2-1.2,0.4-2.2,0.4c-2,0-3.3-1.3-3.3-3.3
		s1.2-3.6,3.1-3.6c2.2,0,2.7,1.9,2.7,3.1c0,0.2,0,0.4,0,0.6h-4.6V41.3z M118.7,40.4c0-0.8-0.3-2-1.7-2c-1.2,0-1.8,1.1-1.9,2H118.7z"
		/>
</g>
<g>
	<path d="M229.8,44.4l-3-9.2h1.3l1.4,4.6c0.4,1.2,0.7,2.4,1,3.5l0,0c0.3-1.1,0.6-2.2,1.1-3.4l1.6-4.6h1.3l-3.3,9.2L229.8,44.4
		L229.8,44.4z"/>
	<path d="M243.3,40.3c-0.1-1.3-0.2-2.8-0.1-4l0,0c-0.3,1.1-0.7,2.2-1.2,3.5l-1.6,4.5h-0.9l-1.5-4.4c-0.4-1.3-0.8-2.5-1.1-3.6l0,0
		c0,1.2-0.1,2.7-0.2,4.1l-0.2,4h-1.1l0.6-9.2h1.5l1.6,4.5c0.4,1.1,0.7,2.2,0.9,3.1l0,0c0.2-0.9,0.6-1.9,1-3.1l1.6-4.5h1.5l0.6,9.2
		h-1.2L243.3,40.3z"/>
	<path d="M250.6,35.2v9.2h-1.2v-9.2H250.6z"/>
	<path d="M252.8,39.6c0-0.7,0-1.2-0.1-1.8h1.1l0.1,1.1l0,0c0.3-0.6,1.1-1.2,2.2-1.2c0.9,0,2.3,0.5,2.3,2.8v4h-1.2v-3.8
		c0-1.1-0.4-2-1.5-2c-0.8,0-1.4,0.6-1.6,1.2c-0.1,0.2-0.1,0.4-0.1,0.6v4h-1.2L252.8,39.6L252.8,39.6z"/>
	<path d="M260.2,43.2c0.4,0.2,1,0.5,1.6,0.5c0.9,0,1.3-0.4,1.3-1s-0.3-0.9-1.2-1.2c-1.2-0.4-1.8-1.1-1.8-1.9c0-1.1,0.9-1.9,2.3-1.9
		c0.7,0,1.3,0.2,1.6,0.4l-0.3,0.9c-0.3-0.2-0.7-0.4-1.4-0.4c-0.7,0-1.1,0.4-1.1,0.9s0.4,0.8,1.3,1.1c1.2,0.4,1.7,1,1.7,2
		c0,1.2-0.9,2-2.5,2c-0.7,0-1.4-0.2-1.9-0.5L260.2,43.2z"/>
	<path d="M267.3,35.9v1.9h1.7v0.9h-1.7v3.6c0,0.8,0.2,1.3,0.9,1.3c0.3,0,0.5,0,0.7-0.1l0.1,0.9c-0.2,0.1-0.6,0.2-1.1,0.2
		c-0.6,0-1-0.2-1.3-0.5c-0.3-0.4-0.5-0.9-0.5-1.7v-3.6h-1v-0.9h1v-1.7L267.3,35.9z"/>
	<path d="M274.1,44.4l-0.1-0.8l0,0c-0.4,0.5-1.1,1-2,1c-1.3,0-2-0.9-2-1.9c0-1.6,1.4-2.5,4-2.5v-0.1c0-0.5-0.2-1.5-1.5-1.5
		c-0.6,0-1.3,0.2-1.7,0.5l-0.3-0.8c0.5-0.4,1.3-0.6,2.2-0.6c2,0,2.5,1.4,2.5,2.7v2.5c0,0.6,0,1.1,0.1,1.6h-1.2V44.4z M273.9,41
		c-1.3,0-2.8,0.2-2.8,1.5c0,0.8,0.5,1.2,1.1,1.2c0.9,0,1.4-0.5,1.6-1.1c0-0.1,0.1-0.3,0.1-0.4L273.9,41L273.9,41z"/>
	<path d="M277,39.6c0-0.7,0-1.2-0.1-1.8h1.1l0.1,1.1l0,0c0.3-0.6,1.1-1.2,2.2-1.2c0.9,0,2.3,0.5,2.3,2.8v4h-1.2v-3.8
		c0-1.1-0.4-2-1.5-2c-0.8,0-1.4,0.6-1.6,1.2c-0.1,0.2-0.1,0.4-0.1,0.6v4H277V39.6L277,39.6z"/>
	<path d="M289.3,44.2c-0.3,0.2-1,0.4-1.9,0.4c-2,0-3.3-1.4-3.3-3.4s1.4-3.5,3.6-3.5c0.7,0,1.3,0.2,1.7,0.3l-0.3,0.9
		c-0.3-0.2-0.7-0.3-1.4-0.3c-1.5,0-2.3,1.1-2.3,2.5c0,1.5,1,2.5,2.3,2.5c0.7,0,1.1-0.2,1.5-0.3L289.3,44.2z"/>
	<path d="M291.3,41.3c0,1.6,1.1,2.3,2.3,2.3c0.9,0,1.4-0.2,1.8-0.3l0.2,0.9c-0.4,0.2-1.2,0.4-2.2,0.4c-2,0-3.3-1.3-3.3-3.3
		s1.2-3.6,3.1-3.6c2.2,0,2.7,1.9,2.7,3.1c0,0.2,0,0.4,0,0.6h-4.6V41.3z M294.9,40.4c0-0.8-0.3-2-1.7-2c-1.2,0-1.8,1.1-1.9,2H294.9z"
		/>
</g>
<g>
	<path d="M410.6,44.4l-3-9.2h1.3l1.4,4.6c0.4,1.2,0.7,2.4,1,3.5l0,0c0.3-1.1,0.6-2.2,1.1-3.4l1.6-4.6h1.3l-3.3,9.2L410.6,44.4
		L410.6,44.4z"/>
	<path d="M424,40.3c-0.1-1.3-0.2-2.8-0.1-4l0,0c-0.3,1.1-0.7,2.2-1.2,3.5l-1.6,4.5h-0.9l-1.5-4.4c-0.4-1.3-0.8-2.5-1.1-3.6l0,0
		c0,1.2-0.1,2.7-0.2,4.1l-0.2,4h-1.1l0.6-9.2h1.5l1.6,4.5c0.4,1.1,0.7,2.2,0.9,3.1l0,0c0.2-0.9,0.6-1.9,1-3.1l1.6-4.5h1.5l0.6,9.2
		h-1.2L424,40.3z"/>
	<path d="M431.3,35.2v9.2h-1.2v-9.2H431.3z"/>
	<path d="M433.5,39.6c0-0.7,0-1.2-0.1-1.8h1.1l0.1,1.1l0,0c0.3-0.6,1.1-1.2,2.2-1.2c0.9,0,2.3,0.5,2.3,2.8v4h-1.2v-3.8
		c0-1.1-0.4-2-1.5-2c-0.8,0-1.4,0.6-1.6,1.2c-0.1,0.2-0.1,0.4-0.1,0.6v4h-1.2L433.5,39.6L433.5,39.6z"/>
	<path d="M441,43.2c0.4,0.2,1,0.5,1.6,0.5c0.9,0,1.3-0.4,1.3-1s-0.3-0.9-1.2-1.2c-1.2-0.4-1.8-1.1-1.8-1.9c0-1.1,0.9-1.9,2.3-1.9
		c0.7,0,1.3,0.2,1.6,0.4l-0.3,0.9c-0.3-0.2-0.7-0.4-1.4-0.4c-0.7,0-1.1,0.4-1.1,0.9s0.4,0.8,1.3,1.1c1.2,0.4,1.7,1,1.7,2
		c0,1.2-0.9,2-2.5,2c-0.7,0-1.4-0.2-1.9-0.5L441,43.2z"/>
	<path d="M448,35.9v1.9h1.7v0.9H448v3.6c0,0.8,0.2,1.3,0.9,1.3c0.3,0,0.5,0,0.7-0.1l0.1,0.9c-0.2,0.1-0.6,0.2-1.1,0.2
		c-0.6,0-1-0.2-1.3-0.5c-0.3-0.4-0.5-0.9-0.5-1.7v-3.6h-1v-0.9h1v-1.7L448,35.9z"/>
	<path d="M454.8,44.4l-0.1-0.8l0,0c-0.4,0.5-1.1,1-2,1c-1.3,0-2-0.9-2-1.9c0-1.6,1.4-2.5,4-2.5v-0.1c0-0.5-0.2-1.5-1.5-1.5
		c-0.6,0-1.3,0.2-1.7,0.5l-0.3-0.8c0.5-0.4,1.3-0.6,2.2-0.6c2,0,2.5,1.4,2.5,2.7v2.5c0,0.6,0,1.1,0.1,1.6h-1.2V44.4z M454.6,41
		c-1.3,0-2.8,0.2-2.8,1.5c0,0.8,0.5,1.2,1.1,1.2c0.9,0,1.4-0.5,1.6-1.1c0-0.1,0.1-0.3,0.1-0.4L454.6,41L454.6,41z"/>
	<path d="M457.7,39.6c0-0.7,0-1.2-0.1-1.8h1.1l0.1,1.1l0,0c0.3-0.6,1.1-1.2,2.2-1.2c0.9,0,2.3,0.5,2.3,2.8v4h-1.2v-3.8
		c0-1.1-0.4-2-1.5-2c-0.8,0-1.4,0.6-1.6,1.2c-0.1,0.2-0.1,0.4-0.1,0.6v4h-1.2L457.7,39.6L457.7,39.6z"/>
	<path d="M470.1,44.2c-0.3,0.2-1,0.4-1.9,0.4c-2,0-3.3-1.4-3.3-3.4s1.4-3.5,3.6-3.5c0.7,0,1.3,0.2,1.7,0.3l-0.3,0.9
		c-0.3-0.2-0.7-0.3-1.4-0.3c-1.5,0-2.3,1.1-2.3,2.5c0,1.5,1,2.5,2.3,2.5c0.7,0,1.1-0.2,1.5-0.3L470.1,44.2z"/>
	<path d="M472.1,41.3c0,1.6,1.1,2.3,2.3,2.3c0.9,0,1.4-0.2,1.8-0.3l0.2,0.9c-0.4,0.2-1.2,0.4-2.2,0.4c-2,0-3.3-1.3-3.3-3.3
		s1.2-3.6,3.1-3.6c2.2,0,2.7,1.9,2.7,3.1c0,0.2,0,0.4,0,0.6h-4.6V41.3z M475.6,40.4c0-0.8-0.3-2-1.7-2c-1.2,0-1.8,1.1-1.9,2H475.6z"
		/>
</g>
<g>
	<path d="M581.6,44.4l-3-9.2h1.3l1.4,4.6c0.4,1.2,0.7,2.4,1,3.5l0,0c0.3-1.1,0.6-2.2,1.1-3.4l1.6-4.6h1.3l-3.3,9.2L581.6,44.4
		L581.6,44.4z"/>
	<path d="M595,40.3c-0.1-1.3-0.2-2.8-0.1-4l0,0c-0.3,1.1-0.7,2.2-1.2,3.5l-1.6,4.5h-0.9l-1.5-4.4c-0.4-1.3-0.8-2.5-1.1-3.6l0,0
		c0,1.2-0.1,2.7-0.2,4.1l-0.2,4h-1.1l0.6-9.2h1.5l1.6,4.5c0.4,1.1,0.7,2.2,0.9,3.1l0,0c0.2-0.9,0.6-1.9,1-3.1l1.6-4.5h1.5l0.6,9.2
		h-1.2L595,40.3z"/>
	<path d="M602.4,35.2v9.2h-1.2v-9.2H602.4z"/>
	<path d="M604.6,39.6c0-0.7,0-1.2-0.1-1.8h1.1l0.1,1.1l0,0c0.3-0.6,1.1-1.2,2.2-1.2c0.9,0,2.3,0.5,2.3,2.8v4H609v-3.8
		c0-1.1-0.4-2-1.5-2c-0.8,0-1.4,0.6-1.6,1.2c-0.1,0.2-0.1,0.4-0.1,0.6v4h-1.2L604.6,39.6L604.6,39.6z"/>
	<path d="M612,43.2c0.4,0.2,1,0.5,1.6,0.5c0.9,0,1.3-0.4,1.3-1s-0.3-0.9-1.2-1.2c-1.2-0.4-1.8-1.1-1.8-1.9c0-1.1,0.9-1.9,2.3-1.9
		c0.7,0,1.3,0.2,1.6,0.4l-0.3,0.9c-0.3-0.2-0.7-0.4-1.4-0.4S613,39,613,39.5s0.4,0.8,1.3,1.1c1.2,0.4,1.7,1,1.7,2c0,1.2-0.9,2-2.5,2
		c-0.7,0-1.4-0.2-1.9-0.5L612,43.2z"/>
	<path d="M619.1,35.9v1.9h1.7v0.9h-1.7v3.6c0,0.8,0.2,1.3,0.9,1.3c0.3,0,0.5,0,0.7-0.1l0.1,0.9c-0.2,0.1-0.6,0.2-1.1,0.2
		c-0.6,0-1-0.2-1.3-0.5c-0.3-0.4-0.5-0.9-0.5-1.7v-3.6h-1v-0.9h1v-1.7L619.1,35.9z"/>
	<path d="M625.8,44.4l-0.1-0.8l0,0c-0.4,0.5-1.1,1-2,1c-1.3,0-2-0.9-2-1.9c0-1.6,1.4-2.5,4-2.5v-0.1c0-0.5-0.2-1.5-1.5-1.5
		c-0.6,0-1.3,0.2-1.7,0.5l-0.3-0.8c0.5-0.4,1.3-0.6,2.2-0.6c2,0,2.5,1.4,2.5,2.7v2.5c0,0.6,0,1.1,0.1,1.6h-1.2V44.4z M625.6,41
		c-1.3,0-2.8,0.2-2.8,1.5c0,0.8,0.5,1.2,1.1,1.2c0.9,0,1.4-0.5,1.6-1.1c0-0.1,0.1-0.3,0.1-0.4L625.6,41L625.6,41z"/>
	<path d="M628.8,39.6c0-0.7,0-1.2-0.1-1.8h1.1l0.1,1.1l0,0c0.3-0.6,1.1-1.2,2.2-1.2c0.9,0,2.3,0.5,2.3,2.8v4h-1.2v-3.8
		c0-1.1-0.4-2-1.5-2c-0.8,0-1.4,0.6-1.6,1.2c-0.1,0.2-0.1,0.4-0.1,0.6v4h-1.2V39.6z"/>
	<path d="M641.1,44.2c-0.3,0.2-1,0.4-1.9,0.4c-2,0-3.3-1.4-3.3-3.4s1.4-3.5,3.6-3.5c0.7,0,1.3,0.2,1.7,0.3l-0.3,0.9
		c-0.3-0.2-0.7-0.3-1.4-0.3c-1.5,0-2.3,1.1-2.3,2.5c0,1.5,1,2.5,2.3,2.5c0.7,0,1.1-0.2,1.5-0.3L641.1,44.2z"/>
	<path d="M643.1,41.3c0,1.6,1.1,2.3,2.3,2.3c0.9,0,1.4-0.2,1.8-0.3l0.2,0.9c-0.4,0.2-1.2,0.4-2.2,0.4c-2,0-3.3-1.3-3.3-3.3
		s1.2-3.6,3.1-3.6c2.2,0,2.7,1.9,2.7,3.1c0,0.2,0,0.4,0,0.6h-4.6V41.3z M646.6,40.4c0-0.8-0.3-2-1.7-2c-1.2,0-1.8,1.1-1.9,2H646.6z"
		/>
</g>
<g>
	<path d="M126.4,156.7v4.7h5.5v-4.7h1.5v11.2h-1.5v-5.2h-5.5v5.2h-1.5v-11.2H126.4z"/>
	<path d="M137.6,157.6c0,0.5-0.4,0.9-1,0.9c-0.5,0-0.9-0.4-0.9-0.9s0.4-1,1-1S137.6,157.1,137.6,157.6z M136,167.9v-8h1.5v8H136z"/>
	<path d="M146.8,159.9c0,0.6-0.1,1.2-0.1,2.2v4.7c0,1.8-0.4,3-1.1,3.6c-0.7,0.7-1.9,1-2.9,1s-2.1-0.2-2.7-0.6l0.4-1.1
		c0.5,0.4,1.3,0.6,2.3,0.6c1.5,0,2.6-0.7,2.6-2.8v-0.9l0,0c-0.5,0.7-1.3,1.3-2.6,1.3c-1.9,0-3.4-1.7-3.4-3.9c0-2.7,1.8-4.3,3.6-4.3
		c1.5,0,2.2,0.7,2.6,1.5l0,0l0.1-1.2h1.2L146.8,159.9L146.8,159.9z M145.3,163.1c0-0.2,0-0.5-0.1-0.6c-0.2-0.9-1-1.6-2.1-1.6
		c-1.5,0-2.4,1.2-2.4,3c0,1.6,0.9,2.9,2.4,2.9c0.9,0,1.7-0.6,2.1-1.5c0.1-0.2,0.1-0.5,0.1-0.7V163.1z"/>
	<path d="M149.2,156.1h1.5v5l0,0c0.2-0.4,0.6-0.7,1.1-1s1-0.4,1.5-0.4c1.1,0,2.8,0.6,2.8,3.4v4.9h-1.5v-4.6c0-1.3-0.5-2.4-1.8-2.4
		c-1,0-1.7,0.6-1.9,1.5c-0.1,0.2-0.1,0.4-0.1,0.7v4.9h-1.5L149.2,156.1L149.2,156.1z"/>
	<path d="M158.5,156.1h1.5v11.8h-1.5V156.1z"/>
	<path d="M163,159.9l1.8,4.7c0.2,0.5,0.4,1.2,0.5,1.7l0,0c0.1-0.5,0.4-1.1,0.5-1.7l1.6-4.7h1.6l-2.2,5.7c-1.1,2.8-1.8,4.1-2.8,5.1
		c-0.7,0.6-1.5,0.9-1.8,1l-0.4-1.2c0.4-0.1,0.9-0.4,1.3-0.7c0.4-0.4,0.9-0.9,1.2-1.6c0.1-0.1,0.1-0.2,0.1-0.4c0-0.1,0-0.2-0.1-0.4
		l-3-7.4h1.7L163,159.9L163,159.9z"/>
	<path d="M175.6,164.4l-1.2,3.5h-1.5l3.8-11.2h1.7l3.9,11.2h-1.6l-1.2-3.5H175.6z M179.4,163.3l-1.1-3.3c-0.2-0.7-0.4-1.5-0.6-2.1
		l0,0c-0.1,0.6-0.4,1.3-0.6,2.1l-1.1,3.3H179.4z"/>
	<path d="M184.2,159.9l1.6,4.5c0.2,0.7,0.5,1.5,0.6,2.1l0,0c0.2-0.6,0.4-1.3,0.7-2.1l1.6-4.5h1.6l-3.2,8h-1.5l-3-8H184.2z"/>
	<path d="M196,167.9l-0.1-1l0,0c-0.5,0.6-1.3,1.2-2.4,1.2c-1.6,0-2.4-1.1-2.4-2.3c0-1.9,1.7-3,4.9-3v-0.1c0-0.6-0.2-1.8-1.8-1.8
		c-0.7,0-1.6,0.2-2.1,0.6l-0.4-1c0.6-0.5,1.6-0.7,2.7-0.7c2.4,0,3,1.7,3,3.3v3c0,0.7,0,1.3,0.1,1.9L196,167.9L196,167.9z
		 M195.8,163.8c-1.6,0-3.4,0.2-3.4,1.8c0,1,0.6,1.5,1.3,1.5c1.1,0,1.7-0.6,1.9-1.3c0-0.1,0.1-0.4,0.1-0.5L195.8,163.8L195.8,163.8z"
		/>
	<path d="M203.5,156.1h1.5v11.8h-1.5V156.1z"/>
	<path d="M201.2,157.6c0,0.5-0.4,0.9-1,0.9c-0.5,0-0.9-0.4-0.9-0.9s0.4-1,1-1C201,156.6,201.2,157.1,201.2,157.6z M199.6,167.9v-8
		h1.5v8H199.6z"/>
	<path d="M211.9,167.9l-0.1-1l0,0c-0.5,0.6-1.3,1.2-2.4,1.2c-1.6,0-2.4-1.1-2.4-2.3c0-1.9,1.7-3,4.9-3v-0.1c0-0.6-0.2-1.8-1.8-1.8
		c-0.7,0-1.6,0.2-2.1,0.6l-0.4-1c0.6-0.5,1.6-0.7,2.7-0.7c2.4,0,3,1.7,3,3.3v3c0,0.7,0,1.3,0.1,1.9L211.9,167.9L211.9,167.9z
		 M211.7,163.8c-1.6,0-3.4,0.2-3.4,1.8c0,1,0.6,1.5,1.3,1.5c1.1,0,1.7-0.6,1.9-1.3c0-0.1,0.1-0.4,0.1-0.5L211.7,163.8L211.7,163.8z"
		/>
	<path d="M215.4,167.9c0-0.6,0.1-1.3,0.1-2.1v-9.7h1.5v5.1l0,0c0.5-0.9,1.5-1.5,2.8-1.5c1.9,0,3.4,1.7,3.4,4.1
		c0,2.9-1.8,4.4-3.6,4.4c-1.2,0-2.1-0.5-2.7-1.5l0,0l-0.1,1.3h-1.4V167.9z M216.9,164.6c0,0.2,0,0.4,0.1,0.5c0.2,1,1.1,1.7,2.2,1.7
		c1.6,0,2.4-1.2,2.4-3.2c0-1.6-0.9-3-2.4-3c-1,0-1.9,0.7-2.2,1.8c0,0.1-0.1,0.4-0.1,0.6V164.6z"/>
	<path d="M224.9,156.1h1.5v11.8h-1.5V156.1z"/>
	<path d="M229.7,164.1c0,1.9,1.3,2.8,2.8,2.8c1.1,0,1.7-0.2,2.2-0.4l0.2,1.1c-0.5,0.2-1.5,0.5-2.7,0.5c-2.4,0-4-1.6-4-4
		s1.5-4.4,3.8-4.4c2.7,0,3.3,2.3,3.3,3.8c0,0.2,0,0.5,0,0.7h-5.6V164.1z M234,163.1c0-1-0.4-2.4-2.1-2.4c-1.5,0-2.2,1.3-2.3,2.4H234
		z"/>
	<path d="M240.8,156.9c0.7-0.1,1.6-0.2,2.8-0.2c1.5,0,2.4,0.4,3.2,1c0.6,0.5,1,1.3,1,2.3s-0.2,1.8-0.9,2.4c-0.7,0.9-2.1,1.2-3.4,1.2
		c-0.5,0-0.9,0-1.2-0.1v4.5h-1.5L240.8,156.9L240.8,156.9z M242.3,162.2c0.4,0.1,0.7,0.1,1.2,0.1c1.7,0,2.8-0.9,2.8-2.4
		s-1.1-2.2-2.7-2.2c-0.6,0-1.1,0-1.3,0.1V162.2L242.3,162.2z"/>
	<path d="M250.1,164.1c0,1.9,1.3,2.8,2.8,2.8c1.1,0,1.7-0.2,2.2-0.4l0.2,1.1c-0.5,0.2-1.5,0.5-2.7,0.5c-2.4,0-4-1.6-4-4
		s1.5-4.4,3.8-4.4c2.7,0,3.3,2.3,3.3,3.8c0,0.2,0,0.5,0,0.7h-5.6V164.1z M254.3,163.1c0-1-0.4-2.4-2.1-2.4c-1.5,0-2.2,1.3-2.3,2.4
		H254.3z"/>
	<path d="M257.6,162.3c0-1,0-1.8-0.1-2.6h1.3v1.6h0.1c0.4-1.1,1.2-1.8,2.2-1.8c0.1,0,0.2,0,0.4,0v1.3c-0.1,0-0.2,0-0.5,0
		c-1.1,0-1.8,0.7-1.9,1.9c0,0.2-0.1,0.5-0.1,0.7v4.3h-1.3L257.6,162.3L257.6,162.3z"/>
	<path d="M262.8,166.5c0.5,0.2,1.2,0.6,1.9,0.6c1.1,0,1.6-0.5,1.6-1.2s-0.4-1.1-1.5-1.5c-1.5-0.5-2.2-1.3-2.2-2.3
		c0-1.3,1.1-2.3,2.8-2.3c0.9,0,1.6,0.2,1.9,0.5l-0.4,1.1c-0.4-0.2-0.9-0.5-1.7-0.5c-0.9,0-1.3,0.5-1.3,1.1s0.5,1,1.6,1.3
		c1.5,0.5,2.1,1.2,2.1,2.4c0,1.5-1.1,2.4-3,2.4c-0.9,0-1.7-0.2-2.3-0.6L262.8,166.5z"/>
	<path d="M271.2,157.6c0,0.5-0.4,0.9-1,0.9c-0.5,0-0.9-0.4-0.9-0.9s0.4-1,1-1S271.2,157.1,271.2,157.6z M269.6,167.9v-8h1.5v8H269.6
		z"/>
	<path d="M273.3,166.5c0.5,0.2,1.2,0.6,1.9,0.6c1.1,0,1.6-0.5,1.6-1.2s-0.4-1.1-1.5-1.5c-1.5-0.5-2.2-1.3-2.2-2.3
		c0-1.3,1.1-2.3,2.8-2.3c0.9,0,1.6,0.2,1.9,0.5l-0.4,1.1c-0.4-0.2-0.9-0.5-1.7-0.5c-0.9,0-1.3,0.5-1.3,1.1s0.5,1,1.6,1.3
		c1.5,0.5,2.1,1.2,2.1,2.4c0,1.5-1.1,2.4-3,2.4c-0.9,0-1.7-0.2-2.3-0.6L273.3,166.5z"/>
	<path d="M281.9,157.6v2.3h2.1v1.1h-2.1v4.4c0,1,0.2,1.6,1.1,1.6c0.4,0,0.6,0,0.9-0.1l0.1,1.1c-0.2,0.1-0.7,0.2-1.3,0.2
		c-0.7,0-1.2-0.2-1.6-0.6c-0.4-0.5-0.6-1.1-0.6-2.1v-4.4h-1.2V160h1.2v-1.9L281.9,157.6z"/>
	<path d="M286.4,164.1c0,1.9,1.3,2.8,2.8,2.8c1.1,0,1.7-0.2,2.2-0.4l0.2,1.1c-0.5,0.2-1.5,0.5-2.7,0.5c-2.4,0-4-1.6-4-4
		s1.5-4.4,3.8-4.4c2.7,0,3.3,2.3,3.3,3.8c0,0.2,0,0.5,0,0.7h-5.6L286.4,164.1L286.4,164.1z M290.7,163.1c0-1-0.4-2.4-2.1-2.4
		c-1.5,0-2.2,1.3-2.3,2.4H290.7z"/>
	<path d="M293.9,162.1c0-0.9,0-1.5-0.1-2.2h1.3l0.1,1.3l0,0c0.4-0.7,1.3-1.5,2.7-1.5c1.1,0,2.8,0.6,2.8,3.4v4.9h-1.5v-4.6
		c0-1.3-0.5-2.4-1.8-2.4c-1,0-1.7,0.7-1.9,1.5c-0.1,0.2-0.1,0.5-0.1,0.7v4.9h-1.5V162.1L293.9,162.1z"/>
	<path d="M304.9,157.6v2.3h2.1v1.1h-2.1v4.4c0,1,0.2,1.6,1.1,1.6c0.4,0,0.6,0,0.9-0.1l0.1,1.1c-0.2,0.1-0.7,0.2-1.3,0.2
		c-0.7,0-1.2-0.2-1.6-0.6c-0.4-0.5-0.6-1.1-0.6-2.1v-4.4h-1.2V160h1.2v-1.9L304.9,157.6z"/>
	<path d="M312,166.1c0.6,0.4,1.6,0.7,2.6,0.7c1.5,0,2.3-0.7,2.3-1.9c0-1.1-0.6-1.7-2.1-2.2c-1.8-0.6-2.9-1.6-2.9-3.2
		c0-1.7,1.5-3,3.6-3c1.1,0,1.9,0.2,2.4,0.6l-0.4,1.2c-0.4-0.2-1.1-0.5-2.2-0.5c-1.6,0-2.1,1-2.1,1.7c0,1.1,0.7,1.6,2.2,2.2
		c1.9,0.7,2.9,1.7,2.9,3.3c0,1.7-1.3,3.3-3.9,3.3c-1.1,0-2.3-0.4-2.9-0.7L312,166.1z"/>
	<path d="M322.1,157.6v2.3h2.1v1.1h-2.1v4.4c0,1,0.2,1.6,1.1,1.6c0.4,0,0.6,0,0.9-0.1l0.1,1.1c-0.2,0.1-0.7,0.2-1.3,0.2
		c-0.7,0-1.2-0.2-1.6-0.6c-0.4-0.5-0.6-1.1-0.6-2.1v-4.4h-1.2V160h1.2v-1.9L322.1,157.6z"/>
	<path d="M333.1,163.8c0,3-2.1,4.3-4,4.3c-2.2,0-3.9-1.6-3.9-4.1c0-2.7,1.8-4.3,4-4.3C331.5,159.7,333.1,161.4,333.1,163.8z
		 M326.6,163.9c0,1.8,1,3.2,2.4,3.2s2.4-1.3,2.4-3.2c0-1.3-0.7-3.2-2.4-3.2S326.6,162.3,326.6,163.9z"/>
	<path d="M334.9,162.3c0-1,0-1.8-0.1-2.6h1.3v1.6h0.1c0.4-1.1,1.2-1.8,2.2-1.8c0.1,0,0.2,0,0.4,0v1.3c-0.1,0-0.2,0-0.5,0
		c-1.1,0-1.8,0.7-1.9,1.9c0,0.2-0.1,0.5-0.1,0.7v4.3h-1.5v-5.4H334.9z"/>
	<path d="M344.7,167.9l-0.1-1l0,0c-0.5,0.6-1.3,1.2-2.4,1.2c-1.6,0-2.4-1.1-2.4-2.3c0-1.9,1.7-3,4.9-3v-0.1c0-0.6-0.2-1.8-1.8-1.8
		c-0.7,0-1.6,0.2-2.1,0.6l-0.4-1c0.6-0.5,1.6-0.7,2.7-0.7c2.4,0,3,1.7,3,3.3v3c0,0.7,0,1.3,0.1,1.9L344.7,167.9L344.7,167.9
		L344.7,167.9z M344.5,163.8c-1.6,0-3.4,0.2-3.4,1.8c0,1,0.6,1.5,1.3,1.5c1.1,0,1.7-0.6,1.9-1.3c0-0.1,0.1-0.4,0.1-0.5L344.5,163.8
		L344.5,163.8z"/>
	<path d="M355.2,159.9c0,0.6-0.1,1.2-0.1,2.2v4.7c0,1.8-0.4,3-1.1,3.6c-0.7,0.7-1.9,1-2.9,1s-2.1-0.2-2.7-0.6l0.4-1.1
		c0.5,0.4,1.3,0.6,2.3,0.6c1.5,0,2.6-0.7,2.6-2.8v-0.9l0,0c-0.5,0.7-1.3,1.3-2.6,1.3c-1.9,0-3.4-1.7-3.4-3.9c0-2.7,1.8-4.3,3.6-4.3
		c1.5,0,2.2,0.7,2.6,1.5l0,0l0.1-1.2h1.2V159.9z M353.7,163.1c0-0.2,0-0.5-0.1-0.6c-0.2-0.9-1-1.6-2.1-1.6c-1.5,0-2.4,1.2-2.4,3
		c0,1.6,0.9,2.9,2.4,2.9c0.9,0,1.7-0.6,2.1-1.5c0.1-0.2,0.1-0.5,0.1-0.7V163.1z"/>
	<path d="M358.5,164.1c0,1.9,1.3,2.8,2.8,2.8c1.1,0,1.7-0.2,2.2-0.4l0.2,1.1c-0.5,0.2-1.5,0.5-2.7,0.5c-2.4,0-4-1.6-4-4
		s1.5-4.4,3.8-4.4c2.7,0,3.3,2.3,3.3,3.8c0,0.2,0,0.5,0,0.7h-5.6L358.5,164.1L358.5,164.1z M362.7,163.1c0-1-0.4-2.4-2.1-2.4
		c-1.5,0-2.2,1.3-2.3,2.4H362.7z"/>
</g>
<g>
	<g>
		<path d="M418.1,214.6h-4.2v1.7h3.9v1.4h-3.9v2.1h4.4v1.4h-6.1v-8h5.9L418.1,214.6L418.1,214.6z"/>
		<path d="M425.5,214c0.2,0.3,0.4,0.7,0.4,1.2s-0.1,0.9-0.4,1.2c-0.1,0.2-0.3,0.3-0.6,0.5c0.4,0.1,0.7,0.4,0.9,0.7s0.3,0.7,0.3,1.2
			s-0.1,0.9-0.4,1.3c-0.2,0.2-0.3,0.5-0.6,0.6c-0.3,0.2-0.6,0.3-0.9,0.4s-0.7,0.1-1.1,0.1h-3.6v-8h3.9
			C424.5,213.2,425.1,213.5,425.5,214z M421.2,214.6v1.8h1.9c0.3,0,0.6-0.1,0.8-0.2c0.2-0.1,0.3-0.4,0.3-0.7c0-0.4-0.1-0.6-0.4-0.7
			c-0.2-0.1-0.6-0.1-0.9-0.1L421.2,214.6L421.2,214.6z M421.2,217.7v2.1h1.9c0.3,0,0.6,0,0.8-0.1c0.4-0.2,0.5-0.5,0.5-1
			c0-0.4-0.2-0.7-0.5-0.9c-0.2-0.1-0.5-0.1-0.8-0.1H421.2z"/>
		<path d="M428.8,218.7c0.1,0.4,0.2,0.6,0.3,0.8c0.3,0.3,0.8,0.5,1.4,0.5c0.4,0,0.7,0,1-0.1c0.5-0.2,0.7-0.5,0.7-0.9
			c0-0.3-0.1-0.5-0.3-0.6s-0.6-0.3-1.1-0.4l-0.9-0.2c-0.8-0.2-1.4-0.4-1.8-0.6c-0.5-0.4-0.8-0.9-0.8-1.7c0-0.7,0.3-1.3,0.8-1.8
			s1.3-0.7,2.3-0.7c0.9,0,1.6,0.2,2.2,0.7c0.6,0.4,0.9,1.1,0.9,1.9h-1.6c0-0.5-0.2-0.8-0.6-1c-0.3-0.1-0.6-0.2-1-0.2
			s-0.8,0.1-1.1,0.3s-0.4,0.4-0.4,0.7s0.1,0.5,0.4,0.6c0.2,0.1,0.5,0.2,1.1,0.3l1.4,0.3c0.6,0.1,1.1,0.3,1.4,0.6
			c0.5,0.4,0.7,0.9,0.7,1.6s-0.3,1.3-0.8,1.8s-1.4,0.7-2.4,0.7c-1.1,0-1.9-0.2-2.5-0.7s-0.9-1.1-0.9-2L428.8,218.7L428.8,218.7
			L428.8,218.7z"/>
	</g>
	<g>
		<path d="M387.9,230.7h3.5c1,0,1.7,0.3,2.1,0.9c0.2,0.3,0.4,0.7,0.4,1.2s-0.1,0.9-0.4,1.3c-0.2,0.2-0.4,0.3-0.7,0.5
			c0.4,0.2,0.7,0.3,0.9,0.5c0.4,0.4,0.6,0.9,0.6,1.5c0,0.5-0.2,1-0.5,1.4c-0.5,0.6-1.3,1-2.4,1h-3.5V230.7L387.9,230.7z
			 M391.1,234.1c0.5,0,0.8-0.1,1.1-0.2c0.4-0.2,0.6-0.6,0.6-1.1s-0.2-0.9-0.7-1.1c-0.2-0.1-0.6-0.2-1.1-0.2h-2v2.5h2.1V234.1
			L391.1,234.1z M391.5,237.9c0.7,0,1.2-0.2,1.5-0.6c0.2-0.2,0.3-0.6,0.3-0.9c0-0.6-0.3-1-0.8-1.2c-0.3-0.1-0.7-0.2-1.1-0.2h-2.2
			v2.9H391.5L391.5,237.9z"/>
		<path d="M395.5,230.7h1v8.2h-1V230.7z"/>
		<path d="M402.4,233.5c0.5,0.5,0.8,1.3,0.8,2.3s-0.2,1.8-0.7,2.4s-1.2,0.9-2.2,0.9c-0.8,0-1.5-0.3-1.9-0.8
			c-0.5-0.6-0.7-1.3-0.7-2.2c0-1,0.3-1.8,0.8-2.4s1.2-0.9,2-0.9C401.2,232.7,401.8,233,402.4,233.5z M401.7,237.5
			c0.2-0.5,0.4-1.1,0.4-1.7s-0.1-1-0.3-1.4c-0.3-0.6-0.8-0.8-1.4-0.8s-1,0.2-1.3,0.7s-0.4,1-0.4,1.7c0,0.6,0.1,1.2,0.4,1.6
			s0.7,0.6,1.3,0.6C401,238.2,401.5,238,401.7,237.5z"/>
		<path d="M408.3,233.2c0.4,0.3,0.7,0.9,0.8,1.7h-1c-0.1-0.4-0.2-0.7-0.4-0.9s-0.6-0.4-1-0.4c-0.6,0-1.1,0.3-1.4,0.9
			c-0.2,0.4-0.3,0.9-0.3,1.5s0.1,1.1,0.4,1.5s0.7,0.6,1.2,0.6c0.4,0,0.7-0.1,1-0.4s0.4-0.6,0.5-1h1c-0.1,0.8-0.4,1.4-0.8,1.7
			c-0.4,0.4-1,0.6-1.7,0.6c-0.8,0-1.4-0.3-1.9-0.9s-0.7-1.3-0.7-2.1c0-1.1,0.3-1.9,0.8-2.5s1.2-0.9,2-0.9
			C407.4,232.7,407.9,232.9,408.3,233.2z"/>
		<path d="M410.1,230.7h1v4.8l2.6-2.5h1.3l-2.3,2.2l2.4,3.8h-1.3l-1.9-3l-0.8,0.8v2.2h-1L410.1,230.7L410.1,230.7z"/>
		<path d="M419.9,236.2c0,0.5,0.1,0.8,0.3,1.1c0.4,0.5,1,0.8,1.9,0.8c0.4,0,0.8-0.1,1.1-0.2c0.6-0.2,1-0.6,1-1.2
			c0-0.4-0.1-0.8-0.4-1s-0.7-0.3-1.3-0.5l-1.1-0.3c-0.7-0.2-1.2-0.3-1.5-0.5c-0.5-0.3-0.8-0.9-0.8-1.5c0-0.7,0.2-1.3,0.7-1.8
			s1.2-0.7,2.1-0.7c0.8,0,1.5,0.2,2.1,0.6c0.6,0.4,0.9,1.1,0.9,2h-1c-0.1-0.4-0.2-0.8-0.3-1c-0.3-0.4-0.9-0.6-1.7-0.6
			c-0.6,0-1.1,0.1-1.4,0.4s-0.4,0.6-0.4,1s0.2,0.7,0.5,0.9c0.2,0.1,0.7,0.3,1.4,0.4l1.1,0.3c0.5,0.1,1,0.3,1.2,0.5
			c0.5,0.4,0.8,0.9,0.8,1.7c0,0.9-0.3,1.6-1,2c-0.6,0.4-1.4,0.6-2.2,0.6c-1,0-1.8-0.3-2.3-0.8c-0.6-0.5-0.8-1.2-0.8-2.1L419.9,236.2
			L419.9,236.2z"/>
		<path d="M426.8,231.2h1v1.7h1v0.8h-1v3.9c0,0.2,0.1,0.3,0.2,0.4c0.1,0,0.2,0.1,0.4,0.1c0,0,0.1,0,0.2,0s0.1,0,0.2,0v0.8
			c-0.1,0-0.2,0.1-0.4,0.1c-0.1,0-0.3,0-0.4,0c-0.5,0-0.8-0.1-1-0.4s-0.3-0.6-0.3-0.9v-4h-0.8v-0.8h0.8L426.8,231.2L426.8,231.2z"/>
		<path d="M434.2,233.5c0.5,0.5,0.8,1.3,0.8,2.3s-0.2,1.8-0.7,2.4s-1.2,0.9-2.2,0.9c-0.8,0-1.5-0.3-1.9-0.8
			c-0.5-0.6-0.7-1.3-0.7-2.2c0-1,0.3-1.8,0.8-2.4s1.2-0.9,2-0.9C433,232.7,433.6,233,434.2,233.5z M433.5,237.5
			c0.2-0.5,0.4-1.1,0.4-1.7s-0.1-1-0.3-1.4c-0.3-0.6-0.8-0.8-1.4-0.8s-1,0.2-1.3,0.7s-0.4,1-0.4,1.7c0,0.6,0.1,1.2,0.4,1.6
			s0.7,0.6,1.3,0.6C432.8,238.2,433.3,238,433.5,237.5z"/>
		<path d="M436.2,232.9h1v1c0.1-0.2,0.3-0.4,0.6-0.7s0.7-0.4,1.1-0.4c0,0,0,0,0.1,0s0.1,0,0.2,0v1.1c-0.1,0-0.1,0-0.2,0
			s-0.1,0-0.2,0c-0.5,0-0.9,0.2-1.2,0.5s-0.4,0.7-0.4,1.1v3.4h-1V232.9L436.2,232.9z"/>
		<path d="M443.2,235.2c0.2,0,0.4-0.1,0.5-0.3c0-0.1,0.1-0.2,0.1-0.4c0-0.3-0.1-0.6-0.4-0.7c-0.2-0.2-0.6-0.2-1-0.2
			c-0.5,0-0.9,0.1-1.1,0.4c-0.1,0.2-0.2,0.4-0.2,0.7h-0.9c0-0.7,0.3-1.3,0.7-1.5c0.5-0.3,1-0.4,1.6-0.4c0.7,0,1.3,0.1,1.7,0.4
			s0.7,0.7,0.7,1.3v3.4c0,0.1,0,0.2,0.1,0.3c0,0.1,0.1,0.1,0.3,0.1c0,0,0.1,0,0.2,0s0.1,0,0.2,0v0.7c-0.2,0-0.3,0.1-0.4,0.1
			s-0.2,0-0.3,0c-0.3,0-0.6-0.1-0.8-0.4c-0.1-0.1-0.1-0.3-0.2-0.6c-0.2,0.3-0.5,0.5-0.9,0.7s-0.8,0.3-1.3,0.3c-0.6,0-1-0.2-1.4-0.5
			s-0.5-0.8-0.5-1.3c0-0.6,0.2-1,0.5-1.3s0.8-0.5,1.4-0.6L443.2,235.2z M441.1,238c0.2,0.2,0.5,0.3,0.8,0.3c0.4,0,0.7-0.1,1-0.2
			c0.6-0.3,0.8-0.7,0.8-1.3V236c-0.1,0.1-0.3,0.1-0.5,0.2s-0.4,0.1-0.6,0.1l-0.6,0.1c-0.4,0-0.6,0.1-0.8,0.2
			c-0.3,0.2-0.5,0.5-0.5,0.8C440.8,237.6,440.9,237.8,441.1,238z"/>
		<path d="M449.7,233.1c0.2,0.1,0.4,0.3,0.6,0.6v-0.8h0.9v5.4c0,0.8-0.1,1.4-0.3,1.8c-0.4,0.8-1.2,1.2-2.4,1.2
			c-0.6,0-1.2-0.1-1.6-0.4c-0.4-0.3-0.7-0.7-0.7-1.4h1c0,0.3,0.1,0.5,0.3,0.6c0.2,0.2,0.6,0.3,1.1,0.3c0.8,0,1.3-0.3,1.5-0.8
			c0.1-0.3,0.2-0.9,0.2-1.7c-0.2,0.3-0.4,0.5-0.7,0.7c-0.3,0.1-0.7,0.2-1.1,0.2c-0.6,0-1.2-0.2-1.7-0.7s-0.7-1.2-0.7-2.3
			c0-1,0.2-1.8,0.7-2.3c0.5-0.6,1.1-0.8,1.8-0.8C448.9,232.8,449.3,232.9,449.7,233.1z M449.8,234.2c-0.3-0.4-0.7-0.5-1.2-0.5
			c-0.7,0-1.2,0.3-1.4,1c-0.1,0.4-0.2,0.8-0.2,1.4c0,0.7,0.1,1.2,0.4,1.5c0.3,0.4,0.6,0.5,1.1,0.5c0.7,0,1.2-0.3,1.5-1
			c0.2-0.4,0.2-0.8,0.2-1.3C450.3,235.1,450.1,234.6,449.8,234.2z"/>
		<path d="M456.4,233c0.4,0.2,0.7,0.5,0.9,0.8s0.3,0.7,0.4,1.1c0.1,0.3,0.1,0.7,0.1,1.3h-4.4c0,0.6,0.2,1.1,0.4,1.5
			c0.3,0.4,0.7,0.6,1.2,0.6s0.9-0.2,1.2-0.5c0.2-0.2,0.3-0.4,0.4-0.7h1c0,0.2-0.1,0.5-0.3,0.7c-0.1,0.3-0.3,0.5-0.5,0.7
			c-0.3,0.3-0.7,0.5-1.1,0.6c-0.2,0.1-0.5,0.1-0.8,0.1c-0.7,0-1.4-0.3-1.9-0.8s-0.8-1.3-0.8-2.3s0.3-1.7,0.8-2.3s1.2-0.9,2-0.9
			C455.6,232.7,456,232.8,456.4,233z M456.8,235.4c0-0.4-0.1-0.8-0.3-1c-0.3-0.5-0.7-0.7-1.4-0.7c-0.5,0-0.8,0.2-1.2,0.5
			c-0.3,0.3-0.5,0.8-0.5,1.3L456.8,235.4L456.8,235.4z"/>
	</g>
	
		<linearGradient id="SVGID_1_" gradientUnits="userSpaceOnUse" x1="392.1806" y1="-714.6" x2="414.8966" y2="-714.6" gradientTransform="matrix(1 0 0 -1 0 -557)">
		<stop  offset="0" style="stop-color:#CCE0F4"/>
		<stop  offset="0" style="stop-color:#CDD8EB"/>
		<stop  offset="0" style="stop-color:#D0C4D1"/>
		<stop  offset="0" style="stop-color:#D5A3A8"/>
		<stop  offset="0" style="stop-color:#DB756F"/>
		<stop  offset="0" style="stop-color:#E05243"/>
		<stop  offset="0.1406" style="stop-color:#E05243"/>
		<stop  offset="0.9947" style="stop-color:#E05243"/>
	</linearGradient>
	<path class="st3" d="M451.2,191.6c-19.7,0-39.4,0-59.1,0c0-0.2,0-0.4,0-0.6c0-21.3,0-42.7,0-64c0-0.9,0-1.9,0-2.8
		c0-0.4,0.1-0.6,0.5-0.6c0.1,0,0.2,0,0.4,0c19,0,38.1,0,57.1,0c0.9,0,0.9,0,0.9,0.9c0,22.1,0,44.2,0.1,66.3
		C451.2,191.1,451.2,191.3,451.2,191.6z"/>
	<g>
		
			<linearGradient id="SVGID_2_" gradientUnits="userSpaceOnUse" x1="393.2" y1="-671" x2="449.8999" y2="-671" gradientTransform="matrix(1 0 0 -1 0 -557)">
			<stop  offset="0" style="stop-color:#CCE0F4"/>
			<stop  offset="0" style="stop-color:#CDD8EB"/>
			<stop  offset="0" style="stop-color:#D0C4D1"/>
			<stop  offset="0" style="stop-color:#D5A3A8"/>
			<stop  offset="0" style="stop-color:#DB756F"/>
			<stop  offset="0" style="stop-color:#E05243"/>
			<stop  offset="0.1406" style="stop-color:#E05243"/>
			<stop  offset="0.9947" style="stop-color:#E05243"/>
		</linearGradient>
		<path class="st4" d="M449.8,119.6c-0.3,0-0.5,0-0.7,0c-18.5,0-55.9,0-55.9,0v-0.7v-2.4c0,0,0,0,0-0.1c0.2-0.2,1.5-1.6,1.5-1.6
			l6.6-6.1c0,0,0.5-0.3,0.8-0.3c13.1,0,26.2,0,39.3,0c0.2,0,0.6,0.1,0.8,0.3c2.5,2.5,4.9,5,7.4,7.5c0.1,0.1,0.3,0.3,0.3,0.4
			C449.8,117.6,449.8,118.5,449.8,119.6z"/>
		<g id="darker_bars">
			<rect x="393.2" y="116.5" class="st5" width="56.6" height="3"/>
			<rect x="392.2" y="188.6" class="st5" width="59.1" height="3"/>
		</g>
	</g>
	<g>
		<path id="path12_1_" class="st6" d="M425.3,201.9v-1c0-0.2,0.1-0.3,0.3-0.3h4.5c0.1,0,0.3,0.1,0.3,0.3v0.9c0,0.1-0.1,0.3-0.3,0.6
			l-2.3,3.4c0.9,0,1.8,0.1,2.6,0.6c0.2,0.1,0.2,0.2,0.2,0.4v1.1c0,0.1-0.2,0.3-0.3,0.2c-1.4-0.7-3.2-0.8-4.8,0
			c-0.2,0.1-0.3-0.1-0.3-0.2v-1c0-0.2,0-0.4,0.2-0.7l2.7-3.9h-2.4C425.5,202.1,425.3,202,425.3,201.9"/>
		<path id="path14_1_" class="st6" d="M408.8,208.2h-1.4c-0.1,0-0.2-0.1-0.2-0.2v-7.1c0-0.1,0.1-0.3,0.3-0.3h1.3
			c0.1,0,0.2,0.1,0.3,0.2v0.9l0,0c0.3-0.9,1-1.3,1.8-1.3c0.9,0,1.4,0.4,1.8,1.3c0.3-0.9,1.1-1.3,1.9-1.3c0.6,0,1.2,0.2,1.6,0.8
			s0.3,1.5,0.3,2.2v4.5c0,0.1-0.1,0.3-0.3,0.3h-1.4c-0.1,0-0.2-0.1-0.2-0.3v-3.8c0-0.3,0-1,0-1.3c-0.1-0.5-0.4-0.6-0.8-0.6
			c-0.3,0-0.7,0.2-0.8,0.6s-0.1,1-0.1,1.4v3.8c0,0.1-0.1,0.3-0.3,0.3h-1.4c-0.1,0-0.2-0.1-0.2-0.3v-3.8c0-0.8,0.1-2-0.8-2
			c-1,0-1,1.1-1,2v3.8C409.1,208.1,409,208.2,408.8,208.2"/>
		<path id="path16_1_" class="st6" d="M434.3,200.5c2,0,3.2,1.8,3.2,4s-1.2,3.9-3.2,3.9s-3.1-1.8-3.1-3.9
			C431.2,202.2,432.3,200.5,434.3,200.5 M434.3,201.9c-1,0-1.1,1.4-1.1,2.2c0,0.9,0,2.7,1.1,2.7s1.1-1.5,1.1-2.4
			c0-0.6,0-1.3-0.2-1.9C435,202.1,434.7,201.9,434.3,201.9"/>
		<path id="path18_1_" class="st6" d="M440.1,208.2h-1.4c-0.1,0-0.2-0.1-0.2-0.3v-7.1c0-0.1,0.1-0.2,0.3-0.2h1.3
			c0.1,0,0.2,0.1,0.2,0.2v1.1l0,0c0.4-1,0.9-1.4,1.9-1.4c0.6,0,1.2,0.2,1.6,0.8s0.4,1.5,0.4,2.2v4.5c0,0.1-0.1,0.2-0.3,0.2h-1.4
			c-0.1,0-0.2-0.1-0.2-0.2v-3.8c0-0.8,0.1-1.9-0.9-1.9c-0.3,0-0.6,0.2-0.8,0.6s-0.2,0.9-0.2,1.3v3.8
			C440.4,208.1,440.2,208.2,440.1,208.2"/>
		<path id="path28_1_" class="st6" d="M421.7,204.8c0,0.5,0,1-0.3,1.5c-0.2,0.4-0.6,0.6-1,0.6c-0.5,0-0.8-0.4-0.8-1
			c0-1.2,1.1-1.4,2.1-1.4L421.7,204.8 M423.1,208.2c-0.1,0.1-0.2,0.1-0.3,0c-0.5-0.4-0.5-0.6-0.8-0.9c-0.8,0.8-1.3,1-2.3,1
			c-1.2,0-2.1-0.7-2.1-2.1c0-1.1,0.6-1.9,1.5-2.3c0.7-0.3,1.8-0.4,2.6-0.5v-0.2c0-0.3,0-0.7-0.2-1s-0.5-0.4-0.8-0.4
			c-0.5,0-1,0.3-1.1,0.8c0,0.1-0.1,0.2-0.2,0.3l-1.3-0.1c-0.1,0-0.2-0.1-0.2-0.3c0.3-1.6,1.8-2.1,3.1-2.1c0.7,0,1.5,0.2,2.1,0.7
			c0.7,0.6,0.6,1.5,0.6,2.4v2.1c0,0.6,0.3,0.9,0.5,1.3c0.1,0.1,0.1,0.3,0,0.4C423.9,207.5,423.4,207.9,423.1,208.2L423.1,208.2"/>
		<path id="path30_1_" class="st6" d="M403.7,204.8c0,0.5,0,1-0.3,1.5c-0.2,0.4-0.6,0.6-1,0.6c-0.5,0-0.8-0.4-0.8-1
			c0-1.2,1.1-1.4,2-1.4L403.7,204.8 M405,208.2c-0.1,0.1-0.2,0.1-0.3,0c-0.5-0.4-0.5-0.6-0.8-0.9c-0.8,0.8-1.3,1-2.3,1
			c-1.2,0-2.1-0.7-2.1-2.1c0-1.1,0.6-1.9,1.5-2.3c0.7-0.3,1.8-0.4,2.6-0.5v-0.2c0-0.3,0-0.7-0.2-1s-0.5-0.4-0.8-0.4
			c-0.5,0-1,0.3-1.1,0.8c0,0.1-0.1,0.2-0.2,0.3l-1.3-0.1c-0.1,0-0.2-0.1-0.2-0.3c0.3-1.6,1.8-2.1,3.1-2.1c0.7,0,1.5,0.2,2.1,0.7
			c0.7,0.6,0.6,1.5,0.6,2.4v2.1c0,0.6,0.3,0.9,0.5,1.3c0.1,0.1,0.1,0.3,0,0.4C405.8,207.5,405.3,207.9,405,208.2L405,208.2"/>
	</g>
</g>
<g>
	<g>
		<path class="st5" d="M515.2,121.7l-5.5,2.8v48.7l5.5,2.8l0,0V121.7L515.2,121.7"/>
		<path class="st7" d="M544.9,168.9l-29.7,7.1v-54.2l29.7,6.9V168.9"/>
		<path class="st5" d="M531.5,157.8l12.6,1.6l0.1-0.2l0.1-20.7l-0.1-0.2l-12.6,1.6L531.5,157.8"/>
		<path class="st5" d="M544.1,168.9l28.9,7v-0.1v-54.1l0,0l-28.9,7V168.9"/>
		<path class="st7" d="M556.7,157.8l-12.6,1.6v-21l12.6,1.6V157.8"/>
		<path class="st8" d="M556.7,131.4l-12.6,2.3l-12.6-2.3l12.6-3.3L556.7,131.4"/>
		<path class="st9" d="M556.7,166.4l-12.6-2.3l-12.6,2.3l12.6,3.5L556.7,166.4"/>
		<path class="st5" d="M531.5,131.4l12.6-3.1h0.1v-21l-0.1-0.1l-12.6,6.3V131.4"/>
		<path class="st7" d="M556.7,131.4l-12.6-3.1v-21l12.6,6.3V131.4"/>
		<path class="st5" d="M544.1,190.5l-12.6-6.3v-17.8l12.6,3.1l0.2,0.2l-0.1,20.4L544.1,190.5"/>
		<path class="st7" d="M544.1,190.5l12.6-6.3v-17.8l-12.6,3.1V190.5 M573,121.7l5.6,2.8v48.7L573,176V121.7"/>
	</g>
	<g>
		<path d="M538.6,219c0.1,0.4,0.2,0.7,0.3,0.8c0.3,0.3,0.8,0.5,1.5,0.5c0.4,0,0.8,0,1-0.1c0.5-0.2,0.7-0.5,0.7-1
			c0-0.3-0.1-0.5-0.4-0.6c-0.2-0.1-0.6-0.3-1.1-0.4l-0.9-0.2c-0.9-0.2-1.5-0.4-1.8-0.6c-0.6-0.4-0.8-1-0.8-1.8
			c0-0.7,0.3-1.4,0.8-1.8c0.5-0.5,1.3-0.7,2.4-0.7c0.9,0,1.6,0.2,2.2,0.7c0.6,0.5,0.9,1.1,1,2h-1.7c0-0.5-0.3-0.8-0.7-1.1
			c-0.3-0.1-0.6-0.2-1-0.2c-0.5,0-0.8,0.1-1.1,0.3s-0.4,0.4-0.4,0.7s0.1,0.5,0.4,0.7c0.2,0.1,0.5,0.2,1.1,0.3l1.4,0.3
			c0.6,0.1,1.1,0.3,1.4,0.6c0.5,0.4,0.7,0.9,0.7,1.7s-0.3,1.4-0.9,1.9c-0.6,0.5-1.4,0.7-2.5,0.7s-1.9-0.2-2.6-0.7
			c-0.6-0.5-0.9-1.2-0.9-2L538.6,219L538.6,219z"/>
		<path d="M546,219c0,0.3,0.1,0.6,0.2,0.8c0.2,0.4,0.5,0.6,1.1,0.6c0.3,0,0.6-0.1,0.8-0.3s0.3-0.5,0.3-0.9c0-0.5-0.2-0.9-0.6-1.1
			c-0.2-0.1-0.6-0.2-1.2-0.2v-1.1c0.5,0,0.9-0.1,1.1-0.2c0.4-0.2,0.5-0.5,0.5-1c0-0.3-0.1-0.6-0.3-0.8s-0.4-0.3-0.8-0.3
			c-0.4,0-0.7,0.1-0.8,0.4c-0.2,0.2-0.3,0.6-0.3,1h-1.5c0-0.4,0.1-0.8,0.2-1.1c0.1-0.3,0.3-0.6,0.6-0.9c0.2-0.2,0.5-0.3,0.7-0.4
			c0.3-0.1,0.6-0.2,1.1-0.2c0.8,0,1.4,0.2,1.9,0.6s0.7,0.9,0.7,1.6c0,0.5-0.1,0.9-0.4,1.2c-0.2,0.2-0.4,0.3-0.6,0.4
			c0.1,0,0.4,0.1,0.6,0.4c0.4,0.4,0.6,0.9,0.6,1.5c0,0.7-0.2,1.3-0.7,1.8s-1.2,0.8-2.1,0.8c-1.1,0-1.9-0.4-2.4-1.1
			c-0.2-0.4-0.4-0.9-0.4-1.6h1.7L546,219L546,219z"/>
	</g>
	<g>
		<path d="M515.3,231.8c0.5,0.7,0.8,1.7,0.8,2.8c0,1.2-0.3,2.2-0.9,3.1c-0.7,1-1.8,1.4-3.1,1.4s-2.3-0.4-3-1.3c-0.6-0.8-1-1.8-1-3.1
			c0-1.1,0.3-2.1,0.8-2.8c0.7-1,1.8-1.5,3.1-1.5C513.6,230.4,514.6,230.9,515.3,231.8z M514.4,237.1c0.4-0.7,0.7-1.5,0.7-2.4
			c0-1-0.3-1.7-0.8-2.3s-1.2-0.9-2.1-0.9c-0.8,0-1.5,0.3-2.1,0.9c-0.5,0.6-0.8,1.4-0.8,2.6c0,0.9,0.2,1.7,0.7,2.3s1.2,0.9,2.2,0.9
			C513.2,238.1,513.9,237.8,514.4,237.1z"/>
		<path d="M517.3,230.6h1v3c0.2-0.3,0.5-0.5,0.8-0.7s0.6-0.2,1-0.2c0.7,0,1.4,0.3,1.8,0.8c0.5,0.5,0.7,1.3,0.7,2.3
			c0,0.9-0.2,1.7-0.7,2.4s-1.1,0.9-1.9,0.9c-0.5,0-0.8-0.1-1.2-0.3c-0.2-0.1-0.4-0.3-0.6-0.6v0.8h-0.9L517.3,230.6L517.3,230.6z
			 M521.1,237.5c0.3-0.4,0.4-1,0.4-1.7c0-0.6-0.1-1.2-0.4-1.6s-0.7-0.6-1.2-0.6s-0.9,0.2-1.2,0.5s-0.5,0.9-0.5,1.7
			c0,0.6,0.1,1,0.2,1.4c0.3,0.7,0.8,1,1.5,1C520.4,238.2,520.8,237.9,521.1,237.5z"/>
		<path d="M522.8,240.4c0.5,0,0.7-0.1,0.8-0.1s0.1-0.3,0.1-0.6V233h1v6.8c0,0.4-0.1,0.8-0.2,1c-0.2,0.4-0.7,0.5-1.3,0.5
			c0,0-0.1,0-0.2,0c-0.1,0-0.1,0-0.3,0L522.8,240.4L522.8,240.4z M524.7,231.8h-1v-1.2h1V231.8z"/>
		<path d="M530,233c0.4,0.2,0.7,0.5,0.9,0.8s0.3,0.7,0.4,1.1c0.1,0.3,0.1,0.7,0.1,1.3H527c0,0.6,0.2,1.1,0.4,1.5
			c0.3,0.4,0.7,0.6,1.2,0.6s0.9-0.2,1.2-0.5c0.2-0.2,0.3-0.4,0.4-0.7h1c0,0.2-0.1,0.5-0.3,0.7c-0.1,0.3-0.3,0.5-0.5,0.7
			c-0.3,0.3-0.7,0.5-1.1,0.6c-0.2,0.1-0.5,0.1-0.8,0.1c-0.7,0-1.4-0.3-1.9-0.8s-0.8-1.3-0.8-2.3s0.3-1.7,0.8-2.3s1.2-0.9,2-0.9
			C529.1,232.7,529.6,232.8,530,233z M530.3,235.4c0-0.4-0.1-0.8-0.3-1c-0.3-0.5-0.7-0.7-1.4-0.7c-0.5,0-0.8,0.2-1.2,0.5
			c-0.3,0.3-0.5,0.8-0.5,1.3L530.3,235.4L530.3,235.4z"/>
		<path d="M536.6,233.2c0.4,0.3,0.7,0.9,0.8,1.7h-1c-0.1-0.4-0.2-0.7-0.4-0.9s-0.6-0.4-1-0.4c-0.6,0-1.1,0.3-1.4,0.9
			c-0.2,0.4-0.3,0.9-0.3,1.5s0.1,1.1,0.4,1.5s0.7,0.6,1.2,0.6c0.4,0,0.7-0.1,1-0.4s0.4-0.6,0.5-1h1c-0.1,0.8-0.4,1.4-0.8,1.7
			c-0.4,0.4-1,0.6-1.7,0.6c-0.8,0-1.4-0.3-1.9-0.9s-0.7-1.3-0.7-2.1c0-1.1,0.3-1.9,0.8-2.5s1.2-0.9,2-0.9
			C535.6,232.7,536.2,232.9,536.6,233.2z"/>
		<path d="M538.5,231.2h1v1.7h1v0.8h-1v3.9c0,0.2,0.1,0.3,0.2,0.4c0.1,0,0.2,0.1,0.4,0.1c0,0,0.1,0,0.2,0c0.1,0,0.1,0,0.2,0v0.8
			c-0.1,0-0.2,0.1-0.4,0.1c-0.1,0-0.3,0-0.4,0c-0.5,0-0.8-0.1-1-0.4s-0.3-0.6-0.3-0.9v-4h-0.8v-0.8h0.8L538.5,231.2L538.5,231.2z"/>
		<path d="M545.6,236.2c0,0.5,0.1,0.8,0.3,1.1c0.4,0.5,1,0.8,1.9,0.8c0.4,0,0.8-0.1,1.1-0.2c0.6-0.2,1-0.6,1-1.2
			c0-0.4-0.1-0.8-0.4-1s-0.7-0.3-1.3-0.5l-1.1-0.3c-0.7-0.2-1.2-0.3-1.5-0.5c-0.5-0.3-0.8-0.9-0.8-1.5c0-0.7,0.2-1.3,0.7-1.8
			s1.2-0.7,2.1-0.7c0.8,0,1.5,0.2,2.1,0.6c0.6,0.4,0.9,1.1,0.9,2h-1c-0.1-0.4-0.2-0.8-0.3-1c-0.3-0.4-0.9-0.6-1.7-0.6
			c-0.6,0-1.1,0.1-1.4,0.4s-0.4,0.6-0.4,1s0.2,0.7,0.5,0.9c0.2,0.1,0.7,0.3,1.4,0.4l1.1,0.3c0.5,0.1,1,0.3,1.2,0.5
			c0.5,0.4,0.8,0.9,0.8,1.7c0,0.9-0.3,1.6-1,2c-0.6,0.4-1.4,0.6-2.2,0.6c-1,0-1.8-0.3-2.3-0.8c-0.6-0.5-0.8-1.2-0.8-2.1L545.6,236.2
			L545.6,236.2z"/>
		<path d="M552.5,231.2h1v1.7h1v0.8h-1v3.9c0,0.2,0.1,0.3,0.2,0.4c0.1,0,0.2,0.1,0.4,0.1c0,0,0.1,0,0.2,0c0.1,0,0.1,0,0.2,0v0.8
			c-0.1,0-0.2,0.1-0.4,0.1c-0.1,0-0.3,0-0.4,0c-0.5,0-0.8-0.1-1-0.4s-0.3-0.6-0.3-0.9v-4h-0.8v-0.8h0.8L552.5,231.2L552.5,231.2z"/>
		<path d="M559.9,233.5c0.5,0.5,0.8,1.3,0.8,2.3s-0.2,1.8-0.7,2.4s-1.2,0.9-2.2,0.9c-0.8,0-1.5-0.3-1.9-0.8s-0.7-1.3-0.7-2.2
			c0-1,0.3-1.8,0.8-2.4s1.2-0.9,2-0.9C558.7,232.7,559.3,233,559.9,233.5z M559.2,237.5c0.2-0.5,0.4-1.1,0.4-1.7s-0.1-1-0.3-1.4
			c-0.3-0.6-0.8-0.8-1.4-0.8c-0.6,0-1.1,0.2-1.3,0.7c-0.3,0.5-0.4,1-0.4,1.7c0,0.6,0.1,1.2,0.4,1.6s0.7,0.6,1.3,0.6
			C558.5,238.2,559,238,559.2,237.5z"/>
		<path d="M561.9,232.9h1v1c0.1-0.2,0.3-0.4,0.6-0.7s0.7-0.4,1.1-0.4h0.1c0,0,0.1,0,0.2,0v1.1c-0.1,0-0.1,0-0.2,0
			c-0.1,0-0.1,0-0.2,0c-0.5,0-0.9,0.2-1.2,0.5s-0.4,0.7-0.4,1.1v3.4h-1L561.9,232.9L561.9,232.9z"/>
		<path d="M568.9,235.2c0.2,0,0.4-0.1,0.5-0.3c0-0.1,0.1-0.2,0.1-0.4c0-0.3-0.1-0.6-0.4-0.7c-0.2-0.2-0.6-0.2-1-0.2
			c-0.5,0-0.9,0.1-1.1,0.4c-0.1,0.2-0.2,0.4-0.2,0.7h-0.9c0-0.7,0.3-1.3,0.7-1.5c0.5-0.3,1-0.4,1.6-0.4c0.7,0,1.3,0.1,1.7,0.4
			c0.4,0.3,0.7,0.7,0.7,1.3v3.4c0,0.1,0,0.2,0.1,0.3c0,0.1,0.1,0.1,0.3,0.1c0,0,0.1,0,0.2,0c0.1,0,0.1,0,0.2,0v0.7
			c-0.2,0-0.3,0.1-0.4,0.1c-0.1,0-0.2,0-0.3,0c-0.3,0-0.6-0.1-0.8-0.4c-0.1-0.1-0.1-0.3-0.2-0.6c-0.2,0.3-0.5,0.5-0.9,0.7
			s-0.8,0.3-1.3,0.3c-0.6,0-1-0.2-1.4-0.5s-0.5-0.8-0.5-1.3c0-0.6,0.2-1,0.5-1.3s0.8-0.5,1.4-0.6L568.9,235.2z M566.8,238
			c0.2,0.2,0.5,0.3,0.8,0.3c0.4,0,0.7-0.1,1-0.2c0.6-0.3,0.8-0.7,0.8-1.3V236c-0.1,0.1-0.3,0.1-0.5,0.2s-0.4,0.1-0.6,0.1l-0.6,0.1
			c-0.4,0-0.6,0.1-0.8,0.2c-0.3,0.2-0.5,0.5-0.5,0.8C566.5,237.6,566.6,237.8,566.8,238z"/>
		<path d="M575.4,233.1c0.2,0.1,0.4,0.3,0.6,0.6v-0.8h0.9v5.4c0,0.8-0.1,1.4-0.3,1.8c-0.4,0.8-1.2,1.2-2.4,1.2
			c-0.6,0-1.2-0.1-1.6-0.4c-0.4-0.3-0.7-0.7-0.7-1.4h1c0,0.3,0.1,0.5,0.3,0.6c0.2,0.2,0.6,0.3,1.1,0.3c0.8,0,1.3-0.3,1.5-0.8
			c0.1-0.3,0.2-0.9,0.2-1.7c-0.2,0.3-0.4,0.5-0.7,0.7c-0.3,0.1-0.7,0.2-1.1,0.2c-0.6,0-1.2-0.2-1.7-0.7s-0.7-1.2-0.7-2.3
			c0-1,0.2-1.8,0.7-2.3c0.5-0.6,1.1-0.8,1.8-0.8C574.6,232.8,575,232.9,575.4,233.1z M575.5,234.2c-0.3-0.4-0.7-0.5-1.2-0.5
			c-0.7,0-1.2,0.3-1.4,1c-0.1,0.4-0.2,0.8-0.2,1.4c0,0.7,0.1,1.2,0.4,1.5c0.3,0.4,0.6,0.5,1.1,0.5c0.7,0,1.2-0.3,1.5-1
			c0.2-0.4,0.2-0.8,0.2-1.3C576,235.1,575.8,234.6,575.5,234.2z"/>
		<path d="M582.1,233c0.4,0.2,0.7,0.5,0.9,0.8s0.3,0.7,0.4,1.1c0.1,0.3,0.1,0.7,0.1,1.3h-4.4c0,0.6,0.2,1.1,0.4,1.5
			c0.3,0.4,0.7,0.6,1.2,0.6s0.9-0.2,1.2-0.5c0.2-0.2,0.3-0.4,0.4-0.7h1c0,0.2-0.1,0.5-0.3,0.7c-0.1,0.3-0.3,0.5-0.5,0.7
			c-0.3,0.3-0.7,0.5-1.1,0.6c-0.2,0.1-0.5,0.1-0.8,0.1c-0.7,0-1.4-0.3-1.9-0.8s-0.8-1.3-0.8-2.3s0.3-1.7,0.8-2.3s1.2-0.9,2-0.9
			C581.3,232.7,581.7,232.8,582.1,233z M582.5,235.4c0-0.4-0.1-0.8-0.3-1c-0.3-0.5-0.7-0.7-1.4-0.7c-0.5,0-0.8,0.2-1.2,0.5
			c-0.3,0.3-0.5,0.8-0.5,1.3L582.5,235.4L582.5,235.4z"/>
	</g>
	<g>
		<path id="path12" class="st6" d="M547.6,201.9v-1c0-0.2,0.1-0.3,0.3-0.3h4.5c0.1,0,0.3,0.1,0.3,0.3v0.9c0,0.1-0.1,0.3-0.3,0.6
			l-2.3,3.4c0.9,0,1.8,0.1,2.6,0.6c0.2,0.1,0.2,0.2,0.2,0.4v1.1c0,0.1-0.2,0.3-0.3,0.2c-1.4-0.7-3.2-0.8-4.8,0
			c-0.2,0.1-0.3-0.1-0.3-0.2v-1c0-0.2,0-0.4,0.2-0.7l2.7-3.9H548C547.8,202.1,547.6,202,547.6,201.9"/>
		<path id="path14" class="st6" d="M531.1,208.2h-1.4c-0.1,0-0.2-0.1-0.2-0.2v-7.1c0-0.1,0.1-0.3,0.3-0.3h1.3c0.1,0,0.2,0.1,0.3,0.2
			v0.9l0,0c0.3-0.9,1-1.3,1.8-1.3c0.9,0,1.4,0.4,1.8,1.3c0.3-0.9,1.1-1.3,1.9-1.3c0.6,0,1.2,0.2,1.6,0.8c0.4,0.6,0.3,1.5,0.3,2.2
			v4.5c0,0.1-0.1,0.3-0.3,0.3h-1.4c-0.1,0-0.2-0.1-0.2-0.3v-3.8c0-0.3,0-1,0-1.3c-0.1-0.5-0.4-0.6-0.8-0.6c-0.3,0-0.7,0.2-0.8,0.6
			c-0.1,0.4-0.1,1-0.1,1.4v3.8c0,0.1-0.1,0.3-0.3,0.3h-1.4c-0.1,0-0.2-0.1-0.2-0.3v-3.8c0-0.8,0.1-2-0.8-2c-1,0-1,1.1-1,2v3.8
			C531.4,208.1,531.3,208.2,531.1,208.2"/>
		<path id="path16" class="st6" d="M556.6,200.5c2,0,3.2,1.8,3.2,4s-1.2,3.9-3.2,3.9s-3.1-1.8-3.1-3.9
			C553.5,202.2,554.6,200.5,556.6,200.5 M556.6,201.9c-1,0-1.1,1.4-1.1,2.2c0,0.9,0,2.7,1.1,2.7s1.1-1.5,1.1-2.4
			c0-0.6,0-1.3-0.2-1.9C557.3,202.1,557,201.9,556.6,201.9"/>
		<path id="path18" class="st6" d="M562.4,208.2H561c-0.1,0-0.2-0.1-0.2-0.3v-7.1c0-0.1,0.1-0.2,0.3-0.2h1.3c0.1,0,0.2,0.1,0.2,0.2
			v1.1l0,0c0.4-1,0.9-1.4,1.9-1.4c0.6,0,1.2,0.2,1.6,0.8c0.4,0.6,0.4,1.5,0.4,2.2v4.5c0,0.1-0.1,0.2-0.3,0.2h-1.4
			c-0.1,0-0.2-0.1-0.2-0.2v-3.8c0-0.8,0.1-1.9-0.9-1.9c-0.3,0-0.6,0.2-0.8,0.6c-0.2,0.4-0.2,0.9-0.2,1.3v3.8
			C562.7,208.1,562.5,208.2,562.4,208.2"/>
		<path id="path28" class="st6" d="M544,204.8c0,0.5,0,1-0.3,1.5c-0.2,0.4-0.6,0.6-1,0.6c-0.5,0-0.8-0.4-0.8-1
			c0-1.2,1.1-1.4,2.1-1.4V204.8 M545.4,208.2c-0.1,0.1-0.2,0.1-0.3,0c-0.5-0.4-0.5-0.6-0.8-0.9c-0.8,0.8-1.3,1-2.3,1
			c-1.2,0-2.1-0.7-2.1-2.1c0-1.1,0.6-1.9,1.5-2.3c0.7-0.3,1.8-0.4,2.6-0.5v-0.2c0-0.3,0-0.7-0.2-1s-0.5-0.4-0.8-0.4
			c-0.5,0-1,0.3-1.1,0.8c0,0.1-0.1,0.2-0.2,0.3l-1.3-0.1c-0.1,0-0.2-0.1-0.2-0.3c0.3-1.6,1.8-2.1,3.1-2.1c0.7,0,1.5,0.2,2.1,0.7
			c0.7,0.6,0.6,1.5,0.6,2.4v2.1c0,0.6,0.3,0.9,0.5,1.3c0.1,0.1,0.1,0.3,0,0.4C546.2,207.5,545.7,207.9,545.4,208.2L545.4,208.2"/>
		<path id="path30" class="st6" d="M526,204.8c0,0.5,0,1-0.3,1.5c-0.2,0.4-0.6,0.6-1,0.6c-0.5,0-0.8-0.4-0.8-1c0-1.2,1.1-1.4,2-1.4
			L526,204.8 M527.3,208.2c-0.1,0.1-0.2,0.1-0.3,0c-0.5-0.4-0.5-0.6-0.8-0.9c-0.8,0.8-1.3,1-2.3,1c-1.2,0-2.1-0.7-2.1-2.1
			c0-1.1,0.6-1.9,1.5-2.3c0.7-0.3,1.8-0.4,2.6-0.5v-0.2c0-0.3,0-0.7-0.2-1s-0.5-0.4-0.8-0.4c-0.5,0-1,0.3-1.1,0.8
			c0,0.1-0.1,0.2-0.2,0.3l-1.3-0.1c-0.1,0-0.2-0.1-0.2-0.3c0.3-1.6,1.8-2.1,3.1-2.1c0.7,0,1.5,0.2,2.1,0.7c0.7,0.6,0.6,1.5,0.6,2.4
			v2.1c0,0.6,0.3,0.9,0.5,1.3c0.1,0.1,0.1,0.3,0,0.4C528.1,207.5,527.6,207.9,527.3,208.2L527.3,208.2"/>
	</g>
</g>
<g>
	<path d="M474.2,157.8l-0.1-0.7l0,0c-0.3,0.5-0.9,0.9-1.8,0.9c-1.2,0-1.8-0.8-1.8-1.7c0-1.4,1.2-2.2,3.5-2.2V154
		c0-0.5-0.1-1.3-1.3-1.3c-0.5,0-1.1,0.2-1.5,0.4l-0.2-0.7c0.5-0.3,1.2-0.5,1.9-0.5c1.8,0,2.2,1.2,2.2,2.4v2.2c0,0.5,0,1,0.1,1.4
		L474.2,157.8L474.2,157.8z M474,154.8c-1.2,0-2.5,0.2-2.5,1.3c0,0.7,0.5,1,1,1c0.8,0,1.2-0.5,1.4-1c0-0.1,0.1-0.2,0.1-0.3V154.8z"
		/>
	<path d="M476.8,153.5c0-0.6,0-1.1,0-1.6h0.9l0.1,1l0,0c0.3-0.6,1-1.1,1.9-1.1c0.8,0,2.1,0.5,2.1,2.5v3.5h-1.1v-3.3
		c0-0.9-0.3-1.7-1.3-1.7c-0.7,0-1.2,0.5-1.4,1.1c0,0.1-0.1,0.3-0.1,0.5v3.5h-1.1V153.5z"/>
	<path d="M488.4,149.2v7c0,0.5,0,1.1,0,1.5h-0.9v-1l0,0c-0.3,0.6-1,1.1-2,1.1c-1.4,0-2.5-1.2-2.5-3c0-1.9,1.2-3.1,2.6-3.1
		c0.9,0,1.5,0.4,1.8,0.9l0,0v-3.5h1V149.2z M487.4,154.3c0-0.1,0-0.3,0-0.4c-0.2-0.7-0.7-1.2-1.5-1.2c-1.1,0-1.7,1-1.7,2.2
		s0.6,2.1,1.7,2.1c0.7,0,1.4-0.5,1.5-1.3c0-0.1,0-0.3,0-0.5V154.3z"/>
</g>
</svg>
