<?xml version="1.0" encoding="utf-8"?>
<!-- Generator: Adobe Illustrator 23.0.4, SVG Export Plug-In . SVG Version: 6.00 Build 0)  -->
<svg version="1.1" xmlns="http://www.w3.org/2000/svg" xmlns:xlink="http://www.w3.org/1999/xlink" x="0px" y="0px"
	 viewBox="0 0 3050 585" style="enable-background:new 0 0 3050 585;" xml:space="preserve">
<style type="text/css">
	.st0{fill:#FFFFFF;stroke:#000000;stroke-width:5;stroke-miterlimit:10;}
	.st1{fill:none;stroke:#000000;stroke-width:5;stroke-miterlimit:10;}
	.st2{fill:#202020;}
	.st3{font-family:'MyriadPro-Regular';}
	.st4{font-size:42.4464px;}
	.st5{fill:none;stroke:#000000;stroke-width:4;stroke-miterlimit:10.433;}
	.st6{fill:#8C3123;}
	.st7{fill:#E05243;}
	.st8{fill:#5E1F18;}
	.st9{fill:#F2B0A9;}
	.st10{font-family:'Helvetica-Bold';}
	.st11{font-size:36.3509px;}
	.st12{font-size:35.2493px;}
	.st13{font-family:'Helvetica';}
	.st14{font-size:26.437px;}
	.st15{fill:none;}
</style>
<g id="Layer_1">
</g>
<g id="Layer_3">
</g>
<g id="amazon_icons">
	<g>
		<rect x="14.5" y="92.2" class="st0" width="2167.8" height="262.9"/>
		<line class="st1" x1="97.1" y1="379.7" x2="97.1" y2="310.7"/>
		<line class="st1" x1="304.2" y1="387.4" x2="304.2" y2="318.4"/>
		<line class="st1" x1="430.9" y1="387.4" x2="430.9" y2="318.4"/>
		<line class="st1" x1="638.6" y1="383" x2="638.6" y2="314"/>
		<line class="st1" x1="847.9" y1="386.3" x2="847.9" y2="317.3"/>
		<line class="st1" x1="972.3" y1="386.3" x2="972.3" y2="317.3"/>
		<line class="st1" x1="1182.7" y1="378.4" x2="1182.7" y2="309.4"/>
		<line class="st1" x1="1389.8" y1="386.1" x2="1389.8" y2="317.1"/>
		<line class="st1" x1="1514.3" y1="386.1" x2="1514.3" y2="317.1"/>
		<line class="st1" x1="1724" y1="379.4" x2="1724" y2="310.4"/>
		<line class="st1" x1="1932.2" y1="388.2" x2="1932.2" y2="319.2"/>
		<line class="st1" x1="2058.9" y1="388.2" x2="2058.9" y2="319.2"/>
		<line class="st1" x1="496.7" y1="223.1" x2="1723.7" y2="223.1"/>
		<g>
			<g>
				<g>
					<polygon class="st2" points="2333.9,222.3 2333.9,231.4 2376.8,219.9 2333.9,208.4 2333.9,217.5 2180.7,217.5 2180.7,222.3 
											"/>
				</g>
			</g>
		</g>
		<rect x="55.3" y="124.1" class="st0" width="459.3" height="199.3"/>
		<rect x="596.1" y="124.1" class="st0" width="459.3" height="199.3"/>
		<rect x="1138.1" y="124.1" class="st0" width="459.3" height="199.3"/>
		<rect x="1682.2" y="124.1" class="st0" width="459.3" height="199.3"/>
		<text transform="matrix(1 0 0 1 179.856 236.7915)" class="st3 st4">VM Instance</text>
		<text transform="matrix(1 0 0 1 724.8828 236.7915)" class="st3 st4">VM Instance</text>
		<text transform="matrix(1 0 0 1 1284.0713 236.7915)" class="st3 st4">VM Instance</text>
		<text transform="matrix(1 0 0 1 1813.1875 236.7915)" class="st3 st4">VM Instance</text>
		<g id="g2168" transform="matrix(1.659498e-2,0,0,-1.6595293e-2,-0.7853496,1.6720856)">
			<path id="path2170" class="st5" d="M3150.1-29758v6185c0,379.5,1734.6,687.2,3869.8,687.2c2135.4,0,3870.1-307.7,3870.1-687.2
				v-6185c0-378.7-1734.7-886.4-3870.1-886.4C4884.6-30644.3,3150.1-30136.7,3150.1-29758z"/>
			<path id="path2172" class="st5" d="M3150.1-23572.9l5.2-35.3l14.9-34.8l24.7-34.4l34-33.8l43.3-33.3l52.2-32.5l60.9-31.9
				l69.4-31.2l77.5-30.4l85.6-29.6l93.2-28.9l100.8-27.8l107.9-27l114.9-26l121.7-24.9l128.1-24l134.4-22.8l140.5-21.5l146.3-20.5
				l151.6-19.2l157.1-17.9l162-16.5l167-15.3l171.3-13.7l175.7-12.4l179.7-10.8l183.6-9.3l187.2-7.6l190.5-6.1l193.5-4.3l196.4-2.7
				l198.9-0.9c2135.4,0,3870.1,308.5,3870.1,687.2"/>
		</g>
		<path id="path2170_4_" class="st5" d="M238.8,558.1v-154c0-9.4,28.8-17.1,64.2-17.1c35.4,0,64.2,7.7,64.2,17.1v154
			c0,9.4-28.8,17.1-64.2,17.1C267.5,575.2,238.8,567.5,238.8,558.1z"/>
		<path id="path2170_5_" class="st5" d="M366.5,558.1v-154c0-9.4,28.8-17.1,64.2-17.1c35.4,0,64.2,7.7,64.2,17.1v154
			c0,9.4-28.8,17.1-64.2,17.1C395.3,575.2,366.5,567.5,366.5,558.1z"/>
		<path id="path2170_7_" class="st5" d="M779.6,558.1v-154c0-9.4,28.8-17.1,64.2-17.1c35.4,0,64.2,7.7,64.2,17.1v154
			c0,9.4-28.8,17.1-64.2,17.1C808.4,575.2,779.6,567.5,779.6,558.1z"/>
		<path id="path2172_7_" class="st5" d="M779.6,403.6l0.1,0.6l0.2,0.6l0.4,0.6l0.6,0.5l0.7,0.5l0.9,0.5l1,0.5l1.2,0.5l1.3,0.5
			l1.4,0.5l1.5,0.5l1.7,0.4l1.8,0.4l1.9,0.4l2,0.4l2.1,0.4l2.2,0.4l2.3,0.3l2.4,0.3l2.5,0.3l2.6,0.3l2.7,0.3l2.8,0.2l2.8,0.2
			l2.9,0.2l3,0.2l3,0.1l3.1,0.1l3.2,0.1l3.2,0.1l3.3,0l3.3,0c35.4,0,64.2-4.9,64.2-11"/>
		<path id="path2172_4_" class="st5" d="M779.6,403.6l0.1,0.6l0.2,0.6l0.4,0.6l0.6,0.5l0.7,0.5l0.9,0.5l1,0.5l1.2,0.5l1.3,0.5
			l1.4,0.5l1.5,0.5l1.7,0.4l1.8,0.4l1.9,0.4l2,0.4l2.1,0.4l2.2,0.4l2.3,0.3l2.4,0.3l2.5,0.3l2.6,0.3l2.7,0.3l2.8,0.2l2.8,0.2
			l2.9,0.2l3,0.2l3,0.1l3.1,0.1l3.2,0.1l3.2,0.1l3.3,0l3.3,0c35.4,0,64.2-4.9,64.2-11"/>
		<path id="path2172_6_" class="st5" d="M907.4,403.6l0.1,0.6l0.2,0.6l0.4,0.6l0.6,0.5l0.7,0.5l0.9,0.5l1,0.5l1.2,0.5l1.3,0.5
			l1.4,0.5l1.5,0.5l1.7,0.4l1.8,0.4l1.9,0.4l2,0.4l2.1,0.4l2.2,0.4l2.3,0.3l2.4,0.3l2.5,0.3l2.6,0.3l2.7,0.3l2.8,0.2l2.8,0.2
			l2.9,0.2l3,0.2l3,0.1l3.1,0.1l3.2,0.1l3.2,0.1l3.3,0l3.3,0c35.4,0,64.2-4.9,64.2-11"/>
		<g>
			<path id="path2172_9_" class="st5" d="M1323.8,403.6l0.1,0.6l0.2,0.6l0.4,0.6l0.6,0.5l0.7,0.5l0.9,0.5l1,0.5l1.2,0.5l1.3,0.5
				l1.4,0.5l1.5,0.5l1.7,0.4l1.8,0.4l1.9,0.4l2,0.4l2.1,0.4l2.2,0.4l2.3,0.3l2.4,0.3l2.5,0.3l2.6,0.3l2.7,0.3l2.8,0.2l2.8,0.2
				l2.9,0.2l3,0.2l3,0.1l3.1,0.1l3.2,0.1l3.2,0.1l3.3,0l3.3,0c35.4,0,64.2-4.9,64.2-11"/>
			<path id="path2172_8_" class="st5" d="M1451.5,403.6l0.1,0.6l0.2,0.6l0.4,0.6l0.6,0.5l0.7,0.5l0.9,0.5l1,0.5l1.2,0.5l1.3,0.5
				l1.4,0.5l1.5,0.5l1.7,0.4l1.8,0.4l1.9,0.4l2,0.4l2.1,0.4l2.2,0.4l2.3,0.3l2.4,0.3l2.5,0.3l2.6,0.3l2.7,0.3l2.8,0.2l2.8,0.2
				l2.9,0.2l3,0.2l3,0.1l3.1,0.1l3.2,0.1l3.2,0.1l3.3,0l3.3,0c35.4,0,64.2-4.9,64.2-11"/>
		</g>
		<g>
			<path id="path2172_11_" class="st5" d="M1870.1,403.6l0.1,0.6l0.2,0.6l0.4,0.6l0.6,0.5l0.7,0.5l0.9,0.5l1,0.5l1.2,0.5l1.3,0.5
				l1.4,0.5l1.5,0.5l1.7,0.4l1.8,0.4l1.9,0.4l2,0.4l2.1,0.4l2.2,0.4l2.3,0.3l2.4,0.3l2.5,0.3l2.6,0.3l2.7,0.3l2.8,0.2l2.8,0.2
				l2.9,0.2l3,0.2l3,0.1l3.1,0.1l3.2,0.1l3.2,0.1l3.3,0l3.3,0c35.4,0,64.2-4.9,64.2-11"/>
			<path id="path2172_10_" class="st5" d="M1997.9,403.6l0.1,0.6l0.2,0.6l0.4,0.6l0.6,0.5l0.7,0.5l0.9,0.5l1,0.5l1.2,0.5l1.3,0.5
				l1.4,0.5l1.5,0.5l1.7,0.4l1.8,0.4l1.9,0.4l2,0.4l2.1,0.4l2.2,0.4l2.3,0.3l2.4,0.3l2.5,0.3l2.6,0.3l2.7,0.3l2.8,0.2l2.8,0.2
				l2.9,0.2l3,0.2l3,0.1l3.1,0.1l3.2,0.1l3.2,0.1l3.3,0l3.3,0c35.4,0,64.2-4.9,64.2-11"/>
		</g>
		<path id="path2172_5_" class="st5" d="M238.8,403.6l0.1,0.6l0.2,0.6l0.4,0.6l0.6,0.5l0.7,0.5l0.9,0.5l1,0.5l1.2,0.5l1.3,0.5
			l1.4,0.5l1.5,0.5l1.7,0.4l1.8,0.4l1.9,0.4l2,0.4l2.1,0.4l2.2,0.4l2.3,0.3l2.4,0.3l2.5,0.3l2.6,0.3l2.7,0.3l2.8,0.2l2.8,0.2
			l2.9,0.2l3,0.2l3,0.1l3.1,0.1l3.2,0.1l3.2,0.1l3.3,0l3.3,0c35.4,0,64.2-4.9,64.2-11"/>
		<path id="path2172_12_" class="st5" d="M365.4,403.6l0.1,0.6l0.2,0.6l0.4,0.6l0.6,0.5l0.7,0.5l0.9,0.5l1,0.5l1.2,0.5l1.3,0.5
			l1.4,0.5l1.5,0.5l1.7,0.4l1.8,0.4l1.9,0.4l2,0.4l2.1,0.4l2.2,0.4l2.3,0.3l2.4,0.3l2.5,0.3l2.6,0.3l2.7,0.3l2.8,0.2l2.8,0.2
			l2.9,0.2l3,0.2l3,0.1l3.1,0.1l3.2,0.1l3.2,0.1l3.3,0l3.3,0c35.4,0,64.2-4.9,64.2-11"/>
		<path id="path2170_6_" class="st5" d="M907.4,558.1v-154c0-9.4,28.8-17.1,64.2-17.1c35.4,0,64.2,7.7,64.2,17.1v154
			c0,9.4-28.8,17.1-64.2,17.1C936.2,575.2,907.4,567.5,907.4,558.1z"/>
		<path id="path2170_9_" class="st5" d="M1323.8,558.1v-154c0-9.4,28.8-17.1,64.2-17.1c35.4,0,64.2,7.7,64.2,17.1v154
			c0,9.4-28.8,17.1-64.2,17.1C1352.6,575.2,1323.8,567.5,1323.8,558.1z"/>
		<path id="path2170_8_" class="st5" d="M1451.5,558.1v-154c0-9.4,28.8-17.1,64.2-17.1c35.4,0,64.2,7.7,64.2,17.1v154
			c0,9.4-28.8,17.1-64.2,17.1C1480.3,575.2,1451.5,567.5,1451.5,558.1z"/>
		<path id="path2170_11_" class="st5" d="M1870.1,558.1v-154c0-9.4,28.8-17.1,64.2-17.1c35.4,0,64.2,7.7,64.2,17.1v154
			c0,9.4-28.8,17.1-64.2,17.1C1898.9,575.2,1870.1,567.5,1870.1,558.1z"/>
		<path id="path2170_10_" class="st5" d="M1997.9,558.1v-154c0-9.4,28.8-17.1,64.2-17.1c35.4,0,64.2,7.7,64.2,17.1v154
			c0,9.4-28.8,17.1-64.2,17.1C2026.7,575.2,1997.9,567.5,1997.9,558.1z"/>
		<g id="g2168_1_" transform="matrix(1.659498e-2,0,0,-1.6595293e-2,-0.7853496,1.6720856)">
			<path id="path2170_1_" class="st5" d="M35940.8-29758v6185c0,379.5,1734.6,687.2,3869.8,687.2
				c2135.4,0,3870.1-307.7,3870.1-687.2v-6185c0-378.7-1734.7-886.4-3870.1-886.4C37675.3-30644.3,35940.8-30136.7,35940.8-29758z"
				/>
			<path id="path2172_1_" class="st5" d="M35940.8-23572.9l5.2-35.3l14.9-34.8l24.7-34.4l34-33.8l43.3-33.3l52.2-32.5l60.9-31.9
				l69.4-31.2l77.5-30.4l85.6-29.6l93.2-28.9l100.8-27.8l107.9-27l114.9-26l121.7-24.9l128.1-24l134.4-22.8l140.5-21.5l146.3-20.5
				l151.6-19.2l157.1-17.9l162-16.5l167-15.3l171.3-13.7l175.7-12.4l179.7-10.8l183.6-9.3l187.2-7.6l190.5-6.1l193.5-4.3l196.4-2.7
				l198.9-0.9c2135.4,0,3870.1,308.5,3870.1,687.2"/>
		</g>
		<g id="g2168_2_" transform="matrix(1.659498e-2,0,0,-1.6595293e-2,-0.7853496,1.6720856)">
			<path id="path2170_2_" class="st5" d="M67536.6-29758v6185c0,379.5,1734.6,687.2,3869.9,687.2
				c2135.4,0,3870.1-307.7,3870.1-687.2v-6185c0-378.7-1734.7-886.4-3870.1-886.4C69271.2-30644.3,67536.6-30136.7,67536.6-29758z"
				/>
			<path id="path2172_2_" class="st5" d="M67536.6-23572.9l5.2-35.3l14.9-34.8l24.6-34.4l34-33.8l43.3-33.3l52.2-32.5l60.9-31.9
				l69.4-31.2l77.5-30.4l85.6-29.6l93.2-28.9l100.8-27.8l107.9-27l115-26l121.7-24.9l128.1-24l134.4-22.8l140.5-21.5l146.3-20.5
				l151.6-19.2l157.1-17.9l162-16.5l167-15.3l171.3-13.7l175.7-12.4l179.7-10.8l183.6-9.3l187.2-7.6l190.5-6.1l193.5-4.3l196.4-2.7
				l198.9-0.9c2135.4,0,3870.1,308.5,3870.1,687.2"/>
		</g>
		<g id="g2168_3_" transform="matrix(1.659498e-2,0,0,-1.6595293e-2,-0.7853496,1.6720856)">
			<path id="path2170_3_" class="st5" d="M100061.8-29758v6185c0,379.5,1734.5,687.2,3869.8,687.2
				c2135.4,0,3870.1-307.7,3870.1-687.2v-6185c0-378.7-1734.7-886.4-3870.1-886.4C101796.4-30644.3,100061.8-30136.7,100061.8-29758
				z"/>
			<path id="path2172_3_" class="st5" d="M100061.8-23572.9l5.2-35.3l14.9-34.8l24.7-34.4l34-33.8l43.3-33.3l52.2-32.5l60.9-31.9
				l69.4-31.2l77.5-30.4l85.6-29.6l93.2-28.9l100.8-27.8l107.9-27l114.9-26l121.7-24.9l128.1-24l134.4-22.8l140.5-21.5l146.3-20.5
				l151.6-19.2l157.1-17.9l162-16.5l167-15.3l171.3-13.7l175.7-12.4l179.7-10.8l183.6-9.3l187.2-7.6l190.5-6.1l193.5-4.3l196.4-2.7
				l198.9-0.9c2135.4,0,3870.1,308.5,3870.1,687.2"/>
		</g>
		<g>
			<path class="st6" d="M2397.1,135.3l-17.6,8.8v154.6l17.6,8.8l0.1-0.1v-172L2397.1,135.3"/>
			<path class="st7" d="M2491.4,285.1l-94.3,22.4V135.3l94.3,22V285.1"/>
			<path class="st6" d="M2448.8,249.9l40,5.1l0.3-0.6l0.2-65.6l-0.5-0.5l-40,5V249.9"/>
			<path class="st6" d="M2488.8,285.3l91.7,22.2l0.1-0.2l0-171.9l-0.1-0.2l-91.7,22.2V285.3"/>
			<path class="st7" d="M2528.8,249.9l-40,5.1v-66.7l40,5V249.9"/>
			<path class="st8" d="M2528.8,166l-40,7.3l-40-7.3l39.9-10.5L2528.8,166"/>
			<path class="st9" d="M2528.8,277.2l-40-7.3l-40,7.3l39.9,11.2L2528.8,277.2"/>
			<path class="st6" d="M2448.8,166l40-9.9l0.3-0.1V89.7l-0.3-0.3l-40,20V166"/>
			<path class="st7" d="M2528.8,166l-40-9.9V89.4l40,20V166"/>
			<path class="st6" d="M2488.8,353.8l-40-20v-56.6l40,9.9l0.6,0.7l-0.2,64.8L2488.8,353.8"/>
			<path class="st7" d="M2488.8,353.8l40-20v-56.6l-40,9.9V353.8 M2580.5,135.3l17.6,8.8v154.6l-17.6,8.8V135.3"/>
		</g>
		
			<image style="overflow:visible;" width="1200" height="1200" xlink:href="../../../Documents/cloud_aws_icons/AWS_Simple_Icons_Storage_Amazon_EBS.svg.png"  transform="matrix(0.3342 0 0 0.3342 2671.9688 24.435)">
		</image>
		
			<image style="overflow:visible;" width="231" height="59" xlink:href="C218A9808CB20CCE.png"  transform="matrix(0.6342 0 0 0.6342 2416.4111 378.0298)">
		</image>
		
			<image style="overflow:visible;" width="231" height="59" xlink:href="C218A9808CB20CCA.png"  transform="matrix(0.6342 0 0 0.6342 2799.7476 378.0298)">
		</image>
		
			<image style="overflow:visible;" width="231" height="59" xlink:href="C218A9808CB20CC9.png"  transform="matrix(0.6342 0 0 0.6342 2416.4111 378.0298)">
		</image>
		<text transform="matrix(1 0 0 1 2464.748 452.3394)" class="st10 st11">S3</text>
		<text transform="matrix(1 0 0 1 2830.459 451.2378)" class="st10 st12">EBS</text>
		<text transform="matrix(1 0 0 1 2663.0254 230.9297)" class="st10 st11">or</text>
		<text transform="matrix(1 0 0 1 2373.3193 507.4165)" class="st13 st11">Object Storage</text>
		<text transform="matrix(1 0 0 1 2756.6562 507.4165)" class="st13 st11">Block Storage</text>
		<text transform="matrix(1 0 0 1 89.0693 444.6284)"><tspan x="0" y="0" class="st13 st14">Boot </tspan><tspan x="-17.6" y="31.7" class="st13 st14">Volume</tspan></text>
		<text transform="matrix(1 0 0 1 633.2305 444.6284)"><tspan x="0" y="0" class="st13 st14">Boot </tspan><tspan x="-17.6" y="31.7" class="st13 st14">Volume</tspan></text>
		<text transform="matrix(1 0 0 1 1157.5645 444.6284)"><tspan x="0" y="0" class="st13 st14">Boot </tspan><tspan x="-17.6" y="31.7" class="st13 st14">Volume</tspan></text>
		<text transform="matrix(1 0 0 1 1697.3193 444.6284)"><tspan x="0" y="0" class="st13 st14">Boot </tspan><tspan x="-17.6" y="31.7" class="st13 st14">Volume</tspan></text>
		<text transform="matrix(1 0 0 1 274.5005 477.6748)"><tspan x="0" y="0" class="st13 st14">Data </tspan><tspan x="-16.9" y="31.7" class="st13 st14">Volume</tspan></text>
		<polygon class="st15" points="307.6,468.3 331.2,468.3 331.2,468.3 307.6,468.3 		"/>
		<text transform="matrix(1 0 0 1 404.4819 477.6748)"><tspan x="0" y="0" class="st13 st14">Data </tspan><tspan x="-16.9" y="31.7" class="st13 st14">Volume</tspan></text>
		<text transform="matrix(1 0 0 1 816.4585 478.7764)"><tspan x="0" y="0" class="st13 st14">Data </tspan><tspan x="-16.9" y="31.7" class="st13 st14">Volume</tspan></text>
		<text transform="matrix(1 0 0 1 944.2378 478.7764)"><tspan x="0" y="0" class="st13 st14">Data </tspan><tspan x="-16.9" y="31.7" class="st13 st14">Volume</tspan></text>
		<text transform="matrix(1 0 0 1 1358.417 479.8779)"><tspan x="0" y="0" class="st13 st14">Data </tspan><tspan x="-16.9" y="31.7" class="st13 st14">Volume</tspan></text>
		<text transform="matrix(1 0 0 1 1487.2974 479.8779)"><tspan x="0" y="0" class="st13 st14">Data </tspan><tspan x="-16.9" y="31.7" class="st13 st14">Volume</tspan></text>
		<text transform="matrix(1 0 0 1 1905.8828 479.8779)"><tspan x="0" y="0" class="st13 st14">Data </tspan><tspan x="-16.9" y="31.7" class="st13 st14">Volume</tspan></text>
		<text transform="matrix(1 0 0 1 2033.6621 479.8779)"><tspan x="0" y="0" class="st13 st14">Data </tspan><tspan x="-16.9" y="31.7" class="st13 st14">Volume</tspan></text>
		<text transform="matrix(1 0 0 1 2340.2734 33.7534)" class="st10 st12">Persistent store for database and search </text>
	</g>
</g>
</svg>
