<?xml version="1.0" encoding="utf-8"?>
<!-- Generator: Adobe Illustrator 24.1.2, SVG Export Plug-In . SVG Version: 6.00 Build 0)  -->
<svg version="1.1" id="Layer_1" xmlns="http://www.w3.org/2000/svg" xmlns:xlink="http://www.w3.org/1999/xlink" x="0px" y="0px"
	 viewBox="0 0 700 265" style="enable-background:new 0 0 700 265;" xml:space="preserve">
<style type="text/css">
	.st0{display:none;}
	.st1{fill:none;stroke:#000000;stroke-width:2.5;stroke-miterlimit:10;}
	.st2{fill:#FFFFFF;stroke:#000000;stroke-width:2.5;stroke-miterlimit:10;}
	.st3{fill:#4285F4;}
	.st4{opacity:7.000000e-02;enable-background:new    ;}
	.st5{fill:#FFFFFF;}
	.st6{fill:#737373;}
	.st7{fill:#FFCC40;}
	.st8{fill:#DA4437;}
	.st9{fill:#4284F3;}
	.st10{fill:#DFDFDF;}
	.st11{opacity:0.2;fill:#FFFFFF;enable-background:new    ;}
	.st12{fill:#1A237E;fill-opacity:0.2;}
	.st13{opacity:0.2;}
	.st14{fill:#BE360C;}
	.st15{fill:#3E2723;}
	.st16{fill:url(#SVGID_1_);}
	.st17{fill:url(#SVGID_2_);}
	.st18{fill:url(#SVGID_3_);}
	.st19{fill:url(#SVGID_4_);}
</style>
<g class="st0">
	
		<image style="display:inline;overflow:visible;enable-background:new    ;" width="1805" height="368" xlink:href="cloud-vm-storage.png"  transform="matrix(1.0019 0 0 1.0019 -538.2466 -48.6067)">
	</image>
</g>
<g>
	<line class="st1" x1="88.3" y1="94.6" x2="88.3" y2="67.6"/>
	<line class="st1" x1="266.2" y1="94.6" x2="266.2" y2="67.6"/>
	<line class="st1" x1="446.3" y1="95.4" x2="446.3" y2="68.3"/>
	<line class="st1" x1="616.3" y1="97.5" x2="616.3" y2="70.5"/>
</g>
<line class="st1" x1="153" y1="40" x2="549.6" y2="40"/>
<rect x="6.6" y="8" class="st2" width="154.5" height="64.4"/>
<rect x="183.8" y="8" class="st2" width="154.5" height="64.4"/>
<rect x="361.5" y="8" class="st2" width="154.5" height="64.4"/>
<rect x="537.9" y="8" class="st2" width="154.5" height="64.4"/>
<rect x="6.6" y="88.6" class="st2" width="685.9" height="169.2"/>
<g>
	<path d="M53.7,44.4l-3-9.2H52l1.4,4.6c0.4,1.2,0.7,2.4,1,3.5l0,0c0.3-1.1,0.6-2.2,1.1-3.4l1.6-4.6h1.3l-3.3,9.2L53.7,44.4
		L53.7,44.4z"/>
	<path d="M67.1,40.3c-0.1-1.3-0.2-2.8-0.1-4l0,0c-0.3,1.1-0.7,2.2-1.2,3.5l-1.6,4.5h-0.9l-1.5-4.4c-0.4-1.3-0.8-2.5-1.1-3.6l0,0
		c0,1.2-0.1,2.7-0.2,4.1l-0.2,4h-1.1l0.6-9.2h1.5l1.6,4.5c0.4,1.1,0.7,2.2,0.9,3.1l0,0c0.2-0.9,0.6-1.9,1-3.1l1.6-4.5h1.5l0.6,9.2
		h-1.2L67.1,40.3z"/>
	<path d="M74.4,35.2v9.2h-1.2v-9.2H74.4z"/>
	<path d="M76.6,39.6c0-0.7,0-1.2-0.1-1.8h1.1l0.1,1.1l0,0c0.3-0.6,1.1-1.2,2.2-1.2c0.9,0,2.3,0.5,2.3,2.8v4H81v-3.8
		c0-1.1-0.4-2-1.5-2c-0.8,0-1.4,0.6-1.6,1.2c0,0.1-0.1,0.3-0.1,0.5v4h-1.2C76.6,44.4,76.6,39.6,76.6,39.6z"/>
	<path d="M84.1,43.2c0.4,0.2,1,0.5,1.6,0.5c0.9,0,1.3-0.4,1.3-1s-0.3-0.9-1.2-1.2c-1.2-0.4-1.8-1.1-1.8-1.9c0-1.1,0.9-1.9,2.3-1.9
		c0.7,0,1.3,0.2,1.6,0.4L87.6,39c-0.3-0.2-0.7-0.4-1.4-0.4c-0.7,0-1.1,0.4-1.1,0.9s0.4,0.8,1.3,1.1c1.2,0.4,1.7,1,1.7,2
		c0,1.2-0.9,2-2.5,2c-0.7,0-1.4-0.2-1.9-0.5L84.1,43.2z"/>
	<path d="M91.1,35.9v1.9h1.7v0.9h-1.7v3.6c0,0.8,0.2,1.3,0.9,1.3c0.3,0,0.5,0,0.7-0.1l0.1,0.9c-0.2,0.1-0.6,0.2-1.1,0.2
		c-0.6,0-1-0.2-1.3-0.5c-0.3-0.4-0.5-0.9-0.5-1.7v-3.6h-1v-0.9h1v-1.7L91.1,35.9z"/>
	<path d="M97.9,44.4l-0.1-0.8l0,0c-0.4,0.5-1.1,1-2,1c-1.3,0-2-0.9-2-1.9c0-1.6,1.4-2.5,4-2.5v-0.1c0-0.5-0.2-1.5-1.5-1.5
		c-0.6,0-1.3,0.2-1.7,0.5l-0.4-0.9c0.5-0.4,1.3-0.6,2.2-0.6c2,0,2.5,1.4,2.5,2.7v2.5c0,0.6,0,1.1,0.1,1.6H97.9z M97.7,41
		c-1.3,0-2.8,0.2-2.8,1.5c0,0.8,0.5,1.2,1.1,1.2c0.9,0,1.4-0.5,1.6-1.1c0-0.1,0.1-0.3,0.1-0.4C97.7,42.2,97.7,41,97.7,41z"/>
	<path d="M100.8,39.6c0-0.7,0-1.2-0.1-1.8h1.1l0.1,1.1l0,0c0.3-0.6,1.1-1.2,2.2-1.2c0.9,0,2.3,0.5,2.3,2.8v4h-1.2v-3.8
		c0-1.1-0.4-2-1.5-2c-0.8,0-1.4,0.6-1.6,1.2c-0.1,0.2-0.1,0.4-0.1,0.6v4h-1.2C100.8,44.5,100.8,39.6,100.8,39.6z"/>
	<path d="M113.2,44.2c-0.3,0.2-1,0.4-1.9,0.4c-2,0-3.3-1.4-3.3-3.4s1.4-3.5,3.6-3.5c0.7,0,1.3,0.2,1.7,0.3l-0.3,0.9
		c-0.3-0.2-0.7-0.3-1.4-0.3c-1.5,0-2.3,1.1-2.3,2.5c0,1.5,1,2.5,2.3,2.5c0.7,0,1.1-0.2,1.5-0.3L113.2,44.2z"/>
	<path d="M115.2,41.3c0,1.6,1.1,2.3,2.3,2.3c0.9,0,1.4-0.2,1.8-0.3l0.2,0.9c-0.4,0.2-1.2,0.4-2.2,0.4c-2,0-3.3-1.3-3.3-3.3
		s1.2-3.6,3.1-3.6c2.2,0,2.7,1.9,2.7,3.1c0,0.2,0,0.4,0,0.6h-4.6V41.3z M118.7,40.4c0-0.8-0.3-2-1.7-2c-1.2,0-1.8,1.1-1.9,2H118.7z"
		/>
</g>
<g>
	<path d="M229.8,44.4l-3-9.2h1.3l1.4,4.6c0.4,1.2,0.7,2.4,1,3.5l0,0c0.3-1.1,0.6-2.2,1.1-3.4l1.6-4.6h1.3l-3.3,9.2L229.8,44.4
		L229.8,44.4z"/>
	<path d="M243.3,40.3c-0.1-1.3-0.2-2.8-0.1-4l0,0c-0.3,1.1-0.7,2.2-1.2,3.5l-1.6,4.5h-0.9l-1.5-4.4c-0.4-1.3-0.8-2.5-1.1-3.6l0,0
		c0,1.2-0.1,2.7-0.2,4.1l-0.2,4h-1.1l0.6-9.2h1.5l1.6,4.5c0.4,1.1,0.7,2.2,0.9,3.1l0,0c0.2-0.9,0.6-1.9,1-3.1l1.6-4.5h1.5l0.6,9.2
		h-1.2L243.3,40.3z"/>
	<path d="M250.6,35.2v9.2h-1.2v-9.2H250.6z"/>
	<path d="M252.8,39.6c0-0.7,0-1.2-0.1-1.8h1.1l0.1,1.1l0,0c0.3-0.6,1.1-1.2,2.2-1.2c0.9,0,2.3,0.5,2.3,2.8v4h-1.2v-3.8
		c0-1.1-0.4-2-1.5-2c-0.8,0-1.4,0.6-1.6,1.2c-0.1,0.2-0.1,0.4-0.1,0.6v4h-1.2L252.8,39.6L252.8,39.6z"/>
	<path d="M260.2,43.2c0.4,0.2,1,0.5,1.6,0.5c0.9,0,1.3-0.4,1.3-1s-0.3-0.9-1.2-1.2c-1.2-0.4-1.8-1.1-1.8-1.9c0-1.1,0.9-1.9,2.3-1.9
		c0.7,0,1.3,0.2,1.6,0.4l-0.3,0.9c-0.3-0.2-0.7-0.4-1.4-0.4c-0.7,0-1.1,0.4-1.1,0.9s0.4,0.8,1.3,1.1c1.2,0.4,1.7,1,1.7,2
		c0,1.2-0.9,2-2.5,2c-0.7,0-1.4-0.2-1.9-0.5L260.2,43.2z"/>
	<path d="M267.3,35.9v1.9h1.7v0.9h-1.7v3.6c0,0.8,0.2,1.3,0.9,1.3c0.3,0,0.5,0,0.7-0.1l0.1,0.9c-0.2,0.1-0.6,0.2-1.1,0.2
		c-0.6,0-1-0.2-1.3-0.5c-0.3-0.4-0.5-0.9-0.5-1.7v-3.6h-1v-0.9h1v-1.7L267.3,35.9z"/>
	<path d="M274.1,44.4l-0.1-0.8l0,0c-0.4,0.5-1.1,1-2,1c-1.3,0-2-0.9-2-1.9c0-1.6,1.4-2.5,4-2.5v-0.1c0-0.5-0.2-1.5-1.5-1.5
		c-0.6,0-1.3,0.2-1.7,0.5l-0.3-0.8c0.5-0.4,1.3-0.6,2.2-0.6c2,0,2.5,1.4,2.5,2.7v2.5c0,0.6,0,1.1,0.1,1.6h-1.2V44.4z M273.9,41
		c-1.3,0-2.8,0.2-2.8,1.5c0,0.8,0.5,1.2,1.1,1.2c0.9,0,1.4-0.5,1.6-1.1c0-0.1,0.1-0.3,0.1-0.4L273.9,41L273.9,41z"/>
	<path d="M277,39.6c0-0.7,0-1.2-0.1-1.8h1.1l0.1,1.1l0,0c0.3-0.6,1.1-1.2,2.2-1.2c0.9,0,2.3,0.5,2.3,2.8v4h-1.2v-3.8
		c0-1.1-0.4-2-1.5-2c-0.8,0-1.4,0.6-1.6,1.2c-0.1,0.2-0.1,0.4-0.1,0.6v4H277V39.6L277,39.6z"/>
	<path d="M289.3,44.2c-0.3,0.2-1,0.4-1.9,0.4c-2,0-3.3-1.4-3.3-3.4s1.4-3.5,3.6-3.5c0.7,0,1.3,0.2,1.7,0.3l-0.3,0.9
		c-0.3-0.2-0.7-0.3-1.4-0.3c-1.5,0-2.3,1.1-2.3,2.5c0,1.5,1,2.5,2.3,2.5c0.7,0,1.1-0.2,1.5-0.3L289.3,44.2z"/>
	<path d="M291.3,41.3c0,1.6,1.1,2.3,2.3,2.3c0.9,0,1.4-0.2,1.8-0.3l0.2,0.9c-0.4,0.2-1.2,0.4-2.2,0.4c-2,0-3.3-1.3-3.3-3.3
		s1.2-3.6,3.1-3.6c2.2,0,2.7,1.9,2.7,3.1c0,0.2,0,0.4,0,0.6h-4.6V41.3z M294.9,40.4c0-0.8-0.3-2-1.7-2c-1.2,0-1.8,1.1-1.9,2H294.9z"
		/>
</g>
<g>
	<path d="M410.6,44.4l-3-9.2h1.3l1.4,4.6c0.4,1.2,0.7,2.4,1,3.5l0,0c0.3-1.1,0.6-2.2,1.1-3.4l1.6-4.6h1.3l-3.3,9.2L410.6,44.4
		L410.6,44.4z"/>
	<path d="M424,40.3c-0.1-1.3-0.2-2.8-0.1-4l0,0c-0.3,1.1-0.7,2.2-1.2,3.5l-1.6,4.5h-0.9l-1.5-4.4c-0.4-1.3-0.8-2.5-1.1-3.6l0,0
		c0,1.2-0.1,2.7-0.2,4.1l-0.2,4h-1.1l0.6-9.2h1.5l1.6,4.5c0.4,1.1,0.7,2.2,0.9,3.1l0,0c0.2-0.9,0.6-1.9,1-3.1l1.6-4.5h1.5l0.6,9.2
		h-1.2L424,40.3z"/>
	<path d="M431.3,35.2v9.2h-1.2v-9.2H431.3z"/>
	<path d="M433.5,39.6c0-0.7,0-1.2-0.1-1.8h1.1l0.1,1.1l0,0c0.3-0.6,1.1-1.2,2.2-1.2c0.9,0,2.3,0.5,2.3,2.8v4h-1.2v-3.8
		c0-1.1-0.4-2-1.5-2c-0.8,0-1.4,0.6-1.6,1.2c-0.1,0.2-0.1,0.4-0.1,0.6v4h-1.2L433.5,39.6L433.5,39.6z"/>
	<path d="M441,43.2c0.4,0.2,1,0.5,1.6,0.5c0.9,0,1.3-0.4,1.3-1s-0.3-0.9-1.2-1.2c-1.2-0.4-1.8-1.1-1.8-1.9c0-1.1,0.9-1.9,2.3-1.9
		c0.7,0,1.3,0.2,1.6,0.4l-0.3,0.9c-0.3-0.2-0.7-0.4-1.4-0.4c-0.7,0-1.1,0.4-1.1,0.9s0.4,0.8,1.3,1.1c1.2,0.4,1.7,1,1.7,2
		c0,1.2-0.9,2-2.5,2c-0.7,0-1.4-0.2-1.9-0.5L441,43.2z"/>
	<path d="M448,35.9v1.9h1.7v0.9H448v3.6c0,0.8,0.2,1.3,0.9,1.3c0.3,0,0.5,0,0.7-0.1l0.1,0.9c-0.2,0.1-0.6,0.2-1.1,0.2
		c-0.6,0-1-0.2-1.3-0.5c-0.3-0.4-0.5-0.9-0.5-1.7v-3.6h-1v-0.9h1v-1.7L448,35.9z"/>
	<path d="M454.8,44.4l-0.1-0.8l0,0c-0.4,0.5-1.1,1-2,1c-1.3,0-2-0.9-2-1.9c0-1.6,1.4-2.5,4-2.5v-0.1c0-0.5-0.2-1.5-1.5-1.5
		c-0.6,0-1.3,0.2-1.7,0.5l-0.3-0.8c0.5-0.4,1.3-0.6,2.2-0.6c2,0,2.5,1.4,2.5,2.7v2.5c0,0.6,0,1.1,0.1,1.6h-1.2V44.4z M454.6,41
		c-1.3,0-2.8,0.2-2.8,1.5c0,0.8,0.5,1.2,1.1,1.2c0.9,0,1.4-0.5,1.6-1.1c0-0.1,0.1-0.3,0.1-0.4L454.6,41L454.6,41z"/>
	<path d="M457.7,39.6c0-0.7,0-1.2-0.1-1.8h1.1l0.1,1.1l0,0c0.3-0.6,1.1-1.2,2.2-1.2c0.9,0,2.3,0.5,2.3,2.8v4h-1.2v-3.8
		c0-1.1-0.4-2-1.5-2c-0.8,0-1.4,0.6-1.6,1.2c-0.1,0.2-0.1,0.4-0.1,0.6v4h-1.2L457.7,39.6L457.7,39.6z"/>
	<path d="M470.1,44.2c-0.3,0.2-1,0.4-1.9,0.4c-2,0-3.3-1.4-3.3-3.4s1.4-3.5,3.6-3.5c0.7,0,1.3,0.2,1.7,0.3l-0.3,0.9
		c-0.3-0.2-0.7-0.3-1.4-0.3c-1.5,0-2.3,1.1-2.3,2.5c0,1.5,1,2.5,2.3,2.5c0.7,0,1.1-0.2,1.5-0.3L470.1,44.2z"/>
	<path d="M472.1,41.3c0,1.6,1.1,2.3,2.3,2.3c0.9,0,1.4-0.2,1.8-0.3l0.2,0.9c-0.4,0.2-1.2,0.4-2.2,0.4c-2,0-3.3-1.3-3.3-3.3
		s1.2-3.6,3.1-3.6c2.2,0,2.7,1.9,2.7,3.1c0,0.2,0,0.4,0,0.6h-4.6V41.3z M475.6,40.4c0-0.8-0.3-2-1.7-2c-1.2,0-1.8,1.1-1.9,2H475.6z"
		/>
</g>
<g>
	<path d="M581.6,44.4l-3-9.2h1.3l1.4,4.6c0.4,1.2,0.7,2.4,1,3.5l0,0c0.3-1.1,0.6-2.2,1.1-3.4l1.6-4.6h1.3l-3.3,9.2L581.6,44.4
		L581.6,44.4z"/>
	<path d="M595,40.3c-0.1-1.3-0.2-2.8-0.1-4l0,0c-0.3,1.1-0.7,2.2-1.2,3.5l-1.6,4.5h-0.9l-1.5-4.4c-0.4-1.3-0.8-2.5-1.1-3.6l0,0
		c0,1.2-0.1,2.7-0.2,4.1l-0.2,4h-1.1l0.6-9.2h1.5l1.6,4.5c0.4,1.1,0.7,2.2,0.9,3.1l0,0c0.2-0.9,0.6-1.9,1-3.1l1.6-4.5h1.5l0.6,9.2
		h-1.2L595,40.3z"/>
	<path d="M602.4,35.2v9.2h-1.2v-9.2H602.4z"/>
	<path d="M604.6,39.6c0-0.7,0-1.2-0.1-1.8h1.1l0.1,1.1l0,0c0.3-0.6,1.1-1.2,2.2-1.2c0.9,0,2.3,0.5,2.3,2.8v4H609v-3.8
		c0-1.1-0.4-2-1.5-2c-0.8,0-1.4,0.6-1.6,1.2c-0.1,0.2-0.1,0.4-0.1,0.6v4h-1.2L604.6,39.6L604.6,39.6z"/>
	<path d="M612,43.2c0.4,0.2,1,0.5,1.6,0.5c0.9,0,1.3-0.4,1.3-1s-0.3-0.9-1.2-1.2c-1.2-0.4-1.8-1.1-1.8-1.9c0-1.1,0.9-1.9,2.3-1.9
		c0.7,0,1.3,0.2,1.6,0.4l-0.3,0.9c-0.3-0.2-0.7-0.4-1.4-0.4S613,39,613,39.5s0.4,0.8,1.3,1.1c1.2,0.4,1.7,1,1.7,2c0,1.2-0.9,2-2.5,2
		c-0.7,0-1.4-0.2-1.9-0.5L612,43.2z"/>
	<path d="M619.1,35.9v1.9h1.7v0.9h-1.7v3.6c0,0.8,0.2,1.3,0.9,1.3c0.3,0,0.5,0,0.7-0.1l0.1,0.9c-0.2,0.1-0.6,0.2-1.1,0.2
		c-0.6,0-1-0.2-1.3-0.5c-0.3-0.4-0.5-0.9-0.5-1.7v-3.6h-1v-0.9h1v-1.7L619.1,35.9z"/>
	<path d="M625.8,44.4l-0.1-0.8l0,0c-0.4,0.5-1.1,1-2,1c-1.3,0-2-0.9-2-1.9c0-1.6,1.4-2.5,4-2.5v-0.1c0-0.5-0.2-1.5-1.5-1.5
		c-0.6,0-1.3,0.2-1.7,0.5l-0.3-0.8c0.5-0.4,1.3-0.6,2.2-0.6c2,0,2.5,1.4,2.5,2.7v2.5c0,0.6,0,1.1,0.1,1.6h-1.2V44.4z M625.6,41
		c-1.3,0-2.8,0.2-2.8,1.5c0,0.8,0.5,1.2,1.1,1.2c0.9,0,1.4-0.5,1.6-1.1c0-0.1,0.1-0.3,0.1-0.4L625.6,41L625.6,41z"/>
	<path d="M628.8,39.6c0-0.7,0-1.2-0.1-1.8h1.1l0.1,1.1l0,0c0.3-0.6,1.1-1.2,2.2-1.2c0.9,0,2.3,0.5,2.3,2.8v4h-1.2v-3.8
		c0-1.1-0.4-2-1.5-2c-0.8,0-1.4,0.6-1.6,1.2c-0.1,0.2-0.1,0.4-0.1,0.6v4h-1.2V39.6z"/>
	<path d="M641.1,44.2c-0.3,0.2-1,0.4-1.9,0.4c-2,0-3.3-1.4-3.3-3.4s1.4-3.5,3.6-3.5c0.7,0,1.3,0.2,1.7,0.3l-0.3,0.9
		c-0.3-0.2-0.7-0.3-1.4-0.3c-1.5,0-2.3,1.1-2.3,2.5c0,1.5,1,2.5,2.3,2.5c0.7,0,1.1-0.2,1.5-0.3L641.1,44.2z"/>
	<path d="M643.1,41.3c0,1.6,1.1,2.3,2.3,2.3c0.9,0,1.4-0.2,1.8-0.3l0.2,0.9c-0.4,0.2-1.2,0.4-2.2,0.4c-2,0-3.3-1.3-3.3-3.3
		s1.2-3.6,3.1-3.6c2.2,0,2.7,1.9,2.7,3.1c0,0.2,0,0.4,0,0.6h-4.6V41.3z M646.6,40.4c0-0.8-0.3-2-1.7-2c-1.2,0-1.8,1.1-1.9,2H646.6z"
		/>
</g>
<g>
	<path class="st3" d="M113.1,180.7l-10.4-18.1c-0.8-1.4-2.3-2.3-3.9-2.3H77.9c-1.6,0-3.1,0.9-3.9,2.3l-10.4,18.1
		c-0.8,1.4-0.8,3.1,0,4.6l10.4,18.2c0.8,1.4,2.2,2.4,3.9,2.4h20.9c1.6-0.1,3.2-1,3.9-2.4l10.4-18.1
		C113.8,183.9,113.8,182.2,113.1,180.7z"/>
	<path class="st4" d="M95.9,173.5l-12.7,1.6l-2.4,6.4l2,2l-2,3.6l2,2l-2,3.6l13.3,13.3h4.7c1.6-0.1,3.2-1,3.9-2.4l8.4-14.6
		L95.9,173.5z"/>
	<polygon class="st5" points="92.3,184.6 92.3,189 80.8,189 80.8,192.6 95.9,192.6 95.9,184.6 	"/>
	<polygon class="st5" points="84.4,181.5 84.4,177.1 95.9,177.1 95.9,173.5 80.8,173.5 80.8,181.5 	"/>
	<polygon class="st5" points="86.3,179.1 86.3,183.4 80.8,183.4 80.8,187 90.3,187 90.3,182.6 95.9,182.6 95.9,179.1 	"/>
</g>
<g>
	<g>
		<path d="M66.3,228.4h2.3c0.7,0,1.1,0.2,1.3,0.6c0.2,0.2,0.3,0.4,0.3,0.8s-0.1,0.6-0.3,0.8c-0.2,0.2-0.3,0.2-0.4,0.3
			c0.3,0.2,0.4,0.2,0.6,0.3c0.3,0.3,0.4,0.6,0.4,1c0,0.3-0.2,0.7-0.3,0.9c-0.3,0.4-0.8,0.7-1.5,0.7h-2.4V228.4L66.3,228.4z
			 M68.4,230.6c0.3,0,0.5-0.1,0.7-0.2c0.3-0.2,0.4-0.4,0.4-0.7c0-0.3-0.2-0.6-0.4-0.7c-0.2-0.1-0.4-0.2-0.7-0.2h-1.3v1.6L68.4,230.6
			L68.4,230.6L68.4,230.6z M68.7,233.1c0.4,0,0.8-0.2,1-0.4c0.2-0.2,0.2-0.4,0.2-0.6c0-0.4-0.2-0.7-0.5-0.8
			c-0.2-0.1-0.4-0.2-0.7-0.2h-1.5v1.8L68.7,233.1L68.7,233.1z"/>
		<path d="M71.3,228.4h0.7v5.3h-0.7V228.4z"/>
		<path d="M75.7,230.2c0.3,0.3,0.5,0.8,0.5,1.5c0,0.7-0.2,1.2-0.4,1.5c-0.3,0.3-0.8,0.6-1.4,0.6c-0.5,0-1-0.2-1.3-0.5
			c-0.3-0.4-0.4-0.8-0.4-1.4c0-0.7,0.2-1.2,0.5-1.5c0.3-0.3,0.8-0.6,1.3-0.6C75,229.7,75.3,229.9,75.7,230.2z M75.3,232.8
			c0.2-0.3,0.3-0.7,0.3-1.1s-0.1-0.7-0.2-0.9c-0.2-0.4-0.5-0.5-0.9-0.5c-0.4,0-0.7,0.2-0.8,0.4c-0.2,0.3-0.3,0.7-0.3,1.1
			s0.1,0.8,0.3,1c0.2,0.3,0.4,0.4,0.8,0.4C74.9,233.2,75.1,233.2,75.3,232.8z"/>
		<path d="M79.5,230c0.3,0.2,0.4,0.6,0.5,1.1h-0.7c-0.1-0.3-0.2-0.4-0.3-0.6c-0.2-0.2-0.4-0.3-0.7-0.3c-0.4,0-0.7,0.2-0.9,0.6
			c-0.2,0.3-0.2,0.6-0.2,1s0.1,0.7,0.3,1c0.2,0.3,0.4,0.4,0.8,0.4c0.3,0,0.4-0.1,0.7-0.3c0.2-0.2,0.3-0.4,0.3-0.7H80
			c-0.1,0.5-0.3,0.9-0.5,1.1c-0.3,0.3-0.7,0.4-1.1,0.4c-0.5,0-0.9-0.2-1.3-0.6c-0.3-0.4-0.4-0.8-0.4-1.3c0-0.7,0.2-1.3,0.5-1.6
			c0.3-0.4,0.8-0.6,1.3-0.6C78.9,229.7,79.2,229.8,79.5,230z"/>
		<path d="M80.7,228.4h0.7v3.1l1.7-1.6h0.8l-1.5,1.4l1.5,2.4H83l-1.3-1.9l-0.5,0.5v1.4h-0.7L80.7,228.4L80.7,228.4z"/>
		<path d="M87,232c0,0.3,0.1,0.5,0.2,0.7c0.3,0.3,0.7,0.5,1.3,0.5c0.3,0,0.5-0.1,0.7-0.2c0.4-0.2,0.7-0.4,0.7-0.8
			c0-0.3-0.1-0.5-0.3-0.7c-0.2-0.2-0.4-0.2-0.8-0.3l-0.7-0.2c-0.4-0.2-0.8-0.2-1-0.3c-0.3-0.2-0.5-0.6-0.5-1s0.2-0.8,0.4-1.2
			c0.3-0.3,0.8-0.4,1.3-0.4c0.5,0,1,0.2,1.3,0.4c0.4,0.3,0.6,0.7,0.6,1.3h-0.7c-0.1-0.3-0.2-0.5-0.2-0.7c-0.2-0.3-0.6-0.4-1.1-0.4
			c-0.4,0-0.7,0.1-0.9,0.3c-0.2,0.2-0.3,0.4-0.3,0.7s0.2,0.4,0.3,0.6c0.2,0.1,0.4,0.2,0.9,0.3l0.7,0.2c0.3,0.1,0.7,0.2,0.8,0.3
			c0.3,0.3,0.5,0.6,0.5,1.1c0,0.6-0.2,1-0.7,1.3c-0.4,0.3-0.9,0.4-1.4,0.4c-0.7,0-1.2-0.2-1.5-0.5c-0.4-0.3-0.5-0.8-0.5-1.3L87,232
			L87,232z"/>
		<path d="M91.5,228.7h0.7v1.1h0.7v0.5h-0.7v2.5c0,0.2,0.1,0.2,0.2,0.3c0.1,0,0.2,0.1,0.3,0.1c0,0,0.1,0,0.2,0s0.1,0,0.2,0v0.5
			c-0.1,0-0.2,0.1-0.3,0.1c-0.1,0-0.2,0-0.3,0c-0.3,0-0.5-0.1-0.7-0.3c-0.2-0.2-0.2-0.4-0.2-0.6v-2.6h-0.5v-0.5h0.5L91.5,228.7
			L91.5,228.7z"/>
		<path d="M96.2,230.2c0.3,0.3,0.5,0.8,0.5,1.5c0,0.7-0.2,1.2-0.4,1.5c-0.3,0.3-0.8,0.6-1.4,0.6c-0.5,0-1-0.2-1.3-0.5
			c-0.3-0.4-0.4-0.8-0.4-1.4c0-0.7,0.2-1.2,0.5-1.5c0.3-0.3,0.8-0.6,1.3-0.6C95.5,229.7,95.9,229.9,96.2,230.2z M95.8,232.8
			c0.2-0.3,0.3-0.7,0.3-1.1s-0.1-0.7-0.2-0.9c-0.2-0.4-0.5-0.5-0.9-0.5c-0.4,0-0.7,0.2-0.8,0.4c-0.2,0.3-0.3,0.7-0.3,1.1
			s0.1,0.8,0.3,1c0.2,0.3,0.4,0.4,0.8,0.4C95.4,233.2,95.6,233.2,95.8,232.8z"/>
		<path d="M97.6,229.8h0.7v0.7c0.1-0.2,0.2-0.3,0.4-0.4c0.2-0.2,0.4-0.3,0.7-0.3c0,0,0,0,0.1,0s0.1,0,0.2,0v0.7c-0.1,0-0.1,0-0.2,0
			s-0.1,0-0.2,0c-0.3,0-0.6,0.2-0.8,0.3c-0.2,0.2-0.3,0.4-0.3,0.7v2.2h-0.7V229.8L97.6,229.8z"/>
		<path d="M102.1,231.3c0.2,0,0.3-0.1,0.3-0.2c0-0.1,0.1-0.2,0.1-0.3c0-0.2-0.1-0.4-0.3-0.4c-0.2-0.2-0.4-0.2-0.7-0.2
			c-0.3,0-0.6,0.1-0.7,0.3c-0.1,0.2-0.2,0.3-0.2,0.4h-0.6c0-0.4,0.2-0.8,0.4-1c0.3-0.2,0.7-0.3,1-0.3c0.4,0,0.8,0.1,1.1,0.3
			s0.4,0.4,0.4,0.8v2.2c0,0.1,0,0.2,0.1,0.2c0,0.1,0.1,0.1,0.2,0.1c0,0,0.1,0,0.2,0c0.1,0,0.1,0,0.2,0v0.4c-0.2,0-0.2,0.1-0.3,0.1
			c-0.1,0-0.2,0-0.2,0c-0.2,0-0.4-0.1-0.5-0.3c-0.1-0.1-0.1-0.2-0.2-0.4c-0.2,0.2-0.3,0.3-0.6,0.4c-0.3,0.2-0.5,0.2-0.8,0.2
			c-0.4,0-0.7-0.2-0.9-0.3c-0.3-0.2-0.3-0.5-0.3-0.8c0-0.4,0.2-0.7,0.3-0.8c0.2-0.2,0.5-0.3,0.9-0.4L102.1,231.3z M100.7,233.2
			c0.2,0.2,0.3,0.2,0.5,0.2c0.3,0,0.4-0.1,0.7-0.2c0.4-0.2,0.5-0.4,0.5-0.8v-0.5c-0.1,0.1-0.2,0.1-0.3,0.2c-0.2,0.1-0.3,0.1-0.4,0.1
			l-0.4,0.1c-0.3,0-0.4,0.1-0.5,0.2c-0.2,0.2-0.3,0.3-0.3,0.5C100.5,232.9,100.6,233,100.7,233.2z"/>
		<path d="M106.3,230c0.2,0.1,0.3,0.2,0.4,0.4v-0.5h0.6v3.5c0,0.5-0.1,0.9-0.2,1.2c-0.3,0.5-0.8,0.8-1.5,0.8c-0.4,0-0.8-0.1-1-0.3
			c-0.3-0.2-0.4-0.4-0.4-0.9h0.7c0,0.2,0.1,0.3,0.2,0.4c0.2,0.2,0.4,0.2,0.7,0.2c0.5,0,0.8-0.2,1-0.5c0.1-0.2,0.2-0.6,0.2-1.1
			c-0.2,0.2-0.3,0.3-0.4,0.4c-0.2,0.1-0.4,0.2-0.7,0.2c-0.4,0-0.8-0.2-1.1-0.4c-0.3-0.3-0.4-0.8-0.4-1.5c0-0.7,0.2-1.2,0.4-1.5
			c0.3-0.4,0.7-0.5,1.2-0.5C105.7,229.8,106,229.8,106.3,230z M106.3,230.6c-0.2-0.3-0.4-0.3-0.8-0.3c-0.4,0-0.8,0.2-0.9,0.7
			c-0.1,0.3-0.2,0.5-0.2,0.9s0.1,0.8,0.3,1c0.2,0.3,0.4,0.3,0.7,0.3c0.4,0,0.8-0.2,1-0.7c0.2-0.3,0.2-0.5,0.2-0.8
			C106.6,231.2,106.5,230.9,106.3,230.6z"/>
		<path d="M110.6,229.9c0.3,0.2,0.4,0.3,0.6,0.5c0.2,0.2,0.2,0.4,0.3,0.7c0.1,0.2,0.1,0.4,0.1,0.8h-2.9c0,0.4,0.2,0.7,0.3,1
			c0.2,0.3,0.4,0.4,0.8,0.4s0.6-0.2,0.8-0.3c0.2-0.2,0.2-0.3,0.3-0.4h0.7c0,0.2-0.1,0.3-0.2,0.4c-0.1,0.2-0.2,0.3-0.3,0.4
			c-0.2,0.2-0.4,0.3-0.7,0.4c-0.2,0.1-0.3,0.1-0.5,0.1c-0.4,0-0.9-0.2-1.3-0.5s-0.5-0.8-0.5-1.5s0.2-1.1,0.5-1.5s0.8-0.6,1.3-0.6
			C110.1,229.7,110.3,229.8,110.6,229.9z M110.8,231.5c0-0.3-0.1-0.5-0.2-0.7c-0.2-0.3-0.4-0.4-0.9-0.4c-0.3,0-0.5,0.2-0.8,0.3
			c-0.2,0.2-0.3,0.5-0.3,0.8L110.8,231.5L110.8,231.5z"/>
	</g>
	<g>
		<path d="M58.6,221.2h-0.9v-7.1h2.4c0.6,0,1.1,0.2,1.6,0.6c0.4,0.4,0.7,0.9,0.7,1.5s-0.3,1.1-0.7,1.5c-0.4,0.4-1,0.6-1.6,0.6h-1.5
			V221.2z M58.6,217.4h1.5c0.4,0,0.7-0.2,0.9-0.4c0.3-0.3,0.3-0.5,0.3-0.8s-0.1-0.6-0.3-0.8c-0.3-0.3-0.5-0.4-0.9-0.4h-1.5V217.4z"
			/>
		<path d="M65,221.4c-0.8,0-1.3-0.3-1.8-0.8c-0.5-0.5-0.7-1.1-0.7-1.8c0-0.7,0.3-1.3,0.7-1.8c0.4-0.5,1-0.8,1.8-0.8
			c0.8,0,1.3,0.3,1.8,0.7c0.4,0.5,0.7,1.1,0.7,1.9v0.2h-3.9c0,0.5,0.2,0.9,0.5,1.2c0.3,0.3,0.7,0.4,1.1,0.4c0.7,0,1.1-0.3,1.3-0.8
			l0.8,0.3c-0.2,0.4-0.4,0.7-0.8,0.9C66,221.2,65.5,221.4,65,221.4z M66.3,218.2c0-0.3-0.2-0.5-0.4-0.8c-0.3-0.3-0.6-0.4-1.1-0.4
			c-0.3,0-0.7,0.1-0.9,0.3c-0.3,0.3-0.4,0.5-0.5,0.8L66.3,218.2L66.3,218.2z"/>
		<path d="M69,221.2h-0.9v-4.9h0.8v0.8l0,0c0.1-0.3,0.3-0.5,0.6-0.7c0.3-0.2,0.6-0.3,0.8-0.3s0.5,0,0.7,0.1l-0.3,0.8
			c-0.1-0.1-0.3-0.1-0.5-0.1c-0.3,0-0.6,0.2-0.9,0.4c-0.3,0.3-0.4,0.6-0.4,1v2.7L69,221.2L69,221.2z"/>
		<path d="M73.4,221.4c-0.5,0-1-0.2-1.3-0.4c-0.3-0.3-0.6-0.6-0.8-1l0.8-0.3c0.3,0.6,0.7,0.9,1.3,0.9c0.3,0,0.5-0.1,0.7-0.2
			c0.2-0.2,0.3-0.3,0.3-0.5c0-0.3-0.3-0.5-0.7-0.7l-1-0.3c-0.3-0.1-0.6-0.3-0.9-0.4c-0.3-0.3-0.4-0.5-0.4-0.9s0.2-0.8,0.6-1.1
			c0.4-0.3,0.8-0.4,1.3-0.4c0.4,0,0.8,0.1,1.2,0.3c0.3,0.2,0.6,0.5,0.8,0.8l-0.8,0.3c-0.2-0.4-0.6-0.7-1.1-0.7
			c-0.3,0-0.5,0.1-0.7,0.2c-0.2,0.1-0.3,0.3-0.3,0.4c0,0.3,0.3,0.5,0.7,0.6l1,0.3c0.4,0.1,0.8,0.3,1,0.6c0.3,0.3,0.3,0.6,0.3,0.8
			c0,0.4-0.2,0.8-0.5,1.1C74.4,221.2,74,221.4,73.4,221.4z"/>
		<path d="M77.1,215.1c-0.2,0.2-0.3,0.2-0.4,0.2c-0.2,0-0.3-0.1-0.4-0.2c-0.2-0.2-0.2-0.3-0.2-0.4s0.1-0.3,0.2-0.4
			c0.2-0.2,0.3-0.2,0.4-0.2c0.2,0,0.3,0.1,0.4,0.2c0.2,0.2,0.2,0.3,0.2,0.4S77.1,214.9,77.1,215.1z M77.1,221.2h-0.9v-4.9h0.9V221.2
			z"/>
		<path d="M80,221.4c-0.5,0-1-0.2-1.3-0.4c-0.3-0.3-0.6-0.6-0.8-1l0.8-0.3c0.3,0.6,0.7,0.9,1.3,0.9c0.3,0,0.5-0.1,0.7-0.2
			c0.2-0.2,0.3-0.3,0.3-0.5c0-0.3-0.3-0.5-0.7-0.7l-1-0.3c-0.3-0.1-0.6-0.3-0.9-0.4c-0.3-0.3-0.4-0.5-0.4-0.9s0.2-0.8,0.6-1.1
			c0.4-0.3,0.8-0.4,1.3-0.4c0.4,0,0.8,0.1,1.2,0.3c0.3,0.2,0.6,0.5,0.8,0.8l-0.8,0.3c-0.2-0.4-0.6-0.7-1.1-0.7
			c-0.3,0-0.5,0.1-0.7,0.2c-0.2,0.1-0.3,0.3-0.3,0.4c0,0.3,0.3,0.5,0.7,0.6l1,0.3c0.4,0.1,0.8,0.3,1,0.6c0.3,0.3,0.3,0.6,0.3,0.8
			c0,0.4-0.2,0.8-0.5,1.1C81.1,221.2,80.6,221.4,80,221.4z"/>
		<path d="M84.8,221.3c-0.5,0-0.9-0.2-1.2-0.4c-0.3-0.3-0.4-0.7-0.4-1.2v-2.6h-0.8v-0.8h0.8v-1.5h0.9v1.5h1.2v0.8h-1.2v2.5
			c0,0.5,0.3,0.8,0.7,0.8c0.2,0,0.3,0,0.4-0.1l0.3,0.8C85.4,221.2,85.1,221.3,84.8,221.3z"/>
		<path d="M88.4,221.4c-0.8,0-1.3-0.3-1.8-0.8c-0.5-0.5-0.7-1.1-0.7-1.8c0-0.7,0.3-1.3,0.7-1.8c0.4-0.5,1-0.8,1.8-0.8
			s1.3,0.3,1.8,0.7c0.4,0.5,0.7,1.1,0.7,1.9v0.2H87c0,0.5,0.2,0.9,0.5,1.2s0.7,0.4,1.1,0.4c0.7,0,1.1-0.3,1.3-0.8l0.8,0.3
			c-0.2,0.4-0.4,0.7-0.8,0.9C89.4,221.2,89,221.4,88.4,221.4z M89.7,218.2c0-0.3-0.2-0.5-0.4-0.8c-0.3-0.3-0.6-0.4-1.1-0.4
			c-0.3,0-0.7,0.1-0.9,0.3c-0.3,0.3-0.4,0.5-0.5,0.8L89.7,218.2L89.7,218.2z"/>
		<path d="M92.4,216.4v0.7l0,0c0.2-0.3,0.3-0.4,0.6-0.6c0.3-0.2,0.6-0.3,0.9-0.3c0.6,0,1.1,0.2,1.4,0.6c0.3,0.3,0.5,0.8,0.5,1.5v3
			H95v-2.9c0-0.9-0.4-1.3-1.2-1.3c-0.4,0-0.7,0.2-0.9,0.4c-0.3,0.3-0.3,0.7-0.3,1.1v2.7h-1v-4.9L92.4,216.4L92.4,216.4z"/>
		<path d="M98.8,221.3c-0.5,0-0.9-0.2-1.2-0.4c-0.3-0.3-0.4-0.7-0.4-1.2v-2.6h-0.8v-0.8h0.8v-1.5h0.9v1.5h1.2v0.8h-1.2v2.5
			c0,0.5,0.3,0.8,0.7,0.8c0.2,0,0.3,0,0.4-0.1l0.3,0.8C99.4,221.2,99.2,221.3,98.8,221.3z"/>
		<path d="M102.6,221.2v-7.1h2.2c1.1,0,2,0.3,2.6,1c0.7,0.7,1,1.5,1,2.6c0,1.1-0.3,1.9-1,2.6c-0.7,0.7-1.5,1-2.6,1L102.6,221.2
			L102.6,221.2z M103.5,220.3h1.3c0.8,0,1.5-0.3,1.9-0.7c0.5-0.5,0.8-1.2,0.8-2s-0.3-1.5-0.8-2c-0.5-0.5-1.2-0.7-1.9-0.7h-1.3V220.3
			z"/>
		<path d="M110.3,215.1c-0.2,0.2-0.3,0.2-0.4,0.2c-0.2,0-0.3-0.1-0.4-0.2c-0.2-0.2-0.2-0.3-0.2-0.4s0.1-0.3,0.2-0.4
			c0.2-0.2,0.3-0.2,0.4-0.2c0.2,0,0.3,0.1,0.4,0.2c0.2,0.2,0.2,0.3,0.2,0.4S110.5,214.9,110.3,215.1z M110.3,221.2h-0.9v-4.9h0.9
			V221.2z"/>
		<path d="M113.3,221.4c-0.5,0-1-0.2-1.3-0.4c-0.3-0.3-0.6-0.6-0.8-1l0.8-0.3c0.3,0.6,0.7,0.9,1.3,0.9c0.3,0,0.5-0.1,0.7-0.2
			c0.2-0.2,0.3-0.3,0.3-0.5c0-0.3-0.3-0.5-0.7-0.7l-1-0.3c-0.3-0.1-0.6-0.3-0.9-0.4c-0.3-0.3-0.4-0.5-0.4-0.9s0.2-0.8,0.6-1.1
			c0.4-0.3,0.8-0.4,1.3-0.4c0.4,0,0.8,0.1,1.2,0.3c0.3,0.2,0.6,0.5,0.8,0.8l-0.8,0.3c-0.2-0.4-0.6-0.7-1.1-0.7
			c-0.3,0-0.5,0.1-0.7,0.2c-0.2,0.1-0.3,0.3-0.3,0.4c0,0.3,0.3,0.5,0.7,0.6l1,0.3c0.4,0.1,0.8,0.3,1,0.6c0.3,0.3,0.3,0.6,0.3,0.8
			c0,0.4-0.2,0.8-0.5,1.1C114.4,221.2,113.9,221.4,113.3,221.4z"/>
		<path d="M117,214.1v4.4l2.1-2.2h1.2l0,0l-1.8,2l2,2.9l0,0h-1.1l-1.5-2.3l-0.8,0.8v1.6h-0.9v-7.2H117z"/>
	</g>
</g>
<path class="st6" d="M40.3,145.1c0.1-2.5,2.1-4.5,4.5-4.5c1.1,0,2.2,0.4,3.1,1.3l-0.9,0.8c-0.6-0.6-1.4-0.9-2.2-0.9
	c-1.8,0-3.2,1.5-3.2,3.2v0.1c-0.1,1.8,1.4,3.2,3.1,3.3h0.1c0.8,0.1,1.7-0.3,2.2-0.9c0.4-0.4,0.6-1,0.7-1.5h-2.9v-1.3H49
	c0.1,0.3,0.1,0.5,0.1,0.8c0,1.1-0.3,2.1-1,2.9c-0.8,0.8-2,1.3-3.1,1.3C42.4,149.6,40.3,147.6,40.3,145.1z"/>
<path class="st6" d="M52.5,143.8c-1.6,0-2.9,1.3-2.9,2.9c0,1.6,1.3,2.9,2.9,2.9c1.6,0,2.9-1.3,2.9-2.9
	C55.3,145.1,54.1,143.8,52.5,143.8L52.5,143.8z M52.5,148.4c-0.9,0-1.7-0.8-1.7-1.7v-0.1c0-0.9,0.8-1.6,1.6-1.6
	c0.9,0,1.6,0.8,1.6,1.6C54.1,147.6,53.4,148.4,52.5,148.4L52.5,148.4L52.5,148.4z"/>
<path class="st6" d="M58.8,143.8c-1.6,0-2.9,1.3-2.9,2.9s1.3,2.9,2.9,2.9c1.6,0,2.9-1.3,2.9-2.9c0-1.5-1.3-2.9-2.8-2.9
	C58.8,143.8,58.8,143.8,58.8,143.8z M58.8,148.4c-0.9,0-1.7-0.8-1.7-1.7v-0.1c0-0.9,0.8-1.6,1.6-1.6c0.9,0,1.6,0.8,1.6,1.6
	C60.4,147.6,59.7,148.4,58.8,148.4C58.8,148.4,58.8,148.4,58.8,148.4L58.8,148.4z"/>
<path class="st6" d="M66.5,144v0.5h-0.1c-0.4-0.4-1-0.6-1.5-0.6c-1.6,0.1-2.8,1.4-2.8,3c0.1,1.5,1.3,2.7,2.8,2.8
	c0.6,0,1.1-0.2,1.5-0.6h0.1v0.4c0,1.1-0.6,1.7-1.5,1.7c-0.6,0-1.2-0.4-1.5-1.1l-1.1,0.5c0.4,1.1,1.5,1.8,2.6,1.7
	c1.5,0,2.7-0.9,2.7-3v-5.2L66.5,144L66.5,144z M65.1,148.4c-0.9,0-1.6-0.8-1.6-1.7v-0.1c-0.1-0.9,0.6-1.7,1.5-1.8c0,0,0,0,0.1,0
	c0.9,0.1,1.6,0.8,1.5,1.8l0,0C66.7,147.6,66,148.4,65.1,148.4L65.1,148.4z"/>
<rect x="68.6" y="140.9" class="st6" width="1.3" height="8.5"/>
<path class="st6" d="M73.4,148.4c-0.6,0-1.2-0.4-1.4-0.9l3.8-1.6l-0.1-0.4c-0.3-1.1-1.3-1.8-2.5-1.8c-1.5,0-2.7,1.2-2.7,2.7
	c0,0.1,0,0.1,0,0.1c-0.1,1.5,1.2,2.9,2.7,2.9c0.1,0,0.1,0,0.1,0c1,0,1.9-0.5,2.4-1.3l-1-0.6C74.5,148.1,73.9,148.4,73.4,148.4z
	 M73.2,144.9c0.5-0.1,0.9,0.2,1.1,0.6l-2.6,1.1C71.7,145.8,72.3,145,73.2,144.9L73.2,144.9z"/>
<path class="st6" d="M78.4,145.5c-0.1-2.2,1.7-4.1,3.9-4.1c0.1,0,0.1,0,0.1,0c1.1,0,2.2,0.4,2.9,1.3l-0.7,0.7c-0.6-0.6-1.3-1-2.2-1
	c-1.7-0.1-3,1.3-3.1,2.9c0,0.1,0,0.1,0,0.2c-0.1,1.7,1.2,3,2.9,3.1c0.1,0,0.1,0,0.1,0c0.9,0,1.8-0.4,2.4-1.1l0.7,0.7
	c-1.5,1.7-4.1,1.8-5.8,0.4C78.8,147.8,78.4,146.7,78.4,145.5z"/>
<path class="st6" d="M86.3,149.4v-7.8h1v7.8H86.3z"/>
<path class="st6" d="M93.6,146.7c0,1.5-1.3,2.7-2.7,2.7c-1.5,0-2.7-1.3-2.7-2.7s1.3-2.7,2.7-2.7C92.4,143.9,93.6,145.2,93.6,146.7z
	 M92.6,146.7c0.1-1-0.6-1.8-1.6-1.9c-1-0.1-1.8,0.6-1.9,1.6c0,0.1,0,0.2,0,0.3c0,1,0.8,1.8,1.8,1.8S92.6,147.7,92.6,146.7
	L92.6,146.7z"/>
<path class="st6" d="M98.2,149.4v-0.8h-0.1c-0.4,0.6-1,0.9-1.7,0.9c-1.4,0-2-0.9-2-2.2V144h1v3.1c0,1.1,0.6,1.5,1.3,1.5
	c0.8-0.1,1.5-0.8,1.4-1.6v-2.9h1v5.4L98.2,149.4L98.2,149.4z"/>
<path class="st6" d="M99.9,146.7c-0.1-1.5,1.1-2.7,2.5-2.9c0.7,0,1.4,0.3,1.8,0.9h0.1l-0.1-0.8v-2.5h1v7.8h-1v-0.8h-0.1
	c-0.4,0.6-1.1,0.9-1.8,0.9C101,149.5,99.8,148.2,99.9,146.7z M104.3,146.7c0.1-0.9-0.6-1.8-1.5-1.9c-0.9-0.1-1.8,0.6-1.9,1.5
	c0,0.1,0,0.3,0,0.4c-0.1,0.9,0.6,1.8,1.5,1.9c1,0.1,1.8-0.6,1.9-1.5C104.4,147,104.4,146.9,104.3,146.7z"/>
<path class="st6" d="M108,149.4v-7.8h2.7c1.3-0.1,2.4,1,2.4,2.3l0,0c0,1.3-1.1,2.4-2.4,2.3l0,0h-1.6v3.1L108,149.4L108,149.4z
	 M110.8,145.3c0.8,0,1.4-0.6,1.4-1.4c0-0.8-0.6-1.4-1.4-1.4H109v2.7L110.8,145.3L110.8,145.3z"/>
<path class="st6" d="M113.9,149.4v-7.8h1v7.8H113.9z"/>
<path class="st6" d="M115.8,147.8c0-1.2,1.1-1.9,2.4-1.9c0.5,0,1,0.1,1.5,0.4v-0.1c-0.1-0.8-0.7-1.4-1.5-1.3c-0.5,0-1,0.3-1.2,0.8
	l-0.9-0.4c0.6-1.2,2.1-1.7,3.3-1.1c0.8,0.4,1.3,1.2,1.3,2v3.2h-1v-0.8h-0.1c-0.4,0.6-1.1,0.9-1.8,0.9
	C116.9,149.5,115.9,148.8,115.8,147.8C115.8,147.9,115.8,147.9,115.8,147.8z M119.6,147.1c-0.3-0.3-0.8-0.4-1.3-0.4
	c-1,0-1.5,0.6-1.5,1.1c0.1,0.6,0.6,0.9,1.1,0.8C118.8,148.7,119.5,148,119.6,147.1L119.6,147.1z"/>
<path class="st6" d="M122,147.8V145h-0.9v-0.9h0.9v-1.6h1v1.6h1.3v0.9H123v2.7c0,0.6,0.3,0.9,0.7,0.9c0.1,0,0.3,0,0.5-0.1l0.3,0.8
	c-0.3,0.1-0.6,0.1-0.8,0.1c-0.8,0.1-1.6-0.5-1.8-1.3C122,148,122,147.9,122,147.8z"/>
<path class="st6" d="M128.5,141.6l-0.4,0.8c-0.1-0.1-0.3-0.1-0.5-0.1c-0.5-0.1-0.8,0.3-0.9,0.8c0,0.1,0,0.1,0,0.1v0.7h1.3v0.9h-1.4
	v4.5h-1v-4.5h-1V144h1v-0.7c0-1,0.7-1.8,1.7-1.8c0.1,0,0.1,0,0.2,0C128,141.5,128.3,141.6,128.5,141.6z"/>
<path class="st6" d="M134.1,146.7c0,1.5-1.3,2.7-2.7,2.7c-1.5,0-2.7-1.3-2.7-2.7s1.3-2.7,2.7-2.7C132.8,144,134.1,145.2,134.1,146.7
	z M133,146.7c0.1-1-0.6-1.8-1.6-1.9c-1-0.1-1.8,0.6-1.9,1.6c0,0.1,0,0.2,0,0.3c-0.1,1,0.6,1.8,1.6,1.9c1,0.1,1.8-0.6,1.9-1.6
	C133,146.9,133,146.8,133,146.7z"/>
<path class="st6" d="M134.8,149.4V144h1v0.9h0.1c0.3-0.6,0.9-1,1.5-1c0.3,0,0.5,0,0.8,0.1l-0.4,0.9c-0.2-0.1-0.3-0.1-0.6-0.1
	c-0.8,0-1.4,0.7-1.4,1.5c0,0,0,0,0,0.1v2.9L134.8,149.4L134.8,149.4z"/>
<path class="st6" d="M138.7,144h1v0.8h0.1c0.3-0.6,1-0.9,1.6-0.9c0.7-0.1,1.4,0.4,1.7,1.1c0.4-0.6,1.1-1.1,1.9-1.1
	c1.3,0,1.9,0.9,1.9,2.2v3.3h-1v-3.1c0-1.1-0.4-1.5-1.2-1.5c-0.8,0-1.4,0.8-1.4,1.6v2.9h-1v-3.2c0-1.1-0.4-1.5-1.2-1.5
	s-1.4,0.8-1.4,1.6v2.9h-1V144L138.7,144z"/>
<path class="st7" d="M30.8,149.4l-1.6,2.7h-4.1c-0.4,0-0.7-0.2-0.9-0.5l-3.4-5.8c-0.2-0.3-0.2-0.7,0-1.1l1.3-2.2l1.5,2.7l2.4,4.1
	H30.8L30.8,149.4z"/>
<path class="st8" d="M36,145.8l-3.4,5.8c-0.2,0.4-0.5,0.5-0.9,0.5h-2.5l1.6-2.7l2.4-4.1l-2.4-4.1h3.1l2.1,3.6
	C36.2,145.1,36.2,145.5,36,145.8z"/>
<path class="st9" d="M34,141.2h-7.8l-2.4,4.1l-1.5-2.7l2.1-3.6c0.2-0.4,0.5-0.5,0.9-0.5h6.6c0.3,0,0.7,0.2,0.9,0.5L34,141.2z"/>
<path class="st10" d="M30.8,141.2l2.4,4.1l-2.4,4.1h-4.8l-2.4-4.1l2.4-4.1H30.8"/>
<circle class="st5" cx="28.4" cy="145.3" r="2"/>
<path class="st11" d="M24.2,139c0.2-0.4,0.5-0.5,0.9-0.5h6.7c0.4,0,0.7,0.2,0.9,0.5l1.3,2.2l0,0l-1.3-2.2c-0.2-0.3-0.5-0.5-0.9-0.5
	h-6.7C24.8,138.5,24.5,138.7,24.2,139l-2.1,3.5v0.1L24.2,139z"/>
<polyline class="st12" points="23.8,145.3 26.1,141.2 34,141.2 33.9,141.1 26.1,141.1 23.8,145.2 "/>
<path class="st11" d="M20.9,144.8l1.3-2.2l1.5,2.7l2.4,4.1h4.7l0.1-0.1h-4.8l-2.4-4.1l-1.5-2.7L20.9,144.8c-0.1,0.1-0.1,0.3-0.1,0.5
	C20.7,145.1,20.8,145,20.9,144.8z"/>
<g class="st13">
	<path class="st14" d="M29.3,152.1h-4.2c-0.4,0-0.7-0.2-0.9-0.5l-3.4-5.8c-0.1-0.1-0.1-0.3-0.1-0.5c0,0.2,0.1,0.4,0.1,0.6l3.4,5.8
		c0.2,0.3,0.5,0.5,0.9,0.5L29.3,152.1L29.3,152.1z"/>
</g>
<g class="st13">
	<polygon class="st15" points="33.3,145.3 30.9,141.2 30.8,141.2 33.2,145.3 	"/>
	<path class="st15" d="M36,145.8l-3.4,5.8c-0.2,0.4-0.5,0.5-0.9,0.5h-2.5l-0.1,0.1h2.5c0.4,0,0.7-0.2,0.9-0.5L36,145.8
		c0-0.1,0.1-0.3,0.1-0.5C36.1,145.4,36.1,145.6,36,145.8z"/>
</g>
<g class="st13">
	<path class="st5" d="M34,141.3l2.1,3.6c0.1,0.1,0.1,0.3,0.1,0.5c0-0.2-0.1-0.3-0.1-0.6l-2.1-3.6h-3.1l0.1,0.1"/>
	<polygon class="st5" points="30.8,149.5 33.3,145.3 33.2,145.3 30.8,149.4 29.3,152.1 29.3,152.1 	"/>
</g>
<radialGradient id="SVGID_1_" cx="-755.5616" cy="1421.0233" r="5.9307" gradientTransform="matrix(2.67 0 0 2.67 2040.1101 -3655.2402)" gradientUnits="userSpaceOnUse">
	<stop  offset="0" style="stop-color:#FFFFFF;stop-opacity:0.1"/>
	<stop  offset="1" style="stop-color:#FFFFFF;stop-opacity:0"/>
</radialGradient>
<path class="st16" d="M36,144.8l-2.1-3.6l-1.3-2.2c-0.2-0.3-0.5-0.5-0.9-0.5h-6.6c-0.4,0-0.7,0.2-0.9,0.5l-3.4,5.8
	c-0.2,0.3-0.2,0.7,0,1l3.4,5.8c0.2,0.3,0.5,0.5,0.9,0.5h6.6c0.4,0,0.7-0.2,0.9-0.5l3.4-5.8C36.2,145.5,36.2,145.1,36,144.8z"/>
<g id="Layer_2_1_">
</g>
<g>
	<path d="M269.3,106.4v3.5h4v-3.5h1.1v8.2h-1.1v-3.8h-4v3.8h-1.1v-8.2H269.3z"/>
	<path d="M277.5,107c0,0.4-0.3,0.7-0.7,0.7c-0.4,0-0.7-0.3-0.7-0.7s0.3-0.7,0.7-0.7C277.3,106.3,277.5,106.7,277.5,107z
		 M276.3,114.6v-5.9h1.1v5.9H276.3z"/>
	<path d="M284.3,108.7c0,0.4-0.1,0.9-0.1,1.6v3.5c0,1.3-0.3,2.2-0.8,2.6c-0.5,0.5-1.4,0.7-2.1,0.7s-1.5-0.1-2-0.4l0.3-0.8
		c0.4,0.3,1,0.4,1.7,0.4c1.1,0,1.9-0.5,1.9-2.1v-0.7l0,0c-0.4,0.5-1,1-1.9,1c-1.4,0-2.5-1.3-2.5-2.9c0-2,1.3-3.2,2.6-3.2
		c1.1,0,1.6,0.5,1.9,1.1l0,0l0.1-0.9L284.3,108.7L284.3,108.7L284.3,108.7z M283.2,111.1c0-0.1,0-0.4-0.1-0.4
		c-0.1-0.7-0.7-1.2-1.5-1.2c-1.1,0-1.8,0.9-1.8,2.2c0,1.2,0.7,2.1,1.8,2.1c0.7,0,1.3-0.4,1.5-1.1c0.1-0.1,0.1-0.4,0.1-0.5V111.1z"/>
	<path d="M286,105.9h1.1v3.7l0,0c0.1-0.3,0.4-0.5,0.8-0.7s0.7-0.3,1.1-0.3c0.8,0,2.1,0.4,2.1,2.5v3.6H290v-3.4c0-1-0.4-1.8-1.3-1.8
		c-0.7,0-1.3,0.4-1.4,1.1c-0.1,0.1-0.1,0.3-0.1,0.5v3.6h-1.1L286,105.9L286,105.9z"/>
	<path d="M292.9,105.9h1.1v8.7h-1.1V105.9z"/>
	<path d="M296.2,108.7l1.3,3.5c0.1,0.4,0.3,0.9,0.4,1.3l0,0c0.1-0.4,0.3-0.8,0.4-1.3l1.2-3.5h1.2l-1.6,4.2c-0.8,2.1-1.3,3-2.1,3.8
		c-0.5,0.4-1.1,0.7-1.3,0.7l-0.3-0.9c0.3-0.1,0.7-0.3,1-0.5c0.3-0.3,0.7-0.7,0.9-1.2c0.1-0.1,0.1-0.1,0.1-0.3c0-0.1,0-0.1-0.1-0.3
		l-2.2-5.4L296.2,108.7L296.2,108.7L296.2,108.7z"/>
	<path d="M305.4,112l-0.9,2.6h-1.1l2.8-8.2h1.3l2.9,8.2h-1.2l-0.9-2.6H305.4z M308.2,111.2l-0.8-2.4c-0.1-0.5-0.3-1.1-0.4-1.5l0,0
		c-0.1,0.4-0.3,1-0.4,1.5l-0.8,2.4H308.2z"/>
	<path d="M311.8,108.7l1.2,3.3c0.1,0.5,0.4,1.1,0.4,1.5l0,0c0.1-0.4,0.3-1,0.5-1.5l1.2-3.3h1.2l-2.4,5.9h-1.1l-2.2-5.9H311.8z"/>
	<path d="M320.5,114.6l-0.1-0.7l0,0c-0.4,0.4-1,0.9-1.8,0.9c-1.2,0-1.8-0.8-1.8-1.7c0-1.4,1.3-2.2,3.6-2.2v-0.1
		c0-0.4-0.1-1.3-1.3-1.3c-0.5,0-1.2,0.1-1.5,0.4l-0.3-0.7c0.4-0.4,1.2-0.5,2-0.5c1.8,0,2.2,1.3,2.2,2.4v2.2c0,0.5,0,1,0.1,1.4
		L320.5,114.6L320.5,114.6z M320.3,111.6c-1.2,0-2.5,0.1-2.5,1.3c0,0.7,0.4,1.1,1,1.1c0.8,0,1.3-0.4,1.4-1c0-0.1,0.1-0.3,0.1-0.4
		V111.6L320.3,111.6z"/>
	<path d="M326,105.9h1.1v8.7H326V105.9z"/>
	<path d="M324.4,107c0,0.4-0.3,0.7-0.7,0.7c-0.4,0-0.7-0.3-0.7-0.7s0.3-0.7,0.7-0.7C324.2,106.3,324.4,106.7,324.4,107z
		 M323.2,114.6v-5.9h1.1v5.9H323.2z"/>
	<path d="M332.1,114.6l-0.1-0.7l0,0c-0.4,0.4-1,0.9-1.8,0.9c-1.2,0-1.8-0.8-1.8-1.7c0-1.4,1.3-2.2,3.6-2.2v-0.1
		c0-0.4-0.1-1.3-1.3-1.3c-0.5,0-1.2,0.1-1.5,0.4l-0.3-0.7c0.4-0.4,1.2-0.5,2-0.5c1.8,0,2.2,1.3,2.2,2.4v2.2c0,0.5,0,1,0.1,1.4
		L332.1,114.6L332.1,114.6z M332,111.6c-1.2,0-2.5,0.1-2.5,1.3c0,0.7,0.4,1.1,1,1.1c0.8,0,1.3-0.4,1.4-1c0-0.1,0.1-0.3,0.1-0.4
		V111.6L332,111.6z"/>
	<path d="M334.7,114.6c0-0.4,0.1-1,0.1-1.5V106h1.1v3.8l0,0c0.4-0.7,1.1-1.1,2.1-1.1c1.4,0,2.5,1.3,2.5,3c0,2.1-1.3,3.2-2.6,3.2
		c-0.9,0-1.5-0.4-2-1.1l0,0l-0.1,1L334.7,114.6L334.7,114.6L334.7,114.6z M335.8,112.2c0,0.1,0,0.3,0.1,0.4c0.1,0.7,0.8,1.3,1.6,1.3
		c1.2,0,1.8-0.9,1.8-2.4c0-1.2-0.7-2.2-1.8-2.2c-0.7,0-1.4,0.5-1.6,1.3c0,0.1-0.1,0.3-0.1,0.4V112.2z"/>
	<path d="M341.7,105.9h1.1v8.7h-1.1V105.9z"/>
	<path d="M345.2,111.8c0,1.4,1,2.1,2.1,2.1c0.8,0,1.3-0.1,1.6-0.3l0.1,0.8c-0.4,0.1-1.1,0.4-2,0.4c-1.8,0-2.9-1.2-2.9-2.9
		s1.1-3.2,2.8-3.2c2,0,2.4,1.7,2.4,2.8c0,0.1,0,0.4,0,0.5L345.2,111.8L345.2,111.8L345.2,111.8z M348.4,111.1c0-0.7-0.3-1.8-1.5-1.8
		c-1.1,0-1.6,1-1.7,1.8H348.4z"/>
	<path d="M353.4,106.5c0.5-0.1,1.2-0.1,2.1-0.1c1.1,0,1.8,0.3,2.4,0.7c0.4,0.4,0.7,1,0.7,1.7s-0.1,1.3-0.7,1.8
		c-0.5,0.7-1.5,0.9-2.5,0.9c-0.4,0-0.7,0-0.9-0.1v3.3h-1.1V106.5L353.4,106.5z M354.5,110.4c0.3,0.1,0.5,0.1,0.9,0.1
		c1.3,0,2.1-0.7,2.1-1.8c0-1.1-0.8-1.6-2-1.6c-0.4,0-0.8,0-1,0.1V110.4L354.5,110.4z"/>
	<path d="M360.2,111.8c0,1.4,1,2.1,2.1,2.1c0.8,0,1.3-0.1,1.6-0.3l0.1,0.8c-0.4,0.1-1.1,0.4-2,0.4c-1.8,0-2.9-1.2-2.9-2.9
		s1.1-3.2,2.8-3.2c2,0,2.4,1.7,2.4,2.8c0,0.1,0,0.4,0,0.5L360.2,111.8L360.2,111.8L360.2,111.8z M363.3,111.1c0-0.7-0.3-1.8-1.5-1.8
		c-1.1,0-1.6,1-1.7,1.8H363.3z"/>
	<path d="M365.8,110.5c0-0.7,0-1.3-0.1-1.9h1v1.2h0.1c0.3-0.8,0.9-1.3,1.6-1.3c0.1,0,0.1,0,0.3,0v1c-0.1,0-0.1,0-0.4,0
		c-0.8,0-1.3,0.5-1.4,1.4c0,0.1-0.1,0.4-0.1,0.5v3.2h-1V110.5L365.8,110.5z"/>
	<path d="M369.6,113.6c0.4,0.1,0.9,0.4,1.4,0.4c0.8,0,1.2-0.4,1.2-0.9s-0.3-0.8-1.1-1.1c-1.1-0.4-1.6-1-1.6-1.7c0-1,0.8-1.7,2.1-1.7
		c0.7,0,1.2,0.1,1.4,0.4l-0.3,0.8c-0.3-0.1-0.7-0.4-1.3-0.4c-0.7,0-1,0.4-1,0.8s0.4,0.7,1.2,1c1.1,0.4,1.5,0.9,1.5,1.8
		c0,1.1-0.8,1.8-2.2,1.8c-0.7,0-1.3-0.1-1.7-0.4L369.6,113.6z"/>
	<path d="M375.8,107c0,0.4-0.3,0.7-0.7,0.7c-0.4,0-0.7-0.3-0.7-0.7s0.3-0.7,0.7-0.7C375.5,106.3,375.8,106.7,375.8,107z
		 M374.6,114.6v-5.9h1.1v5.9H374.6z"/>
	<path d="M377.3,113.6c0.4,0.1,0.9,0.4,1.4,0.4c0.8,0,1.2-0.4,1.2-0.9s-0.3-0.8-1.1-1.1c-1.1-0.4-1.6-1-1.6-1.7c0-1,0.8-1.7,2.1-1.7
		c0.7,0,1.2,0.1,1.4,0.4l-0.3,0.8c-0.3-0.1-0.7-0.4-1.3-0.4c-0.7,0-1,0.4-1,0.8s0.4,0.7,1.2,1c1.1,0.4,1.5,0.9,1.5,1.8
		c0,1.1-0.8,1.8-2.2,1.8c-0.7,0-1.3-0.1-1.7-0.4L377.3,113.6z"/>
	<path d="M383.6,107v1.7h1.5v0.8h-1.5v3.2c0,0.7,0.1,1.2,0.8,1.2c0.3,0,0.4,0,0.7-0.1l0.1,0.8c-0.1,0.1-0.5,0.1-1,0.1
		s-0.9-0.1-1.2-0.4c-0.3-0.4-0.4-0.8-0.4-1.5v-3.2h-0.9v-0.8h0.9v-1.4L383.6,107z"/>
	<path d="M387,111.8c0,1.4,1,2.1,2.1,2.1c0.8,0,1.3-0.1,1.6-0.3l0.1,0.8c-0.4,0.1-1.1,0.4-2,0.4c-1.8,0-2.9-1.2-2.9-2.9
		s1.1-3.2,2.8-3.2c2,0,2.4,1.7,2.4,2.8c0,0.1,0,0.4,0,0.5L387,111.8L387,111.8L387,111.8z M390.1,111.1c0-0.7-0.3-1.8-1.5-1.8
		c-1.1,0-1.6,1-1.7,1.8H390.1z"/>
	<path d="M392.5,110.3c0-0.7,0-1.1-0.1-1.6h1l0.1,1l0,0c0.3-0.5,1-1.1,2-1.1c0.8,0,2.1,0.4,2.1,2.5v3.6h-1.1v-3.4
		c0-1-0.4-1.8-1.3-1.8c-0.7,0-1.3,0.5-1.4,1.1c-0.1,0.1-0.1,0.4-0.1,0.5v3.6h-1.1v-4.4H392.5z"/>
	<path d="M400.6,107v1.7h1.5v0.8h-1.5v3.2c0,0.7,0.1,1.2,0.8,1.2c0.3,0,0.4,0,0.7-0.1l0.1,0.8c-0.1,0.1-0.5,0.1-1,0.1
		s-0.9-0.1-1.2-0.4c-0.3-0.4-0.4-0.8-0.4-1.5v-3.2h-0.9v-0.8h0.9v-1.4L400.6,107z"/>
	<path d="M405.8,113.3c0.4,0.3,1.2,0.5,1.9,0.5c1.1,0,1.7-0.5,1.7-1.4c0-0.8-0.4-1.3-1.5-1.6c-1.3-0.4-2.1-1.2-2.1-2.4
		c0-1.3,1.1-2.2,2.6-2.2c0.8,0,1.4,0.1,1.8,0.4l-0.3,0.9c-0.3-0.1-0.8-0.4-1.6-0.4c-1.2,0-1.5,0.7-1.5,1.3c0,0.8,0.5,1.2,1.6,1.6
		c1.4,0.5,2.1,1.3,2.1,2.4c0,1.3-1,2.4-2.9,2.4c-0.8,0-1.7-0.3-2.1-0.5L405.8,113.3z"/>
	<path d="M413.2,107v1.7h1.5v0.8h-1.5v3.2c0,0.7,0.1,1.2,0.8,1.2c0.3,0,0.4,0,0.7-0.1l0.1,0.8c-0.1,0.1-0.5,0.1-1,0.1
		s-0.9-0.1-1.2-0.4c-0.3-0.4-0.4-0.8-0.4-1.5v-3.2h-0.9v-0.8h0.9v-1.4L413.2,107z"/>
	<path d="M421.3,111.6c0,2.2-1.5,3.2-2.9,3.2c-1.6,0-2.9-1.2-2.9-3c0-2,1.3-3.2,2.9-3.2C420.1,108.6,421.3,109.8,421.3,111.6z
		 M416.5,111.7c0,1.3,0.7,2.4,1.8,2.4c1,0,1.8-1,1.8-2.4c0-1-0.5-2.4-1.8-2.4S416.5,110.5,416.5,111.7z"/>
	<path d="M422.6,110.5c0-0.7,0-1.3-0.1-1.9h1v1.2h0.1c0.3-0.8,0.9-1.3,1.6-1.3c0.1,0,0.1,0,0.3,0v1c-0.1,0-0.1,0-0.4,0
		c-0.8,0-1.3,0.5-1.4,1.4c0,0.1-0.1,0.4-0.1,0.5v3.2h-1.1L422.6,110.5L422.6,110.5z"/>
	<path d="M429.8,114.6l-0.1-0.7l0,0c-0.4,0.4-1,0.9-1.8,0.9c-1.2,0-1.8-0.8-1.8-1.7c0-1.4,1.3-2.2,3.6-2.2v-0.1
		c0-0.4-0.1-1.3-1.3-1.3c-0.5,0-1.2,0.1-1.5,0.4l-0.3-0.7c0.4-0.4,1.2-0.5,2-0.5c1.8,0,2.2,1.3,2.2,2.4v2.2c0,0.5,0,1,0.1,1.4
		L429.8,114.6L429.8,114.6L429.8,114.6z M429.7,111.6c-1.2,0-2.5,0.1-2.5,1.3c0,0.7,0.4,1.1,1,1.1c0.8,0,1.3-0.4,1.4-1
		c0-0.1,0.1-0.3,0.1-0.4V111.6L429.7,111.6z"/>
	<path d="M437.6,108.7c0,0.4-0.1,0.9-0.1,1.6v3.5c0,1.3-0.3,2.2-0.8,2.6c-0.5,0.5-1.4,0.7-2.1,0.7s-1.5-0.1-2-0.4l0.3-0.8
		c0.4,0.3,1,0.4,1.7,0.4c1.1,0,1.9-0.5,1.9-2.1v-0.7l0,0c-0.4,0.5-1,1-1.9,1c-1.4,0-2.5-1.3-2.5-2.9c0-2,1.3-3.2,2.6-3.2
		c1.1,0,1.6,0.5,1.9,1.1l0,0l0.1-0.9L437.6,108.7L437.6,108.7z M436.5,111.1c0-0.1,0-0.4-0.1-0.4c-0.1-0.7-0.7-1.2-1.5-1.2
		c-1.1,0-1.8,0.9-1.8,2.2c0,1.2,0.7,2.1,1.8,2.1c0.7,0,1.3-0.4,1.5-1.1c0.1-0.1,0.1-0.4,0.1-0.5V111.1z"/>
	<path d="M440,111.8c0,1.4,1,2.1,2.1,2.1c0.8,0,1.3-0.1,1.6-0.3l0.1,0.8c-0.4,0.1-1.1,0.4-2,0.4c-1.8,0-2.9-1.2-2.9-2.9
		s1.1-3.2,2.8-3.2c2,0,2.4,1.7,2.4,2.8c0,0.1,0,0.4,0,0.5L440,111.8L440,111.8L440,111.8z M443.1,111.1c0-0.7-0.3-1.8-1.5-1.8
		c-1.1,0-1.6,1-1.7,1.8H443.1z"/>
</g>
<g>
	<path class="st3" d="M291.1,180.7l-10.4-18.1c-0.8-1.4-2.3-2.3-3.9-2.3h-20.9c-1.6,0-3.1,0.9-3.9,2.3l-10.4,18.1
		c-0.8,1.4-0.8,3.1,0,4.6l10.4,18.2c0.8,1.4,2.2,2.4,3.9,2.4h20.9c1.6-0.1,3.2-1,3.9-2.4l10.4-18.1
		C291.8,183.9,291.8,182.2,291.1,180.7z"/>
	<path class="st4" d="M273.9,173.5l-12.7,1.6l-2.4,6.4l2,2l-2,3.6l2,2l-2,3.6l13.3,13.3h4.7c1.6-0.1,3.1-1,3.9-2.4l8.4-14.6
		L273.9,173.5z"/>
	<polygon class="st5" points="270.3,184.6 270.3,189 258.8,189 258.8,192.6 273.9,192.6 273.9,184.6 	"/>
	<polygon class="st5" points="262.4,181.5 262.4,177.1 273.9,177.1 273.9,173.5 258.8,173.5 258.8,181.5 	"/>
	<polygon class="st5" points="264.3,179.1 264.3,183.4 258.8,183.4 258.8,187 268.3,187 268.3,182.6 273.9,182.6 273.9,179.1 	"/>
</g>
<g>
	<g>
		<path d="M244.3,227.4h2.3c0.7,0,1.1,0.2,1.3,0.6c0.2,0.2,0.3,0.4,0.3,0.8s-0.1,0.6-0.3,0.8c-0.2,0.2-0.3,0.2-0.4,0.3
			c0.3,0.2,0.4,0.2,0.6,0.3c0.3,0.3,0.4,0.6,0.4,1c0,0.3-0.2,0.7-0.3,0.9c-0.3,0.4-0.8,0.7-1.5,0.7h-2.4V227.4L244.3,227.4z
			 M246.4,229.6c0.3,0,0.5-0.1,0.7-0.2c0.3-0.2,0.4-0.4,0.4-0.7c0-0.3-0.2-0.6-0.4-0.7c-0.2-0.1-0.4-0.2-0.7-0.2h-1.3v1.6
			L246.4,229.6L246.4,229.6L246.4,229.6z M246.7,232.1c0.4,0,0.8-0.2,1-0.4c0.2-0.2,0.2-0.4,0.2-0.6c0-0.4-0.2-0.7-0.5-0.8
			c-0.2-0.1-0.4-0.2-0.7-0.2h-1.5v1.8L246.7,232.1L246.7,232.1z"/>
		<path d="M249.3,227.4h0.7v5.3h-0.7V227.4z"/>
		<path d="M253.7,229.2c0.3,0.3,0.5,0.8,0.5,1.5c0,0.7-0.2,1.2-0.4,1.5c-0.3,0.3-0.8,0.6-1.4,0.6c-0.5,0-1-0.2-1.3-0.5
			c-0.3-0.4-0.4-0.8-0.4-1.4c0-0.7,0.2-1.2,0.5-1.5c0.3-0.3,0.8-0.6,1.3-0.6C253,228.7,253.3,228.9,253.7,229.2z M253.3,231.8
			c0.2-0.3,0.3-0.7,0.3-1.1s-0.1-0.7-0.2-0.9c-0.2-0.4-0.5-0.5-0.9-0.5s-0.7,0.2-0.8,0.4c-0.2,0.3-0.3,0.7-0.3,1.1s0.1,0.8,0.3,1
			c0.2,0.3,0.4,0.4,0.8,0.4S253.1,232.2,253.3,231.8z"/>
		<path d="M257.5,229c0.3,0.2,0.4,0.6,0.5,1.1h-0.7c-0.1-0.3-0.2-0.4-0.3-0.6c-0.2-0.2-0.4-0.3-0.7-0.3c-0.4,0-0.7,0.2-0.9,0.6
			c-0.2,0.3-0.2,0.6-0.2,1s0.1,0.7,0.3,1c0.2,0.3,0.4,0.4,0.8,0.4c0.3,0,0.4-0.1,0.7-0.3c0.2-0.2,0.3-0.4,0.3-0.7h0.7
			c-0.1,0.5-0.3,0.9-0.5,1.1c-0.3,0.3-0.7,0.4-1.1,0.4c-0.5,0-0.9-0.2-1.3-0.6s-0.4-0.8-0.4-1.3c0-0.7,0.2-1.3,0.5-1.6
			c0.3-0.4,0.8-0.6,1.3-0.6C256.9,228.7,257.2,228.8,257.5,229z"/>
		<path d="M258.7,227.4h0.7v3.1l1.7-1.6h0.8l-1.5,1.4l1.5,2.4H261l-1.3-1.9l-0.5,0.5v1.4h-0.7L258.7,227.4L258.7,227.4z"/>
		<path d="M265,231c0,0.3,0.1,0.5,0.2,0.7c0.3,0.3,0.7,0.5,1.3,0.5c0.3,0,0.5-0.1,0.7-0.2c0.4-0.2,0.7-0.4,0.7-0.8
			c0-0.3-0.1-0.5-0.3-0.7c-0.2-0.2-0.4-0.2-0.8-0.3l-0.7-0.2c-0.4-0.2-0.8-0.2-1-0.3c-0.3-0.2-0.5-0.6-0.5-1s0.2-0.8,0.4-1.2
			c0.3-0.3,0.8-0.4,1.3-0.4c0.5,0,1,0.2,1.3,0.4c0.4,0.3,0.6,0.7,0.6,1.3h-0.7c-0.1-0.3-0.2-0.5-0.2-0.7c-0.2-0.3-0.6-0.4-1.1-0.4
			c-0.4,0-0.7,0.1-0.9,0.3c-0.2,0.2-0.3,0.4-0.3,0.7s0.2,0.4,0.3,0.6c0.2,0.1,0.4,0.2,0.9,0.3l0.7,0.2c0.3,0.1,0.7,0.2,0.8,0.3
			c0.3,0.3,0.5,0.6,0.5,1.1c0,0.6-0.2,1-0.7,1.3c-0.4,0.3-0.9,0.4-1.4,0.4c-0.7,0-1.2-0.2-1.5-0.5c-0.4-0.3-0.5-0.8-0.5-1.3L265,231
			L265,231z"/>
		<path d="M269.5,227.7h0.7v1.1h0.7v0.5h-0.7v2.5c0,0.2,0.1,0.2,0.2,0.3c0.1,0,0.2,0.1,0.3,0.1c0,0,0.1,0,0.2,0c0.1,0,0.1,0,0.2,0
			v0.5c-0.1,0-0.2,0.1-0.3,0.1c-0.1,0-0.2,0-0.3,0c-0.3,0-0.5-0.1-0.7-0.3c-0.2-0.2-0.2-0.4-0.2-0.6v-2.6h-0.5v-0.5h0.5L269.5,227.7
			L269.5,227.7z"/>
		<path d="M274.2,229.2c0.3,0.3,0.5,0.8,0.5,1.5c0,0.7-0.2,1.2-0.4,1.5c-0.3,0.3-0.8,0.6-1.4,0.6c-0.5,0-1-0.2-1.3-0.5
			c-0.3-0.4-0.4-0.8-0.4-1.4c0-0.7,0.2-1.2,0.5-1.5c0.3-0.3,0.8-0.6,1.3-0.6C273.5,228.7,273.9,228.9,274.2,229.2z M273.8,231.8
			c0.2-0.3,0.3-0.7,0.3-1.1s-0.1-0.7-0.2-0.9c-0.2-0.4-0.5-0.5-0.9-0.5c-0.4,0-0.7,0.2-0.8,0.4c-0.2,0.3-0.3,0.7-0.3,1.1
			s0.1,0.8,0.3,1s0.4,0.4,0.8,0.4C273.4,232.2,273.6,232.2,273.8,231.8z"/>
		<path d="M275.6,228.8h0.7v0.7c0.1-0.2,0.2-0.3,0.4-0.4c0.2-0.2,0.4-0.3,0.7-0.3c0,0,0,0,0.1,0c0.1,0,0.1,0,0.2,0v0.7
			c-0.1,0-0.1,0-0.2,0c-0.1,0-0.1,0-0.2,0c-0.3,0-0.6,0.2-0.8,0.3c-0.2,0.2-0.3,0.4-0.3,0.7v2.2h-0.7V228.8L275.6,228.8z"/>
		<path d="M280.1,230.3c0.2,0,0.3-0.1,0.3-0.2c0-0.1,0.1-0.2,0.1-0.3c0-0.2-0.1-0.4-0.3-0.4c-0.2-0.2-0.4-0.2-0.7-0.2
			c-0.3,0-0.6,0.1-0.7,0.3s-0.2,0.3-0.2,0.4h-0.6c0-0.4,0.2-0.8,0.4-1c0.3-0.2,0.7-0.3,1-0.3c0.4,0,0.8,0.1,1.1,0.3
			c0.3,0.2,0.4,0.4,0.4,0.8v2.2c0,0.1,0,0.2,0.1,0.2c0,0.1,0.1,0.1,0.2,0.1c0,0,0.1,0,0.2,0c0.1,0,0.1,0,0.2,0v0.4
			c-0.2,0-0.2,0.1-0.3,0.1c-0.1,0-0.2,0-0.2,0c-0.2,0-0.4-0.1-0.5-0.3c-0.1-0.1-0.1-0.2-0.2-0.4c-0.2,0.2-0.3,0.3-0.6,0.4
			c-0.3,0.2-0.5,0.2-0.8,0.2c-0.4,0-0.7-0.2-0.9-0.3c-0.3-0.2-0.3-0.5-0.3-0.8c0-0.4,0.2-0.7,0.3-0.8c0.2-0.2,0.5-0.3,0.9-0.4
			L280.1,230.3z M278.7,232.2c0.2,0.2,0.3,0.2,0.5,0.2c0.3,0,0.4-0.1,0.7-0.2c0.4-0.2,0.5-0.4,0.5-0.8v-0.5
			c-0.1,0.1-0.2,0.1-0.3,0.2c-0.2,0.1-0.3,0.1-0.4,0.1l-0.4,0.1c-0.3,0-0.4,0.1-0.5,0.2c-0.2,0.2-0.3,0.3-0.3,0.5
			C278.5,231.9,278.6,232,278.7,232.2z"/>
		<path d="M284.3,229c0.2,0.1,0.3,0.2,0.4,0.4v-0.5h0.6v3.5c0,0.5-0.1,0.9-0.2,1.2c-0.3,0.5-0.8,0.8-1.5,0.8c-0.4,0-0.8-0.1-1-0.3
			c-0.3-0.2-0.4-0.4-0.4-0.9h0.7c0,0.2,0.1,0.3,0.2,0.4c0.2,0.2,0.4,0.2,0.7,0.2c0.5,0,0.8-0.2,1-0.5c0.1-0.2,0.2-0.6,0.2-1.1
			c-0.2,0.2-0.3,0.3-0.4,0.4c-0.2,0.1-0.4,0.2-0.7,0.2c-0.4,0-0.8-0.2-1.1-0.4c-0.3-0.3-0.4-0.8-0.4-1.5c0-0.7,0.2-1.2,0.4-1.5
			c0.3-0.4,0.7-0.5,1.2-0.5C283.7,228.8,284,228.8,284.3,229z M284.3,229.6c-0.2-0.3-0.4-0.3-0.8-0.3c-0.4,0-0.8,0.2-0.9,0.7
			c-0.1,0.3-0.2,0.5-0.2,0.9s0.1,0.8,0.3,1s0.4,0.3,0.7,0.3c0.4,0,0.8-0.2,1-0.7c0.2-0.3,0.2-0.5,0.2-0.8
			C284.6,230.2,284.5,229.9,284.3,229.6z"/>
		<path d="M288.6,228.9c0.3,0.2,0.4,0.3,0.6,0.5c0.2,0.2,0.2,0.4,0.3,0.7c0.1,0.2,0.1,0.4,0.1,0.8h-2.9c0,0.4,0.2,0.7,0.3,1
			c0.2,0.3,0.4,0.4,0.8,0.4c0.3,0,0.6-0.2,0.8-0.3c0.2-0.2,0.2-0.3,0.3-0.4h0.7c0,0.2-0.1,0.3-0.2,0.4c-0.1,0.2-0.2,0.3-0.3,0.4
			c-0.2,0.2-0.4,0.3-0.7,0.4c-0.2,0.1-0.3,0.1-0.5,0.1c-0.4,0-0.9-0.2-1.3-0.5s-0.5-0.8-0.5-1.5s0.2-1.1,0.5-1.5s0.8-0.6,1.3-0.6
			C288.1,228.7,288.3,228.8,288.6,228.9z M288.8,230.5c0-0.3-0.1-0.5-0.2-0.7c-0.2-0.3-0.4-0.4-0.9-0.4c-0.3,0-0.5,0.2-0.8,0.3
			c-0.2,0.2-0.3,0.5-0.3,0.8L288.8,230.5L288.8,230.5z"/>
	</g>
	<g>
		<path d="M236.6,220.2h-0.9v-7.1h2.4c0.6,0,1.1,0.2,1.6,0.6c0.4,0.4,0.7,0.9,0.7,1.5s-0.3,1.1-0.7,1.5s-1,0.6-1.6,0.6h-1.5V220.2z
			 M236.6,216.4h1.5c0.4,0,0.7-0.2,0.9-0.4c0.3-0.3,0.3-0.5,0.3-0.8s-0.1-0.6-0.3-0.8c-0.3-0.3-0.5-0.4-0.9-0.4h-1.5V216.4z"/>
		<path d="M243,220.4c-0.8,0-1.3-0.3-1.8-0.8c-0.5-0.5-0.7-1.1-0.7-1.8c0-0.7,0.3-1.3,0.7-1.8s1-0.8,1.8-0.8s1.3,0.3,1.8,0.7
			c0.4,0.5,0.7,1.1,0.7,1.9v0.2h-3.9c0,0.5,0.2,0.9,0.5,1.2s0.7,0.4,1.1,0.4c0.7,0,1.1-0.3,1.3-0.8l0.8,0.3
			c-0.2,0.4-0.4,0.7-0.8,0.9C244,220.2,243.5,220.4,243,220.4z M244.3,217.2c0-0.3-0.2-0.5-0.4-0.8c-0.3-0.3-0.6-0.4-1.1-0.4
			c-0.3,0-0.7,0.1-0.9,0.3c-0.3,0.3-0.4,0.5-0.5,0.8L244.3,217.2L244.3,217.2z"/>
		<path d="M247,220.2h-0.9v-4.9h0.8v0.8l0,0c0.1-0.3,0.3-0.5,0.6-0.7c0.3-0.2,0.6-0.3,0.8-0.3c0.3,0,0.5,0,0.7,0.1l-0.3,0.8
			c-0.1-0.1-0.3-0.1-0.5-0.1c-0.3,0-0.6,0.2-0.9,0.4c-0.3,0.3-0.4,0.6-0.4,1v2.7L247,220.2L247,220.2z"/>
		<path d="M251.4,220.4c-0.5,0-1-0.2-1.3-0.4c-0.3-0.3-0.6-0.6-0.8-1l0.8-0.3c0.3,0.6,0.7,0.9,1.3,0.9c0.3,0,0.5-0.1,0.7-0.2
			c0.2-0.2,0.3-0.3,0.3-0.5c0-0.3-0.3-0.5-0.7-0.7l-1-0.3c-0.3-0.1-0.6-0.3-0.9-0.4c-0.3-0.3-0.4-0.5-0.4-0.9s0.2-0.8,0.6-1.1
			c0.4-0.3,0.8-0.4,1.3-0.4c0.4,0,0.8,0.1,1.2,0.3c0.3,0.2,0.6,0.5,0.8,0.8l-0.8,0.3c-0.2-0.4-0.6-0.7-1.1-0.7
			c-0.3,0-0.5,0.1-0.7,0.2c-0.2,0.1-0.3,0.3-0.3,0.4c0,0.3,0.3,0.5,0.7,0.6l1,0.3c0.4,0.1,0.8,0.3,1,0.6c0.3,0.3,0.3,0.6,0.3,0.8
			c0,0.4-0.2,0.8-0.5,1.1C252.4,220.2,251.9,220.4,251.4,220.4z"/>
		<path d="M255.1,214.1c-0.2,0.2-0.3,0.2-0.4,0.2c-0.2,0-0.3-0.1-0.4-0.2c-0.2-0.2-0.2-0.3-0.2-0.4s0.1-0.3,0.2-0.4
			c0.2-0.2,0.3-0.2,0.4-0.2c0.2,0,0.3,0.1,0.4,0.2c0.2,0.2,0.2,0.3,0.2,0.4S255.1,213.9,255.1,214.1z M255.1,220.2h-0.9v-4.9h0.9
			V220.2z"/>
		<path d="M258,220.4c-0.5,0-1-0.2-1.3-0.4s-0.6-0.6-0.8-1l0.8-0.3c0.3,0.6,0.7,0.9,1.3,0.9c0.3,0,0.5-0.1,0.7-0.2
			c0.2-0.2,0.3-0.3,0.3-0.5c0-0.3-0.3-0.5-0.7-0.7l-1-0.3c-0.3-0.1-0.6-0.3-0.9-0.4c-0.3-0.3-0.4-0.5-0.4-0.9s0.2-0.8,0.6-1.1
			c0.4-0.3,0.8-0.4,1.3-0.4c0.4,0,0.8,0.1,1.2,0.3c0.3,0.2,0.6,0.5,0.8,0.8l-0.8,0.3c-0.2-0.4-0.6-0.7-1.1-0.7
			c-0.3,0-0.5,0.1-0.7,0.2c-0.2,0.1-0.3,0.3-0.3,0.4c0,0.3,0.3,0.5,0.7,0.6l1,0.3c0.4,0.1,0.8,0.3,1,0.6c0.3,0.3,0.3,0.6,0.3,0.8
			c0,0.4-0.2,0.8-0.5,1.1C259.1,220.2,258.6,220.4,258,220.4z"/>
		<path d="M262.8,220.3c-0.5,0-0.9-0.2-1.2-0.4c-0.3-0.3-0.4-0.7-0.4-1.2v-2.6h-0.8v-0.8h0.8v-1.5h0.9v1.5h1.2v0.8h-1.2v2.5
			c0,0.5,0.3,0.8,0.7,0.8c0.2,0,0.3,0,0.4-0.1l0.3,0.8C263.4,220.2,263.1,220.3,262.8,220.3z"/>
		<path d="M266.4,220.4c-0.8,0-1.3-0.3-1.8-0.8c-0.5-0.5-0.7-1.1-0.7-1.8c0-0.7,0.3-1.3,0.7-1.8c0.4-0.5,1-0.8,1.8-0.8
			c0.8,0,1.3,0.3,1.8,0.7c0.4,0.5,0.7,1.1,0.7,1.9v0.2H265c0,0.5,0.2,0.9,0.5,1.2s0.7,0.4,1.1,0.4c0.7,0,1.1-0.3,1.3-0.8l0.8,0.3
			c-0.2,0.4-0.4,0.7-0.8,0.9C267.4,220.2,267,220.4,266.4,220.4z M267.7,217.2c0-0.3-0.2-0.5-0.4-0.8c-0.3-0.3-0.6-0.4-1.1-0.4
			c-0.3,0-0.7,0.1-0.9,0.3c-0.3,0.3-0.4,0.5-0.5,0.8L267.7,217.2L267.7,217.2z"/>
		<path d="M270.4,215.4v0.7l0,0c0.2-0.3,0.3-0.4,0.6-0.6c0.3-0.2,0.6-0.3,0.9-0.3c0.6,0,1.1,0.2,1.4,0.6c0.3,0.3,0.5,0.8,0.5,1.5v3
			h-0.9v-2.9c0-0.9-0.4-1.3-1.2-1.3c-0.4,0-0.7,0.2-0.9,0.4c-0.3,0.3-0.3,0.7-0.3,1.1v2.7h-1v-4.9L270.4,215.4L270.4,215.4z"/>
		<path d="M276.8,220.3c-0.5,0-0.9-0.2-1.2-0.4c-0.3-0.3-0.4-0.7-0.4-1.2v-2.6h-0.8v-0.8h0.8v-1.5h0.9v1.5h1.2v0.8h-1.2v2.5
			c0,0.5,0.3,0.8,0.7,0.8c0.2,0,0.3,0,0.4-0.1l0.3,0.8C277.4,220.2,277.1,220.3,276.8,220.3z"/>
		<path d="M280.6,220.2v-7.1h2.2c1.1,0,2,0.3,2.6,1c0.7,0.7,1,1.5,1,2.6c0,1.1-0.3,1.9-1,2.6c-0.7,0.7-1.5,1-2.6,1L280.6,220.2
			L280.6,220.2z M281.5,219.3h1.3c0.8,0,1.5-0.3,1.9-0.7c0.5-0.5,0.8-1.2,0.8-2s-0.3-1.5-0.8-2c-0.5-0.5-1.2-0.7-1.9-0.7h-1.3V219.3
			z"/>
		<path d="M288.3,214.1c-0.2,0.2-0.3,0.2-0.4,0.2c-0.2,0-0.3-0.1-0.4-0.2c-0.2-0.2-0.2-0.3-0.2-0.4s0.1-0.3,0.2-0.4
			c0.2-0.2,0.3-0.2,0.4-0.2c0.2,0,0.3,0.1,0.4,0.2c0.2,0.2,0.2,0.3,0.2,0.4S288.5,213.9,288.3,214.1z M288.3,220.2h-0.9v-4.9h0.9
			V220.2z"/>
		<path d="M291.3,220.4c-0.5,0-1-0.2-1.3-0.4c-0.3-0.3-0.6-0.6-0.8-1l0.8-0.3c0.3,0.6,0.7,0.9,1.3,0.9c0.3,0,0.5-0.1,0.7-0.2
			c0.2-0.2,0.3-0.3,0.3-0.5c0-0.3-0.3-0.5-0.7-0.7l-1-0.3c-0.3-0.1-0.6-0.3-0.9-0.4c-0.3-0.3-0.4-0.5-0.4-0.9s0.2-0.8,0.6-1.1
			c0.4-0.3,0.8-0.4,1.3-0.4c0.4,0,0.8,0.1,1.2,0.3c0.3,0.2,0.6,0.5,0.8,0.8l-0.8,0.3c-0.2-0.4-0.6-0.7-1.1-0.7
			c-0.3,0-0.5,0.1-0.7,0.2c-0.2,0.1-0.3,0.3-0.3,0.4c0,0.3,0.3,0.5,0.7,0.6l1,0.3c0.4,0.1,0.8,0.3,1,0.6c0.3,0.3,0.3,0.6,0.3,0.8
			c0,0.4-0.2,0.8-0.5,1.1C292.4,220.2,291.9,220.4,291.3,220.4z"/>
		<path d="M295,213.1v4.4l2.1-2.2h1.2l0,0l-1.8,2l2,2.9l0,0h-1.1l-1.5-2.3l-0.8,0.8v1.6h-0.9v-7.2H295z"/>
	</g>
</g>
<path class="st6" d="M218.3,145.1c0.1-2.5,2.1-4.5,4.6-4.5c1.1,0,2.2,0.4,3.1,1.3l-0.9,0.8c-0.6-0.6-1.4-0.9-2.2-0.9
	c-1.8,0-3.2,1.5-3.2,3.2v0.1c-0.1,1.8,1.4,3.2,3.1,3.3h0.1c0.8,0.1,1.7-0.3,2.2-0.9c0.4-0.4,0.6-1,0.7-1.5h-2.9v-1.3h4.1
	c0.1,0.3,0.1,0.5,0.1,0.8c0,1.1-0.3,2.1-1.1,2.9c-0.8,0.8-2,1.3-3.1,1.3C220.4,149.6,218.3,147.6,218.3,145.1z"/>
<path class="st6" d="M230.5,143.8c-1.6,0-2.9,1.3-2.9,2.9c0,1.6,1.3,2.9,2.9,2.9c1.6,0,2.9-1.3,2.9-2.9
	C233.3,145.1,232.1,143.8,230.5,143.8L230.5,143.8z M230.5,148.4c-0.9,0-1.7-0.8-1.7-1.7v-0.1c0-0.9,0.8-1.6,1.6-1.6
	c0.9,0,1.6,0.8,1.6,1.6C232.1,147.6,231.4,148.4,230.5,148.4L230.5,148.4L230.5,148.4z"/>
<path class="st6" d="M236.8,143.8c-1.6,0-2.9,1.3-2.9,2.9s1.3,2.9,2.9,2.9c1.6,0,2.9-1.3,2.9-2.9c0-1.5-1.3-2.9-2.8-2.9
	C236.8,143.8,236.8,143.8,236.8,143.8z M236.8,148.4c-0.9,0-1.7-0.8-1.7-1.7v-0.1c0-0.9,0.8-1.6,1.6-1.6c0.9,0,1.6,0.8,1.6,1.6
	C238.4,147.6,237.7,148.4,236.8,148.4C236.8,148.4,236.8,148.4,236.8,148.4L236.8,148.4z"/>
<path class="st6" d="M244.5,144v0.5h-0.1c-0.4-0.4-1-0.6-1.5-0.6c-1.6,0.1-2.8,1.4-2.8,3c0.1,1.5,1.3,2.7,2.8,2.8
	c0.6,0,1.1-0.2,1.5-0.6h0.1v0.4c0,1.1-0.6,1.7-1.5,1.7c-0.6,0-1.2-0.4-1.5-1.1l-1.1,0.5c0.4,1.1,1.5,1.8,2.6,1.7
	c1.5,0,2.7-0.9,2.7-3v-5.2L244.5,144L244.5,144z M243.1,148.4c-0.9,0-1.6-0.8-1.6-1.7v-0.1c-0.1-0.9,0.6-1.7,1.5-1.8c0,0,0,0,0.1,0
	c0.9,0.1,1.6,0.8,1.5,1.8l0,0C244.7,147.6,244,148.4,243.1,148.4L243.1,148.4z"/>
<rect x="246.6" y="140.9" class="st6" width="1.3" height="8.5"/>
<path class="st6" d="M251.4,148.4c-0.6,0-1.2-0.4-1.4-0.9l3.8-1.6l-0.1-0.4c-0.4-1.1-1.3-1.8-2.4-1.8c-1.5,0-2.7,1.2-2.7,2.7
	c0,0.1,0,0.1,0,0.1c-0.1,1.5,1.2,2.9,2.7,2.9c0.1,0,0.1,0,0.1,0c1,0,1.9-0.5,2.4-1.3l-1-0.6C252.5,148.1,251.9,148.4,251.4,148.4z
	 M251.2,144.9c0.5-0.1,0.9,0.2,1.1,0.6l-2.6,1.1C249.7,145.8,250.3,145,251.2,144.9L251.2,144.9z"/>
<path class="st6" d="M256.4,145.5c-0.1-2.2,1.7-4.1,3.9-4.1c0.1,0,0.1,0,0.1,0c1.1,0,2.2,0.4,2.9,1.3l-0.7,0.7c-0.6-0.6-1.3-1-2.2-1
	c-1.7-0.1-3,1.3-3.1,2.9c0,0.1,0,0.1,0,0.2c-0.1,1.7,1.2,3,2.9,3.1c0.1,0,0.1,0,0.1,0c0.9,0,1.8-0.4,2.4-1.1l0.7,0.7
	c-1.5,1.7-4.1,1.8-5.8,0.4C256.8,147.8,256.4,146.7,256.4,145.5z"/>
<path class="st6" d="M264.3,149.4v-7.8h1v7.8H264.3z"/>
<path class="st6" d="M271.6,146.7c0,1.5-1.3,2.7-2.7,2.7c-1.5,0-2.7-1.3-2.7-2.7s1.3-2.7,2.7-2.7
	C270.4,143.9,271.6,145.2,271.6,146.7z M270.6,146.7c0.1-1-0.6-1.8-1.6-1.9c-1-0.1-1.8,0.6-1.9,1.6c0,0.1,0,0.2,0,0.3
	c0,1,0.8,1.8,1.8,1.8C269.8,148.5,270.6,147.7,270.6,146.7L270.6,146.7z"/>
<path class="st6" d="M276.2,149.4v-0.8h-0.1c-0.4,0.6-1,0.9-1.7,0.9c-1.4,0-2-0.9-2-2.2V144h1v3.1c0,1.1,0.6,1.5,1.3,1.5
	c0.8-0.1,1.5-0.8,1.4-1.6v-2.9h1v5.4L276.2,149.4L276.2,149.4z"/>
<path class="st6" d="M277.9,146.7c-0.1-1.5,1-2.7,2.5-2.9c0.7,0,1.4,0.3,1.8,0.9h0.1l-0.1-0.8v-2.5h1v7.8h-1v-0.8h-0.1
	c-0.4,0.6-1.1,0.9-1.8,0.9C279,149.5,277.8,148.2,277.9,146.7z M282.3,146.7c0.1-0.9-0.6-1.8-1.5-1.9c-0.9-0.1-1.8,0.6-1.9,1.5
	c0,0.1,0,0.3,0,0.4c-0.1,0.9,0.6,1.8,1.5,1.9c1,0.1,1.8-0.6,1.9-1.5C282.4,147,282.4,146.9,282.3,146.7z"/>
<path class="st6" d="M286,149.4v-7.8h2.7c1.3-0.1,2.4,1,2.5,2.3l0,0c0,1.3-1.1,2.4-2.5,2.3l0,0h-1.6v3.1L286,149.4L286,149.4z
	 M288.8,145.3c0.8,0,1.4-0.6,1.4-1.4c0-0.8-0.6-1.4-1.4-1.4H287v2.7L288.8,145.3L288.8,145.3z"/>
<path class="st6" d="M291.9,149.4v-7.8h1v7.8H291.9z"/>
<path class="st6" d="M293.8,147.8c0-1.2,1.1-1.9,2.4-1.9c0.5,0,1,0.1,1.5,0.4v-0.1c-0.1-0.8-0.7-1.4-1.5-1.3c-0.5,0-1,0.3-1.2,0.8
	l-0.9-0.4c0.6-1.2,2.1-1.7,3.3-1.1c0.8,0.4,1.3,1.2,1.3,2v3.2h-1v-0.8h-0.1c-0.4,0.6-1,0.9-1.8,0.9
	C294.9,149.5,293.9,148.8,293.8,147.8C293.8,147.9,293.8,147.9,293.8,147.8z M297.6,147.1c-0.4-0.3-0.8-0.4-1.3-0.4
	c-1.1,0-1.5,0.6-1.5,1.1c0.1,0.6,0.6,0.9,1.1,0.8C296.8,148.7,297.5,148,297.6,147.1L297.6,147.1z"/>
<path class="st6" d="M300,147.8V145h-0.9v-0.9h0.9v-1.6h1v1.6h1.3v0.9H301v2.7c0,0.6,0.3,0.9,0.7,0.9c0.1,0,0.3,0,0.5-0.1l0.4,0.8
	c-0.3,0.1-0.6,0.1-0.8,0.1c-0.8,0.1-1.6-0.5-1.8-1.3C300,148,300,147.9,300,147.8z"/>
<path class="st6" d="M306.5,141.6l-0.4,0.8c-0.1-0.1-0.3-0.1-0.5-0.1c-0.5-0.1-0.8,0.3-0.9,0.8c0,0.1,0,0.1,0,0.1v0.7h1.3v0.9h-1.4
	v4.5h-1v-4.5h-1V144h1v-0.7c0-1,0.7-1.8,1.7-1.8c0.1,0,0.1,0,0.2,0C306,141.5,306.3,141.6,306.5,141.6z"/>
<path class="st6" d="M312.1,146.7c0,1.5-1.3,2.7-2.7,2.7c-1.5,0-2.7-1.3-2.7-2.7s1.3-2.7,2.7-2.7C310.8,144,312.1,145.2,312.1,146.7
	z M311,146.7c0.1-1-0.6-1.8-1.6-1.9c-1-0.1-1.8,0.6-1.9,1.6c0,0.1,0,0.2,0,0.3c-0.1,1,0.6,1.8,1.6,1.9c1,0.1,1.8-0.6,1.9-1.6
	C311,146.9,311,146.8,311,146.7z"/>
<path class="st6" d="M312.8,149.4V144h1v0.9h0.1c0.3-0.6,0.9-1,1.5-1c0.3,0,0.5,0,0.8,0.1l-0.4,0.9c-0.2-0.1-0.4-0.1-0.6-0.1
	c-0.8,0-1.4,0.7-1.4,1.5c0,0,0,0,0,0.1v2.9L312.8,149.4L312.8,149.4z"/>
<path class="st6" d="M316.7,144h1v0.8h0.1c0.4-0.6,1-0.9,1.6-0.9c0.7-0.1,1.4,0.4,1.7,1.1c0.4-0.6,1.1-1.1,1.9-1.1
	c1.3,0,1.9,0.9,1.9,2.2v3.3h-1v-3.1c0-1.1-0.4-1.5-1.2-1.5c-0.8,0-1.4,0.8-1.4,1.6v2.9h-1v-3.2c0-1.1-0.4-1.5-1.2-1.5
	c-0.8,0-1.4,0.8-1.4,1.6v2.9h-1V144L316.7,144z"/>
<path class="st7" d="M208.8,149.4l-1.6,2.7h-4.1c-0.3,0-0.7-0.2-0.9-0.5l-3.4-5.8c-0.2-0.3-0.2-0.7,0-1.1l1.3-2.2l1.5,2.7l2.4,4.1
	H208.8L208.8,149.4z"/>
<path class="st8" d="M214,145.8l-3.4,5.8c-0.2,0.4-0.5,0.5-0.9,0.5h-2.5l1.6-2.7l2.4-4.1l-2.4-4.1h3.1l2.1,3.6
	C214.2,145.1,214.2,145.5,214,145.8z"/>
<path class="st9" d="M212,141.2h-7.8l-2.4,4.1l-1.5-2.7l2.1-3.6c0.2-0.4,0.5-0.5,0.9-0.5h6.7c0.3,0,0.7,0.2,0.9,0.5L212,141.2z"/>
<path class="st10" d="M208.8,141.2l2.4,4.1l-2.4,4.1h-4.8l-2.4-4.1l2.4-4.1H208.8"/>
<circle class="st5" cx="206.4" cy="145.3" r="2"/>
<path class="st11" d="M202.2,139c0.2-0.4,0.5-0.5,0.9-0.5h6.6c0.4,0,0.7,0.2,0.9,0.5l1.3,2.2l0,0l-1.3-2.2c-0.2-0.3-0.5-0.5-0.9-0.5
	h-6.6C202.8,138.5,202.5,138.7,202.2,139l-2.1,3.5v0.1L202.2,139z"/>
<polyline class="st12" points="201.8,145.3 204.1,141.2 212,141.2 211.9,141.1 204.1,141.1 201.8,145.2 "/>
<path class="st11" d="M198.9,144.8l1.3-2.2l1.5,2.7l2.4,4.1h4.7l0.1-0.1h-4.8l-2.4-4.1l-1.5-2.7L198.9,144.8
	c-0.1,0.1-0.1,0.3-0.1,0.5C198.7,145.1,198.8,145,198.9,144.8z"/>
<g class="st13">
	<path class="st14" d="M207.3,152.1h-4.2c-0.3,0-0.7-0.2-0.9-0.5l-3.4-5.8c-0.1-0.1-0.1-0.3-0.1-0.5c0,0.2,0.1,0.4,0.1,0.6l3.4,5.8
		c0.2,0.3,0.5,0.5,0.9,0.5L207.3,152.1L207.3,152.1z"/>
</g>
<g class="st13">
	<polygon class="st15" points="211.3,145.3 208.9,141.2 208.8,141.2 211.2,145.3 	"/>
	<path class="st15" d="M214,145.8l-3.4,5.8c-0.2,0.4-0.5,0.5-0.9,0.5h-2.5l-0.1,0.1h2.5c0.4,0,0.7-0.2,0.9-0.5L214,145.8
		c0-0.1,0.1-0.3,0.1-0.5C214.1,145.4,214.1,145.6,214,145.8z"/>
</g>
<g class="st13">
	<path class="st5" d="M212,141.3l2.1,3.6c0.1,0.1,0.1,0.3,0.1,0.5c0-0.2-0.1-0.3-0.1-0.6l-2.1-3.6h-3.1l0.1,0.1"/>
	<polygon class="st5" points="208.8,149.5 211.3,145.3 211.2,145.3 208.8,149.4 207.3,152.1 207.3,152.1 	"/>
</g>
<radialGradient id="SVGID_2_" cx="-688.8961" cy="1421.0233" r="5.9307" gradientTransform="matrix(2.67 0 0 2.67 2040.1101 -3655.2402)" gradientUnits="userSpaceOnUse">
	<stop  offset="0" style="stop-color:#FFFFFF;stop-opacity:0.1"/>
	<stop  offset="1" style="stop-color:#FFFFFF;stop-opacity:0"/>
</radialGradient>
<path class="st17" d="M214,144.8l-2.1-3.6l-1.3-2.2c-0.2-0.3-0.5-0.5-0.9-0.5h-6.7c-0.3,0-0.7,0.2-0.9,0.5l-3.4,5.8
	c-0.2,0.3-0.2,0.7,0,1l3.4,5.8c0.2,0.3,0.5,0.5,0.9,0.5h6.7c0.3,0,0.7-0.2,0.9-0.5l3.4-5.8C214.2,145.5,214.2,145.1,214,144.8z"/>
<g>
	<path class="st3" d="M471.1,180.7l-10.4-18.1c-0.8-1.4-2.3-2.3-3.9-2.3h-20.9c-1.6,0-3.1,0.9-3.9,2.3l-10.4,18.1
		c-0.8,1.4-0.8,3.1,0,4.6l10.4,18.2c0.8,1.4,2.2,2.4,3.9,2.4h20.9c1.6-0.1,3.2-1,3.9-2.4l10.4-18.1
		C471.8,183.9,471.8,182.2,471.1,180.7z"/>
	<path class="st4" d="M453.9,173.5l-12.7,1.6l-2.4,6.4l2,2l-2,3.6l2,2l-2,3.6l13.3,13.3h4.7c1.6-0.1,3.1-1,3.9-2.4l8.4-14.6
		L453.9,173.5z"/>
	<polygon class="st5" points="450.3,184.6 450.3,189 438.8,189 438.8,192.6 453.9,192.6 453.9,184.6 	"/>
	<polygon class="st5" points="442.4,181.5 442.4,177.1 453.9,177.1 453.9,173.5 438.8,173.5 438.8,181.5 	"/>
	<polygon class="st5" points="444.3,179.1 444.3,183.4 438.8,183.4 438.8,187 448.3,187 448.3,182.6 453.9,182.6 453.9,179.1 	"/>
</g>
<g>
	<g>
		<path d="M424.3,227.4h2.3c0.7,0,1.1,0.2,1.3,0.6c0.2,0.2,0.3,0.4,0.3,0.8s-0.1,0.6-0.3,0.8c-0.2,0.2-0.3,0.2-0.4,0.3
			c0.3,0.2,0.4,0.2,0.6,0.3c0.3,0.3,0.4,0.6,0.4,1c0,0.3-0.2,0.7-0.3,0.9c-0.3,0.4-0.8,0.7-1.5,0.7h-2.4V227.4L424.3,227.4z
			 M426.4,229.6c0.3,0,0.5-0.1,0.7-0.2c0.3-0.2,0.4-0.4,0.4-0.7c0-0.3-0.2-0.6-0.4-0.7c-0.2-0.1-0.4-0.2-0.7-0.2h-1.3v1.6
			L426.4,229.6L426.4,229.6L426.4,229.6z M426.7,232.1c0.4,0,0.8-0.2,1-0.4c0.2-0.2,0.2-0.4,0.2-0.6c0-0.4-0.2-0.7-0.5-0.8
			c-0.2-0.1-0.4-0.2-0.7-0.2h-1.5v1.8L426.7,232.1L426.7,232.1z"/>
		<path d="M429.3,227.4h0.7v5.3h-0.7V227.4z"/>
		<path d="M433.7,229.2c0.3,0.3,0.5,0.8,0.5,1.5c0,0.7-0.2,1.2-0.4,1.5c-0.3,0.3-0.8,0.6-1.4,0.6c-0.5,0-1-0.2-1.3-0.5
			c-0.3-0.4-0.4-0.8-0.4-1.4c0-0.7,0.2-1.2,0.5-1.5c0.3-0.3,0.8-0.6,1.3-0.6C433,228.7,433.3,228.9,433.7,229.2z M433.3,231.8
			c0.2-0.3,0.3-0.7,0.3-1.1s-0.1-0.7-0.2-0.9c-0.2-0.4-0.5-0.5-0.9-0.5c-0.4,0-0.7,0.2-0.8,0.4c-0.2,0.3-0.3,0.7-0.3,1.1
			s0.1,0.8,0.3,1c0.2,0.3,0.4,0.4,0.8,0.4C432.9,232.2,433.1,232.2,433.3,231.8z"/>
		<path d="M437.5,229c0.3,0.2,0.4,0.6,0.5,1.1h-0.7c-0.1-0.3-0.2-0.4-0.3-0.6c-0.2-0.2-0.4-0.3-0.7-0.3c-0.4,0-0.7,0.2-0.9,0.6
			c-0.2,0.3-0.2,0.6-0.2,1s0.1,0.7,0.3,1c0.2,0.3,0.4,0.4,0.8,0.4c0.3,0,0.4-0.1,0.7-0.3c0.2-0.2,0.3-0.4,0.3-0.7h0.7
			c-0.1,0.5-0.3,0.9-0.5,1.1c-0.3,0.3-0.7,0.4-1.1,0.4c-0.5,0-0.9-0.2-1.3-0.6s-0.4-0.8-0.4-1.3c0-0.7,0.2-1.3,0.5-1.6
			c0.3-0.4,0.8-0.6,1.3-0.6C436.9,228.7,437.2,228.8,437.5,229z"/>
		<path d="M438.7,227.4h0.7v3.1l1.7-1.6h0.8l-1.5,1.4l1.5,2.4H441l-1.3-1.9l-0.5,0.5v1.4h-0.7L438.7,227.4L438.7,227.4z"/>
		<path d="M445,231c0,0.3,0.1,0.5,0.2,0.7c0.3,0.3,0.7,0.5,1.3,0.5c0.3,0,0.5-0.1,0.7-0.2c0.4-0.2,0.7-0.4,0.7-0.8
			c0-0.3-0.1-0.5-0.3-0.7c-0.2-0.2-0.4-0.2-0.8-0.3l-0.7-0.2c-0.4-0.2-0.8-0.2-1-0.3c-0.3-0.2-0.5-0.6-0.5-1s0.2-0.8,0.4-1.2
			c0.3-0.3,0.8-0.4,1.3-0.4c0.5,0,1,0.2,1.3,0.4c0.4,0.3,0.6,0.7,0.6,1.3h-0.7c-0.1-0.3-0.2-0.5-0.2-0.7c-0.2-0.3-0.6-0.4-1.1-0.4
			c-0.4,0-0.7,0.1-0.9,0.3c-0.2,0.2-0.3,0.4-0.3,0.7s0.2,0.4,0.3,0.6c0.2,0.1,0.4,0.2,0.9,0.3l0.7,0.2c0.3,0.1,0.7,0.2,0.8,0.3
			c0.3,0.3,0.5,0.6,0.5,1.1c0,0.6-0.2,1-0.7,1.3c-0.4,0.3-0.9,0.4-1.4,0.4c-0.7,0-1.2-0.2-1.5-0.5c-0.4-0.3-0.5-0.8-0.5-1.3L445,231
			L445,231z"/>
		<path d="M449.5,227.7h0.7v1.1h0.7v0.5h-0.7v2.5c0,0.2,0.1,0.2,0.2,0.3c0.1,0,0.2,0.1,0.3,0.1c0,0,0.1,0,0.2,0c0.1,0,0.1,0,0.2,0
			v0.5c-0.1,0-0.2,0.1-0.3,0.1c-0.1,0-0.2,0-0.3,0c-0.3,0-0.5-0.1-0.7-0.3c-0.2-0.2-0.2-0.4-0.2-0.6v-2.6h-0.5v-0.5h0.5L449.5,227.7
			L449.5,227.7z"/>
		<path d="M454.2,229.2c0.3,0.3,0.5,0.8,0.5,1.5c0,0.7-0.2,1.2-0.4,1.5c-0.3,0.3-0.8,0.6-1.4,0.6c-0.5,0-1-0.2-1.3-0.5
			c-0.3-0.4-0.4-0.8-0.4-1.4c0-0.7,0.2-1.2,0.5-1.5c0.3-0.3,0.8-0.6,1.3-0.6C453.5,228.7,453.9,228.9,454.2,229.2z M453.8,231.8
			c0.2-0.3,0.3-0.7,0.3-1.1s-0.1-0.7-0.2-0.9c-0.2-0.4-0.5-0.5-0.9-0.5c-0.4,0-0.7,0.2-0.8,0.4c-0.2,0.3-0.3,0.7-0.3,1.1
			s0.1,0.8,0.3,1s0.4,0.4,0.8,0.4C453.4,232.2,453.6,232.2,453.8,231.8z"/>
		<path d="M455.6,228.8h0.7v0.7c0.1-0.2,0.2-0.3,0.4-0.4c0.2-0.2,0.4-0.3,0.7-0.3c0,0,0,0,0.1,0c0.1,0,0.1,0,0.2,0v0.7
			c-0.1,0-0.1,0-0.2,0c-0.1,0-0.1,0-0.2,0c-0.3,0-0.6,0.2-0.8,0.3c-0.2,0.2-0.3,0.4-0.3,0.7v2.2h-0.7V228.8L455.6,228.8z"/>
		<path d="M460.1,230.3c0.2,0,0.3-0.1,0.3-0.2c0-0.1,0.1-0.2,0.1-0.3c0-0.2-0.1-0.4-0.3-0.4c-0.2-0.2-0.4-0.2-0.7-0.2
			c-0.3,0-0.6,0.1-0.7,0.3s-0.2,0.3-0.2,0.4h-0.6c0-0.4,0.2-0.8,0.4-1c0.3-0.2,0.7-0.3,1-0.3c0.4,0,0.8,0.1,1.1,0.3
			c0.3,0.2,0.4,0.4,0.4,0.8v2.2c0,0.1,0,0.2,0.1,0.2c0,0.1,0.1,0.1,0.2,0.1c0,0,0.1,0,0.2,0c0.1,0,0.1,0,0.2,0v0.4
			c-0.2,0-0.2,0.1-0.3,0.1c-0.1,0-0.2,0-0.2,0c-0.2,0-0.4-0.1-0.5-0.3c-0.1-0.1-0.1-0.2-0.2-0.4c-0.2,0.2-0.3,0.3-0.6,0.4
			c-0.3,0.2-0.5,0.2-0.8,0.2c-0.4,0-0.7-0.2-0.9-0.3c-0.3-0.2-0.3-0.5-0.3-0.8c0-0.4,0.2-0.7,0.3-0.8c0.2-0.2,0.5-0.3,0.9-0.4
			L460.1,230.3z M458.7,232.2c0.2,0.2,0.3,0.2,0.5,0.2c0.3,0,0.4-0.1,0.7-0.2c0.4-0.2,0.5-0.4,0.5-0.8v-0.5
			c-0.1,0.1-0.2,0.1-0.3,0.2c-0.2,0.1-0.3,0.1-0.4,0.1l-0.4,0.1c-0.3,0-0.4,0.1-0.5,0.2c-0.2,0.2-0.3,0.3-0.3,0.5
			C458.5,231.9,458.6,232,458.7,232.2z"/>
		<path d="M464.3,229c0.2,0.1,0.3,0.2,0.4,0.4v-0.5h0.6v3.5c0,0.5-0.1,0.9-0.2,1.2c-0.3,0.5-0.8,0.8-1.5,0.8c-0.4,0-0.8-0.1-1-0.3
			c-0.3-0.2-0.4-0.4-0.4-0.9h0.7c0,0.2,0.1,0.3,0.2,0.4c0.2,0.2,0.4,0.2,0.7,0.2c0.5,0,0.8-0.2,1-0.5c0.1-0.2,0.2-0.6,0.2-1.1
			c-0.2,0.2-0.3,0.3-0.4,0.4c-0.2,0.1-0.4,0.2-0.7,0.2c-0.4,0-0.8-0.2-1.1-0.4c-0.3-0.3-0.4-0.8-0.4-1.5c0-0.7,0.2-1.2,0.4-1.5
			c0.3-0.4,0.7-0.5,1.2-0.5C463.7,228.8,464,228.8,464.3,229z M464.3,229.6c-0.2-0.3-0.4-0.3-0.8-0.3c-0.4,0-0.8,0.2-0.9,0.7
			c-0.1,0.3-0.2,0.5-0.2,0.9s0.1,0.8,0.3,1s0.4,0.3,0.7,0.3c0.4,0,0.8-0.2,1-0.7c0.2-0.3,0.2-0.5,0.2-0.8
			C464.6,230.2,464.5,229.9,464.3,229.6z"/>
		<path d="M468.6,228.9c0.3,0.2,0.4,0.3,0.6,0.5c0.2,0.2,0.2,0.4,0.3,0.7c0.1,0.2,0.1,0.4,0.1,0.8h-2.9c0,0.4,0.2,0.7,0.3,1
			c0.2,0.3,0.4,0.4,0.8,0.4c0.3,0,0.6-0.2,0.8-0.3c0.2-0.2,0.2-0.3,0.3-0.4h0.7c0,0.2-0.1,0.3-0.2,0.4c-0.1,0.2-0.2,0.3-0.3,0.4
			c-0.2,0.2-0.4,0.3-0.7,0.4c-0.2,0.1-0.3,0.1-0.5,0.1c-0.4,0-0.9-0.2-1.3-0.5s-0.5-0.8-0.5-1.5s0.2-1.1,0.5-1.5s0.8-0.6,1.3-0.6
			C468.1,228.7,468.3,228.8,468.6,228.9z M468.8,230.5c0-0.3-0.1-0.5-0.2-0.7c-0.2-0.3-0.4-0.4-0.9-0.4c-0.3,0-0.5,0.2-0.8,0.3
			c-0.2,0.2-0.3,0.5-0.3,0.8L468.8,230.5L468.8,230.5z"/>
	</g>
	<g>
		<path d="M416.6,220.2h-0.9v-7.1h2.4c0.6,0,1.1,0.2,1.6,0.6c0.4,0.4,0.7,0.9,0.7,1.5s-0.3,1.1-0.7,1.5c-0.4,0.4-1,0.6-1.6,0.6h-1.5
			V220.2z M416.6,216.4h1.5c0.4,0,0.7-0.2,0.9-0.4s0.3-0.5,0.3-0.8s-0.1-0.6-0.3-0.8c-0.3-0.3-0.5-0.4-0.9-0.4h-1.5V216.4z"/>
		<path d="M423,220.4c-0.8,0-1.3-0.3-1.8-0.8c-0.5-0.5-0.7-1.1-0.7-1.8c0-0.7,0.3-1.3,0.7-1.8c0.4-0.5,1-0.8,1.8-0.8
			c0.8,0,1.3,0.3,1.8,0.7c0.4,0.5,0.7,1.1,0.7,1.9v0.2h-3.9c0,0.5,0.2,0.9,0.5,1.2s0.7,0.4,1.1,0.4c0.7,0,1.1-0.3,1.3-0.8l0.8,0.3
			c-0.2,0.4-0.4,0.7-0.8,0.9C424,220.2,423.5,220.4,423,220.4z M424.3,217.2c0-0.3-0.2-0.5-0.4-0.8c-0.3-0.3-0.6-0.4-1.1-0.4
			c-0.3,0-0.7,0.1-0.9,0.3c-0.3,0.3-0.4,0.5-0.5,0.8L424.3,217.2L424.3,217.2z"/>
		<path d="M427,220.2h-0.9v-4.9h0.8v0.8l0,0c0.1-0.3,0.3-0.5,0.6-0.7c0.3-0.2,0.6-0.3,0.8-0.3s0.5,0,0.7,0.1l-0.3,0.8
			c-0.1-0.1-0.3-0.1-0.5-0.1c-0.3,0-0.6,0.2-0.9,0.4c-0.3,0.3-0.4,0.6-0.4,1v2.7L427,220.2L427,220.2z"/>
		<path d="M431.4,220.4c-0.5,0-1-0.2-1.3-0.4s-0.6-0.6-0.8-1l0.8-0.3c0.3,0.6,0.7,0.9,1.3,0.9c0.3,0,0.5-0.1,0.7-0.2
			c0.2-0.2,0.3-0.3,0.3-0.5c0-0.3-0.3-0.5-0.7-0.7l-1-0.3c-0.3-0.1-0.6-0.3-0.9-0.4c-0.3-0.3-0.4-0.5-0.4-0.9s0.2-0.8,0.6-1.1
			c0.4-0.3,0.8-0.4,1.3-0.4c0.4,0,0.8,0.1,1.2,0.3c0.3,0.2,0.6,0.5,0.8,0.8l-0.8,0.3c-0.2-0.4-0.6-0.7-1.1-0.7
			c-0.3,0-0.5,0.1-0.7,0.2c-0.2,0.1-0.3,0.3-0.3,0.4c0,0.3,0.3,0.5,0.7,0.6l1,0.3c0.4,0.1,0.8,0.3,1,0.6c0.3,0.3,0.3,0.6,0.3,0.8
			c0,0.4-0.2,0.8-0.5,1.1C432.4,220.2,431.9,220.4,431.4,220.4z"/>
		<path d="M435.1,214.1c-0.2,0.2-0.3,0.2-0.4,0.2c-0.2,0-0.3-0.1-0.4-0.2c-0.2-0.2-0.2-0.3-0.2-0.4s0.1-0.3,0.2-0.4
			c0.2-0.2,0.3-0.2,0.4-0.2c0.2,0,0.3,0.1,0.4,0.2c0.2,0.2,0.2,0.3,0.2,0.4S435.1,213.9,435.1,214.1z M435.1,220.2h-0.9v-4.9h0.9
			V220.2z"/>
		<path d="M438,220.4c-0.5,0-1-0.2-1.3-0.4s-0.6-0.6-0.8-1l0.8-0.3c0.3,0.6,0.7,0.9,1.3,0.9c0.3,0,0.5-0.1,0.7-0.2
			c0.2-0.2,0.3-0.3,0.3-0.5c0-0.3-0.3-0.5-0.7-0.7l-1-0.3c-0.3-0.1-0.6-0.3-0.9-0.4c-0.3-0.3-0.4-0.5-0.4-0.9s0.2-0.8,0.6-1.1
			c0.4-0.3,0.8-0.4,1.3-0.4c0.4,0,0.8,0.1,1.2,0.3c0.3,0.2,0.6,0.5,0.8,0.8l-0.8,0.3c-0.2-0.4-0.6-0.7-1.1-0.7
			c-0.3,0-0.5,0.1-0.7,0.2c-0.2,0.1-0.3,0.3-0.3,0.4c0,0.3,0.3,0.5,0.7,0.6l1,0.3c0.4,0.1,0.8,0.3,1,0.6c0.3,0.3,0.3,0.6,0.3,0.8
			c0,0.4-0.2,0.8-0.5,1.1C439.1,220.2,438.6,220.4,438,220.4z"/>
		<path d="M442.8,220.3c-0.5,0-0.9-0.2-1.2-0.4c-0.3-0.3-0.4-0.7-0.4-1.2v-2.6h-0.8v-0.8h0.8v-1.5h0.9v1.5h1.2v0.8h-1.2v2.5
			c0,0.5,0.3,0.8,0.7,0.8c0.2,0,0.3,0,0.4-0.1l0.3,0.8C443.4,220.2,443.1,220.3,442.8,220.3z"/>
		<path d="M446.4,220.4c-0.8,0-1.3-0.3-1.8-0.8c-0.5-0.5-0.7-1.1-0.7-1.8c0-0.7,0.3-1.3,0.7-1.8c0.4-0.5,1-0.8,1.8-0.8
			c0.8,0,1.3,0.3,1.8,0.7c0.4,0.5,0.7,1.1,0.7,1.9v0.2H445c0,0.5,0.2,0.9,0.5,1.2s0.7,0.4,1.1,0.4c0.7,0,1.1-0.3,1.3-0.8l0.8,0.3
			c-0.2,0.4-0.4,0.7-0.8,0.9C447.4,220.2,447,220.4,446.4,220.4z M447.7,217.2c0-0.3-0.2-0.5-0.4-0.8c-0.3-0.3-0.6-0.4-1.1-0.4
			c-0.3,0-0.7,0.1-0.9,0.3c-0.3,0.3-0.4,0.5-0.5,0.8L447.7,217.2L447.7,217.2z"/>
		<path d="M450.4,215.4v0.7l0,0c0.2-0.3,0.3-0.4,0.6-0.6c0.3-0.2,0.6-0.3,0.9-0.3c0.6,0,1.1,0.2,1.4,0.6c0.3,0.3,0.5,0.8,0.5,1.5v3
			h-0.9v-2.9c0-0.9-0.4-1.3-1.2-1.3c-0.4,0-0.7,0.2-0.9,0.4c-0.3,0.3-0.3,0.7-0.3,1.1v2.7h-1v-4.9L450.4,215.4L450.4,215.4z"/>
		<path d="M456.8,220.3c-0.5,0-0.9-0.2-1.2-0.4c-0.3-0.3-0.4-0.7-0.4-1.2v-2.6h-0.8v-0.8h0.8v-1.5h0.9v1.5h1.2v0.8h-1.2v2.5
			c0,0.5,0.3,0.8,0.7,0.8c0.2,0,0.3,0,0.4-0.1l0.3,0.8C457.4,220.2,457.1,220.3,456.8,220.3z"/>
		<path d="M460.6,220.2v-7.1h2.2c1.1,0,2,0.3,2.6,1c0.7,0.7,1,1.5,1,2.6c0,1.1-0.3,1.9-1,2.6c-0.7,0.7-1.5,1-2.6,1L460.6,220.2
			L460.6,220.2z M461.5,219.3h1.3c0.8,0,1.5-0.3,1.9-0.7c0.5-0.5,0.8-1.2,0.8-2s-0.3-1.5-0.8-2c-0.5-0.5-1.2-0.7-1.9-0.7h-1.3V219.3
			z"/>
		<path d="M468.3,214.1c-0.2,0.2-0.3,0.2-0.4,0.2c-0.2,0-0.3-0.1-0.4-0.2c-0.2-0.2-0.2-0.3-0.2-0.4s0.1-0.3,0.2-0.4
			c0.2-0.2,0.3-0.2,0.4-0.2c0.2,0,0.3,0.1,0.4,0.2c0.2,0.2,0.2,0.3,0.2,0.4S468.5,213.9,468.3,214.1z M468.3,220.2h-0.9v-4.9h0.9
			V220.2z"/>
		<path d="M471.3,220.4c-0.5,0-1-0.2-1.3-0.4c-0.3-0.3-0.6-0.6-0.8-1l0.8-0.3c0.3,0.6,0.7,0.9,1.3,0.9c0.3,0,0.5-0.1,0.7-0.2
			c0.2-0.2,0.3-0.3,0.3-0.5c0-0.3-0.3-0.5-0.7-0.7l-1-0.3c-0.3-0.1-0.6-0.3-0.9-0.4c-0.3-0.3-0.4-0.5-0.4-0.9s0.2-0.8,0.6-1.1
			c0.4-0.3,0.8-0.4,1.3-0.4c0.4,0,0.8,0.1,1.2,0.3c0.3,0.2,0.6,0.5,0.8,0.8l-0.8,0.3c-0.2-0.4-0.6-0.7-1.1-0.7
			c-0.3,0-0.5,0.1-0.7,0.2c-0.2,0.1-0.3,0.3-0.3,0.4c0,0.3,0.3,0.5,0.7,0.6l1,0.3c0.4,0.1,0.8,0.3,1,0.6c0.3,0.3,0.3,0.6,0.3,0.8
			c0,0.4-0.2,0.8-0.5,1.1C472.4,220.2,471.9,220.4,471.3,220.4z"/>
		<path d="M475,213.1v4.4l2.1-2.2h1.2l0,0l-1.8,2l2,2.9l0,0h-1.1l-1.5-2.3l-0.8,0.8v1.6h-0.9v-7.2H475z"/>
	</g>
</g>
<path class="st6" d="M398.3,145.1c0.1-2.5,2.1-4.5,4.5-4.5c1.1,0,2.2,0.4,3.1,1.3l-0.9,0.8c-0.6-0.6-1.4-0.9-2.2-0.9
	c-1.8,0-3.2,1.5-3.2,3.2v0.1c-0.1,1.8,1.4,3.2,3.1,3.3h0.1c0.8,0.1,1.7-0.3,2.2-0.9c0.4-0.4,0.6-1,0.7-1.5h-2.9v-1.3h4.1
	c0.1,0.3,0.1,0.5,0.1,0.8c0,1.1-0.4,2.1-1.1,2.9c-0.8,0.8-2,1.3-3.1,1.3C400.4,149.6,398.3,147.6,398.3,145.1z"/>
<path class="st6" d="M410.5,143.8c-1.6,0-2.9,1.3-2.9,2.9c0,1.6,1.3,2.9,2.9,2.9c1.6,0,2.9-1.3,2.9-2.9
	C413.3,145.1,412.1,143.8,410.5,143.8L410.5,143.8z M410.5,148.4c-0.9,0-1.7-0.8-1.7-1.7v-0.1c0-0.9,0.8-1.6,1.6-1.6
	c0.9,0,1.6,0.8,1.6,1.6C412.1,147.6,411.4,148.4,410.5,148.4L410.5,148.4L410.5,148.4z"/>
<path class="st6" d="M416.8,143.8c-1.6,0-2.9,1.3-2.9,2.9s1.3,2.9,2.9,2.9c1.6,0,2.9-1.3,2.9-2.9c0-1.5-1.3-2.9-2.8-2.9
	C416.8,143.8,416.8,143.8,416.8,143.8z M416.8,148.4c-0.9,0-1.7-0.8-1.7-1.7v-0.1c0-0.9,0.8-1.6,1.6-1.6c0.9,0,1.6,0.8,1.6,1.6
	C418.4,147.6,417.7,148.4,416.8,148.4C416.8,148.4,416.8,148.4,416.8,148.4L416.8,148.4z"/>
<path class="st6" d="M424.5,144v0.5h-0.1c-0.4-0.4-1-0.6-1.5-0.6c-1.6,0.1-2.8,1.4-2.8,3c0.1,1.5,1.3,2.7,2.8,2.8
	c0.6,0,1.1-0.2,1.5-0.6h0.1v0.4c0,1.1-0.6,1.7-1.5,1.7c-0.6,0-1.2-0.4-1.5-1.1l-1.1,0.5c0.4,1.1,1.5,1.8,2.6,1.7
	c1.5,0,2.7-0.9,2.7-3v-5.2L424.5,144L424.5,144z M423.1,148.4c-0.9,0-1.6-0.8-1.6-1.7v-0.1c-0.1-0.9,0.6-1.7,1.5-1.8c0,0,0,0,0.1,0
	c0.9,0.1,1.6,0.8,1.5,1.8l0,0C424.7,147.6,424,148.4,423.1,148.4L423.1,148.4z"/>
<rect x="426.6" y="140.9" class="st6" width="1.3" height="8.5"/>
<path class="st6" d="M431.4,148.4c-0.6,0-1.2-0.4-1.4-0.9l3.9-1.6l-0.1-0.4c-0.3-1.1-1.3-1.8-2.4-1.8c-1.5,0-2.7,1.2-2.7,2.7
	c0,0.1,0,0.1,0,0.1c-0.1,1.5,1.2,2.9,2.7,2.9c0.1,0,0.1,0,0.1,0c1,0,1.9-0.5,2.4-1.3l-1-0.6C432.5,148.1,431.9,148.4,431.4,148.4z
	 M431.2,144.9c0.5-0.1,0.9,0.2,1.1,0.6l-2.6,1.1C429.7,145.8,430.3,145,431.2,144.9L431.2,144.9z"/>
<path class="st6" d="M436.4,145.5c-0.1-2.2,1.7-4.1,3.9-4.1c0.1,0,0.1,0,0.1,0c1.1,0,2.2,0.4,2.9,1.3l-0.7,0.7c-0.6-0.6-1.3-1-2.2-1
	c-1.7-0.1-3,1.3-3.1,2.9c0,0.1,0,0.1,0,0.2c-0.1,1.7,1.2,3,2.9,3.1c0.1,0,0.1,0,0.1,0c0.9,0,1.8-0.4,2.4-1.1l0.7,0.7
	c-1.5,1.7-4.1,1.8-5.8,0.4C436.8,147.8,436.4,146.7,436.4,145.5z"/>
<path class="st6" d="M444.3,149.4v-7.8h1v7.8H444.3z"/>
<path class="st6" d="M451.6,146.7c0,1.5-1.3,2.7-2.7,2.7c-1.5,0-2.7-1.3-2.7-2.7s1.3-2.7,2.7-2.7
	C450.4,143.9,451.6,145.2,451.6,146.7z M450.6,146.7c0.1-1-0.6-1.8-1.6-1.9c-1-0.1-1.8,0.6-1.9,1.6c0,0.1,0,0.2,0,0.3
	c0,1,0.8,1.8,1.8,1.8C449.8,148.5,450.6,147.7,450.6,146.7L450.6,146.7z"/>
<path class="st6" d="M456.2,149.4v-0.8h-0.1c-0.4,0.6-1,0.9-1.7,0.9c-1.4,0-2-0.9-2-2.2V144h1v3.1c0,1.1,0.6,1.5,1.3,1.5
	c0.8-0.1,1.5-0.8,1.4-1.6v-2.9h1v5.4L456.2,149.4L456.2,149.4z"/>
<path class="st6" d="M457.9,146.7c-0.1-1.5,1-2.7,2.5-2.9c0.7,0,1.4,0.3,1.8,0.9h0.1l-0.1-0.8v-2.5h1v7.8h-1v-0.8h-0.1
	c-0.4,0.6-1.1,0.9-1.8,0.9C459,149.5,457.8,148.2,457.9,146.7z M462.3,146.7c0.1-0.9-0.6-1.8-1.5-1.9c-0.9-0.1-1.8,0.6-1.9,1.5
	c0,0.1,0,0.3,0,0.4c-0.1,0.9,0.6,1.8,1.5,1.9c1,0.1,1.8-0.6,1.9-1.5C462.4,147,462.4,146.9,462.3,146.7z"/>
<path class="st6" d="M466,149.4v-7.8h2.7c1.3-0.1,2.4,1,2.5,2.3l0,0c0,1.3-1.1,2.4-2.5,2.3l0,0h-1.6v3.1L466,149.4L466,149.4z
	 M468.8,145.3c0.8,0,1.4-0.6,1.4-1.4c0-0.8-0.6-1.4-1.4-1.4H467v2.7L468.8,145.3L468.8,145.3z"/>
<path class="st6" d="M471.9,149.4v-7.8h1v7.8H471.9z"/>
<path class="st6" d="M473.8,147.8c0-1.2,1.1-1.9,2.4-1.9c0.5,0,1,0.1,1.5,0.4v-0.1c-0.1-0.8-0.7-1.4-1.5-1.3c-0.5,0-1,0.3-1.2,0.8
	l-0.9-0.4c0.6-1.2,2.1-1.7,3.3-1.1c0.8,0.4,1.3,1.2,1.3,2v3.2h-1v-0.8h-0.1c-0.4,0.6-1,0.9-1.8,0.9
	C474.9,149.5,473.9,148.8,473.8,147.8C473.8,147.9,473.8,147.9,473.8,147.8z M477.6,147.1c-0.4-0.3-0.8-0.4-1.3-0.4
	c-1.1,0-1.5,0.6-1.5,1.1c0.1,0.6,0.6,0.9,1.1,0.8C476.8,148.7,477.5,148,477.6,147.1L477.6,147.1z"/>
<path class="st6" d="M480,147.8V145h-0.9v-0.9h0.9v-1.6h1v1.6h1.3v0.9H481v2.7c0,0.6,0.3,0.9,0.7,0.9c0.1,0,0.3,0,0.5-0.1l0.4,0.8
	c-0.3,0.1-0.6,0.1-0.8,0.1c-0.8,0.1-1.6-0.5-1.8-1.3C480,148,480,147.9,480,147.8z"/>
<path class="st6" d="M486.5,141.6l-0.4,0.8c-0.1-0.1-0.3-0.1-0.5-0.1c-0.5-0.1-0.8,0.3-0.9,0.8c0,0.1,0,0.1,0,0.1v0.7h1.3v0.9h-1.4
	v4.5h-1v-4.5h-1V144h1v-0.7c0-1,0.7-1.8,1.7-1.8c0.1,0,0.1,0,0.2,0C486,141.5,486.3,141.6,486.5,141.6z"/>
<path class="st6" d="M492.1,146.7c0,1.5-1.3,2.7-2.7,2.7c-1.5,0-2.7-1.3-2.7-2.7s1.3-2.7,2.7-2.7C490.8,144,492.1,145.2,492.1,146.7
	z M491,146.7c0.1-1-0.6-1.8-1.6-1.9c-1-0.1-1.8,0.6-1.9,1.6c0,0.1,0,0.2,0,0.3c-0.1,1,0.6,1.8,1.6,1.9c1,0.1,1.8-0.6,1.9-1.6
	C491,146.9,491,146.8,491,146.7z"/>
<path class="st6" d="M492.8,149.4V144h1v0.9h0.1c0.3-0.6,0.9-1,1.5-1c0.3,0,0.5,0,0.8,0.1l-0.4,0.9c-0.2-0.1-0.4-0.1-0.6-0.1
	c-0.8,0-1.4,0.7-1.4,1.5c0,0,0,0,0,0.1v2.9L492.8,149.4L492.8,149.4z"/>
<path class="st6" d="M496.7,144h1v0.8h0.1c0.4-0.6,1-0.9,1.6-0.9c0.7-0.1,1.4,0.4,1.7,1.1c0.4-0.6,1.1-1.1,1.9-1.1
	c1.3,0,1.9,0.9,1.9,2.2v3.3h-1v-3.1c0-1.1-0.4-1.5-1.2-1.5c-0.8,0-1.4,0.8-1.4,1.6v2.9h-1v-3.2c0-1.1-0.4-1.5-1.2-1.5
	c-0.8,0-1.4,0.8-1.4,1.6v2.9h-1V144L496.7,144z"/>
<path class="st7" d="M388.8,149.4l-1.6,2.7h-4.1c-0.4,0-0.7-0.2-0.9-0.5l-3.4-5.8c-0.2-0.3-0.2-0.7,0-1.1l1.3-2.2l1.5,2.7l2.4,4.1
	H388.8L388.8,149.4z"/>
<path class="st8" d="M394,145.8l-3.4,5.8c-0.2,0.4-0.5,0.5-0.9,0.5h-2.5l1.6-2.7l2.4-4.1l-2.4-4.1h3.1l2.1,3.6
	C394.2,145.1,394.2,145.5,394,145.8z"/>
<path class="st9" d="M392,141.2h-7.8l-2.4,4.1l-1.5-2.7l2.1-3.6c0.2-0.4,0.5-0.5,0.9-0.5h6.6c0.4,0,0.7,0.2,0.9,0.5L392,141.2z"/>
<path class="st10" d="M388.8,141.2l2.4,4.1l-2.4,4.1h-4.8l-2.4-4.1l2.4-4.1H388.8"/>
<circle class="st5" cx="386.4" cy="145.3" r="2"/>
<path class="st11" d="M382.2,139c0.2-0.4,0.5-0.5,0.9-0.5h6.7c0.3,0,0.7,0.2,0.9,0.5l1.3,2.2l0,0l-1.3-2.2c-0.2-0.3-0.5-0.5-0.9-0.5
	h-6.7C382.8,138.5,382.5,138.7,382.2,139l-2.1,3.5v0.1L382.2,139z"/>
<polyline class="st12" points="381.8,145.3 384.1,141.2 392,141.2 391.9,141.1 384.1,141.1 381.8,145.2 "/>
<path class="st11" d="M378.9,144.8l1.3-2.2l1.5,2.7l2.4,4.1h4.7l0.1-0.1h-4.8l-2.4-4.1l-1.5-2.7L378.9,144.8
	c-0.1,0.1-0.1,0.3-0.1,0.5C378.7,145.1,378.8,145,378.9,144.8z"/>
<g class="st13">
	<path class="st14" d="M387.3,152.1h-4.2c-0.4,0-0.7-0.2-0.9-0.5l-3.4-5.8c-0.1-0.1-0.1-0.3-0.1-0.5c0,0.2,0.1,0.4,0.1,0.6l3.4,5.8
		c0.2,0.3,0.5,0.5,0.9,0.5L387.3,152.1L387.3,152.1z"/>
</g>
<g class="st13">
	<polygon class="st15" points="391.3,145.3 388.9,141.2 388.8,141.2 391.2,145.3 	"/>
	<path class="st15" d="M394,145.8l-3.4,5.8c-0.2,0.4-0.5,0.5-0.9,0.5h-2.5l-0.1,0.1h2.5c0.3,0,0.7-0.2,0.9-0.5L394,145.8
		c0-0.1,0.1-0.3,0.1-0.5C394.1,145.4,394.1,145.6,394,145.8z"/>
</g>
<g class="st13">
	<path class="st5" d="M392,141.3l2.1,3.6c0.1,0.1,0.1,0.3,0.1,0.5c0-0.2-0.1-0.3-0.1-0.6l-2.1-3.6h-3.1l0.1,0.1"/>
	<polygon class="st5" points="388.8,149.5 391.3,145.3 391.2,145.3 388.8,149.4 387.3,152.1 387.3,152.1 	"/>
</g>
<radialGradient id="SVGID_3_" cx="-621.4803" cy="1421.0233" r="5.9307" gradientTransform="matrix(2.67 0 0 2.67 2040.1101 -3655.2402)" gradientUnits="userSpaceOnUse">
	<stop  offset="0" style="stop-color:#FFFFFF;stop-opacity:0.1"/>
	<stop  offset="1" style="stop-color:#FFFFFF;stop-opacity:0"/>
</radialGradient>
<path class="st18" d="M394,144.8l-2.1-3.6l-1.3-2.2c-0.2-0.3-0.5-0.5-0.9-0.5h-6.6c-0.4,0-0.7,0.2-0.9,0.5l-3.4,5.8
	c-0.2,0.3-0.2,0.7,0,1l3.4,5.8c0.2,0.3,0.5,0.5,0.9,0.5h6.6c0.4,0,0.7-0.2,0.9-0.5l3.4-5.8C394.2,145.5,394.2,145.1,394,144.8z"/>
<g>
	<path class="st3" d="M641.1,180.7l-10.4-18.1c-0.8-1.4-2.3-2.3-3.9-2.3h-20.9c-1.6,0-3.1,0.9-3.9,2.3l-10.4,18.1
		c-0.8,1.4-0.8,3.1,0,4.6l10.4,18.2c0.8,1.4,2.2,2.4,3.9,2.4h20.9c1.6-0.1,3.1-1,3.9-2.4l10.4-18.1
		C641.8,183.9,641.8,182.2,641.1,180.7z"/>
	<path class="st4" d="M623.9,173.5l-12.7,1.6l-2.4,6.4l2,2l-2,3.6l2,2l-2,3.6l13.3,13.3h4.7c1.6-0.1,3.1-1,3.9-2.4l8.4-14.6
		L623.9,173.5z"/>
	<polygon class="st5" points="620.3,184.6 620.3,189 608.8,189 608.8,192.6 623.9,192.6 623.9,184.6 	"/>
	<polygon class="st5" points="612.4,181.5 612.4,177.1 623.9,177.1 623.9,173.5 608.8,173.5 608.8,181.5 	"/>
	<polygon class="st5" points="614.3,179.1 614.3,183.4 608.8,183.4 608.8,187 618.3,187 618.3,182.6 623.9,182.6 623.9,179.1 	"/>
</g>
<g>
	<g>
		<path d="M594.3,227.4h2.3c0.7,0,1.1,0.2,1.3,0.6c0.2,0.2,0.3,0.4,0.3,0.8s-0.1,0.6-0.3,0.8c-0.2,0.2-0.3,0.2-0.4,0.3
			c0.3,0.2,0.4,0.2,0.6,0.3c0.3,0.3,0.4,0.6,0.4,1c0,0.3-0.2,0.7-0.3,0.9c-0.3,0.4-0.8,0.7-1.5,0.7h-2.4V227.4L594.3,227.4z
			 M596.4,229.6c0.3,0,0.5-0.1,0.7-0.2c0.3-0.2,0.4-0.4,0.4-0.7c0-0.3-0.2-0.6-0.4-0.7c-0.2-0.1-0.4-0.2-0.7-0.2h-1.3v1.6
			L596.4,229.6L596.4,229.6L596.4,229.6z M596.7,232.1c0.4,0,0.8-0.2,1-0.4c0.2-0.2,0.2-0.4,0.2-0.6c0-0.4-0.2-0.7-0.5-0.8
			c-0.2-0.1-0.4-0.2-0.7-0.2h-1.5v1.8L596.7,232.1L596.7,232.1z"/>
		<path d="M599.3,227.4h0.7v5.3h-0.7V227.4z"/>
		<path d="M603.7,229.2c0.3,0.3,0.5,0.8,0.5,1.5c0,0.7-0.2,1.2-0.4,1.5c-0.3,0.3-0.8,0.6-1.4,0.6c-0.5,0-1-0.2-1.3-0.5
			c-0.3-0.4-0.4-0.8-0.4-1.4c0-0.7,0.2-1.2,0.5-1.5c0.3-0.3,0.8-0.6,1.3-0.6C603,228.7,603.3,228.9,603.7,229.2z M603.3,231.8
			c0.2-0.3,0.3-0.7,0.3-1.1s-0.1-0.7-0.2-0.9c-0.2-0.4-0.5-0.5-0.9-0.5s-0.7,0.2-0.8,0.4c-0.2,0.3-0.3,0.7-0.3,1.1s0.1,0.8,0.3,1
			c0.2,0.3,0.4,0.4,0.8,0.4S603.1,232.2,603.3,231.8z"/>
		<path d="M607.5,229c0.3,0.2,0.4,0.6,0.5,1.1h-0.7c-0.1-0.3-0.2-0.4-0.3-0.6c-0.2-0.2-0.4-0.3-0.7-0.3c-0.4,0-0.7,0.2-0.9,0.6
			c-0.2,0.3-0.2,0.6-0.2,1s0.1,0.7,0.3,1c0.2,0.3,0.4,0.4,0.8,0.4c0.3,0,0.4-0.1,0.7-0.3c0.2-0.2,0.3-0.4,0.3-0.7h0.7
			c-0.1,0.5-0.3,0.9-0.5,1.1c-0.3,0.3-0.7,0.4-1.1,0.4c-0.5,0-0.9-0.2-1.3-0.6c-0.3-0.4-0.4-0.8-0.4-1.3c0-0.7,0.2-1.3,0.5-1.6
			c0.3-0.4,0.8-0.6,1.3-0.6C606.9,228.7,607.2,228.8,607.5,229z"/>
		<path d="M608.7,227.4h0.7v3.1l1.7-1.6h0.8l-1.5,1.4l1.5,2.4H611l-1.3-1.9l-0.5,0.5v1.4h-0.7L608.7,227.4L608.7,227.4z"/>
		<path d="M615,231c0,0.3,0.1,0.5,0.2,0.7c0.3,0.3,0.7,0.5,1.3,0.5c0.3,0,0.5-0.1,0.7-0.2c0.4-0.2,0.7-0.4,0.7-0.8
			c0-0.3-0.1-0.5-0.3-0.7c-0.2-0.2-0.4-0.2-0.8-0.3l-0.7-0.2c-0.4-0.2-0.8-0.2-1-0.3c-0.3-0.2-0.5-0.6-0.5-1s0.2-0.8,0.4-1.2
			c0.3-0.3,0.8-0.4,1.3-0.4c0.5,0,1,0.2,1.3,0.4c0.4,0.3,0.6,0.7,0.6,1.3h-0.7c-0.1-0.3-0.2-0.5-0.2-0.7c-0.2-0.3-0.6-0.4-1.1-0.4
			c-0.4,0-0.7,0.1-0.9,0.3c-0.2,0.2-0.3,0.4-0.3,0.7s0.2,0.4,0.3,0.6c0.2,0.1,0.4,0.2,0.9,0.3l0.7,0.2c0.3,0.1,0.7,0.2,0.8,0.3
			c0.3,0.3,0.5,0.6,0.5,1.1c0,0.6-0.2,1-0.7,1.3c-0.4,0.3-0.9,0.4-1.4,0.4c-0.7,0-1.2-0.2-1.5-0.5c-0.4-0.3-0.5-0.8-0.5-1.3L615,231
			L615,231z"/>
		<path d="M619.5,227.7h0.7v1.1h0.7v0.5h-0.7v2.5c0,0.2,0.1,0.2,0.2,0.3c0.1,0,0.2,0.1,0.3,0.1c0,0,0.1,0,0.2,0c0.1,0,0.1,0,0.2,0
			v0.5c-0.1,0-0.2,0.1-0.3,0.1s-0.2,0-0.3,0c-0.3,0-0.5-0.1-0.7-0.3c-0.2-0.2-0.2-0.4-0.2-0.6v-2.6h-0.5v-0.5h0.5L619.5,227.7
			L619.5,227.7z"/>
		<path d="M624.2,229.2c0.3,0.3,0.5,0.8,0.5,1.5c0,0.7-0.2,1.2-0.4,1.5c-0.3,0.3-0.8,0.6-1.4,0.6c-0.5,0-1-0.2-1.3-0.5
			c-0.3-0.4-0.4-0.8-0.4-1.4c0-0.7,0.2-1.2,0.5-1.5c0.3-0.3,0.8-0.6,1.3-0.6C623.5,228.7,623.9,228.9,624.2,229.2z M623.8,231.8
			c0.2-0.3,0.3-0.7,0.3-1.1s-0.1-0.7-0.2-0.9c-0.2-0.4-0.5-0.5-0.9-0.5c-0.4,0-0.7,0.2-0.8,0.4c-0.2,0.3-0.3,0.7-0.3,1.1
			s0.1,0.8,0.3,1c0.2,0.3,0.4,0.4,0.8,0.4C623.4,232.2,623.6,232.2,623.8,231.8z"/>
		<path d="M625.6,228.8h0.7v0.7c0.1-0.2,0.2-0.3,0.4-0.4c0.2-0.2,0.4-0.3,0.7-0.3c0,0,0,0,0.1,0c0.1,0,0.1,0,0.2,0v0.7
			c-0.1,0-0.1,0-0.2,0c-0.1,0-0.1,0-0.2,0c-0.3,0-0.6,0.2-0.8,0.3c-0.2,0.2-0.3,0.4-0.3,0.7v2.2h-0.7V228.8L625.6,228.8z"/>
		<path d="M630.1,230.3c0.2,0,0.3-0.1,0.3-0.2c0-0.1,0.1-0.2,0.1-0.3c0-0.2-0.1-0.4-0.3-0.4c-0.2-0.2-0.4-0.2-0.7-0.2
			c-0.3,0-0.6,0.1-0.7,0.3c-0.1,0.2-0.2,0.3-0.2,0.4h-0.6c0-0.4,0.2-0.8,0.4-1c0.3-0.2,0.7-0.3,1-0.3c0.4,0,0.8,0.1,1.1,0.3
			c0.3,0.2,0.4,0.4,0.4,0.8v2.2c0,0.1,0,0.2,0.1,0.2c0,0.1,0.1,0.1,0.2,0.1c0,0,0.1,0,0.2,0c0.1,0,0.1,0,0.2,0v0.4
			c-0.2,0-0.2,0.1-0.3,0.1c-0.1,0-0.2,0-0.2,0c-0.2,0-0.4-0.1-0.5-0.3c-0.1-0.1-0.1-0.2-0.2-0.4c-0.2,0.2-0.3,0.3-0.6,0.4
			c-0.3,0.2-0.5,0.2-0.8,0.2c-0.4,0-0.7-0.2-0.9-0.3c-0.3-0.2-0.3-0.5-0.3-0.8c0-0.4,0.2-0.7,0.3-0.8c0.2-0.2,0.5-0.3,0.9-0.4
			L630.1,230.3z M628.7,232.2c0.2,0.2,0.3,0.2,0.5,0.2c0.3,0,0.4-0.1,0.7-0.2c0.4-0.2,0.5-0.4,0.5-0.8v-0.5
			c-0.1,0.1-0.2,0.1-0.3,0.2c-0.2,0.1-0.3,0.1-0.4,0.1l-0.4,0.1c-0.3,0-0.4,0.1-0.5,0.2c-0.2,0.2-0.3,0.3-0.3,0.5
			C628.5,231.9,628.6,232,628.7,232.2z"/>
		<path d="M634.3,229c0.2,0.1,0.3,0.2,0.4,0.4v-0.5h0.6v3.5c0,0.5-0.1,0.9-0.2,1.2c-0.3,0.5-0.8,0.8-1.5,0.8c-0.4,0-0.8-0.1-1-0.3
			c-0.3-0.2-0.4-0.4-0.4-0.9h0.7c0,0.2,0.1,0.3,0.2,0.4c0.2,0.2,0.4,0.2,0.7,0.2c0.5,0,0.8-0.2,1-0.5c0.1-0.2,0.2-0.6,0.2-1.1
			c-0.2,0.2-0.3,0.3-0.4,0.4c-0.2,0.1-0.4,0.2-0.7,0.2c-0.4,0-0.8-0.2-1.1-0.4c-0.3-0.3-0.4-0.8-0.4-1.5c0-0.7,0.2-1.2,0.4-1.5
			c0.3-0.4,0.7-0.5,1.2-0.5C633.7,228.8,634,228.8,634.3,229z M634.3,229.6c-0.2-0.3-0.4-0.3-0.8-0.3c-0.4,0-0.8,0.2-0.9,0.7
			c-0.1,0.3-0.2,0.5-0.2,0.9s0.1,0.8,0.3,1c0.2,0.3,0.4,0.3,0.7,0.3c0.4,0,0.8-0.2,1-0.7c0.2-0.3,0.2-0.5,0.2-0.8
			C634.6,230.2,634.5,229.9,634.3,229.6z"/>
		<path d="M638.6,228.9c0.3,0.2,0.4,0.3,0.6,0.5c0.2,0.2,0.2,0.4,0.3,0.7c0.1,0.2,0.1,0.4,0.1,0.8h-2.9c0,0.4,0.2,0.7,0.3,1
			c0.2,0.3,0.4,0.4,0.8,0.4c0.3,0,0.6-0.2,0.8-0.3c0.2-0.2,0.2-0.3,0.3-0.4h0.7c0,0.2-0.1,0.3-0.2,0.4c-0.1,0.2-0.2,0.3-0.3,0.4
			c-0.2,0.2-0.4,0.3-0.7,0.4c-0.2,0.1-0.3,0.1-0.5,0.1c-0.4,0-0.9-0.2-1.3-0.5c-0.3-0.3-0.5-0.8-0.5-1.5s0.2-1.1,0.5-1.5
			c0.3-0.4,0.8-0.6,1.3-0.6C638.1,228.7,638.3,228.8,638.6,228.9z M638.8,230.5c0-0.3-0.1-0.5-0.2-0.7c-0.2-0.3-0.4-0.4-0.9-0.4
			c-0.3,0-0.5,0.2-0.8,0.3c-0.2,0.2-0.3,0.5-0.3,0.8L638.8,230.5L638.8,230.5z"/>
	</g>
	<g>
		<path d="M586.6,220.2h-0.9v-7.1h2.4c0.6,0,1.1,0.2,1.6,0.6c0.4,0.4,0.7,0.9,0.7,1.5s-0.3,1.1-0.7,1.5s-1,0.6-1.6,0.6h-1.5V220.2z
			 M586.6,216.4h1.5c0.4,0,0.7-0.2,0.9-0.4s0.3-0.5,0.3-0.8s-0.1-0.6-0.3-0.8c-0.3-0.3-0.5-0.4-0.9-0.4h-1.5V216.4z"/>
		<path d="M593,220.4c-0.8,0-1.3-0.3-1.8-0.8c-0.5-0.5-0.7-1.1-0.7-1.8c0-0.7,0.3-1.3,0.7-1.8s1-0.8,1.8-0.8c0.8,0,1.3,0.3,1.8,0.7
			c0.4,0.5,0.7,1.1,0.7,1.9v0.2h-3.9c0,0.5,0.2,0.9,0.5,1.2c0.3,0.3,0.7,0.4,1.1,0.4c0.7,0,1.1-0.3,1.3-0.8l0.8,0.3
			c-0.2,0.4-0.4,0.7-0.8,0.9C594,220.2,593.5,220.4,593,220.4z M594.3,217.2c0-0.3-0.2-0.5-0.4-0.8c-0.3-0.3-0.6-0.4-1.1-0.4
			c-0.3,0-0.7,0.1-0.9,0.3c-0.3,0.3-0.4,0.5-0.5,0.8L594.3,217.2L594.3,217.2z"/>
		<path d="M597,220.2h-0.9v-4.9h0.8v0.8l0,0c0.1-0.3,0.3-0.5,0.6-0.7c0.3-0.2,0.6-0.3,0.8-0.3c0.3,0,0.5,0,0.7,0.1l-0.3,0.8
			c-0.1-0.1-0.3-0.1-0.5-0.1c-0.3,0-0.6,0.2-0.9,0.4c-0.3,0.3-0.4,0.6-0.4,1v2.7L597,220.2L597,220.2z"/>
		<path d="M601.4,220.4c-0.5,0-1-0.2-1.3-0.4s-0.6-0.6-0.8-1l0.8-0.3c0.3,0.6,0.7,0.9,1.3,0.9c0.3,0,0.5-0.1,0.7-0.2
			c0.2-0.2,0.3-0.3,0.3-0.5c0-0.3-0.3-0.5-0.7-0.7l-1-0.3c-0.3-0.1-0.6-0.3-0.9-0.4c-0.3-0.3-0.4-0.5-0.4-0.9s0.2-0.8,0.6-1.1
			c0.4-0.3,0.8-0.4,1.3-0.4c0.4,0,0.8,0.1,1.2,0.3c0.3,0.2,0.6,0.5,0.8,0.8l-0.8,0.3c-0.2-0.4-0.6-0.7-1.1-0.7
			c-0.3,0-0.5,0.1-0.7,0.2c-0.2,0.1-0.3,0.3-0.3,0.4c0,0.3,0.3,0.5,0.7,0.6l1,0.3c0.4,0.1,0.8,0.3,1,0.6c0.3,0.3,0.3,0.6,0.3,0.8
			c0,0.4-0.2,0.8-0.5,1.1C602.4,220.2,601.9,220.4,601.4,220.4z"/>
		<path d="M605.1,214.1c-0.2,0.2-0.3,0.2-0.4,0.2s-0.3-0.1-0.4-0.2c-0.2-0.2-0.2-0.3-0.2-0.4s0.1-0.3,0.2-0.4
			c0.2-0.2,0.3-0.2,0.4-0.2s0.3,0.1,0.4,0.2c0.2,0.2,0.2,0.3,0.2,0.4S605.1,213.9,605.1,214.1z M605.1,220.2h-0.9v-4.9h0.9V220.2z"
			/>
		<path d="M608,220.4c-0.5,0-1-0.2-1.3-0.4s-0.6-0.6-0.8-1l0.8-0.3c0.3,0.6,0.7,0.9,1.3,0.9c0.3,0,0.5-0.1,0.7-0.2
			c0.2-0.2,0.3-0.3,0.3-0.5c0-0.3-0.3-0.5-0.7-0.7l-1-0.3c-0.3-0.1-0.6-0.3-0.9-0.4c-0.3-0.3-0.4-0.5-0.4-0.9s0.2-0.8,0.6-1.1
			c0.4-0.3,0.8-0.4,1.3-0.4c0.4,0,0.8,0.1,1.2,0.3c0.3,0.2,0.6,0.5,0.8,0.8l-0.8,0.3c-0.2-0.4-0.6-0.7-1.1-0.7
			c-0.3,0-0.5,0.1-0.7,0.2c-0.2,0.1-0.3,0.3-0.3,0.4c0,0.3,0.3,0.5,0.7,0.6l1,0.3c0.4,0.1,0.8,0.3,1,0.6c0.3,0.3,0.3,0.6,0.3,0.8
			c0,0.4-0.2,0.8-0.5,1.1C609.1,220.2,608.6,220.4,608,220.4z"/>
		<path d="M612.8,220.3c-0.5,0-0.9-0.2-1.2-0.4c-0.3-0.3-0.4-0.7-0.4-1.2v-2.6h-0.8v-0.8h0.8v-1.5h0.9v1.5h1.2v0.8h-1.2v2.5
			c0,0.5,0.3,0.8,0.7,0.8c0.2,0,0.3,0,0.4-0.1l0.3,0.8C613.4,220.2,613.1,220.3,612.8,220.3z"/>
		<path d="M616.4,220.4c-0.8,0-1.3-0.3-1.8-0.8c-0.5-0.5-0.7-1.1-0.7-1.8c0-0.7,0.3-1.3,0.7-1.8c0.4-0.5,1-0.8,1.8-0.8
			s1.3,0.3,1.8,0.7c0.4,0.5,0.7,1.1,0.7,1.9v0.2H615c0,0.5,0.2,0.9,0.5,1.2s0.7,0.4,1.1,0.4c0.7,0,1.1-0.3,1.3-0.8l0.8,0.3
			c-0.2,0.4-0.4,0.7-0.8,0.9C617.4,220.2,617,220.4,616.4,220.4z M617.7,217.2c0-0.3-0.2-0.5-0.4-0.8c-0.3-0.3-0.6-0.4-1.1-0.4
			c-0.3,0-0.7,0.1-0.9,0.3c-0.3,0.3-0.4,0.5-0.5,0.8L617.7,217.2L617.7,217.2z"/>
		<path d="M620.4,215.4v0.7l0,0c0.2-0.3,0.3-0.4,0.6-0.6s0.6-0.3,0.9-0.3c0.6,0,1.1,0.2,1.4,0.6c0.3,0.3,0.5,0.8,0.5,1.5v3h-0.9
			v-2.9c0-0.9-0.4-1.3-1.2-1.3c-0.4,0-0.7,0.2-0.9,0.4c-0.3,0.3-0.3,0.7-0.3,1.1v2.7h-1v-4.9L620.4,215.4L620.4,215.4z"/>
		<path d="M626.8,220.3c-0.5,0-0.9-0.2-1.2-0.4c-0.3-0.3-0.4-0.7-0.4-1.2v-2.6h-0.8v-0.8h0.8v-1.5h0.9v1.5h1.2v0.8h-1.2v2.5
			c0,0.5,0.3,0.8,0.7,0.8c0.2,0,0.3,0,0.4-0.1l0.3,0.8C627.4,220.2,627.1,220.3,626.8,220.3z"/>
		<path d="M630.6,220.2v-7.1h2.2c1.1,0,2,0.3,2.6,1c0.7,0.7,1,1.5,1,2.6c0,1.1-0.3,1.9-1,2.6c-0.7,0.7-1.5,1-2.6,1L630.6,220.2
			L630.6,220.2z M631.5,219.3h1.3c0.8,0,1.5-0.3,1.9-0.7c0.5-0.5,0.8-1.2,0.8-2s-0.3-1.5-0.8-2c-0.5-0.5-1.2-0.7-1.9-0.7h-1.3V219.3
			z"/>
		<path d="M638.3,214.1c-0.2,0.2-0.3,0.2-0.4,0.2c-0.2,0-0.3-0.1-0.4-0.2c-0.2-0.2-0.2-0.3-0.2-0.4s0.1-0.3,0.2-0.4
			c0.2-0.2,0.3-0.2,0.4-0.2c0.2,0,0.3,0.1,0.4,0.2c0.2,0.2,0.2,0.3,0.2,0.4S638.5,213.9,638.3,214.1z M638.3,220.2h-0.9v-4.9h0.9
			V220.2z"/>
		<path d="M641.3,220.4c-0.5,0-1-0.2-1.3-0.4s-0.6-0.6-0.8-1l0.8-0.3c0.3,0.6,0.7,0.9,1.3,0.9c0.3,0,0.5-0.1,0.7-0.2
			c0.2-0.2,0.3-0.3,0.3-0.5c0-0.3-0.3-0.5-0.7-0.7l-1-0.3c-0.3-0.1-0.6-0.3-0.9-0.4c-0.3-0.3-0.4-0.5-0.4-0.9s0.2-0.8,0.6-1.1
			c0.4-0.3,0.8-0.4,1.3-0.4c0.4,0,0.8,0.1,1.2,0.3c0.3,0.2,0.6,0.5,0.8,0.8l-0.8,0.3c-0.2-0.4-0.6-0.7-1.1-0.7
			c-0.3,0-0.5,0.1-0.7,0.2s-0.3,0.3-0.3,0.4c0,0.3,0.3,0.5,0.7,0.6l1,0.3c0.4,0.1,0.8,0.3,1,0.6c0.3,0.3,0.3,0.6,0.3,0.8
			c0,0.4-0.2,0.8-0.5,1.1C642.4,220.2,641.9,220.4,641.3,220.4z"/>
		<path d="M645,213.1v4.4l2.1-2.2h1.2l0,0l-1.8,2l2,2.9l0,0h-1.1l-1.5-2.3l-0.8,0.8v1.6h-0.9v-7.2H645z"/>
	</g>
</g>
<path class="st6" d="M568.3,145.1c0.1-2.5,2.1-4.5,4.5-4.5c1.1,0,2.2,0.4,3.1,1.3l-0.9,0.8c-0.6-0.6-1.4-0.9-2.2-0.9
	c-1.8,0-3.2,1.5-3.2,3.2v0.1c-0.1,1.8,1.4,3.2,3.2,3.3h0.1c0.8,0.1,1.7-0.3,2.2-0.9c0.4-0.4,0.6-1,0.7-1.5h-2.9v-1.3h4.1
	c0.1,0.3,0.1,0.5,0.1,0.8c0,1.1-0.4,2.1-1,2.9c-0.8,0.8-2,1.3-3.1,1.3C570.4,149.6,568.3,147.6,568.3,145.1z"/>
<path class="st6" d="M580.5,143.8c-1.6,0-2.9,1.3-2.9,2.9c0,1.6,1.3,2.9,2.9,2.9c1.6,0,2.9-1.3,2.9-2.9
	C583.3,145.1,582.1,143.8,580.5,143.8L580.5,143.8z M580.5,148.4c-0.9,0-1.7-0.8-1.7-1.7v-0.1c0-0.9,0.8-1.6,1.6-1.6
	c0.9,0,1.6,0.8,1.6,1.6C582.1,147.6,581.4,148.4,580.5,148.4L580.5,148.4L580.5,148.4z"/>
<path class="st6" d="M586.8,143.8c-1.6,0-2.9,1.3-2.9,2.9s1.3,2.9,2.9,2.9s2.9-1.3,2.9-2.9c0-1.5-1.3-2.9-2.8-2.9
	C586.8,143.8,586.8,143.8,586.8,143.8z M586.8,148.4c-0.9,0-1.7-0.8-1.7-1.7v-0.1c0-0.9,0.8-1.6,1.6-1.6c0.9,0,1.6,0.8,1.6,1.6
	C588.4,147.6,587.7,148.4,586.8,148.4C586.8,148.4,586.8,148.4,586.8,148.4L586.8,148.4z"/>
<path class="st6" d="M594.5,144v0.5h-0.1c-0.4-0.4-1-0.6-1.5-0.6c-1.6,0.1-2.8,1.4-2.8,3c0.1,1.5,1.3,2.7,2.8,2.8
	c0.6,0,1.1-0.2,1.5-0.6h0.1v0.4c0,1.1-0.6,1.7-1.5,1.7c-0.6,0-1.2-0.4-1.5-1.1l-1.1,0.5c0.4,1.1,1.5,1.8,2.6,1.7
	c1.5,0,2.7-0.9,2.7-3v-5.2L594.5,144L594.5,144z M593.1,148.4c-0.9,0-1.6-0.8-1.6-1.7v-0.1c-0.1-0.9,0.6-1.7,1.5-1.8c0,0,0,0,0.1,0
	c0.9,0.1,1.6,0.8,1.5,1.8l0,0C594.7,147.6,594,148.4,593.1,148.4L593.1,148.4z"/>
<rect x="596.6" y="140.9" class="st6" width="1.3" height="8.5"/>
<path class="st6" d="M601.4,148.4c-0.6,0-1.2-0.4-1.4-0.9l3.8-1.6l-0.1-0.4c-0.3-1.1-1.3-1.8-2.5-1.8c-1.5,0-2.7,1.2-2.7,2.7
	c0,0.1,0,0.1,0,0.1c-0.1,1.5,1.2,2.9,2.7,2.9c0.1,0,0.1,0,0.1,0c1,0,1.9-0.5,2.4-1.3l-1-0.6C602.5,148.1,601.9,148.4,601.4,148.4z
	 M601.2,144.9c0.5-0.1,0.9,0.2,1.1,0.6l-2.6,1.1C599.7,145.8,600.3,145,601.2,144.9L601.2,144.9z"/>
<path class="st6" d="M606.4,145.5c-0.1-2.2,1.7-4.1,3.9-4.1c0.1,0,0.1,0,0.1,0c1.1,0,2.2,0.4,2.9,1.3l-0.7,0.7c-0.6-0.6-1.3-1-2.2-1
	c-1.7-0.1-3,1.3-3.1,2.9c0,0.1,0,0.1,0,0.2c-0.1,1.7,1.2,3,2.9,3.1c0.1,0,0.1,0,0.1,0c0.9,0,1.8-0.4,2.4-1.1l0.7,0.7
	c-1.5,1.7-4.1,1.8-5.8,0.4C606.8,147.8,606.4,146.7,606.4,145.5z"/>
<path class="st6" d="M614.3,149.4v-7.8h1v7.8H614.3z"/>
<path class="st6" d="M621.6,146.7c0,1.5-1.3,2.7-2.7,2.7c-1.5,0-2.7-1.3-2.7-2.7s1.3-2.7,2.7-2.7
	C620.4,143.9,621.6,145.2,621.6,146.7z M620.6,146.7c0.1-1-0.6-1.8-1.6-1.9c-1-0.1-1.8,0.6-1.9,1.6c0,0.1,0,0.2,0,0.3
	c0,1,0.8,1.8,1.8,1.8C619.8,148.5,620.6,147.7,620.6,146.7L620.6,146.7z"/>
<path class="st6" d="M626.2,149.4v-0.8h-0.1c-0.4,0.6-1,0.9-1.7,0.9c-1.4,0-2-0.9-2-2.2V144h1v3.1c0,1.1,0.6,1.5,1.3,1.5
	c0.8-0.1,1.5-0.8,1.4-1.6v-2.9h1v5.4L626.2,149.4L626.2,149.4z"/>
<path class="st6" d="M627.9,146.7c-0.1-1.5,1-2.7,2.5-2.9c0.7,0,1.4,0.3,1.8,0.9h0.1l-0.1-0.8v-2.5h1v7.8h-1v-0.8h-0.1
	c-0.4,0.6-1.1,0.9-1.8,0.9C629,149.5,627.8,148.2,627.9,146.7z M632.3,146.7c0.1-0.9-0.6-1.8-1.5-1.9c-0.9-0.1-1.8,0.6-1.9,1.5
	c0,0.1,0,0.3,0,0.4c-0.1,0.9,0.6,1.8,1.5,1.9c1,0.1,1.8-0.6,1.9-1.5C632.4,147,632.4,146.9,632.3,146.7z"/>
<path class="st6" d="M636,149.4v-7.8h2.7c1.3-0.1,2.4,1,2.5,2.3l0,0c0,1.3-1.1,2.4-2.5,2.3l0,0h-1.6v3.1L636,149.4L636,149.4z
	 M638.8,145.3c0.8,0,1.4-0.6,1.4-1.4c0-0.8-0.6-1.4-1.4-1.4H637v2.7L638.8,145.3L638.8,145.3z"/>
<path class="st6" d="M641.9,149.4v-7.8h1v7.8H641.9z"/>
<path class="st6" d="M643.8,147.8c0-1.2,1.1-1.9,2.4-1.9c0.5,0,1,0.1,1.5,0.4v-0.1c-0.1-0.8-0.7-1.4-1.5-1.3c-0.5,0-1,0.3-1.2,0.8
	l-0.9-0.4c0.6-1.2,2.1-1.7,3.3-1.1c0.8,0.4,1.3,1.2,1.3,2v3.2h-1v-0.8h-0.1c-0.4,0.6-1,0.9-1.8,0.9
	C644.9,149.5,643.9,148.8,643.8,147.8C643.8,147.9,643.8,147.9,643.8,147.8z M647.6,147.1c-0.3-0.3-0.8-0.4-1.3-0.4
	c-1,0-1.5,0.6-1.5,1.1c0.1,0.6,0.6,0.9,1.1,0.8C646.8,148.7,647.5,148,647.6,147.1L647.6,147.1z"/>
<path class="st6" d="M650,147.8V145h-0.9v-0.9h0.9v-1.6h1v1.6h1.3v0.9H651v2.7c0,0.6,0.3,0.9,0.7,0.9c0.1,0,0.4,0,0.5-0.1l0.3,0.8
	c-0.3,0.1-0.6,0.1-0.8,0.1c-0.8,0.1-1.6-0.5-1.8-1.3C650,148,650,147.9,650,147.8z"/>
<path class="st6" d="M656.5,141.6l-0.4,0.8c-0.1-0.1-0.3-0.1-0.5-0.1c-0.5-0.1-0.8,0.3-0.9,0.8c0,0.1,0,0.1,0,0.1v0.7h1.3v0.9h-1.4
	v4.5h-1v-4.5h-1V144h1v-0.7c0-1,0.7-1.8,1.7-1.8c0.1,0,0.1,0,0.2,0C656,141.5,656.3,141.6,656.5,141.6z"/>
<path class="st6" d="M662.1,146.7c0,1.5-1.3,2.7-2.7,2.7s-2.7-1.3-2.7-2.7s1.3-2.7,2.7-2.7S662.1,145.2,662.1,146.7z M661,146.7
	c0.1-1-0.6-1.8-1.6-1.9c-1-0.1-1.8,0.6-1.9,1.6c0,0.1,0,0.2,0,0.3c-0.1,1,0.6,1.8,1.6,1.9c1,0.1,1.8-0.6,1.9-1.6
	C661,146.9,661,146.8,661,146.7z"/>
<path class="st6" d="M662.8,149.4V144h1v0.9h0.1c0.3-0.6,0.9-1,1.5-1c0.3,0,0.5,0,0.8,0.1l-0.3,0.9c-0.2-0.1-0.4-0.1-0.6-0.1
	c-0.8,0-1.4,0.7-1.4,1.5c0,0,0,0,0,0.1v2.9L662.8,149.4L662.8,149.4z"/>
<path class="st6" d="M666.7,144h1v0.8h0.1c0.4-0.6,1-0.9,1.6-0.9c0.7-0.1,1.4,0.4,1.7,1.1c0.4-0.6,1.1-1.1,1.9-1.1
	c1.3,0,1.9,0.9,1.9,2.2v3.3h-1v-3.1c0-1.1-0.4-1.5-1.2-1.5c-0.8,0-1.4,0.8-1.4,1.6v2.9h-1v-3.2c0-1.1-0.4-1.5-1.2-1.5
	s-1.4,0.8-1.4,1.6v2.9h-1V144L666.7,144z"/>
<path class="st7" d="M558.8,149.4l-1.6,2.7h-4.1c-0.3,0-0.7-0.2-0.9-0.5l-3.4-5.8c-0.2-0.3-0.2-0.7,0-1.1l1.3-2.2l1.5,2.7l2.4,4.1
	H558.8L558.8,149.4z"/>
<path class="st8" d="M564,145.8l-3.4,5.8c-0.2,0.4-0.5,0.5-0.9,0.5h-2.5l1.6-2.7l2.4-4.1l-2.4-4.1h3.1l2.1,3.6
	C564.2,145.1,564.2,145.5,564,145.8z"/>
<path class="st9" d="M562,141.2h-7.8l-2.4,4.1l-1.5-2.7l2.1-3.6c0.2-0.4,0.5-0.5,0.9-0.5h6.7c0.3,0,0.7,0.2,0.9,0.5L562,141.2z"/>
<path class="st10" d="M558.8,141.2l2.4,4.1l-2.4,4.1h-4.8l-2.4-4.1l2.4-4.1H558.8"/>
<circle class="st5" cx="556.4" cy="145.3" r="2"/>
<path class="st11" d="M552.2,139c0.2-0.4,0.5-0.5,0.9-0.5h6.6c0.4,0,0.7,0.2,0.9,0.5l1.3,2.2l0,0l-1.3-2.2c-0.2-0.3-0.5-0.5-0.9-0.5
	h-6.6C552.8,138.5,552.5,138.7,552.2,139l-2.1,3.5v0.1L552.2,139z"/>
<polyline class="st12" points="551.8,145.3 554.1,141.2 562,141.2 561.9,141.1 554.1,141.1 551.8,145.2 "/>
<path class="st11" d="M548.9,144.8l1.3-2.2l1.5,2.7l2.4,4.1h4.7l0.1-0.1h-4.8l-2.4-4.1l-1.5-2.7L548.9,144.8
	c-0.1,0.1-0.1,0.3-0.1,0.5C548.7,145.1,548.8,145,548.9,144.8z"/>
<g class="st13">
	<path class="st14" d="M557.3,152.1h-4.2c-0.3,0-0.7-0.2-0.9-0.5l-3.4-5.8c-0.1-0.1-0.1-0.3-0.1-0.5c0,0.2,0.1,0.4,0.1,0.6l3.4,5.8
		c0.2,0.3,0.5,0.5,0.9,0.5L557.3,152.1L557.3,152.1z"/>
</g>
<g class="st13">
	<polygon class="st15" points="561.3,145.3 558.9,141.2 558.8,141.2 561.2,145.3 	"/>
	<path class="st15" d="M564,145.8l-3.4,5.8c-0.2,0.4-0.5,0.5-0.9,0.5h-2.5l-0.1,0.1h2.5c0.3,0,0.7-0.2,0.9-0.5L564,145.8
		c0-0.1,0.1-0.3,0.1-0.5C564.1,145.4,564.1,145.6,564,145.8z"/>
</g>
<g class="st13">
	<path class="st5" d="M562,141.3l2.1,3.6c0.1,0.1,0.1,0.3,0.1,0.5c0-0.2-0.1-0.3-0.1-0.6l-2.1-3.6h-3.1l0.1,0.1"/>
	<polygon class="st5" points="558.8,149.5 561.3,145.3 561.2,145.3 558.8,149.4 557.3,152.1 557.3,152.1 	"/>
</g>
<radialGradient id="SVGID_4_" cx="-557.8099" cy="1421.0233" r="5.9307" gradientTransform="matrix(2.67 0 0 2.67 2040.1101 -3655.2402)" gradientUnits="userSpaceOnUse">
	<stop  offset="0" style="stop-color:#FFFFFF;stop-opacity:0.1"/>
	<stop  offset="1" style="stop-color:#FFFFFF;stop-opacity:0"/>
</radialGradient>
<path class="st19" d="M564,144.8l-2.1-3.6l-1.3-2.2c-0.2-0.3-0.5-0.5-0.9-0.5h-6.7c-0.3,0-0.7,0.2-0.9,0.5l-3.4,5.8
	c-0.2,0.3-0.2,0.7,0,1l3.4,5.8c0.2,0.3,0.5,0.5,0.9,0.5h6.7c0.3,0,0.7-0.2,0.9-0.5l3.4-5.8C564.2,145.5,564.2,145.1,564,144.8z"/>
</svg>
