<?xml version="1.0" encoding="utf-8"?>
<!-- Generator: Adobe Illustrator 24.1.0, SVG Export Plug-In . SVG Version: 6.00 Build 0)  -->
<svg version="1.1" id="Layer_1" xmlns="http://www.w3.org/2000/svg" xmlns:xlink="http://www.w3.org/1999/xlink" x="0px" y="0px"
	 viewBox="0 0 700 265" style="enable-background:new 0 0 700 265;" xml:space="preserve">
<style type="text/css">
	.st0{display:none;}
	.st1{fill:none;stroke:#000000;stroke-width:2.5;stroke-miterlimit:10;}
	.st2{fill:#FFFFFF;stroke:#000000;stroke-width:2.5;stroke-miterlimit:10;}
	.st3{fill:#4285F4;}
	.st4{opacity:7.000000e-02;enable-background:new    ;}
	.st5{fill:#FFFFFF;}
	.st6{fill:#737373;}
	.st7{fill:#FFCC40;}
	.st8{fill:#DA4437;}
	.st9{fill:#4284F3;}
	.st10{fill:#DFDFDF;}
	.st11{opacity:0.2;fill:#FFFFFF;enable-background:new    ;}
	.st12{fill:#1A237E;fill-opacity:0.2;}
	.st13{opacity:0.2;}
	.st14{fill:#BE360C;}
	.st15{fill:#3E2723;}
	.st16{fill:url(#SVGID_1_);}
</style>
<g class="st0">
	
		<image style="display:inline;overflow:visible;enable-background:new    ;" width="1805" height="368" xlink:href="cloud-vm-storage.png"  transform="matrix(1.0019 0 0 1.0019 -538.2466 -48.6067)">
	</image>
</g>
<g>
	<line class="st1" x1="88.3" y1="94.6" x2="88.3" y2="67.9"/>
	<line class="st1" x1="266.2" y1="94.6" x2="266.2" y2="67.9"/>
	<line class="st1" x1="446.3" y1="95.5" x2="446.3" y2="68.7"/>
	<line class="st1" x1="616.3" y1="97.5" x2="616.3" y2="70.8"/>
</g>
<line class="st1" x1="153" y1="40" x2="549.6" y2="40"/>
<rect x="6.6" y="8" class="st2" width="154.5" height="64.4"/>
<rect x="183.8" y="8" class="st2" width="154.5" height="64.4"/>
<rect x="361.5" y="8" class="st2" width="154.5" height="64.4"/>
<rect x="537.9" y="8" class="st2" width="154.5" height="64.4"/>
<rect x="6.6" y="88.6" class="st2" width="685.9" height="169.2"/>
<g>
	<path d="M53.7,44.4l-3-9.2H52l1.4,4.6c0.4,1.2,0.7,2.4,1,3.5l0,0c0.3-1.1,0.6-2.2,1.1-3.4l1.6-4.6h1.3l-3.3,9.2L53.7,44.4
		L53.7,44.4z"/>
	<path d="M67.1,40.3c-0.1-1.3-0.2-2.8-0.1-4l0,0c-0.3,1.1-0.7,2.2-1.2,3.5l-1.6,4.5h-0.9l-1.5-4.4c-0.4-1.3-0.8-2.5-1.1-3.6l0,0
		c0,1.2-0.1,2.7-0.2,4.1l-0.2,4h-1.1l0.6-9.2h1.5l1.6,4.5c0.4,1.1,0.7,2.2,0.9,3.1l0,0c0.2-0.9,0.6-1.9,1-3.1l1.6-4.5h1.5l0.6,9.2
		h-1.2L67.1,40.3z"/>
	<path d="M74.4,35.2v9.2h-1.2v-9.2H74.4z"/>
	<path d="M76.6,39.6c0-0.7,0-1.2-0.1-1.8h1.1l0.1,1.1l0,0c0.3-0.6,1.1-1.2,2.2-1.2c0.9,0,2.3,0.5,2.3,2.8v4H81v-3.8
		c0-1.1-0.4-2-1.5-2c-0.8,0-1.4,0.6-1.6,1.2c0,0.1-0.1,0.3-0.1,0.5v4h-1.2C76.6,44.4,76.6,39.6,76.6,39.6z"/>
	<path d="M84.1,43.2c0.4,0.2,1,0.5,1.6,0.5c0.9,0,1.3-0.4,1.3-1s-0.3-0.9-1.2-1.2c-1.2-0.4-1.8-1.1-1.8-1.9c0-1.1,0.9-1.9,2.3-1.9
		c0.7,0,1.3,0.2,1.6,0.4L87.6,39c-0.3-0.2-0.7-0.4-1.4-0.4c-0.7,0-1.1,0.4-1.1,0.9s0.4,0.8,1.3,1.1c1.2,0.4,1.7,1,1.7,2
		c0,1.2-0.9,2-2.5,2c-0.7,0-1.4-0.2-1.9-0.5L84.1,43.2z"/>
	<path d="M91.1,35.9v1.9h1.7v0.9h-1.7v3.6c0,0.8,0.2,1.3,0.9,1.3c0.3,0,0.5,0,0.7-0.1l0.1,0.9c-0.2,0.1-0.6,0.2-1.1,0.2
		c-0.6,0-1-0.2-1.3-0.5c-0.3-0.4-0.5-0.9-0.5-1.7v-3.6h-1v-0.9h1v-1.7L91.1,35.9z"/>
	<path d="M97.9,44.4l-0.1-0.8l0,0c-0.4,0.5-1.1,1-2,1c-1.3,0-2-0.9-2-1.9c0-1.6,1.4-2.5,4-2.5v-0.1c0-0.5-0.2-1.5-1.5-1.5
		c-0.6,0-1.3,0.2-1.7,0.5l-0.4-0.9c0.5-0.4,1.3-0.6,2.2-0.6c2,0,2.5,1.4,2.5,2.7v2.5c0,0.6,0,1.1,0.1,1.6H97.9z M97.7,41
		c-1.3,0-2.8,0.2-2.8,1.5c0,0.8,0.5,1.2,1.1,1.2c0.9,0,1.4-0.5,1.6-1.1c0-0.1,0.1-0.3,0.1-0.4C97.7,42.2,97.7,41,97.7,41z"/>
	<path d="M100.8,39.6c0-0.7,0-1.2-0.1-1.8h1.1l0.1,1.1l0,0c0.3-0.6,1.1-1.2,2.2-1.2c0.9,0,2.3,0.5,2.3,2.8v4h-1.2v-3.8
		c0-1.1-0.4-2-1.5-2c-0.8,0-1.4,0.6-1.6,1.2c-0.1,0.2-0.1,0.4-0.1,0.6v4h-1.2C100.8,44.5,100.8,39.6,100.8,39.6z"/>
	<path d="M113.2,44.2c-0.3,0.2-1,0.4-1.9,0.4c-2,0-3.3-1.4-3.3-3.4s1.4-3.5,3.6-3.5c0.7,0,1.3,0.2,1.7,0.3l-0.3,0.9
		c-0.3-0.2-0.7-0.3-1.4-0.3c-1.5,0-2.3,1.1-2.3,2.5c0,1.5,1,2.5,2.3,2.5c0.7,0,1.1-0.2,1.5-0.3L113.2,44.2z"/>
	<path d="M115.2,41.3c0,1.6,1.1,2.3,2.3,2.3c0.9,0,1.4-0.2,1.8-0.3l0.2,0.9c-0.4,0.2-1.2,0.4-2.2,0.4c-2,0-3.3-1.3-3.3-3.3
		s1.2-3.6,3.1-3.6c2.2,0,2.7,1.9,2.7,3.1c0,0.2,0,0.4,0,0.6h-4.6V41.3z M118.7,40.4c0-0.8-0.3-2-1.7-2c-1.2,0-1.8,1.1-1.9,2H118.7z"
		/>
</g>
<g>
	<path d="M229.8,44.4l-3-9.2h1.3l1.4,4.6c0.4,1.2,0.7,2.4,1,3.5l0,0c0.3-1.1,0.6-2.2,1.1-3.4l1.6-4.6h1.3l-3.3,9.2L229.8,44.4
		L229.8,44.4z"/>
	<path d="M243.3,40.3c-0.1-1.3-0.2-2.8-0.1-4l0,0c-0.3,1.1-0.7,2.2-1.2,3.5l-1.6,4.5h-0.9l-1.5-4.4c-0.4-1.3-0.8-2.5-1.1-3.6l0,0
		c0,1.2-0.1,2.7-0.2,4.1l-0.2,4h-1.1l0.6-9.2h1.5l1.6,4.5c0.4,1.1,0.7,2.2,0.9,3.1l0,0c0.2-0.9,0.6-1.9,1-3.1l1.6-4.5h1.5l0.6,9.2
		h-1.2L243.3,40.3z"/>
	<path d="M250.6,35.2v9.2h-1.2v-9.2H250.6z"/>
	<path d="M252.8,39.6c0-0.7,0-1.2-0.1-1.8h1.1l0.1,1.1l0,0c0.3-0.6,1.1-1.2,2.2-1.2c0.9,0,2.3,0.5,2.3,2.8v4h-1.2v-3.8
		c0-1.1-0.4-2-1.5-2c-0.8,0-1.4,0.6-1.6,1.2c-0.1,0.2-0.1,0.4-0.1,0.6v4h-1.2L252.8,39.6L252.8,39.6z"/>
	<path d="M260.2,43.2c0.4,0.2,1,0.5,1.6,0.5c0.9,0,1.3-0.4,1.3-1s-0.3-0.9-1.2-1.2c-1.2-0.4-1.8-1.1-1.8-1.9c0-1.1,0.9-1.9,2.3-1.9
		c0.7,0,1.3,0.2,1.6,0.4l-0.3,0.9c-0.3-0.2-0.7-0.4-1.4-0.4c-0.7,0-1.1,0.4-1.1,0.9s0.4,0.8,1.3,1.1c1.2,0.4,1.7,1,1.7,2
		c0,1.2-0.9,2-2.5,2c-0.7,0-1.4-0.2-1.9-0.5L260.2,43.2z"/>
	<path d="M267.3,35.9v1.9h1.7v0.9h-1.7v3.6c0,0.8,0.2,1.3,0.9,1.3c0.3,0,0.5,0,0.7-0.1l0.1,0.9c-0.2,0.1-0.6,0.2-1.1,0.2
		c-0.6,0-1-0.2-1.3-0.5c-0.3-0.4-0.5-0.9-0.5-1.7v-3.6h-1v-0.9h1v-1.7L267.3,35.9z"/>
	<path d="M274.1,44.4l-0.1-0.8l0,0c-0.4,0.5-1.1,1-2,1c-1.3,0-2-0.9-2-1.9c0-1.6,1.4-2.5,4-2.5v-0.1c0-0.5-0.2-1.5-1.5-1.5
		c-0.6,0-1.3,0.2-1.7,0.5l-0.3-0.8c0.5-0.4,1.3-0.6,2.2-0.6c2,0,2.5,1.4,2.5,2.7v2.5c0,0.6,0,1.1,0.1,1.6h-1.2V44.4z M273.9,41
		c-1.3,0-2.8,0.2-2.8,1.5c0,0.8,0.5,1.2,1.1,1.2c0.9,0,1.4-0.5,1.6-1.1c0-0.1,0.1-0.3,0.1-0.4L273.9,41L273.9,41z"/>
	<path d="M277,39.6c0-0.7,0-1.2-0.1-1.8h1.1l0.1,1.1l0,0c0.3-0.6,1.1-1.2,2.2-1.2c0.9,0,2.3,0.5,2.3,2.8v4h-1.2v-3.8
		c0-1.1-0.4-2-1.5-2c-0.8,0-1.4,0.6-1.6,1.2c-0.1,0.2-0.1,0.4-0.1,0.6v4H277V39.6L277,39.6z"/>
	<path d="M289.3,44.2c-0.3,0.2-1,0.4-1.9,0.4c-2,0-3.3-1.4-3.3-3.4s1.4-3.5,3.6-3.5c0.7,0,1.3,0.2,1.7,0.3l-0.3,0.9
		c-0.3-0.2-0.7-0.3-1.4-0.3c-1.5,0-2.3,1.1-2.3,2.5c0,1.5,1,2.5,2.3,2.5c0.7,0,1.1-0.2,1.5-0.3L289.3,44.2z"/>
	<path d="M291.3,41.3c0,1.6,1.1,2.3,2.3,2.3c0.9,0,1.4-0.2,1.8-0.3l0.2,0.9c-0.4,0.2-1.2,0.4-2.2,0.4c-2,0-3.3-1.3-3.3-3.3
		s1.2-3.6,3.1-3.6c2.2,0,2.7,1.9,2.7,3.1c0,0.2,0,0.4,0,0.6h-4.6V41.3z M294.9,40.4c0-0.8-0.3-2-1.7-2c-1.2,0-1.8,1.1-1.9,2H294.9z"
		/>
</g>
<g>
	<path d="M410.6,44.4l-3-9.2h1.3l1.4,4.6c0.4,1.2,0.7,2.4,1,3.5l0,0c0.3-1.1,0.6-2.2,1.1-3.4l1.6-4.6h1.3l-3.3,9.2L410.6,44.4
		L410.6,44.4z"/>
	<path d="M424,40.3c-0.1-1.3-0.2-2.8-0.1-4l0,0c-0.3,1.1-0.7,2.2-1.2,3.5l-1.6,4.5h-0.9l-1.5-4.4c-0.4-1.3-0.8-2.5-1.1-3.6l0,0
		c0,1.2-0.1,2.7-0.2,4.1l-0.2,4h-1.1l0.6-9.2h1.5l1.6,4.5c0.4,1.1,0.7,2.2,0.9,3.1l0,0c0.2-0.9,0.6-1.9,1-3.1l1.6-4.5h1.5l0.6,9.2
		h-1.2L424,40.3z"/>
	<path d="M431.3,35.2v9.2h-1.2v-9.2H431.3z"/>
	<path d="M433.5,39.6c0-0.7,0-1.2-0.1-1.8h1.1l0.1,1.1l0,0c0.3-0.6,1.1-1.2,2.2-1.2c0.9,0,2.3,0.5,2.3,2.8v4h-1.2v-3.8
		c0-1.1-0.4-2-1.5-2c-0.8,0-1.4,0.6-1.6,1.2c-0.1,0.2-0.1,0.4-0.1,0.6v4h-1.2L433.5,39.6L433.5,39.6z"/>
	<path d="M441,43.2c0.4,0.2,1,0.5,1.6,0.5c0.9,0,1.3-0.4,1.3-1s-0.3-0.9-1.2-1.2c-1.2-0.4-1.8-1.1-1.8-1.9c0-1.1,0.9-1.9,2.3-1.9
		c0.7,0,1.3,0.2,1.6,0.4l-0.3,0.9c-0.3-0.2-0.7-0.4-1.4-0.4c-0.7,0-1.1,0.4-1.1,0.9s0.4,0.8,1.3,1.1c1.2,0.4,1.7,1,1.7,2
		c0,1.2-0.9,2-2.5,2c-0.7,0-1.4-0.2-1.9-0.5L441,43.2z"/>
	<path d="M448,35.9v1.9h1.7v0.9H448v3.6c0,0.8,0.2,1.3,0.9,1.3c0.3,0,0.5,0,0.7-0.1l0.1,0.9c-0.2,0.1-0.6,0.2-1.1,0.2
		c-0.6,0-1-0.2-1.3-0.5c-0.3-0.4-0.5-0.9-0.5-1.7v-3.6h-1v-0.9h1v-1.7L448,35.9z"/>
	<path d="M454.8,44.4l-0.1-0.8l0,0c-0.4,0.5-1.1,1-2,1c-1.3,0-2-0.9-2-1.9c0-1.6,1.4-2.5,4-2.5v-0.1c0-0.5-0.2-1.5-1.5-1.5
		c-0.6,0-1.3,0.2-1.7,0.5l-0.3-0.8c0.5-0.4,1.3-0.6,2.2-0.6c2,0,2.5,1.4,2.5,2.7v2.5c0,0.6,0,1.1,0.1,1.6h-1.2V44.4z M454.6,41
		c-1.3,0-2.8,0.2-2.8,1.5c0,0.8,0.5,1.2,1.1,1.2c0.9,0,1.4-0.5,1.6-1.1c0-0.1,0.1-0.3,0.1-0.4L454.6,41L454.6,41z"/>
	<path d="M457.7,39.6c0-0.7,0-1.2-0.1-1.8h1.1l0.1,1.1l0,0c0.3-0.6,1.1-1.2,2.2-1.2c0.9,0,2.3,0.5,2.3,2.8v4h-1.2v-3.8
		c0-1.1-0.4-2-1.5-2c-0.8,0-1.4,0.6-1.6,1.2c-0.1,0.2-0.1,0.4-0.1,0.6v4h-1.2L457.7,39.6L457.7,39.6z"/>
	<path d="M470.1,44.2c-0.3,0.2-1,0.4-1.9,0.4c-2,0-3.3-1.4-3.3-3.4s1.4-3.5,3.6-3.5c0.7,0,1.3,0.2,1.7,0.3l-0.3,0.9
		c-0.3-0.2-0.7-0.3-1.4-0.3c-1.5,0-2.3,1.1-2.3,2.5c0,1.5,1,2.5,2.3,2.5c0.7,0,1.1-0.2,1.5-0.3L470.1,44.2z"/>
	<path d="M472.1,41.3c0,1.6,1.1,2.3,2.3,2.3c0.9,0,1.4-0.2,1.8-0.3l0.2,0.9c-0.4,0.2-1.2,0.4-2.2,0.4c-2,0-3.3-1.3-3.3-3.3
		s1.2-3.6,3.1-3.6c2.2,0,2.7,1.9,2.7,3.1c0,0.2,0,0.4,0,0.6h-4.6V41.3z M475.6,40.4c0-0.8-0.3-2-1.7-2c-1.2,0-1.8,1.1-1.9,2H475.6z"
		/>
</g>
<g>
	<path d="M581.6,44.4l-3-9.2h1.3l1.4,4.6c0.4,1.2,0.7,2.4,1,3.5l0,0c0.3-1.1,0.6-2.2,1.1-3.4l1.6-4.6h1.3l-3.3,9.2L581.6,44.4
		L581.6,44.4z"/>
	<path d="M595,40.3c-0.1-1.3-0.2-2.8-0.1-4l0,0c-0.3,1.1-0.7,2.2-1.2,3.5l-1.6,4.5h-0.9l-1.5-4.4c-0.4-1.3-0.8-2.5-1.1-3.6l0,0
		c0,1.2-0.1,2.7-0.2,4.1l-0.2,4h-1.1l0.6-9.2h1.5l1.6,4.5c0.4,1.1,0.7,2.2,0.9,3.1l0,0c0.2-0.9,0.6-1.9,1-3.1l1.6-4.5h1.5l0.6,9.2
		h-1.2L595,40.3z"/>
	<path d="M602.4,35.2v9.2h-1.2v-9.2H602.4z"/>
	<path d="M604.6,39.6c0-0.7,0-1.2-0.1-1.8h1.1l0.1,1.1l0,0c0.3-0.6,1.1-1.2,2.2-1.2c0.9,0,2.3,0.5,2.3,2.8v4H609v-3.8
		c0-1.1-0.4-2-1.5-2c-0.8,0-1.4,0.6-1.6,1.2c-0.1,0.2-0.1,0.4-0.1,0.6v4h-1.2L604.6,39.6L604.6,39.6z"/>
	<path d="M612,43.2c0.4,0.2,1,0.5,1.6,0.5c0.9,0,1.3-0.4,1.3-1s-0.3-0.9-1.2-1.2c-1.2-0.4-1.8-1.1-1.8-1.9c0-1.1,0.9-1.9,2.3-1.9
		c0.7,0,1.3,0.2,1.6,0.4l-0.3,0.9c-0.3-0.2-0.7-0.4-1.4-0.4S613,39,613,39.5s0.4,0.8,1.3,1.1c1.2,0.4,1.7,1,1.7,2c0,1.2-0.9,2-2.5,2
		c-0.7,0-1.4-0.2-1.9-0.5L612,43.2z"/>
	<path d="M619.1,35.9v1.9h1.7v0.9h-1.7v3.6c0,0.8,0.2,1.3,0.9,1.3c0.3,0,0.5,0,0.7-0.1l0.1,0.9c-0.2,0.1-0.6,0.2-1.1,0.2
		c-0.6,0-1-0.2-1.3-0.5c-0.3-0.4-0.5-0.9-0.5-1.7v-3.6h-1v-0.9h1v-1.7L619.1,35.9z"/>
	<path d="M625.8,44.4l-0.1-0.8l0,0c-0.4,0.5-1.1,1-2,1c-1.3,0-2-0.9-2-1.9c0-1.6,1.4-2.5,4-2.5v-0.1c0-0.5-0.2-1.5-1.5-1.5
		c-0.6,0-1.3,0.2-1.7,0.5l-0.3-0.8c0.5-0.4,1.3-0.6,2.2-0.6c2,0,2.5,1.4,2.5,2.7v2.5c0,0.6,0,1.1,0.1,1.6h-1.2V44.4z M625.6,41
		c-1.3,0-2.8,0.2-2.8,1.5c0,0.8,0.5,1.2,1.1,1.2c0.9,0,1.4-0.5,1.6-1.1c0-0.1,0.1-0.3,0.1-0.4L625.6,41L625.6,41z"/>
	<path d="M628.8,39.6c0-0.7,0-1.2-0.1-1.8h1.1l0.1,1.1l0,0c0.3-0.6,1.1-1.2,2.2-1.2c0.9,0,2.3,0.5,2.3,2.8v4h-1.2v-3.8
		c0-1.1-0.4-2-1.5-2c-0.8,0-1.4,0.6-1.6,1.2c-0.1,0.2-0.1,0.4-0.1,0.6v4h-1.2V39.6z"/>
	<path d="M641.1,44.2c-0.3,0.2-1,0.4-1.9,0.4c-2,0-3.3-1.4-3.3-3.4s1.4-3.5,3.6-3.5c0.7,0,1.3,0.2,1.7,0.3l-0.3,0.9
		c-0.3-0.2-0.7-0.3-1.4-0.3c-1.5,0-2.3,1.1-2.3,2.5c0,1.5,1,2.5,2.3,2.5c0.7,0,1.1-0.2,1.5-0.3L641.1,44.2z"/>
	<path d="M643.1,41.3c0,1.6,1.1,2.3,2.3,2.3c0.9,0,1.4-0.2,1.8-0.3l0.2,0.9c-0.4,0.2-1.2,0.4-2.2,0.4c-2,0-3.3-1.3-3.3-3.3
		s1.2-3.6,3.1-3.6c2.2,0,2.7,1.9,2.7,3.1c0,0.2,0,0.4,0,0.6h-4.6V41.3z M646.6,40.4c0-0.8-0.3-2-1.7-2c-1.2,0-1.8,1.1-1.9,2H646.6z"
		/>
</g>
<g>
	<path d="M120.8,164.2v4.7h5.5v-4.7h1.5v11.2h-1.5v-5.2h-5.5v5.2h-1.5v-11.2H120.8z"/>
	<path d="M132,165.1c0,0.5-0.4,0.9-1,0.9c-0.5,0-0.9-0.4-0.9-0.9s0.4-1,1-1S132,164.6,132,165.1z M130.4,175.4v-8h1.5v8H130.4z"/>
	<path d="M141.2,167.4c0,0.6-0.1,1.2-0.1,2.2v4.7c0,1.8-0.4,3-1.1,3.6c-0.7,0.7-1.9,1-2.9,1s-2.1-0.2-2.7-0.6l0.4-1.1
		c0.5,0.4,1.3,0.6,2.3,0.6c1.5,0,2.6-0.7,2.6-2.8v-0.9l0,0c-0.5,0.7-1.3,1.3-2.6,1.3c-1.9,0-3.4-1.7-3.4-3.9c0-2.7,1.8-4.3,3.6-4.3
		c1.5,0,2.2,0.7,2.6,1.5l0,0l0.1-1.2h1.2L141.2,167.4L141.2,167.4z M139.7,170.6c0-0.2,0-0.5-0.1-0.6c-0.2-0.9-1-1.6-2.1-1.6
		c-1.5,0-2.4,1.2-2.4,3c0,1.6,0.9,2.9,2.4,2.9c0.9,0,1.7-0.6,2.1-1.5c0.1-0.2,0.1-0.5,0.1-0.7V170.6z"/>
	<path d="M143.6,163.6h1.5v5l0,0c0.2-0.4,0.6-0.7,1.1-1s1-0.4,1.5-0.4c1.1,0,2.8,0.6,2.8,3.4v4.9H149v-4.6c0-1.3-0.5-2.4-1.8-2.4
		c-1,0-1.7,0.6-1.9,1.5c-0.1,0.2-0.1,0.4-0.1,0.7v4.9h-1.5L143.6,163.6L143.6,163.6z"/>
	<path d="M152.9,163.6h1.5v11.8h-1.5V163.6z"/>
	<path d="M157.4,167.4l1.8,4.7c0.2,0.5,0.4,1.2,0.5,1.7l0,0c0.1-0.5,0.4-1.1,0.5-1.7l1.6-4.7h1.6l-2.2,5.7c-1.1,2.8-1.8,4.1-2.8,5.1
		c-0.7,0.6-1.5,0.9-1.8,1l-0.4-1.2c0.4-0.1,0.9-0.4,1.3-0.7c0.4-0.4,0.9-0.9,1.2-1.6c0.1-0.1,0.1-0.2,0.1-0.4c0-0.1,0-0.2-0.1-0.4
		l-3-7.4h1.7L157.4,167.4L157.4,167.4z"/>
	<path d="M170,171.9l-1.2,3.5h-1.5l3.8-11.2h1.7l3.9,11.2h-1.6l-1.2-3.5H170z M173.8,170.8l-1.1-3.3c-0.2-0.7-0.4-1.5-0.6-2.1l0,0
		c-0.1,0.6-0.4,1.3-0.6,2.1l-1.1,3.3H173.8z"/>
	<path d="M178.6,167.4l1.6,4.5c0.2,0.7,0.5,1.5,0.6,2.1l0,0c0.2-0.6,0.4-1.3,0.7-2.1l1.6-4.5h1.6l-3.2,8H180l-3-8H178.6z"/>
	<path d="M190.4,175.4l-0.1-1l0,0c-0.5,0.6-1.3,1.2-2.4,1.2c-1.6,0-2.4-1.1-2.4-2.3c0-1.9,1.7-3,4.9-3v-0.1c0-0.6-0.2-1.8-1.8-1.8
		c-0.7,0-1.6,0.2-2.1,0.6l-0.4-1c0.6-0.5,1.6-0.7,2.7-0.7c2.4,0,3,1.7,3,3.3v3c0,0.7,0,1.3,0.1,1.9L190.4,175.4L190.4,175.4z
		 M190.2,171.3c-1.6,0-3.4,0.2-3.4,1.8c0,1,0.6,1.5,1.3,1.5c1.1,0,1.7-0.6,1.9-1.3c0-0.1,0.1-0.4,0.1-0.5L190.2,171.3L190.2,171.3z"
		/>
	<path d="M197.9,163.6h1.5v11.8h-1.5V163.6z"/>
	<path d="M195.6,165.1c0,0.5-0.4,0.9-1,0.9c-0.5,0-0.9-0.4-0.9-0.9s0.4-1,1-1C195.4,164.1,195.6,164.6,195.6,165.1z M194,175.4v-8
		h1.5v8H194z"/>
	<path d="M206.3,175.4l-0.1-1l0,0c-0.5,0.6-1.3,1.2-2.4,1.2c-1.6,0-2.4-1.1-2.4-2.3c0-1.9,1.7-3,4.9-3v-0.1c0-0.6-0.2-1.8-1.8-1.8
		c-0.7,0-1.6,0.2-2.1,0.6l-0.4-1c0.6-0.5,1.6-0.7,2.7-0.7c2.4,0,3,1.7,3,3.3v3c0,0.7,0,1.3,0.1,1.9L206.3,175.4L206.3,175.4z
		 M206.1,171.3c-1.6,0-3.4,0.2-3.4,1.8c0,1,0.6,1.5,1.3,1.5c1.1,0,1.7-0.6,1.9-1.3c0-0.1,0.1-0.4,0.1-0.5L206.1,171.3L206.1,171.3z"
		/>
	<path d="M209.8,175.4c0-0.6,0.1-1.3,0.1-2.1v-9.7h1.5v5.1l0,0c0.5-0.9,1.5-1.5,2.8-1.5c1.9,0,3.4,1.7,3.4,4.1
		c0,2.9-1.8,4.4-3.6,4.4c-1.2,0-2.1-0.5-2.7-1.5l0,0l-0.1,1.3h-1.4V175.4z M211.3,172.1c0,0.2,0,0.4,0.1,0.5c0.2,1,1.1,1.7,2.2,1.7
		c1.6,0,2.4-1.2,2.4-3.2c0-1.6-0.9-3-2.4-3c-1,0-1.9,0.7-2.2,1.8c0,0.1-0.1,0.4-0.1,0.6V172.1z"/>
	<path d="M219.3,163.6h1.5v11.8h-1.5V163.6z"/>
	<path d="M224.1,171.6c0,1.9,1.3,2.8,2.8,2.8c1.1,0,1.7-0.2,2.2-0.4l0.2,1.1c-0.5,0.2-1.5,0.5-2.7,0.5c-2.4,0-4-1.6-4-4
		s1.5-4.4,3.8-4.4c2.7,0,3.3,2.3,3.3,3.8c0,0.2,0,0.5,0,0.7h-5.6V171.6z M228.4,170.6c0-1-0.4-2.4-2.1-2.4c-1.5,0-2.2,1.3-2.3,2.4
		H228.4z"/>
	<path d="M235.2,164.4c0.7-0.1,1.6-0.2,2.8-0.2c1.5,0,2.4,0.4,3.2,1c0.6,0.5,1,1.3,1,2.3s-0.2,1.8-0.9,2.4c-0.7,0.9-2.1,1.2-3.4,1.2
		c-0.5,0-0.9,0-1.2-0.1v4.5h-1.5L235.2,164.4L235.2,164.4z M236.7,169.7c0.4,0.1,0.7,0.1,1.2,0.1c1.7,0,2.8-0.9,2.8-2.4
		s-1.1-2.2-2.7-2.2c-0.6,0-1.1,0-1.3,0.1V169.7L236.7,169.7z"/>
	<path d="M244.5,171.6c0,1.9,1.3,2.8,2.8,2.8c1.1,0,1.7-0.2,2.2-0.4l0.2,1.1c-0.5,0.2-1.5,0.5-2.7,0.5c-2.4,0-4-1.6-4-4
		s1.5-4.4,3.8-4.4c2.7,0,3.3,2.3,3.3,3.8c0,0.2,0,0.5,0,0.7h-5.6V171.6z M248.7,170.6c0-1-0.4-2.4-2.1-2.4c-1.5,0-2.2,1.3-2.3,2.4
		H248.7z"/>
	<path d="M252,169.8c0-1,0-1.8-0.1-2.6h1.3v1.6h0.1c0.4-1.1,1.2-1.8,2.2-1.8c0.1,0,0.2,0,0.4,0v1.3c-0.1,0-0.2,0-0.5,0
		c-1.1,0-1.8,0.7-1.9,1.9c0,0.2-0.1,0.5-0.1,0.7v4.3h-1.3L252,169.8L252,169.8z"/>
	<path d="M257.2,174c0.5,0.2,1.2,0.6,1.9,0.6c1.1,0,1.6-0.5,1.6-1.2s-0.4-1.1-1.5-1.5c-1.5-0.5-2.2-1.3-2.2-2.3
		c0-1.3,1.1-2.3,2.8-2.3c0.9,0,1.6,0.2,1.9,0.5l-0.4,1.1c-0.4-0.2-0.9-0.5-1.7-0.5c-0.9,0-1.3,0.5-1.3,1.1s0.5,1,1.6,1.3
		c1.5,0.5,2.1,1.2,2.1,2.4c0,1.5-1.1,2.4-3,2.4c-0.9,0-1.7-0.2-2.3-0.6L257.2,174z"/>
	<path d="M265.6,165.1c0,0.5-0.4,0.9-1,0.9c-0.5,0-0.9-0.4-0.9-0.9s0.4-1,1-1S265.6,164.6,265.6,165.1z M264,175.4v-8h1.5v8H264z"/>
	<path d="M267.7,174c0.5,0.2,1.2,0.6,1.9,0.6c1.1,0,1.6-0.5,1.6-1.2s-0.4-1.1-1.5-1.5c-1.5-0.5-2.2-1.3-2.2-2.3
		c0-1.3,1.1-2.3,2.8-2.3c0.9,0,1.6,0.2,1.9,0.5l-0.4,1.1c-0.4-0.2-0.9-0.5-1.7-0.5c-0.9,0-1.3,0.5-1.3,1.1s0.5,1,1.6,1.3
		c1.5,0.5,2.1,1.2,2.1,2.4c0,1.5-1.1,2.4-3,2.4c-0.9,0-1.7-0.2-2.3-0.6L267.7,174z"/>
	<path d="M276.3,165.1v2.3h2.1v1.1h-2.1v4.4c0,1,0.2,1.6,1.1,1.6c0.4,0,0.6,0,0.9-0.1l0.1,1.1c-0.2,0.1-0.7,0.2-1.3,0.2
		c-0.7,0-1.2-0.2-1.6-0.6c-0.4-0.5-0.6-1.1-0.6-2.1v-4.4h-1.2v-1.1h1.2v-1.9L276.3,165.1z"/>
	<path d="M280.8,171.6c0,1.9,1.3,2.8,2.8,2.8c1.1,0,1.7-0.2,2.2-0.4l0.2,1.1c-0.5,0.2-1.5,0.5-2.7,0.5c-2.4,0-4-1.6-4-4
		s1.5-4.4,3.8-4.4c2.7,0,3.3,2.3,3.3,3.8c0,0.2,0,0.5,0,0.7h-5.6L280.8,171.6L280.8,171.6z M285.1,170.6c0-1-0.4-2.4-2.1-2.4
		c-1.5,0-2.2,1.3-2.3,2.4H285.1z"/>
	<path d="M288.3,169.6c0-0.9,0-1.5-0.1-2.2h1.3l0.1,1.3l0,0c0.4-0.7,1.3-1.5,2.7-1.5c1.1,0,2.8,0.6,2.8,3.4v4.9h-1.5v-4.6
		c0-1.3-0.5-2.4-1.8-2.4c-1,0-1.7,0.7-1.9,1.5c-0.1,0.2-0.1,0.5-0.1,0.7v4.9h-1.5V169.6L288.3,169.6z"/>
	<path d="M299.3,165.1v2.3h2.1v1.1h-2.1v4.4c0,1,0.2,1.6,1.1,1.6c0.4,0,0.6,0,0.9-0.1l0.1,1.1c-0.2,0.1-0.7,0.2-1.3,0.2
		c-0.7,0-1.2-0.2-1.6-0.6c-0.4-0.5-0.6-1.1-0.6-2.1v-4.4h-1.2v-1.1h1.2v-1.9L299.3,165.1z"/>
	<path d="M306.4,173.6c0.6,0.4,1.6,0.7,2.6,0.7c1.5,0,2.3-0.7,2.3-1.9c0-1.1-0.6-1.7-2.1-2.2c-1.8-0.6-2.9-1.6-2.9-3.2
		c0-1.7,1.5-3,3.6-3c1.1,0,1.9,0.2,2.4,0.6l-0.4,1.2c-0.4-0.2-1.1-0.5-2.2-0.5c-1.6,0-2.1,1-2.1,1.7c0,1.1,0.7,1.6,2.2,2.2
		c1.9,0.7,2.9,1.7,2.9,3.3c0,1.7-1.3,3.3-3.9,3.3c-1.1,0-2.3-0.4-2.9-0.7L306.4,173.6z"/>
	<path d="M316.5,165.1v2.3h2.1v1.1h-2.1v4.4c0,1,0.2,1.6,1.1,1.6c0.4,0,0.6,0,0.9-0.1l0.1,1.1c-0.2,0.1-0.7,0.2-1.3,0.2
		c-0.7,0-1.2-0.2-1.6-0.6c-0.4-0.5-0.6-1.1-0.6-2.1v-4.4h-1.2v-1.1h1.2v-1.9L316.5,165.1z"/>
	<path d="M327.5,171.3c0,3-2.1,4.3-4,4.3c-2.2,0-3.9-1.6-3.9-4.1c0-2.7,1.8-4.3,4-4.3C325.9,167.2,327.5,168.9,327.5,171.3z
		 M321,171.4c0,1.8,1,3.2,2.4,3.2s2.4-1.3,2.4-3.2c0-1.3-0.7-3.2-2.4-3.2S321,169.8,321,171.4z"/>
	<path d="M329.3,169.8c0-1,0-1.8-0.1-2.6h1.3v1.6h0.1c0.4-1.1,1.2-1.8,2.2-1.8c0.1,0,0.2,0,0.4,0v1.3c-0.1,0-0.2,0-0.5,0
		c-1.1,0-1.8,0.7-1.9,1.9c0,0.2-0.1,0.5-0.1,0.7v4.3h-1.5v-5.4H329.3z"/>
	<path d="M339.1,175.4l-0.1-1l0,0c-0.5,0.6-1.3,1.2-2.4,1.2c-1.6,0-2.4-1.1-2.4-2.3c0-1.9,1.7-3,4.9-3v-0.1c0-0.6-0.2-1.8-1.8-1.8
		c-0.7,0-1.6,0.2-2.1,0.6l-0.4-1c0.6-0.5,1.6-0.7,2.7-0.7c2.4,0,3,1.7,3,3.3v3c0,0.7,0,1.3,0.1,1.9L339.1,175.4L339.1,175.4
		L339.1,175.4z M338.9,171.3c-1.6,0-3.4,0.2-3.4,1.8c0,1,0.6,1.5,1.3,1.5c1.1,0,1.7-0.6,1.9-1.3c0-0.1,0.1-0.4,0.1-0.5L338.9,171.3
		L338.9,171.3z"/>
	<path d="M349.6,167.4c0,0.6-0.1,1.2-0.1,2.2v4.7c0,1.8-0.4,3-1.1,3.6c-0.7,0.7-1.9,1-2.9,1s-2.1-0.2-2.7-0.6l0.4-1.1
		c0.5,0.4,1.3,0.6,2.3,0.6c1.5,0,2.6-0.7,2.6-2.8v-0.9l0,0c-0.5,0.7-1.3,1.3-2.6,1.3c-1.9,0-3.4-1.7-3.4-3.9c0-2.7,1.8-4.3,3.6-4.3
		c1.5,0,2.2,0.7,2.6,1.5l0,0l0.1-1.2h1.2V167.4z M348.1,170.6c0-0.2,0-0.5-0.1-0.6c-0.2-0.9-1-1.6-2.1-1.6c-1.5,0-2.4,1.2-2.4,3
		c0,1.6,0.9,2.9,2.4,2.9c0.9,0,1.7-0.6,2.1-1.5c0.1-0.2,0.1-0.5,0.1-0.7V170.6z"/>
	<path d="M352.9,171.6c0,1.9,1.3,2.8,2.8,2.8c1.1,0,1.7-0.2,2.2-0.4l0.2,1.1c-0.5,0.2-1.5,0.5-2.7,0.5c-2.4,0-4-1.6-4-4
		s1.5-4.4,3.8-4.4c2.7,0,3.3,2.3,3.3,3.8c0,0.2,0,0.5,0,0.7h-5.6L352.9,171.6L352.9,171.6z M357.1,170.6c0-1-0.4-2.4-2.1-2.4
		c-1.5,0-2.2,1.3-2.3,2.4H357.1z"/>
</g>
<g>
	<path d="M395.8,228h2.7c0.8,0,1.3,0.2,1.6,0.7c0.2,0.2,0.3,0.5,0.3,0.9s-0.1,0.7-0.3,1c-0.2,0.2-0.3,0.2-0.5,0.4
		c0.3,0.2,0.5,0.2,0.7,0.4c0.3,0.3,0.5,0.7,0.5,1.2c0,0.4-0.2,0.8-0.4,1.1c-0.4,0.5-1,0.8-1.8,0.8h-2.7V228H395.8z M398.2,230.7
		c0.4,0,0.6-0.1,0.8-0.2c0.3-0.2,0.5-0.5,0.5-0.8c0-0.4-0.2-0.7-0.5-0.8c-0.2-0.1-0.5-0.2-0.8-0.2h-1.5v1.9L398.2,230.7L398.2,230.7
		L398.2,230.7z M398.6,233.6c0.5,0,0.9-0.2,1.2-0.5c0.2-0.2,0.2-0.5,0.2-0.7c0-0.5-0.2-0.8-0.6-0.9c-0.2-0.1-0.5-0.2-0.8-0.2h-1.7
		v2.2L398.6,233.6L398.6,233.6z"/>
	<path d="M401.6,228h0.8v6.3h-0.8V228z"/>
	<path d="M406.9,230.2c0.4,0.4,0.6,1,0.6,1.8s-0.2,1.4-0.5,1.8c-0.4,0.5-0.9,0.7-1.7,0.7c-0.6,0-1.2-0.2-1.5-0.6
		c-0.4-0.5-0.5-1-0.5-1.7c0-0.8,0.2-1.4,0.6-1.8c0.4-0.5,0.9-0.7,1.5-0.7C406,229.6,406.5,229.8,406.9,230.2z M406.4,233.3
		c0.2-0.4,0.3-0.8,0.3-1.3s-0.1-0.8-0.2-1.1c-0.2-0.5-0.6-0.6-1.1-0.6s-0.8,0.2-1,0.5c-0.2,0.4-0.3,0.8-0.3,1.3s0.1,0.9,0.3,1.2
		c0.2,0.3,0.5,0.5,1,0.5S406.2,233.7,406.4,233.3z"/>
	<path d="M411.5,230c0.3,0.2,0.5,0.7,0.6,1.3h-0.8c-0.1-0.3-0.2-0.5-0.3-0.7c-0.2-0.2-0.5-0.3-0.8-0.3c-0.5,0-0.8,0.2-1.1,0.7
		c-0.2,0.3-0.2,0.7-0.2,1.2s0.1,0.8,0.3,1.2s0.5,0.5,0.9,0.5c0.3,0,0.5-0.1,0.8-0.3c0.2-0.2,0.3-0.5,0.4-0.8h0.8
		c-0.1,0.6-0.3,1.1-0.6,1.3c-0.3,0.3-0.8,0.5-1.3,0.5c-0.6,0-1.1-0.2-1.5-0.7s-0.5-1-0.5-1.6c0-0.8,0.2-1.5,0.6-1.9
		c0.4-0.5,0.9-0.7,1.5-0.7C410.8,229.6,411.2,229.7,411.5,230z"/>
	<path d="M412.9,228h0.8v3.7l2-1.9h1l-1.8,1.7l1.8,2.9h-1l-1.5-2.3l-0.6,0.6v1.7h-0.8L412.9,228L412.9,228z"/>
	<path d="M420.4,232.3c0,0.4,0.1,0.6,0.2,0.8c0.3,0.4,0.8,0.6,1.5,0.6c0.3,0,0.6-0.1,0.8-0.2c0.5-0.2,0.8-0.5,0.8-0.9
		c0-0.3-0.1-0.6-0.3-0.8s-0.5-0.2-1-0.4l-0.8-0.2c-0.5-0.2-0.9-0.2-1.2-0.4c-0.4-0.2-0.6-0.7-0.6-1.2s0.2-1,0.5-1.4
		c0.4-0.4,0.9-0.5,1.6-0.5c0.6,0,1.2,0.2,1.6,0.5c0.5,0.3,0.7,0.8,0.7,1.5h-0.8c-0.1-0.3-0.2-0.6-0.2-0.8c-0.2-0.3-0.7-0.5-1.3-0.5
		c-0.5,0-0.8,0.1-1.1,0.3c-0.2,0.2-0.3,0.5-0.3,0.8s0.2,0.5,0.4,0.7c0.2,0.1,0.5,0.2,1.1,0.3l0.8,0.2c0.4,0.1,0.8,0.2,0.9,0.4
		c0.4,0.3,0.6,0.7,0.6,1.3c0,0.7-0.2,1.2-0.8,1.5c-0.5,0.3-1.1,0.5-1.7,0.5c-0.8,0-1.4-0.2-1.8-0.6c-0.5-0.4-0.6-0.9-0.6-1.6
		L420.4,232.3L420.4,232.3z"/>
	<path d="M425.7,228.4h0.8v1.3h0.8v0.6h-0.8v3c0,0.2,0.1,0.2,0.2,0.3c0.1,0,0.2,0.1,0.3,0.1c0,0,0.1,0,0.2,0s0.1,0,0.2,0v0.6
		c-0.1,0-0.2,0.1-0.3,0.1c-0.1,0-0.2,0-0.3,0c-0.4,0-0.6-0.1-0.8-0.3c-0.2-0.2-0.2-0.5-0.2-0.7v-3.1H425v-0.6h0.6L425.7,228.4
		L425.7,228.4z"/>
	<path d="M431.4,230.2c0.4,0.4,0.6,1,0.6,1.8s-0.2,1.4-0.5,1.8s-0.9,0.7-1.7,0.7c-0.6,0-1.2-0.2-1.5-0.6c-0.4-0.5-0.5-1-0.5-1.7
		c0-0.8,0.2-1.4,0.6-1.8s0.9-0.7,1.5-0.7C430.5,229.6,430.9,229.8,431.4,230.2z M430.8,233.3c0.2-0.4,0.3-0.8,0.3-1.3
		s-0.1-0.8-0.2-1.1c-0.2-0.5-0.6-0.6-1.1-0.6s-0.8,0.2-1,0.5c-0.2,0.4-0.3,0.8-0.3,1.3s0.1,0.9,0.3,1.2c0.2,0.3,0.5,0.5,1,0.5
		S430.7,233.7,430.8,233.3z"/>
	<path d="M432.9,229.7h0.8v0.8c0.1-0.2,0.2-0.3,0.5-0.5c0.2-0.2,0.5-0.3,0.8-0.3c0,0,0,0,0.1,0s0.1,0,0.2,0v0.8c-0.1,0-0.1,0-0.2,0
		s-0.1,0-0.2,0c-0.4,0-0.7,0.2-0.9,0.4c-0.2,0.2-0.3,0.5-0.3,0.8v2.6h-0.8V229.7L432.9,229.7z"/>
	<path d="M438.3,231.5c0.2,0,0.3-0.1,0.4-0.2c0-0.1,0.1-0.2,0.1-0.3c0-0.2-0.1-0.5-0.3-0.5c-0.2-0.2-0.5-0.2-0.8-0.2
		c-0.4,0-0.7,0.1-0.8,0.3c-0.1,0.2-0.2,0.3-0.2,0.5H436c0-0.5,0.2-1,0.5-1.2c0.4-0.2,0.8-0.3,1.2-0.3c0.5,0,1,0.1,1.3,0.3
		s0.5,0.5,0.5,1v2.6c0,0.1,0,0.2,0.1,0.2c0,0.1,0.1,0.1,0.2,0.1c0,0,0.1,0,0.2,0s0.1,0,0.2,0v0.5c-0.2,0-0.2,0.1-0.3,0.1
		c-0.1,0-0.2,0-0.2,0c-0.2,0-0.5-0.1-0.6-0.3c-0.1-0.1-0.1-0.2-0.2-0.5c-0.2,0.2-0.4,0.4-0.7,0.5s-0.6,0.2-1,0.2
		c-0.5,0-0.8-0.2-1.1-0.4c-0.3-0.2-0.4-0.6-0.4-1c0-0.5,0.2-0.8,0.4-1c0.2-0.2,0.6-0.4,1.1-0.5L438.3,231.5z M436.7,233.7
		c0.2,0.2,0.4,0.2,0.6,0.2c0.3,0,0.5-0.1,0.8-0.2c0.5-0.2,0.6-0.5,0.6-1v-0.6c-0.1,0.1-0.2,0.1-0.4,0.2c-0.2,0.1-0.3,0.1-0.5,0.1
		l-0.5,0.1c-0.3,0-0.5,0.1-0.6,0.2c-0.2,0.2-0.4,0.4-0.4,0.6C436.5,233.4,436.5,233.5,436.7,233.7z"/>
	<path d="M443.3,229.9c0.2,0.1,0.3,0.2,0.5,0.5v-0.6h0.7v4.2c0,0.6-0.1,1.1-0.2,1.4c-0.3,0.6-0.9,0.9-1.8,0.9
		c-0.5,0-0.9-0.1-1.2-0.3s-0.5-0.5-0.5-1.1h0.8c0,0.2,0.1,0.4,0.2,0.5c0.2,0.2,0.5,0.2,0.8,0.2c0.6,0,1-0.2,1.2-0.6
		c0.1-0.2,0.2-0.7,0.2-1.3c-0.2,0.2-0.3,0.4-0.5,0.5s-0.5,0.2-0.8,0.2c-0.5,0-0.9-0.2-1.3-0.5c-0.4-0.4-0.5-0.9-0.5-1.8
		c0-0.8,0.2-1.4,0.5-1.8c0.4-0.5,0.8-0.6,1.4-0.6C442.7,229.7,443,229.7,443.3,229.9z M443.4,230.7c-0.2-0.3-0.5-0.4-0.9-0.4
		c-0.5,0-0.9,0.2-1.1,0.8c-0.1,0.3-0.2,0.6-0.2,1.1s0.1,0.9,0.3,1.2c0.2,0.3,0.5,0.4,0.8,0.4c0.5,0,0.9-0.2,1.2-0.8
		c0.2-0.3,0.2-0.6,0.2-1C443.8,231.4,443.6,231,443.4,230.7z"/>
	<path d="M448.5,229.8c0.3,0.2,0.5,0.4,0.7,0.6c0.2,0.2,0.2,0.5,0.3,0.8c0.1,0.2,0.1,0.5,0.1,1h-3.4c0,0.5,0.2,0.8,0.3,1.2
		c0.2,0.3,0.5,0.5,0.9,0.5s0.7-0.2,0.9-0.4c0.2-0.2,0.2-0.3,0.3-0.5h0.8c0,0.2-0.1,0.4-0.2,0.5c-0.1,0.2-0.2,0.4-0.4,0.5
		c-0.2,0.2-0.5,0.4-0.8,0.5c-0.2,0.1-0.4,0.1-0.6,0.1c-0.5,0-1.1-0.2-1.5-0.6c-0.4-0.4-0.6-1-0.6-1.8s0.2-1.3,0.6-1.8
		s0.9-0.7,1.5-0.7C447.8,229.6,448.1,229.7,448.5,229.8z M448.8,231.7c0-0.3-0.1-0.6-0.2-0.8c-0.2-0.4-0.5-0.5-1.1-0.5
		c-0.4,0-0.6,0.2-0.9,0.4c-0.2,0.2-0.4,0.6-0.4,1L448.8,231.7L448.8,231.7z"/>
</g>
<g>
	<path d="M507.1,229.2c0.4,0.5,0.6,1.2,0.6,2c0,0.9-0.2,1.6-0.7,2.3s-1.3,1-2.3,1c-0.9,0-1.7-0.3-2.2-0.9c-0.4-0.6-0.7-1.3-0.7-2.3
		c0-0.8,0.2-1.5,0.6-2c0.5-0.7,1.3-1.1,2.3-1.1C505.9,228.2,506.6,228.6,507.1,229.2z M506.5,233.1c0.3-0.5,0.5-1.1,0.5-1.7
		c0-0.7-0.2-1.2-0.6-1.7s-0.9-0.7-1.5-0.7s-1.1,0.2-1.5,0.7c-0.4,0.4-0.6,1-0.6,1.9c0,0.7,0.1,1.2,0.5,1.7c0.4,0.4,0.9,0.7,1.6,0.7
		C505.6,233.8,506.1,233.6,506.5,233.1z"/>
	<path d="M508.6,228.3h0.7v2.2c0.1-0.2,0.4-0.4,0.6-0.5s0.4-0.1,0.7-0.1c0.5,0,1,0.2,1.3,0.6c0.4,0.4,0.5,0.9,0.5,1.7
		c0,0.7-0.1,1.2-0.5,1.7c-0.4,0.5-0.8,0.7-1.4,0.7c-0.4,0-0.6-0.1-0.9-0.2c-0.1-0.1-0.3-0.2-0.4-0.4v0.6h-0.7L508.6,228.3
		L508.6,228.3z M511.3,233.4c0.2-0.3,0.3-0.7,0.3-1.2c0-0.4-0.1-0.9-0.3-1.2s-0.5-0.4-0.9-0.4s-0.7,0.1-0.9,0.4
		c-0.2,0.2-0.4,0.7-0.4,1.2c0,0.4,0.1,0.7,0.1,1c0.2,0.5,0.6,0.7,1.1,0.7C510.8,233.9,511.1,233.7,511.3,233.4z"/>
	<path d="M512.6,235.5c0.4,0,0.5-0.1,0.6-0.1s0.1-0.2,0.1-0.4v-4.9h0.7v4.9c0,0.3-0.1,0.6-0.1,0.7c-0.1,0.3-0.5,0.4-0.9,0.4h-0.1
		c-0.1,0-0.1,0-0.2,0L512.6,235.5L512.6,235.5z M514,229.2h-0.7v-0.9h0.7V229.2z"/>
	<path d="M517.8,230.1c0.3,0.1,0.5,0.4,0.7,0.6c0.1,0.2,0.2,0.5,0.3,0.8c0.1,0.2,0.1,0.5,0.1,0.9h-3.2c0,0.4,0.1,0.8,0.3,1.1
		s0.5,0.4,0.9,0.4s0.7-0.1,0.9-0.4c0.1-0.1,0.2-0.3,0.3-0.5h0.7c0,0.1-0.1,0.4-0.2,0.5c-0.1,0.2-0.2,0.4-0.4,0.5
		c-0.2,0.2-0.5,0.4-0.8,0.4c-0.1,0.1-0.4,0.1-0.6,0.1c-0.5,0-1-0.2-1.4-0.6c-0.4-0.4-0.6-0.9-0.6-1.7c0-0.7,0.2-1.2,0.6-1.7
		c0.4-0.4,0.9-0.7,1.5-0.7C517.2,229.9,517.5,229.9,517.8,230.1z M518,231.8c0-0.3-0.1-0.6-0.2-0.7c-0.2-0.4-0.5-0.5-1-0.5
		c-0.4,0-0.6,0.1-0.9,0.4c-0.2,0.2-0.4,0.6-0.4,0.9L518,231.8L518,231.8z"/>
	<path d="M522.6,230.2c0.3,0.2,0.5,0.7,0.6,1.2h-0.7c-0.1-0.3-0.1-0.5-0.3-0.7s-0.4-0.3-0.7-0.3c-0.4,0-0.8,0.2-1,0.7
		c-0.1,0.3-0.2,0.7-0.2,1.1c0,0.4,0.1,0.8,0.3,1.1s0.5,0.4,0.9,0.4c0.3,0,0.5-0.1,0.7-0.3s0.3-0.4,0.4-0.7h0.7
		c-0.1,0.6-0.3,1-0.6,1.2c-0.3,0.3-0.7,0.4-1.2,0.4c-0.6,0-1-0.2-1.4-0.7c-0.4-0.4-0.5-0.9-0.5-1.5c0-0.8,0.2-1.4,0.6-1.8
		c0.4-0.4,0.9-0.7,1.5-0.7C521.9,229.9,522.3,230,522.6,230.2z"/>
	<path d="M524,228.8h0.7v1.2h0.7v0.6h-0.7v2.8c0,0.1,0.1,0.2,0.1,0.3c0.1,0,0.1,0.1,0.3,0.1h0.1c0.1,0,0.1,0,0.1,0v0.6
		c-0.1,0-0.1,0.1-0.3,0.1c-0.1,0-0.2,0-0.3,0c-0.4,0-0.6-0.1-0.7-0.3c-0.1-0.2-0.2-0.4-0.2-0.7v-2.9h-0.6V230h0.6L524,228.8
		L524,228.8z"/>
	<path d="M529.1,232.4c0,0.4,0.1,0.6,0.2,0.8c0.3,0.4,0.7,0.6,1.4,0.6c0.3,0,0.6-0.1,0.8-0.1c0.4-0.1,0.7-0.4,0.7-0.9
		c0-0.3-0.1-0.6-0.3-0.7s-0.5-0.2-0.9-0.4l-0.8-0.2c-0.5-0.1-0.9-0.2-1.1-0.4c-0.4-0.2-0.6-0.7-0.6-1.1c0-0.5,0.1-0.9,0.5-1.3
		c0.4-0.4,0.9-0.5,1.5-0.5s1.1,0.1,1.5,0.4c0.4,0.3,0.7,0.8,0.7,1.5H532c-0.1-0.3-0.1-0.6-0.2-0.7c-0.2-0.3-0.7-0.4-1.2-0.4
		c-0.4,0-0.8,0.1-1,0.3s-0.3,0.4-0.3,0.7s0.1,0.5,0.4,0.7c0.1,0.1,0.5,0.2,1,0.3l0.8,0.2c0.4,0.1,0.7,0.2,0.9,0.4
		c0.4,0.3,0.6,0.7,0.6,1.2c0,0.7-0.2,1.2-0.7,1.5c-0.4,0.3-1,0.4-1.6,0.4c-0.7,0-1.3-0.2-1.7-0.6c-0.4-0.4-0.6-0.9-0.6-1.5
		L529.1,232.4L529.1,232.4z"/>
	<path d="M534.2,228.8h0.7v1.2h0.7v0.6h-0.7v2.8c0,0.1,0.1,0.2,0.1,0.3c0.1,0,0.1,0.1,0.3,0.1h0.1c0.1,0,0.1,0,0.1,0v0.6
		c-0.1,0-0.1,0.1-0.3,0.1c-0.1,0-0.2,0-0.3,0c-0.4,0-0.6-0.1-0.7-0.3c-0.1-0.2-0.2-0.4-0.2-0.7v-2.9h-0.6V230h0.6L534.2,228.8
		L534.2,228.8z"/>
	<path d="M539.5,230.5c0.4,0.4,0.6,0.9,0.6,1.7c0,0.7-0.1,1.3-0.5,1.7s-0.9,0.7-1.6,0.7c-0.6,0-1.1-0.2-1.4-0.6
		c-0.3-0.4-0.5-0.9-0.5-1.6c0-0.7,0.2-1.3,0.6-1.7c0.4-0.4,0.9-0.7,1.5-0.7C538.7,229.9,539.1,230.1,539.5,230.5z M539,233.4
		c0.1-0.4,0.3-0.8,0.3-1.2s-0.1-0.7-0.2-1c-0.2-0.4-0.6-0.6-1-0.6s-0.8,0.1-0.9,0.5c-0.2,0.4-0.3,0.7-0.3,1.2c0,0.4,0.1,0.9,0.3,1.2
		s0.5,0.4,0.9,0.4C538.5,233.9,538.9,233.7,539,233.4z"/>
	<path d="M541,230h0.7v0.7c0.1-0.1,0.2-0.3,0.4-0.5s0.5-0.3,0.8-0.3h0.1h0.1v0.8c-0.1,0-0.1,0-0.1,0c-0.1,0-0.1,0-0.1,0
		c-0.4,0-0.7,0.1-0.9,0.4c-0.2,0.2-0.3,0.5-0.3,0.8v2.5H541V230L541,230z"/>
	<path d="M546.1,231.7c0.1,0,0.3-0.1,0.4-0.2c0-0.1,0.1-0.1,0.1-0.3s-0.1-0.4-0.3-0.5c-0.1-0.1-0.4-0.1-0.7-0.1
		c-0.4,0-0.7,0.1-0.8,0.3c-0.1,0.1-0.1,0.3-0.1,0.5H544c0-0.5,0.2-0.9,0.5-1.1c0.4-0.2,0.7-0.3,1.2-0.3s0.9,0.1,1.2,0.3
		s0.5,0.5,0.5,0.9v2.5c0,0.1,0,0.1,0.1,0.2c0,0.1,0.1,0.1,0.2,0.1h0.1h0.1v0.5c-0.1,0-0.2,0.1-0.3,0.1s-0.1,0-0.2,0
		c-0.2,0-0.4-0.1-0.6-0.3c-0.1-0.1-0.1-0.2-0.1-0.4c-0.1,0.2-0.4,0.4-0.7,0.5s-0.6,0.2-0.9,0.2c-0.4,0-0.7-0.1-1-0.4
		c-0.3-0.2-0.4-0.6-0.4-0.9c0-0.4,0.1-0.7,0.4-0.9c0.2-0.2,0.6-0.4,1-0.4L546.1,231.7z M544.5,233.7c0.1,0.1,0.4,0.2,0.6,0.2
		c0.3,0,0.5-0.1,0.7-0.1c0.4-0.2,0.6-0.5,0.6-0.9v-0.6c-0.1,0.1-0.2,0.1-0.4,0.1c-0.1,0.1-0.3,0.1-0.4,0.1l-0.4,0.1
		c-0.3,0-0.4,0.1-0.6,0.1c-0.2,0.1-0.4,0.4-0.4,0.6C544.3,233.4,544.4,233.6,544.5,233.7z"/>
	<path d="M550.8,230.2c0.1,0.1,0.3,0.2,0.4,0.4V230h0.7v3.9c0,0.6-0.1,1-0.2,1.3c-0.3,0.6-0.9,0.9-1.7,0.9c-0.4,0-0.9-0.1-1.2-0.3
		s-0.5-0.5-0.5-1h0.7c0,0.2,0.1,0.4,0.2,0.4c0.1,0.1,0.4,0.2,0.8,0.2c0.6,0,0.9-0.2,1.1-0.6c0.1-0.2,0.1-0.7,0.1-1.2
		c-0.1,0.2-0.3,0.4-0.5,0.5s-0.5,0.1-0.8,0.1c-0.4,0-0.9-0.1-1.2-0.5c-0.4-0.4-0.5-0.9-0.5-1.7c0-0.7,0.1-1.3,0.5-1.7
		s0.8-0.6,1.3-0.6C550.2,229.9,550.5,230,550.8,230.2z M550.9,231c-0.2-0.3-0.5-0.4-0.9-0.4c-0.5,0-0.9,0.2-1,0.7
		c-0.1,0.3-0.1,0.6-0.1,1c0,0.5,0.1,0.9,0.3,1.1c0.2,0.3,0.4,0.4,0.8,0.4c0.5,0,0.9-0.2,1.1-0.7c0.1-0.3,0.1-0.6,0.1-0.9
		C551.2,231.6,551.1,231.3,550.9,231z"/>
	<path d="M555.7,230.1c0.3,0.1,0.5,0.4,0.7,0.6c0.1,0.2,0.2,0.5,0.3,0.8c0.1,0.2,0.1,0.5,0.1,0.9h-3.2c0,0.4,0.1,0.8,0.3,1.1
		s0.5,0.4,0.9,0.4s0.7-0.1,0.9-0.4c0.1-0.1,0.2-0.3,0.3-0.5h0.7c0,0.1-0.1,0.4-0.2,0.5c-0.1,0.2-0.2,0.4-0.4,0.5
		c-0.2,0.2-0.5,0.4-0.8,0.4c-0.1,0.1-0.4,0.1-0.6,0.1c-0.5,0-1-0.2-1.4-0.6c-0.4-0.4-0.6-0.9-0.6-1.7c0-0.7,0.2-1.2,0.6-1.7
		c0.4-0.4,0.9-0.7,1.5-0.7C555.1,229.9,555.4,229.9,555.7,230.1z M556,231.8c0-0.3-0.1-0.6-0.2-0.7c-0.2-0.4-0.5-0.5-1-0.5
		c-0.4,0-0.6,0.1-0.9,0.4c-0.2,0.2-0.4,0.6-0.4,0.9L556,231.8L556,231.8z"/>
</g>
<g>
	<path d="M472,173.8l-0.1-0.5l0,0c-0.2,0.4-0.7,0.7-1.4,0.7c-0.9,0-1.4-0.6-1.4-1.3c0-1.1,0.9-1.7,2.7-1.7v-0.1c0-0.4-0.1-1-1-1
		c-0.4,0-0.8,0.2-1.2,0.3l-0.2-0.5c0.4-0.2,0.9-0.4,1.5-0.4c1.4,0,1.7,0.9,1.7,1.8v1.7c0,0.4,0,0.8,0.1,1.1L472,173.8L472,173.8z
		 M471.8,171.5c-0.9,0-1.9,0.2-1.9,1c0,0.5,0.4,0.8,0.8,0.8c0.6,0,0.9-0.4,1.1-0.8c0-0.1,0.1-0.2,0.1-0.2v-0.8H471.8z"/>
	<path d="M474,170.5c0-0.5,0-0.8,0-1.2h0.7l0.1,0.8l0,0c0.2-0.5,0.8-0.8,1.5-0.8c0.6,0,1.6,0.4,1.6,1.9v2.7H477v-2.5
		c0-0.7-0.2-1.3-1-1.3c-0.5,0-0.9,0.4-1.1,0.8c0,0.1-0.1,0.2-0.1,0.4v2.7H474V170.5z"/>
	<path d="M482.9,167.2v5.4c0,0.4,0,0.8,0,1.2h-0.7V173l0,0c-0.2,0.5-0.8,0.8-1.5,0.8c-1.1,0-1.9-0.9-1.9-2.3c0-1.5,0.9-2.4,2-2.4
		c0.7,0,1.2,0.3,1.4,0.7l0,0v-2.7L482.9,167.2L482.9,167.2z M482.1,171.1c0-0.1,0-0.2,0-0.3c-0.2-0.5-0.5-0.9-1.2-0.9
		c-0.8,0-1.3,0.8-1.3,1.7s0.5,1.6,1.3,1.6c0.5,0,1.1-0.4,1.2-1c0-0.1,0-0.2,0-0.4V171.1z"/>
</g>
<path class="st3" d="M563.8,167.8l-14.9-25.9c-1.1-2-3.3-3.3-5.6-3.3h-29.8c-2.3,0-4.5,1.3-5.6,3.3L493,167.8c-1.2,2-1.2,4.5,0,6.5
	l14.9,26.1c1.1,2.1,3.3,3.4,5.6,3.5h29.8c2.3-0.1,4.5-1.4,5.6-3.4l14.9-25.9C564.9,172.4,564.9,169.9,563.8,167.8z"/>
<path class="st4" d="M540.5,163.5l-20.5,1.9l-4,4l3.4,3.4l-3.4,5.9l25.1,25.1h2.1c2.3-0.1,4.5-1.4,5.6-3.4l10.4-18.1L540.5,163.5z"
	/>
<g id="art">
	<g>
		<path class="st5" d="M540.1,163.4h-23.5c-0.4,0-0.7,0.3-0.7,0.7l0,0v4.9c0,0.4,0.3,0.7,0.7,0.7h23.5c0.4,0,0.7-0.3,0.7-0.7v-4.9
			C540.8,163.7,540.5,163.4,540.1,163.4 M536.5,167.9c-0.8,0-1.4-0.6-1.4-1.4c0-0.8,0.6-1.4,1.4-1.4c0.8,0,1.4,0.6,1.4,1.4
			C537.9,167.3,537.2,167.9,536.5,167.9L536.5,167.9"/>
		<path class="st5" d="M540.1,172.7h-23.5c-0.4,0-0.7,0.3-0.7,0.7l0,0v4.9c0,0.4,0.3,0.7,0.7,0.7h23.5c0.4,0,0.7-0.3,0.7-0.7v-4.9
			C540.8,173,540.5,172.7,540.1,172.7 M536.5,177.3c-0.8,0-1.4-0.6-1.4-1.4s0.6-1.4,1.4-1.4c0.8,0,1.4,0.6,1.4,1.4
			S537.2,177.3,536.5,177.3L536.5,177.3"/>
	</g>
</g>
<g>
	<path class="st3" d="M457.1,167.9L442.2,142c-1.1-2-3.3-3.3-5.6-3.3h-29.8c-2.3,0-4.4,1.3-5.6,3.3l-14.9,25.8c-1.2,2-1.2,4.5,0,6.5
		l14.9,26c1.1,2,3.2,3.4,5.6,3.4h29.8c2.3-0.1,4.5-1.4,5.6-3.4l14.9-25.9C458.3,172.5,458.3,170,457.1,167.9z"/>
	<path class="st4" d="M432.5,157.7l-18.1,2.3l-3.4,9l2.8,2.8l-2.8,5.1l2.8,2.8l-2.8,5.1l19,19h6.7c2.3-0.1,4.5-1.4,5.6-3.4l12-20.9
		L432.5,157.7z"/>
	<polygon class="st5" points="427.4,173.5 427.4,179.8 411,179.8 411,184.9 432.5,184.9 432.5,173.5 	"/>
	<polygon class="st5" points="416.1,169 416.1,162.8 432.5,162.8 432.5,157.7 411,157.7 411,169 	"/>
	<polygon class="st5" points="418.9,165.6 418.9,171.8 411,171.8 411,176.9 424.6,176.9 424.6,170.7 432.5,170.7 432.5,165.6 	"/>
</g>
<g>
	<path d="M497.6,219.7c-1.2,0-2.3-0.4-3.1-1.3c-0.8-0.8-1.3-1.9-1.3-3.1c0-1.3,0.4-2.3,1.3-3.1c0.8-0.8,1.9-1.3,3.1-1.3
		c1.3,0,2.3,0.5,3.1,1.4l-0.8,0.7c-0.6-0.7-1.3-1.1-2.3-1.1c-0.9,0-1.7,0.3-2.3,0.9c-0.6,0.6-0.9,1.4-0.9,2.4s0.3,1.8,0.9,2.4
		c0.6,0.6,1.4,0.9,2.3,0.9c1,0,1.9-0.4,2.6-1.2l0.8,0.8c-0.4,0.5-0.9,0.8-1.4,1.1C498.9,219.6,498.3,219.7,497.6,219.7z"/>
	<path d="M503,219.5h-1.1v-8.4h1.1V219.5z"/>
	<path d="M504.7,214.4c0.6-0.6,1.3-0.9,2.1-0.9c0.9,0,1.6,0.3,2.1,0.9c0.6,0.6,0.8,1.3,0.8,2.2s-0.3,1.6-0.8,2.2
		c-0.6,0.6-1.3,0.9-2.1,0.9c-0.9,0-1.6-0.3-2.1-0.9c-0.6-0.6-0.8-1.3-0.8-2.2C503.9,215.8,504.2,215,504.7,214.4z M505.5,218.1
		c0.4,0.4,0.8,0.6,1.3,0.6s0.9-0.2,1.3-0.6c0.4-0.4,0.6-0.9,0.6-1.5s-0.2-1.1-0.6-1.5s-0.8-0.6-1.3-0.6s-0.9,0.2-1.3,0.6
		c-0.4,0.4-0.6,0.9-0.6,1.5C505,217.3,505.2,217.8,505.5,218.1z"/>
	<path d="M515.8,219.5h-1v-0.8l0,0c-0.2,0.3-0.4,0.5-0.8,0.7c-0.3,0.2-0.7,0.3-1.1,0.3c-0.7,0-1.3-0.2-1.6-0.7
		c-0.4-0.4-0.6-1-0.6-1.8v-3.5h1.1v3.3c0,1.1,0.5,1.6,1.4,1.6c0.4,0,0.8-0.2,1.1-0.5c0.3-0.4,0.4-0.8,0.4-1.2v-3.2h1.1V219.5z"/>
	<path d="M519.4,219.7c-0.7,0-1.4-0.3-1.9-0.9c-0.5-0.6-0.8-1.3-0.8-2.2s0.3-1.6,0.8-2.2c0.5-0.6,1.2-0.9,1.9-0.9
		c0.4,0,0.8,0.1,1.2,0.3c0.3,0.2,0.6,0.4,0.8,0.7l0,0v-0.8V211h1.1v8.4h-1v-0.8l0,0c-0.2,0.3-0.4,0.5-0.8,0.7
		C520.3,219.6,519.9,219.7,519.4,219.7z M519.6,218.7c0.5,0,0.9-0.2,1.3-0.6c0.4-0.4,0.5-0.9,0.5-1.5s-0.2-1.1-0.5-1.5
		c-0.4-0.4-0.8-0.6-1.3-0.6s-0.9,0.2-1.3,0.6c-0.4,0.4-0.5,0.9-0.5,1.5s0.2,1.1,0.5,1.5C518.7,218.5,519.1,218.7,519.6,218.7z"/>
	<path d="M528.6,219.7c-0.6,0-1.2-0.2-1.8-0.6c-0.6-0.4-1-1-1.1-1.7l1-0.4c0.1,0.5,0.4,0.9,0.7,1.2s0.8,0.5,1.2,0.5
		c0.5,0,0.9-0.1,1.2-0.4c0.3-0.2,0.5-0.6,0.5-1c0-0.5-0.2-0.8-0.5-1.1s-0.9-0.5-1.6-0.7c-0.7-0.2-1.3-0.5-1.7-0.9s-0.6-0.8-0.6-1.4
		c0-0.6,0.2-1.1,0.7-1.6c0.5-0.4,1.1-0.7,1.9-0.7c0.7,0,1.3,0.2,1.7,0.5c0.4,0.4,0.7,0.7,0.9,1.2l-1,0.4c-0.1-0.3-0.2-0.5-0.5-0.7
		s-0.6-0.3-1.1-0.3c-0.4,0-0.8,0.1-1.1,0.3s-0.4,0.5-0.4,0.9c0,0.3,0.1,0.6,0.4,0.8c0.3,0.2,0.7,0.4,1.2,0.6c0.4,0.1,0.8,0.3,1,0.4
		c0.3,0.1,0.6,0.3,0.8,0.5c0.3,0.2,0.5,0.5,0.6,0.8s0.2,0.7,0.2,1.1c0,0.4-0.1,0.8-0.3,1.1s-0.4,0.6-0.7,0.8s-0.6,0.3-0.9,0.4
		C529.2,219.6,528.9,219.7,528.6,219.7z"/>
	<path d="M534.7,219.6c-0.6,0-1.1-0.2-1.4-0.5c-0.3-0.3-0.5-0.8-0.5-1.4v-3h-1v-1h1V212h1.1v1.8h1.4v1h-1.4v2.9
		c0,0.6,0.3,0.9,0.8,0.9c0.2,0,0.4,0,0.5-0.1l0.4,0.9C535.3,219.5,535,219.6,534.7,219.6z"/>
	<path d="M536.8,214.4c0.6-0.6,1.3-0.9,2.1-0.9c0.9,0,1.6,0.3,2.1,0.9c0.6,0.6,0.8,1.3,0.8,2.2s-0.3,1.6-0.8,2.2
		c-0.6,0.6-1.3,0.9-2.1,0.9c-0.9,0-1.6-0.3-2.1-0.9c-0.6-0.6-0.8-1.3-0.8-2.2C536,215.8,536.3,215,536.8,214.4z M537.6,218.1
		c0.4,0.4,0.8,0.6,1.3,0.6s0.9-0.2,1.3-0.6c0.4-0.4,0.6-0.9,0.6-1.5s-0.2-1.1-0.6-1.5c-0.4-0.4-0.8-0.6-1.3-0.6s-0.9,0.2-1.3,0.6
		c-0.4,0.4-0.6,0.9-0.6,1.5C537.1,217.3,537.2,217.8,537.6,218.1z"/>
	<path d="M543.8,219.5h-1.1v-5.7h1v0.9l0,0c0.1-0.3,0.3-0.6,0.7-0.8c0.3-0.2,0.7-0.3,1-0.3s0.6,0,0.8,0.1l-0.4,1
		c-0.1-0.1-0.3-0.1-0.6-0.1c-0.4,0-0.7,0.2-1,0.5s-0.5,0.7-0.5,1.2L543.8,219.5L543.8,219.5z"/>
	<path d="M548.6,219.7c-0.6,0-1.1-0.2-1.5-0.5c-0.4-0.4-0.6-0.8-0.6-1.4c0-0.6,0.2-1.1,0.7-1.5s1.1-0.5,1.8-0.5
		c0.6,0,1.2,0.1,1.6,0.4V216c0-0.4-0.1-0.8-0.4-1c-0.3-0.3-0.6-0.4-1.1-0.4c-0.3,0-0.6,0.1-0.9,0.2c-0.3,0.1-0.4,0.4-0.5,0.6l-1-0.4
		c0.1-0.3,0.4-0.7,0.8-1c0.4-0.3,0.9-0.4,1.5-0.4c0.7,0,1.3,0.2,1.8,0.6c0.5,0.4,0.7,1,0.7,1.8v3.5h-1v-0.8l0,0
		C550.1,219.4,549.4,219.7,548.6,219.7z M548.8,218.7c0.4,0,0.9-0.2,1.2-0.5c0.4-0.3,0.5-0.7,0.5-1.2c-0.3-0.3-0.8-0.4-1.4-0.4
		c-0.5,0-0.9,0.1-1.2,0.3s-0.4,0.5-0.4,0.8s0.1,0.5,0.4,0.7S548.5,218.7,548.8,218.7z"/>
	<path d="M555.2,222.2c-0.7,0-1.2-0.2-1.7-0.5c-0.4-0.3-0.7-0.7-0.9-1.2l1-0.4c0.1,0.3,0.3,0.6,0.6,0.8s0.6,0.3,1,0.3
		c0.6,0,1.1-0.2,1.4-0.5c0.3-0.4,0.5-0.8,0.5-1.4v-0.6l0,0c-0.2,0.3-0.5,0.5-0.8,0.7s-0.7,0.3-1.2,0.3c-0.7,0-1.4-0.3-1.9-0.9
		c-0.5-0.6-0.8-1.3-0.8-2.2s0.3-1.6,0.8-2.2c0.5-0.6,1.2-0.9,1.9-0.9c0.4,0,0.8,0.1,1.2,0.3c0.3,0.2,0.6,0.4,0.8,0.7l0,0v-0.8h1v5.5
		c0,1-0.3,1.7-0.9,2.2C556.8,222,556.1,222.2,555.2,222.2z M555.3,218.7c0.5,0,0.9-0.2,1.3-0.6c0.4-0.4,0.5-0.9,0.5-1.5
		s-0.2-1.1-0.5-1.5c-0.4-0.4-0.8-0.6-1.3-0.6s-0.9,0.2-1.3,0.6c-0.4,0.4-0.5,0.9-0.5,1.5s0.2,1.1,0.5,1.5
		C554.4,218.5,554.8,218.7,555.3,218.7z"/>
	<path d="M562,219.7c-0.9,0-1.6-0.3-2.1-0.9c-0.5-0.6-0.8-1.3-0.8-2.2c0-0.8,0.3-1.6,0.8-2.2c0.5-0.6,1.2-0.9,2-0.9
		c0.9,0,1.5,0.3,2,0.8c0.5,0.6,0.8,1.3,0.8,2.2v0.2h-4.5c0,0.6,0.2,1,0.6,1.4c0.4,0.3,0.8,0.5,1.2,0.5c0.8,0,1.3-0.3,1.6-1l1,0.4
		c-0.2,0.4-0.5,0.8-0.9,1.1C563.2,219.5,562.7,219.7,562,219.7z M563.6,215.9c0-0.3-0.2-0.6-0.5-0.9c-0.3-0.3-0.7-0.4-1.2-0.4
		c-0.4,0-0.7,0.1-1,0.4c-0.3,0.3-0.5,0.6-0.6,1h3.3V215.9z"/>
</g>
<g>
	<path d="M386.5,219.5h-1.1V211h2.9c0.7,0,1.3,0.2,1.9,0.7c0.5,0.5,0.8,1.1,0.8,1.8s-0.3,1.3-0.8,1.8s-1.2,0.7-1.9,0.7h-1.8V219.5z
		 M386.5,215h1.8c0.5,0,0.8-0.2,1.1-0.5c0.3-0.3,0.4-0.6,0.4-1s-0.1-0.7-0.4-1s-0.6-0.5-1.1-0.5h-1.8V215z"/>
	<path d="M394.2,219.7c-0.9,0-1.6-0.3-2.1-0.9c-0.6-0.6-0.8-1.3-0.8-2.2c0-0.8,0.3-1.6,0.8-2.2c0.5-0.6,1.2-0.9,2.1-0.9
		s1.6,0.3,2.1,0.8c0.5,0.6,0.8,1.3,0.8,2.3v0.2h-4.6c0,0.6,0.2,1.1,0.6,1.4c0.4,0.3,0.8,0.5,1.3,0.5c0.8,0,1.3-0.3,1.6-1l1,0.4
		c-0.2,0.5-0.5,0.8-0.9,1.1C395.3,219.5,394.8,219.7,394.2,219.7z M395.7,215.9c0-0.3-0.2-0.6-0.5-1c-0.3-0.3-0.7-0.5-1.3-0.5
		c-0.4,0-0.8,0.1-1.1,0.4c-0.3,0.3-0.5,0.6-0.6,1h3.5V215.9z"/>
	<path d="M399,219.5h-1.1v-5.8h1v1l0,0c0.1-0.3,0.3-0.6,0.7-0.8c0.3-0.2,0.7-0.3,1-0.3s0.6,0,0.8,0.1l-0.4,1
		c-0.1-0.1-0.3-0.1-0.6-0.1c-0.4,0-0.7,0.2-1.1,0.5c-0.3,0.3-0.5,0.7-0.5,1.2v3.2L399,219.5L399,219.5z"/>
	<path d="M404.1,219.7c-0.6,0-1.2-0.2-1.6-0.5s-0.7-0.7-0.9-1.2l1-0.4c0.3,0.7,0.8,1.1,1.6,1.1c0.3,0,0.6-0.1,0.8-0.2
		c0.2-0.2,0.3-0.3,0.3-0.6c0-0.4-0.3-0.6-0.8-0.8l-1.2-0.3c-0.4-0.1-0.7-0.3-1.1-0.5c-0.3-0.3-0.5-0.6-0.5-1.1s0.2-0.9,0.7-1.3
		c0.5-0.3,1-0.5,1.6-0.5c0.5,0,1,0.1,1.4,0.4c0.4,0.2,0.7,0.6,0.9,1l-1,0.4c-0.2-0.5-0.7-0.8-1.3-0.8c-0.3,0-0.6,0.1-0.8,0.2
		c-0.2,0.1-0.3,0.3-0.3,0.5c0,0.3,0.3,0.6,0.8,0.7l1.2,0.3c0.5,0.1,1,0.3,1.2,0.7c0.3,0.3,0.4,0.7,0.4,1c0,0.5-0.2,1-0.6,1.3
		C405.3,219.5,404.8,219.7,404.1,219.7z"/>
	<path d="M408.5,212.2c-0.2,0.2-0.3,0.2-0.5,0.2s-0.4-0.1-0.5-0.2c-0.2-0.2-0.2-0.3-0.2-0.5s0.1-0.4,0.2-0.5
		c0.2-0.2,0.3-0.2,0.5-0.2s0.4,0.1,0.5,0.2c0.2,0.2,0.2,0.3,0.2,0.5S408.6,212,408.5,212.2z M408.5,219.5h-1.1v-5.8h1.1V219.5z"/>
	<path d="M412.1,219.7c-0.6,0-1.2-0.2-1.6-0.5s-0.7-0.7-0.9-1.2l1-0.4c0.3,0.7,0.8,1.1,1.6,1.1c0.3,0,0.6-0.1,0.8-0.2
		c0.2-0.2,0.3-0.3,0.3-0.6c0-0.4-0.3-0.6-0.8-0.8l-1.2-0.3c-0.4-0.1-0.7-0.3-1.1-0.5c-0.3-0.3-0.5-0.6-0.5-1.1s0.2-0.9,0.7-1.3
		c0.5-0.3,1-0.5,1.6-0.5c0.5,0,1,0.1,1.4,0.4c0.4,0.2,0.7,0.6,0.9,1l-1,0.4c-0.2-0.5-0.7-0.8-1.3-0.8c-0.3,0-0.6,0.1-0.8,0.2
		c-0.2,0.1-0.3,0.3-0.3,0.5c0,0.3,0.3,0.6,0.8,0.7l1.2,0.3c0.5,0.1,1,0.3,1.2,0.7c0.3,0.3,0.4,0.7,0.4,1c0,0.5-0.2,1-0.6,1.3
		C413.3,219.5,412.8,219.7,412.1,219.7z"/>
	<path d="M417.8,219.6c-0.6,0-1.1-0.2-1.4-0.5s-0.5-0.8-0.5-1.4v-3.1h-1v-1h1v-1.8h1.1v1.8h1.4v1H417v3c0,0.6,0.3,1,0.8,1
		c0.2,0,0.4,0,0.5-0.1l0.4,0.9C418.4,219.5,418.1,219.6,417.8,219.6z"/>
	<path d="M422.1,219.7c-0.9,0-1.6-0.3-2.1-0.9c-0.6-0.6-0.8-1.3-0.8-2.2c0-0.8,0.3-1.6,0.8-2.2c0.5-0.6,1.2-0.9,2.1-0.9
		s1.6,0.3,2.1,0.8c0.5,0.6,0.8,1.3,0.8,2.3v0.2h-4.6c0,0.6,0.2,1.1,0.6,1.4c0.4,0.3,0.8,0.5,1.3,0.5c0.8,0,1.3-0.3,1.6-1l1,0.4
		c-0.2,0.5-0.5,0.8-0.9,1.1C423.2,219.5,422.7,219.7,422.1,219.7z M423.6,215.9c0-0.3-0.2-0.6-0.5-1c-0.3-0.3-0.7-0.5-1.3-0.5
		c-0.4,0-0.8,0.1-1.1,0.4c-0.3,0.3-0.5,0.6-0.6,1h3.5V215.9z"/>
	<path d="M426.8,213.7v0.8l0,0c0.2-0.3,0.4-0.5,0.7-0.7c0.3-0.2,0.7-0.3,1.1-0.3c0.7,0,1.3,0.2,1.7,0.7c0.4,0.4,0.6,1,0.6,1.8v3.6
		h-1.1v-3.4c0-1.1-0.5-1.6-1.4-1.6c-0.5,0-0.8,0.2-1.1,0.5c-0.3,0.4-0.4,0.8-0.4,1.3v3.2h-1.1v-5.8h1L426.8,213.7L426.8,213.7z"/>
	<path d="M434.5,219.6c-0.6,0-1.1-0.2-1.4-0.5s-0.5-0.8-0.5-1.4v-3.1h-1v-1h1v-1.8h1.1v1.8h1.4v1h-1.4v3c0,0.6,0.3,1,0.8,1
		c0.2,0,0.4,0,0.5-0.1l0.4,0.9C435.1,219.5,434.8,219.6,434.5,219.6z"/>
	<path d="M438.9,219.5V211h2.6c1.3,0,2.4,0.4,3.1,1.2c0.8,0.8,1.2,1.8,1.2,3.1s-0.4,2.3-1.2,3.1c-0.8,0.8-1.8,1.2-3.1,1.2h-2.6
		V219.5z M440,218.4h1.5c1,0,1.8-0.3,2.3-0.8c0.6-0.6,0.9-1.4,0.9-2.4s-0.3-1.8-0.9-2.4c-0.6-0.6-1.4-0.8-2.3-0.8H440V218.4z"/>
	<path d="M448.2,212.2c-0.2,0.2-0.3,0.2-0.5,0.2s-0.4-0.1-0.5-0.2c-0.2-0.2-0.2-0.3-0.2-0.5s0.1-0.4,0.2-0.5
		c0.2-0.2,0.3-0.2,0.5-0.2s0.4,0.1,0.5,0.2c0.2,0.2,0.2,0.3,0.2,0.5S448.3,212,448.2,212.2z M448.2,219.5h-1.1v-5.8h1.1V219.5z"/>
	<path d="M451.8,219.7c-0.6,0-1.2-0.2-1.6-0.5s-0.7-0.7-0.9-1.2l1-0.4c0.3,0.7,0.8,1.1,1.6,1.1c0.3,0,0.6-0.1,0.8-0.2
		c0.2-0.2,0.3-0.3,0.3-0.6c0-0.4-0.3-0.6-0.8-0.8l-1.2-0.3c-0.4-0.1-0.7-0.3-1.1-0.5c-0.3-0.3-0.5-0.6-0.5-1.1s0.2-0.9,0.7-1.3
		c0.5-0.3,1-0.5,1.6-0.5c0.5,0,1,0.1,1.4,0.4c0.4,0.2,0.7,0.6,0.9,1l-1,0.4c-0.2-0.5-0.7-0.8-1.3-0.8c-0.3,0-0.6,0.1-0.8,0.2
		c-0.2,0.1-0.3,0.3-0.3,0.5c0,0.3,0.3,0.6,0.8,0.7l1.2,0.3c0.5,0.1,1,0.3,1.2,0.7c0.3,0.3,0.4,0.7,0.4,1c0,0.5-0.2,1-0.6,1.3
		C453,219.5,452.4,219.7,451.8,219.7z"/>
	<path d="M456.1,211v5.2l2.5-2.6h1.4l0,0l-2.3,2.3l2.4,3.5l0,0h-1.3l-1.8-2.7l-0.9,0.9v1.9H455V211H456.1z"/>
</g>
<path class="st6" d="M413.1,116c0.1-3.6,3-6.4,6.5-6.4c1.6,0,3.2,0.6,4.4,1.8l-1.3,1.2c-0.8-0.8-2-1.3-3.1-1.3
	c-2.5,0-4.6,2.1-4.6,4.6v0.1c-0.1,2.5,2,4.6,4.5,4.7h0.1c1.2,0.1,2.4-0.4,3.2-1.3c0.6-0.6,0.9-1.4,1-2.2h-4.2v-1.8h5.9
	c0.1,0.4,0.1,0.7,0.1,1.1c0,1.5-0.5,3-1.5,4.1c-1.2,1.2-2.8,1.9-4.4,1.8C416.1,122.5,413.1,119.6,413.1,116z"/>
<path class="st6" d="M430.4,114.2c-2.3,0-4.1,1.9-4.1,4.1c0,2.3,1.9,4.1,4.1,4.1c2.3,0,4.1-1.9,4.1-4.1s-1.8-4.1-4-4.1H430.4z
	 M430.4,120.8c-1.3,0-2.4-1.1-2.4-2.4v-0.1c0-1.3,1.1-2.3,2.3-2.3c1.3,0,2.3,1.1,2.3,2.3C432.8,119.6,431.8,120.8,430.4,120.8
	L430.4,120.8L430.4,120.8z"/>
<path class="st6" d="M439.4,114.2c-2.3,0-4.1,1.9-4.1,4.2c0,2.3,1.9,4.1,4.2,4.1c2.3,0,4.1-1.9,4.1-4.1s-1.8-4.1-4-4.1
	C439.5,114.2,439.5,114.2,439.4,114.2z M439.4,120.8c-1.3,0-2.4-1.1-2.4-2.4v-0.1c0-1.3,1.1-2.3,2.3-2.3s2.3,1.1,2.3,2.3
	C441.8,119.6,440.8,120.8,439.4,120.8C439.5,120.8,439.4,120.8,439.4,120.8L439.4,120.8z"/>
<path class="st6" d="M450.5,114.5v0.7h-0.1c-0.6-0.6-1.4-0.9-2.2-0.9c-2.3,0.1-4,2-4,4.3c0.1,2.1,1.8,3.9,4,4c0.8,0,1.6-0.3,2.2-0.9
	h0.1v0.6c0,1.6-0.8,2.4-2.2,2.4c-0.9,0-1.7-0.6-2.1-1.5l-1.6,0.7c0.6,1.5,2.1,2.5,3.7,2.4c2.1,0,3.9-1.3,3.9-4.3v-7.4L450.5,114.5
	L450.5,114.5z M448.4,120.8c-1.3,0-2.3-1.1-2.3-2.4v-0.1c-0.1-1.3,0.9-2.4,2.2-2.5c0,0,0,0,0.1,0c1.3,0.1,2.3,1.2,2.2,2.5l0,0
	C450.7,119.6,449.7,120.8,448.4,120.8L448.4,120.8z"/>
<rect x="453.5" y="110.1" class="st6" width="1.8" height="12.1"/>
<path class="st6" d="M460.3,120.8c-0.9,0-1.7-0.5-2-1.3l5.5-2.3l-0.2-0.5c-0.5-1.5-1.9-2.6-3.5-2.6c-2.2,0-3.9,1.7-3.9,3.9
	c0,0.1,0,0.2,0,0.2c-0.1,2.2,1.7,4.1,3.9,4.1c0.1,0,0.1,0,0.2,0c1.4,0,2.7-0.7,3.4-1.8l-1.4-0.9
	C461.9,120.4,461.1,120.8,460.3,120.8z M460.1,115.8c0.7-0.1,1.3,0.3,1.6,0.9l-3.7,1.6C457.9,117,458.8,115.9,460.1,115.8
	L460.1,115.8z"/>
<path class="st6" d="M467.4,116.6c-0.1-3.2,2.4-5.8,5.6-5.9c0.1,0,0.2,0,0.2,0c1.6,0,3.1,0.6,4.1,1.8l-1,1c-0.8-0.9-1.9-1.5-3.1-1.4
	c-2.4-0.1-4.3,1.8-4.4,4.2c0,0.1,0,0.2,0,0.3c-0.1,2.4,1.7,4.3,4.1,4.4c0.1,0,0.2,0,0.2,0c1.3,0,2.6-0.6,3.4-1.6l1,1
	c-2.1,2.4-5.8,2.6-8.3,0.5C468.1,119.9,467.4,118.3,467.4,116.6z"/>
<path class="st6" d="M478.8,122.2V111h1.4v11.2H478.8z"/>
<path class="st6" d="M489.2,118.4c0,2.2-1.8,3.9-3.9,3.9c-2.2,0-3.9-1.8-3.9-3.9s1.8-3.9,3.9-3.9
	C487.4,114.4,489.2,116.2,489.2,118.4z M487.7,118.4c0.1-1.4-0.9-2.6-2.3-2.7s-2.6,0.9-2.7,2.3c0,0.1,0,0.3,0,0.4
	c0,1.4,1.1,2.5,2.5,2.5S487.8,119.8,487.7,118.4L487.7,118.4z"/>
<path class="st6" d="M495.7,122.2v-1.1h-0.1c-0.5,0.8-1.4,1.3-2.4,1.3c-2,0-2.9-1.3-2.9-3.2v-4.7h1.4v4.5c0,1.6,0.8,2.1,1.9,2.1
	c1.2-0.1,2.1-1.1,2-2.3v-4.2h1.4v7.7L495.7,122.2L495.7,122.2z"/>
<path class="st6" d="M498.2,118.4c-0.1-2.1,1.5-3.9,3.6-4.1c1,0,2,0.5,2.6,1.3h0.1l-0.1-1.1V111h1.4v11.2h-1.4v-1.1h-0.1
	c-0.6,0.9-1.6,1.3-2.6,1.3C499.7,122.3,498.1,120.5,498.2,118.4z M504.5,118.4c0.2-1.3-0.8-2.6-2.2-2.7c-1.3-0.2-2.6,0.8-2.7,2.2
	c0,0.2,0,0.4,0,0.6c-0.2,1.3,0.8,2.6,2.2,2.7s2.6-0.8,2.7-2.2C504.6,118.8,504.6,118.6,504.5,118.4z"/>
<path class="st6" d="M509.8,122.2V111h3.8c1.9-0.1,3.4,1.4,3.5,3.3l0,0c0,1.9-1.6,3.4-3.5,3.3l0,0h-2.3v4.5L509.8,122.2L509.8,122.2
	z M513.7,116.3c1.1,0,2-0.9,2-2s-0.9-2-2-2h-2.5v3.9L513.7,116.3L513.7,116.3z"/>
<path class="st6" d="M518.2,122.2V111h1.4v11.2H518.2z"/>
<path class="st6" d="M520.9,119.9c0-1.7,1.6-2.7,3.4-2.7c0.7,0,1.4,0.1,2.1,0.5v-0.2c-0.1-1.1-1-2-2.2-1.9c-0.7,0-1.4,0.5-1.7,1.1
	l-1.3-0.6c0.9-1.7,3-2.4,4.7-1.5c1.1,0.6,1.8,1.7,1.9,2.9v4.6h-1.4V121h-0.1c-0.6,0.9-1.5,1.3-2.5,1.3
	C522.4,122.4,521.1,121.4,520.9,119.9C520.9,120,520.9,120,520.9,119.9z M526.3,118.9c-0.5-0.4-1.2-0.5-1.8-0.5
	c-1.5,0-2.1,0.8-2.1,1.5c0.1,0.8,0.8,1.3,1.6,1.2C525.2,121.2,526.2,120.2,526.3,118.9L526.3,118.9z"/>
<path class="st6" d="M529.8,119.9v-4h-1.3v-1.3h1.3v-2.3h1.4v2.3h1.9v1.3h-1.9v3.9c0,0.9,0.4,1.3,1,1.3c0.2,0,0.5,0,0.7-0.1l0.5,1.2
	c-0.4,0.1-0.8,0.2-1.2,0.2c-1.2,0.1-2.3-0.7-2.5-1.9C529.7,120.2,529.7,120.1,529.8,119.9z"/>
<path class="st6" d="M539.1,111.1l-0.5,1.2c-0.2-0.1-0.4-0.1-0.7-0.1c-0.7-0.1-1.2,0.4-1.3,1.1c0,0.1,0,0.1,0,0.2v1h1.9v1.3h-2v6.4
	h-1.4v-6.4h-1.4v-1.3h1.4v-1c0-1.4,1-2.5,2.4-2.6c0.1,0,0.2,0,0.3,0C538.3,110.9,538.7,111,539.1,111.1z"/>
<path class="st6" d="M547,118.4c0,2.2-1.8,3.9-3.9,3.9s-3.9-1.8-3.9-3.9s1.8-3.9,3.9-3.9S547,116.2,547,118.4z M545.5,118.4
	c0.1-1.4-0.9-2.6-2.3-2.7s-2.6,0.9-2.7,2.3c0,0.1,0,0.3,0,0.4c-0.1,1.4,0.9,2.6,2.3,2.7s2.6-0.9,2.7-2.3
	C545.5,118.6,545.5,118.5,545.5,118.4z"/>
<path class="st6" d="M548.1,122.2v-7.7h1.4v1.3h0.1c0.4-0.9,1.3-1.4,2.2-1.4c0.4,0,0.7,0,1.1,0.2l-0.5,1.3c-0.3-0.1-0.5-0.1-0.8-0.1
	c-1.1,0-2,1-2,2.2c0,0,0,0,0,0.1v4.2L548.1,122.2L548.1,122.2z"/>
<path class="st6" d="M553.6,114.5h1.4v1.1h0.1c0.5-0.8,1.4-1.3,2.3-1.3c1-0.1,2,0.5,2.4,1.5c0.6-0.9,1.6-1.5,2.7-1.5
	c1.9,0,2.7,1.3,2.7,3.2v4.7h-1.4v-4.5c0-1.6-0.6-2.1-1.7-2.1s-2,1.2-2,2.3v4.2h-1.4v-4.5c0-1.6-0.6-2.1-1.7-2.1c-1.1,0-2,1.2-2,2.3
	v4.2h-1.4L553.6,114.5L553.6,114.5z"/>
<path class="st7" d="M399.5,122.2l-2.3,3.9h-5.9c-0.5,0-1-0.3-1.3-0.7l-4.8-8.3c-0.3-0.5-0.3-1,0-1.5l1.8-3.2l2.2,3.9l3.4,5.9
	L399.5,122.2L399.5,122.2z"/>
<path class="st8" d="M406.9,117.1l-4.8,8.3c-0.3,0.5-0.7,0.7-1.3,0.7h-3.6l2.3-3.9l3.4-5.9l-3.4-5.9h4.4l3,5.1
	C407.2,116.1,407.2,116.6,406.9,117.1z"/>
<path class="st9" d="M404,110.5h-11.2l-3.4,5.9l-2.2-3.9l3-5.1c0.3-0.5,0.7-0.7,1.3-0.7h9.5c0.5,0,1,0.3,1.3,0.7L404,110.5z"/>
<path class="st10" d="M399.5,110.5l3.4,5.9l-3.4,5.9h-6.8l-3.4-5.9l3.4-5.9H399.5"/>
<circle class="st5" cx="396.1" cy="116.4" r="2.9"/>
<path class="st11" d="M390.1,107.4c0.3-0.5,0.7-0.7,1.3-0.7h9.5c0.5,0,1,0.3,1.3,0.7l1.8,3.1l0,0l-1.8-3.2c-0.3-0.5-0.7-0.7-1.3-0.7
	h-9.5C390.9,106.6,390.4,106.9,390.1,107.4l-3,5v0.1L390.1,107.4z"/>
<polyline class="st12" points="389.4,116.4 392.8,110.5 404,110.5 403.9,110.4 392.8,110.4 389.4,116.2 "/>
<path class="st11" d="M385.3,115.7l1.8-3.1l2.2,3.9l3.4,5.9h6.7l0.1-0.1h-6.8l-3.4-5.9l-2.2-3.9L385.3,115.7
	c-0.1,0.1-0.2,0.4-0.2,0.7C385.1,116.1,385.2,115.9,385.3,115.7z"/>
<g class="st13">
	<path class="st14" d="M397.3,126h-6c-0.5,0-1-0.3-1.3-0.7l-4.8-8.3c-0.1-0.2-0.2-0.4-0.2-0.7c0,0.3,0.1,0.5,0.2,0.8l4.8,8.3
		c0.3,0.5,0.7,0.7,1.3,0.7h5.9L397.3,126z"/>
</g>
<g class="st13">
	<polygon class="st15" points="403,116.4 399.6,110.5 399.5,110.5 402.9,116.4 	"/>
	<path class="st15" d="M406.9,117l-4.8,8.3c-0.3,0.5-0.7,0.7-1.3,0.7h-3.6l-0.1,0.1h3.6c0.5,0,1-0.3,1.3-0.7l4.8-8.3
		c0.1-0.2,0.2-0.5,0.2-0.8C407.1,116.5,407.1,116.8,406.9,117z"/>
</g>
<g class="st13">
	<path class="st5" d="M404,110.6l3,5.1c0.1,0.2,0.2,0.4,0.2,0.7c0-0.3-0.1-0.5-0.2-0.8l-3-5.2h-4.4l0.1,0.1"/>
	<polygon class="st5" points="399.5,122.4 403,116.4 402.9,116.4 399.5,122.2 397.3,126.1 397.3,126.1 	"/>
</g>
<radialGradient id="SVGID_1_" cx="-867.0858" cy="1833.2173" r="8.4724" gradientTransform="matrix(2.67 0 0 2.67 2703.1001 -4787.5)" gradientUnits="userSpaceOnUse">
	<stop  offset="0" style="stop-color:#FFFFFF;stop-opacity:0.1"/>
	<stop  offset="1" style="stop-color:#FFFFFF;stop-opacity:0"/>
</radialGradient>
<path class="st16" d="M406.9,115.6l-3-5.1l-1.8-3.2c-0.3-0.5-0.7-0.7-1.3-0.7h-9.5c-0.5,0-1,0.3-1.3,0.7l-4.8,8.3
	c-0.3,0.5-0.3,1,0,1.5l4.8,8.3c0.3,0.5,0.7,0.7,1.3,0.7h9.5c0.5,0,1-0.3,1.3-0.7l4.8-8.3C407.2,116.6,407.2,116.1,406.9,115.6z"/>
</svg>
