<?xml version="1.0" encoding="utf-8"?>
<!-- Generator: Adobe Illustrator 24.1.0, SVG Export Plug-In . SVG Version: 6.00 Build 0)  -->
<svg version="1.1" id="Layer_1" xmlns="http://www.w3.org/2000/svg" xmlns:xlink="http://www.w3.org/1999/xlink" x="0px" y="0px"
	 viewBox="0 0 700 265" style="enable-background:new 0 0 700 265;" xml:space="preserve">
<style type="text/css">
	.st0{display:none;}
	.st1{fill:none;stroke:#000000;stroke-width:2.5;stroke-miterlimit:10;}
	.st2{fill:#FFFFFF;stroke:#000000;stroke-width:2.5;stroke-miterlimit:10;}
	.st3{fill:#4285F4;}
	.st4{opacity:7.000000e-02;enable-background:new    ;}
	.st5{fill:#FFFFFF;}
	.st6{fill:#737373;}
	.st7{fill:#FFCC40;}
	.st8{fill:#DA4437;}
	.st9{fill:#4284F3;}
	.st10{fill:#DFDFDF;}
	.st11{opacity:0.2;fill:#FFFFFF;enable-background:new    ;}
	.st12{fill:#1A237E;fill-opacity:0.2;}
	.st13{opacity:0.2;}
	.st14{fill:#BE360C;}
	.st15{fill:#3E2723;}
	.st16{fill:url(#SVGID_1_);}
</style>
<g id="Layer_1_1_">
	<g class="st0">
		
			<image style="display:inline;overflow:visible;enable-background:new    ;" width="1805" height="368" xlink:href="cloud-vm-storage.png"  transform="matrix(1.0019 0 0 1.0019 -538.2466 -48.6067)">
		</image>
	</g>
	<g>
		<line class="st1" x1="88.3" y1="94.6" x2="88.3" y2="67.6"/>
		<line class="st1" x1="266.2" y1="94.6" x2="266.2" y2="67.6"/>
		<line class="st1" x1="446.3" y1="95.4" x2="446.3" y2="68.3"/>
		<line class="st1" x1="616.3" y1="97.5" x2="616.3" y2="70.5"/>
	</g>
	<line class="st1" x1="153" y1="40" x2="549.6" y2="40"/>
	<rect x="6.6" y="8" class="st2" width="154.5" height="64.4"/>
	<rect x="183.8" y="8" class="st2" width="154.5" height="64.4"/>
	<rect x="361.5" y="8" class="st2" width="154.5" height="64.4"/>
	<rect x="537.9" y="8" class="st2" width="154.5" height="64.4"/>
	<rect x="6.6" y="88.6" class="st2" width="685.9" height="169.2"/>
	<g>
		<path d="M53.7,44.4l-3-9.2H52l1.4,4.6c0.4,1.2,0.7,2.4,1,3.5l0,0c0.3-1.1,0.6-2.2,1.1-3.4l1.6-4.6h1.3l-3.3,9.2L53.7,44.4
			L53.7,44.4z"/>
		<path d="M67.1,40.3c-0.1-1.3-0.2-2.8-0.1-4l0,0c-0.3,1.1-0.7,2.2-1.2,3.5l-1.6,4.5h-0.9l-1.5-4.4c-0.4-1.3-0.8-2.5-1.1-3.6l0,0
			c0,1.2-0.1,2.7-0.2,4.1l-0.2,4h-1.1l0.6-9.2h1.5l1.6,4.5c0.4,1.1,0.7,2.2,0.9,3.1l0,0c0.2-0.9,0.6-1.9,1-3.1l1.6-4.5h1.5l0.6,9.2
			h-1.2L67.1,40.3z"/>
		<path d="M74.4,35.2v9.2h-1.2v-9.2H74.4z"/>
		<path d="M76.6,39.6c0-0.7,0-1.2-0.1-1.8h1.1l0.1,1.1l0,0c0.3-0.6,1.1-1.2,2.2-1.2c0.9,0,2.3,0.5,2.3,2.8v4H81v-3.8
			c0-1.1-0.4-2-1.5-2c-0.8,0-1.4,0.6-1.6,1.2c0,0.1-0.1,0.3-0.1,0.5v4h-1.2C76.6,44.4,76.6,39.6,76.6,39.6z"/>
		<path d="M84.1,43.2c0.4,0.2,1,0.5,1.6,0.5c0.9,0,1.3-0.4,1.3-1s-0.3-0.9-1.2-1.2c-1.2-0.4-1.8-1.1-1.8-1.9c0-1.1,0.9-1.9,2.3-1.9
			c0.7,0,1.3,0.2,1.6,0.4L87.6,39c-0.3-0.2-0.7-0.4-1.4-0.4c-0.7,0-1.1,0.4-1.1,0.9s0.4,0.8,1.3,1.1c1.2,0.4,1.7,1,1.7,2
			c0,1.2-0.9,2-2.5,2c-0.7,0-1.4-0.2-1.9-0.5L84.1,43.2z"/>
		<path d="M91.1,35.9v1.9h1.7v0.9h-1.7v3.6c0,0.8,0.2,1.3,0.9,1.3c0.3,0,0.5,0,0.7-0.1l0.1,0.9c-0.2,0.1-0.6,0.2-1.1,0.2
			c-0.6,0-1-0.2-1.3-0.5c-0.3-0.4-0.5-0.9-0.5-1.7v-3.6h-1v-0.9h1v-1.7L91.1,35.9z"/>
		<path d="M97.9,44.4l-0.1-0.8l0,0c-0.4,0.5-1.1,1-2,1c-1.3,0-2-0.9-2-1.9c0-1.6,1.4-2.5,4-2.5v-0.1c0-0.5-0.2-1.5-1.5-1.5
			c-0.6,0-1.3,0.2-1.7,0.5l-0.4-0.9c0.5-0.4,1.3-0.6,2.2-0.6c2,0,2.5,1.4,2.5,2.7v2.5c0,0.6,0,1.1,0.1,1.6H97.9z M97.7,41
			c-1.3,0-2.8,0.2-2.8,1.5c0,0.8,0.5,1.2,1.1,1.2c0.9,0,1.4-0.5,1.6-1.1c0-0.1,0.1-0.3,0.1-0.4C97.7,42.2,97.7,41,97.7,41z"/>
		<path d="M100.8,39.6c0-0.7,0-1.2-0.1-1.8h1.1l0.1,1.1l0,0c0.3-0.6,1.1-1.2,2.2-1.2c0.9,0,2.3,0.5,2.3,2.8v4h-1.2v-3.8
			c0-1.1-0.4-2-1.5-2c-0.8,0-1.4,0.6-1.6,1.2c-0.1,0.2-0.1,0.4-0.1,0.6v4h-1.2C100.8,44.5,100.8,39.6,100.8,39.6z"/>
		<path d="M113.2,44.2c-0.3,0.2-1,0.4-1.9,0.4c-2,0-3.3-1.4-3.3-3.4s1.4-3.5,3.6-3.5c0.7,0,1.3,0.2,1.7,0.3l-0.3,0.9
			c-0.3-0.2-0.7-0.3-1.4-0.3c-1.5,0-2.3,1.1-2.3,2.5c0,1.5,1,2.5,2.3,2.5c0.7,0,1.1-0.2,1.5-0.3L113.2,44.2z"/>
		<path d="M115.2,41.3c0,1.6,1.1,2.3,2.3,2.3c0.9,0,1.4-0.2,1.8-0.3l0.2,0.9c-0.4,0.2-1.2,0.4-2.2,0.4c-2,0-3.3-1.3-3.3-3.3
			s1.2-3.6,3.1-3.6c2.2,0,2.7,1.9,2.7,3.1c0,0.2,0,0.4,0,0.6h-4.6V41.3z M118.7,40.4c0-0.8-0.3-2-1.7-2c-1.2,0-1.8,1.1-1.9,2H118.7z
			"/>
	</g>
	<g>
		<path d="M229.8,44.4l-3-9.2h1.3l1.4,4.6c0.4,1.2,0.7,2.4,1,3.5l0,0c0.3-1.1,0.6-2.2,1.1-3.4l1.6-4.6h1.3l-3.3,9.2L229.8,44.4
			L229.8,44.4z"/>
		<path d="M243.3,40.3c-0.1-1.3-0.2-2.8-0.1-4l0,0c-0.3,1.1-0.7,2.2-1.2,3.5l-1.6,4.5h-0.9l-1.5-4.4c-0.4-1.3-0.8-2.5-1.1-3.6l0,0
			c0,1.2-0.1,2.7-0.2,4.1l-0.2,4h-1.1l0.6-9.2h1.5l1.6,4.5c0.4,1.1,0.7,2.2,0.9,3.1l0,0c0.2-0.9,0.6-1.9,1-3.1l1.6-4.5h1.5l0.6,9.2
			h-1.2L243.3,40.3z"/>
		<path d="M250.6,35.2v9.2h-1.2v-9.2H250.6z"/>
		<path d="M252.8,39.6c0-0.7,0-1.2-0.1-1.8h1.1l0.1,1.1l0,0c0.3-0.6,1.1-1.2,2.2-1.2c0.9,0,2.3,0.5,2.3,2.8v4h-1.2v-3.8
			c0-1.1-0.4-2-1.5-2c-0.8,0-1.4,0.6-1.6,1.2c-0.1,0.2-0.1,0.4-0.1,0.6v4h-1.2L252.8,39.6L252.8,39.6z"/>
		<path d="M260.2,43.2c0.4,0.2,1,0.5,1.6,0.5c0.9,0,1.3-0.4,1.3-1s-0.3-0.9-1.2-1.2c-1.2-0.4-1.8-1.1-1.8-1.9c0-1.1,0.9-1.9,2.3-1.9
			c0.7,0,1.3,0.2,1.6,0.4l-0.3,0.9c-0.3-0.2-0.7-0.4-1.4-0.4c-0.7,0-1.1,0.4-1.1,0.9s0.4,0.8,1.3,1.1c1.2,0.4,1.7,1,1.7,2
			c0,1.2-0.9,2-2.5,2c-0.7,0-1.4-0.2-1.9-0.5L260.2,43.2z"/>
		<path d="M267.3,35.9v1.9h1.7v0.9h-1.7v3.6c0,0.8,0.2,1.3,0.9,1.3c0.3,0,0.5,0,0.7-0.1l0.1,0.9c-0.2,0.1-0.6,0.2-1.1,0.2
			c-0.6,0-1-0.2-1.3-0.5c-0.3-0.4-0.5-0.9-0.5-1.7v-3.6h-1v-0.9h1v-1.7L267.3,35.9z"/>
		<path d="M274.1,44.4l-0.1-0.8l0,0c-0.4,0.5-1.1,1-2,1c-1.3,0-2-0.9-2-1.9c0-1.6,1.4-2.5,4-2.5v-0.1c0-0.5-0.2-1.5-1.5-1.5
			c-0.6,0-1.3,0.2-1.7,0.5l-0.3-0.8c0.5-0.4,1.3-0.6,2.2-0.6c2,0,2.5,1.4,2.5,2.7v2.5c0,0.6,0,1.1,0.1,1.6h-1.2V44.4z M273.9,41
			c-1.3,0-2.8,0.2-2.8,1.5c0,0.8,0.5,1.2,1.1,1.2c0.9,0,1.4-0.5,1.6-1.1c0-0.1,0.1-0.3,0.1-0.4L273.9,41L273.9,41z"/>
		<path d="M277,39.6c0-0.7,0-1.2-0.1-1.8h1.1l0.1,1.1l0,0c0.3-0.6,1.1-1.2,2.2-1.2c0.9,0,2.3,0.5,2.3,2.8v4h-1.2v-3.8
			c0-1.1-0.4-2-1.5-2c-0.8,0-1.4,0.6-1.6,1.2c-0.1,0.2-0.1,0.4-0.1,0.6v4H277V39.6L277,39.6z"/>
		<path d="M289.3,44.2c-0.3,0.2-1,0.4-1.9,0.4c-2,0-3.3-1.4-3.3-3.4s1.4-3.5,3.6-3.5c0.7,0,1.3,0.2,1.7,0.3l-0.3,0.9
			c-0.3-0.2-0.7-0.3-1.4-0.3c-1.5,0-2.3,1.1-2.3,2.5c0,1.5,1,2.5,2.3,2.5c0.7,0,1.1-0.2,1.5-0.3L289.3,44.2z"/>
		<path d="M291.3,41.3c0,1.6,1.1,2.3,2.3,2.3c0.9,0,1.4-0.2,1.8-0.3l0.2,0.9c-0.4,0.2-1.2,0.4-2.2,0.4c-2,0-3.3-1.3-3.3-3.3
			s1.2-3.6,3.1-3.6c2.2,0,2.7,1.9,2.7,3.1c0,0.2,0,0.4,0,0.6h-4.6V41.3z M294.9,40.4c0-0.8-0.3-2-1.7-2c-1.2,0-1.8,1.1-1.9,2H294.9z
			"/>
	</g>
	<g>
		<path d="M410.6,44.4l-3-9.2h1.3l1.4,4.6c0.4,1.2,0.7,2.4,1,3.5l0,0c0.3-1.1,0.6-2.2,1.1-3.4l1.6-4.6h1.3l-3.3,9.2L410.6,44.4
			L410.6,44.4z"/>
		<path d="M424,40.3c-0.1-1.3-0.2-2.8-0.1-4l0,0c-0.3,1.1-0.7,2.2-1.2,3.5l-1.6,4.5h-0.9l-1.5-4.4c-0.4-1.3-0.8-2.5-1.1-3.6l0,0
			c0,1.2-0.1,2.7-0.2,4.1l-0.2,4h-1.1l0.6-9.2h1.5l1.6,4.5c0.4,1.1,0.7,2.2,0.9,3.1l0,0c0.2-0.9,0.6-1.9,1-3.1l1.6-4.5h1.5l0.6,9.2
			h-1.2L424,40.3z"/>
		<path d="M431.3,35.2v9.2h-1.2v-9.2H431.3z"/>
		<path d="M433.5,39.6c0-0.7,0-1.2-0.1-1.8h1.1l0.1,1.1l0,0c0.3-0.6,1.1-1.2,2.2-1.2c0.9,0,2.3,0.5,2.3,2.8v4h-1.2v-3.8
			c0-1.1-0.4-2-1.5-2c-0.8,0-1.4,0.6-1.6,1.2c-0.1,0.2-0.1,0.4-0.1,0.6v4h-1.2L433.5,39.6L433.5,39.6z"/>
		<path d="M441,43.2c0.4,0.2,1,0.5,1.6,0.5c0.9,0,1.3-0.4,1.3-1s-0.3-0.9-1.2-1.2c-1.2-0.4-1.8-1.1-1.8-1.9c0-1.1,0.9-1.9,2.3-1.9
			c0.7,0,1.3,0.2,1.6,0.4l-0.3,0.9c-0.3-0.2-0.7-0.4-1.4-0.4c-0.7,0-1.1,0.4-1.1,0.9s0.4,0.8,1.3,1.1c1.2,0.4,1.7,1,1.7,2
			c0,1.2-0.9,2-2.5,2c-0.7,0-1.4-0.2-1.9-0.5L441,43.2z"/>
		<path d="M448,35.9v1.9h1.7v0.9H448v3.6c0,0.8,0.2,1.3,0.9,1.3c0.3,0,0.5,0,0.7-0.1l0.1,0.9c-0.2,0.1-0.6,0.2-1.1,0.2
			c-0.6,0-1-0.2-1.3-0.5c-0.3-0.4-0.5-0.9-0.5-1.7v-3.6h-1v-0.9h1v-1.7L448,35.9z"/>
		<path d="M454.8,44.4l-0.1-0.8l0,0c-0.4,0.5-1.1,1-2,1c-1.3,0-2-0.9-2-1.9c0-1.6,1.4-2.5,4-2.5v-0.1c0-0.5-0.2-1.5-1.5-1.5
			c-0.6,0-1.3,0.2-1.7,0.5l-0.3-0.8c0.5-0.4,1.3-0.6,2.2-0.6c2,0,2.5,1.4,2.5,2.7v2.5c0,0.6,0,1.1,0.1,1.6h-1.2V44.4z M454.6,41
			c-1.3,0-2.8,0.2-2.8,1.5c0,0.8,0.5,1.2,1.1,1.2c0.9,0,1.4-0.5,1.6-1.1c0-0.1,0.1-0.3,0.1-0.4L454.6,41L454.6,41z"/>
		<path d="M457.7,39.6c0-0.7,0-1.2-0.1-1.8h1.1l0.1,1.1l0,0c0.3-0.6,1.1-1.2,2.2-1.2c0.9,0,2.3,0.5,2.3,2.8v4h-1.2v-3.8
			c0-1.1-0.4-2-1.5-2c-0.8,0-1.4,0.6-1.6,1.2c-0.1,0.2-0.1,0.4-0.1,0.6v4h-1.2L457.7,39.6L457.7,39.6z"/>
		<path d="M470.1,44.2c-0.3,0.2-1,0.4-1.9,0.4c-2,0-3.3-1.4-3.3-3.4s1.4-3.5,3.6-3.5c0.7,0,1.3,0.2,1.7,0.3l-0.3,0.9
			c-0.3-0.2-0.7-0.3-1.4-0.3c-1.5,0-2.3,1.1-2.3,2.5c0,1.5,1,2.5,2.3,2.5c0.7,0,1.1-0.2,1.5-0.3L470.1,44.2z"/>
		<path d="M472.1,41.3c0,1.6,1.1,2.3,2.3,2.3c0.9,0,1.4-0.2,1.8-0.3l0.2,0.9c-0.4,0.2-1.2,0.4-2.2,0.4c-2,0-3.3-1.3-3.3-3.3
			s1.2-3.6,3.1-3.6c2.2,0,2.7,1.9,2.7,3.1c0,0.2,0,0.4,0,0.6h-4.6V41.3z M475.6,40.4c0-0.8-0.3-2-1.7-2c-1.2,0-1.8,1.1-1.9,2H475.6z
			"/>
	</g>
	<g>
		<path d="M581.6,44.4l-3-9.2h1.3l1.4,4.6c0.4,1.2,0.7,2.4,1,3.5l0,0c0.3-1.1,0.6-2.2,1.1-3.4l1.6-4.6h1.3l-3.3,9.2L581.6,44.4
			L581.6,44.4z"/>
		<path d="M595,40.3c-0.1-1.3-0.2-2.8-0.1-4l0,0c-0.3,1.1-0.7,2.2-1.2,3.5l-1.6,4.5h-0.9l-1.5-4.4c-0.4-1.3-0.8-2.5-1.1-3.6l0,0
			c0,1.2-0.1,2.7-0.2,4.1l-0.2,4h-1.1l0.6-9.2h1.5l1.6,4.5c0.4,1.1,0.7,2.2,0.9,3.1l0,0c0.2-0.9,0.6-1.9,1-3.1l1.6-4.5h1.5l0.6,9.2
			h-1.2L595,40.3z"/>
		<path d="M602.4,35.2v9.2h-1.2v-9.2H602.4z"/>
		<path d="M604.6,39.6c0-0.7,0-1.2-0.1-1.8h1.1l0.1,1.1l0,0c0.3-0.6,1.1-1.2,2.2-1.2c0.9,0,2.3,0.5,2.3,2.8v4H609v-3.8
			c0-1.1-0.4-2-1.5-2c-0.8,0-1.4,0.6-1.6,1.2c-0.1,0.2-0.1,0.4-0.1,0.6v4h-1.2L604.6,39.6L604.6,39.6z"/>
		<path d="M612,43.2c0.4,0.2,1,0.5,1.6,0.5c0.9,0,1.3-0.4,1.3-1s-0.3-0.9-1.2-1.2c-1.2-0.4-1.8-1.1-1.8-1.9c0-1.1,0.9-1.9,2.3-1.9
			c0.7,0,1.3,0.2,1.6,0.4l-0.3,0.9c-0.3-0.2-0.7-0.4-1.4-0.4S613,39,613,39.5s0.4,0.8,1.3,1.1c1.2,0.4,1.7,1,1.7,2
			c0,1.2-0.9,2-2.5,2c-0.7,0-1.4-0.2-1.9-0.5L612,43.2z"/>
		<path d="M619.1,35.9v1.9h1.7v0.9h-1.7v3.6c0,0.8,0.2,1.3,0.9,1.3c0.3,0,0.5,0,0.7-0.1l0.1,0.9c-0.2,0.1-0.6,0.2-1.1,0.2
			c-0.6,0-1-0.2-1.3-0.5c-0.3-0.4-0.5-0.9-0.5-1.7v-3.6h-1v-0.9h1v-1.7L619.1,35.9z"/>
		<path d="M625.8,44.4l-0.1-0.8l0,0c-0.4,0.5-1.1,1-2,1c-1.3,0-2-0.9-2-1.9c0-1.6,1.4-2.5,4-2.5v-0.1c0-0.5-0.2-1.5-1.5-1.5
			c-0.6,0-1.3,0.2-1.7,0.5l-0.3-0.8c0.5-0.4,1.3-0.6,2.2-0.6c2,0,2.5,1.4,2.5,2.7v2.5c0,0.6,0,1.1,0.1,1.6h-1.2V44.4z M625.6,41
			c-1.3,0-2.8,0.2-2.8,1.5c0,0.8,0.5,1.2,1.1,1.2c0.9,0,1.4-0.5,1.6-1.1c0-0.1,0.1-0.3,0.1-0.4L625.6,41L625.6,41z"/>
		<path d="M628.8,39.6c0-0.7,0-1.2-0.1-1.8h1.1l0.1,1.1l0,0c0.3-0.6,1.1-1.2,2.2-1.2c0.9,0,2.3,0.5,2.3,2.8v4h-1.2v-3.8
			c0-1.1-0.4-2-1.5-2c-0.8,0-1.4,0.6-1.6,1.2c-0.1,0.2-0.1,0.4-0.1,0.6v4h-1.2V39.6z"/>
		<path d="M641.1,44.2c-0.3,0.2-1,0.4-1.9,0.4c-2,0-3.3-1.4-3.3-3.4s1.4-3.5,3.6-3.5c0.7,0,1.3,0.2,1.7,0.3l-0.3,0.9
			c-0.3-0.2-0.7-0.3-1.4-0.3c-1.5,0-2.3,1.1-2.3,2.5c0,1.5,1,2.5,2.3,2.5c0.7,0,1.1-0.2,1.5-0.3L641.1,44.2z"/>
		<path d="M643.1,41.3c0,1.6,1.1,2.3,2.3,2.3c0.9,0,1.4-0.2,1.8-0.3l0.2,0.9c-0.4,0.2-1.2,0.4-2.2,0.4c-2,0-3.3-1.3-3.3-3.3
			s1.2-3.6,3.1-3.6c2.2,0,2.7,1.9,2.7,3.1c0,0.2,0,0.4,0,0.6h-4.6V41.3z M646.6,40.4c0-0.8-0.3-2-1.7-2c-1.2,0-1.8,1.1-1.9,2H646.6z
			"/>
	</g>
	<g>
		<path d="M130.2,164.2v4.7h5.5v-4.7h1.5v11.2h-1.5v-5.2h-5.5v5.2h-1.5v-11.2H130.2z"/>
		<path d="M141.4,165.1c0,0.5-0.4,0.9-1,0.9c-0.5,0-0.9-0.4-0.9-0.9s0.4-1,1-1S141.4,164.6,141.4,165.1z M139.8,175.4v-8h1.5v8
			H139.8z"/>
		<path d="M150.6,167.4c0,0.6-0.1,1.2-0.1,2.2v4.7c0,1.8-0.4,3-1.1,3.6c-0.7,0.7-1.9,1-2.9,1s-2.1-0.2-2.7-0.6l0.4-1.1
			c0.5,0.4,1.3,0.6,2.3,0.6c1.5,0,2.6-0.7,2.6-2.8v-0.9l0,0c-0.5,0.7-1.3,1.3-2.6,1.3c-1.9,0-3.4-1.7-3.4-3.9c0-2.7,1.8-4.3,3.6-4.3
			c1.5,0,2.2,0.7,2.6,1.5l0,0l0.1-1.2h1.2L150.6,167.4L150.6,167.4z M149.1,170.6c0-0.2,0-0.5-0.1-0.6c-0.2-0.9-1-1.6-2.1-1.6
			c-1.5,0-2.4,1.2-2.4,3c0,1.6,0.9,2.9,2.4,2.9c0.9,0,1.7-0.6,2.1-1.5c0.1-0.2,0.1-0.5,0.1-0.7V170.6z"/>
		<path d="M153,163.6h1.5v5l0,0c0.2-0.4,0.6-0.7,1.1-1s1-0.4,1.5-0.4c1.1,0,2.8,0.6,2.8,3.4v4.9h-1.5v-4.6c0-1.3-0.5-2.4-1.8-2.4
			c-1,0-1.7,0.6-1.9,1.5c-0.1,0.2-0.1,0.4-0.1,0.7v4.9h-1.5L153,163.6L153,163.6z"/>
		<path d="M162.3,163.6h1.5v11.8h-1.5V163.6z"/>
		<path d="M166.8,167.4l1.8,4.7c0.2,0.5,0.4,1.2,0.5,1.7l0,0c0.1-0.5,0.4-1.1,0.5-1.7l1.6-4.7h1.6l-2.2,5.7
			c-1.1,2.8-1.8,4.1-2.8,5.1c-0.7,0.6-1.5,0.9-1.8,1l-0.4-1.2c0.4-0.1,0.9-0.4,1.3-0.7c0.4-0.4,0.9-0.9,1.2-1.6
			c0.1-0.1,0.1-0.2,0.1-0.4c0-0.1,0-0.2-0.1-0.4l-3-7.4h1.7L166.8,167.4L166.8,167.4z"/>
		<path d="M179.4,171.9l-1.2,3.5h-1.5l3.8-11.2h1.7l3.9,11.2h-1.6l-1.2-3.5H179.4z M183.2,170.8l-1.1-3.3c-0.2-0.7-0.4-1.5-0.6-2.1
			l0,0c-0.1,0.6-0.4,1.3-0.6,2.1l-1.1,3.3H183.2z"/>
		<path d="M188,167.4l1.6,4.5c0.2,0.7,0.5,1.5,0.6,2.1l0,0c0.2-0.6,0.4-1.3,0.7-2.1l1.6-4.5h1.6l-3.2,8h-1.5l-3-8H188z"/>
		<path d="M199.8,175.4l-0.1-1l0,0c-0.5,0.6-1.3,1.2-2.4,1.2c-1.6,0-2.4-1.1-2.4-2.3c0-1.9,1.7-3,4.9-3v-0.1c0-0.6-0.2-1.8-1.8-1.8
			c-0.7,0-1.6,0.2-2.1,0.6l-0.4-1c0.6-0.5,1.6-0.7,2.7-0.7c2.4,0,3,1.7,3,3.3v3c0,0.7,0,1.3,0.1,1.9L199.8,175.4L199.8,175.4z
			 M199.6,171.3c-1.6,0-3.4,0.2-3.4,1.8c0,1,0.6,1.5,1.3,1.5c1.1,0,1.7-0.6,1.9-1.3c0-0.1,0.1-0.4,0.1-0.5L199.6,171.3L199.6,171.3z
			"/>
		<path d="M207.2,163.6h1.5v11.8h-1.5V163.6z"/>
		<path d="M205,165.1c0,0.5-0.4,0.9-1,0.9c-0.5,0-0.9-0.4-0.9-0.9s0.4-1,1-1C204.8,164.1,205,164.6,205,165.1z M203.4,175.4v-8h1.5
			v8H203.4z"/>
		<path d="M215.7,175.4l-0.1-1l0,0c-0.5,0.6-1.3,1.2-2.4,1.2c-1.6,0-2.4-1.1-2.4-2.3c0-1.9,1.7-3,4.9-3v-0.1c0-0.6-0.2-1.8-1.8-1.8
			c-0.7,0-1.6,0.2-2.1,0.6l-0.4-1c0.6-0.5,1.6-0.7,2.7-0.7c2.4,0,3,1.7,3,3.3v3c0,0.7,0,1.3,0.1,1.9L215.7,175.4L215.7,175.4z
			 M215.5,171.3c-1.6,0-3.4,0.2-3.4,1.8c0,1,0.6,1.5,1.3,1.5c1.1,0,1.7-0.6,1.9-1.3c0-0.1,0.1-0.4,0.1-0.5L215.5,171.3L215.5,171.3z
			"/>
		<path d="M219.2,175.4c0-0.6,0.1-1.3,0.1-2.1v-9.7h1.5v5.1l0,0c0.5-0.9,1.5-1.5,2.8-1.5c1.9,0,3.4,1.7,3.4,4.1
			c0,2.9-1.8,4.4-3.6,4.4c-1.2,0-2.1-0.5-2.7-1.5l0,0l-0.1,1.3h-1.4V175.4z M220.7,172.1c0,0.2,0,0.4,0.1,0.5c0.2,1,1.1,1.7,2.2,1.7
			c1.6,0,2.4-1.2,2.4-3.2c0-1.6-0.9-3-2.4-3c-1,0-1.9,0.7-2.2,1.8c0,0.1-0.1,0.4-0.1,0.6V172.1z"/>
		<path d="M228.7,163.6h1.5v11.8h-1.5V163.6z"/>
		<path d="M233.5,171.6c0,1.9,1.3,2.8,2.8,2.8c1.1,0,1.7-0.2,2.2-0.4l0.2,1.1c-0.5,0.2-1.5,0.5-2.7,0.5c-2.4,0-4-1.6-4-4
			s1.5-4.4,3.8-4.4c2.7,0,3.3,2.3,3.3,3.8c0,0.2,0,0.5,0,0.7h-5.6V171.6z M237.8,170.6c0-1-0.4-2.4-2.1-2.4c-1.5,0-2.2,1.3-2.3,2.4
			H237.8z"/>
		<path d="M244.6,164.4c0.7-0.1,1.6-0.2,2.8-0.2c1.5,0,2.4,0.4,3.2,1c0.6,0.5,1,1.3,1,2.3s-0.2,1.8-0.9,2.4
			c-0.7,0.9-2.1,1.2-3.4,1.2c-0.5,0-0.9,0-1.2-0.1v4.5h-1.5L244.6,164.4L244.6,164.4z M246.1,169.7c0.4,0.1,0.7,0.1,1.2,0.1
			c1.7,0,2.8-0.9,2.8-2.4s-1.1-2.2-2.7-2.2c-0.6,0-1.1,0-1.3,0.1V169.7L246.1,169.7z"/>
		<path d="M253.9,171.6c0,1.9,1.3,2.8,2.8,2.8c1.1,0,1.7-0.2,2.2-0.4l0.2,1.1c-0.5,0.2-1.5,0.5-2.7,0.5c-2.4,0-4-1.6-4-4
			s1.5-4.4,3.8-4.4c2.7,0,3.3,2.3,3.3,3.8c0,0.2,0,0.5,0,0.7h-5.6L253.9,171.6L253.9,171.6z M258.1,170.6c0-1-0.4-2.4-2.1-2.4
			c-1.5,0-2.2,1.3-2.3,2.4H258.1z"/>
		<path d="M261.4,169.8c0-1,0-1.8-0.1-2.6h1.3v1.6h0.1c0.4-1.1,1.2-1.8,2.2-1.8c0.1,0,0.2,0,0.4,0v1.3c-0.1,0-0.2,0-0.5,0
			c-1.1,0-1.8,0.7-1.9,1.9c0,0.2-0.1,0.5-0.1,0.7v4.3h-1.3L261.4,169.8L261.4,169.8z"/>
		<path d="M266.6,174c0.5,0.2,1.2,0.6,1.9,0.6c1.1,0,1.6-0.5,1.6-1.2s-0.4-1.1-1.5-1.5c-1.5-0.5-2.2-1.3-2.2-2.3
			c0-1.3,1.1-2.3,2.8-2.3c0.9,0,1.6,0.2,1.9,0.5l-0.4,1.1c-0.4-0.2-0.9-0.5-1.7-0.5c-0.9,0-1.3,0.5-1.3,1.1s0.5,1,1.6,1.3
			c1.5,0.5,2.1,1.2,2.1,2.4c0,1.5-1.1,2.4-3,2.4c-0.9,0-1.7-0.2-2.3-0.6L266.6,174z"/>
		<path d="M275,165.1c0,0.5-0.4,0.9-1,0.9c-0.5,0-0.9-0.4-0.9-0.9s0.4-1,1-1S275,164.6,275,165.1z M273.4,175.4v-8h1.5v8H273.4z"/>
		<path d="M277.1,174c0.5,0.2,1.2,0.6,1.9,0.6c1.1,0,1.6-0.5,1.6-1.2s-0.4-1.1-1.5-1.5c-1.5-0.5-2.2-1.3-2.2-2.3
			c0-1.3,1.1-2.3,2.8-2.3c0.9,0,1.6,0.2,1.9,0.5l-0.4,1.1c-0.4-0.2-0.9-0.5-1.7-0.5c-0.9,0-1.3,0.5-1.3,1.1s0.5,1,1.6,1.3
			c1.5,0.5,2.1,1.2,2.1,2.4c0,1.5-1.1,2.4-3,2.4c-0.9,0-1.7-0.2-2.3-0.6L277.1,174z"/>
		<path d="M285.7,165.1v2.3h2.1v1.1h-2.1v4.4c0,1,0.2,1.6,1.1,1.6c0.4,0,0.6,0,0.9-0.1l0.1,1.1c-0.2,0.1-0.7,0.2-1.3,0.2
			c-0.7,0-1.2-0.2-1.6-0.6c-0.4-0.5-0.6-1.1-0.6-2.1v-4.4h-1.2v-1.1h1.2v-1.9L285.7,165.1z"/>
		<path d="M290.2,171.6c0,1.9,1.3,2.8,2.8,2.8c1.1,0,1.7-0.2,2.2-0.4l0.2,1.1c-0.5,0.2-1.5,0.5-2.7,0.5c-2.4,0-4-1.6-4-4
			s1.5-4.4,3.8-4.4c2.7,0,3.3,2.3,3.3,3.8c0,0.2,0,0.5,0,0.7h-5.6L290.2,171.6L290.2,171.6z M294.5,170.6c0-1-0.4-2.4-2.1-2.4
			c-1.5,0-2.2,1.3-2.3,2.4H294.5z"/>
		<path d="M297.7,169.6c0-0.9,0-1.5-0.1-2.2h1.3l0.1,1.3l0,0c0.4-0.7,1.3-1.5,2.7-1.5c1.1,0,2.8,0.6,2.8,3.4v4.9H303v-4.6
			c0-1.3-0.5-2.4-1.8-2.4c-1,0-1.7,0.7-1.9,1.5c-0.1,0.2-0.1,0.5-0.1,0.7v4.9h-1.5V169.6L297.7,169.6z"/>
		<path d="M308.7,165.1v2.3h2.1v1.1h-2.1v4.4c0,1,0.2,1.6,1.1,1.6c0.4,0,0.6,0,0.9-0.1l0.1,1.1c-0.2,0.1-0.7,0.2-1.3,0.2
			c-0.7,0-1.2-0.2-1.6-0.6c-0.4-0.5-0.6-1.1-0.6-2.1v-4.4h-1.2v-1.1h1.2v-1.9L308.7,165.1z"/>
		<path d="M315.8,173.6c0.6,0.4,1.6,0.7,2.6,0.7c1.5,0,2.3-0.7,2.3-1.9c0-1.1-0.6-1.7-2.1-2.2c-1.8-0.6-2.9-1.6-2.9-3.2
			c0-1.7,1.5-3,3.6-3c1.1,0,1.9,0.2,2.4,0.6l-0.4,1.2c-0.4-0.2-1.1-0.5-2.2-0.5c-1.6,0-2.1,1-2.1,1.7c0,1.1,0.7,1.6,2.2,2.2
			c1.9,0.7,2.9,1.7,2.9,3.3c0,1.7-1.3,3.3-3.9,3.3c-1.1,0-2.3-0.4-2.9-0.7L315.8,173.6z"/>
		<path d="M325.9,165.1v2.3h2.1v1.1h-2.1v4.4c0,1,0.2,1.6,1.1,1.6c0.4,0,0.6,0,0.9-0.1l0.1,1.1c-0.2,0.1-0.7,0.2-1.3,0.2
			c-0.7,0-1.2-0.2-1.6-0.6c-0.4-0.5-0.6-1.1-0.6-2.1v-4.4h-1.2v-1.1h1.2v-1.9L325.9,165.1z"/>
		<path d="M336.9,171.3c0,3-2.1,4.3-4,4.3c-2.2,0-3.9-1.6-3.9-4.1c0-2.7,1.8-4.3,4-4.3C335.3,167.2,336.9,168.9,336.9,171.3z
			 M330.4,171.4c0,1.8,1,3.2,2.4,3.2s2.4-1.3,2.4-3.2c0-1.3-0.7-3.2-2.4-3.2S330.4,169.8,330.4,171.4z"/>
		<path d="M338.7,169.8c0-1,0-1.8-0.1-2.6h1.3v1.6h0.1c0.4-1.1,1.2-1.8,2.2-1.8c0.1,0,0.2,0,0.4,0v1.3c-0.1,0-0.2,0-0.5,0
			c-1.1,0-1.8,0.7-1.9,1.9c0,0.2-0.1,0.5-0.1,0.7v4.3h-1.5v-5.4H338.7z"/>
		<path d="M348.5,175.4l-0.1-1l0,0c-0.5,0.6-1.3,1.2-2.4,1.2c-1.6,0-2.4-1.1-2.4-2.3c0-1.9,1.7-3,4.9-3v-0.1c0-0.6-0.2-1.8-1.8-1.8
			c-0.7,0-1.6,0.2-2.1,0.6l-0.4-1c0.6-0.5,1.6-0.7,2.7-0.7c2.4,0,3,1.7,3,3.3v3c0,0.7,0,1.3,0.1,1.9L348.5,175.4L348.5,175.4
			L348.5,175.4z M348.3,171.3c-1.6,0-3.4,0.2-3.4,1.8c0,1,0.6,1.5,1.3,1.5c1.1,0,1.7-0.6,1.9-1.3c0-0.1,0.1-0.4,0.1-0.5L348.3,171.3
			L348.3,171.3z"/>
		<path d="M359,167.4c0,0.6-0.1,1.2-0.1,2.2v4.7c0,1.8-0.4,3-1.1,3.6c-0.7,0.7-1.9,1-2.9,1s-2.1-0.2-2.7-0.6l0.4-1.1
			c0.5,0.4,1.3,0.6,2.3,0.6c1.5,0,2.6-0.7,2.6-2.8v-0.9l0,0c-0.5,0.7-1.3,1.3-2.6,1.3c-1.9,0-3.4-1.7-3.4-3.9c0-2.7,1.8-4.3,3.6-4.3
			c1.5,0,2.2,0.7,2.6,1.5l0,0l0.1-1.2h1.2V167.4z M357.5,170.6c0-0.2,0-0.5-0.1-0.6c-0.2-0.9-1-1.6-2.1-1.6c-1.5,0-2.4,1.2-2.4,3
			c0,1.6,0.9,2.9,2.4,2.9c0.9,0,1.7-0.6,2.1-1.5c0.1-0.2,0.1-0.5,0.1-0.7V170.6z"/>
		<path d="M362.3,171.6c0,1.9,1.3,2.8,2.8,2.8c1.1,0,1.7-0.2,2.2-0.4l0.2,1.1c-0.5,0.2-1.5,0.5-2.7,0.5c-2.4,0-4-1.6-4-4
			s1.5-4.4,3.8-4.4c2.7,0,3.3,2.3,3.3,3.8c0,0.2,0,0.5,0,0.7h-5.6L362.3,171.6L362.3,171.6z M366.5,170.6c0-1-0.4-2.4-2.1-2.4
			c-1.5,0-2.2,1.3-2.3,2.4H366.5z"/>
	</g>
	<g>
		<g>
			<path d="M465,228h2.7c0.8,0,1.3,0.2,1.6,0.7c0.2,0.2,0.3,0.5,0.3,0.9s-0.1,0.7-0.3,1c-0.2,0.2-0.3,0.2-0.5,0.4
				c0.3,0.2,0.5,0.2,0.7,0.4c0.3,0.3,0.5,0.7,0.5,1.2c0,0.4-0.2,0.8-0.4,1.1c-0.4,0.5-1,0.8-1.8,0.8H465V228L465,228z M467.5,230.7
				c0.4,0,0.6-0.1,0.8-0.2c0.3-0.2,0.5-0.5,0.5-0.8c0-0.4-0.2-0.7-0.5-0.8c-0.2-0.1-0.5-0.2-0.8-0.2H466v1.9L467.5,230.7
				L467.5,230.7L467.5,230.7z M467.8,233.6c0.5,0,0.9-0.2,1.2-0.5c0.2-0.2,0.2-0.5,0.2-0.7c0-0.5-0.2-0.8-0.6-0.9
				c-0.2-0.1-0.5-0.2-0.8-0.2H466v2.2L467.8,233.6L467.8,233.6z"/>
			<path d="M470.9,228h0.8v6.3h-0.8V228z"/>
			<path d="M476.2,230.2c0.4,0.4,0.6,1,0.6,1.8s-0.2,1.4-0.5,1.8s-0.9,0.7-1.7,0.7c-0.6,0-1.2-0.2-1.5-0.6c-0.4-0.5-0.5-1-0.5-1.7
				c0-0.8,0.2-1.4,0.6-1.8s0.9-0.7,1.5-0.7C475.3,229.6,475.7,229.8,476.2,230.2z M475.7,233.3c0.2-0.4,0.3-0.8,0.3-1.3
				s-0.1-0.8-0.2-1.1c-0.2-0.5-0.6-0.6-1.1-0.6s-0.8,0.2-1,0.5c-0.2,0.4-0.3,0.8-0.3,1.3s0.1,0.9,0.3,1.2c0.2,0.3,0.5,0.5,1,0.5
				S475.5,233.7,475.7,233.3z"/>
			<path d="M480.7,230c0.3,0.2,0.5,0.7,0.6,1.3h-0.8c-0.1-0.3-0.2-0.5-0.3-0.7c-0.2-0.2-0.5-0.3-0.8-0.3c-0.5,0-0.8,0.2-1.1,0.7
				c-0.2,0.3-0.2,0.7-0.2,1.2s0.1,0.8,0.3,1.2c0.2,0.3,0.5,0.5,0.9,0.5c0.3,0,0.5-0.1,0.8-0.3c0.2-0.2,0.3-0.5,0.4-0.8h0.8
				c-0.1,0.6-0.3,1.1-0.6,1.3c-0.3,0.3-0.8,0.5-1.3,0.5c-0.6,0-1.1-0.2-1.5-0.7s-0.5-1-0.5-1.6c0-0.8,0.2-1.5,0.6-1.9
				c0.4-0.5,0.9-0.7,1.5-0.7C480,229.6,480.4,229.7,480.7,230z"/>
			<path d="M482.1,228h0.8v3.7l2-1.9h1l-1.8,1.7l1.8,2.9h-1l-1.5-2.3l-0.6,0.6v1.7H482L482.1,228L482.1,228z"/>
			<path d="M489.6,232.3c0,0.4,0.1,0.6,0.2,0.8c0.3,0.4,0.8,0.6,1.5,0.6c0.3,0,0.6-0.1,0.8-0.2c0.5-0.2,0.8-0.5,0.8-0.9
				c0-0.3-0.1-0.6-0.3-0.8c-0.2-0.2-0.5-0.2-1-0.4l-0.8-0.2c-0.5-0.2-0.9-0.2-1.2-0.4c-0.4-0.2-0.6-0.7-0.6-1.2s0.2-1,0.5-1.4
				c0.4-0.4,0.9-0.5,1.6-0.5c0.6,0,1.2,0.2,1.6,0.5c0.5,0.3,0.7,0.8,0.7,1.5h-0.8c-0.1-0.3-0.2-0.6-0.2-0.8
				c-0.2-0.3-0.7-0.5-1.3-0.5c-0.5,0-0.8,0.1-1.1,0.3c-0.2,0.2-0.3,0.5-0.3,0.8s0.2,0.5,0.4,0.7c0.2,0.1,0.5,0.2,1.1,0.3l0.8,0.2
				c0.4,0.1,0.8,0.2,0.9,0.4c0.4,0.3,0.6,0.7,0.6,1.3c0,0.7-0.2,1.2-0.8,1.5c-0.5,0.3-1.1,0.5-1.7,0.5c-0.8,0-1.4-0.2-1.8-0.6
				c-0.5-0.4-0.6-0.9-0.6-1.6L489.6,232.3L489.6,232.3z"/>
			<path d="M495,228.4h0.8v1.3h0.8v0.6h-0.8v3c0,0.2,0.1,0.2,0.2,0.3c0.1,0,0.2,0.1,0.3,0.1c0,0,0.1,0,0.2,0s0.1,0,0.2,0v0.6
				c-0.1,0-0.2,0.1-0.3,0.1c-0.1,0-0.2,0-0.3,0c-0.4,0-0.6-0.1-0.8-0.3c-0.2-0.2-0.2-0.5-0.2-0.7v-3.1h-0.6v-0.6h0.6L495,228.4
				L495,228.4z"/>
			<path d="M500.6,230.2c0.4,0.4,0.6,1,0.6,1.8s-0.2,1.4-0.5,1.8s-0.9,0.7-1.7,0.7c-0.6,0-1.2-0.2-1.5-0.6c-0.4-0.5-0.5-1-0.5-1.7
				c0-0.8,0.2-1.4,0.6-1.8s0.9-0.7,1.5-0.7C499.7,229.6,500.2,229.8,500.6,230.2z M500.1,233.3c0.2-0.4,0.3-0.8,0.3-1.3
				s-0.1-0.8-0.2-1.1c-0.2-0.5-0.6-0.6-1.1-0.6s-0.8,0.2-1,0.5c-0.2,0.4-0.3,0.8-0.3,1.3s0.1,0.9,0.3,1.2c0.2,0.3,0.5,0.5,1,0.5
				S499.9,233.7,500.1,233.3z"/>
			<path d="M502.2,229.7h0.8v0.8c0.1-0.2,0.2-0.3,0.5-0.5c0.2-0.2,0.5-0.3,0.8-0.3c0,0,0,0,0.1,0s0.1,0,0.2,0v0.8
				c-0.1,0-0.1,0-0.2,0s-0.1,0-0.2,0c-0.4,0-0.7,0.2-0.9,0.4c-0.2,0.2-0.3,0.5-0.3,0.8v2.6h-0.8V229.7L502.2,229.7z"/>
			<path d="M507.6,231.5c0.2,0,0.3-0.1,0.4-0.2c0-0.1,0.1-0.2,0.1-0.3c0-0.2-0.1-0.5-0.3-0.5c-0.2-0.2-0.5-0.2-0.8-0.2
				c-0.4,0-0.7,0.1-0.8,0.3c-0.1,0.2-0.2,0.3-0.2,0.5h-0.7c0-0.5,0.2-1,0.5-1.2c0.4-0.2,0.8-0.3,1.2-0.3c0.5,0,1,0.1,1.3,0.3
				s0.5,0.5,0.5,1v2.6c0,0.1,0,0.2,0.1,0.2c0,0.1,0.1,0.1,0.2,0.1c0,0,0.1,0,0.2,0s0.1,0,0.2,0v0.5c-0.2,0-0.2,0.1-0.3,0.1
				c-0.1,0-0.2,0-0.2,0c-0.2,0-0.5-0.1-0.6-0.3c-0.1-0.1-0.1-0.2-0.2-0.5c-0.2,0.2-0.4,0.4-0.7,0.5c-0.3,0.2-0.6,0.2-1,0.2
				c-0.5,0-0.8-0.2-1.1-0.4c-0.3-0.2-0.4-0.6-0.4-1c0-0.5,0.2-0.8,0.4-1c0.2-0.2,0.6-0.4,1.1-0.5L507.6,231.5z M505.9,233.7
				c0.2,0.2,0.4,0.2,0.6,0.2c0.3,0,0.5-0.1,0.8-0.2c0.5-0.2,0.6-0.5,0.6-1v-0.6c-0.1,0.1-0.2,0.1-0.4,0.2c-0.2,0.1-0.3,0.1-0.5,0.1
				l-0.5,0.1c-0.3,0-0.5,0.1-0.6,0.2c-0.2,0.2-0.4,0.4-0.4,0.6C505.7,233.4,505.8,233.5,505.9,233.7z"/>
			<path d="M512.6,229.9c0.2,0.1,0.3,0.2,0.5,0.5v-0.6h0.7v4.2c0,0.6-0.1,1.1-0.2,1.4c-0.3,0.6-0.9,0.9-1.8,0.9
				c-0.5,0-0.9-0.1-1.2-0.3s-0.5-0.5-0.5-1.1h0.8c0,0.2,0.1,0.4,0.2,0.5c0.2,0.2,0.5,0.2,0.8,0.2c0.6,0,1-0.2,1.2-0.6
				c0.1-0.2,0.2-0.7,0.2-1.3c-0.2,0.2-0.3,0.4-0.5,0.5s-0.5,0.2-0.8,0.2c-0.5,0-0.9-0.2-1.3-0.5c-0.4-0.4-0.5-0.9-0.5-1.8
				c0-0.8,0.2-1.4,0.5-1.8c0.4-0.5,0.8-0.6,1.4-0.6C511.9,229.7,512.3,229.7,512.6,229.9z M512.6,230.7c-0.2-0.3-0.5-0.4-0.9-0.4
				c-0.5,0-0.9,0.2-1.1,0.8c-0.1,0.3-0.2,0.6-0.2,1.1s0.1,0.9,0.3,1.2c0.2,0.3,0.5,0.4,0.8,0.4c0.5,0,0.9-0.2,1.2-0.8
				c0.2-0.3,0.2-0.6,0.2-1C513,231.4,512.9,231,512.6,230.7z"/>
			<path d="M517.7,229.8c0.3,0.2,0.5,0.4,0.7,0.6c0.2,0.2,0.2,0.5,0.3,0.8c0.1,0.2,0.1,0.5,0.1,1h-3.4c0,0.5,0.2,0.8,0.3,1.2
				c0.2,0.3,0.5,0.5,0.9,0.5s0.7-0.2,0.9-0.4s0.2-0.3,0.3-0.5h0.8c0,0.2-0.1,0.4-0.2,0.5c-0.1,0.2-0.2,0.4-0.4,0.5
				c-0.2,0.2-0.5,0.4-0.8,0.5c-0.2,0.1-0.4,0.1-0.6,0.1c-0.5,0-1.1-0.2-1.5-0.6c-0.4-0.4-0.6-1-0.6-1.8s0.2-1.3,0.6-1.8
				s0.9-0.7,1.5-0.7C517.1,229.6,517.4,229.7,517.7,229.8z M518,231.7c0-0.3-0.1-0.6-0.2-0.8c-0.2-0.4-0.5-0.5-1.1-0.5
				c-0.4,0-0.6,0.2-0.9,0.4c-0.2,0.2-0.4,0.6-0.4,1L518,231.7L518,231.7z"/>
		</g>
		<g>
			<path class="st3" d="M526.4,167.9L511.5,142c-1.1-2-3.3-3.3-5.6-3.3h-29.8c-2.3,0-4.4,1.3-5.6,3.3l-14.9,25.8
				c-1.2,2-1.2,4.5,0,6.5l14.9,26c1.1,2,3.2,3.4,5.6,3.4h29.8c2.3-0.1,4.5-1.4,5.6-3.4l14.9-25.9C527.5,172.5,527.5,170,526.4,167.9
				z"/>
			<path class="st4" d="M501.8,157.7l-18.1,2.3l-3.4,9.1l2.8,2.8l-2.8,5.1l2.8,2.8l-2.8,5.1l19,19h6.7c2.3-0.1,4.5-1.4,5.6-3.4
				l12-20.9L501.8,157.7z"/>
			<polygon class="st5" points="496.7,173.5 496.7,179.8 480.3,179.8 480.3,184.9 501.8,184.9 501.8,173.5 			"/>
			<polygon class="st5" points="485.4,169 485.4,162.8 501.8,162.8 501.8,157.7 480.3,157.7 480.3,169 			"/>
			<polygon class="st5" points="488.2,165.6 488.2,171.8 480.3,171.8 480.3,176.9 493.9,176.9 493.9,170.7 501.8,170.7 501.8,165.6 
							"/>
		</g>
		<g>
			<path d="M455.8,219.5h-1.1V211h2.9c0.7,0,1.3,0.2,1.9,0.7c0.5,0.5,0.8,1.1,0.8,1.8s-0.3,1.3-0.8,1.8s-1.2,0.7-1.9,0.7h-1.8V219.5
				z M455.8,215h1.8c0.5,0,0.8-0.2,1.1-0.5c0.3-0.3,0.4-0.6,0.4-1s-0.1-0.7-0.4-1s-0.6-0.5-1.1-0.5h-1.8V215z"/>
			<path d="M463.4,219.7c-0.9,0-1.6-0.3-2.1-0.9c-0.6-0.6-0.8-1.3-0.8-2.2c0-0.8,0.3-1.6,0.8-2.2c0.5-0.6,1.2-0.9,2.1-0.9
				s1.6,0.3,2.1,0.8c0.5,0.6,0.8,1.3,0.8,2.3v0.2h-4.6c0,0.6,0.2,1.1,0.6,1.4c0.4,0.3,0.8,0.5,1.3,0.5c0.8,0,1.3-0.3,1.6-1l1,0.4
				c-0.2,0.5-0.5,0.8-0.9,1.1C464.6,219.5,464,219.7,463.4,219.7z M465,215.9c0-0.3-0.2-0.6-0.5-1c-0.3-0.3-0.7-0.5-1.3-0.5
				c-0.4,0-0.8,0.1-1.1,0.4c-0.3,0.3-0.5,0.6-0.6,1h3.5V215.9z"/>
			<path d="M468.2,219.5h-1.1v-5.8h1v1l0,0c0.1-0.3,0.3-0.6,0.7-0.8c0.3-0.2,0.7-0.3,1-0.3s0.6,0,0.8,0.1l-0.4,1
				c-0.1-0.1-0.3-0.1-0.6-0.1c-0.4,0-0.7,0.2-1.1,0.5c-0.3,0.3-0.5,0.7-0.5,1.2v3.2H468.2z"/>
			<path d="M473.4,219.7c-0.6,0-1.2-0.2-1.6-0.5s-0.7-0.7-0.9-1.2l1-0.4c0.3,0.7,0.8,1.1,1.6,1.1c0.3,0,0.6-0.1,0.8-0.2
				c0.2-0.2,0.3-0.3,0.3-0.6c0-0.4-0.3-0.6-0.8-0.8l-1.2-0.3c-0.4-0.1-0.7-0.3-1.1-0.5c-0.3-0.3-0.5-0.6-0.5-1.1s0.2-0.9,0.7-1.3
				c0.5-0.3,1-0.5,1.6-0.5c0.5,0,1,0.1,1.4,0.4c0.4,0.2,0.7,0.6,0.9,1l-1,0.4c-0.2-0.5-0.7-0.8-1.3-0.8c-0.3,0-0.6,0.1-0.8,0.2
				c-0.2,0.1-0.3,0.3-0.3,0.5c0,0.3,0.3,0.6,0.8,0.7l1.2,0.3c0.5,0.1,1,0.3,1.2,0.7c0.3,0.3,0.4,0.7,0.4,1c0,0.5-0.2,1-0.6,1.3
				C474.6,219.5,474.1,219.7,473.4,219.7z"/>
			<path d="M477.8,212.2c-0.2,0.2-0.3,0.2-0.5,0.2s-0.4-0.1-0.5-0.2c-0.2-0.2-0.2-0.3-0.2-0.5s0.1-0.4,0.2-0.5
				c0.2-0.2,0.3-0.2,0.5-0.2s0.4,0.1,0.5,0.2c0.2,0.2,0.2,0.3,0.2,0.5S477.9,212,477.8,212.2z M477.8,219.5h-1.1v-5.8h1.1V219.5z"/>
			<path d="M481.3,219.7c-0.6,0-1.2-0.2-1.6-0.5s-0.7-0.7-0.9-1.2l1-0.4c0.3,0.7,0.8,1.1,1.6,1.1c0.3,0,0.6-0.1,0.8-0.2
				c0.2-0.2,0.3-0.3,0.3-0.6c0-0.4-0.3-0.6-0.8-0.8l-1.2-0.3c-0.4-0.1-0.7-0.3-1.1-0.5c-0.3-0.3-0.5-0.6-0.5-1.1s0.2-0.9,0.7-1.3
				c0.5-0.3,1-0.5,1.6-0.5c0.5,0,1,0.1,1.4,0.4c0.4,0.2,0.7,0.6,0.9,1l-1,0.4c-0.2-0.5-0.7-0.8-1.3-0.8c-0.3,0-0.6,0.1-0.8,0.2
				c-0.2,0.1-0.3,0.3-0.3,0.5c0,0.3,0.3,0.6,0.8,0.7l1.2,0.3c0.5,0.1,1,0.3,1.2,0.7c0.3,0.3,0.4,0.7,0.4,1c0,0.5-0.2,1-0.6,1.3
				C482.6,219.5,482,219.7,481.3,219.7z"/>
			<path d="M487,219.6c-0.6,0-1.1-0.2-1.4-0.5s-0.5-0.8-0.5-1.4v-3.1h-1v-1h1v-1.8h1.1v1.8h1.4v1h-1.4v3c0,0.6,0.3,1,0.8,1
				c0.2,0,0.4,0,0.5-0.1l0.4,0.9C487.7,219.5,487.4,219.6,487,219.6z"/>
			<path d="M491.3,219.7c-0.9,0-1.6-0.3-2.1-0.9c-0.6-0.6-0.8-1.3-0.8-2.2c0-0.8,0.3-1.6,0.8-2.2c0.5-0.6,1.2-0.9,2.1-0.9
				s1.6,0.3,2.1,0.8c0.5,0.6,0.8,1.3,0.8,2.3v0.2h-4.6c0,0.6,0.2,1.1,0.6,1.4c0.4,0.3,0.8,0.5,1.3,0.5c0.8,0,1.3-0.3,1.6-1l1,0.4
				c-0.2,0.5-0.5,0.8-0.9,1.1C492.5,219.5,492,219.7,491.3,219.7z M492.9,215.9c0-0.3-0.2-0.6-0.5-1c-0.3-0.3-0.7-0.5-1.3-0.5
				c-0.4,0-0.8,0.1-1.1,0.4c-0.3,0.3-0.5,0.6-0.6,1h3.5V215.9z"/>
			<path d="M496.1,213.7v0.8l0,0c0.2-0.3,0.4-0.5,0.7-0.7c0.3-0.2,0.7-0.3,1.1-0.3c0.7,0,1.3,0.2,1.7,0.7c0.4,0.4,0.6,1,0.6,1.8v3.6
				h-1.1v-3.4c0-1.1-0.5-1.6-1.4-1.6c-0.5,0-0.8,0.2-1.1,0.5c-0.3,0.4-0.4,0.8-0.4,1.3v3.2H495v-5.8h1.1V213.7z"/>
			<path d="M503.7,219.6c-0.6,0-1.1-0.2-1.4-0.5s-0.5-0.8-0.5-1.4v-3.1h-1v-1h1v-1.8h1.1v1.8h1.4v1h-1.4v3c0,0.6,0.3,1,0.8,1
				c0.2,0,0.4,0,0.5-0.1l0.4,0.9C504.4,219.5,504.1,219.6,503.7,219.6z"/>
			<path d="M508.2,219.5V211h2.6c1.3,0,2.4,0.4,3.1,1.2c0.8,0.8,1.2,1.8,1.2,3.1s-0.4,2.3-1.2,3.1s-1.8,1.2-3.1,1.2h-2.6V219.5z
				 M509.3,218.4h1.5c1,0,1.8-0.3,2.3-0.8c0.6-0.6,0.9-1.4,0.9-2.4s-0.3-1.8-0.9-2.4c-0.6-0.6-1.4-0.8-2.3-0.8h-1.5V218.4z"/>
			<path d="M517.4,212.2c-0.2,0.2-0.3,0.2-0.5,0.2s-0.4-0.1-0.5-0.2c-0.2-0.2-0.2-0.3-0.2-0.5s0.1-0.4,0.2-0.5
				c0.2-0.2,0.3-0.2,0.5-0.2s0.4,0.1,0.5,0.2c0.2,0.2,0.2,0.3,0.2,0.5S517.6,212,517.4,212.2z M517.4,219.5h-1.1v-5.8h1.1V219.5z"/>
			<path d="M521,219.7c-0.6,0-1.2-0.2-1.6-0.5c-0.4-0.3-0.7-0.7-0.9-1.2l1-0.4c0.3,0.7,0.8,1.1,1.6,1.1c0.3,0,0.6-0.1,0.8-0.2
				c0.2-0.2,0.3-0.3,0.3-0.6c0-0.4-0.3-0.6-0.8-0.8l-1.2-0.3c-0.4-0.1-0.7-0.3-1.1-0.5c-0.3-0.3-0.5-0.6-0.5-1.1s0.2-0.9,0.7-1.3
				c0.5-0.3,1-0.5,1.6-0.5c0.5,0,1,0.1,1.4,0.4c0.4,0.2,0.7,0.6,0.9,1l-1,0.4c-0.2-0.5-0.7-0.8-1.3-0.8c-0.3,0-0.6,0.1-0.8,0.2
				c-0.2,0.1-0.3,0.3-0.3,0.5c0,0.3,0.3,0.6,0.8,0.7l1.2,0.3c0.5,0.1,1,0.3,1.2,0.7c0.3,0.3,0.4,0.7,0.4,1c0,0.5-0.2,1-0.6,1.3
				C522.2,219.5,521.7,219.7,521,219.7z"/>
			<path d="M525.3,211v5.2l2.5-2.6h1.4l0,0L527,216l2.4,3.5l0,0h-1.3l-1.8-2.7l-0.9,0.9v1.9h-1.1V211H525.3z"/>
		</g>
	</g>
	<path class="st6" d="M422.5,117c0.1-3.6,3-6.4,6.5-6.4c1.6,0,3.2,0.6,4.4,1.8l-1.3,1.2c-0.8-0.8-2-1.3-3.1-1.3
		c-2.5,0-4.6,2.1-4.6,4.6v0.1c-0.1,2.5,2,4.6,4.5,4.7h0.1c1.2,0.1,2.4-0.4,3.2-1.3c0.6-0.6,0.9-1.4,1-2.2H429v-1.8h5.9
		c0.1,0.4,0.1,0.7,0.1,1.1c0,1.5-0.5,3-1.5,4.1c-1.2,1.2-2.8,1.9-4.4,1.8C425.5,123.5,422.5,120.6,422.5,117z"/>
	<path class="st6" d="M439.8,115.2c-2.3,0-4.1,1.9-4.1,4.1c0,2.3,1.9,4.1,4.1,4.1c2.3,0,4.1-1.9,4.1-4.1s-1.8-4.1-4-4.1H439.8z
		 M439.8,121.8c-1.3,0-2.4-1.1-2.4-2.4v-0.1c0-1.3,1.1-2.3,2.3-2.3c1.3,0,2.3,1.1,2.3,2.3C442.2,120.6,441.2,121.8,439.8,121.8
		L439.8,121.8L439.8,121.8z"/>
	<path class="st6" d="M448.8,115.2c-2.3,0-4.1,1.9-4.1,4.2c0,2.3,1.9,4.1,4.2,4.1c2.3,0,4.1-1.9,4.1-4.1s-1.8-4.1-4-4.1
		C448.9,115.2,448.9,115.2,448.8,115.2z M448.8,121.8c-1.3,0-2.4-1.1-2.4-2.4v-0.1c0-1.3,1.1-2.3,2.3-2.3c1.3,0,2.3,1.1,2.3,2.3
		C451.2,120.6,450.2,121.8,448.8,121.8C448.9,121.8,448.8,121.8,448.8,121.8L448.8,121.8z"/>
	<path class="st6" d="M459.9,115.5v0.7h-0.1c-0.6-0.6-1.4-0.9-2.2-0.9c-2.3,0.1-4,2-4,4.3c0.1,2.1,1.8,3.9,4,4
		c0.8,0,1.6-0.3,2.2-0.9h0.1v0.6c0,1.6-0.8,2.4-2.2,2.4c-0.9,0-1.7-0.6-2.1-1.5l-1.6,0.7c0.6,1.5,2.1,2.5,3.7,2.4
		c2.1,0,3.9-1.3,3.9-4.3v-7.4L459.9,115.5L459.9,115.5z M457.8,121.8c-1.3,0-2.3-1.1-2.3-2.4v-0.1c-0.1-1.3,0.9-2.4,2.2-2.5
		c0,0,0,0,0.1,0c1.3,0.1,2.3,1.2,2.2,2.5l0,0C460.1,120.6,459.1,121.8,457.8,121.8L457.8,121.8z"/>
	<rect x="462.9" y="111.1" class="st6" width="1.8" height="12.1"/>
	<path class="st6" d="M469.7,121.8c-0.9,0-1.7-0.5-2-1.3l5.5-2.3l-0.2-0.5c-0.5-1.5-1.9-2.6-3.5-2.6c-2.2,0-3.9,1.7-3.9,3.9
		c0,0.1,0,0.2,0,0.2c-0.1,2.2,1.7,4.1,3.9,4.1c0.1,0,0.1,0,0.2,0c1.4,0,2.7-0.7,3.4-1.8l-1.4-0.9
		C471.3,121.4,470.5,121.8,469.7,121.8z M469.5,116.8c0.7-0.1,1.3,0.3,1.6,0.9l-3.7,1.6C467.3,118,468.2,116.9,469.5,116.8
		L469.5,116.8z"/>
	<path class="st6" d="M476.8,117.6c-0.1-3.2,2.4-5.8,5.6-5.9c0.1,0,0.2,0,0.2,0c1.6,0,3.1,0.6,4.1,1.8l-1,1
		c-0.8-0.9-1.9-1.5-3.1-1.4c-2.4-0.1-4.3,1.8-4.4,4.2c0,0.1,0,0.2,0,0.3c-0.1,2.4,1.7,4.3,4.1,4.4c0.1,0,0.2,0,0.2,0
		c1.3,0,2.6-0.6,3.4-1.6l1,1c-2.1,2.4-5.8,2.6-8.3,0.5C477.5,120.9,476.8,119.3,476.8,117.6z"/>
	<path class="st6" d="M488.2,123.2V112h1.4v11.2H488.2z"/>
	<path class="st6" d="M498.6,119.4c0,2.2-1.8,3.9-3.9,3.9c-2.2,0-3.9-1.8-3.9-3.9s1.8-3.9,3.9-3.9
		C496.8,115.4,498.6,117.2,498.6,119.4z M497.1,119.4c0.1-1.4-0.9-2.6-2.3-2.7s-2.6,0.9-2.7,2.3c0,0.1,0,0.3,0,0.4
		c0,1.4,1.1,2.5,2.5,2.5S497.2,120.8,497.1,119.4L497.1,119.4z"/>
	<path class="st6" d="M505.1,123.2v-1.1H505c-0.5,0.8-1.4,1.3-2.4,1.3c-2,0-2.9-1.3-2.9-3.2v-4.7h1.4v4.5c0,1.6,0.8,2.1,1.9,2.1
		c1.2-0.1,2.1-1.1,2-2.3v-4.2h1.4v7.7L505.1,123.2L505.1,123.2z"/>
	<path class="st6" d="M507.6,119.4c-0.1-2.1,1.5-3.9,3.6-4.1c1,0,2,0.5,2.6,1.3h0.1l-0.1-1.1V112h1.4v11.2h-1.4v-1.1h-0.1
		c-0.6,0.9-1.6,1.3-2.6,1.3C509.1,123.3,507.5,121.5,507.6,119.4z M513.9,119.4c0.2-1.3-0.8-2.6-2.2-2.7c-1.3-0.2-2.6,0.8-2.7,2.2
		c0,0.2,0,0.4,0,0.6c-0.2,1.3,0.8,2.6,2.2,2.7s2.6-0.8,2.7-2.2C514,119.8,514,119.6,513.9,119.4z"/>
	<path class="st6" d="M519.2,123.2V112h3.8c1.9-0.1,3.4,1.4,3.5,3.3l0,0c0,1.9-1.6,3.4-3.5,3.3l0,0h-2.3v4.5L519.2,123.2
		L519.2,123.2z M523.1,117.3c1.1,0,2-0.9,2-2s-0.9-2-2-2h-2.5v3.9L523.1,117.3L523.1,117.3z"/>
	<path class="st6" d="M527.6,123.2V112h1.4v11.2H527.6z"/>
	<path class="st6" d="M530.3,120.9c0-1.7,1.6-2.7,3.4-2.7c0.7,0,1.4,0.1,2.1,0.5v-0.2c-0.1-1.1-1-2-2.2-1.9c-0.7,0-1.4,0.5-1.7,1.1
		l-1.3-0.6c0.9-1.7,3-2.4,4.7-1.5c1.1,0.6,1.8,1.7,1.9,2.9v4.6h-1.4V122h-0.1c-0.6,0.9-1.5,1.3-2.5,1.3
		C531.8,123.4,530.5,122.4,530.3,120.9C530.3,121,530.3,121,530.3,120.9z M535.7,119.9c-0.5-0.4-1.2-0.5-1.8-0.5
		c-1.5,0-2.1,0.8-2.1,1.5c0.1,0.8,0.8,1.3,1.6,1.2C534.6,122.2,535.6,121.2,535.7,119.9L535.7,119.9z"/>
	<path class="st6" d="M539.2,120.9v-4h-1.3v-1.3h1.3v-2.3h1.4v2.3h1.9v1.3h-1.9v3.9c0,0.9,0.4,1.3,1,1.3c0.2,0,0.5,0,0.7-0.1
		l0.5,1.2c-0.4,0.1-0.8,0.2-1.2,0.2c-1.2,0.1-2.3-0.7-2.5-1.9C539.1,121.2,539.1,121.1,539.2,120.9z"/>
	<path class="st6" d="M548.5,112.1l-0.5,1.2c-0.2-0.1-0.4-0.1-0.7-0.1c-0.7-0.1-1.2,0.4-1.3,1.1c0,0.1,0,0.1,0,0.2v1h1.9v1.3h-2v6.4
		h-1.4v-6.4h-1.4v-1.3h1.4v-1c0-1.4,1-2.5,2.4-2.6c0.1,0,0.2,0,0.3,0C547.7,111.9,548.1,112,548.5,112.1z"/>
	<path class="st6" d="M556.4,119.4c0,2.2-1.8,3.9-3.9,3.9s-3.9-1.8-3.9-3.9s1.8-3.9,3.9-3.9S556.4,117.2,556.4,119.4z M554.9,119.4
		c0.1-1.4-0.9-2.6-2.3-2.7s-2.6,0.9-2.7,2.3c0,0.1,0,0.3,0,0.4c-0.1,1.4,0.9,2.6,2.3,2.7s2.6-0.9,2.7-2.3
		C554.9,119.6,554.9,119.5,554.9,119.4z"/>
	<path class="st6" d="M557.5,123.2v-7.7h1.4v1.3h0.1c0.4-0.9,1.3-1.4,2.2-1.4c0.4,0,0.7,0,1.1,0.2l-0.5,1.3
		c-0.3-0.1-0.5-0.1-0.8-0.1c-1.1,0-2,1-2,2.2c0,0,0,0,0,0.1v4.2L557.5,123.2L557.5,123.2z"/>
	<path class="st6" d="M563,115.5h1.4v1.1h0.1c0.5-0.8,1.4-1.3,2.3-1.3c1-0.1,2,0.5,2.4,1.5c0.6-0.9,1.6-1.5,2.7-1.5
		c1.9,0,2.7,1.3,2.7,3.2v4.7h-1.4v-4.5c0-1.6-0.6-2.1-1.7-2.1c-1.1,0-2,1.2-2,2.3v4.2h-1.4v-4.5c0-1.6-0.6-2.1-1.7-2.1s-2,1.2-2,2.3
		v4.2H563V115.5L563,115.5z"/>
	<path class="st7" d="M408.9,123.2l-2.3,3.9h-5.9c-0.5,0-1-0.3-1.3-0.7l-4.8-8.3c-0.3-0.5-0.3-1,0-1.5l1.8-3.2l2.2,3.9l3.4,5.9
		L408.9,123.2L408.9,123.2z"/>
	<path class="st8" d="M416.3,118.1l-4.8,8.3c-0.3,0.5-0.7,0.7-1.3,0.7h-3.6l2.3-3.9l3.4-5.9l-3.4-5.9h4.4l3,5.1
		C416.6,117.1,416.6,117.6,416.3,118.1z"/>
	<path class="st9" d="M413.4,111.5h-11.2l-3.4,5.9l-2.2-3.9l3-5.1c0.3-0.5,0.7-0.7,1.3-0.7h9.5c0.5,0,1,0.3,1.3,0.7L413.4,111.5z"/>
	<path class="st10" d="M408.9,111.5l3.4,5.9l-3.4,5.9h-6.8l-3.4-5.9l3.4-5.9H408.9"/>
	<circle class="st5" cx="405.5" cy="117.4" r="2.9"/>
	<path class="st11" d="M399.5,108.4c0.3-0.5,0.7-0.7,1.3-0.7h9.5c0.5,0,1,0.3,1.3,0.7l1.8,3.1l0,0l-1.8-3.2
		c-0.3-0.5-0.7-0.7-1.3-0.7h-9.5C400.3,107.6,399.8,107.9,399.5,108.4l-3,5v0.1L399.5,108.4z"/>
	<polyline class="st12" points="398.8,117.4 402.2,111.5 413.4,111.5 413.3,111.4 402.2,111.4 398.8,117.2 	"/>
	<path class="st11" d="M394.7,116.7l1.8-3.1l2.2,3.9l3.4,5.9h6.7l0.1-0.1h-6.8l-3.4-5.9l-2.2-3.9L394.7,116.7
		c-0.1,0.1-0.2,0.4-0.2,0.7C394.5,117.1,394.6,116.9,394.7,116.7z"/>
	<g class="st13">
		<path class="st14" d="M406.7,127h-6c-0.5,0-1-0.3-1.3-0.7l-4.8-8.3c-0.1-0.2-0.2-0.4-0.2-0.7c0,0.3,0.1,0.5,0.2,0.8l4.8,8.3
			c0.3,0.5,0.7,0.7,1.3,0.7h5.9L406.7,127z"/>
	</g>
	<g class="st13">
		<polygon class="st15" points="412.4,117.4 409,111.5 408.9,111.5 412.3,117.4 		"/>
		<path class="st15" d="M416.3,118l-4.8,8.3c-0.3,0.5-0.7,0.7-1.3,0.7h-3.6l-0.1,0.1h3.6c0.5,0,1-0.3,1.3-0.7l4.8-8.3
			c0.1-0.2,0.2-0.5,0.2-0.8C416.5,117.5,416.5,117.8,416.3,118z"/>
	</g>
	<g class="st13">
		<path class="st5" d="M413.4,111.6l3,5.1c0.1,0.2,0.2,0.4,0.2,0.7c0-0.3-0.1-0.5-0.2-0.8l-3-5.2H409l0.1,0.1"/>
		<polygon class="st5" points="408.9,123.4 412.4,117.4 412.3,117.4 408.9,123.2 406.7,127.1 406.7,127.1 		"/>
	</g>
	
		<radialGradient id="SVGID_1_" cx="-482.655" cy="347.8427" r="8.4724" gradientTransform="matrix(2.67 0 0 -2.67 1686.0701 1036.9299)" gradientUnits="userSpaceOnUse">
		<stop  offset="0" style="stop-color:#FFFFFF;stop-opacity:0.1"/>
		<stop  offset="1" style="stop-color:#FFFFFF;stop-opacity:0"/>
	</radialGradient>
	<path class="st16" d="M416.3,116.6l-3-5.1l-1.8-3.2c-0.3-0.5-0.7-0.7-1.3-0.7h-9.5c-0.5,0-1,0.3-1.3,0.7l-4.8,8.3
		c-0.3,0.5-0.3,1,0,1.5l4.8,8.3c0.3,0.5,0.7,0.7,1.3,0.7h9.5c0.5,0,1-0.3,1.3-0.7l4.8-8.3C416.6,117.6,416.6,117.1,416.3,116.6z"/>
</g>
<g id="Layer_2_1_">
</g>
</svg>
