<?xml version="1.0" encoding="UTF-8"?>
<svg focusable="false" width="44px" height="44px" viewBox="0 0 44 44" version="1.1" xmlns="http://www.w3.org/2000/svg" xmlns:xlink="http://www.w3.org/1999/xlink">
    <g id="azure-logo" stroke="none" stroke-width="1" fill="none" fill-rule="evenodd">
        <g id="Snowflake_Logo" transform="translate(-1.000000, 0.000000)" fill="#29B5E8" fill-rule="nonzero">
            <path d="M38.2617195,33.660156 L29.0859385,28.359375 C27.7968755,27.617188 26.1484385,28.058594 25.4023445,29.347656 C25.1132815,29.855469 25.0000005,30.414062 25.0546885,30.957031 L25.0546885,41.316406 C25.0546885,42.796875 26.2578125,44 27.7421885,44 C29.2226565,44 30.4257815,42.796875 30.4257815,41.316406 L30.4257815,35.359375 L35.5664065,38.328125 C36.8554695,39.074219 38.5078125,38.628906 39.2500005,37.339844 C39.9960945,36.050781 39.5546885,34.402344 38.2617195,33.660156" id="Path"></path>
            <path d="M15.4414065,22.300781 C15.4570315,21.34375 14.9531255,20.453125 14.1250005,19.972656 L4.94921949,14.675781 C4.55078149,14.445312 4.09375049,14.324219 3.63671949,14.324219 C2.69531249,14.324219 1.8203125,14.828125 1.3515625,15.640625 C0.625000495,16.898438 1.0585945,18.511719 2.31640649,19.238281 L7.60546949,22.289062 L2.31640649,25.34375 C1.7070315,25.695312 1.2695315,26.261719 1.0898445,26.941406 C0.906250495,27.621094 1.00000049,28.332031 1.3515625,28.941406 C1.8203125,29.753906 2.69531249,30.257812 3.63281249,30.257812 C4.09375049,30.257812 4.55078149,30.136719 4.94921949,29.90625 L14.1250005,24.609375 C14.9453125,24.132812 15.4492195,23.25 15.4414065,22.300781" id="Path"></path>
            <path d="M7.03125049,10.921875 L16.2070315,16.21875 C17.2773445,16.839844 18.5976565,16.636719 19.4414065,15.8125 C19.9765625,15.320312 20.3085945,14.617188 20.3085945,13.835938 L20.3085945,3.21875 C20.3085945,1.734375 19.1054695,0.53125 17.6250005,0.53125 C16.1406255,0.53125 14.9375005,1.734375 14.9375005,3.21875 L14.9375005,9.261719 L9.72656249,6.253906 C8.43750049,5.507812 6.78906249,5.949219 6.04296949,7.238281 C5.29687549,8.527344 5.74218849,10.175781 7.03125049,10.921875" id="Path"></path>
            <path d="M27.6640625,22.730469 C27.6640625,22.933594 27.5468755,23.214844 27.4023445,23.363281 L23.7656255,27 C23.6210945,27.144531 23.3359385,27.261719 23.1328125,27.261719 L22.2070315,27.261719 C22.0039065,27.261719 21.7187505,27.144531 21.5742195,27 L17.9335945,23.363281 C17.7890625,23.214844 17.6718755,22.933594 17.6718755,22.730469 L17.6718755,21.804688 C17.6718755,21.597656 17.7890625,21.316406 17.9335945,21.171875 L21.5742195,17.53125 C21.7187505,17.386719 22.0039065,17.269531 22.2070315,17.269531 L23.1328125,17.269531 C23.3359385,17.269531 23.6210945,17.386719 23.7656255,17.53125 L27.4023445,21.171875 C27.5468755,21.316406 27.6640625,21.597656 27.6640625,21.804688 L27.6640625,22.730469 Z M24.4179695,22.285156 L24.4179695,22.246094 C24.4179695,22.097656 24.3320315,21.890625 24.2265625,21.78125 L23.1523445,20.710938 C23.0468755,20.601562 22.8398445,20.515625 22.6875005,20.515625 L22.6484385,20.515625 C22.5000005,20.515625 22.2929695,20.601562 22.1835945,20.710938 L21.1132815,21.78125 C21.0078125,21.886719 20.9218755,22.09375 20.9218755,22.246094 L20.9218755,22.285156 C20.9218755,22.4375 21.0078125,22.644531 21.1132815,22.75 L22.1835945,23.824219 C22.2929695,23.929688 22.5000005,24.015625 22.6484385,24.015625 L22.6875005,24.015625 C22.8398445,24.015625 23.0468755,23.929688 23.1523445,23.824219 L24.2265625,22.75 C24.3320315,22.644531 24.4179695,22.4375 24.4179695,22.285156 Z" id="Combined-Shape"></path>
            <path d="M29.0859385,16.21875 L38.2617195,10.921875 C39.5507815,10.179688 39.9960945,8.527344 39.2500005,7.238281 C38.5039065,5.949219 36.8554695,5.507812 35.5664065,6.253906 L30.4257815,9.222656 L30.4257815,3.21875 C30.4257815,1.734375 29.2226565,0.53125 27.7421885,0.53125 C26.2578125,0.53125 25.0546885,1.734375 25.0546885,3.21875 L25.0546885,13.625 C25.0039065,14.164062 25.1093755,14.726562 25.4023445,15.234375 C26.1484385,16.523438 27.7968755,16.964844 29.0859385,16.21875" id="Path"></path>
            <path d="M18.0468755,28.046875 C17.4375005,27.929688 16.7851565,28.027344 16.2070315,28.359375 L7.03125049,33.660156 C5.74218849,34.402344 5.29687549,36.050781 6.04296949,37.339844 C6.78906249,38.632812 8.43750049,39.074219 9.72656249,38.328125 L14.9375005,35.320312 L14.9375005,41.316406 C14.9375005,42.796875 16.1406255,44 17.6250005,44 C19.1054695,44 20.3085945,42.796875 20.3085945,41.316406 L20.3085945,30.699219 C20.3085945,29.359375 19.3281255,28.25 18.0468755,28.046875" id="Path"></path>
            <path d="M43.9960945,15.609375 C43.2539065,14.316406 41.6015625,13.875 40.3125005,14.621094 L31.1367195,19.917969 C30.2578125,20.425781 29.7734385,21.355469 29.7890625,22.300781 C29.7812505,23.242188 30.2656255,24.160156 31.1367195,24.660156 L40.3125005,29.960938 C41.6015625,30.703125 43.2500005,30.261719 43.9960945,28.972656 C44.7421885,27.683594 44.2968755,26.035156 43.0078125,25.289062 L37.8125005,22.289062 L43.0078125,19.289062 C44.3007815,18.546875 44.7421885,16.898438 43.9960945,15.609375" id="Path"></path>
        </g>
    </g>
</svg>