<?xml version="1.0" encoding="utf-8"?>
<!-- Generator: Adobe Illustrator 24.0.3, SVG Export Plug-In . SVG Version: 6.00 Build 0)  -->
<svg version="1.1" xmlns="http://www.w3.org/2000/svg" xmlns:xlink="http://www.w3.org/1999/xlink" x="0px" y="0px"
	 viewBox="0 0 1511 150" style="enable-background:new 0 0 1511 150;" xml:space="preserve">
<style type="text/css">
	.st0{display:none;}
	.st1{display:inline;}
	.st2{fill:#4E55FD;}
	.st3{fill:none;stroke:#4E55FD;stroke-width:5;stroke-miterlimit:10;}
	.st4{font-family:'Plain-Regular';}
	.st5{font-size:24px;}
</style>
<g id="Layer_1" class="st0">
	<g id="jOiGON.tif" class="st1">
		
			<image style="overflow:visible;" width="1600" height="294" id="Layer_0_1_" xlink:href="307583E61AA43244.png"  transform="matrix(1 0 0 1 51.5128 392.5128)">
		</image>
	</g>
</g>
<g id="Layer_2" class="st0">
	<g id="WnZjtB.tif" class="st1">
		
			<image style="overflow:visible;" width="49" height="28" id="Layer_0_2_" xlink:href="307583E61AA43247.png"  transform="matrix(1 0 0 1 316 613)">
		</image>
	</g>
</g>
<g id="Layer_8" class="st0">
</g>
<g id="arrows">
	<polygon class="st2" points="273,96.7 300.4,74.9 300.4,74.9 300.4,74.9 300.4,74.9 300.4,74.9 273,53.1 276.3,64.9 245.7,64.9 
		245.7,84.8 276.3,84.8 	"/>
	<polygon class="st2" points="594.7,96.7 622,74.9 622.1,74.9 622,74.9 622.1,74.9 622,74.9 594.7,53.1 598,64.9 567.3,64.9 
		567.3,84.8 598,84.8 	"/>
	<polygon class="st2" points="916.4,96.7 943.7,74.9 943.7,74.9 943.7,74.9 943.7,74.9 943.7,74.9 916.4,53.1 919.7,64.9 889,64.9 
		889,84.8 919.7,84.8 	"/>
	<polygon class="st2" points="1238,96.7 1265.4,74.9 1265.4,74.9 1265.4,74.9 1265.4,74.9 1265.4,74.9 1238,53.1 1241.3,64.9 
		1210.7,64.9 1210.7,84.8 1241.3,84.8 	"/>
</g>
<g id="Sign_up">
	<g>
		<rect x="4.2" y="3.9" class="st3" width="216" height="142"/>
		<text transform="matrix(1 0 0 1 68.501 81.9135)" class="st4 st5">Sign Up</text>
	</g>
</g>
<g id="Deploy">
	<path class="st3" d="M353.5,74.9"/>
	<path class="st3" d="M192.6,74.9"/>
	<g>
		<text transform="matrix(1 0 0 1 394.1051 81.9138)" class="st4 st5">Deploy</text>
		<rect x="325.9" y="3.9" class="st3" width="216" height="142"/>
	</g>
	<g id="Deploy_1_">
	</g>
</g>
<g id="Log_in_and_connect">
	<text transform="matrix(1 0 0 1 717.1407 67.5139)"><tspan x="0" y="0" class="st4 st5">Sign In </tspan><tspan x="-34.4" y="28.8" class="st4 st5">and Connect</tspan></text>
	<rect x="647.5" y="3.9" class="st3" width="216" height="142"/>
	<g id="Log_In_and_Connect">
	</g>
</g>
<g id="Model_data">
	<g>
		<text transform="matrix(1 0 0 1 1012.6007 81.9135)" class="st4 st5">Model Data</text>
		<rect x="969.2" y="3.9" class="st3" width="216" height="142"/>
	</g>
	<g id="Model_data_text">
	</g>
</g>
<g id="Search">
	<g>
		<text transform="matrix(1 0 0 1 1359.6475 81.9135)" class="st4 st5">Search</text>
		<rect x="1290.9" y="3.9" class="st3" width="216" height="142"/>
	</g>
	<g id="Search_text">
	</g>
</g>
</svg>
