<?xml version="1.0" encoding="utf-8"?>
<!-- Generator: Adobe Illustrator 24.1.2, SVG Export Plug-In . SVG Version: 6.00 Build 0)  -->
<svg version="1.1" id="Layer_1" xmlns="http://www.w3.org/2000/svg" xmlns:xlink="http://www.w3.org/1999/xlink" x="0px" y="0px"
	 viewBox="0 0 700 265" style="enable-background:new 0 0 700 265;" xml:space="preserve">
<style type="text/css">
	.st0{display:none;}
	.st1{fill:none;stroke:#000000;stroke-width:2.5;stroke-miterlimit:10;}
	.st2{fill:#FFFFFF;stroke:#000000;stroke-width:2.5;stroke-miterlimit:10;}
	.st3{fill:#4285F4;}
	.st4{opacity:7.000000e-02;enable-background:new    ;}
	.st5{fill:#FFFFFF;}
	.st6{fill:#737373;}
	.st7{fill:#FFCC40;}
	.st8{fill:#DA4437;}
	.st9{fill:#4284F3;}
	.st10{fill:#DFDFDF;}
	.st11{opacity:0.2;fill:#FFFFFF;enable-background:new    ;}
	.st12{fill:#1A237E;fill-opacity:0.2;}
	.st13{opacity:0.2;}
	.st14{fill:#BE360C;}
	.st15{fill:#3E2723;}
	.st16{fill:url(#SVGID_1_);}
	.st17{fill:url(#SVGID_2_);}
	.st18{fill:url(#SVGID_3_);}
	.st19{fill:url(#SVGID_4_);}
</style>
<g class="st0">
	
		<image style="display:inline;overflow:visible;enable-background:new    ;" width="1805" height="368" xlink:href="cloud-vm-storage.png"  transform="matrix(1.0019 0 0 1.0019 -538.2466 -48.6067)">
	</image>
</g>
<g>
	<line class="st1" x1="88.3" y1="94.6" x2="88.3" y2="67.6"/>
	<line class="st1" x1="266.2" y1="94.6" x2="266.2" y2="67.6"/>
	<line class="st1" x1="446.3" y1="95.4" x2="446.3" y2="68.3"/>
	<line class="st1" x1="616.3" y1="97.5" x2="616.3" y2="70.5"/>
</g>
<line class="st1" x1="153" y1="40" x2="549.6" y2="40"/>
<rect x="6.6" y="8" class="st2" width="154.5" height="64.4"/>
<rect x="183.8" y="8" class="st2" width="154.5" height="64.4"/>
<rect x="361.5" y="8" class="st2" width="154.5" height="64.4"/>
<rect x="537.9" y="8" class="st2" width="154.5" height="64.4"/>
<rect x="6.6" y="88.6" class="st2" width="685.9" height="169.2"/>
<g>
	<path d="M53.7,44.4l-3-9.2H52l1.4,4.6c0.4,1.2,0.7,2.4,1,3.5l0,0c0.3-1.1,0.6-2.2,1.1-3.4l1.6-4.6h1.3l-3.3,9.2L53.7,44.4
		L53.7,44.4z"/>
	<path d="M67.1,40.3c-0.1-1.3-0.2-2.8-0.1-4l0,0c-0.3,1.1-0.7,2.2-1.2,3.5l-1.6,4.5h-0.9l-1.5-4.4c-0.4-1.3-0.8-2.5-1.1-3.6l0,0
		c0,1.2-0.1,2.7-0.2,4.1l-0.2,4h-1.1l0.6-9.2h1.5l1.6,4.5c0.4,1.1,0.7,2.2,0.9,3.1l0,0c0.2-0.9,0.6-1.9,1-3.1l1.6-4.5h1.5l0.6,9.2
		h-1.2L67.1,40.3z"/>
	<path d="M74.4,35.2v9.2h-1.2v-9.2H74.4z"/>
	<path d="M76.6,39.6c0-0.7,0-1.2-0.1-1.8h1.1l0.1,1.1l0,0c0.3-0.6,1.1-1.2,2.2-1.2c0.9,0,2.3,0.5,2.3,2.8v4H81v-3.8
		c0-1.1-0.4-2-1.5-2c-0.8,0-1.4,0.6-1.6,1.2c0,0.1-0.1,0.3-0.1,0.5v4h-1.2C76.6,44.4,76.6,39.6,76.6,39.6z"/>
	<path d="M84.1,43.2c0.4,0.2,1,0.5,1.6,0.5c0.9,0,1.3-0.4,1.3-1s-0.3-0.9-1.2-1.2c-1.2-0.4-1.8-1.1-1.8-1.9c0-1.1,0.9-1.9,2.3-1.9
		c0.7,0,1.3,0.2,1.6,0.4L87.6,39c-0.3-0.2-0.7-0.4-1.4-0.4c-0.7,0-1.1,0.4-1.1,0.9s0.4,0.8,1.3,1.1c1.2,0.4,1.7,1,1.7,2
		c0,1.2-0.9,2-2.5,2c-0.7,0-1.4-0.2-1.9-0.5L84.1,43.2z"/>
	<path d="M91.1,35.9v1.9h1.7v0.9h-1.7v3.6c0,0.8,0.2,1.3,0.9,1.3c0.3,0,0.5,0,0.7-0.1l0.1,0.9c-0.2,0.1-0.6,0.2-1.1,0.2
		c-0.6,0-1-0.2-1.3-0.5c-0.3-0.4-0.5-0.9-0.5-1.7v-3.6h-1v-0.9h1v-1.7L91.1,35.9z"/>
	<path d="M97.9,44.4l-0.1-0.8l0,0c-0.4,0.5-1.1,1-2,1c-1.3,0-2-0.9-2-1.9c0-1.6,1.4-2.5,4-2.5v-0.1c0-0.5-0.2-1.5-1.5-1.5
		c-0.6,0-1.3,0.2-1.7,0.5l-0.4-0.9c0.5-0.4,1.3-0.6,2.2-0.6c2,0,2.5,1.4,2.5,2.7v2.5c0,0.6,0,1.1,0.1,1.6H97.9z M97.7,41
		c-1.3,0-2.8,0.2-2.8,1.5c0,0.8,0.5,1.2,1.1,1.2c0.9,0,1.4-0.5,1.6-1.1c0-0.1,0.1-0.3,0.1-0.4C97.7,42.2,97.7,41,97.7,41z"/>
	<path d="M100.8,39.6c0-0.7,0-1.2-0.1-1.8h1.1l0.1,1.1l0,0c0.3-0.6,1.1-1.2,2.2-1.2c0.9,0,2.3,0.5,2.3,2.8v4h-1.2v-3.8
		c0-1.1-0.4-2-1.5-2c-0.8,0-1.4,0.6-1.6,1.2c-0.1,0.2-0.1,0.4-0.1,0.6v4h-1.2C100.8,44.5,100.8,39.6,100.8,39.6z"/>
	<path d="M113.2,44.2c-0.3,0.2-1,0.4-1.9,0.4c-2,0-3.3-1.4-3.3-3.4s1.4-3.5,3.6-3.5c0.7,0,1.3,0.2,1.7,0.3l-0.3,0.9
		c-0.3-0.2-0.7-0.3-1.4-0.3c-1.5,0-2.3,1.1-2.3,2.5c0,1.5,1,2.5,2.3,2.5c0.7,0,1.1-0.2,1.5-0.3L113.2,44.2z"/>
	<path d="M115.2,41.3c0,1.6,1.1,2.3,2.3,2.3c0.9,0,1.4-0.2,1.8-0.3l0.2,0.9c-0.4,0.2-1.2,0.4-2.2,0.4c-2,0-3.3-1.3-3.3-3.3
		s1.2-3.6,3.1-3.6c2.2,0,2.7,1.9,2.7,3.1c0,0.2,0,0.4,0,0.6h-4.6V41.3z M118.7,40.4c0-0.8-0.3-2-1.7-2c-1.2,0-1.8,1.1-1.9,2H118.7z"
		/>
</g>
<g>
	<path d="M229.8,44.4l-3-9.2h1.3l1.4,4.6c0.4,1.2,0.7,2.4,1,3.5l0,0c0.3-1.1,0.6-2.2,1.1-3.4l1.6-4.6h1.3l-3.3,9.2L229.8,44.4
		L229.8,44.4z"/>
	<path d="M243.3,40.3c-0.1-1.3-0.2-2.8-0.1-4l0,0c-0.3,1.1-0.7,2.2-1.2,3.5l-1.6,4.5h-0.9l-1.5-4.4c-0.4-1.3-0.8-2.5-1.1-3.6l0,0
		c0,1.2-0.1,2.7-0.2,4.1l-0.2,4h-1.1l0.6-9.2h1.5l1.6,4.5c0.4,1.1,0.7,2.2,0.9,3.1l0,0c0.2-0.9,0.6-1.9,1-3.1l1.6-4.5h1.5l0.6,9.2
		h-1.2L243.3,40.3z"/>
	<path d="M250.6,35.2v9.2h-1.2v-9.2H250.6z"/>
	<path d="M252.8,39.6c0-0.7,0-1.2-0.1-1.8h1.1l0.1,1.1l0,0c0.3-0.6,1.1-1.2,2.2-1.2c0.9,0,2.3,0.5,2.3,2.8v4h-1.2v-3.8
		c0-1.1-0.4-2-1.5-2c-0.8,0-1.4,0.6-1.6,1.2c-0.1,0.2-0.1,0.4-0.1,0.6v4h-1.2L252.8,39.6L252.8,39.6z"/>
	<path d="M260.2,43.2c0.4,0.2,1,0.5,1.6,0.5c0.9,0,1.3-0.4,1.3-1s-0.3-0.9-1.2-1.2c-1.2-0.4-1.8-1.1-1.8-1.9c0-1.1,0.9-1.9,2.3-1.9
		c0.7,0,1.3,0.2,1.6,0.4l-0.3,0.9c-0.3-0.2-0.7-0.4-1.4-0.4c-0.7,0-1.1,0.4-1.1,0.9s0.4,0.8,1.3,1.1c1.2,0.4,1.7,1,1.7,2
		c0,1.2-0.9,2-2.5,2c-0.7,0-1.4-0.2-1.9-0.5L260.2,43.2z"/>
	<path d="M267.3,35.9v1.9h1.7v0.9h-1.7v3.6c0,0.8,0.2,1.3,0.9,1.3c0.3,0,0.5,0,0.7-0.1l0.1,0.9c-0.2,0.1-0.6,0.2-1.1,0.2
		c-0.6,0-1-0.2-1.3-0.5c-0.3-0.4-0.5-0.9-0.5-1.7v-3.6h-1v-0.9h1v-1.7L267.3,35.9z"/>
	<path d="M274.1,44.4l-0.1-0.8l0,0c-0.4,0.5-1.1,1-2,1c-1.3,0-2-0.9-2-1.9c0-1.6,1.4-2.5,4-2.5v-0.1c0-0.5-0.2-1.5-1.5-1.5
		c-0.6,0-1.3,0.2-1.7,0.5l-0.3-0.8c0.5-0.4,1.3-0.6,2.2-0.6c2,0,2.5,1.4,2.5,2.7v2.5c0,0.6,0,1.1,0.1,1.6h-1.2V44.4z M273.9,41
		c-1.3,0-2.8,0.2-2.8,1.5c0,0.8,0.5,1.2,1.1,1.2c0.9,0,1.4-0.5,1.6-1.1c0-0.1,0.1-0.3,0.1-0.4L273.9,41L273.9,41z"/>
	<path d="M277,39.6c0-0.7,0-1.2-0.1-1.8h1.1l0.1,1.1l0,0c0.3-0.6,1.1-1.2,2.2-1.2c0.9,0,2.3,0.5,2.3,2.8v4h-1.2v-3.8
		c0-1.1-0.4-2-1.5-2c-0.8,0-1.4,0.6-1.6,1.2c-0.1,0.2-0.1,0.4-0.1,0.6v4H277V39.6L277,39.6z"/>
	<path d="M289.3,44.2c-0.3,0.2-1,0.4-1.9,0.4c-2,0-3.3-1.4-3.3-3.4s1.4-3.5,3.6-3.5c0.7,0,1.3,0.2,1.7,0.3l-0.3,0.9
		c-0.3-0.2-0.7-0.3-1.4-0.3c-1.5,0-2.3,1.1-2.3,2.5c0,1.5,1,2.5,2.3,2.5c0.7,0,1.1-0.2,1.5-0.3L289.3,44.2z"/>
	<path d="M291.3,41.3c0,1.6,1.1,2.3,2.3,2.3c0.9,0,1.4-0.2,1.8-0.3l0.2,0.9c-0.4,0.2-1.2,0.4-2.2,0.4c-2,0-3.3-1.3-3.3-3.3
		s1.2-3.6,3.1-3.6c2.2,0,2.7,1.9,2.7,3.1c0,0.2,0,0.4,0,0.6h-4.6V41.3z M294.9,40.4c0-0.8-0.3-2-1.7-2c-1.2,0-1.8,1.1-1.9,2H294.9z"
		/>
</g>
<g>
	<path d="M410.6,44.4l-3-9.2h1.3l1.4,4.6c0.4,1.2,0.7,2.4,1,3.5l0,0c0.3-1.1,0.6-2.2,1.1-3.4l1.6-4.6h1.3l-3.3,9.2L410.6,44.4
		L410.6,44.4z"/>
	<path d="M424,40.3c-0.1-1.3-0.2-2.8-0.1-4l0,0c-0.3,1.1-0.7,2.2-1.2,3.5l-1.6,4.5h-0.9l-1.5-4.4c-0.4-1.3-0.8-2.5-1.1-3.6l0,0
		c0,1.2-0.1,2.7-0.2,4.1l-0.2,4h-1.1l0.6-9.2h1.5l1.6,4.5c0.4,1.1,0.7,2.2,0.9,3.1l0,0c0.2-0.9,0.6-1.9,1-3.1l1.6-4.5h1.5l0.6,9.2
		h-1.2L424,40.3z"/>
	<path d="M431.3,35.2v9.2h-1.2v-9.2H431.3z"/>
	<path d="M433.5,39.6c0-0.7,0-1.2-0.1-1.8h1.1l0.1,1.1l0,0c0.3-0.6,1.1-1.2,2.2-1.2c0.9,0,2.3,0.5,2.3,2.8v4h-1.2v-3.8
		c0-1.1-0.4-2-1.5-2c-0.8,0-1.4,0.6-1.6,1.2c-0.1,0.2-0.1,0.4-0.1,0.6v4h-1.2L433.5,39.6L433.5,39.6z"/>
	<path d="M441,43.2c0.4,0.2,1,0.5,1.6,0.5c0.9,0,1.3-0.4,1.3-1s-0.3-0.9-1.2-1.2c-1.2-0.4-1.8-1.1-1.8-1.9c0-1.1,0.9-1.9,2.3-1.9
		c0.7,0,1.3,0.2,1.6,0.4l-0.3,0.9c-0.3-0.2-0.7-0.4-1.4-0.4c-0.7,0-1.1,0.4-1.1,0.9s0.4,0.8,1.3,1.1c1.2,0.4,1.7,1,1.7,2
		c0,1.2-0.9,2-2.5,2c-0.7,0-1.4-0.2-1.9-0.5L441,43.2z"/>
	<path d="M448,35.9v1.9h1.7v0.9H448v3.6c0,0.8,0.2,1.3,0.9,1.3c0.3,0,0.5,0,0.7-0.1l0.1,0.9c-0.2,0.1-0.6,0.2-1.1,0.2
		c-0.6,0-1-0.2-1.3-0.5c-0.3-0.4-0.5-0.9-0.5-1.7v-3.6h-1v-0.9h1v-1.7L448,35.9z"/>
	<path d="M454.8,44.4l-0.1-0.8l0,0c-0.4,0.5-1.1,1-2,1c-1.3,0-2-0.9-2-1.9c0-1.6,1.4-2.5,4-2.5v-0.1c0-0.5-0.2-1.5-1.5-1.5
		c-0.6,0-1.3,0.2-1.7,0.5l-0.3-0.8c0.5-0.4,1.3-0.6,2.2-0.6c2,0,2.5,1.4,2.5,2.7v2.5c0,0.6,0,1.1,0.1,1.6h-1.2V44.4z M454.6,41
		c-1.3,0-2.8,0.2-2.8,1.5c0,0.8,0.5,1.2,1.1,1.2c0.9,0,1.4-0.5,1.6-1.1c0-0.1,0.1-0.3,0.1-0.4L454.6,41L454.6,41z"/>
	<path d="M457.7,39.6c0-0.7,0-1.2-0.1-1.8h1.1l0.1,1.1l0,0c0.3-0.6,1.1-1.2,2.2-1.2c0.9,0,2.3,0.5,2.3,2.8v4h-1.2v-3.8
		c0-1.1-0.4-2-1.5-2c-0.8,0-1.4,0.6-1.6,1.2c-0.1,0.2-0.1,0.4-0.1,0.6v4h-1.2L457.7,39.6L457.7,39.6z"/>
	<path d="M470.1,44.2c-0.3,0.2-1,0.4-1.9,0.4c-2,0-3.3-1.4-3.3-3.4s1.4-3.5,3.6-3.5c0.7,0,1.3,0.2,1.7,0.3l-0.3,0.9
		c-0.3-0.2-0.7-0.3-1.4-0.3c-1.5,0-2.3,1.1-2.3,2.5c0,1.5,1,2.5,2.3,2.5c0.7,0,1.1-0.2,1.5-0.3L470.1,44.2z"/>
	<path d="M472.1,41.3c0,1.6,1.1,2.3,2.3,2.3c0.9,0,1.4-0.2,1.8-0.3l0.2,0.9c-0.4,0.2-1.2,0.4-2.2,0.4c-2,0-3.3-1.3-3.3-3.3
		s1.2-3.6,3.1-3.6c2.2,0,2.7,1.9,2.7,3.1c0,0.2,0,0.4,0,0.6h-4.6V41.3z M475.6,40.4c0-0.8-0.3-2-1.7-2c-1.2,0-1.8,1.1-1.9,2H475.6z"
		/>
</g>
<g>
	<path d="M581.6,44.4l-3-9.2h1.3l1.4,4.6c0.4,1.2,0.7,2.4,1,3.5l0,0c0.3-1.1,0.6-2.2,1.1-3.4l1.6-4.6h1.3l-3.3,9.2L581.6,44.4
		L581.6,44.4z"/>
	<path d="M595,40.3c-0.1-1.3-0.2-2.8-0.1-4l0,0c-0.3,1.1-0.7,2.2-1.2,3.5l-1.6,4.5h-0.9l-1.5-4.4c-0.4-1.3-0.8-2.5-1.1-3.6l0,0
		c0,1.2-0.1,2.7-0.2,4.1l-0.2,4h-1.1l0.6-9.2h1.5l1.6,4.5c0.4,1.1,0.7,2.2,0.9,3.1l0,0c0.2-0.9,0.6-1.9,1-3.1l1.6-4.5h1.5l0.6,9.2
		h-1.2L595,40.3z"/>
	<path d="M602.4,35.2v9.2h-1.2v-9.2H602.4z"/>
	<path d="M604.6,39.6c0-0.7,0-1.2-0.1-1.8h1.1l0.1,1.1l0,0c0.3-0.6,1.1-1.2,2.2-1.2c0.9,0,2.3,0.5,2.3,2.8v4H609v-3.8
		c0-1.1-0.4-2-1.5-2c-0.8,0-1.4,0.6-1.6,1.2c-0.1,0.2-0.1,0.4-0.1,0.6v4h-1.2L604.6,39.6L604.6,39.6z"/>
	<path d="M612,43.2c0.4,0.2,1,0.5,1.6,0.5c0.9,0,1.3-0.4,1.3-1s-0.3-0.9-1.2-1.2c-1.2-0.4-1.8-1.1-1.8-1.9c0-1.1,0.9-1.9,2.3-1.9
		c0.7,0,1.3,0.2,1.6,0.4l-0.3,0.9c-0.3-0.2-0.7-0.4-1.4-0.4S613,39,613,39.5s0.4,0.8,1.3,1.1c1.2,0.4,1.7,1,1.7,2c0,1.2-0.9,2-2.5,2
		c-0.7,0-1.4-0.2-1.9-0.5L612,43.2z"/>
	<path d="M619.1,35.9v1.9h1.7v0.9h-1.7v3.6c0,0.8,0.2,1.3,0.9,1.3c0.3,0,0.5,0,0.7-0.1l0.1,0.9c-0.2,0.1-0.6,0.2-1.1,0.2
		c-0.6,0-1-0.2-1.3-0.5c-0.3-0.4-0.5-0.9-0.5-1.7v-3.6h-1v-0.9h1v-1.7L619.1,35.9z"/>
	<path d="M625.8,44.4l-0.1-0.8l0,0c-0.4,0.5-1.1,1-2,1c-1.3,0-2-0.9-2-1.9c0-1.6,1.4-2.5,4-2.5v-0.1c0-0.5-0.2-1.5-1.5-1.5
		c-0.6,0-1.3,0.2-1.7,0.5l-0.3-0.8c0.5-0.4,1.3-0.6,2.2-0.6c2,0,2.5,1.4,2.5,2.7v2.5c0,0.6,0,1.1,0.1,1.6h-1.2V44.4z M625.6,41
		c-1.3,0-2.8,0.2-2.8,1.5c0,0.8,0.5,1.2,1.1,1.2c0.9,0,1.4-0.5,1.6-1.1c0-0.1,0.1-0.3,0.1-0.4L625.6,41L625.6,41z"/>
	<path d="M628.8,39.6c0-0.7,0-1.2-0.1-1.8h1.1l0.1,1.1l0,0c0.3-0.6,1.1-1.2,2.2-1.2c0.9,0,2.3,0.5,2.3,2.8v4h-1.2v-3.8
		c0-1.1-0.4-2-1.5-2c-0.8,0-1.4,0.6-1.6,1.2c-0.1,0.2-0.1,0.4-0.1,0.6v4h-1.2V39.6z"/>
	<path d="M641.1,44.2c-0.3,0.2-1,0.4-1.9,0.4c-2,0-3.3-1.4-3.3-3.4s1.4-3.5,3.6-3.5c0.7,0,1.3,0.2,1.7,0.3l-0.3,0.9
		c-0.3-0.2-0.7-0.3-1.4-0.3c-1.5,0-2.3,1.1-2.3,2.5c0,1.5,1,2.5,2.3,2.5c0.7,0,1.1-0.2,1.5-0.3L641.1,44.2z"/>
	<path d="M643.1,41.3c0,1.6,1.1,2.3,2.3,2.3c0.9,0,1.4-0.2,1.8-0.3l0.2,0.9c-0.4,0.2-1.2,0.4-2.2,0.4c-2,0-3.3-1.3-3.3-3.3
		s1.2-3.6,3.1-3.6c2.2,0,2.7,1.9,2.7,3.1c0,0.2,0,0.4,0,0.6h-4.6V41.3z M646.6,40.4c0-0.8-0.3-2-1.7-2c-1.2,0-1.8,1.1-1.9,2H646.6z"
		/>
</g>
<g>
	<path class="st3" d="M113.1,180.7l-10.4-18.1c-0.8-1.4-2.3-2.3-3.9-2.3H77.9c-1.6,0-3.1,0.9-3.9,2.3l-10.4,18.1
		c-0.8,1.4-0.8,3.1,0,4.6l10.4,18.2c0.8,1.4,2.2,2.4,3.9,2.4h20.9c1.6-0.1,3.2-1,3.9-2.4l10.4-18.1
		C113.8,183.9,113.8,182.2,113.1,180.7z"/>
	<path class="st4" d="M95.9,173.5l-12.7,1.6l-2.4,6.4l2,2l-2,3.6l2,2l-2,3.6l13.3,13.3h4.7c1.6-0.1,3.2-1,3.9-2.4l8.4-14.6
		L95.9,173.5z"/>
	<polygon class="st5" points="92.3,184.6 92.3,189 80.8,189 80.8,192.6 95.9,192.6 95.9,184.6 	"/>
	<polygon class="st5" points="84.4,181.5 84.4,177.1 95.9,177.1 95.9,173.5 80.8,173.5 80.8,181.5 	"/>
	<polygon class="st5" points="86.3,179.1 86.3,183.4 80.8,183.4 80.8,187 90.3,187 90.3,182.6 95.9,182.6 95.9,179.1 	"/>
</g>
<g>
	<g>
		<path d="M56.3,236h3.3c1,0,1.6,0.2,1.9,0.8c0.2,0.2,0.4,0.6,0.4,1.1c0,0.5-0.1,0.8-0.4,1.2c-0.2,0.2-0.4,0.2-0.6,0.5
			c0.4,0.2,0.6,0.2,0.8,0.5c0.4,0.4,0.6,0.8,0.6,1.5c0,0.5-0.2,1-0.5,1.3c-0.5,0.6-1.2,1-2.2,1h-3.4V236L56.3,236z M59.3,239.2
			c0.5,0,0.7-0.1,1-0.2c0.4-0.2,0.6-0.6,0.6-1c0-0.5-0.2-0.8-0.6-1c-0.2-0.1-0.6-0.2-1-0.2h-1.8v2.3L59.3,239.2L59.3,239.2
			L59.3,239.2z M59.7,242.7c0.6,0,1.1-0.2,1.5-0.6c0.2-0.2,0.2-0.6,0.2-0.8c0-0.6-0.2-1-0.7-1.1c-0.2-0.1-0.6-0.2-1-0.2h-2.2v2.7
			L59.7,242.7L59.7,242.7z"/>
		<path d="M63.4,236h1v7.6h-1V236z"/>
		<path d="M69.9,238.6c0.5,0.5,0.7,1.2,0.7,2.2s-0.2,1.7-0.6,2.2c-0.4,0.5-1.1,0.8-2.1,0.8c-0.7,0-1.5-0.2-1.8-0.7
			c-0.5-0.6-0.6-1.2-0.6-2.1c0-1,0.2-1.7,0.7-2.2s1.1-0.8,1.8-0.8C68.8,237.9,69.3,238.2,69.9,238.6z M69.3,242.4
			c0.2-0.5,0.4-1,0.4-1.6s-0.1-1-0.2-1.3c-0.2-0.6-0.7-0.7-1.3-0.7c-0.6,0-1,0.2-1.2,0.6c-0.2,0.5-0.4,1-0.4,1.6
			c0,0.6,0.1,1.1,0.4,1.5c0.2,0.4,0.6,0.6,1.2,0.6C68.6,243,69,242.9,69.3,242.4z"/>
		<path d="M75.3,238.4c0.4,0.2,0.6,0.8,0.7,1.6h-1c-0.1-0.4-0.2-0.6-0.4-0.8c-0.2-0.2-0.6-0.4-1-0.4c-0.6,0-1,0.2-1.3,0.8
			c-0.2,0.4-0.2,0.8-0.2,1.5s0.1,1,0.4,1.5c0.2,0.4,0.6,0.6,1.1,0.6c0.4,0,0.6-0.1,1-0.4c0.2-0.2,0.4-0.6,0.5-1h1
			c-0.1,0.7-0.4,1.3-0.7,1.6c-0.4,0.4-1,0.6-1.6,0.6c-0.7,0-1.3-0.2-1.8-0.8c-0.5-0.6-0.6-1.2-0.6-1.9c0-1,0.2-1.8,0.7-2.3
			c0.5-0.6,1.1-0.8,1.8-0.8C74.5,237.9,74.9,238,75.3,238.4z"/>
		<path d="M77,236h1v4.5l2.4-2.3h1.2l-2.2,2.1l2.2,3.5h-1.2l-1.8-2.8l-0.7,0.7v2.1h-1L77,236L77,236z"/>
		<path d="M86.1,241.2c0,0.5,0.1,0.7,0.2,1c0.4,0.5,1,0.7,1.8,0.7c0.4,0,0.7-0.1,1-0.2c0.6-0.2,1-0.6,1-1.1c0-0.4-0.1-0.7-0.4-1
			c-0.2-0.2-0.6-0.2-1.2-0.5l-1-0.2c-0.6-0.2-1.1-0.2-1.5-0.5c-0.5-0.2-0.7-0.8-0.7-1.5c0-0.6,0.2-1.2,0.6-1.7
			c0.5-0.5,1.1-0.6,1.9-0.6c0.7,0,1.5,0.2,1.9,0.6c0.6,0.4,0.8,1,0.8,1.8h-1c-0.1-0.4-0.2-0.7-0.2-1c-0.2-0.4-0.8-0.6-1.6-0.6
			c-0.6,0-1,0.1-1.3,0.4c-0.2,0.2-0.4,0.6-0.4,1s0.2,0.6,0.5,0.8c0.2,0.1,0.6,0.2,1.3,0.4l1,0.2c0.5,0.1,1,0.2,1.1,0.5
			c0.5,0.4,0.7,0.8,0.7,1.6c0,0.8-0.2,1.5-1,1.8c-0.6,0.4-1.3,0.6-2.1,0.6c-1,0-1.7-0.2-2.2-0.7c-0.6-0.5-0.7-1.1-0.7-1.9
			L86.1,241.2L86.1,241.2z"/>
		<path d="M92.6,236.5h1v1.6h1v0.7h-1v3.6c0,0.2,0.1,0.2,0.2,0.4c0.1,0,0.2,0.1,0.4,0.1c0,0,0.1,0,0.2,0c0.1,0,0.1,0,0.2,0v0.7
			c-0.1,0-0.2,0.1-0.4,0.1c-0.1,0-0.2,0-0.4,0c-0.5,0-0.7-0.1-1-0.4c-0.2-0.2-0.2-0.6-0.2-0.8v-3.7H92V238h0.7L92.6,236.5
			L92.6,236.5z"/>
		<path d="M99.4,238.6c0.5,0.5,0.7,1.2,0.7,2.2s-0.2,1.7-0.6,2.2c-0.4,0.5-1.1,0.8-2.1,0.8c-0.7,0-1.5-0.2-1.8-0.7
			c-0.5-0.6-0.6-1.2-0.6-2.1c0-1,0.2-1.7,0.7-2.2s1.1-0.8,1.8-0.8C98.3,237.9,98.9,238.2,99.4,238.6z M98.8,242.4
			c0.2-0.5,0.4-1,0.4-1.6s-0.1-1-0.2-1.3c-0.2-0.6-0.7-0.7-1.3-0.7s-1,0.2-1.2,0.6c-0.2,0.5-0.4,1-0.4,1.6c0,0.6,0.1,1.1,0.4,1.5
			c0.2,0.4,0.6,0.6,1.2,0.6S98.5,242.9,98.8,242.4z"/>
		<path d="M101.3,238h1v1c0.1-0.2,0.2-0.4,0.6-0.6c0.2-0.2,0.6-0.4,1-0.4c0,0,0,0,0.1,0c0.1,0,0.1,0,0.2,0v1c-0.1,0-0.1,0-0.2,0
			c-0.1,0-0.1,0-0.2,0c-0.5,0-0.8,0.2-1.1,0.5c-0.2,0.2-0.4,0.6-0.4,1v3.1h-1V238L101.3,238z"/>
		<path d="M107.8,240.2c0.2,0,0.4-0.1,0.5-0.2c0-0.1,0.1-0.2,0.1-0.4c0-0.2-0.1-0.6-0.4-0.6c-0.2-0.2-0.6-0.2-1-0.2
			c-0.5,0-0.8,0.1-1,0.4c-0.1,0.2-0.2,0.4-0.2,0.6h-0.8c0-0.6,0.2-1.2,0.6-1.5c0.5-0.2,1-0.4,1.5-0.4c0.6,0,1.2,0.1,1.6,0.4
			c0.4,0.2,0.6,0.6,0.6,1.2v3.1c0,0.1,0,0.2,0.1,0.2c0,0.1,0.1,0.1,0.2,0.1c0,0,0.1,0,0.2,0c0.1,0,0.1,0,0.2,0v0.6
			c-0.2,0-0.2,0.1-0.4,0.1c-0.1,0-0.2,0-0.2,0c-0.2,0-0.6-0.1-0.7-0.4c-0.1-0.1-0.1-0.2-0.2-0.6c-0.2,0.2-0.5,0.5-0.8,0.6
			c-0.4,0.2-0.7,0.2-1.2,0.2c-0.6,0-1-0.2-1.3-0.5c-0.4-0.2-0.5-0.7-0.5-1.2c0-0.6,0.2-1,0.5-1.2c0.2-0.2,0.7-0.5,1.3-0.6
			L107.8,240.2z M105.8,242.9c0.2,0.2,0.5,0.2,0.7,0.2c0.4,0,0.6-0.1,1-0.2c0.6-0.2,0.7-0.6,0.7-1.2v-0.7c-0.1,0.1-0.2,0.1-0.5,0.2
			c-0.2,0.1-0.4,0.1-0.6,0.1l-0.6,0.1c-0.4,0-0.6,0.1-0.7,0.2c-0.2,0.2-0.5,0.5-0.5,0.7C105.5,242.5,105.7,242.6,105.8,242.9z"/>
		<path d="M113.9,238.3c0.2,0.1,0.4,0.2,0.6,0.6v-0.7h0.8v5.1c0,0.7-0.1,1.3-0.2,1.7c-0.4,0.7-1.1,1.1-2.2,1.1
			c-0.6,0-1.1-0.1-1.5-0.4s-0.6-0.6-0.6-1.3h1c0,0.2,0.1,0.5,0.2,0.6c0.2,0.2,0.6,0.2,1,0.2c0.7,0,1.2-0.2,1.5-0.7
			c0.1-0.2,0.2-0.8,0.2-1.6c-0.2,0.2-0.4,0.5-0.6,0.6c-0.2,0.1-0.6,0.2-1,0.2c-0.6,0-1.1-0.2-1.6-0.6c-0.5-0.5-0.6-1.1-0.6-2.2
			c0-1,0.2-1.7,0.6-2.2c0.5-0.6,1-0.7,1.7-0.7C113,238,113.5,238,113.9,238.3z M113.9,239.2c-0.2-0.4-0.6-0.5-1.1-0.5
			c-0.6,0-1.1,0.2-1.3,1c-0.1,0.4-0.2,0.7-0.2,1.3c0,0.6,0.1,1.1,0.4,1.5c0.2,0.4,0.6,0.5,1,0.5c0.6,0,1.1-0.2,1.5-1
			c0.2-0.4,0.2-0.7,0.2-1.2C114.4,240.1,114.2,239.6,113.9,239.2z"/>
		<path d="M120.1,238.2c0.4,0.2,0.6,0.5,0.8,0.7c0.2,0.2,0.2,0.6,0.4,1c0.1,0.2,0.1,0.6,0.1,1.2h-4.1c0,0.6,0.2,1,0.4,1.5
			c0.2,0.4,0.6,0.6,1.1,0.6s0.8-0.2,1.1-0.5s0.2-0.4,0.4-0.6h1c0,0.2-0.1,0.5-0.2,0.6c-0.1,0.2-0.2,0.5-0.5,0.6
			c-0.2,0.2-0.6,0.5-1,0.6c-0.2,0.1-0.5,0.1-0.7,0.1c-0.6,0-1.3-0.2-1.8-0.7c-0.5-0.5-0.7-1.2-0.7-2.2c0-1,0.2-1.6,0.7-2.2
			s1.1-0.8,1.8-0.8C119.3,237.9,119.7,238,120.1,238.2z M120.4,240.5c0-0.4-0.1-0.7-0.2-1c-0.2-0.5-0.6-0.6-1.3-0.6
			c-0.5,0-0.7,0.2-1.1,0.5c-0.2,0.2-0.5,0.7-0.5,1.2L120.4,240.5L120.4,240.5z"/>
	</g>
	<g>
		<path d="M45.2,225.7h-1.3v-10.3h3.5c0.8,0,1.6,0.2,2.3,0.8c0.6,0.6,1,1.3,1,2.2c0,0.8-0.4,1.6-1,2.2c-0.6,0.6-1.5,0.8-2.3,0.8
			h-2.2V225.7z M45.2,220.3h2.2c0.6,0,1-0.2,1.3-0.6c0.4-0.4,0.5-0.7,0.5-1.2c0-0.5-0.1-0.8-0.5-1.2s-0.7-0.6-1.3-0.6h-2.2V220.3z"
			/>
		<path d="M54.4,225.9c-1.1,0-1.9-0.4-2.5-1.1c-0.7-0.7-1-1.6-1-2.7c0-1,0.4-1.9,1-2.7c0.6-0.7,1.5-1.1,2.5-1.1c1.1,0,1.9,0.4,2.5,1
			c0.6,0.7,1,1.6,1,2.8v0.2h-5.6c0,0.7,0.2,1.3,0.7,1.7c0.5,0.4,1,0.6,1.6,0.6c1,0,1.6-0.4,1.9-1.2l1.2,0.5c-0.2,0.6-0.6,1-1.1,1.3
			C55.8,225.7,55.1,225.9,54.4,225.9z M56.3,221.3c0-0.4-0.2-0.7-0.6-1.2c-0.4-0.4-0.8-0.6-1.6-0.6c-0.5,0-1,0.1-1.3,0.5
			c-0.4,0.4-0.6,0.7-0.7,1.2h4.2V221.3z"/>
		<path d="M60.2,225.7h-1.3v-7h1.2v1.2l0,0c0.1-0.4,0.4-0.7,0.8-1c0.4-0.2,0.8-0.4,1.2-0.4s0.7,0,1,0.1l-0.5,1.2
			c-0.1-0.1-0.4-0.1-0.7-0.1c-0.5,0-0.8,0.2-1.3,0.6c-0.4,0.4-0.6,0.8-0.6,1.5v3.9L60.2,225.7L60.2,225.7z"/>
		<path d="M66.5,225.9c-0.7,0-1.5-0.2-1.9-0.6s-0.8-0.8-1.1-1.5l1.2-0.5c0.4,0.8,1,1.3,1.9,1.3c0.4,0,0.7-0.1,1-0.2
			c0.2-0.2,0.4-0.4,0.4-0.7c0-0.5-0.4-0.7-1-1l-1.5-0.4c-0.5-0.1-0.8-0.4-1.3-0.6c-0.4-0.4-0.6-0.7-0.6-1.3c0-0.6,0.2-1.1,0.8-1.6
			c0.6-0.4,1.2-0.6,1.9-0.6c0.6,0,1.2,0.1,1.7,0.5c0.5,0.2,0.8,0.7,1.1,1.2l-1.2,0.5c-0.2-0.6-0.8-1-1.6-1c-0.4,0-0.7,0.1-1,0.2
			c-0.2,0.1-0.4,0.4-0.4,0.6c0,0.4,0.4,0.7,1,0.8l1.5,0.4c0.6,0.1,1.2,0.4,1.5,0.8c0.4,0.4,0.5,0.8,0.5,1.2c0,0.6-0.2,1.2-0.7,1.6
			C67.9,225.7,67.3,225.9,66.5,225.9z"/>
		<path d="M71.8,216.9c-0.2,0.2-0.4,0.2-0.6,0.2s-0.5-0.1-0.6-0.2c-0.2-0.2-0.2-0.4-0.2-0.6s0.1-0.5,0.2-0.6
			c0.2-0.2,0.4-0.2,0.6-0.2s0.5,0.1,0.6,0.2c0.2,0.2,0.2,0.4,0.2,0.6S71.9,216.6,71.8,216.9z M71.8,225.7h-1.3v-7h1.3V225.7z"/>
		<path d="M76,225.9c-0.7,0-1.5-0.2-1.9-0.6s-0.8-0.8-1.1-1.5l1.2-0.5c0.4,0.8,1,1.3,1.9,1.3c0.4,0,0.7-0.1,1-0.2
			c0.2-0.2,0.4-0.4,0.4-0.7c0-0.5-0.4-0.7-1-1l-1.5-0.4c-0.5-0.1-0.8-0.4-1.3-0.6c-0.4-0.4-0.6-0.7-0.6-1.3c0-0.6,0.2-1.1,0.8-1.6
			c0.6-0.4,1.2-0.6,1.9-0.6c0.6,0,1.2,0.1,1.7,0.5c0.5,0.2,0.8,0.7,1.1,1.2l-1.2,0.5c-0.2-0.6-0.8-1-1.6-1c-0.4,0-0.7,0.1-1,0.2
			c-0.2,0.1-0.4,0.4-0.4,0.6c0,0.4,0.4,0.7,1,0.8l1.5,0.4c0.6,0.1,1.2,0.4,1.5,0.8c0.4,0.4,0.5,0.8,0.5,1.2c0,0.6-0.2,1.2-0.7,1.6
			C77.6,225.7,76.9,225.9,76,225.9z"/>
		<path d="M82.9,225.8c-0.7,0-1.3-0.2-1.7-0.6c-0.4-0.4-0.6-1-0.6-1.7v-3.7h-1.2v-1.2h1.2v-2.2H82v2.2h1.7v1.2H82v3.6
			c0,0.7,0.4,1.2,1,1.2c0.2,0,0.5,0,0.6-0.1l0.5,1.1C83.8,225.7,83.4,225.8,82.9,225.8z"/>
		<path d="M88.1,225.9c-1.1,0-1.9-0.4-2.5-1.1c-0.7-0.7-1-1.6-1-2.7c0-1,0.4-1.9,1-2.7c0.6-0.7,1.5-1.1,2.5-1.1c1.1,0,1.9,0.4,2.5,1
			c0.6,0.7,1,1.6,1,2.8v0.2h-5.6c0,0.7,0.2,1.3,0.7,1.7c0.5,0.4,1,0.6,1.6,0.6c1,0,1.6-0.4,1.9-1.2l1.2,0.5c-0.2,0.6-0.6,1-1.1,1.3
			C89.6,225.7,89,225.9,88.1,225.9z M90.1,221.3c0-0.4-0.2-0.7-0.6-1.2c-0.4-0.4-0.8-0.6-1.6-0.6c-0.5,0-1,0.1-1.3,0.5
			c-0.4,0.4-0.6,0.7-0.7,1.2h4.2V221.3z"/>
		<path d="M93.9,218.7v1l0,0c0.2-0.4,0.5-0.6,0.8-0.8c0.4-0.2,0.8-0.4,1.3-0.4c0.8,0,1.6,0.2,2.1,0.8c0.5,0.5,0.7,1.2,0.7,2.2v4.4
			h-1.3v-4.1c0-1.3-0.6-1.9-1.7-1.9c-0.6,0-1,0.2-1.3,0.6c-0.4,0.5-0.5,1-0.5,1.6v3.9h-1.5v-7h1.3V218.7z"/>
		<path d="M103.1,225.8c-0.7,0-1.3-0.2-1.7-0.6c-0.4-0.4-0.6-1-0.6-1.7v-3.7h-1.2v-1.2h1.2v-2.2h1.3v2.2h1.7v1.2h-1.7v3.6
			c0,0.7,0.4,1.2,1,1.2c0.2,0,0.5,0,0.6-0.1l0.5,1.1C104,225.7,103.6,225.8,103.1,225.8z"/>
		<path d="M108.6,225.7v-10.3h3.1c1.6,0,2.9,0.5,3.7,1.5c1,1,1.5,2.2,1.5,3.7s-0.5,2.8-1.5,3.7s-2.2,1.5-3.7,1.5h-3.1V225.7z
			 M109.9,224.4h1.8c1.2,0,2.2-0.4,2.8-1c0.7-0.7,1.1-1.7,1.1-2.9c0-1.2-0.4-2.2-1.1-2.9c-0.7-0.7-1.7-1-2.8-1h-1.8V224.4z"/>
		<path d="M119.7,216.9c-0.2,0.2-0.4,0.2-0.6,0.2s-0.5-0.1-0.6-0.2c-0.2-0.2-0.2-0.4-0.2-0.6s0.1-0.5,0.2-0.6
			c0.2-0.2,0.4-0.2,0.6-0.2s0.5,0.1,0.6,0.2c0.2,0.2,0.2,0.4,0.2,0.6S119.9,216.6,119.7,216.9z M119.7,225.7h-1.3v-7h1.3V225.7z"/>
		<path d="M124,225.9c-0.7,0-1.5-0.2-1.9-0.6c-0.5-0.4-0.8-0.8-1.1-1.5l1.2-0.5c0.4,0.8,1,1.3,1.9,1.3c0.4,0,0.7-0.1,1-0.2
			c0.2-0.2,0.4-0.4,0.4-0.7c0-0.5-0.4-0.7-1-1l-1.5-0.4c-0.5-0.1-0.8-0.4-1.3-0.6c-0.4-0.4-0.6-0.7-0.6-1.3c0-0.6,0.2-1.1,0.8-1.6
			c0.6-0.4,1.2-0.6,1.9-0.6c0.6,0,1.2,0.1,1.7,0.5c0.5,0.2,0.8,0.7,1.1,1.2l-1.2,0.5c-0.2-0.6-0.8-1-1.6-1c-0.4,0-0.7,0.1-1,0.2
			c-0.2,0.1-0.4,0.4-0.4,0.6c0,0.4,0.4,0.7,1,0.8l1.5,0.4c0.6,0.1,1.2,0.4,1.5,0.8c0.4,0.4,0.5,0.8,0.5,1.2c0,0.6-0.2,1.2-0.7,1.6
			C125.5,225.7,124.9,225.9,124,225.9z"/>
		<path d="M129.2,215.4v6.3l3-3.1h1.7l0,0l-2.7,2.9l2.9,4.2l0,0h-1.6l-2.2-3.3l-1.1,1.1v2.3H128v-10.4H129.2z"/>
	</g>
</g>
<path class="st6" d="M40.3,145.1c0.1-2.5,2.1-4.5,4.5-4.5c1.1,0,2.2,0.4,3.1,1.3l-0.9,0.8c-0.6-0.6-1.4-0.9-2.2-0.9
	c-1.8,0-3.2,1.5-3.2,3.2v0.1c-0.1,1.8,1.4,3.2,3.1,3.3h0.1c0.8,0.1,1.7-0.3,2.2-0.9c0.4-0.4,0.6-1,0.7-1.5h-2.9v-1.3H49
	c0.1,0.3,0.1,0.5,0.1,0.8c0,1.1-0.3,2.1-1,2.9c-0.8,0.8-2,1.3-3.1,1.3C42.4,149.6,40.3,147.6,40.3,145.1z"/>
<path class="st6" d="M52.5,143.8c-1.6,0-2.9,1.3-2.9,2.9c0,1.6,1.3,2.9,2.9,2.9c1.6,0,2.9-1.3,2.9-2.9
	C55.3,145.1,54.1,143.8,52.5,143.8L52.5,143.8z M52.5,148.4c-0.9,0-1.7-0.8-1.7-1.7v-0.1c0-0.9,0.8-1.6,1.6-1.6
	c0.9,0,1.6,0.8,1.6,1.6C54.1,147.6,53.4,148.4,52.5,148.4L52.5,148.4L52.5,148.4z"/>
<path class="st6" d="M58.8,143.8c-1.6,0-2.9,1.3-2.9,2.9s1.3,2.9,2.9,2.9c1.6,0,2.9-1.3,2.9-2.9c0-1.5-1.3-2.9-2.8-2.9
	C58.8,143.8,58.8,143.8,58.8,143.8z M58.8,148.4c-0.9,0-1.7-0.8-1.7-1.7v-0.1c0-0.9,0.8-1.6,1.6-1.6c0.9,0,1.6,0.8,1.6,1.6
	C60.4,147.6,59.7,148.4,58.8,148.4C58.8,148.4,58.8,148.4,58.8,148.4L58.8,148.4z"/>
<path class="st6" d="M66.5,144v0.5h-0.1c-0.4-0.4-1-0.6-1.5-0.6c-1.6,0.1-2.8,1.4-2.8,3c0.1,1.5,1.3,2.7,2.8,2.8
	c0.6,0,1.1-0.2,1.5-0.6h0.1v0.4c0,1.1-0.6,1.7-1.5,1.7c-0.6,0-1.2-0.4-1.5-1.1l-1.1,0.5c0.4,1.1,1.5,1.8,2.6,1.7
	c1.5,0,2.7-0.9,2.7-3v-5.2L66.5,144L66.5,144z M65.1,148.4c-0.9,0-1.6-0.8-1.6-1.7v-0.1c-0.1-0.9,0.6-1.7,1.5-1.8c0,0,0,0,0.1,0
	c0.9,0.1,1.6,0.8,1.5,1.8l0,0C66.7,147.6,66,148.4,65.1,148.4L65.1,148.4z"/>
<rect x="68.6" y="140.9" class="st6" width="1.3" height="8.5"/>
<path class="st6" d="M73.4,148.4c-0.6,0-1.2-0.4-1.4-0.9l3.8-1.6l-0.1-0.4c-0.3-1.1-1.3-1.8-2.5-1.8c-1.5,0-2.7,1.2-2.7,2.7
	c0,0.1,0,0.1,0,0.1c-0.1,1.5,1.2,2.9,2.7,2.9c0.1,0,0.1,0,0.1,0c1,0,1.9-0.5,2.4-1.3l-1-0.6C74.5,148.1,73.9,148.4,73.4,148.4z
	 M73.2,144.9c0.5-0.1,0.9,0.2,1.1,0.6l-2.6,1.1C71.7,145.8,72.3,145,73.2,144.9L73.2,144.9z"/>
<path class="st6" d="M78.4,145.5c-0.1-2.2,1.7-4.1,3.9-4.1c0.1,0,0.1,0,0.1,0c1.1,0,2.2,0.4,2.9,1.3l-0.7,0.7c-0.6-0.6-1.3-1-2.2-1
	c-1.7-0.1-3,1.3-3.1,2.9c0,0.1,0,0.1,0,0.2c-0.1,1.7,1.2,3,2.9,3.1c0.1,0,0.1,0,0.1,0c0.9,0,1.8-0.4,2.4-1.1l0.7,0.7
	c-1.5,1.7-4.1,1.8-5.8,0.4C78.8,147.8,78.4,146.7,78.4,145.5z"/>
<path class="st6" d="M86.3,149.4v-7.8h1v7.8H86.3z"/>
<path class="st6" d="M93.6,146.7c0,1.5-1.3,2.7-2.7,2.7c-1.5,0-2.7-1.3-2.7-2.7s1.3-2.7,2.7-2.7C92.4,143.9,93.6,145.2,93.6,146.7z
	 M92.6,146.7c0.1-1-0.6-1.8-1.6-1.9c-1-0.1-1.8,0.6-1.9,1.6c0,0.1,0,0.2,0,0.3c0,1,0.8,1.8,1.8,1.8S92.6,147.7,92.6,146.7
	L92.6,146.7z"/>
<path class="st6" d="M98.2,149.4v-0.8h-0.1c-0.4,0.6-1,0.9-1.7,0.9c-1.4,0-2-0.9-2-2.2V144h1v3.1c0,1.1,0.6,1.5,1.3,1.5
	c0.8-0.1,1.5-0.8,1.4-1.6v-2.9h1v5.4L98.2,149.4L98.2,149.4z"/>
<path class="st6" d="M99.9,146.7c-0.1-1.5,1.1-2.7,2.5-2.9c0.7,0,1.4,0.3,1.8,0.9h0.1l-0.1-0.8v-2.5h1v7.8h-1v-0.8h-0.1
	c-0.4,0.6-1.1,0.9-1.8,0.9C101,149.5,99.8,148.2,99.9,146.7z M104.3,146.7c0.1-0.9-0.6-1.8-1.5-1.9c-0.9-0.1-1.8,0.6-1.9,1.5
	c0,0.1,0,0.3,0,0.4c-0.1,0.9,0.6,1.8,1.5,1.9c1,0.1,1.8-0.6,1.9-1.5C104.4,147,104.4,146.9,104.3,146.7z"/>
<path class="st6" d="M108,149.4v-7.8h2.7c1.3-0.1,2.4,1,2.4,2.3l0,0c0,1.3-1.1,2.4-2.4,2.3l0,0h-1.6v3.1L108,149.4L108,149.4z
	 M110.8,145.3c0.8,0,1.4-0.6,1.4-1.4c0-0.8-0.6-1.4-1.4-1.4H109v2.7L110.8,145.3L110.8,145.3z"/>
<path class="st6" d="M113.9,149.4v-7.8h1v7.8H113.9z"/>
<path class="st6" d="M115.8,147.8c0-1.2,1.1-1.9,2.4-1.9c0.5,0,1,0.1,1.5,0.4v-0.1c-0.1-0.8-0.7-1.4-1.5-1.3c-0.5,0-1,0.3-1.2,0.8
	l-0.9-0.4c0.6-1.2,2.1-1.7,3.3-1.1c0.8,0.4,1.3,1.2,1.3,2v3.2h-1v-0.8h-0.1c-0.4,0.6-1.1,0.9-1.8,0.9
	C116.9,149.5,115.9,148.8,115.8,147.8C115.8,147.9,115.8,147.9,115.8,147.8z M119.6,147.1c-0.3-0.3-0.8-0.4-1.3-0.4
	c-1,0-1.5,0.6-1.5,1.1c0.1,0.6,0.6,0.9,1.1,0.8C118.8,148.7,119.5,148,119.6,147.1L119.6,147.1z"/>
<path class="st6" d="M122,147.8V145h-0.9v-0.9h0.9v-1.6h1v1.6h1.3v0.9H123v2.7c0,0.6,0.3,0.9,0.7,0.9c0.1,0,0.3,0,0.5-0.1l0.3,0.8
	c-0.3,0.1-0.6,0.1-0.8,0.1c-0.8,0.1-1.6-0.5-1.8-1.3C122,148,122,147.9,122,147.8z"/>
<path class="st6" d="M128.5,141.6l-0.4,0.8c-0.1-0.1-0.3-0.1-0.5-0.1c-0.5-0.1-0.8,0.3-0.9,0.8c0,0.1,0,0.1,0,0.1v0.7h1.3v0.9h-1.4
	v4.5h-1v-4.5h-1V144h1v-0.7c0-1,0.7-1.8,1.7-1.8c0.1,0,0.1,0,0.2,0C128,141.5,128.3,141.6,128.5,141.6z"/>
<path class="st6" d="M134.1,146.7c0,1.5-1.3,2.7-2.7,2.7c-1.5,0-2.7-1.3-2.7-2.7s1.3-2.7,2.7-2.7C132.8,144,134.1,145.2,134.1,146.7
	z M133,146.7c0.1-1-0.6-1.8-1.6-1.9c-1-0.1-1.8,0.6-1.9,1.6c0,0.1,0,0.2,0,0.3c-0.1,1,0.6,1.8,1.6,1.9c1,0.1,1.8-0.6,1.9-1.6
	C133,146.9,133,146.8,133,146.7z"/>
<path class="st6" d="M134.8,149.4V144h1v0.9h0.1c0.3-0.6,0.9-1,1.5-1c0.3,0,0.5,0,0.8,0.1l-0.4,0.9c-0.2-0.1-0.3-0.1-0.6-0.1
	c-0.8,0-1.4,0.7-1.4,1.5c0,0,0,0,0,0.1v2.9L134.8,149.4L134.8,149.4z"/>
<path class="st6" d="M138.7,144h1v0.8h0.1c0.3-0.6,1-0.9,1.6-0.9c0.7-0.1,1.4,0.4,1.7,1.1c0.4-0.6,1.1-1.1,1.9-1.1
	c1.3,0,1.9,0.9,1.9,2.2v3.3h-1v-3.1c0-1.1-0.4-1.5-1.2-1.5c-0.8,0-1.4,0.8-1.4,1.6v2.9h-1v-3.2c0-1.1-0.4-1.5-1.2-1.5
	s-1.4,0.8-1.4,1.6v2.9h-1V144L138.7,144z"/>
<path class="st7" d="M30.8,149.4l-1.6,2.7h-4.1c-0.4,0-0.7-0.2-0.9-0.5l-3.4-5.8c-0.2-0.3-0.2-0.7,0-1.1l1.3-2.2l1.5,2.7l2.4,4.1
	H30.8L30.8,149.4z"/>
<path class="st8" d="M36,145.8l-3.4,5.8c-0.2,0.4-0.5,0.5-0.9,0.5h-2.5l1.6-2.7l2.4-4.1l-2.4-4.1h3.1l2.1,3.6
	C36.2,145.1,36.2,145.5,36,145.8z"/>
<path class="st9" d="M34,141.2h-7.8l-2.4,4.1l-1.5-2.7l2.1-3.6c0.2-0.4,0.5-0.5,0.9-0.5h6.6c0.3,0,0.7,0.2,0.9,0.5L34,141.2z"/>
<path class="st10" d="M30.8,141.2l2.4,4.1l-2.4,4.1h-4.8l-2.4-4.1l2.4-4.1H30.8"/>
<circle class="st5" cx="28.4" cy="145.3" r="2"/>
<path class="st11" d="M24.2,139c0.2-0.4,0.5-0.5,0.9-0.5h6.7c0.4,0,0.7,0.2,0.9,0.5l1.3,2.2l0,0l-1.3-2.2c-0.2-0.3-0.5-0.5-0.9-0.5
	h-6.7C24.8,138.5,24.5,138.7,24.2,139l-2.1,3.5v0.1L24.2,139z"/>
<polyline class="st12" points="23.8,145.3 26.1,141.2 34,141.2 33.9,141.1 26.1,141.1 23.8,145.2 "/>
<path class="st11" d="M20.9,144.8l1.3-2.2l1.5,2.7l2.4,4.1h4.7l0.1-0.1h-4.8l-2.4-4.1l-1.5-2.7L20.9,144.8c-0.1,0.1-0.1,0.3-0.1,0.5
	C20.7,145.1,20.8,145,20.9,144.8z"/>
<g class="st13">
	<path class="st14" d="M29.3,152.1h-4.2c-0.4,0-0.7-0.2-0.9-0.5l-3.4-5.8c-0.1-0.1-0.1-0.3-0.1-0.5c0,0.2,0.1,0.4,0.1,0.6l3.4,5.8
		c0.2,0.3,0.5,0.5,0.9,0.5L29.3,152.1L29.3,152.1z"/>
</g>
<g class="st13">
	<polygon class="st15" points="33.3,145.3 30.9,141.2 30.8,141.2 33.2,145.3 	"/>
	<path class="st15" d="M36,145.8l-3.4,5.8c-0.2,0.4-0.5,0.5-0.9,0.5h-2.5l-0.1,0.1h2.5c0.4,0,0.7-0.2,0.9-0.5L36,145.8
		c0-0.1,0.1-0.3,0.1-0.5C36.1,145.4,36.1,145.6,36,145.8z"/>
</g>
<g class="st13">
	<path class="st5" d="M34,141.3l2.1,3.6c0.1,0.1,0.1,0.3,0.1,0.5c0-0.2-0.1-0.3-0.1-0.6l-2.1-3.6h-3.1l0.1,0.1"/>
	<polygon class="st5" points="30.8,149.5 33.3,145.3 33.2,145.3 30.8,149.4 29.3,152.1 29.3,152.1 	"/>
</g>
<radialGradient id="SVGID_1_" cx="-755.5616" cy="1421.0233" r="5.9307" gradientTransform="matrix(2.67 0 0 2.67 2040.1101 -3655.2402)" gradientUnits="userSpaceOnUse">
	<stop  offset="0" style="stop-color:#FFFFFF;stop-opacity:0.1"/>
	<stop  offset="1" style="stop-color:#FFFFFF;stop-opacity:0"/>
</radialGradient>
<path class="st16" d="M36,144.8l-2.1-3.6l-1.3-2.2c-0.2-0.3-0.5-0.5-0.9-0.5h-6.6c-0.4,0-0.7,0.2-0.9,0.5l-3.4,5.8
	c-0.2,0.3-0.2,0.7,0,1l3.4,5.8c0.2,0.3,0.5,0.5,0.9,0.5h6.6c0.4,0,0.7-0.2,0.9-0.5l3.4-5.8C36.2,145.5,36.2,145.1,36,144.8z"/>
<g id="Layer_2_1_">
</g>
<g>
	<path d="M269.3,106.4v3.5h4v-3.5h1.1v8.2h-1.1v-3.8h-4v3.8h-1.1v-8.2H269.3z"/>
	<path d="M277.5,107c0,0.4-0.3,0.7-0.7,0.7c-0.4,0-0.7-0.3-0.7-0.7s0.3-0.7,0.7-0.7C277.3,106.3,277.5,106.7,277.5,107z
		 M276.3,114.6v-5.9h1.1v5.9H276.3z"/>
	<path d="M284.3,108.7c0,0.4-0.1,0.9-0.1,1.6v3.5c0,1.3-0.3,2.2-0.8,2.6c-0.5,0.5-1.4,0.7-2.1,0.7s-1.5-0.1-2-0.4l0.3-0.8
		c0.4,0.3,1,0.4,1.7,0.4c1.1,0,1.9-0.5,1.9-2.1v-0.7l0,0c-0.4,0.5-1,1-1.9,1c-1.4,0-2.5-1.3-2.5-2.9c0-2,1.3-3.2,2.6-3.2
		c1.1,0,1.6,0.5,1.9,1.1l0,0l0.1-0.9L284.3,108.7L284.3,108.7L284.3,108.7z M283.2,111.1c0-0.1,0-0.4-0.1-0.4
		c-0.1-0.7-0.7-1.2-1.5-1.2c-1.1,0-1.8,0.9-1.8,2.2c0,1.2,0.7,2.1,1.8,2.1c0.7,0,1.3-0.4,1.5-1.1c0.1-0.1,0.1-0.4,0.1-0.5V111.1z"/>
	<path d="M286,105.9h1.1v3.7l0,0c0.1-0.3,0.4-0.5,0.8-0.7s0.7-0.3,1.1-0.3c0.8,0,2.1,0.4,2.1,2.5v3.6H290v-3.4c0-1-0.4-1.8-1.3-1.8
		c-0.7,0-1.3,0.4-1.4,1.1c-0.1,0.1-0.1,0.3-0.1,0.5v3.6h-1.1L286,105.9L286,105.9z"/>
	<path d="M292.9,105.9h1.1v8.7h-1.1V105.9z"/>
	<path d="M296.2,108.7l1.3,3.5c0.1,0.4,0.3,0.9,0.4,1.3l0,0c0.1-0.4,0.3-0.8,0.4-1.3l1.2-3.5h1.2l-1.6,4.2c-0.8,2.1-1.3,3-2.1,3.8
		c-0.5,0.4-1.1,0.7-1.3,0.7l-0.3-0.9c0.3-0.1,0.7-0.3,1-0.5c0.3-0.3,0.7-0.7,0.9-1.2c0.1-0.1,0.1-0.1,0.1-0.3c0-0.1,0-0.1-0.1-0.3
		l-2.2-5.4L296.2,108.7L296.2,108.7L296.2,108.7z"/>
	<path d="M305.4,112l-0.9,2.6h-1.1l2.8-8.2h1.3l2.9,8.2h-1.2l-0.9-2.6H305.4z M308.2,111.2l-0.8-2.4c-0.1-0.5-0.3-1.1-0.4-1.5l0,0
		c-0.1,0.4-0.3,1-0.4,1.5l-0.8,2.4H308.2z"/>
	<path d="M311.8,108.7l1.2,3.3c0.1,0.5,0.4,1.1,0.4,1.5l0,0c0.1-0.4,0.3-1,0.5-1.5l1.2-3.3h1.2l-2.4,5.9h-1.1l-2.2-5.9H311.8z"/>
	<path d="M320.5,114.6l-0.1-0.7l0,0c-0.4,0.4-1,0.9-1.8,0.9c-1.2,0-1.8-0.8-1.8-1.7c0-1.4,1.3-2.2,3.6-2.2v-0.1
		c0-0.4-0.1-1.3-1.3-1.3c-0.5,0-1.2,0.1-1.5,0.4l-0.3-0.7c0.4-0.4,1.2-0.5,2-0.5c1.8,0,2.2,1.3,2.2,2.4v2.2c0,0.5,0,1,0.1,1.4
		L320.5,114.6L320.5,114.6z M320.3,111.6c-1.2,0-2.5,0.1-2.5,1.3c0,0.7,0.4,1.1,1,1.1c0.8,0,1.3-0.4,1.4-1c0-0.1,0.1-0.3,0.1-0.4
		V111.6L320.3,111.6z"/>
	<path d="M326,105.9h1.1v8.7H326V105.9z"/>
	<path d="M324.4,107c0,0.4-0.3,0.7-0.7,0.7c-0.4,0-0.7-0.3-0.7-0.7s0.3-0.7,0.7-0.7C324.2,106.3,324.4,106.7,324.4,107z
		 M323.2,114.6v-5.9h1.1v5.9H323.2z"/>
	<path d="M332.1,114.6l-0.1-0.7l0,0c-0.4,0.4-1,0.9-1.8,0.9c-1.2,0-1.8-0.8-1.8-1.7c0-1.4,1.3-2.2,3.6-2.2v-0.1
		c0-0.4-0.1-1.3-1.3-1.3c-0.5,0-1.2,0.1-1.5,0.4l-0.3-0.7c0.4-0.4,1.2-0.5,2-0.5c1.8,0,2.2,1.3,2.2,2.4v2.2c0,0.5,0,1,0.1,1.4
		L332.1,114.6L332.1,114.6z M332,111.6c-1.2,0-2.5,0.1-2.5,1.3c0,0.7,0.4,1.1,1,1.1c0.8,0,1.3-0.4,1.4-1c0-0.1,0.1-0.3,0.1-0.4
		V111.6L332,111.6z"/>
	<path d="M334.7,114.6c0-0.4,0.1-1,0.1-1.5V106h1.1v3.8l0,0c0.4-0.7,1.1-1.1,2.1-1.1c1.4,0,2.5,1.3,2.5,3c0,2.1-1.3,3.2-2.6,3.2
		c-0.9,0-1.5-0.4-2-1.1l0,0l-0.1,1L334.7,114.6L334.7,114.6L334.7,114.6z M335.8,112.2c0,0.1,0,0.3,0.1,0.4c0.1,0.7,0.8,1.3,1.6,1.3
		c1.2,0,1.8-0.9,1.8-2.4c0-1.2-0.7-2.2-1.8-2.2c-0.7,0-1.4,0.5-1.6,1.3c0,0.1-0.1,0.3-0.1,0.4V112.2z"/>
	<path d="M341.7,105.9h1.1v8.7h-1.1V105.9z"/>
	<path d="M345.2,111.8c0,1.4,1,2.1,2.1,2.1c0.8,0,1.3-0.1,1.6-0.3l0.1,0.8c-0.4,0.1-1.1,0.4-2,0.4c-1.8,0-2.9-1.2-2.9-2.9
		s1.1-3.2,2.8-3.2c2,0,2.4,1.7,2.4,2.8c0,0.1,0,0.4,0,0.5L345.2,111.8L345.2,111.8L345.2,111.8z M348.4,111.1c0-0.7-0.3-1.8-1.5-1.8
		c-1.1,0-1.6,1-1.7,1.8H348.4z"/>
	<path d="M353.4,106.5c0.5-0.1,1.2-0.1,2.1-0.1c1.1,0,1.8,0.3,2.4,0.7c0.4,0.4,0.7,1,0.7,1.7s-0.1,1.3-0.7,1.8
		c-0.5,0.7-1.5,0.9-2.5,0.9c-0.4,0-0.7,0-0.9-0.1v3.3h-1.1V106.5L353.4,106.5z M354.5,110.4c0.3,0.1,0.5,0.1,0.9,0.1
		c1.3,0,2.1-0.7,2.1-1.8c0-1.1-0.8-1.6-2-1.6c-0.4,0-0.8,0-1,0.1V110.4L354.5,110.4z"/>
	<path d="M360.2,111.8c0,1.4,1,2.1,2.1,2.1c0.8,0,1.3-0.1,1.6-0.3l0.1,0.8c-0.4,0.1-1.1,0.4-2,0.4c-1.8,0-2.9-1.2-2.9-2.9
		s1.1-3.2,2.8-3.2c2,0,2.4,1.7,2.4,2.8c0,0.1,0,0.4,0,0.5L360.2,111.8L360.2,111.8L360.2,111.8z M363.3,111.1c0-0.7-0.3-1.8-1.5-1.8
		c-1.1,0-1.6,1-1.7,1.8H363.3z"/>
	<path d="M365.8,110.5c0-0.7,0-1.3-0.1-1.9h1v1.2h0.1c0.3-0.8,0.9-1.3,1.6-1.3c0.1,0,0.1,0,0.3,0v1c-0.1,0-0.1,0-0.4,0
		c-0.8,0-1.3,0.5-1.4,1.4c0,0.1-0.1,0.4-0.1,0.5v3.2h-1V110.5L365.8,110.5z"/>
	<path d="M369.6,113.6c0.4,0.1,0.9,0.4,1.4,0.4c0.8,0,1.2-0.4,1.2-0.9s-0.3-0.8-1.1-1.1c-1.1-0.4-1.6-1-1.6-1.7c0-1,0.8-1.7,2.1-1.7
		c0.7,0,1.2,0.1,1.4,0.4l-0.3,0.8c-0.3-0.1-0.7-0.4-1.3-0.4c-0.7,0-1,0.4-1,0.8s0.4,0.7,1.2,1c1.1,0.4,1.5,0.9,1.5,1.8
		c0,1.1-0.8,1.8-2.2,1.8c-0.7,0-1.3-0.1-1.7-0.4L369.6,113.6z"/>
	<path d="M375.8,107c0,0.4-0.3,0.7-0.7,0.7c-0.4,0-0.7-0.3-0.7-0.7s0.3-0.7,0.7-0.7C375.5,106.3,375.8,106.7,375.8,107z
		 M374.6,114.6v-5.9h1.1v5.9H374.6z"/>
	<path d="M377.3,113.6c0.4,0.1,0.9,0.4,1.4,0.4c0.8,0,1.2-0.4,1.2-0.9s-0.3-0.8-1.1-1.1c-1.1-0.4-1.6-1-1.6-1.7c0-1,0.8-1.7,2.1-1.7
		c0.7,0,1.2,0.1,1.4,0.4l-0.3,0.8c-0.3-0.1-0.7-0.4-1.3-0.4c-0.7,0-1,0.4-1,0.8s0.4,0.7,1.2,1c1.1,0.4,1.5,0.9,1.5,1.8
		c0,1.1-0.8,1.8-2.2,1.8c-0.7,0-1.3-0.1-1.7-0.4L377.3,113.6z"/>
	<path d="M383.6,107v1.7h1.5v0.8h-1.5v3.2c0,0.7,0.1,1.2,0.8,1.2c0.3,0,0.4,0,0.7-0.1l0.1,0.8c-0.1,0.1-0.5,0.1-1,0.1
		s-0.9-0.1-1.2-0.4c-0.3-0.4-0.4-0.8-0.4-1.5v-3.2h-0.9v-0.8h0.9v-1.4L383.6,107z"/>
	<path d="M387,111.8c0,1.4,1,2.1,2.1,2.1c0.8,0,1.3-0.1,1.6-0.3l0.1,0.8c-0.4,0.1-1.1,0.4-2,0.4c-1.8,0-2.9-1.2-2.9-2.9
		s1.1-3.2,2.8-3.2c2,0,2.4,1.7,2.4,2.8c0,0.1,0,0.4,0,0.5L387,111.8L387,111.8L387,111.8z M390.1,111.1c0-0.7-0.3-1.8-1.5-1.8
		c-1.1,0-1.6,1-1.7,1.8H390.1z"/>
	<path d="M392.5,110.3c0-0.7,0-1.1-0.1-1.6h1l0.1,1l0,0c0.3-0.5,1-1.1,2-1.1c0.8,0,2.1,0.4,2.1,2.5v3.6h-1.1v-3.4
		c0-1-0.4-1.8-1.3-1.8c-0.7,0-1.3,0.5-1.4,1.1c-0.1,0.1-0.1,0.4-0.1,0.5v3.6h-1.1v-4.4H392.5z"/>
	<path d="M400.6,107v1.7h1.5v0.8h-1.5v3.2c0,0.7,0.1,1.2,0.8,1.2c0.3,0,0.4,0,0.7-0.1l0.1,0.8c-0.1,0.1-0.5,0.1-1,0.1
		s-0.9-0.1-1.2-0.4c-0.3-0.4-0.4-0.8-0.4-1.5v-3.2h-0.9v-0.8h0.9v-1.4L400.6,107z"/>
	<path d="M405.8,113.3c0.4,0.3,1.2,0.5,1.9,0.5c1.1,0,1.7-0.5,1.7-1.4c0-0.8-0.4-1.3-1.5-1.6c-1.3-0.4-2.1-1.2-2.1-2.4
		c0-1.3,1.1-2.2,2.6-2.2c0.8,0,1.4,0.1,1.8,0.4l-0.3,0.9c-0.3-0.1-0.8-0.4-1.6-0.4c-1.2,0-1.5,0.7-1.5,1.3c0,0.8,0.5,1.2,1.6,1.6
		c1.4,0.5,2.1,1.3,2.1,2.4c0,1.3-1,2.4-2.9,2.4c-0.8,0-1.7-0.3-2.1-0.5L405.8,113.3z"/>
	<path d="M413.2,107v1.7h1.5v0.8h-1.5v3.2c0,0.7,0.1,1.2,0.8,1.2c0.3,0,0.4,0,0.7-0.1l0.1,0.8c-0.1,0.1-0.5,0.1-1,0.1
		s-0.9-0.1-1.2-0.4c-0.3-0.4-0.4-0.8-0.4-1.5v-3.2h-0.9v-0.8h0.9v-1.4L413.2,107z"/>
	<path d="M421.3,111.6c0,2.2-1.5,3.2-2.9,3.2c-1.6,0-2.9-1.2-2.9-3c0-2,1.3-3.2,2.9-3.2C420.1,108.6,421.3,109.8,421.3,111.6z
		 M416.5,111.7c0,1.3,0.7,2.4,1.8,2.4c1,0,1.8-1,1.8-2.4c0-1-0.5-2.4-1.8-2.4S416.5,110.5,416.5,111.7z"/>
	<path d="M422.6,110.5c0-0.7,0-1.3-0.1-1.9h1v1.2h0.1c0.3-0.8,0.9-1.3,1.6-1.3c0.1,0,0.1,0,0.3,0v1c-0.1,0-0.1,0-0.4,0
		c-0.8,0-1.3,0.5-1.4,1.4c0,0.1-0.1,0.4-0.1,0.5v3.2h-1.1L422.6,110.5L422.6,110.5z"/>
	<path d="M429.8,114.6l-0.1-0.7l0,0c-0.4,0.4-1,0.9-1.8,0.9c-1.2,0-1.8-0.8-1.8-1.7c0-1.4,1.3-2.2,3.6-2.2v-0.1
		c0-0.4-0.1-1.3-1.3-1.3c-0.5,0-1.2,0.1-1.5,0.4l-0.3-0.7c0.4-0.4,1.2-0.5,2-0.5c1.8,0,2.2,1.3,2.2,2.4v2.2c0,0.5,0,1,0.1,1.4
		L429.8,114.6L429.8,114.6L429.8,114.6z M429.7,111.6c-1.2,0-2.5,0.1-2.5,1.3c0,0.7,0.4,1.1,1,1.1c0.8,0,1.3-0.4,1.4-1
		c0-0.1,0.1-0.3,0.1-0.4V111.6L429.7,111.6z"/>
	<path d="M437.6,108.7c0,0.4-0.1,0.9-0.1,1.6v3.5c0,1.3-0.3,2.2-0.8,2.6c-0.5,0.5-1.4,0.7-2.1,0.7s-1.5-0.1-2-0.4l0.3-0.8
		c0.4,0.3,1,0.4,1.7,0.4c1.1,0,1.9-0.5,1.9-2.1v-0.7l0,0c-0.4,0.5-1,1-1.9,1c-1.4,0-2.5-1.3-2.5-2.9c0-2,1.3-3.2,2.6-3.2
		c1.1,0,1.6,0.5,1.9,1.1l0,0l0.1-0.9L437.6,108.7L437.6,108.7z M436.5,111.1c0-0.1,0-0.4-0.1-0.4c-0.1-0.7-0.7-1.2-1.5-1.2
		c-1.1,0-1.8,0.9-1.8,2.2c0,1.2,0.7,2.1,1.8,2.1c0.7,0,1.3-0.4,1.5-1.1c0.1-0.1,0.1-0.4,0.1-0.5V111.1z"/>
	<path d="M440,111.8c0,1.4,1,2.1,2.1,2.1c0.8,0,1.3-0.1,1.6-0.3l0.1,0.8c-0.4,0.1-1.1,0.4-2,0.4c-1.8,0-2.9-1.2-2.9-2.9
		s1.1-3.2,2.8-3.2c2,0,2.4,1.7,2.4,2.8c0,0.1,0,0.4,0,0.5L440,111.8L440,111.8L440,111.8z M443.1,111.1c0-0.7-0.3-1.8-1.5-1.8
		c-1.1,0-1.6,1-1.7,1.8H443.1z"/>
</g>
<g>
	<path class="st3" d="M291.1,180.7l-10.4-18.1c-0.8-1.4-2.3-2.3-3.9-2.3h-20.9c-1.6,0-3.1,0.9-3.9,2.3l-10.4,18.1
		c-0.8,1.4-0.8,3.1,0,4.6l10.4,18.2c0.8,1.4,2.2,2.4,3.9,2.4h20.9c1.6-0.1,3.2-1,3.9-2.4l10.4-18.1
		C291.8,183.9,291.8,182.2,291.1,180.7z"/>
	<path class="st4" d="M273.9,173.5l-12.7,1.6l-2.4,6.4l2,2l-2,3.6l2,2l-2,3.6l13.3,13.3h4.7c1.6-0.1,3.1-1,3.9-2.4l8.4-14.6
		L273.9,173.5z"/>
	<polygon class="st5" points="270.3,184.6 270.3,189 258.8,189 258.8,192.6 273.9,192.6 273.9,184.6 	"/>
	<polygon class="st5" points="262.4,181.5 262.4,177.1 273.9,177.1 273.9,173.5 258.8,173.5 258.8,181.5 	"/>
	<polygon class="st5" points="264.3,179.1 264.3,183.4 258.8,183.4 258.8,187 268.3,187 268.3,182.6 273.9,182.6 273.9,179.1 	"/>
</g>
<g>
	<g>
		<path d="M234.3,235h3.3c1,0,1.6,0.2,1.9,0.8c0.2,0.2,0.4,0.6,0.4,1.1c0,0.5-0.1,0.8-0.4,1.2c-0.2,0.2-0.4,0.2-0.6,0.5
			c0.4,0.2,0.6,0.2,0.8,0.5c0.4,0.4,0.6,0.8,0.6,1.5c0,0.5-0.2,1-0.5,1.3c-0.5,0.6-1.2,1-2.2,1h-3.4V235L234.3,235z M237.3,238.2
			c0.5,0,0.7-0.1,1-0.2c0.4-0.2,0.6-0.6,0.6-1c0-0.5-0.2-0.8-0.6-1c-0.2-0.1-0.6-0.2-1-0.2h-1.8v2.3L237.3,238.2L237.3,238.2
			L237.3,238.2z M237.7,241.7c0.6,0,1.1-0.2,1.5-0.6c0.2-0.2,0.2-0.6,0.2-0.8c0-0.6-0.2-1-0.7-1.1c-0.2-0.1-0.6-0.2-1-0.2h-2.2v2.7
			L237.7,241.7L237.7,241.7z"/>
		<path d="M241.4,235h1v7.6h-1V235z"/>
		<path d="M247.9,237.6c0.5,0.5,0.7,1.2,0.7,2.2s-0.2,1.7-0.6,2.2c-0.4,0.5-1.1,0.8-2.1,0.8c-0.7,0-1.5-0.2-1.8-0.7
			c-0.5-0.6-0.6-1.2-0.6-2.1c0-1,0.2-1.7,0.7-2.2c0.5-0.5,1.1-0.8,1.8-0.8C246.8,236.9,247.2,237.2,247.9,237.6z M247.2,241.4
			c0.2-0.5,0.4-1,0.4-1.6s-0.1-1-0.2-1.3c-0.2-0.6-0.7-0.7-1.3-0.7c-0.6,0-1,0.2-1.2,0.6c-0.2,0.5-0.4,1-0.4,1.6
			c0,0.6,0.1,1.1,0.4,1.5c0.2,0.4,0.6,0.6,1.2,0.6C246.6,242,247,241.9,247.2,241.4z"/>
		<path d="M253.3,237.4c0.4,0.2,0.6,0.8,0.7,1.6h-1c-0.1-0.4-0.2-0.6-0.4-0.8c-0.2-0.2-0.6-0.4-1-0.4c-0.6,0-1,0.2-1.3,0.8
			c-0.2,0.4-0.2,0.8-0.2,1.5s0.1,1,0.4,1.5c0.2,0.4,0.6,0.6,1.1,0.6c0.4,0,0.6-0.1,1-0.4c0.2-0.2,0.4-0.6,0.5-1h1
			c-0.1,0.7-0.4,1.3-0.7,1.6c-0.4,0.4-1,0.6-1.6,0.6c-0.7,0-1.3-0.2-1.8-0.8c-0.5-0.6-0.6-1.2-0.6-1.9c0-1,0.2-1.8,0.7-2.3
			c0.5-0.6,1.1-0.8,1.8-0.8C252.4,236.9,252.9,237,253.3,237.4z"/>
		<path d="M255,235h1v4.5l2.4-2.3h1.2l-2.2,2.1l2.2,3.5h-1.2l-1.8-2.8l-0.7,0.7v2.1h-1L255,235L255,235z"/>
		<path d="M264.1,240.2c0,0.5,0.1,0.7,0.2,1c0.4,0.5,1,0.7,1.8,0.7c0.4,0,0.7-0.1,1-0.2c0.6-0.2,1-0.6,1-1.1c0-0.4-0.1-0.7-0.4-1
			c-0.2-0.2-0.6-0.2-1.2-0.5l-1-0.2c-0.6-0.2-1.1-0.2-1.5-0.5c-0.5-0.2-0.7-0.8-0.7-1.5c0-0.6,0.2-1.2,0.6-1.7
			c0.5-0.5,1.1-0.6,1.9-0.6c0.7,0,1.5,0.2,1.9,0.6c0.6,0.4,0.8,1,0.8,1.8h-1c-0.1-0.4-0.2-0.7-0.2-1c-0.2-0.4-0.8-0.6-1.6-0.6
			c-0.6,0-1,0.1-1.3,0.4c-0.2,0.2-0.4,0.6-0.4,1s0.2,0.6,0.5,0.8c0.2,0.1,0.6,0.2,1.3,0.4l1,0.2c0.5,0.1,1,0.2,1.1,0.5
			c0.5,0.4,0.7,0.8,0.7,1.6c0,0.8-0.2,1.5-1,1.8c-0.6,0.4-1.3,0.6-2.1,0.6c-1,0-1.7-0.2-2.2-0.7c-0.6-0.5-0.7-1.1-0.7-1.9
			L264.1,240.2L264.1,240.2z"/>
		<path d="M270.6,235.5h1v1.6h1v0.7h-1v3.6c0,0.2,0.1,0.2,0.2,0.4c0.1,0,0.2,0.1,0.4,0.1c0,0,0.1,0,0.2,0c0.1,0,0.1,0,0.2,0v0.7
			c-0.1,0-0.2,0.1-0.4,0.1c-0.1,0-0.2,0-0.4,0c-0.5,0-0.7-0.1-1-0.4c-0.2-0.2-0.2-0.6-0.2-0.8v-3.7H270V237h0.7L270.6,235.5
			L270.6,235.5z"/>
		<path d="M277.4,237.6c0.5,0.5,0.7,1.2,0.7,2.2s-0.2,1.7-0.6,2.2c-0.4,0.5-1.1,0.8-2.1,0.8c-0.7,0-1.5-0.2-1.8-0.7
			c-0.5-0.6-0.6-1.2-0.6-2.1c0-1,0.2-1.7,0.7-2.2c0.5-0.5,1.1-0.8,1.8-0.8C276.3,236.9,276.9,237.2,277.4,237.6z M276.8,241.4
			c0.2-0.5,0.4-1,0.4-1.6s-0.1-1-0.2-1.3c-0.2-0.6-0.7-0.7-1.3-0.7s-1,0.2-1.2,0.6c-0.2,0.5-0.4,1-0.4,1.6c0,0.6,0.1,1.1,0.4,1.5
			s0.6,0.6,1.2,0.6S276.5,241.9,276.8,241.4z"/>
		<path d="M279.3,237h1v1c0.1-0.2,0.2-0.4,0.6-0.6c0.2-0.2,0.6-0.4,1-0.4c0,0,0,0,0.1,0s0.1,0,0.2,0v1c-0.1,0-0.1,0-0.2,0
			s-0.1,0-0.2,0c-0.5,0-0.8,0.2-1.1,0.5c-0.2,0.2-0.4,0.6-0.4,1v3.1h-1V237L279.3,237z"/>
		<path d="M285.8,239.2c0.2,0,0.4-0.1,0.5-0.2c0-0.1,0.1-0.2,0.1-0.4c0-0.2-0.1-0.6-0.4-0.6c-0.2-0.2-0.6-0.2-1-0.2
			c-0.5,0-0.8,0.1-1,0.4c-0.1,0.2-0.2,0.4-0.2,0.6h-0.8c0-0.6,0.2-1.2,0.6-1.5c0.5-0.2,1-0.4,1.5-0.4c0.6,0,1.2,0.1,1.6,0.4
			c0.4,0.2,0.6,0.6,0.6,1.2v3.1c0,0.1,0,0.2,0.1,0.2c0,0.1,0.1,0.1,0.2,0.1c0,0,0.1,0,0.2,0c0.1,0,0.1,0,0.2,0v0.6
			c-0.2,0-0.2,0.1-0.4,0.1c-0.1,0-0.2,0-0.2,0c-0.2,0-0.6-0.1-0.7-0.4c-0.1-0.1-0.1-0.2-0.2-0.6c-0.2,0.2-0.5,0.5-0.8,0.6
			c-0.4,0.2-0.7,0.2-1.2,0.2c-0.6,0-1-0.2-1.3-0.5c-0.4-0.2-0.5-0.7-0.5-1.2c0-0.6,0.2-1,0.5-1.2s0.7-0.5,1.3-0.6L285.8,239.2z
			 M283.8,241.9c0.2,0.2,0.5,0.2,0.7,0.2c0.4,0,0.6-0.1,1-0.2c0.6-0.2,0.7-0.6,0.7-1.2v-0.7c-0.1,0.1-0.2,0.1-0.5,0.2
			c-0.2,0.1-0.4,0.1-0.6,0.1l-0.6,0.1c-0.4,0-0.6,0.1-0.7,0.2c-0.2,0.2-0.5,0.5-0.5,0.7C283.5,241.5,283.7,241.6,283.8,241.9z"/>
		<path d="M291.9,237.3c0.2,0.1,0.4,0.2,0.6,0.6v-0.7h0.8v5.1c0,0.7-0.1,1.3-0.2,1.7c-0.4,0.7-1.1,1.1-2.2,1.1
			c-0.6,0-1.1-0.1-1.5-0.4c-0.4-0.2-0.6-0.6-0.6-1.3h1c0,0.2,0.1,0.5,0.2,0.6c0.2,0.2,0.6,0.2,1,0.2c0.7,0,1.2-0.2,1.5-0.7
			c0.1-0.2,0.2-0.8,0.2-1.6c-0.2,0.2-0.4,0.5-0.6,0.6c-0.2,0.1-0.6,0.2-1,0.2c-0.6,0-1.1-0.2-1.6-0.6c-0.5-0.5-0.6-1.1-0.6-2.2
			c0-1,0.2-1.7,0.6-2.2c0.5-0.6,1-0.7,1.7-0.7C291,237,291.5,237,291.9,237.3z M291.9,238.2c-0.2-0.4-0.6-0.5-1.1-0.5
			c-0.6,0-1.1,0.2-1.3,1c-0.1,0.4-0.2,0.7-0.2,1.3c0,0.6,0.1,1.1,0.4,1.5c0.2,0.4,0.6,0.5,1,0.5c0.6,0,1.1-0.2,1.5-1
			c0.2-0.4,0.2-0.7,0.2-1.2C292.4,239.1,292.2,238.6,291.9,238.2z"/>
		<path d="M298.1,237.2c0.4,0.2,0.6,0.5,0.8,0.7c0.2,0.2,0.2,0.6,0.4,1c0.1,0.2,0.1,0.6,0.1,1.2h-4.1c0,0.6,0.2,1,0.4,1.5
			c0.2,0.4,0.6,0.6,1.1,0.6c0.5,0,0.8-0.2,1.1-0.5c0.2-0.2,0.2-0.4,0.4-0.6h1c0,0.2-0.1,0.5-0.2,0.6c-0.1,0.2-0.2,0.5-0.5,0.6
			c-0.2,0.2-0.6,0.5-1,0.6c-0.2,0.1-0.5,0.1-0.7,0.1c-0.6,0-1.3-0.2-1.8-0.7c-0.5-0.5-0.7-1.2-0.7-2.2c0-1,0.2-1.6,0.7-2.2
			s1.1-0.8,1.8-0.8C297.3,236.9,297.7,237,298.1,237.2z M298.4,239.5c0-0.4-0.1-0.7-0.2-1c-0.2-0.5-0.6-0.6-1.3-0.6
			c-0.5,0-0.7,0.2-1.1,0.5c-0.2,0.2-0.5,0.7-0.5,1.2L298.4,239.5L298.4,239.5z"/>
	</g>
	<g>
		<path d="M223.2,224.7h-1.3v-10.3h3.5c0.8,0,1.6,0.2,2.3,0.8c0.6,0.6,1,1.3,1,2.2c0,0.8-0.4,1.6-1,2.2s-1.5,0.8-2.3,0.8h-2.2V224.7
			z M223.2,219.3h2.2c0.6,0,1-0.2,1.3-0.6c0.4-0.4,0.5-0.7,0.5-1.2c0-0.5-0.1-0.8-0.5-1.2s-0.7-0.6-1.3-0.6h-2.2V219.3z"/>
		<path d="M232.4,224.9c-1.1,0-1.9-0.4-2.5-1.1c-0.7-0.7-1-1.6-1-2.7c0-1,0.4-1.9,1-2.7c0.6-0.7,1.5-1.1,2.5-1.1s1.9,0.4,2.5,1
			c0.6,0.7,1,1.6,1,2.8v0.2h-5.6c0,0.7,0.2,1.3,0.7,1.7c0.5,0.4,1,0.6,1.6,0.6c1,0,1.6-0.4,1.9-1.2l1.2,0.5c-0.2,0.6-0.6,1-1.1,1.3
			C233.8,224.7,233.1,224.9,232.4,224.9z M234.3,220.3c0-0.4-0.2-0.7-0.6-1.2c-0.4-0.4-0.8-0.6-1.6-0.6c-0.5,0-1,0.1-1.3,0.5
			c-0.4,0.4-0.6,0.7-0.7,1.2h4.2V220.3z"/>
		<path d="M238.2,224.7h-1.3v-7h1.2v1.2l0,0c0.1-0.4,0.4-0.7,0.8-1c0.4-0.2,0.8-0.4,1.2-0.4s0.7,0,1,0.1l-0.5,1.2
			c-0.1-0.1-0.4-0.1-0.7-0.1c-0.5,0-0.8,0.2-1.3,0.6c-0.4,0.4-0.6,0.8-0.6,1.5v3.9L238.2,224.7L238.2,224.7z"/>
		<path d="M244.5,224.9c-0.7,0-1.5-0.2-1.9-0.6c-0.5-0.4-0.8-0.8-1.1-1.5l1.2-0.5c0.4,0.8,1,1.3,1.9,1.3c0.4,0,0.7-0.1,1-0.2
			c0.2-0.2,0.4-0.4,0.4-0.7c0-0.5-0.4-0.7-1-1l-1.5-0.4c-0.5-0.1-0.8-0.4-1.3-0.6c-0.4-0.4-0.6-0.7-0.6-1.3c0-0.6,0.2-1.1,0.8-1.6
			c0.6-0.4,1.2-0.6,1.9-0.6c0.6,0,1.2,0.1,1.7,0.5c0.5,0.2,0.8,0.7,1.1,1.2l-1.2,0.5c-0.2-0.6-0.8-1-1.6-1c-0.4,0-0.7,0.1-1,0.2
			c-0.2,0.1-0.4,0.4-0.4,0.6c0,0.4,0.4,0.7,1,0.8l1.5,0.4c0.6,0.1,1.2,0.4,1.5,0.8c0.4,0.4,0.5,0.8,0.5,1.2c0,0.6-0.2,1.2-0.7,1.6
			C245.9,224.7,245.3,224.9,244.5,224.9z"/>
		<path d="M249.8,215.9c-0.2,0.2-0.4,0.2-0.6,0.2c-0.2,0-0.5-0.1-0.6-0.2c-0.2-0.2-0.2-0.4-0.2-0.6s0.1-0.5,0.2-0.6
			c0.2-0.2,0.4-0.2,0.6-0.2c0.2,0,0.5,0.1,0.6,0.2c0.2,0.2,0.2,0.4,0.2,0.6S249.9,215.6,249.8,215.9z M249.8,224.7h-1.3v-7h1.3
			V224.7z"/>
		<path d="M254,224.9c-0.7,0-1.5-0.2-1.9-0.6c-0.5-0.4-0.8-0.8-1.1-1.5l1.2-0.5c0.4,0.8,1,1.3,1.9,1.3c0.4,0,0.7-0.1,1-0.2
			c0.2-0.2,0.4-0.4,0.4-0.7c0-0.5-0.4-0.7-1-1l-1.5-0.4c-0.5-0.1-0.8-0.4-1.3-0.6c-0.4-0.4-0.6-0.7-0.6-1.3c0-0.6,0.2-1.1,0.8-1.6
			c0.6-0.4,1.2-0.6,1.9-0.6c0.6,0,1.2,0.1,1.7,0.5c0.5,0.2,0.8,0.7,1.1,1.2l-1.2,0.5c-0.2-0.6-0.8-1-1.6-1c-0.4,0-0.7,0.1-1,0.2
			c-0.2,0.1-0.4,0.4-0.4,0.6c0,0.4,0.4,0.7,1,0.8l1.5,0.4c0.6,0.1,1.2,0.4,1.5,0.8c0.4,0.4,0.5,0.8,0.5,1.2c0,0.6-0.2,1.2-0.7,1.6
			C255.6,224.7,254.9,224.9,254,224.9z"/>
		<path d="M260.9,224.8c-0.7,0-1.3-0.2-1.7-0.6c-0.4-0.4-0.6-1-0.6-1.7v-3.7h-1.2v-1.2h1.2v-2.2h1.3v2.2h1.7v1.2h-1.7v3.6
			c0,0.7,0.4,1.2,1,1.2c0.2,0,0.5,0,0.6-0.1l0.5,1.1C261.8,224.7,261.4,224.8,260.9,224.8z"/>
		<path d="M266.1,224.9c-1.1,0-1.9-0.4-2.5-1.1c-0.7-0.7-1-1.6-1-2.7c0-1,0.4-1.9,1-2.7c0.6-0.7,1.5-1.1,2.5-1.1s1.9,0.4,2.5,1
			c0.6,0.7,1,1.6,1,2.8v0.2h-5.6c0,0.7,0.2,1.3,0.7,1.7c0.5,0.4,1,0.6,1.6,0.6c1,0,1.6-0.4,1.9-1.2l1.2,0.5c-0.2,0.6-0.6,1-1.1,1.3
			C267.6,224.7,267,224.9,266.1,224.9z M268.1,220.3c0-0.4-0.2-0.7-0.6-1.2c-0.4-0.4-0.8-0.6-1.6-0.6c-0.5,0-1,0.1-1.3,0.5
			c-0.4,0.4-0.6,0.7-0.7,1.2h4.2V220.3z"/>
		<path d="M271.9,217.7v1l0,0c0.2-0.4,0.5-0.6,0.8-0.8c0.4-0.2,0.8-0.4,1.3-0.4c0.8,0,1.6,0.2,2.1,0.8c0.5,0.5,0.7,1.2,0.7,2.2v4.4
			h-1.3v-4.1c0-1.3-0.6-1.9-1.7-1.9c-0.6,0-1,0.2-1.3,0.6c-0.4,0.5-0.5,1-0.5,1.6v3.9h-1.5v-7h1.3V217.7z"/>
		<path d="M281.1,224.8c-0.7,0-1.3-0.2-1.7-0.6c-0.4-0.4-0.6-1-0.6-1.7v-3.7h-1.2v-1.2h1.2v-2.2h1.3v2.2h1.7v1.2h-1.7v3.6
			c0,0.7,0.4,1.2,1,1.2c0.2,0,0.5,0,0.6-0.1l0.5,1.1C282,224.7,281.6,224.8,281.1,224.8z"/>
		<path d="M286.6,224.7v-10.3h3.1c1.6,0,2.9,0.5,3.7,1.5c1,1,1.5,2.2,1.5,3.7s-0.5,2.8-1.5,3.7s-2.2,1.5-3.7,1.5h-3.1V224.7z
			 M287.9,223.4h1.8c1.2,0,2.2-0.4,2.8-1c0.7-0.7,1.1-1.7,1.1-2.9c0-1.2-0.4-2.2-1.1-2.9c-0.7-0.7-1.7-1-2.8-1h-1.8V223.4z"/>
		<path d="M297.7,215.9c-0.2,0.2-0.4,0.2-0.6,0.2c-0.2,0-0.5-0.1-0.6-0.2c-0.2-0.2-0.2-0.4-0.2-0.6s0.1-0.5,0.2-0.6
			c0.2-0.2,0.4-0.2,0.6-0.2c0.2,0,0.5,0.1,0.6,0.2c0.2,0.2,0.2,0.4,0.2,0.6S297.9,215.6,297.7,215.9z M297.7,224.7h-1.3v-7h1.3
			V224.7z"/>
		<path d="M302,224.9c-0.7,0-1.5-0.2-1.9-0.6c-0.5-0.4-0.8-0.8-1.1-1.5l1.2-0.5c0.4,0.8,1,1.3,1.9,1.3c0.4,0,0.7-0.1,1-0.2
			c0.2-0.2,0.4-0.4,0.4-0.7c0-0.5-0.4-0.7-1-1l-1.5-0.4c-0.5-0.1-0.8-0.4-1.3-0.6c-0.4-0.4-0.6-0.7-0.6-1.3c0-0.6,0.2-1.1,0.8-1.6
			c0.6-0.4,1.2-0.6,1.9-0.6c0.6,0,1.2,0.1,1.7,0.5c0.5,0.2,0.8,0.7,1.1,1.2l-1.2,0.5c-0.2-0.6-0.8-1-1.6-1c-0.4,0-0.7,0.1-1,0.2
			c-0.2,0.1-0.4,0.4-0.4,0.6c0,0.4,0.4,0.7,1,0.8l1.5,0.4c0.6,0.1,1.2,0.4,1.5,0.8c0.4,0.4,0.5,0.8,0.5,1.2c0,0.6-0.2,1.2-0.7,1.6
			C303.5,224.7,302.9,224.9,302,224.9z"/>
		<path d="M307.2,214.4v6.3l3-3.1h1.7l0,0l-2.7,2.9l2.9,4.2l0,0h-1.6l-2.2-3.3l-1.1,1.1v2.3H306v-10.4H307.2z"/>
	</g>
</g>
<path class="st6" d="M218.3,145.1c0.1-2.5,2.1-4.5,4.6-4.5c1.1,0,2.2,0.4,3.1,1.3l-0.9,0.8c-0.6-0.6-1.4-0.9-2.2-0.9
	c-1.8,0-3.2,1.5-3.2,3.2v0.1c-0.1,1.8,1.4,3.2,3.1,3.3h0.1c0.8,0.1,1.7-0.3,2.2-0.9c0.4-0.4,0.6-1,0.7-1.5h-2.9v-1.3h4.1
	c0.1,0.3,0.1,0.5,0.1,0.8c0,1.1-0.3,2.1-1.1,2.9c-0.8,0.8-2,1.3-3.1,1.3C220.4,149.6,218.3,147.6,218.3,145.1z"/>
<path class="st6" d="M230.5,143.8c-1.6,0-2.9,1.3-2.9,2.9c0,1.6,1.3,2.9,2.9,2.9c1.6,0,2.9-1.3,2.9-2.9
	C233.3,145.1,232.1,143.8,230.5,143.8L230.5,143.8z M230.5,148.4c-0.9,0-1.7-0.8-1.7-1.7v-0.1c0-0.9,0.8-1.6,1.6-1.6
	c0.9,0,1.6,0.8,1.6,1.6C232.1,147.6,231.4,148.4,230.5,148.4L230.5,148.4L230.5,148.4z"/>
<path class="st6" d="M236.8,143.8c-1.6,0-2.9,1.3-2.9,2.9s1.3,2.9,2.9,2.9c1.6,0,2.9-1.3,2.9-2.9c0-1.5-1.3-2.9-2.8-2.9
	C236.8,143.8,236.8,143.8,236.8,143.8z M236.8,148.4c-0.9,0-1.7-0.8-1.7-1.7v-0.1c0-0.9,0.8-1.6,1.6-1.6c0.9,0,1.6,0.8,1.6,1.6
	C238.4,147.6,237.7,148.4,236.8,148.4C236.8,148.4,236.8,148.4,236.8,148.4L236.8,148.4z"/>
<path class="st6" d="M244.5,144v0.5h-0.1c-0.4-0.4-1-0.6-1.5-0.6c-1.6,0.1-2.8,1.4-2.8,3c0.1,1.5,1.3,2.7,2.8,2.8
	c0.6,0,1.1-0.2,1.5-0.6h0.1v0.4c0,1.1-0.6,1.7-1.5,1.7c-0.6,0-1.2-0.4-1.5-1.1l-1.1,0.5c0.4,1.1,1.5,1.8,2.6,1.7
	c1.5,0,2.7-0.9,2.7-3v-5.2L244.5,144L244.5,144z M243.1,148.4c-0.9,0-1.6-0.8-1.6-1.7v-0.1c-0.1-0.9,0.6-1.7,1.5-1.8c0,0,0,0,0.1,0
	c0.9,0.1,1.6,0.8,1.5,1.8l0,0C244.7,147.6,244,148.4,243.1,148.4L243.1,148.4z"/>
<rect x="246.6" y="140.9" class="st6" width="1.3" height="8.5"/>
<path class="st6" d="M251.4,148.4c-0.6,0-1.2-0.4-1.4-0.9l3.8-1.6l-0.1-0.4c-0.4-1.1-1.3-1.8-2.4-1.8c-1.5,0-2.7,1.2-2.7,2.7
	c0,0.1,0,0.1,0,0.1c-0.1,1.5,1.2,2.9,2.7,2.9c0.1,0,0.1,0,0.1,0c1,0,1.9-0.5,2.4-1.3l-1-0.6C252.5,148.1,251.9,148.4,251.4,148.4z
	 M251.2,144.9c0.5-0.1,0.9,0.2,1.1,0.6l-2.6,1.1C249.7,145.8,250.3,145,251.2,144.9L251.2,144.9z"/>
<path class="st6" d="M256.4,145.5c-0.1-2.2,1.7-4.1,3.9-4.1c0.1,0,0.1,0,0.1,0c1.1,0,2.2,0.4,2.9,1.3l-0.7,0.7c-0.6-0.6-1.3-1-2.2-1
	c-1.7-0.1-3,1.3-3.1,2.9c0,0.1,0,0.1,0,0.2c-0.1,1.7,1.2,3,2.9,3.1c0.1,0,0.1,0,0.1,0c0.9,0,1.8-0.4,2.4-1.1l0.7,0.7
	c-1.5,1.7-4.1,1.8-5.8,0.4C256.8,147.8,256.4,146.7,256.4,145.5z"/>
<path class="st6" d="M264.3,149.4v-7.8h1v7.8H264.3z"/>
<path class="st6" d="M271.6,146.7c0,1.5-1.3,2.7-2.7,2.7c-1.5,0-2.7-1.3-2.7-2.7s1.3-2.7,2.7-2.7
	C270.4,143.9,271.6,145.2,271.6,146.7z M270.6,146.7c0.1-1-0.6-1.8-1.6-1.9c-1-0.1-1.8,0.6-1.9,1.6c0,0.1,0,0.2,0,0.3
	c0,1,0.8,1.8,1.8,1.8C269.8,148.5,270.6,147.7,270.6,146.7L270.6,146.7z"/>
<path class="st6" d="M276.2,149.4v-0.8h-0.1c-0.4,0.6-1,0.9-1.7,0.9c-1.4,0-2-0.9-2-2.2V144h1v3.1c0,1.1,0.6,1.5,1.3,1.5
	c0.8-0.1,1.5-0.8,1.4-1.6v-2.9h1v5.4L276.2,149.4L276.2,149.4z"/>
<path class="st6" d="M277.9,146.7c-0.1-1.5,1-2.7,2.5-2.9c0.7,0,1.4,0.3,1.8,0.9h0.1l-0.1-0.8v-2.5h1v7.8h-1v-0.8h-0.1
	c-0.4,0.6-1.1,0.9-1.8,0.9C279,149.5,277.8,148.2,277.9,146.7z M282.3,146.7c0.1-0.9-0.6-1.8-1.5-1.9c-0.9-0.1-1.8,0.6-1.9,1.5
	c0,0.1,0,0.3,0,0.4c-0.1,0.9,0.6,1.8,1.5,1.9c1,0.1,1.8-0.6,1.9-1.5C282.4,147,282.4,146.9,282.3,146.7z"/>
<path class="st6" d="M286,149.4v-7.8h2.7c1.3-0.1,2.4,1,2.5,2.3l0,0c0,1.3-1.1,2.4-2.5,2.3l0,0h-1.6v3.1L286,149.4L286,149.4z
	 M288.8,145.3c0.8,0,1.4-0.6,1.4-1.4c0-0.8-0.6-1.4-1.4-1.4H287v2.7L288.8,145.3L288.8,145.3z"/>
<path class="st6" d="M291.9,149.4v-7.8h1v7.8H291.9z"/>
<path class="st6" d="M293.8,147.8c0-1.2,1.1-1.9,2.4-1.9c0.5,0,1,0.1,1.5,0.4v-0.1c-0.1-0.8-0.7-1.4-1.5-1.3c-0.5,0-1,0.3-1.2,0.8
	l-0.9-0.4c0.6-1.2,2.1-1.7,3.3-1.1c0.8,0.4,1.3,1.2,1.3,2v3.2h-1v-0.8h-0.1c-0.4,0.6-1,0.9-1.8,0.9
	C294.9,149.5,293.9,148.8,293.8,147.8C293.8,147.9,293.8,147.9,293.8,147.8z M297.6,147.1c-0.4-0.3-0.8-0.4-1.3-0.4
	c-1.1,0-1.5,0.6-1.5,1.1c0.1,0.6,0.6,0.9,1.1,0.8C296.8,148.7,297.5,148,297.6,147.1L297.6,147.1z"/>
<path class="st6" d="M300,147.8V145h-0.9v-0.9h0.9v-1.6h1v1.6h1.3v0.9H301v2.7c0,0.6,0.3,0.9,0.7,0.9c0.1,0,0.3,0,0.5-0.1l0.4,0.8
	c-0.3,0.1-0.6,0.1-0.8,0.1c-0.8,0.1-1.6-0.5-1.8-1.3C300,148,300,147.9,300,147.8z"/>
<path class="st6" d="M306.5,141.6l-0.4,0.8c-0.1-0.1-0.3-0.1-0.5-0.1c-0.5-0.1-0.8,0.3-0.9,0.8c0,0.1,0,0.1,0,0.1v0.7h1.3v0.9h-1.4
	v4.5h-1v-4.5h-1V144h1v-0.7c0-1,0.7-1.8,1.7-1.8c0.1,0,0.1,0,0.2,0C306,141.5,306.3,141.6,306.5,141.6z"/>
<path class="st6" d="M312.1,146.7c0,1.5-1.3,2.7-2.7,2.7c-1.5,0-2.7-1.3-2.7-2.7s1.3-2.7,2.7-2.7C310.8,144,312.1,145.2,312.1,146.7
	z M311,146.7c0.1-1-0.6-1.8-1.6-1.9c-1-0.1-1.8,0.6-1.9,1.6c0,0.1,0,0.2,0,0.3c-0.1,1,0.6,1.8,1.6,1.9c1,0.1,1.8-0.6,1.9-1.6
	C311,146.9,311,146.8,311,146.7z"/>
<path class="st6" d="M312.8,149.4V144h1v0.9h0.1c0.3-0.6,0.9-1,1.5-1c0.3,0,0.5,0,0.8,0.1l-0.4,0.9c-0.2-0.1-0.4-0.1-0.6-0.1
	c-0.8,0-1.4,0.7-1.4,1.5c0,0,0,0,0,0.1v2.9L312.8,149.4L312.8,149.4z"/>
<path class="st6" d="M316.7,144h1v0.8h0.1c0.4-0.6,1-0.9,1.6-0.9c0.7-0.1,1.4,0.4,1.7,1.1c0.4-0.6,1.1-1.1,1.9-1.1
	c1.3,0,1.9,0.9,1.9,2.2v3.3h-1v-3.1c0-1.1-0.4-1.5-1.2-1.5c-0.8,0-1.4,0.8-1.4,1.6v2.9h-1v-3.2c0-1.1-0.4-1.5-1.2-1.5
	c-0.8,0-1.4,0.8-1.4,1.6v2.9h-1V144L316.7,144z"/>
<path class="st7" d="M208.8,149.4l-1.6,2.7h-4.1c-0.3,0-0.7-0.2-0.9-0.5l-3.4-5.8c-0.2-0.3-0.2-0.7,0-1.1l1.3-2.2l1.5,2.7l2.4,4.1
	H208.8L208.8,149.4z"/>
<path class="st8" d="M214,145.8l-3.4,5.8c-0.2,0.4-0.5,0.5-0.9,0.5h-2.5l1.6-2.7l2.4-4.1l-2.4-4.1h3.1l2.1,3.6
	C214.2,145.1,214.2,145.5,214,145.8z"/>
<path class="st9" d="M212,141.2h-7.8l-2.4,4.1l-1.5-2.7l2.1-3.6c0.2-0.4,0.5-0.5,0.9-0.5h6.7c0.3,0,0.7,0.2,0.9,0.5L212,141.2z"/>
<path class="st10" d="M208.8,141.2l2.4,4.1l-2.4,4.1h-4.8l-2.4-4.1l2.4-4.1H208.8"/>
<circle class="st5" cx="206.4" cy="145.3" r="2"/>
<path class="st11" d="M202.2,139c0.2-0.4,0.5-0.5,0.9-0.5h6.6c0.4,0,0.7,0.2,0.9,0.5l1.3,2.2l0,0l-1.3-2.2c-0.2-0.3-0.5-0.5-0.9-0.5
	h-6.6C202.8,138.5,202.5,138.7,202.2,139l-2.1,3.5v0.1L202.2,139z"/>
<polyline class="st12" points="201.8,145.3 204.1,141.2 212,141.2 211.9,141.1 204.1,141.1 201.8,145.2 "/>
<path class="st11" d="M198.9,144.8l1.3-2.2l1.5,2.7l2.4,4.1h4.7l0.1-0.1h-4.8l-2.4-4.1l-1.5-2.7L198.9,144.8
	c-0.1,0.1-0.1,0.3-0.1,0.5C198.7,145.1,198.8,145,198.9,144.8z"/>
<g class="st13">
	<path class="st14" d="M207.3,152.1h-4.2c-0.3,0-0.7-0.2-0.9-0.5l-3.4-5.8c-0.1-0.1-0.1-0.3-0.1-0.5c0,0.2,0.1,0.4,0.1,0.6l3.4,5.8
		c0.2,0.3,0.5,0.5,0.9,0.5L207.3,152.1L207.3,152.1z"/>
</g>
<g class="st13">
	<polygon class="st15" points="211.3,145.3 208.9,141.2 208.8,141.2 211.2,145.3 	"/>
	<path class="st15" d="M214,145.8l-3.4,5.8c-0.2,0.4-0.5,0.5-0.9,0.5h-2.5l-0.1,0.1h2.5c0.4,0,0.7-0.2,0.9-0.5L214,145.8
		c0-0.1,0.1-0.3,0.1-0.5C214.1,145.4,214.1,145.6,214,145.8z"/>
</g>
<g class="st13">
	<path class="st5" d="M212,141.3l2.1,3.6c0.1,0.1,0.1,0.3,0.1,0.5c0-0.2-0.1-0.3-0.1-0.6l-2.1-3.6h-3.1l0.1,0.1"/>
	<polygon class="st5" points="208.8,149.5 211.3,145.3 211.2,145.3 208.8,149.4 207.3,152.1 207.3,152.1 	"/>
</g>
<radialGradient id="SVGID_2_" cx="-688.8961" cy="1421.0233" r="5.9307" gradientTransform="matrix(2.67 0 0 2.67 2040.1101 -3655.2402)" gradientUnits="userSpaceOnUse">
	<stop  offset="0" style="stop-color:#FFFFFF;stop-opacity:0.1"/>
	<stop  offset="1" style="stop-color:#FFFFFF;stop-opacity:0"/>
</radialGradient>
<path class="st17" d="M214,144.8l-2.1-3.6l-1.3-2.2c-0.2-0.3-0.5-0.5-0.9-0.5h-6.7c-0.3,0-0.7,0.2-0.9,0.5l-3.4,5.8
	c-0.2,0.3-0.2,0.7,0,1l3.4,5.8c0.2,0.3,0.5,0.5,0.9,0.5h6.7c0.3,0,0.7-0.2,0.9-0.5l3.4-5.8C214.2,145.5,214.2,145.1,214,144.8z"/>
<g>
	<path class="st3" d="M471.1,180.7l-10.4-18.1c-0.8-1.4-2.3-2.3-3.9-2.3h-20.9c-1.6,0-3.1,0.9-3.9,2.3l-10.4,18.1
		c-0.8,1.4-0.8,3.1,0,4.6l10.4,18.2c0.8,1.4,2.2,2.4,3.9,2.4h20.9c1.6-0.1,3.2-1,3.9-2.4l10.4-18.1
		C471.8,183.9,471.8,182.2,471.1,180.7z"/>
	<path class="st4" d="M453.9,173.5l-12.7,1.6l-2.4,6.4l2,2l-2,3.6l2,2l-2,3.6l13.3,13.3h4.7c1.6-0.1,3.1-1,3.9-2.4l8.4-14.6
		L453.9,173.5z"/>
	<polygon class="st5" points="450.3,184.6 450.3,189 438.8,189 438.8,192.6 453.9,192.6 453.9,184.6 	"/>
	<polygon class="st5" points="442.4,181.5 442.4,177.1 453.9,177.1 453.9,173.5 438.8,173.5 438.8,181.5 	"/>
	<polygon class="st5" points="444.3,179.1 444.3,183.4 438.8,183.4 438.8,187 448.3,187 448.3,182.6 453.9,182.6 453.9,179.1 	"/>
</g>
<g>
	<g>
		<path d="M414.3,235h3.3c1,0,1.6,0.2,1.9,0.8c0.2,0.2,0.4,0.6,0.4,1.1c0,0.5-0.1,0.8-0.4,1.2c-0.2,0.2-0.4,0.2-0.6,0.5
			c0.4,0.2,0.6,0.2,0.8,0.5c0.4,0.4,0.6,0.8,0.6,1.5c0,0.5-0.2,1-0.5,1.3c-0.5,0.6-1.2,1-2.2,1h-3.4V235L414.3,235z M417.3,238.2
			c0.5,0,0.7-0.1,1-0.2c0.4-0.2,0.6-0.6,0.6-1c0-0.5-0.2-0.8-0.6-1c-0.2-0.1-0.6-0.2-1-0.2h-1.8v2.3L417.3,238.2L417.3,238.2
			L417.3,238.2z M417.7,241.7c0.6,0,1.1-0.2,1.5-0.6c0.2-0.2,0.2-0.6,0.2-0.8c0-0.6-0.2-1-0.7-1.1c-0.2-0.1-0.6-0.2-1-0.2h-2.2v2.7
			L417.7,241.7L417.7,241.7z"/>
		<path d="M421.4,235h1v7.6h-1V235z"/>
		<path d="M427.9,237.6c0.5,0.5,0.7,1.2,0.7,2.2s-0.2,1.7-0.6,2.2c-0.4,0.5-1.1,0.8-2.1,0.8c-0.7,0-1.5-0.2-1.8-0.7
			c-0.5-0.6-0.6-1.2-0.6-2.1c0-1,0.2-1.7,0.7-2.2s1.1-0.8,1.8-0.8C426.8,236.9,427.2,237.2,427.9,237.6z M427.2,241.4
			c0.2-0.5,0.4-1,0.4-1.6s-0.1-1-0.2-1.3c-0.2-0.6-0.7-0.7-1.3-0.7s-1,0.2-1.2,0.6c-0.2,0.5-0.4,1-0.4,1.6c0,0.6,0.1,1.1,0.4,1.5
			c0.2,0.4,0.6,0.6,1.2,0.6S427,241.9,427.2,241.4z"/>
		<path d="M433.3,237.4c0.4,0.2,0.6,0.8,0.7,1.6h-1c-0.1-0.4-0.2-0.6-0.4-0.8c-0.2-0.2-0.6-0.4-1-0.4c-0.6,0-1,0.2-1.3,0.8
			c-0.2,0.4-0.2,0.8-0.2,1.5s0.1,1,0.4,1.5c0.2,0.4,0.6,0.6,1.1,0.6c0.4,0,0.6-0.1,1-0.4c0.2-0.2,0.4-0.6,0.5-1h1
			c-0.1,0.7-0.4,1.3-0.7,1.6c-0.4,0.4-1,0.6-1.6,0.6c-0.7,0-1.3-0.2-1.8-0.8c-0.5-0.6-0.6-1.2-0.6-1.9c0-1,0.2-1.8,0.7-2.3
			c0.5-0.6,1.1-0.8,1.8-0.8C432.4,236.9,432.9,237,433.3,237.4z"/>
		<path d="M435,235h1v4.5l2.4-2.3h1.2l-2.2,2.1l2.2,3.5h-1.2l-1.8-2.8l-0.7,0.7v2.1h-1L435,235L435,235z"/>
		<path d="M444.1,240.2c0,0.5,0.1,0.7,0.2,1c0.4,0.5,1,0.7,1.8,0.7c0.4,0,0.7-0.1,1-0.2c0.6-0.2,1-0.6,1-1.1c0-0.4-0.1-0.7-0.4-1
			c-0.2-0.2-0.6-0.2-1.2-0.5l-1-0.2c-0.6-0.2-1.1-0.2-1.5-0.5c-0.5-0.2-0.7-0.8-0.7-1.5c0-0.6,0.2-1.2,0.6-1.7
			c0.5-0.5,1.1-0.6,1.9-0.6c0.7,0,1.5,0.2,1.9,0.6c0.6,0.4,0.8,1,0.8,1.8h-1c-0.1-0.4-0.2-0.7-0.2-1c-0.2-0.4-0.8-0.6-1.6-0.6
			c-0.6,0-1,0.1-1.3,0.4c-0.2,0.2-0.4,0.6-0.4,1s0.2,0.6,0.5,0.8c0.2,0.1,0.6,0.2,1.3,0.4l1,0.2c0.5,0.1,1,0.2,1.1,0.5
			c0.5,0.4,0.7,0.8,0.7,1.6c0,0.8-0.2,1.5-1,1.8c-0.6,0.4-1.3,0.6-2.1,0.6c-1,0-1.7-0.2-2.2-0.7c-0.6-0.5-0.7-1.1-0.7-1.9
			L444.1,240.2L444.1,240.2z"/>
		<path d="M450.6,235.5h1v1.6h1v0.7h-1v3.6c0,0.2,0.1,0.2,0.2,0.4c0.1,0,0.2,0.1,0.4,0.1c0,0,0.1,0,0.2,0c0.1,0,0.1,0,0.2,0v0.7
			c-0.1,0-0.2,0.1-0.4,0.1c-0.1,0-0.2,0-0.4,0c-0.5,0-0.7-0.1-1-0.4c-0.2-0.2-0.2-0.6-0.2-0.8v-3.7H450V237h0.7L450.6,235.5
			L450.6,235.5z"/>
		<path d="M457.4,237.6c0.5,0.5,0.7,1.2,0.7,2.2s-0.2,1.7-0.6,2.2c-0.4,0.5-1.1,0.8-2.1,0.8c-0.7,0-1.5-0.2-1.8-0.7
			c-0.5-0.6-0.6-1.2-0.6-2.1c0-1,0.2-1.7,0.7-2.2c0.5-0.5,1.1-0.8,1.8-0.8C456.3,236.9,456.9,237.2,457.4,237.6z M456.8,241.4
			c0.2-0.5,0.4-1,0.4-1.6s-0.1-1-0.2-1.3c-0.2-0.6-0.7-0.7-1.3-0.7s-1,0.2-1.2,0.6c-0.2,0.5-0.4,1-0.4,1.6c0,0.6,0.1,1.1,0.4,1.5
			s0.6,0.6,1.2,0.6S456.5,241.9,456.8,241.4z"/>
		<path d="M459.3,237h1v1c0.1-0.2,0.2-0.4,0.6-0.6c0.2-0.2,0.6-0.4,1-0.4c0,0,0,0,0.1,0s0.1,0,0.2,0v1c-0.1,0-0.1,0-0.2,0
			s-0.1,0-0.2,0c-0.5,0-0.8,0.2-1.1,0.5c-0.2,0.2-0.4,0.6-0.4,1v3.1h-1V237L459.3,237z"/>
		<path d="M465.8,239.2c0.2,0,0.4-0.1,0.5-0.2c0-0.1,0.1-0.2,0.1-0.4c0-0.2-0.1-0.6-0.4-0.6c-0.2-0.2-0.6-0.2-1-0.2
			c-0.5,0-0.8,0.1-1,0.4c-0.1,0.2-0.2,0.4-0.2,0.6h-0.8c0-0.6,0.2-1.2,0.6-1.5c0.5-0.2,1-0.4,1.5-0.4c0.6,0,1.2,0.1,1.6,0.4
			c0.4,0.2,0.6,0.6,0.6,1.2v3.1c0,0.1,0,0.2,0.1,0.2c0,0.1,0.1,0.1,0.2,0.1c0,0,0.1,0,0.2,0c0.1,0,0.1,0,0.2,0v0.6
			c-0.2,0-0.2,0.1-0.4,0.1c-0.1,0-0.2,0-0.2,0c-0.2,0-0.6-0.1-0.7-0.4c-0.1-0.1-0.1-0.2-0.2-0.6c-0.2,0.2-0.5,0.5-0.8,0.6
			c-0.4,0.2-0.7,0.2-1.2,0.2c-0.6,0-1-0.2-1.3-0.5c-0.4-0.2-0.5-0.7-0.5-1.2c0-0.6,0.2-1,0.5-1.2s0.7-0.5,1.3-0.6L465.8,239.2z
			 M463.8,241.9c0.2,0.2,0.5,0.2,0.7,0.2c0.4,0,0.6-0.1,1-0.2c0.6-0.2,0.7-0.6,0.7-1.2v-0.7c-0.1,0.1-0.2,0.1-0.5,0.2
			c-0.2,0.1-0.4,0.1-0.6,0.1l-0.6,0.1c-0.4,0-0.6,0.1-0.7,0.2c-0.2,0.2-0.5,0.5-0.5,0.7C463.5,241.5,463.7,241.6,463.8,241.9z"/>
		<path d="M471.9,237.3c0.2,0.1,0.4,0.2,0.6,0.6v-0.7h0.8v5.1c0,0.7-0.1,1.3-0.2,1.7c-0.4,0.7-1.1,1.1-2.2,1.1
			c-0.6,0-1.1-0.1-1.5-0.4c-0.4-0.2-0.6-0.6-0.6-1.3h1c0,0.2,0.1,0.5,0.2,0.6c0.2,0.2,0.6,0.2,1,0.2c0.7,0,1.2-0.2,1.5-0.7
			c0.1-0.2,0.2-0.8,0.2-1.6c-0.2,0.2-0.4,0.5-0.6,0.6c-0.2,0.1-0.6,0.2-1,0.2c-0.6,0-1.1-0.2-1.6-0.6c-0.5-0.5-0.6-1.1-0.6-2.2
			c0-1,0.2-1.7,0.6-2.2c0.5-0.6,1-0.7,1.7-0.7C471,237,471.5,237,471.9,237.3z M471.9,238.2c-0.2-0.4-0.6-0.5-1.1-0.5
			c-0.6,0-1.1,0.2-1.3,1c-0.1,0.4-0.2,0.7-0.2,1.3c0,0.6,0.1,1.1,0.4,1.5c0.2,0.4,0.6,0.5,1,0.5c0.6,0,1.1-0.2,1.5-1
			c0.2-0.4,0.2-0.7,0.2-1.2C472.4,239.1,472.2,238.6,471.9,238.2z"/>
		<path d="M478.1,237.2c0.4,0.2,0.6,0.5,0.8,0.7c0.2,0.2,0.2,0.6,0.4,1c0.1,0.2,0.1,0.6,0.1,1.2h-4.1c0,0.6,0.2,1,0.4,1.5
			c0.2,0.4,0.6,0.6,1.1,0.6c0.5,0,0.8-0.2,1.1-0.5c0.2-0.2,0.2-0.4,0.4-0.6h1c0,0.2-0.1,0.5-0.2,0.6c-0.1,0.2-0.2,0.5-0.5,0.6
			c-0.2,0.2-0.6,0.5-1,0.6c-0.2,0.1-0.5,0.1-0.7,0.1c-0.6,0-1.3-0.2-1.8-0.7c-0.5-0.5-0.7-1.2-0.7-2.2c0-1,0.2-1.6,0.7-2.2
			s1.1-0.8,1.8-0.8C477.3,236.9,477.7,237,478.1,237.2z M478.4,239.5c0-0.4-0.1-0.7-0.2-1c-0.2-0.5-0.6-0.6-1.3-0.6
			c-0.5,0-0.7,0.2-1.1,0.5c-0.2,0.2-0.5,0.7-0.5,1.2L478.4,239.5L478.4,239.5z"/>
	</g>
	<g>
		<path d="M403.2,224.7h-1.3v-10.3h3.5c0.8,0,1.6,0.2,2.3,0.8c0.6,0.6,1,1.3,1,2.2c0,0.8-0.4,1.6-1,2.2s-1.5,0.8-2.3,0.8h-2.2V224.7
			z M403.2,219.3h2.2c0.6,0,1-0.2,1.3-0.6c0.4-0.4,0.5-0.7,0.5-1.2c0-0.5-0.1-0.8-0.5-1.2c-0.4-0.4-0.7-0.6-1.3-0.6h-2.2V219.3z"/>
		<path d="M412.4,224.9c-1.1,0-1.9-0.4-2.5-1.1c-0.7-0.7-1-1.6-1-2.7c0-1,0.4-1.9,1-2.7c0.6-0.7,1.5-1.1,2.5-1.1s1.9,0.4,2.5,1
			c0.6,0.7,1,1.6,1,2.8v0.2h-5.6c0,0.7,0.2,1.3,0.7,1.7c0.5,0.4,1,0.6,1.6,0.6c1,0,1.6-0.4,1.9-1.2l1.2,0.5c-0.2,0.6-0.6,1-1.1,1.3
			C413.8,224.7,413.1,224.9,412.4,224.9z M414.3,220.3c0-0.4-0.2-0.7-0.6-1.2c-0.4-0.4-0.8-0.6-1.6-0.6c-0.5,0-1,0.1-1.3,0.5
			c-0.4,0.4-0.6,0.7-0.7,1.2h4.2V220.3z"/>
		<path d="M418.2,224.7h-1.3v-7h1.2v1.2l0,0c0.1-0.4,0.4-0.7,0.8-1c0.4-0.2,0.8-0.4,1.2-0.4c0.4,0,0.7,0,1,0.1l-0.5,1.2
			c-0.1-0.1-0.4-0.1-0.7-0.1c-0.5,0-0.8,0.2-1.3,0.6c-0.4,0.4-0.6,0.8-0.6,1.5v3.9L418.2,224.7L418.2,224.7z"/>
		<path d="M424.5,224.9c-0.7,0-1.5-0.2-1.9-0.6c-0.5-0.4-0.8-0.8-1.1-1.5l1.2-0.5c0.4,0.8,1,1.3,1.9,1.3c0.4,0,0.7-0.1,1-0.2
			c0.2-0.2,0.4-0.4,0.4-0.7c0-0.5-0.4-0.7-1-1l-1.5-0.4c-0.5-0.1-0.8-0.4-1.3-0.6c-0.4-0.4-0.6-0.7-0.6-1.3c0-0.6,0.2-1.1,0.8-1.6
			c0.6-0.4,1.2-0.6,1.9-0.6c0.6,0,1.2,0.1,1.7,0.5c0.5,0.2,0.8,0.7,1.1,1.2l-1.2,0.5c-0.2-0.6-0.8-1-1.6-1c-0.4,0-0.7,0.1-1,0.2
			c-0.2,0.1-0.4,0.4-0.4,0.6c0,0.4,0.4,0.7,1,0.8l1.5,0.4c0.6,0.1,1.2,0.4,1.5,0.8c0.4,0.4,0.5,0.8,0.5,1.2c0,0.6-0.2,1.2-0.7,1.6
			C425.9,224.7,425.3,224.9,424.5,224.9z"/>
		<path d="M429.8,215.9c-0.2,0.2-0.4,0.2-0.6,0.2c-0.2,0-0.5-0.1-0.6-0.2c-0.2-0.2-0.2-0.4-0.2-0.6s0.1-0.5,0.2-0.6
			c0.2-0.2,0.4-0.2,0.6-0.2c0.2,0,0.5,0.1,0.6,0.2c0.2,0.2,0.2,0.4,0.2,0.6S429.9,215.6,429.8,215.9z M429.8,224.7h-1.3v-7h1.3
			V224.7z"/>
		<path d="M434,224.9c-0.7,0-1.5-0.2-1.9-0.6s-0.8-0.8-1.1-1.5l1.2-0.5c0.4,0.8,1,1.3,1.9,1.3c0.4,0,0.7-0.1,1-0.2
			c0.2-0.2,0.4-0.4,0.4-0.7c0-0.5-0.4-0.7-1-1l-1.5-0.4c-0.5-0.1-0.8-0.4-1.3-0.6c-0.4-0.4-0.6-0.7-0.6-1.3c0-0.6,0.2-1.1,0.8-1.6
			c0.6-0.4,1.2-0.6,1.9-0.6c0.6,0,1.2,0.1,1.7,0.5c0.5,0.2,0.8,0.7,1.1,1.2l-1.2,0.5c-0.2-0.6-0.8-1-1.6-1c-0.4,0-0.7,0.1-1,0.2
			c-0.2,0.1-0.4,0.4-0.4,0.6c0,0.4,0.4,0.7,1,0.8l1.5,0.4c0.6,0.1,1.2,0.4,1.5,0.8c0.4,0.4,0.5,0.8,0.5,1.2c0,0.6-0.2,1.2-0.7,1.6
			C435.6,224.7,434.9,224.9,434,224.9z"/>
		<path d="M440.9,224.8c-0.7,0-1.3-0.2-1.7-0.6c-0.4-0.4-0.6-1-0.6-1.7v-3.7h-1.2v-1.2h1.2v-2.2h1.3v2.2h1.7v1.2h-1.7v3.6
			c0,0.7,0.4,1.2,1,1.2c0.2,0,0.5,0,0.6-0.1l0.5,1.1C441.8,224.7,441.4,224.8,440.9,224.8z"/>
		<path d="M446.1,224.9c-1.1,0-1.9-0.4-2.5-1.1c-0.7-0.7-1-1.6-1-2.7c0-1,0.4-1.9,1-2.7c0.6-0.7,1.5-1.1,2.5-1.1s1.9,0.4,2.5,1
			c0.6,0.7,1,1.6,1,2.8v0.2h-5.6c0,0.7,0.2,1.3,0.7,1.7c0.5,0.4,1,0.6,1.6,0.6c1,0,1.6-0.4,1.9-1.2l1.2,0.5c-0.2,0.6-0.6,1-1.1,1.3
			C447.6,224.7,447,224.9,446.1,224.9z M448.1,220.3c0-0.4-0.2-0.7-0.6-1.2c-0.4-0.4-0.8-0.6-1.6-0.6c-0.5,0-1,0.1-1.3,0.5
			c-0.4,0.4-0.6,0.7-0.7,1.2h4.2V220.3z"/>
		<path d="M451.9,217.7v1l0,0c0.2-0.4,0.5-0.6,0.8-0.8c0.4-0.2,0.8-0.4,1.3-0.4c0.8,0,1.6,0.2,2.1,0.8c0.5,0.5,0.7,1.2,0.7,2.2v4.4
			h-1.3v-4.1c0-1.3-0.6-1.9-1.7-1.9c-0.6,0-1,0.2-1.3,0.6c-0.4,0.5-0.5,1-0.5,1.6v3.9h-1.5v-7h1.3V217.7z"/>
		<path d="M461.1,224.8c-0.7,0-1.3-0.2-1.7-0.6c-0.4-0.4-0.6-1-0.6-1.7v-3.7h-1.2v-1.2h1.2v-2.2h1.3v2.2h1.7v1.2h-1.7v3.6
			c0,0.7,0.4,1.2,1,1.2c0.2,0,0.5,0,0.6-0.1l0.5,1.1C462,224.7,461.6,224.8,461.1,224.8z"/>
		<path d="M466.6,224.7v-10.3h3.1c1.6,0,2.9,0.5,3.7,1.5c1,1,1.5,2.2,1.5,3.7s-0.5,2.8-1.5,3.7s-2.2,1.5-3.7,1.5h-3.1V224.7z
			 M467.9,223.4h1.8c1.2,0,2.2-0.4,2.8-1c0.7-0.7,1.1-1.7,1.1-2.9c0-1.2-0.4-2.2-1.1-2.9c-0.7-0.7-1.7-1-2.8-1h-1.8V223.4z"/>
		<path d="M477.7,215.9c-0.2,0.2-0.4,0.2-0.6,0.2c-0.2,0-0.5-0.1-0.6-0.2c-0.2-0.2-0.2-0.4-0.2-0.6s0.1-0.5,0.2-0.6
			c0.2-0.2,0.4-0.2,0.6-0.2c0.2,0,0.5,0.1,0.6,0.2c0.2,0.2,0.2,0.4,0.2,0.6S477.9,215.6,477.7,215.9z M477.7,224.7h-1.3v-7h1.3
			V224.7z"/>
		<path d="M482,224.9c-0.7,0-1.5-0.2-1.9-0.6c-0.5-0.4-0.8-0.8-1.1-1.5l1.2-0.5c0.4,0.8,1,1.3,1.9,1.3c0.4,0,0.7-0.1,1-0.2
			c0.2-0.2,0.4-0.4,0.4-0.7c0-0.5-0.4-0.7-1-1l-1.5-0.4c-0.5-0.1-0.8-0.4-1.3-0.6c-0.4-0.4-0.6-0.7-0.6-1.3c0-0.6,0.2-1.1,0.8-1.6
			c0.6-0.4,1.2-0.6,1.9-0.6c0.6,0,1.2,0.1,1.7,0.5c0.5,0.2,0.8,0.7,1.1,1.2l-1.2,0.5c-0.2-0.6-0.8-1-1.6-1c-0.4,0-0.7,0.1-1,0.2
			c-0.2,0.1-0.4,0.4-0.4,0.6c0,0.4,0.4,0.7,1,0.8l1.5,0.4c0.6,0.1,1.2,0.4,1.5,0.8c0.4,0.4,0.5,0.8,0.5,1.2c0,0.6-0.2,1.2-0.7,1.6
			C483.5,224.7,482.9,224.9,482,224.9z"/>
		<path d="M487.2,214.4v6.3l3-3.1h1.7l0,0l-2.7,2.9l2.9,4.2l0,0h-1.6l-2.2-3.3l-1.1,1.1v2.3H486v-10.4H487.2z"/>
	</g>
</g>
<path class="st6" d="M398.3,145.1c0.1-2.5,2.1-4.5,4.5-4.5c1.1,0,2.2,0.4,3.1,1.3l-0.9,0.8c-0.6-0.6-1.4-0.9-2.2-0.9
	c-1.8,0-3.2,1.5-3.2,3.2v0.1c-0.1,1.8,1.4,3.2,3.1,3.3h0.1c0.8,0.1,1.7-0.3,2.2-0.9c0.4-0.4,0.6-1,0.7-1.5h-2.9v-1.3h4.1
	c0.1,0.3,0.1,0.5,0.1,0.8c0,1.1-0.4,2.1-1.1,2.9c-0.8,0.8-2,1.3-3.1,1.3C400.4,149.6,398.3,147.6,398.3,145.1z"/>
<path class="st6" d="M410.5,143.8c-1.6,0-2.9,1.3-2.9,2.9c0,1.6,1.3,2.9,2.9,2.9c1.6,0,2.9-1.3,2.9-2.9
	C413.3,145.1,412.1,143.8,410.5,143.8L410.5,143.8z M410.5,148.4c-0.9,0-1.7-0.8-1.7-1.7v-0.1c0-0.9,0.8-1.6,1.6-1.6
	c0.9,0,1.6,0.8,1.6,1.6C412.1,147.6,411.4,148.4,410.5,148.4L410.5,148.4L410.5,148.4z"/>
<path class="st6" d="M416.8,143.8c-1.6,0-2.9,1.3-2.9,2.9s1.3,2.9,2.9,2.9c1.6,0,2.9-1.3,2.9-2.9c0-1.5-1.3-2.9-2.8-2.9
	C416.8,143.8,416.8,143.8,416.8,143.8z M416.8,148.4c-0.9,0-1.7-0.8-1.7-1.7v-0.1c0-0.9,0.8-1.6,1.6-1.6c0.9,0,1.6,0.8,1.6,1.6
	C418.4,147.6,417.7,148.4,416.8,148.4C416.8,148.4,416.8,148.4,416.8,148.4L416.8,148.4z"/>
<path class="st6" d="M424.5,144v0.5h-0.1c-0.4-0.4-1-0.6-1.5-0.6c-1.6,0.1-2.8,1.4-2.8,3c0.1,1.5,1.3,2.7,2.8,2.8
	c0.6,0,1.1-0.2,1.5-0.6h0.1v0.4c0,1.1-0.6,1.7-1.5,1.7c-0.6,0-1.2-0.4-1.5-1.1l-1.1,0.5c0.4,1.1,1.5,1.8,2.6,1.7
	c1.5,0,2.7-0.9,2.7-3v-5.2L424.5,144L424.5,144z M423.1,148.4c-0.9,0-1.6-0.8-1.6-1.7v-0.1c-0.1-0.9,0.6-1.7,1.5-1.8c0,0,0,0,0.1,0
	c0.9,0.1,1.6,0.8,1.5,1.8l0,0C424.7,147.6,424,148.4,423.1,148.4L423.1,148.4z"/>
<rect x="426.6" y="140.9" class="st6" width="1.3" height="8.5"/>
<path class="st6" d="M431.4,148.4c-0.6,0-1.2-0.4-1.4-0.9l3.9-1.6l-0.1-0.4c-0.3-1.1-1.3-1.8-2.4-1.8c-1.5,0-2.7,1.2-2.7,2.7
	c0,0.1,0,0.1,0,0.1c-0.1,1.5,1.2,2.9,2.7,2.9c0.1,0,0.1,0,0.1,0c1,0,1.9-0.5,2.4-1.3l-1-0.6C432.5,148.1,431.9,148.4,431.4,148.4z
	 M431.2,144.9c0.5-0.1,0.9,0.2,1.1,0.6l-2.6,1.1C429.7,145.8,430.3,145,431.2,144.9L431.2,144.9z"/>
<path class="st6" d="M436.4,145.5c-0.1-2.2,1.7-4.1,3.9-4.1c0.1,0,0.1,0,0.1,0c1.1,0,2.2,0.4,2.9,1.3l-0.7,0.7c-0.6-0.6-1.3-1-2.2-1
	c-1.7-0.1-3,1.3-3.1,2.9c0,0.1,0,0.1,0,0.2c-0.1,1.7,1.2,3,2.9,3.1c0.1,0,0.1,0,0.1,0c0.9,0,1.8-0.4,2.4-1.1l0.7,0.7
	c-1.5,1.7-4.1,1.8-5.8,0.4C436.8,147.8,436.4,146.7,436.4,145.5z"/>
<path class="st6" d="M444.3,149.4v-7.8h1v7.8H444.3z"/>
<path class="st6" d="M451.6,146.7c0,1.5-1.3,2.7-2.7,2.7c-1.5,0-2.7-1.3-2.7-2.7s1.3-2.7,2.7-2.7
	C450.4,143.9,451.6,145.2,451.6,146.7z M450.6,146.7c0.1-1-0.6-1.8-1.6-1.9c-1-0.1-1.8,0.6-1.9,1.6c0,0.1,0,0.2,0,0.3
	c0,1,0.8,1.8,1.8,1.8C449.8,148.5,450.6,147.7,450.6,146.7L450.6,146.7z"/>
<path class="st6" d="M456.2,149.4v-0.8h-0.1c-0.4,0.6-1,0.9-1.7,0.9c-1.4,0-2-0.9-2-2.2V144h1v3.1c0,1.1,0.6,1.5,1.3,1.5
	c0.8-0.1,1.5-0.8,1.4-1.6v-2.9h1v5.4L456.2,149.4L456.2,149.4z"/>
<path class="st6" d="M457.9,146.7c-0.1-1.5,1-2.7,2.5-2.9c0.7,0,1.4,0.3,1.8,0.9h0.1l-0.1-0.8v-2.5h1v7.8h-1v-0.8h-0.1
	c-0.4,0.6-1.1,0.9-1.8,0.9C459,149.5,457.8,148.2,457.9,146.7z M462.3,146.7c0.1-0.9-0.6-1.8-1.5-1.9c-0.9-0.1-1.8,0.6-1.9,1.5
	c0,0.1,0,0.3,0,0.4c-0.1,0.9,0.6,1.8,1.5,1.9c1,0.1,1.8-0.6,1.9-1.5C462.4,147,462.4,146.9,462.3,146.7z"/>
<path class="st6" d="M466,149.4v-7.8h2.7c1.3-0.1,2.4,1,2.5,2.3l0,0c0,1.3-1.1,2.4-2.5,2.3l0,0h-1.6v3.1L466,149.4L466,149.4z
	 M468.8,145.3c0.8,0,1.4-0.6,1.4-1.4c0-0.8-0.6-1.4-1.4-1.4H467v2.7L468.8,145.3L468.8,145.3z"/>
<path class="st6" d="M471.9,149.4v-7.8h1v7.8H471.9z"/>
<path class="st6" d="M473.8,147.8c0-1.2,1.1-1.9,2.4-1.9c0.5,0,1,0.1,1.5,0.4v-0.1c-0.1-0.8-0.7-1.4-1.5-1.3c-0.5,0-1,0.3-1.2,0.8
	l-0.9-0.4c0.6-1.2,2.1-1.7,3.3-1.1c0.8,0.4,1.3,1.2,1.3,2v3.2h-1v-0.8h-0.1c-0.4,0.6-1,0.9-1.8,0.9
	C474.9,149.5,473.9,148.8,473.8,147.8C473.8,147.9,473.8,147.9,473.8,147.8z M477.6,147.1c-0.4-0.3-0.8-0.4-1.3-0.4
	c-1.1,0-1.5,0.6-1.5,1.1c0.1,0.6,0.6,0.9,1.1,0.8C476.8,148.7,477.5,148,477.6,147.1L477.6,147.1z"/>
<path class="st6" d="M480,147.8V145h-0.9v-0.9h0.9v-1.6h1v1.6h1.3v0.9H481v2.7c0,0.6,0.3,0.9,0.7,0.9c0.1,0,0.3,0,0.5-0.1l0.4,0.8
	c-0.3,0.1-0.6,0.1-0.8,0.1c-0.8,0.1-1.6-0.5-1.8-1.3C480,148,480,147.9,480,147.8z"/>
<path class="st6" d="M486.5,141.6l-0.4,0.8c-0.1-0.1-0.3-0.1-0.5-0.1c-0.5-0.1-0.8,0.3-0.9,0.8c0,0.1,0,0.1,0,0.1v0.7h1.3v0.9h-1.4
	v4.5h-1v-4.5h-1V144h1v-0.7c0-1,0.7-1.8,1.7-1.8c0.1,0,0.1,0,0.2,0C486,141.5,486.3,141.6,486.5,141.6z"/>
<path class="st6" d="M492.1,146.7c0,1.5-1.3,2.7-2.7,2.7c-1.5,0-2.7-1.3-2.7-2.7s1.3-2.7,2.7-2.7C490.8,144,492.1,145.2,492.1,146.7
	z M491,146.7c0.1-1-0.6-1.8-1.6-1.9c-1-0.1-1.8,0.6-1.9,1.6c0,0.1,0,0.2,0,0.3c-0.1,1,0.6,1.8,1.6,1.9c1,0.1,1.8-0.6,1.9-1.6
	C491,146.9,491,146.8,491,146.7z"/>
<path class="st6" d="M492.8,149.4V144h1v0.9h0.1c0.3-0.6,0.9-1,1.5-1c0.3,0,0.5,0,0.8,0.1l-0.4,0.9c-0.2-0.1-0.4-0.1-0.6-0.1
	c-0.8,0-1.4,0.7-1.4,1.5c0,0,0,0,0,0.1v2.9L492.8,149.4L492.8,149.4z"/>
<path class="st6" d="M496.7,144h1v0.8h0.1c0.4-0.6,1-0.9,1.6-0.9c0.7-0.1,1.4,0.4,1.7,1.1c0.4-0.6,1.1-1.1,1.9-1.1
	c1.3,0,1.9,0.9,1.9,2.2v3.3h-1v-3.1c0-1.1-0.4-1.5-1.2-1.5c-0.8,0-1.4,0.8-1.4,1.6v2.9h-1v-3.2c0-1.1-0.4-1.5-1.2-1.5
	c-0.8,0-1.4,0.8-1.4,1.6v2.9h-1V144L496.7,144z"/>
<path class="st7" d="M388.8,149.4l-1.6,2.7h-4.1c-0.4,0-0.7-0.2-0.9-0.5l-3.4-5.8c-0.2-0.3-0.2-0.7,0-1.1l1.3-2.2l1.5,2.7l2.4,4.1
	H388.8L388.8,149.4z"/>
<path class="st8" d="M394,145.8l-3.4,5.8c-0.2,0.4-0.5,0.5-0.9,0.5h-2.5l1.6-2.7l2.4-4.1l-2.4-4.1h3.1l2.1,3.6
	C394.2,145.1,394.2,145.5,394,145.8z"/>
<path class="st9" d="M392,141.2h-7.8l-2.4,4.1l-1.5-2.7l2.1-3.6c0.2-0.4,0.5-0.5,0.9-0.5h6.6c0.4,0,0.7,0.2,0.9,0.5L392,141.2z"/>
<path class="st10" d="M388.8,141.2l2.4,4.1l-2.4,4.1h-4.8l-2.4-4.1l2.4-4.1H388.8"/>
<circle class="st5" cx="386.4" cy="145.3" r="2"/>
<path class="st11" d="M382.2,139c0.2-0.4,0.5-0.5,0.9-0.5h6.7c0.3,0,0.7,0.2,0.9,0.5l1.3,2.2l0,0l-1.3-2.2c-0.2-0.3-0.5-0.5-0.9-0.5
	h-6.7C382.8,138.5,382.5,138.7,382.2,139l-2.1,3.5v0.1L382.2,139z"/>
<polyline class="st12" points="381.8,145.3 384.1,141.2 392,141.2 391.9,141.1 384.1,141.1 381.8,145.2 "/>
<path class="st11" d="M378.9,144.8l1.3-2.2l1.5,2.7l2.4,4.1h4.7l0.1-0.1h-4.8l-2.4-4.1l-1.5-2.7L378.9,144.8
	c-0.1,0.1-0.1,0.3-0.1,0.5C378.7,145.1,378.8,145,378.9,144.8z"/>
<g class="st13">
	<path class="st14" d="M387.3,152.1h-4.2c-0.4,0-0.7-0.2-0.9-0.5l-3.4-5.8c-0.1-0.1-0.1-0.3-0.1-0.5c0,0.2,0.1,0.4,0.1,0.6l3.4,5.8
		c0.2,0.3,0.5,0.5,0.9,0.5L387.3,152.1L387.3,152.1z"/>
</g>
<g class="st13">
	<polygon class="st15" points="391.3,145.3 388.9,141.2 388.8,141.2 391.2,145.3 	"/>
	<path class="st15" d="M394,145.8l-3.4,5.8c-0.2,0.4-0.5,0.5-0.9,0.5h-2.5l-0.1,0.1h2.5c0.3,0,0.7-0.2,0.9-0.5L394,145.8
		c0-0.1,0.1-0.3,0.1-0.5C394.1,145.4,394.1,145.6,394,145.8z"/>
</g>
<g class="st13">
	<path class="st5" d="M392,141.3l2.1,3.6c0.1,0.1,0.1,0.3,0.1,0.5c0-0.2-0.1-0.3-0.1-0.6l-2.1-3.6h-3.1l0.1,0.1"/>
	<polygon class="st5" points="388.8,149.5 391.3,145.3 391.2,145.3 388.8,149.4 387.3,152.1 387.3,152.1 	"/>
</g>
<radialGradient id="SVGID_3_" cx="-621.4803" cy="1421.0233" r="5.9307" gradientTransform="matrix(2.67 0 0 2.67 2040.1101 -3655.2402)" gradientUnits="userSpaceOnUse">
	<stop  offset="0" style="stop-color:#FFFFFF;stop-opacity:0.1"/>
	<stop  offset="1" style="stop-color:#FFFFFF;stop-opacity:0"/>
</radialGradient>
<path class="st18" d="M394,144.8l-2.1-3.6l-1.3-2.2c-0.2-0.3-0.5-0.5-0.9-0.5h-6.6c-0.4,0-0.7,0.2-0.9,0.5l-3.4,5.8
	c-0.2,0.3-0.2,0.7,0,1l3.4,5.8c0.2,0.3,0.5,0.5,0.9,0.5h6.6c0.4,0,0.7-0.2,0.9-0.5l3.4-5.8C394.2,145.5,394.2,145.1,394,144.8z"/>
<g>
	<path class="st3" d="M641.1,180.7l-10.4-18.1c-0.8-1.4-2.3-2.3-3.9-2.3h-20.9c-1.6,0-3.1,0.9-3.9,2.3l-10.4,18.1
		c-0.8,1.4-0.8,3.1,0,4.6l10.4,18.2c0.8,1.4,2.2,2.4,3.9,2.4h20.9c1.6-0.1,3.1-1,3.9-2.4l10.4-18.1
		C641.8,183.9,641.8,182.2,641.1,180.7z"/>
	<path class="st4" d="M623.9,173.5l-12.7,1.6l-2.4,6.4l2,2l-2,3.6l2,2l-2,3.6l13.3,13.3h4.7c1.6-0.1,3.1-1,3.9-2.4l8.4-14.6
		L623.9,173.5z"/>
	<polygon class="st5" points="620.3,184.6 620.3,189 608.8,189 608.8,192.6 623.9,192.6 623.9,184.6 	"/>
	<polygon class="st5" points="612.4,181.5 612.4,177.1 623.9,177.1 623.9,173.5 608.8,173.5 608.8,181.5 	"/>
	<polygon class="st5" points="614.3,179.1 614.3,183.4 608.8,183.4 608.8,187 618.3,187 618.3,182.6 623.9,182.6 623.9,179.1 	"/>
</g>
<g>
	<g>
		<path d="M584.3,235h3.3c1,0,1.6,0.2,1.9,0.8c0.2,0.2,0.4,0.6,0.4,1.1c0,0.5-0.1,0.8-0.4,1.2c-0.2,0.2-0.4,0.2-0.6,0.5
			c0.4,0.2,0.6,0.2,0.8,0.5c0.4,0.4,0.6,0.8,0.6,1.5c0,0.5-0.2,1-0.5,1.3c-0.5,0.6-1.2,1-2.2,1h-3.4V235L584.3,235z M587.3,238.2
			c0.5,0,0.7-0.1,1-0.2c0.4-0.2,0.6-0.6,0.6-1c0-0.5-0.2-0.8-0.6-1c-0.2-0.1-0.6-0.2-1-0.2h-1.8v2.3L587.3,238.2L587.3,238.2
			L587.3,238.2z M587.7,241.7c0.6,0,1.1-0.2,1.5-0.6c0.2-0.2,0.2-0.6,0.2-0.8c0-0.6-0.2-1-0.7-1.1c-0.2-0.1-0.6-0.2-1-0.2h-2.2v2.7
			L587.7,241.7L587.7,241.7z"/>
		<path d="M591.4,235h1v7.6h-1V235z"/>
		<path d="M597.9,237.6c0.5,0.5,0.7,1.2,0.7,2.2s-0.2,1.7-0.6,2.2c-0.4,0.5-1.1,0.8-2.1,0.8c-0.7,0-1.5-0.2-1.8-0.7
			c-0.5-0.6-0.6-1.2-0.6-2.1c0-1,0.2-1.7,0.7-2.2s1.1-0.8,1.8-0.8C596.8,236.9,597.2,237.2,597.9,237.6z M597.2,241.4
			c0.2-0.5,0.4-1,0.4-1.6s-0.1-1-0.2-1.3c-0.2-0.6-0.7-0.7-1.3-0.7s-1,0.2-1.2,0.6c-0.2,0.5-0.4,1-0.4,1.6c0,0.6,0.1,1.1,0.4,1.5
			c0.2,0.4,0.6,0.6,1.2,0.6S597,241.9,597.2,241.4z"/>
		<path d="M603.3,237.4c0.4,0.2,0.6,0.8,0.7,1.6h-1c-0.1-0.4-0.2-0.6-0.4-0.8c-0.2-0.2-0.6-0.4-1-0.4c-0.6,0-1,0.2-1.3,0.8
			c-0.2,0.4-0.2,0.8-0.2,1.5s0.1,1,0.4,1.5c0.2,0.4,0.6,0.6,1.1,0.6c0.4,0,0.6-0.1,1-0.4c0.2-0.2,0.4-0.6,0.5-1h1
			c-0.1,0.7-0.4,1.3-0.7,1.6c-0.4,0.4-1,0.6-1.6,0.6c-0.7,0-1.3-0.2-1.8-0.8s-0.6-1.2-0.6-1.9c0-1,0.2-1.8,0.7-2.3
			c0.5-0.6,1.1-0.8,1.8-0.8C602.4,236.9,602.9,237,603.3,237.4z"/>
		<path d="M605,235h1v4.5l2.4-2.3h1.2l-2.2,2.1l2.2,3.5h-1.2l-1.8-2.8l-0.7,0.7v2.1h-1L605,235L605,235z"/>
		<path d="M614.1,240.2c0,0.5,0.1,0.7,0.2,1c0.4,0.5,1,0.7,1.8,0.7c0.4,0,0.7-0.1,1-0.2c0.6-0.2,1-0.6,1-1.1c0-0.4-0.1-0.7-0.4-1
			c-0.2-0.2-0.6-0.2-1.2-0.5l-1-0.2c-0.6-0.2-1.1-0.2-1.5-0.5c-0.5-0.2-0.7-0.8-0.7-1.5c0-0.6,0.2-1.2,0.6-1.7
			c0.5-0.5,1.1-0.6,1.9-0.6c0.7,0,1.5,0.2,1.9,0.6c0.6,0.4,0.8,1,0.8,1.8h-1c-0.1-0.4-0.2-0.7-0.2-1c-0.2-0.4-0.8-0.6-1.6-0.6
			c-0.6,0-1,0.1-1.3,0.4c-0.2,0.2-0.4,0.6-0.4,1s0.2,0.6,0.5,0.8c0.2,0.1,0.6,0.2,1.3,0.4l1,0.2c0.5,0.1,1,0.2,1.1,0.5
			c0.5,0.4,0.7,0.8,0.7,1.6c0,0.8-0.2,1.5-1,1.8c-0.6,0.4-1.3,0.6-2.1,0.6c-1,0-1.7-0.2-2.2-0.7c-0.6-0.5-0.7-1.1-0.7-1.9
			L614.1,240.2L614.1,240.2z"/>
		<path d="M620.6,235.5h1v1.6h1v0.7h-1v3.6c0,0.2,0.1,0.2,0.2,0.4c0.1,0,0.2,0.1,0.4,0.1c0,0,0.1,0,0.2,0s0.1,0,0.2,0v0.7
			c-0.1,0-0.2,0.1-0.4,0.1c-0.1,0-0.2,0-0.4,0c-0.5,0-0.7-0.1-1-0.4c-0.2-0.2-0.2-0.6-0.2-0.8v-3.7H620V237h0.7L620.6,235.5
			L620.6,235.5z"/>
		<path d="M627.4,237.6c0.5,0.5,0.7,1.2,0.7,2.2s-0.2,1.7-0.6,2.2c-0.4,0.5-1.1,0.8-2.1,0.8c-0.7,0-1.5-0.2-1.8-0.7
			c-0.5-0.6-0.6-1.2-0.6-2.1c0-1,0.2-1.7,0.7-2.2s1.1-0.8,1.8-0.8C626.3,236.9,626.9,237.2,627.4,237.6z M626.8,241.4
			c0.2-0.5,0.4-1,0.4-1.6s-0.1-1-0.2-1.3c-0.2-0.6-0.7-0.7-1.3-0.7s-1,0.2-1.2,0.6c-0.2,0.5-0.4,1-0.4,1.6c0,0.6,0.1,1.1,0.4,1.5
			c0.2,0.4,0.6,0.6,1.2,0.6S626.5,241.9,626.8,241.4z"/>
		<path d="M629.3,237h1v1c0.1-0.2,0.2-0.4,0.6-0.6c0.2-0.2,0.6-0.4,1-0.4c0,0,0,0,0.1,0s0.1,0,0.2,0v1c-0.1,0-0.1,0-0.2,0
			s-0.1,0-0.2,0c-0.5,0-0.8,0.2-1.1,0.5c-0.2,0.2-0.4,0.6-0.4,1v3.1h-1V237L629.3,237z"/>
		<path d="M635.8,239.2c0.2,0,0.4-0.1,0.5-0.2c0-0.1,0.1-0.2,0.1-0.4c0-0.2-0.1-0.6-0.4-0.6c-0.2-0.2-0.6-0.2-1-0.2
			c-0.5,0-0.8,0.1-1,0.4c-0.1,0.2-0.2,0.4-0.2,0.6h-0.8c0-0.6,0.2-1.2,0.6-1.5c0.5-0.2,1-0.4,1.5-0.4c0.6,0,1.2,0.1,1.6,0.4
			s0.6,0.6,0.6,1.2v3.1c0,0.1,0,0.2,0.1,0.2c0,0.1,0.1,0.1,0.2,0.1c0,0,0.1,0,0.2,0s0.1,0,0.2,0v0.6c-0.2,0-0.2,0.1-0.4,0.1
			c-0.1,0-0.2,0-0.2,0c-0.2,0-0.6-0.1-0.7-0.4c-0.1-0.1-0.1-0.2-0.2-0.6c-0.2,0.2-0.5,0.5-0.8,0.6c-0.4,0.2-0.7,0.2-1.2,0.2
			c-0.6,0-1-0.2-1.3-0.5c-0.4-0.2-0.5-0.7-0.5-1.2c0-0.6,0.2-1,0.5-1.2c0.2-0.2,0.7-0.5,1.3-0.6L635.8,239.2z M633.8,241.9
			c0.2,0.2,0.5,0.2,0.7,0.2c0.4,0,0.6-0.1,1-0.2c0.6-0.2,0.7-0.6,0.7-1.2v-0.7c-0.1,0.1-0.2,0.1-0.5,0.2c-0.2,0.1-0.4,0.1-0.6,0.1
			l-0.6,0.1c-0.4,0-0.6,0.1-0.7,0.2c-0.2,0.2-0.5,0.5-0.5,0.7C633.5,241.5,633.7,241.6,633.8,241.9z"/>
		<path d="M641.9,237.3c0.2,0.1,0.4,0.2,0.6,0.6v-0.7h0.8v5.1c0,0.7-0.1,1.3-0.2,1.7c-0.4,0.7-1.1,1.1-2.2,1.1
			c-0.6,0-1.1-0.1-1.5-0.4s-0.6-0.6-0.6-1.3h1c0,0.2,0.1,0.5,0.2,0.6c0.2,0.2,0.6,0.2,1,0.2c0.7,0,1.2-0.2,1.5-0.7
			c0.1-0.2,0.2-0.8,0.2-1.6c-0.2,0.2-0.4,0.5-0.6,0.6c-0.2,0.1-0.6,0.2-1,0.2c-0.6,0-1.1-0.2-1.6-0.6c-0.5-0.5-0.6-1.1-0.6-2.2
			c0-1,0.2-1.7,0.6-2.2c0.5-0.6,1-0.7,1.7-0.7C641,237,641.5,237,641.9,237.3z M641.9,238.2c-0.2-0.4-0.6-0.5-1.1-0.5
			c-0.6,0-1.1,0.2-1.3,1c-0.1,0.4-0.2,0.7-0.2,1.3c0,0.6,0.1,1.1,0.4,1.5c0.2,0.4,0.6,0.5,1,0.5c0.6,0,1.1-0.2,1.5-1
			c0.2-0.4,0.2-0.7,0.2-1.2C642.4,239.1,642.2,238.6,641.9,238.2z"/>
		<path d="M648.1,237.2c0.4,0.2,0.6,0.5,0.8,0.7c0.2,0.2,0.2,0.6,0.4,1c0.1,0.2,0.1,0.6,0.1,1.2h-4.1c0,0.6,0.2,1,0.4,1.5
			c0.2,0.4,0.6,0.6,1.1,0.6c0.5,0,0.8-0.2,1.1-0.5s0.2-0.4,0.4-0.6h1c0,0.2-0.1,0.5-0.2,0.6c-0.1,0.2-0.2,0.5-0.5,0.6
			c-0.2,0.2-0.6,0.5-1,0.6c-0.2,0.1-0.5,0.1-0.7,0.1c-0.6,0-1.3-0.2-1.8-0.7c-0.5-0.5-0.7-1.2-0.7-2.2c0-1,0.2-1.6,0.7-2.2
			c0.5-0.6,1.1-0.8,1.8-0.8C647.3,236.9,647.7,237,648.1,237.2z M648.4,239.5c0-0.4-0.1-0.7-0.2-1c-0.2-0.5-0.6-0.6-1.3-0.6
			c-0.5,0-0.7,0.2-1.1,0.5c-0.2,0.2-0.5,0.7-0.5,1.2L648.4,239.5L648.4,239.5z"/>
	</g>
	<g>
		<path d="M573.2,224.7h-1.3v-10.3h3.5c0.8,0,1.6,0.2,2.3,0.8c0.6,0.6,1,1.3,1,2.2c0,0.8-0.4,1.6-1,2.2c-0.6,0.6-1.5,0.8-2.3,0.8
			h-2.2V224.7z M573.2,219.3h2.2c0.6,0,1-0.2,1.3-0.6c0.4-0.4,0.5-0.7,0.5-1.2c0-0.5-0.1-0.8-0.5-1.2s-0.7-0.6-1.3-0.6h-2.2V219.3z"
			/>
		<path d="M582.4,224.9c-1.1,0-1.9-0.4-2.5-1.1c-0.7-0.7-1-1.6-1-2.7c0-1,0.4-1.9,1-2.7c0.6-0.7,1.5-1.1,2.5-1.1
			c1.1,0,1.9,0.4,2.5,1c0.6,0.7,1,1.6,1,2.8v0.2h-5.6c0,0.7,0.2,1.3,0.7,1.7c0.5,0.4,1,0.6,1.6,0.6c1,0,1.6-0.4,1.9-1.2l1.2,0.5
			c-0.2,0.6-0.6,1-1.1,1.3C583.8,224.7,583.1,224.9,582.4,224.9z M584.3,220.3c0-0.4-0.2-0.7-0.6-1.2c-0.4-0.4-0.8-0.6-1.6-0.6
			c-0.5,0-1,0.1-1.3,0.5c-0.4,0.4-0.6,0.7-0.7,1.2h4.2V220.3z"/>
		<path d="M588.2,224.7h-1.3v-7h1.2v1.2l0,0c0.1-0.4,0.4-0.7,0.8-1c0.4-0.2,0.8-0.4,1.2-0.4s0.7,0,1,0.1l-0.5,1.2
			c-0.1-0.1-0.4-0.1-0.7-0.1c-0.5,0-0.8,0.2-1.3,0.6c-0.4,0.4-0.6,0.8-0.6,1.5v3.9L588.2,224.7L588.2,224.7z"/>
		<path d="M594.5,224.9c-0.7,0-1.5-0.2-1.9-0.6s-0.8-0.8-1.1-1.5l1.2-0.5c0.4,0.8,1,1.3,1.9,1.3c0.4,0,0.7-0.1,1-0.2
			c0.2-0.2,0.4-0.4,0.4-0.7c0-0.5-0.4-0.7-1-1l-1.5-0.4c-0.5-0.1-0.8-0.4-1.3-0.6c-0.4-0.4-0.6-0.7-0.6-1.3c0-0.6,0.2-1.1,0.8-1.6
			c0.6-0.4,1.2-0.6,1.9-0.6c0.6,0,1.2,0.1,1.7,0.5c0.5,0.2,0.8,0.7,1.1,1.2l-1.2,0.5c-0.2-0.6-0.8-1-1.6-1c-0.4,0-0.7,0.1-1,0.2
			c-0.2,0.1-0.4,0.4-0.4,0.6c0,0.4,0.4,0.7,1,0.8l1.5,0.4c0.6,0.1,1.2,0.4,1.5,0.8c0.4,0.4,0.5,0.8,0.5,1.2c0,0.6-0.2,1.2-0.7,1.6
			C595.9,224.7,595.3,224.9,594.5,224.9z"/>
		<path d="M599.8,215.9c-0.2,0.2-0.4,0.2-0.6,0.2s-0.5-0.1-0.6-0.2c-0.2-0.2-0.2-0.4-0.2-0.6s0.1-0.5,0.2-0.6
			c0.2-0.2,0.4-0.2,0.6-0.2s0.5,0.1,0.6,0.2c0.2,0.2,0.2,0.4,0.2,0.6S599.9,215.6,599.8,215.9z M599.8,224.7h-1.3v-7h1.3V224.7z"/>
		<path d="M604,224.9c-0.7,0-1.5-0.2-1.9-0.6s-0.8-0.8-1.1-1.5l1.2-0.5c0.4,0.8,1,1.3,1.9,1.3c0.4,0,0.7-0.1,1-0.2
			c0.2-0.2,0.4-0.4,0.4-0.7c0-0.5-0.4-0.7-1-1l-1.5-0.4c-0.5-0.1-0.8-0.4-1.3-0.6c-0.4-0.4-0.6-0.7-0.6-1.3c0-0.6,0.2-1.1,0.8-1.6
			c0.6-0.4,1.2-0.6,1.9-0.6c0.6,0,1.2,0.1,1.7,0.5c0.5,0.2,0.8,0.7,1.1,1.2l-1.2,0.5c-0.2-0.6-0.8-1-1.6-1c-0.4,0-0.7,0.1-1,0.2
			c-0.2,0.1-0.4,0.4-0.4,0.6c0,0.4,0.4,0.7,1,0.8l1.5,0.4c0.6,0.1,1.2,0.4,1.5,0.8c0.4,0.4,0.5,0.8,0.5,1.2c0,0.6-0.2,1.2-0.7,1.6
			C605.6,224.7,604.9,224.9,604,224.9z"/>
		<path d="M610.9,224.8c-0.7,0-1.3-0.2-1.7-0.6s-0.6-1-0.6-1.7v-3.7h-1.2v-1.2h1.2v-2.2h1.3v2.2h1.7v1.2h-1.7v3.6
			c0,0.7,0.4,1.2,1,1.2c0.2,0,0.5,0,0.6-0.1l0.5,1.1C611.8,224.7,611.4,224.8,610.9,224.8z"/>
		<path d="M616.1,224.9c-1.1,0-1.9-0.4-2.5-1.1c-0.7-0.7-1-1.6-1-2.7c0-1,0.4-1.9,1-2.7c0.6-0.7,1.5-1.1,2.5-1.1s1.9,0.4,2.5,1
			c0.6,0.7,1,1.6,1,2.8v0.2h-5.6c0,0.7,0.2,1.3,0.7,1.7c0.5,0.4,1,0.6,1.6,0.6c1,0,1.6-0.4,1.9-1.2l1.2,0.5c-0.2,0.6-0.6,1-1.1,1.3
			C617.6,224.7,617,224.9,616.1,224.9z M618.1,220.3c0-0.4-0.2-0.7-0.6-1.2c-0.4-0.4-0.8-0.6-1.6-0.6c-0.5,0-1,0.1-1.3,0.5
			c-0.4,0.4-0.6,0.7-0.7,1.2h4.2V220.3z"/>
		<path d="M621.9,217.7v1l0,0c0.2-0.4,0.5-0.6,0.8-0.8c0.4-0.2,0.8-0.4,1.3-0.4c0.8,0,1.6,0.2,2.1,0.8c0.5,0.5,0.7,1.2,0.7,2.2v4.4
			h-1.3v-4.1c0-1.3-0.6-1.9-1.7-1.9c-0.6,0-1,0.2-1.3,0.6c-0.4,0.5-0.5,1-0.5,1.6v3.9h-1.5v-7h1.3V217.7z"/>
		<path d="M631.1,224.8c-0.7,0-1.3-0.2-1.7-0.6c-0.4-0.4-0.6-1-0.6-1.7v-3.7h-1.2v-1.2h1.2v-2.2h1.3v2.2h1.7v1.2h-1.7v3.6
			c0,0.7,0.4,1.2,1,1.2c0.2,0,0.5,0,0.6-0.1l0.5,1.1C632,224.7,631.6,224.8,631.1,224.8z"/>
		<path d="M636.6,224.7v-10.3h3.1c1.6,0,2.9,0.5,3.7,1.5c1,1,1.5,2.2,1.5,3.7s-0.5,2.8-1.5,3.7c-1,1-2.2,1.5-3.7,1.5h-3.1V224.7z
			 M637.9,223.4h1.8c1.2,0,2.2-0.4,2.8-1c0.7-0.7,1.1-1.7,1.1-2.9c0-1.2-0.4-2.2-1.1-2.9c-0.7-0.7-1.7-1-2.8-1h-1.8V223.4z"/>
		<path d="M647.7,215.9c-0.2,0.2-0.4,0.2-0.6,0.2s-0.5-0.1-0.6-0.2c-0.2-0.2-0.2-0.4-0.2-0.6s0.1-0.5,0.2-0.6
			c0.2-0.2,0.4-0.2,0.6-0.2s0.5,0.1,0.6,0.2c0.2,0.2,0.2,0.4,0.2,0.6S647.9,215.6,647.7,215.9z M647.7,224.7h-1.3v-7h1.3V224.7z"/>
		<path d="M652,224.9c-0.7,0-1.5-0.2-1.9-0.6c-0.5-0.4-0.8-0.8-1.1-1.5l1.2-0.5c0.4,0.8,1,1.3,1.9,1.3c0.4,0,0.7-0.1,1-0.2
			c0.2-0.2,0.4-0.4,0.4-0.7c0-0.5-0.4-0.7-1-1l-1.5-0.4c-0.5-0.1-0.8-0.4-1.3-0.6c-0.4-0.4-0.6-0.7-0.6-1.3c0-0.6,0.2-1.1,0.8-1.6
			c0.6-0.4,1.2-0.6,1.9-0.6c0.6,0,1.2,0.1,1.7,0.5c0.5,0.2,0.8,0.7,1.1,1.2l-1.2,0.5c-0.2-0.6-0.8-1-1.6-1c-0.4,0-0.7,0.1-1,0.2
			c-0.2,0.1-0.4,0.4-0.4,0.6c0,0.4,0.4,0.7,1,0.8l1.5,0.4c0.6,0.1,1.2,0.4,1.5,0.8c0.4,0.4,0.5,0.8,0.5,1.2c0,0.6-0.2,1.2-0.7,1.6
			C653.5,224.7,652.9,224.9,652,224.9z"/>
		<path d="M657.2,214.4v6.3l3-3.1h1.7l0,0l-2.7,2.9l2.9,4.2l0,0h-1.6l-2.2-3.3l-1.1,1.1v2.3H656v-10.4H657.2z"/>
	</g>
</g>
<path class="st6" d="M568.3,145.1c0.1-2.5,2.1-4.5,4.5-4.5c1.1,0,2.2,0.4,3.1,1.3l-0.9,0.8c-0.6-0.6-1.4-0.9-2.2-0.9
	c-1.8,0-3.2,1.5-3.2,3.2v0.1c-0.1,1.8,1.4,3.2,3.2,3.3h0.1c0.8,0.1,1.7-0.3,2.2-0.9c0.4-0.4,0.6-1,0.7-1.5h-2.9v-1.3h4.1
	c0.1,0.3,0.1,0.5,0.1,0.8c0,1.1-0.4,2.1-1,2.9c-0.8,0.8-2,1.3-3.1,1.3C570.4,149.6,568.3,147.6,568.3,145.1z"/>
<path class="st6" d="M580.5,143.8c-1.6,0-2.9,1.3-2.9,2.9c0,1.6,1.3,2.9,2.9,2.9c1.6,0,2.9-1.3,2.9-2.9
	C583.3,145.1,582.1,143.8,580.5,143.8L580.5,143.8z M580.5,148.4c-0.9,0-1.7-0.8-1.7-1.7v-0.1c0-0.9,0.8-1.6,1.6-1.6
	c0.9,0,1.6,0.8,1.6,1.6C582.1,147.6,581.4,148.4,580.5,148.4L580.5,148.4L580.5,148.4z"/>
<path class="st6" d="M586.8,143.8c-1.6,0-2.9,1.3-2.9,2.9s1.3,2.9,2.9,2.9s2.9-1.3,2.9-2.9c0-1.5-1.3-2.9-2.8-2.9
	C586.8,143.8,586.8,143.8,586.8,143.8z M586.8,148.4c-0.9,0-1.7-0.8-1.7-1.7v-0.1c0-0.9,0.8-1.6,1.6-1.6c0.9,0,1.6,0.8,1.6,1.6
	C588.4,147.6,587.7,148.4,586.8,148.4C586.8,148.4,586.8,148.4,586.8,148.4L586.8,148.4z"/>
<path class="st6" d="M594.5,144v0.5h-0.1c-0.4-0.4-1-0.6-1.5-0.6c-1.6,0.1-2.8,1.4-2.8,3c0.1,1.5,1.3,2.7,2.8,2.8
	c0.6,0,1.1-0.2,1.5-0.6h0.1v0.4c0,1.1-0.6,1.7-1.5,1.7c-0.6,0-1.2-0.4-1.5-1.1l-1.1,0.5c0.4,1.1,1.5,1.8,2.6,1.7
	c1.5,0,2.7-0.9,2.7-3v-5.2L594.5,144L594.5,144z M593.1,148.4c-0.9,0-1.6-0.8-1.6-1.7v-0.1c-0.1-0.9,0.6-1.7,1.5-1.8c0,0,0,0,0.1,0
	c0.9,0.1,1.6,0.8,1.5,1.8l0,0C594.7,147.6,594,148.4,593.1,148.4L593.1,148.4z"/>
<rect x="596.6" y="140.9" class="st6" width="1.3" height="8.5"/>
<path class="st6" d="M601.4,148.4c-0.6,0-1.2-0.4-1.4-0.9l3.8-1.6l-0.1-0.4c-0.3-1.1-1.3-1.8-2.5-1.8c-1.5,0-2.7,1.2-2.7,2.7
	c0,0.1,0,0.1,0,0.1c-0.1,1.5,1.2,2.9,2.7,2.9c0.1,0,0.1,0,0.1,0c1,0,1.9-0.5,2.4-1.3l-1-0.6C602.5,148.1,601.9,148.4,601.4,148.4z
	 M601.2,144.9c0.5-0.1,0.9,0.2,1.1,0.6l-2.6,1.1C599.7,145.8,600.3,145,601.2,144.9L601.2,144.9z"/>
<path class="st6" d="M606.4,145.5c-0.1-2.2,1.7-4.1,3.9-4.1c0.1,0,0.1,0,0.1,0c1.1,0,2.2,0.4,2.9,1.3l-0.7,0.7c-0.6-0.6-1.3-1-2.2-1
	c-1.7-0.1-3,1.3-3.1,2.9c0,0.1,0,0.1,0,0.2c-0.1,1.7,1.2,3,2.9,3.1c0.1,0,0.1,0,0.1,0c0.9,0,1.8-0.4,2.4-1.1l0.7,0.7
	c-1.5,1.7-4.1,1.8-5.8,0.4C606.8,147.8,606.4,146.7,606.4,145.5z"/>
<path class="st6" d="M614.3,149.4v-7.8h1v7.8H614.3z"/>
<path class="st6" d="M621.6,146.7c0,1.5-1.3,2.7-2.7,2.7c-1.5,0-2.7-1.3-2.7-2.7s1.3-2.7,2.7-2.7
	C620.4,143.9,621.6,145.2,621.6,146.7z M620.6,146.7c0.1-1-0.6-1.8-1.6-1.9c-1-0.1-1.8,0.6-1.9,1.6c0,0.1,0,0.2,0,0.3
	c0,1,0.8,1.8,1.8,1.8C619.8,148.5,620.6,147.7,620.6,146.7L620.6,146.7z"/>
<path class="st6" d="M626.2,149.4v-0.8h-0.1c-0.4,0.6-1,0.9-1.7,0.9c-1.4,0-2-0.9-2-2.2V144h1v3.1c0,1.1,0.6,1.5,1.3,1.5
	c0.8-0.1,1.5-0.8,1.4-1.6v-2.9h1v5.4L626.2,149.4L626.2,149.4z"/>
<path class="st6" d="M627.9,146.7c-0.1-1.5,1-2.7,2.5-2.9c0.7,0,1.4,0.3,1.8,0.9h0.1l-0.1-0.8v-2.5h1v7.8h-1v-0.8h-0.1
	c-0.4,0.6-1.1,0.9-1.8,0.9C629,149.5,627.8,148.2,627.9,146.7z M632.3,146.7c0.1-0.9-0.6-1.8-1.5-1.9c-0.9-0.1-1.8,0.6-1.9,1.5
	c0,0.1,0,0.3,0,0.4c-0.1,0.9,0.6,1.8,1.5,1.9c1,0.1,1.8-0.6,1.9-1.5C632.4,147,632.4,146.9,632.3,146.7z"/>
<path class="st6" d="M636,149.4v-7.8h2.7c1.3-0.1,2.4,1,2.5,2.3l0,0c0,1.3-1.1,2.4-2.5,2.3l0,0h-1.6v3.1L636,149.4L636,149.4z
	 M638.8,145.3c0.8,0,1.4-0.6,1.4-1.4c0-0.8-0.6-1.4-1.4-1.4H637v2.7L638.8,145.3L638.8,145.3z"/>
<path class="st6" d="M641.9,149.4v-7.8h1v7.8H641.9z"/>
<path class="st6" d="M643.8,147.8c0-1.2,1.1-1.9,2.4-1.9c0.5,0,1,0.1,1.5,0.4v-0.1c-0.1-0.8-0.7-1.4-1.5-1.3c-0.5,0-1,0.3-1.2,0.8
	l-0.9-0.4c0.6-1.2,2.1-1.7,3.3-1.1c0.8,0.4,1.3,1.2,1.3,2v3.2h-1v-0.8h-0.1c-0.4,0.6-1,0.9-1.8,0.9
	C644.9,149.5,643.9,148.8,643.8,147.8C643.8,147.9,643.8,147.9,643.8,147.8z M647.6,147.1c-0.3-0.3-0.8-0.4-1.3-0.4
	c-1,0-1.5,0.6-1.5,1.1c0.1,0.6,0.6,0.9,1.1,0.8C646.8,148.7,647.5,148,647.6,147.1L647.6,147.1z"/>
<path class="st6" d="M650,147.8V145h-0.9v-0.9h0.9v-1.6h1v1.6h1.3v0.9H651v2.7c0,0.6,0.3,0.9,0.7,0.9c0.1,0,0.4,0,0.5-0.1l0.3,0.8
	c-0.3,0.1-0.6,0.1-0.8,0.1c-0.8,0.1-1.6-0.5-1.8-1.3C650,148,650,147.9,650,147.8z"/>
<path class="st6" d="M656.5,141.6l-0.4,0.8c-0.1-0.1-0.3-0.1-0.5-0.1c-0.5-0.1-0.8,0.3-0.9,0.8c0,0.1,0,0.1,0,0.1v0.7h1.3v0.9h-1.4
	v4.5h-1v-4.5h-1V144h1v-0.7c0-1,0.7-1.8,1.7-1.8c0.1,0,0.1,0,0.2,0C656,141.5,656.3,141.6,656.5,141.6z"/>
<path class="st6" d="M662.1,146.7c0,1.5-1.3,2.7-2.7,2.7s-2.7-1.3-2.7-2.7s1.3-2.7,2.7-2.7S662.1,145.2,662.1,146.7z M661,146.7
	c0.1-1-0.6-1.8-1.6-1.9c-1-0.1-1.8,0.6-1.9,1.6c0,0.1,0,0.2,0,0.3c-0.1,1,0.6,1.8,1.6,1.9c1,0.1,1.8-0.6,1.9-1.6
	C661,146.9,661,146.8,661,146.7z"/>
<path class="st6" d="M662.8,149.4V144h1v0.9h0.1c0.3-0.6,0.9-1,1.5-1c0.3,0,0.5,0,0.8,0.1l-0.3,0.9c-0.2-0.1-0.4-0.1-0.6-0.1
	c-0.8,0-1.4,0.7-1.4,1.5c0,0,0,0,0,0.1v2.9L662.8,149.4L662.8,149.4z"/>
<path class="st6" d="M666.7,144h1v0.8h0.1c0.4-0.6,1-0.9,1.6-0.9c0.7-0.1,1.4,0.4,1.7,1.1c0.4-0.6,1.1-1.1,1.9-1.1
	c1.3,0,1.9,0.9,1.9,2.2v3.3h-1v-3.1c0-1.1-0.4-1.5-1.2-1.5c-0.8,0-1.4,0.8-1.4,1.6v2.9h-1v-3.2c0-1.1-0.4-1.5-1.2-1.5
	s-1.4,0.8-1.4,1.6v2.9h-1V144L666.7,144z"/>
<path class="st7" d="M558.8,149.4l-1.6,2.7h-4.1c-0.3,0-0.7-0.2-0.9-0.5l-3.4-5.8c-0.2-0.3-0.2-0.7,0-1.1l1.3-2.2l1.5,2.7l2.4,4.1
	H558.8L558.8,149.4z"/>
<path class="st8" d="M564,145.8l-3.4,5.8c-0.2,0.4-0.5,0.5-0.9,0.5h-2.5l1.6-2.7l2.4-4.1l-2.4-4.1h3.1l2.1,3.6
	C564.2,145.1,564.2,145.5,564,145.8z"/>
<path class="st9" d="M562,141.2h-7.8l-2.4,4.1l-1.5-2.7l2.1-3.6c0.2-0.4,0.5-0.5,0.9-0.5h6.7c0.3,0,0.7,0.2,0.9,0.5L562,141.2z"/>
<path class="st10" d="M558.8,141.2l2.4,4.1l-2.4,4.1h-4.8l-2.4-4.1l2.4-4.1H558.8"/>
<circle class="st5" cx="556.4" cy="145.3" r="2"/>
<path class="st11" d="M552.2,139c0.2-0.4,0.5-0.5,0.9-0.5h6.6c0.4,0,0.7,0.2,0.9,0.5l1.3,2.2l0,0l-1.3-2.2c-0.2-0.3-0.5-0.5-0.9-0.5
	h-6.6C552.8,138.5,552.5,138.7,552.2,139l-2.1,3.5v0.1L552.2,139z"/>
<polyline class="st12" points="551.8,145.3 554.1,141.2 562,141.2 561.9,141.1 554.1,141.1 551.8,145.2 "/>
<path class="st11" d="M548.9,144.8l1.3-2.2l1.5,2.7l2.4,4.1h4.7l0.1-0.1h-4.8l-2.4-4.1l-1.5-2.7L548.9,144.8
	c-0.1,0.1-0.1,0.3-0.1,0.5C548.7,145.1,548.8,145,548.9,144.8z"/>
<g class="st13">
	<path class="st14" d="M557.3,152.1h-4.2c-0.3,0-0.7-0.2-0.9-0.5l-3.4-5.8c-0.1-0.1-0.1-0.3-0.1-0.5c0,0.2,0.1,0.4,0.1,0.6l3.4,5.8
		c0.2,0.3,0.5,0.5,0.9,0.5L557.3,152.1L557.3,152.1z"/>
</g>
<g class="st13">
	<polygon class="st15" points="561.3,145.3 558.9,141.2 558.8,141.2 561.2,145.3 	"/>
	<path class="st15" d="M564,145.8l-3.4,5.8c-0.2,0.4-0.5,0.5-0.9,0.5h-2.5l-0.1,0.1h2.5c0.3,0,0.7-0.2,0.9-0.5L564,145.8
		c0-0.1,0.1-0.3,0.1-0.5C564.1,145.4,564.1,145.6,564,145.8z"/>
</g>
<g class="st13">
	<path class="st5" d="M562,141.3l2.1,3.6c0.1,0.1,0.1,0.3,0.1,0.5c0-0.2-0.1-0.3-0.1-0.6l-2.1-3.6h-3.1l0.1,0.1"/>
	<polygon class="st5" points="558.8,149.5 561.3,145.3 561.2,145.3 558.8,149.4 557.3,152.1 557.3,152.1 	"/>
</g>
<radialGradient id="SVGID_4_" cx="-557.8099" cy="1421.0233" r="5.9307" gradientTransform="matrix(2.67 0 0 2.67 2040.1101 -3655.2402)" gradientUnits="userSpaceOnUse">
	<stop  offset="0" style="stop-color:#FFFFFF;stop-opacity:0.1"/>
	<stop  offset="1" style="stop-color:#FFFFFF;stop-opacity:0"/>
</radialGradient>
<path class="st19" d="M564,144.8l-2.1-3.6l-1.3-2.2c-0.2-0.3-0.5-0.5-0.9-0.5h-6.7c-0.3,0-0.7,0.2-0.9,0.5l-3.4,5.8
	c-0.2,0.3-0.2,0.7,0,1l3.4,5.8c0.2,0.3,0.5,0.5,0.9,0.5h6.7c0.3,0,0.7-0.2,0.9-0.5l3.4-5.8C564.2,145.5,564.2,145.1,564,144.8z"/>
</svg>
