<?xml version="1.0" encoding="utf-8"?>
<!-- Generator: Adobe Illustrator 24.1.2, SVG Export Plug-In . SVG Version: 6.00 Build 0)  -->
<svg version="1.1" id="Layer_1" xmlns="http://www.w3.org/2000/svg" xmlns:xlink="http://www.w3.org/1999/xlink" x="0px" y="0px"
	 viewBox="0 0 700 385.7" style="enable-background:new 0 0 700 385.7;" xml:space="preserve">
<style type="text/css">
	.st0{display:none;}
	.st1{fill:none;stroke:#000000;stroke-width:2.5;stroke-miterlimit:10;}
	.st2{fill:#FFFFFF;stroke:#000000;stroke-width:2.5;stroke-miterlimit:10;}
	.st3{display:inline;}
	.st4{display:inline;fill:url(#SVGID_1_);}
	.st5{fill:url(#SVGID_2_);}
	.st6{fill:#8C3123;}
	.st7{fill-rule:evenodd;clip-rule:evenodd;}
	.st8{fill:#E05243;}
	.st9{fill:#5E1F18;}
	.st10{fill:#F2B0A9;}
	.st11{fill:url(#SVGID_3_);}
	.st12{fill:url(#SVGID_4_);}
	.st13{fill:url(#SVGID_5_);}
	.st14{fill:url(#SVGID_6_);}
	.st15{fill:url(#SVGID_7_);}
	.st16{fill:url(#SVGID_8_);}
	.st17{fill:url(#SVGID_9_);}
	.st18{fill:url(#SVGID_10_);}
</style>
<g class="st0">
	
		<image style="display:inline;overflow:visible;enable-background:new    ;" width="1805" height="368" xlink:href="../../repos/thoughtspot.github.io/images/cloud-vm-storage.png"  transform="matrix(1.0019 0 0 1.0019 -536.8209 -63.3393)">
	</image>
</g>
<g>
	<line class="st1" x1="88.3" y1="94.8" x2="88.3" y2="69.7"/>
	<line class="st1" x1="266.2" y1="94.8" x2="266.2" y2="69.7"/>
	<line class="st1" x1="446.3" y1="95.6" x2="446.3" y2="70.4"/>
	<line class="st1" x1="616.3" y1="97.5" x2="616.3" y2="72.4"/>
</g>
<line class="st1" x1="153" y1="40" x2="549.6" y2="40"/>
<rect x="6.6" y="8" class="st2" width="154.5" height="64.4"/>
<rect x="183.8" y="8" class="st2" width="154.5" height="64.4"/>
<rect x="361.5" y="8" class="st2" width="154.5" height="64.4"/>
<rect x="537.9" y="8" class="st2" width="154.5" height="64.4"/>
<rect x="6.6" y="88.6" class="st2" width="685.9" height="290.9"/>
<g>
	<path d="M53.7,44.4l-3-9.2H52l1.4,4.6c0.4,1.2,0.7,2.4,1,3.5l0,0c0.3-1.1,0.6-2.2,1.1-3.4l1.6-4.6h1.3l-3.3,9.2L53.7,44.4
		L53.7,44.4z"/>
	<path d="M67.1,40.3c-0.1-1.3-0.2-2.8-0.1-4l0,0c-0.3,1.1-0.7,2.2-1.2,3.5l-1.6,4.5h-0.9l-1.5-4.4c-0.4-1.3-0.8-2.5-1.1-3.6l0,0
		c0,1.2-0.1,2.7-0.2,4.1l-0.2,4h-1.1l0.6-9.2h1.5l1.6,4.5c0.4,1.1,0.7,2.2,0.9,3.1l0,0c0.2-0.9,0.6-1.9,1-3.1l1.6-4.5h1.5l0.6,9.2
		h-1.2L67.1,40.3z"/>
	<path d="M74.4,35.2v9.2h-1.2v-9.2H74.4z"/>
	<path d="M76.6,39.6c0-0.7,0-1.2-0.1-1.8h1.1l0.1,1.1l0,0c0.3-0.6,1.1-1.2,2.2-1.2c0.9,0,2.3,0.5,2.3,2.8v4H81v-3.8
		c0-1.1-0.4-2-1.5-2c-0.8,0-1.4,0.6-1.6,1.2c0,0.1-0.1,0.3-0.1,0.5v4h-1.2C76.6,44.4,76.6,39.6,76.6,39.6z"/>
	<path d="M84.1,43.2c0.4,0.2,1,0.5,1.6,0.5c0.9,0,1.3-0.4,1.3-1s-0.3-0.9-1.2-1.2c-1.2-0.4-1.8-1.1-1.8-1.9c0-1.1,0.9-1.9,2.3-1.9
		c0.7,0,1.3,0.2,1.6,0.4L87.6,39c-0.3-0.2-0.7-0.4-1.4-0.4c-0.7,0-1.1,0.4-1.1,0.9s0.4,0.8,1.3,1.1c1.2,0.4,1.7,1,1.7,2
		c0,1.2-0.9,2-2.5,2c-0.7,0-1.4-0.2-1.9-0.5L84.1,43.2z"/>
	<path d="M91.1,35.9v1.9h1.7v0.9h-1.7v3.6c0,0.8,0.2,1.3,0.9,1.3c0.3,0,0.5,0,0.7-0.1l0.1,0.9c-0.2,0.1-0.6,0.2-1.1,0.2
		c-0.6,0-1-0.2-1.3-0.5c-0.3-0.4-0.5-0.9-0.5-1.7v-3.6h-1v-0.9h1v-1.7L91.1,35.9z"/>
	<path d="M97.9,44.4l-0.1-0.8l0,0c-0.4,0.5-1.1,1-2,1c-1.3,0-2-0.9-2-1.9c0-1.6,1.4-2.5,4-2.5v-0.1c0-0.5-0.2-1.5-1.5-1.5
		c-0.6,0-1.3,0.2-1.7,0.5l-0.4-0.9c0.5-0.4,1.3-0.6,2.2-0.6c2,0,2.5,1.4,2.5,2.7v2.5c0,0.6,0,1.1,0.1,1.6H97.9z M97.7,41
		c-1.3,0-2.8,0.2-2.8,1.5c0,0.8,0.5,1.2,1.1,1.2c0.9,0,1.4-0.5,1.6-1.1c0-0.1,0.1-0.3,0.1-0.4C97.7,42.2,97.7,41,97.7,41z"/>
	<path d="M100.8,39.6c0-0.7,0-1.2-0.1-1.8h1.1l0.1,1.1l0,0c0.3-0.6,1.1-1.2,2.2-1.2c0.9,0,2.3,0.5,2.3,2.8v4h-1.2v-3.8
		c0-1.1-0.4-2-1.5-2c-0.8,0-1.4,0.6-1.6,1.2c-0.1,0.2-0.1,0.4-0.1,0.6v4h-1.2C100.8,44.5,100.8,39.6,100.8,39.6z"/>
	<path d="M113.2,44.2c-0.3,0.2-1,0.4-1.9,0.4c-2,0-3.3-1.4-3.3-3.4s1.4-3.5,3.6-3.5c0.7,0,1.3,0.2,1.7,0.3l-0.3,0.9
		c-0.3-0.2-0.7-0.3-1.4-0.3c-1.5,0-2.3,1.1-2.3,2.5c0,1.5,1,2.5,2.3,2.5c0.7,0,1.1-0.2,1.5-0.3L113.2,44.2z"/>
	<path d="M115.2,41.3c0,1.6,1.1,2.3,2.3,2.3c0.9,0,1.4-0.2,1.8-0.3l0.2,0.9c-0.4,0.2-1.2,0.4-2.2,0.4c-2,0-3.3-1.3-3.3-3.3
		s1.2-3.6,3.1-3.6c2.2,0,2.7,1.9,2.7,3.1c0,0.2,0,0.4,0,0.6h-4.6V41.3z M118.7,40.4c0-0.8-0.3-2-1.7-2c-1.2,0-1.8,1.1-1.9,2H118.7z"
		/>
</g>
<g>
	<path d="M229.8,44.4l-3-9.2h1.3l1.4,4.6c0.4,1.2,0.7,2.4,1,3.5l0,0c0.3-1.1,0.6-2.2,1.1-3.4l1.6-4.6h1.3l-3.3,9.2L229.8,44.4
		L229.8,44.4z"/>
	<path d="M243.3,40.3c-0.1-1.3-0.2-2.8-0.1-4l0,0c-0.3,1.1-0.7,2.2-1.2,3.5l-1.6,4.5h-0.9l-1.5-4.4c-0.4-1.3-0.8-2.5-1.1-3.6l0,0
		c0,1.2-0.1,2.7-0.2,4.1l-0.2,4h-1.1l0.6-9.2h1.5l1.6,4.5c0.4,1.1,0.7,2.2,0.9,3.1l0,0c0.2-0.9,0.6-1.9,1-3.1l1.6-4.5h1.5l0.6,9.2
		h-1.2L243.3,40.3z"/>
	<path d="M250.6,35.2v9.2h-1.2v-9.2H250.6z"/>
	<path d="M252.8,39.6c0-0.7,0-1.2-0.1-1.8h1.1l0.1,1.1l0,0c0.3-0.6,1.1-1.2,2.2-1.2c0.9,0,2.3,0.5,2.3,2.8v4h-1.2v-3.8
		c0-1.1-0.4-2-1.5-2c-0.8,0-1.4,0.6-1.6,1.2c-0.1,0.2-0.1,0.4-0.1,0.6v4h-1.2L252.8,39.6L252.8,39.6z"/>
	<path d="M260.2,43.2c0.4,0.2,1,0.5,1.6,0.5c0.9,0,1.3-0.4,1.3-1s-0.3-0.9-1.2-1.2c-1.2-0.4-1.8-1.1-1.8-1.9c0-1.1,0.9-1.9,2.3-1.9
		c0.7,0,1.3,0.2,1.6,0.4l-0.3,0.9c-0.3-0.2-0.7-0.4-1.4-0.4c-0.7,0-1.1,0.4-1.1,0.9s0.4,0.8,1.3,1.1c1.2,0.4,1.7,1,1.7,2
		c0,1.2-0.9,2-2.5,2c-0.7,0-1.4-0.2-1.9-0.5L260.2,43.2z"/>
	<path d="M267.3,35.9v1.9h1.7v0.9h-1.7v3.6c0,0.8,0.2,1.3,0.9,1.3c0.3,0,0.5,0,0.7-0.1l0.1,0.9c-0.2,0.1-0.6,0.2-1.1,0.2
		c-0.6,0-1-0.2-1.3-0.5c-0.3-0.4-0.5-0.9-0.5-1.7v-3.6h-1v-0.9h1v-1.7L267.3,35.9z"/>
	<path d="M274.1,44.4l-0.1-0.8l0,0c-0.4,0.5-1.1,1-2,1c-1.3,0-2-0.9-2-1.9c0-1.6,1.4-2.5,4-2.5v-0.1c0-0.5-0.2-1.5-1.5-1.5
		c-0.6,0-1.3,0.2-1.7,0.5l-0.3-0.8c0.5-0.4,1.3-0.6,2.2-0.6c2,0,2.5,1.4,2.5,2.7v2.5c0,0.6,0,1.1,0.1,1.6h-1.2V44.4z M273.9,41
		c-1.3,0-2.8,0.2-2.8,1.5c0,0.8,0.5,1.2,1.1,1.2c0.9,0,1.4-0.5,1.6-1.1c0-0.1,0.1-0.3,0.1-0.4L273.9,41L273.9,41z"/>
	<path d="M277,39.6c0-0.7,0-1.2-0.1-1.8h1.1l0.1,1.1l0,0c0.3-0.6,1.1-1.2,2.2-1.2c0.9,0,2.3,0.5,2.3,2.8v4h-1.2v-3.8
		c0-1.1-0.4-2-1.5-2c-0.8,0-1.4,0.6-1.6,1.2c-0.1,0.2-0.1,0.4-0.1,0.6v4H277V39.6L277,39.6z"/>
	<path d="M289.3,44.2c-0.3,0.2-1,0.4-1.9,0.4c-2,0-3.3-1.4-3.3-3.4s1.4-3.5,3.6-3.5c0.7,0,1.3,0.2,1.7,0.3l-0.3,0.9
		c-0.3-0.2-0.7-0.3-1.4-0.3c-1.5,0-2.3,1.1-2.3,2.5c0,1.5,1,2.5,2.3,2.5c0.7,0,1.1-0.2,1.5-0.3L289.3,44.2z"/>
	<path d="M291.3,41.3c0,1.6,1.1,2.3,2.3,2.3c0.9,0,1.4-0.2,1.8-0.3l0.2,0.9c-0.4,0.2-1.2,0.4-2.2,0.4c-2,0-3.3-1.3-3.3-3.3
		s1.2-3.6,3.1-3.6c2.2,0,2.7,1.9,2.7,3.1c0,0.2,0,0.4,0,0.6h-4.6V41.3z M294.9,40.4c0-0.8-0.3-2-1.7-2c-1.2,0-1.8,1.1-1.9,2H294.9z"
		/>
</g>
<g>
	<path d="M410.6,44.4l-3-9.2h1.3l1.4,4.6c0.4,1.2,0.7,2.4,1,3.5l0,0c0.3-1.1,0.6-2.2,1.1-3.4l1.6-4.6h1.3l-3.3,9.2L410.6,44.4
		L410.6,44.4z"/>
	<path d="M424,40.3c-0.1-1.3-0.2-2.8-0.1-4l0,0c-0.3,1.1-0.7,2.2-1.2,3.5l-1.6,4.5h-0.9l-1.5-4.4c-0.4-1.3-0.8-2.5-1.1-3.6l0,0
		c0,1.2-0.1,2.7-0.2,4.1l-0.2,4h-1.1l0.6-9.2h1.5l1.6,4.5c0.4,1.1,0.7,2.2,0.9,3.1l0,0c0.2-0.9,0.6-1.9,1-3.1l1.6-4.5h1.5l0.6,9.2
		h-1.2L424,40.3z"/>
	<path d="M431.3,35.2v9.2h-1.2v-9.2H431.3z"/>
	<path d="M433.5,39.6c0-0.7,0-1.2-0.1-1.8h1.1l0.1,1.1l0,0c0.3-0.6,1.1-1.2,2.2-1.2c0.9,0,2.3,0.5,2.3,2.8v4h-1.2v-3.8
		c0-1.1-0.4-2-1.5-2c-0.8,0-1.4,0.6-1.6,1.2c-0.1,0.2-0.1,0.4-0.1,0.6v4h-1.2L433.5,39.6L433.5,39.6z"/>
	<path d="M441,43.2c0.4,0.2,1,0.5,1.6,0.5c0.9,0,1.3-0.4,1.3-1s-0.3-0.9-1.2-1.2c-1.2-0.4-1.8-1.1-1.8-1.9c0-1.1,0.9-1.9,2.3-1.9
		c0.7,0,1.3,0.2,1.6,0.4l-0.3,0.9c-0.3-0.2-0.7-0.4-1.4-0.4c-0.7,0-1.1,0.4-1.1,0.9s0.4,0.8,1.3,1.1c1.2,0.4,1.7,1,1.7,2
		c0,1.2-0.9,2-2.5,2c-0.7,0-1.4-0.2-1.9-0.5L441,43.2z"/>
	<path d="M448,35.9v1.9h1.7v0.9H448v3.6c0,0.8,0.2,1.3,0.9,1.3c0.3,0,0.5,0,0.7-0.1l0.1,0.9c-0.2,0.1-0.6,0.2-1.1,0.2
		c-0.6,0-1-0.2-1.3-0.5c-0.3-0.4-0.5-0.9-0.5-1.7v-3.6h-1v-0.9h1v-1.7L448,35.9z"/>
	<path d="M454.8,44.4l-0.1-0.8l0,0c-0.4,0.5-1.1,1-2,1c-1.3,0-2-0.9-2-1.9c0-1.6,1.4-2.5,4-2.5v-0.1c0-0.5-0.2-1.5-1.5-1.5
		c-0.6,0-1.3,0.2-1.7,0.5l-0.3-0.8c0.5-0.4,1.3-0.6,2.2-0.6c2,0,2.5,1.4,2.5,2.7v2.5c0,0.6,0,1.1,0.1,1.6h-1.2V44.4z M454.6,41
		c-1.3,0-2.8,0.2-2.8,1.5c0,0.8,0.5,1.2,1.1,1.2c0.9,0,1.4-0.5,1.6-1.1c0-0.1,0.1-0.3,0.1-0.4L454.6,41L454.6,41z"/>
	<path d="M457.7,39.6c0-0.7,0-1.2-0.1-1.8h1.1l0.1,1.1l0,0c0.3-0.6,1.1-1.2,2.2-1.2c0.9,0,2.3,0.5,2.3,2.8v4h-1.2v-3.8
		c0-1.1-0.4-2-1.5-2c-0.8,0-1.4,0.6-1.6,1.2c-0.1,0.2-0.1,0.4-0.1,0.6v4h-1.2L457.7,39.6L457.7,39.6z"/>
	<path d="M470.1,44.2c-0.3,0.2-1,0.4-1.9,0.4c-2,0-3.3-1.4-3.3-3.4s1.4-3.5,3.6-3.5c0.7,0,1.3,0.2,1.7,0.3l-0.3,0.9
		c-0.3-0.2-0.7-0.3-1.4-0.3c-1.5,0-2.3,1.1-2.3,2.5c0,1.5,1,2.5,2.3,2.5c0.7,0,1.1-0.2,1.5-0.3L470.1,44.2z"/>
	<path d="M472.1,41.3c0,1.6,1.1,2.3,2.3,2.3c0.9,0,1.4-0.2,1.8-0.3l0.2,0.9c-0.4,0.2-1.2,0.4-2.2,0.4c-2,0-3.3-1.3-3.3-3.3
		s1.2-3.6,3.1-3.6c2.2,0,2.7,1.9,2.7,3.1c0,0.2,0,0.4,0,0.6h-4.6V41.3z M475.6,40.4c0-0.8-0.3-2-1.7-2c-1.2,0-1.8,1.1-1.9,2H475.6z"
		/>
</g>
<g>
	<path d="M581.6,44.4l-3-9.2h1.3l1.4,4.6c0.4,1.2,0.7,2.4,1,3.5l0,0c0.3-1.1,0.6-2.2,1.1-3.4l1.6-4.6h1.3l-3.3,9.2L581.6,44.4
		L581.6,44.4z"/>
	<path d="M595,40.3c-0.1-1.3-0.2-2.8-0.1-4l0,0c-0.3,1.1-0.7,2.2-1.2,3.5l-1.6,4.5h-0.9l-1.5-4.4c-0.4-1.3-0.8-2.5-1.1-3.6l0,0
		c0,1.2-0.1,2.7-0.2,4.1l-0.2,4h-1.1l0.6-9.2h1.5l1.6,4.5c0.4,1.1,0.7,2.2,0.9,3.1l0,0c0.2-0.9,0.6-1.9,1-3.1l1.6-4.5h1.5l0.6,9.2
		h-1.2L595,40.3z"/>
	<path d="M602.4,35.2v9.2h-1.2v-9.2H602.4z"/>
	<path d="M604.6,39.6c0-0.7,0-1.2-0.1-1.8h1.1l0.1,1.1l0,0c0.3-0.6,1.1-1.2,2.2-1.2c0.9,0,2.3,0.5,2.3,2.8v4H609v-3.8
		c0-1.1-0.4-2-1.5-2c-0.8,0-1.4,0.6-1.6,1.2c-0.1,0.2-0.1,0.4-0.1,0.6v4h-1.2L604.6,39.6L604.6,39.6z"/>
	<path d="M612,43.2c0.4,0.2,1,0.5,1.6,0.5c0.9,0,1.3-0.4,1.3-1s-0.3-0.9-1.2-1.2c-1.2-0.4-1.8-1.1-1.8-1.9c0-1.1,0.9-1.9,2.3-1.9
		c0.7,0,1.3,0.2,1.6,0.4l-0.3,0.9c-0.3-0.2-0.7-0.4-1.4-0.4S613,39,613,39.5s0.4,0.8,1.3,1.1c1.2,0.4,1.7,1,1.7,2c0,1.2-0.9,2-2.5,2
		c-0.7,0-1.4-0.2-1.9-0.5L612,43.2z"/>
	<path d="M619.1,35.9v1.9h1.7v0.9h-1.7v3.6c0,0.8,0.2,1.3,0.9,1.3c0.3,0,0.5,0,0.7-0.1l0.1,0.9c-0.2,0.1-0.6,0.2-1.1,0.2
		c-0.6,0-1-0.2-1.3-0.5c-0.3-0.4-0.5-0.9-0.5-1.7v-3.6h-1v-0.9h1v-1.7L619.1,35.9z"/>
	<path d="M625.8,44.4l-0.1-0.8l0,0c-0.4,0.5-1.1,1-2,1c-1.3,0-2-0.9-2-1.9c0-1.6,1.4-2.5,4-2.5v-0.1c0-0.5-0.2-1.5-1.5-1.5
		c-0.6,0-1.3,0.2-1.7,0.5l-0.3-0.8c0.5-0.4,1.3-0.6,2.2-0.6c2,0,2.5,1.4,2.5,2.7v2.5c0,0.6,0,1.1,0.1,1.6h-1.2V44.4z M625.6,41
		c-1.3,0-2.8,0.2-2.8,1.5c0,0.8,0.5,1.2,1.1,1.2c0.9,0,1.4-0.5,1.6-1.1c0-0.1,0.1-0.3,0.1-0.4L625.6,41L625.6,41z"/>
	<path d="M628.8,39.6c0-0.7,0-1.2-0.1-1.8h1.1l0.1,1.1l0,0c0.3-0.6,1.1-1.2,2.2-1.2c0.9,0,2.3,0.5,2.3,2.8v4h-1.2v-3.8
		c0-1.1-0.4-2-1.5-2c-0.8,0-1.4,0.6-1.6,1.2c-0.1,0.2-0.1,0.4-0.1,0.6v4h-1.2V39.6z"/>
	<path d="M641.1,44.2c-0.3,0.2-1,0.4-1.9,0.4c-2,0-3.3-1.4-3.3-3.4s1.4-3.5,3.6-3.5c0.7,0,1.3,0.2,1.7,0.3l-0.3,0.9
		c-0.3-0.2-0.7-0.3-1.4-0.3c-1.5,0-2.3,1.1-2.3,2.5c0,1.5,1,2.5,2.3,2.5c0.7,0,1.1-0.2,1.5-0.3L641.1,44.2z"/>
	<path d="M643.1,41.3c0,1.6,1.1,2.3,2.3,2.3c0.9,0,1.4-0.2,1.8-0.3l0.2,0.9c-0.4,0.2-1.2,0.4-2.2,0.4c-2,0-3.3-1.3-3.3-3.3
		s1.2-3.6,3.1-3.6c2.2,0,2.7,1.9,2.7,3.1c0,0.2,0,0.4,0,0.6h-4.6V41.3z M646.6,40.4c0-0.8-0.3-2-1.7-2c-1.2,0-1.8,1.1-1.9,2H646.6z"
		/>
</g>
<g class="st0">
	<path class="st3" d="M127.8,142v4.7h5.5V142h1.5v11.2h-1.5V148h-5.5v5.2h-1.5V142H127.8z"/>
	<path class="st3" d="M139,142.9c0,0.5-0.4,0.9-1,0.9c-0.5,0-0.9-0.4-0.9-0.9s0.4-1,1-1S139,142.4,139,142.9z M137.4,153.2v-8h1.5v8
		H137.4z"/>
	<path class="st3" d="M148.2,145.2c0,0.6-0.1,1.2-0.1,2.2v4.7c0,1.8-0.4,3-1.1,3.6c-0.7,0.7-1.9,1-2.9,1s-2.1-0.2-2.7-0.6l0.4-1.1
		c0.5,0.4,1.3,0.6,2.3,0.6c1.5,0,2.6-0.7,2.6-2.8v-0.9l0,0c-0.5,0.7-1.3,1.3-2.6,1.3c-1.9,0-3.4-1.7-3.4-3.9c0-2.7,1.8-4.3,3.6-4.3
		c1.5,0,2.2,0.7,2.6,1.5l0,0l0.1-1.2h1.2L148.2,145.2L148.2,145.2z M146.7,148.4c0-0.2,0-0.5-0.1-0.6c-0.2-0.9-1-1.6-2.1-1.6
		c-1.5,0-2.4,1.2-2.4,3c0,1.6,0.9,2.9,2.4,2.9c0.9,0,1.7-0.6,2.1-1.5c0.1-0.2,0.1-0.5,0.1-0.7V148.4z"/>
	<path class="st3" d="M150.6,141.4h1.5v5l0,0c0.2-0.4,0.6-0.7,1.1-1s1-0.4,1.5-0.4c1.1,0,2.8,0.6,2.8,3.4v4.9H156v-4.6
		c0-1.3-0.5-2.4-1.8-2.4c-1,0-1.7,0.6-1.9,1.5c-0.1,0.2-0.1,0.4-0.1,0.7v4.9h-1.5L150.6,141.4L150.6,141.4z"/>
	<path class="st3" d="M159.9,141.4h1.5v11.8h-1.5V141.4z"/>
	<path class="st3" d="M164.4,145.2l1.8,4.7c0.2,0.5,0.4,1.2,0.5,1.7l0,0c0.1-0.5,0.4-1.1,0.5-1.7l1.6-4.7h1.6l-2.2,5.7
		c-1.1,2.8-1.8,4.1-2.8,5.1c-0.7,0.6-1.5,0.9-1.8,1l-0.4-1.2c0.4-0.1,0.9-0.4,1.3-0.7c0.4-0.4,0.9-0.9,1.2-1.6
		c0.1-0.1,0.1-0.2,0.1-0.4c0-0.1,0-0.2-0.1-0.4l-3-7.4h1.7L164.4,145.2L164.4,145.2z"/>
	<path class="st3" d="M177,149.7l-1.2,3.5h-1.5l3.8-11.2h1.7l3.9,11.2h-1.6l-1.2-3.5H177z M180.8,148.6l-1.1-3.3
		c-0.2-0.7-0.4-1.5-0.6-2.1l0,0c-0.1,0.6-0.4,1.3-0.6,2.1l-1.1,3.3H180.8z"/>
	<path class="st3" d="M185.6,145.2l1.6,4.5c0.2,0.7,0.5,1.5,0.6,2.1l0,0c0.2-0.6,0.4-1.3,0.7-2.1l1.6-4.5h1.6l-3.2,8H187l-3-8H185.6
		z"/>
	<path class="st3" d="M197.4,153.2l-0.1-1l0,0c-0.5,0.6-1.3,1.2-2.4,1.2c-1.6,0-2.4-1.1-2.4-2.3c0-1.9,1.7-3,4.9-3V148
		c0-0.6-0.2-1.8-1.8-1.8c-0.7,0-1.6,0.2-2.1,0.6l-0.4-1c0.6-0.5,1.6-0.7,2.7-0.7c2.4,0,3,1.7,3,3.3v3c0,0.7,0,1.3,0.1,1.9
		L197.4,153.2L197.4,153.2z M197.2,149.1c-1.6,0-3.4,0.2-3.4,1.8c0,1,0.6,1.5,1.3,1.5c1.1,0,1.7-0.6,1.9-1.3c0-0.1,0.1-0.4,0.1-0.5
		L197.2,149.1L197.2,149.1z"/>
	<path class="st3" d="M204.9,141.4h1.5v11.8h-1.5V141.4z"/>
	<path class="st3" d="M202.6,142.9c0,0.5-0.4,0.9-1,0.9c-0.5,0-0.9-0.4-0.9-0.9s0.4-1,1-1C202.4,141.9,202.6,142.4,202.6,142.9z
		 M201,153.2v-8h1.5v8H201z"/>
	<path class="st3" d="M213.3,153.2l-0.1-1l0,0c-0.5,0.6-1.3,1.2-2.4,1.2c-1.6,0-2.4-1.1-2.4-2.3c0-1.9,1.7-3,4.9-3V148
		c0-0.6-0.2-1.8-1.8-1.8c-0.7,0-1.6,0.2-2.1,0.6l-0.4-1c0.6-0.5,1.6-0.7,2.7-0.7c2.4,0,3,1.7,3,3.3v3c0,0.7,0,1.3,0.1,1.9
		L213.3,153.2L213.3,153.2z M213.1,149.1c-1.6,0-3.4,0.2-3.4,1.8c0,1,0.6,1.5,1.3,1.5c1.1,0,1.7-0.6,1.9-1.3c0-0.1,0.1-0.4,0.1-0.5
		L213.1,149.1L213.1,149.1z"/>
	<path class="st3" d="M216.8,153.2c0-0.6,0.1-1.3,0.1-2.1v-9.7h1.5v5.1l0,0c0.5-0.9,1.5-1.5,2.8-1.5c1.9,0,3.4,1.7,3.4,4.1
		c0,2.9-1.8,4.4-3.6,4.4c-1.2,0-2.1-0.5-2.7-1.5l0,0l-0.1,1.3h-1.4V153.2z M218.3,149.9c0,0.2,0,0.4,0.1,0.5c0.2,1,1.1,1.7,2.2,1.7
		c1.6,0,2.4-1.2,2.4-3.2c0-1.6-0.9-3-2.4-3c-1,0-1.9,0.7-2.2,1.8c0,0.1-0.1,0.4-0.1,0.6V149.9z"/>
	<path class="st3" d="M226.3,141.4h1.5v11.8h-1.5V141.4z"/>
	<path class="st3" d="M231.1,149.4c0,1.9,1.3,2.8,2.8,2.8c1.1,0,1.7-0.2,2.2-0.4l0.2,1.1c-0.5,0.2-1.5,0.5-2.7,0.5c-2.4,0-4-1.6-4-4
		s1.5-4.4,3.8-4.4c2.7,0,3.3,2.3,3.3,3.8c0,0.2,0,0.5,0,0.7h-5.6V149.4z M235.4,148.4c0-1-0.4-2.4-2.1-2.4c-1.5,0-2.2,1.3-2.3,2.4
		H235.4z"/>
	<path class="st3" d="M242.2,142.2c0.7-0.1,1.6-0.2,2.8-0.2c1.5,0,2.4,0.4,3.2,1c0.6,0.5,1,1.3,1,2.3s-0.2,1.8-0.9,2.4
		c-0.7,0.9-2.1,1.2-3.4,1.2c-0.5,0-0.9,0-1.2-0.1v4.5h-1.5L242.2,142.2L242.2,142.2z M243.7,147.5c0.4,0.1,0.7,0.1,1.2,0.1
		c1.7,0,2.8-0.9,2.8-2.4s-1.1-2.2-2.7-2.2c-0.6,0-1.1,0-1.3,0.1V147.5L243.7,147.5z"/>
	<path class="st3" d="M251.5,149.4c0,1.9,1.3,2.8,2.8,2.8c1.1,0,1.7-0.2,2.2-0.4l0.2,1.1c-0.5,0.2-1.5,0.5-2.7,0.5c-2.4,0-4-1.6-4-4
		s1.5-4.4,3.8-4.4c2.7,0,3.3,2.3,3.3,3.8c0,0.2,0,0.5,0,0.7h-5.6V149.4z M255.7,148.4c0-1-0.4-2.4-2.1-2.4c-1.5,0-2.2,1.3-2.3,2.4
		H255.7z"/>
	<path class="st3" d="M259,147.6c0-1,0-1.8-0.1-2.6h1.3v1.6h0.1c0.4-1.1,1.2-1.8,2.2-1.8c0.1,0,0.2,0,0.4,0v1.3c-0.1,0-0.2,0-0.5,0
		c-1.1,0-1.8,0.7-1.9,1.9c0,0.2-0.1,0.5-0.1,0.7v4.3h-1.3L259,147.6L259,147.6z"/>
	<path class="st3" d="M264.2,151.8c0.5,0.2,1.2,0.6,1.9,0.6c1.1,0,1.6-0.5,1.6-1.2s-0.4-1.1-1.5-1.5c-1.5-0.5-2.2-1.3-2.2-2.3
		c0-1.3,1.1-2.3,2.8-2.3c0.9,0,1.6,0.2,1.9,0.5l-0.4,1.1c-0.4-0.2-0.9-0.5-1.7-0.5c-0.9,0-1.3,0.5-1.3,1.1s0.5,1,1.6,1.3
		c1.5,0.5,2.1,1.2,2.1,2.4c0,1.5-1.1,2.4-3,2.4c-0.9,0-1.7-0.2-2.3-0.6L264.2,151.8z"/>
	<path class="st3" d="M272.6,142.9c0,0.5-0.4,0.9-1,0.9c-0.5,0-0.9-0.4-0.9-0.9s0.4-1,1-1S272.6,142.4,272.6,142.9z M271,153.2v-8
		h1.5v8H271z"/>
	<path class="st3" d="M274.7,151.8c0.5,0.2,1.2,0.6,1.9,0.6c1.1,0,1.6-0.5,1.6-1.2s-0.4-1.1-1.5-1.5c-1.5-0.5-2.2-1.3-2.2-2.3
		c0-1.3,1.1-2.3,2.8-2.3c0.9,0,1.6,0.2,1.9,0.5l-0.4,1.1c-0.4-0.2-0.9-0.5-1.7-0.5c-0.9,0-1.3,0.5-1.3,1.1s0.5,1,1.6,1.3
		c1.5,0.5,2.1,1.2,2.1,2.4c0,1.5-1.1,2.4-3,2.4c-0.9,0-1.7-0.2-2.3-0.6L274.7,151.8z"/>
	<path class="st3" d="M283.3,142.9v2.3h2.1v1.1h-2.1v4.4c0,1,0.2,1.6,1.1,1.6c0.4,0,0.6,0,0.9-0.1l0.1,1.1c-0.2,0.1-0.7,0.2-1.3,0.2
		c-0.7,0-1.2-0.2-1.6-0.6c-0.4-0.5-0.6-1.1-0.6-2.1v-4.4h-1.2v-1.1h1.2v-1.9L283.3,142.9z"/>
	<path class="st3" d="M287.8,149.4c0,1.9,1.3,2.8,2.8,2.8c1.1,0,1.7-0.2,2.2-0.4l0.2,1.1c-0.5,0.2-1.5,0.5-2.7,0.5c-2.4,0-4-1.6-4-4
		s1.5-4.4,3.8-4.4c2.7,0,3.3,2.3,3.3,3.8c0,0.2,0,0.5,0,0.7h-5.6L287.8,149.4L287.8,149.4z M292.1,148.4c0-1-0.4-2.4-2.1-2.4
		c-1.5,0-2.2,1.3-2.3,2.4H292.1z"/>
	<path class="st3" d="M295.3,147.4c0-0.9,0-1.5-0.1-2.2h1.3l0.1,1.3l0,0c0.4-0.7,1.3-1.5,2.7-1.5c1.1,0,2.8,0.6,2.8,3.4v4.9h-1.5
		v-4.6c0-1.3-0.5-2.4-1.8-2.4c-1,0-1.7,0.7-1.9,1.5c-0.1,0.2-0.1,0.5-0.1,0.7v4.9h-1.5V147.4L295.3,147.4z"/>
	<path class="st3" d="M306.3,142.9v2.3h2.1v1.1h-2.1v4.4c0,1,0.2,1.6,1.1,1.6c0.4,0,0.6,0,0.9-0.1l0.1,1.1c-0.2,0.1-0.7,0.2-1.3,0.2
		c-0.7,0-1.2-0.2-1.6-0.6c-0.4-0.5-0.6-1.1-0.6-2.1v-4.4h-1.2v-1.1h1.2v-1.9L306.3,142.9z"/>
	<path class="st3" d="M313.4,151.4c0.6,0.4,1.6,0.7,2.6,0.7c1.5,0,2.3-0.7,2.3-1.9c0-1.1-0.6-1.7-2.1-2.2c-1.8-0.6-2.9-1.6-2.9-3.2
		c0-1.7,1.5-3,3.6-3c1.1,0,1.9,0.2,2.4,0.6l-0.4,1.2c-0.4-0.2-1.1-0.5-2.2-0.5c-1.6,0-2.1,1-2.1,1.7c0,1.1,0.7,1.6,2.2,2.2
		c1.9,0.7,2.9,1.7,2.9,3.3c0,1.7-1.3,3.3-3.9,3.3c-1.1,0-2.3-0.4-2.9-0.7L313.4,151.4z"/>
	<path class="st3" d="M323.5,142.9v2.3h2.1v1.1h-2.1v4.4c0,1,0.2,1.6,1.1,1.6c0.4,0,0.6,0,0.9-0.1l0.1,1.1c-0.2,0.1-0.7,0.2-1.3,0.2
		c-0.7,0-1.2-0.2-1.6-0.6c-0.4-0.5-0.6-1.1-0.6-2.1v-4.4h-1.2v-1.1h1.2v-1.9L323.5,142.9z"/>
	<path class="st3" d="M334.5,149.1c0,3-2.1,4.3-4,4.3c-2.2,0-3.9-1.6-3.9-4.1c0-2.7,1.8-4.3,4-4.3
		C332.9,145,334.5,146.7,334.5,149.1z M328,149.2c0,1.8,1,3.2,2.4,3.2s2.4-1.3,2.4-3.2c0-1.3-0.7-3.2-2.4-3.2S328,147.6,328,149.2z"
		/>
	<path class="st3" d="M336.3,147.6c0-1,0-1.8-0.1-2.6h1.3v1.6h0.1c0.4-1.1,1.2-1.8,2.2-1.8c0.1,0,0.2,0,0.4,0v1.3
		c-0.1,0-0.2,0-0.5,0c-1.1,0-1.8,0.7-1.9,1.9c0,0.2-0.1,0.5-0.1,0.7v4.3h-1.5v-5.4H336.3z"/>
	<path class="st3" d="M346.1,153.2l-0.1-1l0,0c-0.5,0.6-1.3,1.2-2.4,1.2c-1.6,0-2.4-1.1-2.4-2.3c0-1.9,1.7-3,4.9-3V148
		c0-0.6-0.2-1.8-1.8-1.8c-0.7,0-1.6,0.2-2.1,0.6l-0.4-1c0.6-0.5,1.6-0.7,2.7-0.7c2.4,0,3,1.7,3,3.3v3c0,0.7,0,1.3,0.1,1.9
		L346.1,153.2L346.1,153.2L346.1,153.2z M345.9,149.1c-1.6,0-3.4,0.2-3.4,1.8c0,1,0.6,1.5,1.3,1.5c1.1,0,1.7-0.6,1.9-1.3
		c0-0.1,0.1-0.4,0.1-0.5L345.9,149.1L345.9,149.1z"/>
	<path class="st3" d="M356.6,145.2c0,0.6-0.1,1.2-0.1,2.2v4.7c0,1.8-0.4,3-1.1,3.6c-0.7,0.7-1.9,1-2.9,1s-2.1-0.2-2.7-0.6l0.4-1.1
		c0.5,0.4,1.3,0.6,2.3,0.6c1.5,0,2.6-0.7,2.6-2.8v-0.9l0,0c-0.5,0.7-1.3,1.3-2.6,1.3c-1.9,0-3.4-1.7-3.4-3.9c0-2.7,1.8-4.3,3.6-4.3
		c1.5,0,2.2,0.7,2.6,1.5l0,0l0.1-1.2h1.2V145.2z M355.1,148.4c0-0.2,0-0.5-0.1-0.6c-0.2-0.9-1-1.6-2.1-1.6c-1.5,0-2.4,1.2-2.4,3
		c0,1.6,0.9,2.9,2.4,2.9c0.9,0,1.7-0.6,2.1-1.5c0.1-0.2,0.1-0.5,0.1-0.7V148.4z"/>
	<path class="st3" d="M359.9,149.4c0,1.9,1.3,2.8,2.8,2.8c1.1,0,1.7-0.2,2.2-0.4l0.2,1.1c-0.5,0.2-1.5,0.5-2.7,0.5c-2.4,0-4-1.6-4-4
		s1.5-4.4,3.8-4.4c2.7,0,3.3,2.3,3.3,3.8c0,0.2,0,0.5,0,0.7h-5.6L359.9,149.4L359.9,149.4z M364.1,148.4c0-1-0.4-2.4-2.1-2.4
		c-1.5,0-2.2,1.3-2.3,2.4H364.1z"/>
</g>
<g class="st0">
	<g class="st3">
		<path d="M419.5,199.9h-4.2v1.7h3.9v1.4h-3.9v2.1h4.4v1.4h-6.1v-8h5.9L419.5,199.9L419.5,199.9z"/>
		<path d="M426.9,199.3c0.2,0.3,0.4,0.7,0.4,1.2s-0.1,0.9-0.4,1.2c-0.1,0.2-0.3,0.3-0.6,0.5c0.4,0.1,0.7,0.4,0.9,0.7
			s0.3,0.7,0.3,1.2s-0.1,0.9-0.4,1.3c-0.2,0.2-0.3,0.5-0.6,0.6c-0.3,0.2-0.6,0.3-0.9,0.4s-0.7,0.1-1.1,0.1h-3.6v-8h3.9
			C425.9,198.5,426.5,198.8,426.9,199.3z M422.6,199.9v1.8h1.9c0.3,0,0.6-0.1,0.8-0.2c0.2-0.1,0.3-0.4,0.3-0.7
			c0-0.4-0.1-0.6-0.4-0.7c-0.2-0.1-0.6-0.1-0.9-0.1L422.6,199.9L422.6,199.9z M422.6,203v2.1h1.9c0.3,0,0.6,0,0.8-0.1
			c0.4-0.2,0.5-0.5,0.5-1c0-0.4-0.2-0.7-0.5-0.9c-0.2-0.1-0.5-0.1-0.8-0.1H422.6z"/>
		<path d="M430.2,204c0.1,0.4,0.2,0.6,0.3,0.8c0.3,0.3,0.8,0.5,1.4,0.5c0.4,0,0.7,0,1-0.1c0.5-0.2,0.7-0.5,0.7-0.9
			c0-0.3-0.1-0.5-0.3-0.6s-0.6-0.3-1.1-0.4l-0.9-0.2c-0.8-0.2-1.4-0.4-1.8-0.6c-0.5-0.4-0.8-0.9-0.8-1.7c0-0.7,0.3-1.3,0.8-1.8
			s1.3-0.7,2.3-0.7c0.9,0,1.6,0.2,2.2,0.7c0.6,0.4,0.9,1.1,0.9,1.9h-1.6c0-0.5-0.2-0.8-0.6-1c-0.3-0.1-0.6-0.2-1-0.2
			s-0.8,0.1-1.1,0.3s-0.4,0.4-0.4,0.7s0.1,0.5,0.4,0.6c0.2,0.1,0.5,0.2,1.1,0.3l1.4,0.3c0.6,0.1,1.1,0.3,1.4,0.6
			c0.5,0.4,0.7,0.9,0.7,1.6s-0.3,1.3-0.8,1.8s-1.4,0.7-2.4,0.7c-1.1,0-1.9-0.2-2.5-0.7s-0.9-1.1-0.9-2L430.2,204L430.2,204
			L430.2,204z"/>
	</g>
	<g class="st3">
		<path d="M389.3,216h3.5c1,0,1.7,0.3,2.1,0.9c0.2,0.3,0.4,0.7,0.4,1.2s-0.1,0.9-0.4,1.3c-0.2,0.2-0.4,0.3-0.7,0.5
			c0.4,0.2,0.7,0.3,0.9,0.5c0.4,0.4,0.6,0.9,0.6,1.5c0,0.5-0.2,1-0.5,1.4c-0.5,0.6-1.3,1-2.4,1h-3.5V216L389.3,216z M392.5,219.4
			c0.5,0,0.8-0.1,1.1-0.2c0.4-0.2,0.6-0.6,0.6-1.1s-0.2-0.9-0.7-1.1c-0.2-0.1-0.6-0.2-1.1-0.2h-2v2.5h2.1V219.4L392.5,219.4z
			 M392.9,223.2c0.7,0,1.2-0.2,1.5-0.6c0.2-0.2,0.3-0.6,0.3-0.9c0-0.6-0.3-1-0.8-1.2c-0.3-0.1-0.7-0.2-1.1-0.2h-2.2v2.9H392.9
			L392.9,223.2z"/>
		<path d="M396.9,216h1v8.2h-1V216z"/>
		<path d="M403.8,218.8c0.5,0.5,0.8,1.3,0.8,2.3s-0.2,1.8-0.7,2.4s-1.2,0.9-2.2,0.9c-0.8,0-1.5-0.3-1.9-0.8
			c-0.5-0.6-0.7-1.3-0.7-2.2c0-1,0.3-1.8,0.8-2.4s1.2-0.9,2-0.9C402.6,218,403.2,218.3,403.8,218.8z M403.1,222.8
			c0.2-0.5,0.4-1.1,0.4-1.7s-0.1-1-0.3-1.4c-0.3-0.6-0.8-0.8-1.4-0.8s-1,0.2-1.3,0.7s-0.4,1-0.4,1.7c0,0.6,0.1,1.2,0.4,1.6
			s0.7,0.6,1.3,0.6C402.4,223.5,402.9,223.3,403.1,222.8z"/>
		<path d="M409.7,218.5c0.4,0.3,0.7,0.9,0.8,1.7h-1c-0.1-0.4-0.2-0.7-0.4-0.9s-0.6-0.4-1-0.4c-0.6,0-1.1,0.3-1.4,0.9
			c-0.2,0.4-0.3,0.9-0.3,1.5s0.1,1.1,0.4,1.5s0.7,0.6,1.2,0.6c0.4,0,0.7-0.1,1-0.4s0.4-0.6,0.5-1h1c-0.1,0.8-0.4,1.4-0.8,1.7
			c-0.4,0.4-1,0.6-1.7,0.6c-0.8,0-1.4-0.3-1.9-0.9s-0.7-1.3-0.7-2.1c0-1.1,0.3-1.9,0.8-2.5s1.2-0.9,2-0.9
			C408.8,218,409.3,218.2,409.7,218.5z"/>
		<path d="M411.5,216h1v4.8l2.6-2.5h1.3l-2.3,2.2l2.4,3.8h-1.3l-1.9-3l-0.8,0.8v2.2h-1L411.5,216L411.5,216z"/>
		<path d="M421.3,221.5c0,0.5,0.1,0.8,0.3,1.1c0.4,0.5,1,0.8,1.9,0.8c0.4,0,0.8-0.1,1.1-0.2c0.6-0.2,1-0.6,1-1.2
			c0-0.4-0.1-0.8-0.4-1s-0.7-0.3-1.3-0.5l-1.1-0.3c-0.7-0.2-1.2-0.3-1.5-0.5c-0.5-0.3-0.8-0.9-0.8-1.5c0-0.7,0.2-1.3,0.7-1.8
			s1.2-0.7,2.1-0.7c0.8,0,1.5,0.2,2.1,0.6c0.6,0.4,0.9,1.1,0.9,2h-1c-0.1-0.4-0.2-0.8-0.3-1c-0.3-0.4-0.9-0.6-1.7-0.6
			c-0.6,0-1.1,0.1-1.4,0.4s-0.4,0.6-0.4,1s0.2,0.7,0.5,0.9c0.2,0.1,0.7,0.3,1.4,0.4l1.1,0.3c0.5,0.1,1,0.3,1.2,0.5
			c0.5,0.4,0.8,0.9,0.8,1.7c0,0.9-0.3,1.6-1,2c-0.6,0.4-1.4,0.6-2.2,0.6c-1,0-1.8-0.3-2.3-0.8c-0.6-0.5-0.8-1.2-0.8-2.1L421.3,221.5
			L421.3,221.5z"/>
		<path d="M428.2,216.5h1v1.7h1v0.8h-1v3.9c0,0.2,0.1,0.3,0.2,0.4c0.1,0,0.2,0.1,0.4,0.1c0,0,0.1,0,0.2,0s0.1,0,0.2,0v0.8
			c-0.1,0-0.2,0.1-0.4,0.1c-0.1,0-0.3,0-0.4,0c-0.5,0-0.8-0.1-1-0.4s-0.3-0.6-0.3-0.9v-4h-0.8v-0.8h0.8L428.2,216.5L428.2,216.5z"/>
		<path d="M435.6,218.8c0.5,0.5,0.8,1.3,0.8,2.3s-0.2,1.8-0.7,2.4s-1.2,0.9-2.2,0.9c-0.8,0-1.5-0.3-1.9-0.8
			c-0.5-0.6-0.7-1.3-0.7-2.2c0-1,0.3-1.8,0.8-2.4s1.2-0.9,2-0.9C434.4,218,435,218.3,435.6,218.8z M434.9,222.8
			c0.2-0.5,0.4-1.1,0.4-1.7s-0.1-1-0.3-1.4c-0.3-0.6-0.8-0.8-1.4-0.8s-1,0.2-1.3,0.7s-0.4,1-0.4,1.7c0,0.6,0.1,1.2,0.4,1.6
			s0.7,0.6,1.3,0.6C434.2,223.5,434.7,223.3,434.9,222.8z"/>
		<path d="M437.6,218.2h1v1c0.1-0.2,0.3-0.4,0.6-0.7s0.7-0.4,1.1-0.4c0,0,0,0,0.1,0s0.1,0,0.2,0v1.1c-0.1,0-0.1,0-0.2,0
			s-0.1,0-0.2,0c-0.5,0-0.9,0.2-1.2,0.5s-0.4,0.7-0.4,1.1v3.4h-1V218.2L437.6,218.2z"/>
		<path d="M444.6,220.5c0.2,0,0.4-0.1,0.5-0.3c0-0.1,0.1-0.2,0.1-0.4c0-0.3-0.1-0.6-0.4-0.7c-0.2-0.2-0.6-0.2-1-0.2
			c-0.5,0-0.9,0.1-1.1,0.4c-0.1,0.2-0.2,0.4-0.2,0.7h-0.9c0-0.7,0.3-1.3,0.7-1.5c0.5-0.3,1-0.4,1.6-0.4c0.7,0,1.3,0.1,1.7,0.4
			s0.7,0.7,0.7,1.3v3.4c0,0.1,0,0.2,0.1,0.3c0,0.1,0.1,0.1,0.3,0.1c0,0,0.1,0,0.2,0s0.1,0,0.2,0v0.7c-0.2,0-0.3,0.1-0.4,0.1
			s-0.2,0-0.3,0c-0.3,0-0.6-0.1-0.8-0.4c-0.1-0.1-0.1-0.3-0.2-0.6c-0.2,0.3-0.5,0.5-0.9,0.7s-0.8,0.3-1.3,0.3c-0.6,0-1-0.2-1.4-0.5
			s-0.5-0.8-0.5-1.3c0-0.6,0.2-1,0.5-1.3s0.8-0.5,1.4-0.6L444.6,220.5z M442.5,223.3c0.2,0.2,0.5,0.3,0.8,0.3c0.4,0,0.7-0.1,1-0.2
			c0.6-0.3,0.8-0.7,0.8-1.3v-0.8c-0.1,0.1-0.3,0.1-0.5,0.2s-0.4,0.1-0.6,0.1l-0.6,0.1c-0.4,0-0.6,0.1-0.8,0.2
			c-0.3,0.2-0.5,0.5-0.5,0.8C442.2,222.9,442.3,223.1,442.5,223.3z"/>
		<path d="M451.1,218.4c0.2,0.1,0.4,0.3,0.6,0.6v-0.8h0.9v5.4c0,0.8-0.1,1.4-0.3,1.8c-0.4,0.8-1.2,1.2-2.4,1.2
			c-0.6,0-1.2-0.1-1.6-0.4c-0.4-0.3-0.7-0.7-0.7-1.4h1c0,0.3,0.1,0.5,0.3,0.6c0.2,0.2,0.6,0.3,1.1,0.3c0.8,0,1.3-0.3,1.5-0.8
			c0.1-0.3,0.2-0.9,0.2-1.7c-0.2,0.3-0.4,0.5-0.7,0.7c-0.3,0.1-0.7,0.2-1.1,0.2c-0.6,0-1.2-0.2-1.7-0.7s-0.7-1.2-0.7-2.3
			c0-1,0.2-1.8,0.7-2.3c0.5-0.6,1.1-0.8,1.8-0.8C450.3,218.1,450.7,218.2,451.1,218.4z M451.2,219.5c-0.3-0.4-0.7-0.5-1.2-0.5
			c-0.7,0-1.2,0.3-1.4,1c-0.1,0.4-0.2,0.8-0.2,1.4c0,0.7,0.1,1.2,0.4,1.5c0.3,0.4,0.6,0.5,1.1,0.5c0.7,0,1.2-0.3,1.5-1
			c0.2-0.4,0.2-0.8,0.2-1.3C451.7,220.4,451.5,219.9,451.2,219.5z"/>
		<path d="M457.8,218.3c0.4,0.2,0.7,0.5,0.9,0.8s0.3,0.7,0.4,1.1c0.1,0.3,0.1,0.7,0.1,1.3h-4.4c0,0.6,0.2,1.1,0.4,1.5
			c0.3,0.4,0.7,0.6,1.2,0.6s0.9-0.2,1.2-0.5c0.2-0.2,0.3-0.4,0.4-0.7h1c0,0.2-0.1,0.5-0.3,0.7c-0.1,0.3-0.3,0.5-0.5,0.7
			c-0.3,0.3-0.7,0.5-1.1,0.6c-0.2,0.1-0.5,0.1-0.8,0.1c-0.7,0-1.4-0.3-1.9-0.8s-0.8-1.3-0.8-2.3s0.3-1.7,0.8-2.3s1.2-0.9,2-0.9
			C457,218,457.4,218.1,457.8,218.3z M458.2,220.7c0-0.4-0.1-0.8-0.3-1c-0.3-0.5-0.7-0.7-1.4-0.7c-0.5,0-0.8,0.2-1.2,0.5
			c-0.3,0.3-0.5,0.8-0.5,1.3L458.2,220.7L458.2,220.7z"/>
	</g>
	
		<linearGradient id="SVGID_1_" gradientUnits="userSpaceOnUse" x1="393.6064" y1="3135.8674" x2="416.3224" y2="3135.8674" gradientTransform="matrix(1 0 0 1 0 -2993)">
		<stop  offset="0" style="stop-color:#CCE0F4"/>
		<stop  offset="0" style="stop-color:#CDD8EB"/>
		<stop  offset="0" style="stop-color:#D0C4D1"/>
		<stop  offset="0" style="stop-color:#D5A3A8"/>
		<stop  offset="0" style="stop-color:#DB756F"/>
		<stop  offset="0" style="stop-color:#E05243"/>
		<stop  offset="0.1406" style="stop-color:#E05243"/>
		<stop  offset="0.9947" style="stop-color:#E05243"/>
	</linearGradient>
	<path class="st4" d="M452.6,176.9c-19.7,0-39.4,0-59.1,0c0-0.2,0-0.4,0-0.6c0-21.3,0-42.7,0-64c0-0.9,0-1.9,0-2.8
		c0-0.4,0.1-0.6,0.5-0.6c0.1,0,0.2,0,0.4,0c19,0,38.1,0,57.1,0c0.9,0,0.9,0,0.9,0.9c0,22.1,0,44.2,0.1,66.3
		C452.6,176.4,452.6,176.6,452.6,176.9z"/>
	<g class="st3">
		
			<linearGradient id="SVGID_2_" gradientUnits="userSpaceOnUse" x1="394.6257" y1="3092.2673" x2="451.3257" y2="3092.2673" gradientTransform="matrix(1 0 0 1 0 -2993)">
			<stop  offset="0" style="stop-color:#CCE0F4"/>
			<stop  offset="0" style="stop-color:#CDD8EB"/>
			<stop  offset="0" style="stop-color:#D0C4D1"/>
			<stop  offset="0" style="stop-color:#D5A3A8"/>
			<stop  offset="0" style="stop-color:#DB756F"/>
			<stop  offset="0" style="stop-color:#E05243"/>
			<stop  offset="0.1406" style="stop-color:#E05243"/>
			<stop  offset="0.9947" style="stop-color:#E05243"/>
		</linearGradient>
		<path class="st5" d="M451.2,104.9c-0.3,0-0.5,0-0.7,0c-18.5,0-55.9,0-55.9,0v-0.7v-2.4c0,0,0,0,0-0.1c0.2-0.2,1.5-1.6,1.5-1.6
			l6.6-6.1c0,0,0.5-0.3,0.8-0.3c13.1,0,26.2,0,39.3,0c0.2,0,0.6,0.1,0.8,0.3c2.5,2.5,4.9,5,7.4,7.5c0.1,0.1,0.3,0.3,0.3,0.4
			C451.2,102.9,451.2,103.8,451.2,104.9z"/>
		<g id="darker_bars">
			<rect x="394.6" y="101.8" class="st6" width="56.6" height="3"/>
			<rect x="393.6" y="173.9" class="st6" width="59.1" height="3"/>
		</g>
	</g>
	<g class="st3">
		<path id="path12_1_" class="st7" d="M426.7,187.2v-1c0-0.2,0.1-0.3,0.3-0.3h4.5c0.1,0,0.3,0.1,0.3,0.3v0.9c0,0.1-0.1,0.3-0.3,0.6
			l-2.3,3.4c0.9,0,1.8,0.1,2.6,0.6c0.2,0.1,0.2,0.2,0.2,0.4v1.1c0,0.1-0.2,0.3-0.3,0.2c-1.4-0.7-3.2-0.8-4.8,0
			c-0.2,0.1-0.3-0.1-0.3-0.2v-1c0-0.2,0-0.4,0.2-0.7l2.7-3.9h-2.4C426.9,187.4,426.7,187.3,426.7,187.2"/>
		<path id="path14_1_" class="st7" d="M410.2,193.5h-1.4c-0.1,0-0.2-0.1-0.2-0.2v-7.1c0-0.1,0.1-0.3,0.3-0.3h1.3
			c0.1,0,0.2,0.1,0.3,0.2v0.9l0,0c0.3-0.9,1-1.3,1.8-1.3c0.9,0,1.4,0.4,1.8,1.3c0.3-0.9,1.1-1.3,1.9-1.3c0.6,0,1.2,0.2,1.6,0.8
			s0.3,1.5,0.3,2.2v4.5c0,0.1-0.1,0.3-0.3,0.3h-1.4c-0.1,0-0.2-0.1-0.2-0.3v-3.8c0-0.3,0-1,0-1.3c-0.1-0.5-0.4-0.6-0.8-0.6
			c-0.3,0-0.7,0.2-0.8,0.6s-0.1,1-0.1,1.4v3.8c0,0.1-0.1,0.3-0.3,0.3h-1.4c-0.1,0-0.2-0.1-0.2-0.3v-3.8c0-0.8,0.1-2-0.8-2
			c-1,0-1,1.1-1,2v3.8C410.5,193.4,410.4,193.5,410.2,193.5"/>
		<path id="path16_1_" class="st7" d="M435.7,185.8c2,0,3.2,1.8,3.2,4s-1.2,3.9-3.2,3.9s-3.1-1.8-3.1-3.9
			C432.6,187.5,433.7,185.8,435.7,185.8 M435.7,187.2c-1,0-1.1,1.4-1.1,2.2c0,0.9,0,2.7,1.1,2.7s1.1-1.5,1.1-2.4
			c0-0.6,0-1.3-0.2-1.9C436.4,187.4,436.1,187.2,435.7,187.2"/>
		<path id="path18_1_" class="st7" d="M441.5,193.5h-1.4c-0.1,0-0.2-0.1-0.2-0.3v-7.1c0-0.1,0.1-0.2,0.3-0.2h1.3
			c0.1,0,0.2,0.1,0.2,0.2v1.1l0,0c0.4-1,0.9-1.4,1.9-1.4c0.6,0,1.2,0.2,1.6,0.8s0.4,1.5,0.4,2.2v4.5c0,0.1-0.1,0.2-0.3,0.2h-1.4
			c-0.1,0-0.2-0.1-0.2-0.2v-3.8c0-0.8,0.1-1.9-0.9-1.9c-0.3,0-0.6,0.2-0.8,0.6s-0.2,0.9-0.2,1.3v3.8
			C441.8,193.4,441.6,193.5,441.5,193.5"/>
		<path id="path28_1_" class="st7" d="M423.1,190.1c0,0.5,0,1-0.3,1.5c-0.2,0.4-0.6,0.6-1,0.6c-0.5,0-0.8-0.4-0.8-1
			c0-1.2,1.1-1.4,2.1-1.4L423.1,190.1 M424.5,193.5c-0.1,0.1-0.2,0.1-0.3,0c-0.5-0.4-0.5-0.6-0.8-0.9c-0.8,0.8-1.3,1-2.3,1
			c-1.2,0-2.1-0.7-2.1-2.1c0-1.1,0.6-1.9,1.5-2.3c0.7-0.3,1.8-0.4,2.6-0.5v-0.2c0-0.3,0-0.7-0.2-1s-0.5-0.4-0.8-0.4
			c-0.5,0-1,0.3-1.1,0.8c0,0.1-0.1,0.2-0.2,0.3l-1.3-0.1c-0.1,0-0.2-0.1-0.2-0.3c0.3-1.6,1.8-2.1,3.1-2.1c0.7,0,1.5,0.2,2.1,0.7
			c0.7,0.6,0.6,1.5,0.6,2.4v2.1c0,0.6,0.3,0.9,0.5,1.3c0.1,0.1,0.1,0.3,0,0.4C425.3,192.8,424.8,193.2,424.5,193.5L424.5,193.5"/>
		<path id="path30_1_" class="st7" d="M405.1,190.1c0,0.5,0,1-0.3,1.5c-0.2,0.4-0.6,0.6-1,0.6c-0.5,0-0.8-0.4-0.8-1
			c0-1.2,1.1-1.4,2-1.4L405.1,190.1 M406.4,193.5c-0.1,0.1-0.2,0.1-0.3,0c-0.5-0.4-0.5-0.6-0.8-0.9c-0.8,0.8-1.3,1-2.3,1
			c-1.2,0-2.1-0.7-2.1-2.1c0-1.1,0.6-1.9,1.5-2.3c0.7-0.3,1.8-0.4,2.6-0.5v-0.2c0-0.3,0-0.7-0.2-1s-0.5-0.4-0.8-0.4
			c-0.5,0-1,0.3-1.1,0.8c0,0.1-0.1,0.2-0.2,0.3l-1.3-0.1c-0.1,0-0.2-0.1-0.2-0.3c0.3-1.6,1.8-2.1,3.1-2.1c0.7,0,1.5,0.2,2.1,0.7
			c0.7,0.6,0.6,1.5,0.6,2.4v2.1c0,0.6,0.3,0.9,0.5,1.3c0.1,0.1,0.1,0.3,0,0.4C407.2,192.8,406.7,193.2,406.4,193.5L406.4,193.5"/>
	</g>
</g>
<g>
	<g>
		<path class="st6" d="M327,270.6l-4.4,2.2v38.7l4.4,2.2l0,0V270.6L327,270.6"/>
		<path class="st8" d="M350.5,308l-23.6,5.6v-43l23.6,5.5V308"/>
		<path class="st6" d="M339.9,299.2l10,1.3l0.1-0.2l0.1-16.4l-0.1-0.2l-10,1.3L339.9,299.2"/>
		<path class="st6" d="M349.9,308l22.9,5.6v-0.1v-42.9l0,0l-22.9,5.6V308"/>
		<path class="st8" d="M359.9,299.2l-10,1.3v-16.7l10,1.3V299.2"/>
		<path class="st9" d="M359.9,278.3l-10,1.8l-10-1.8l10-2.6L359.9,278.3"/>
		<path class="st10" d="M359.9,306.1l-10-1.8l-10,1.8l10,2.8L359.9,306.1"/>
		<path class="st6" d="M339.9,278.3l10-2.5h0.1v-16.7l-0.1-0.1l-10,5V278.3"/>
		<path class="st8" d="M359.9,278.3l-10-2.5v-16.7l10,5V278.3"/>
		<path class="st6" d="M349.9,325.2l-10-5v-14.1l10,2.5l0.2,0.2l-0.1,16.2L349.9,325.2"/>
		<path class="st8" d="M349.9,325.2l10-5v-14.1l-10,2.5V325.2 M372.8,270.6l4.4,2.2v38.7l-4.4,2.2V270.6"/>
	</g>
	<g>
		<path d="M345.5,347.8c0.1,0.3,0.2,0.6,0.2,0.6c0.2,0.2,0.6,0.4,1.2,0.4c0.3,0,0.6,0,0.8-0.1c0.4-0.2,0.6-0.4,0.6-0.8
			c0-0.2-0.1-0.4-0.3-0.5c-0.2-0.1-0.5-0.2-0.9-0.3l-0.7-0.2c-0.7-0.2-1.2-0.3-1.4-0.5c-0.5-0.3-0.6-0.8-0.6-1.4
			c0-0.6,0.2-1.1,0.6-1.4c0.4-0.4,1-0.6,1.9-0.6c0.7,0,1.3,0.2,1.7,0.6c0.5,0.4,0.7,0.9,0.8,1.6h-1.3c0-0.4-0.2-0.6-0.6-0.9
			c-0.2-0.1-0.5-0.2-0.8-0.2c-0.4,0-0.6,0.1-0.9,0.2c-0.2,0.2-0.3,0.3-0.3,0.6s0.1,0.4,0.3,0.6c0.2,0.1,0.4,0.2,0.9,0.2l1.1,0.2
			c0.5,0.1,0.9,0.2,1.1,0.5c0.4,0.3,0.6,0.7,0.6,1.3s-0.2,1.1-0.7,1.5c-0.5,0.4-1.1,0.6-2,0.6s-1.5-0.2-2.1-0.6
			c-0.5-0.4-0.7-1-0.7-1.6L345.5,347.8L345.5,347.8z"/>
		<path d="M351.4,347.8c0,0.2,0.1,0.5,0.2,0.6c0.2,0.3,0.4,0.5,0.9,0.5c0.2,0,0.5-0.1,0.6-0.2c0.2-0.2,0.2-0.4,0.2-0.7
			c0-0.4-0.2-0.7-0.5-0.9c-0.2-0.1-0.5-0.2-1-0.2v-0.9c0.4,0,0.7-0.1,0.9-0.2c0.3-0.2,0.4-0.4,0.4-0.8c0-0.2-0.1-0.5-0.2-0.6
			c-0.2-0.2-0.3-0.2-0.6-0.2c-0.3,0-0.6,0.1-0.6,0.3c-0.2,0.2-0.2,0.5-0.2,0.8h-1.2c0-0.3,0.1-0.6,0.2-0.9c0.1-0.2,0.2-0.5,0.5-0.7
			c0.2-0.2,0.4-0.2,0.6-0.3c0.2-0.1,0.5-0.2,0.9-0.2c0.6,0,1.1,0.2,1.5,0.5c0.4,0.3,0.6,0.7,0.6,1.3c0,0.4-0.1,0.7-0.3,1
			c-0.2,0.2-0.3,0.2-0.5,0.3c0.1,0,0.3,0.1,0.5,0.3c0.3,0.3,0.5,0.7,0.5,1.2c0,0.6-0.2,1-0.6,1.4s-1,0.6-1.7,0.6
			c-0.9,0-1.5-0.3-1.9-0.9c-0.2-0.3-0.3-0.7-0.3-1.3L351.4,347.8L351.4,347.8L351.4,347.8z"/>
	</g>
	<g>
		<path d="M327,358c0.4,0.6,0.6,1.3,0.6,2.2c0,1-0.2,1.7-0.7,2.5c-0.6,0.8-1.4,1.1-2.5,1.1c-1,0-1.8-0.3-2.4-1
			c-0.5-0.6-0.8-1.4-0.8-2.5c0-0.9,0.2-1.7,0.6-2.2c0.6-0.8,1.4-1.2,2.5-1.2C325.7,356.9,326.5,357.3,327,358z M326.3,362.2
			c0.3-0.6,0.6-1.2,0.6-1.9c0-0.8-0.2-1.3-0.6-1.8s-1-0.7-1.7-0.7c-0.6,0-1.2,0.2-1.7,0.7c-0.4,0.5-0.6,1.1-0.6,2.1
			c0,0.7,0.2,1.3,0.6,1.8s1,0.7,1.7,0.7C325.4,363,325.9,362.7,326.3,362.2z"/>
		<path d="M328.6,357h0.8v2.4c0.2-0.2,0.4-0.4,0.6-0.6c0.2-0.2,0.5-0.2,0.8-0.2c0.6,0,1.1,0.2,1.4,0.6c0.4,0.4,0.6,1,0.6,1.8
			c0,0.7-0.2,1.3-0.6,1.9s-0.9,0.7-1.5,0.7c-0.4,0-0.6-0.1-1-0.2c-0.2-0.1-0.3-0.2-0.5-0.5v0.6h-0.7L328.6,357L328.6,357z
			 M331.6,362.5c0.2-0.3,0.3-0.8,0.3-1.3c0-0.5-0.1-1-0.3-1.3s-0.6-0.5-1-0.5s-0.7,0.2-1,0.4c-0.2,0.2-0.4,0.7-0.4,1.3
			c0,0.5,0.1,0.8,0.2,1.1c0.2,0.6,0.6,0.8,1.2,0.8C331.1,363.1,331.4,362.8,331.6,362.5z"/>
		<path d="M333,364.8c0.4,0,0.6-0.1,0.6-0.1c0.1,0,0.1-0.2,0.1-0.5v-5.3h0.8v5.4c0,0.3-0.1,0.6-0.2,0.8c-0.2,0.3-0.6,0.4-1,0.4
			c0,0-0.1,0-0.2,0c-0.1,0-0.1,0-0.2,0L333,364.8L333,364.8z M334.5,358h-0.8v-1h0.8V358z"/>
		<path d="M338.7,358.9c0.3,0.2,0.6,0.4,0.7,0.6s0.2,0.6,0.3,0.9c0.1,0.2,0.1,0.6,0.1,1h-3.5c0,0.5,0.2,0.9,0.3,1.2
			c0.2,0.3,0.6,0.5,1,0.5s0.7-0.2,1-0.4c0.2-0.2,0.2-0.3,0.3-0.6h0.8c0,0.2-0.1,0.4-0.2,0.6c-0.1,0.2-0.2,0.4-0.4,0.6
			c-0.2,0.2-0.6,0.4-0.9,0.5c-0.2,0.1-0.4,0.1-0.6,0.1c-0.6,0-1.1-0.2-1.5-0.6s-0.6-1-0.6-1.8c0-0.8,0.2-1.3,0.6-1.8s1-0.7,1.6-0.7
			C338,358.7,338.4,358.8,338.7,358.9z M338.9,360.8c0-0.3-0.1-0.6-0.2-0.8c-0.2-0.4-0.6-0.6-1.1-0.6c-0.4,0-0.6,0.2-1,0.4
			c-0.2,0.2-0.4,0.6-0.4,1L338.9,360.8L338.9,360.8z"/>
		<path d="M343.9,359.1c0.3,0.2,0.6,0.7,0.6,1.3h-0.8c-0.1-0.3-0.2-0.6-0.3-0.7c-0.2-0.2-0.5-0.3-0.8-0.3c-0.5,0-0.9,0.2-1.1,0.7
			c-0.2,0.3-0.2,0.7-0.2,1.2s0.1,0.9,0.3,1.2c0.2,0.3,0.6,0.5,1,0.5c0.3,0,0.6-0.1,0.8-0.3c0.2-0.2,0.3-0.5,0.4-0.8h0.8
			c-0.1,0.6-0.3,1.1-0.6,1.3c-0.3,0.3-0.8,0.5-1.3,0.5c-0.6,0-1.1-0.2-1.5-0.7c-0.4-0.5-0.6-1-0.6-1.7c0-0.9,0.2-1.5,0.6-2
			s1-0.7,1.6-0.7C343.1,358.7,343.6,358.8,343.9,359.1z"/>
		<path d="M345.4,357.5h0.8v1.3h0.8v0.6h-0.8v3.1c0,0.2,0.1,0.2,0.2,0.3c0.1,0,0.2,0.1,0.3,0.1c0,0,0.1,0,0.2,0c0.1,0,0.1,0,0.2,0
			v0.6c-0.1,0-0.2,0.1-0.3,0.1c-0.1,0-0.2,0-0.3,0c-0.4,0-0.6-0.1-0.8-0.3c-0.2-0.2-0.2-0.5-0.2-0.7v-3.2h-0.6v-0.6h0.6L345.4,357.5
			L345.4,357.5z"/>
		<path d="M351.1,361.5c0,0.4,0.1,0.6,0.2,0.9c0.3,0.4,0.8,0.6,1.5,0.6c0.3,0,0.6-0.1,0.9-0.2c0.5-0.2,0.8-0.5,0.8-1
			c0-0.3-0.1-0.6-0.3-0.8c-0.2-0.2-0.6-0.2-1-0.4l-0.9-0.2c-0.6-0.2-1-0.2-1.2-0.4c-0.4-0.2-0.6-0.7-0.6-1.2c0-0.6,0.2-1,0.6-1.4
			s1-0.6,1.7-0.6c0.6,0,1.2,0.2,1.7,0.5s0.7,0.9,0.7,1.6h-0.8c-0.1-0.3-0.2-0.6-0.2-0.8c-0.2-0.3-0.7-0.5-1.3-0.5
			c-0.5,0-0.9,0.1-1.1,0.3s-0.3,0.5-0.3,0.8s0.2,0.6,0.4,0.7c0.2,0.1,0.6,0.2,1.1,0.3l0.9,0.2c0.4,0.1,0.8,0.2,1,0.4
			c0.4,0.3,0.6,0.7,0.6,1.3c0,0.7-0.2,1.3-0.8,1.6c-0.5,0.3-1.1,0.5-1.7,0.5c-0.8,0-1.4-0.2-1.8-0.6c-0.5-0.4-0.6-1-0.6-1.7
			L351.1,361.5L351.1,361.5z"/>
		<path d="M356.6,357.5h0.8v1.3h0.8v0.6h-0.8v3.1c0,0.2,0.1,0.2,0.2,0.3c0.1,0,0.2,0.1,0.3,0.1c0,0,0.1,0,0.2,0c0.1,0,0.1,0,0.2,0
			v0.6c-0.1,0-0.2,0.1-0.3,0.1c-0.1,0-0.2,0-0.3,0c-0.4,0-0.6-0.1-0.8-0.3c-0.2-0.2-0.2-0.5-0.2-0.7v-3.2h-0.6v-0.6h0.6L356.6,357.5
			L356.6,357.5z"/>
		<path d="M362.4,359.3c0.4,0.4,0.6,1,0.6,1.8s-0.2,1.4-0.6,1.9c-0.4,0.5-1,0.7-1.7,0.7c-0.6,0-1.2-0.2-1.5-0.6
			c-0.3-0.4-0.6-1-0.6-1.7c0-0.8,0.2-1.4,0.6-1.9c0.4-0.5,1-0.7,1.6-0.7C361.5,358.7,362,358.9,362.4,359.3z M361.9,362.5
			c0.2-0.4,0.3-0.9,0.3-1.3c0-0.5-0.1-0.8-0.2-1.1c-0.2-0.5-0.6-0.6-1.1-0.6c-0.5,0-0.9,0.2-1,0.6c-0.2,0.4-0.3,0.8-0.3,1.3
			c0,0.5,0.1,1,0.3,1.3s0.6,0.5,1,0.5C361.3,363.1,361.7,362.9,361.9,362.5z"/>
		<path d="M364,358.8h0.8v0.8c0.1-0.2,0.2-0.3,0.5-0.6c0.2-0.2,0.6-0.3,0.9-0.3h0.1c0,0,0.1,0,0.2,0v0.9c-0.1,0-0.1,0-0.2,0
			c-0.1,0-0.1,0-0.2,0c-0.4,0-0.7,0.2-1,0.4c-0.2,0.2-0.3,0.6-0.3,0.9v2.7H364L364,358.8L364,358.8z"/>
		<path d="M369.6,360.7c0.2,0,0.3-0.1,0.4-0.2c0-0.1,0.1-0.2,0.1-0.3c0-0.2-0.1-0.5-0.3-0.6c-0.2-0.2-0.5-0.2-0.8-0.2
			c-0.4,0-0.7,0.1-0.9,0.3c-0.1,0.2-0.2,0.3-0.2,0.6h-0.7c0-0.6,0.2-1,0.6-1.2c0.4-0.2,0.8-0.3,1.3-0.3c0.6,0,1,0.1,1.3,0.3
			c0.3,0.2,0.6,0.6,0.6,1v2.7c0,0.1,0,0.2,0.1,0.2c0,0.1,0.1,0.1,0.2,0.1c0,0,0.1,0,0.2,0c0.1,0,0.1,0,0.2,0v0.6
			c-0.2,0-0.2,0.1-0.3,0.1c-0.1,0-0.2,0-0.2,0c-0.2,0-0.5-0.1-0.6-0.3c-0.1-0.1-0.1-0.2-0.2-0.5c-0.2,0.2-0.4,0.4-0.7,0.6
			c-0.3,0.2-0.6,0.2-1,0.2c-0.5,0-0.8-0.2-1.1-0.4c-0.3-0.2-0.4-0.6-0.4-1c0-0.5,0.2-0.8,0.4-1c0.2-0.2,0.6-0.4,1.1-0.5L369.6,360.7
			z M367.9,362.9c0.2,0.2,0.4,0.2,0.6,0.2c0.3,0,0.6-0.1,0.8-0.2c0.5-0.2,0.6-0.6,0.6-1v-0.6c-0.1,0.1-0.2,0.1-0.4,0.2
			c-0.2,0.1-0.3,0.1-0.5,0.1l-0.5,0.1c-0.3,0-0.5,0.1-0.6,0.2c-0.2,0.2-0.4,0.4-0.4,0.6C367.7,362.6,367.8,362.7,367.9,362.9z"/>
		<path d="M374.7,359c0.2,0.1,0.3,0.2,0.5,0.5v-0.6h0.7v4.3c0,0.6-0.1,1.1-0.2,1.4c-0.3,0.6-1,1-1.9,1c-0.5,0-1-0.1-1.3-0.3
			c-0.3-0.2-0.6-0.6-0.6-1.1h0.8c0,0.2,0.1,0.4,0.2,0.5c0.2,0.2,0.5,0.2,0.9,0.2c0.6,0,1-0.2,1.2-0.6c0.1-0.2,0.2-0.7,0.2-1.3
			c-0.2,0.2-0.3,0.4-0.6,0.6c-0.2,0.1-0.6,0.2-0.9,0.2c-0.5,0-1-0.2-1.3-0.6c-0.4-0.4-0.6-1-0.6-1.8c0-0.8,0.2-1.4,0.6-1.8
			c0.4-0.5,0.9-0.6,1.4-0.6C374.1,358.8,374.4,358.8,374.7,359z M374.8,359.9c-0.2-0.3-0.6-0.4-1-0.4c-0.6,0-1,0.2-1.1,0.8
			c-0.1,0.3-0.2,0.6-0.2,1.1c0,0.6,0.1,1,0.3,1.2c0.2,0.3,0.5,0.4,0.9,0.4c0.6,0,1-0.2,1.2-0.8c0.2-0.3,0.2-0.6,0.2-1
			C375.2,360.6,375.1,360.2,374.8,359.9z"/>
		<path d="M380.1,358.9c0.3,0.2,0.6,0.4,0.7,0.6c0.2,0.2,0.2,0.6,0.3,0.9c0.1,0.2,0.1,0.6,0.1,1h-3.5c0,0.5,0.2,0.9,0.3,1.2
			c0.2,0.3,0.6,0.5,1,0.5s0.7-0.2,1-0.4c0.2-0.2,0.2-0.3,0.3-0.6h0.8c0,0.2-0.1,0.4-0.2,0.6c-0.1,0.2-0.2,0.4-0.4,0.6
			c-0.2,0.2-0.6,0.4-0.9,0.5c-0.2,0.1-0.4,0.1-0.6,0.1c-0.6,0-1.1-0.2-1.5-0.6s-0.6-1-0.6-1.8c0-0.8,0.2-1.3,0.6-1.8s1-0.7,1.6-0.7
			C379.4,358.7,379.7,358.8,380.1,358.9z M380.4,360.8c0-0.3-0.1-0.6-0.2-0.8c-0.2-0.4-0.6-0.6-1.1-0.6c-0.4,0-0.6,0.2-1,0.4
			c-0.2,0.2-0.4,0.6-0.4,1L380.4,360.8L380.4,360.8z"/>
	</g>
	<g>
		<path id="path12" class="st7" d="M352.7,334.2v-0.8c0-0.2,0.1-0.2,0.2-0.2h3.6c0.1,0,0.2,0.1,0.2,0.2v0.7c0,0.1-0.1,0.2-0.2,0.5
			l-1.8,2.7c0.7,0,1.4,0.1,2.1,0.5c0.2,0.1,0.2,0.2,0.2,0.3v0.9c0,0.1-0.2,0.2-0.2,0.2c-1.1-0.6-2.5-0.6-3.8,0
			c-0.2,0.1-0.2-0.1-0.2-0.2v-0.8c0-0.2,0-0.3,0.2-0.6l2.1-3.1H353C352.8,334.4,352.7,334.3,352.7,334.2"/>
		<path id="path14" class="st7" d="M339.6,339.2h-1.1c-0.1,0-0.2-0.1-0.2-0.2v-5.6c0-0.1,0.1-0.2,0.2-0.2h1c0.1,0,0.2,0.1,0.2,0.2
			v0.7l0,0c0.2-0.7,0.8-1,1.4-1c0.7,0,1.1,0.3,1.4,1c0.2-0.7,0.9-1,1.5-1c0.5,0,1,0.2,1.3,0.6c0.3,0.5,0.2,1.2,0.2,1.7v3.6
			c0,0.1-0.1,0.2-0.2,0.2h-1.1c-0.1,0-0.2-0.1-0.2-0.2v-3c0-0.2,0-0.8,0-1c-0.1-0.4-0.3-0.5-0.6-0.5c-0.2,0-0.6,0.2-0.6,0.5
			s-0.1,0.8-0.1,1.1v3c0,0.1-0.1,0.2-0.2,0.2h-1.1c-0.1,0-0.2-0.1-0.2-0.2v-3c0-0.6,0.1-1.6-0.6-1.6c-0.8,0-0.8,0.9-0.8,1.6v3
			C339.8,339.2,339.7,339.2,339.6,339.2"/>
		<path id="path16" class="st7" d="M359.8,333.1c1.6,0,2.5,1.4,2.5,3.2c0,1.7-1,3.1-2.5,3.1c-1.6,0-2.5-1.4-2.5-3.1
			C357.4,334.5,358.2,333.1,359.8,333.1 M359.8,334.2c-0.8,0-0.9,1.1-0.9,1.7c0,0.7,0,2.1,0.9,2.1s0.9-1.2,0.9-1.9
			c0-0.5,0-1-0.2-1.5C360.4,334.4,360.1,334.2,359.8,334.2"/>
		<path id="path18" class="st7" d="M364.4,339.2h-1.1c-0.1,0-0.2-0.1-0.2-0.2v-5.6c0-0.1,0.1-0.2,0.2-0.2h1c0.1,0,0.2,0.1,0.2,0.2
			v0.9l0,0c0.3-0.8,0.7-1.1,1.5-1.1c0.5,0,1,0.2,1.3,0.6c0.3,0.5,0.3,1.2,0.3,1.7v3.6c0,0.1-0.1,0.2-0.2,0.2h-1.1
			c-0.1,0-0.2-0.1-0.2-0.2v-3c0-0.6,0.1-1.5-0.7-1.5c-0.2,0-0.5,0.2-0.6,0.5c-0.2,0.3-0.2,0.7-0.2,1v3
			C364.7,339.2,364.5,339.2,364.4,339.2"/>
		<path id="path28" class="st7" d="M349.8,336.5c0,0.4,0,0.8-0.2,1.2c-0.2,0.3-0.5,0.5-0.8,0.5c-0.4,0-0.6-0.3-0.6-0.8
			c0-1,0.9-1.1,1.7-1.1V336.5 M350.9,339.2c-0.1,0.1-0.2,0.1-0.2,0c-0.4-0.3-0.4-0.5-0.6-0.7c-0.6,0.6-1,0.8-1.8,0.8
			c-1,0-1.7-0.6-1.7-1.7c0-0.9,0.5-1.5,1.2-1.8c0.6-0.2,1.4-0.3,2.1-0.4v-0.2c0-0.2,0-0.6-0.2-0.8s-0.4-0.3-0.6-0.3
			c-0.4,0-0.8,0.2-0.9,0.6c0,0.1-0.1,0.2-0.2,0.2l-1-0.1c-0.1,0-0.2-0.1-0.2-0.2c0.2-1.3,1.4-1.7,2.5-1.7c0.6,0,1.2,0.2,1.7,0.6
			c0.6,0.5,0.5,1.2,0.5,1.9v1.7c0,0.5,0.2,0.7,0.4,1c0.1,0.1,0.1,0.2,0,0.3C351.6,338.7,351.2,339,350.9,339.2L350.9,339.2"/>
		<path id="path30" class="st7" d="M335.5,336.5c0,0.4,0,0.8-0.2,1.2c-0.2,0.3-0.5,0.5-0.8,0.5c-0.4,0-0.6-0.3-0.6-0.8
			c0-1,0.9-1.1,1.6-1.1L335.5,336.5 M336.6,339.2c-0.1,0.1-0.2,0.1-0.2,0c-0.4-0.3-0.4-0.5-0.6-0.7c-0.6,0.6-1,0.8-1.8,0.8
			c-1,0-1.7-0.6-1.7-1.7c0-0.9,0.5-1.5,1.2-1.8c0.6-0.2,1.4-0.3,2.1-0.4v-0.2c0-0.2,0-0.6-0.2-0.8c-0.2-0.2-0.4-0.3-0.6-0.3
			c-0.4,0-0.8,0.2-0.9,0.6c0,0.1-0.1,0.2-0.2,0.2l-1-0.1c-0.1,0-0.2-0.1-0.2-0.2c0.2-1.3,1.4-1.7,2.5-1.7c0.6,0,1.2,0.2,1.7,0.6
			c0.6,0.5,0.5,1.2,0.5,1.9v1.7c0,0.5,0.2,0.7,0.4,1c0.1,0.1,0.1,0.2,0,0.3C337.2,338.7,336.8,339,336.6,339.2L336.6,339.2"/>
	</g>
</g>
<g>
	<path d="M344.5,240.6l-0.1-0.8l0,0c-0.3,0.5-1,1-2,1c-1.3,0-2-0.9-2-1.9c0-1.5,1.3-2.4,3.8-2.4v-0.1c0-0.5-0.1-1.4-1.4-1.4
		c-0.5,0-1.2,0.2-1.6,0.4l-0.2-0.8c0.5-0.3,1.3-0.5,2.1-0.5c2,0,2.4,1.3,2.4,2.6v2.4c0,0.5,0,1.1,0.1,1.5L344.5,240.6L344.5,240.6z
		 M344.2,237.3c-1.3,0-2.7,0.2-2.7,1.4c0,0.8,0.5,1.1,1.1,1.1c0.9,0,1.3-0.5,1.5-1.1c0-0.1,0.1-0.2,0.1-0.3V237.3z"/>
	<path d="M347.3,235.9c0-0.7,0-1.2,0-1.7h1l0.1,1.1l0,0c0.3-0.7,1.1-1.2,2.1-1.2c0.9,0,2.3,0.5,2.3,2.7v3.8h-1.2V237
		c0-1-0.3-1.9-1.4-1.9c-0.8,0-1.3,0.5-1.5,1.2c0,0.1-0.1,0.3-0.1,0.5v3.8h-1.2V235.9z"/>
	<path d="M360,231.2v7.6c0,0.5,0,1.2,0,1.6h-1v-1.1l0,0c-0.3,0.7-1.1,1.2-2.2,1.2c-1.5,0-2.7-1.3-2.7-3.3c0-2.1,1.3-3.4,2.8-3.4
		c1,0,1.6,0.4,2,1l0,0v-3.8h1.1V231.2z M358.9,236.8c0-0.1,0-0.3,0-0.4c-0.2-0.8-0.8-1.3-1.6-1.3c-1.2,0-1.9,1.1-1.9,2.4
		c0,1.3,0.7,2.3,1.9,2.3c0.8,0,1.5-0.5,1.6-1.4c0-0.1,0-0.3,0-0.5V236.8z"/>
</g>
<g>
	<path d="M269.3,106.6v3.5h4v-3.5h1.1v8.2h-1.1V111h-4v3.8h-1.1v-8.2H269.3z"/>
	<path d="M277.6,107.2c0,0.4-0.3,0.7-0.7,0.7c-0.4,0-0.7-0.3-0.7-0.7s0.3-0.7,0.7-0.7C277.4,106.5,277.6,106.9,277.6,107.2z
		 M276.4,114.8v-5.9h1.1v5.9H276.4z"/>
	<path d="M284.4,108.9c0,0.4-0.1,0.9-0.1,1.6v3.5c0,1.3-0.3,2.2-0.8,2.6c-0.5,0.5-1.4,0.7-2.1,0.7s-1.5-0.1-2-0.4l0.3-0.8
		c0.4,0.3,1,0.4,1.7,0.4c1.1,0,1.9-0.5,1.9-2.1v-0.7l0,0c-0.4,0.5-1,1-1.9,1c-1.4,0-2.5-1.3-2.5-2.9c0-2,1.3-3.2,2.6-3.2
		c1.1,0,1.6,0.5,1.9,1.1l0,0l0.1-0.9L284.4,108.9L284.4,108.9L284.4,108.9z M283.3,111.3c0-0.1,0-0.4-0.1-0.4
		c-0.1-0.7-0.7-1.2-1.5-1.2c-1.1,0-1.8,0.9-1.8,2.2c0,1.2,0.7,2.1,1.8,2.1c0.7,0,1.3-0.4,1.5-1.1c0.1-0.1,0.1-0.4,0.1-0.5V111.3z"/>
	<path d="M286.1,106.1h1.1v3.7l0,0c0.1-0.3,0.4-0.5,0.8-0.7s0.7-0.3,1.1-0.3c0.8,0,2.1,0.4,2.1,2.5v3.6h-1.1v-3.4
		c0-1-0.4-1.8-1.3-1.8c-0.7,0-1.3,0.4-1.4,1.1c-0.1,0.1-0.1,0.3-0.1,0.5v3.6h-1.1L286.1,106.1L286.1,106.1z"/>
	<path d="M293,106.1h1.1v8.7H293V106.1z"/>
	<path d="M296.3,108.9l1.3,3.5c0.1,0.4,0.3,0.9,0.4,1.3l0,0c0.1-0.4,0.3-0.8,0.4-1.3l1.2-3.5h1.2l-1.6,4.2c-0.8,2.1-1.3,3-2.1,3.8
		c-0.5,0.4-1.1,0.7-1.3,0.7l-0.3-0.9c0.3-0.1,0.7-0.3,1-0.5c0.3-0.3,0.7-0.7,0.9-1.2c0.1-0.1,0.1-0.1,0.1-0.3c0-0.1,0-0.1-0.1-0.3
		L295,109L296.3,108.9L296.3,108.9L296.3,108.9z"/>
	<path d="M305.5,112.2l-0.9,2.6h-1.1l2.8-8.2h1.3l2.9,8.2h-1.2l-0.9-2.6H305.5z M308.3,111.4l-0.8-2.4c-0.1-0.5-0.3-1.1-0.4-1.5l0,0
		c-0.1,0.4-0.3,1-0.4,1.5l-0.8,2.4H308.3z"/>
	<path d="M311.9,108.9l1.2,3.3c0.1,0.5,0.4,1.1,0.4,1.5l0,0c0.1-0.4,0.3-1,0.5-1.5l1.2-3.3h1.2l-2.4,5.9h-1.1l-2.2-5.9H311.9z"/>
	<path d="M320.5,114.8l-0.1-0.7l0,0c-0.4,0.4-1,0.9-1.8,0.9c-1.2,0-1.8-0.8-1.8-1.7c0-1.4,1.3-2.2,3.6-2.2V111
		c0-0.4-0.1-1.3-1.3-1.3c-0.5,0-1.2,0.1-1.5,0.4l-0.3-0.7c0.4-0.4,1.2-0.5,2-0.5c1.8,0,2.2,1.3,2.2,2.4v2.2c0,0.5,0,1,0.1,1.4
		L320.5,114.8L320.5,114.8z M320.4,111.8c-1.2,0-2.5,0.1-2.5,1.3c0,0.7,0.4,1.1,1,1.1c0.8,0,1.3-0.4,1.4-1c0-0.1,0.1-0.3,0.1-0.4
		L320.4,111.8L320.4,111.8z"/>
	<path d="M326.1,106.1h1.1v8.7h-1.1V106.1z"/>
	<path d="M324.4,107.2c0,0.4-0.3,0.7-0.7,0.7c-0.4,0-0.7-0.3-0.7-0.7s0.3-0.7,0.7-0.7C324.3,106.5,324.4,106.9,324.4,107.2z
		 M323.3,114.8v-5.9h1.1v5.9H323.3z"/>
	<path d="M332.2,114.8l-0.1-0.7l0,0c-0.4,0.4-1,0.9-1.8,0.9c-1.2,0-1.8-0.8-1.8-1.7c0-1.4,1.3-2.2,3.6-2.2V111
		c0-0.4-0.1-1.3-1.3-1.3c-0.5,0-1.2,0.1-1.5,0.4l-0.3-0.7c0.4-0.4,1.2-0.5,2-0.5c1.8,0,2.2,1.3,2.2,2.4v2.2c0,0.5,0,1,0.1,1.4
		L332.2,114.8L332.2,114.8z M332.1,111.8c-1.2,0-2.5,0.1-2.5,1.3c0,0.7,0.4,1.1,1,1.1c0.8,0,1.3-0.4,1.4-1c0-0.1,0.1-0.3,0.1-0.4
		L332.1,111.8L332.1,111.8z"/>
	<path d="M334.8,114.8c0-0.4,0.1-1,0.1-1.5v-7.1h1.1v3.8l0,0c0.4-0.7,1.1-1.1,2.1-1.1c1.4,0,2.5,1.3,2.5,3c0,2.1-1.3,3.2-2.6,3.2
		c-0.9,0-1.5-0.4-2-1.1l0,0l-0.1,1L334.8,114.8L334.8,114.8L334.8,114.8z M335.9,112.4c0,0.1,0,0.3,0.1,0.4c0.1,0.7,0.8,1.3,1.6,1.3
		c1.2,0,1.8-0.9,1.8-2.4c0-1.2-0.7-2.2-1.8-2.2c-0.7,0-1.4,0.5-1.6,1.3c0,0.1-0.1,0.3-0.1,0.4V112.4z"/>
	<path d="M341.8,106.1h1.1v8.7h-1.1V106.1z"/>
	<path d="M345.3,112c0,1.4,1,2.1,2.1,2.1c0.8,0,1.3-0.1,1.6-0.3l0.1,0.8c-0.4,0.1-1.1,0.4-2,0.4c-1.8,0-2.9-1.2-2.9-2.9
		s1.1-3.2,2.8-3.2c2,0,2.4,1.7,2.4,2.8c0,0.1,0,0.4,0,0.5L345.3,112L345.3,112L345.3,112z M348.5,111.3c0-0.7-0.3-1.8-1.5-1.8
		c-1.1,0-1.6,1-1.7,1.8H348.5z"/>
	<path d="M353.5,106.7c0.5-0.1,1.2-0.1,2.1-0.1c1.1,0,1.8,0.3,2.4,0.7c0.4,0.4,0.7,1,0.7,1.7s-0.1,1.3-0.7,1.8
		c-0.5,0.7-1.5,0.9-2.5,0.9c-0.4,0-0.7,0-0.9-0.1v3.3h-1.1V106.7L353.5,106.7z M354.6,110.6c0.3,0.1,0.5,0.1,0.9,0.1
		c1.3,0,2.1-0.7,2.1-1.8c0-1.1-0.8-1.6-2-1.6c-0.4,0-0.8,0-1,0.1V110.6L354.6,110.6z"/>
	<path d="M360.3,112c0,1.4,1,2.1,2.1,2.1c0.8,0,1.3-0.1,1.6-0.3l0.1,0.8c-0.4,0.1-1.1,0.4-2,0.4c-1.8,0-2.9-1.2-2.9-2.9
		s1.1-3.2,2.8-3.2c2,0,2.4,1.7,2.4,2.8c0,0.1,0,0.4,0,0.5L360.3,112L360.3,112L360.3,112z M363.4,111.3c0-0.7-0.3-1.8-1.5-1.8
		c-1.1,0-1.6,1-1.7,1.8H363.4z"/>
	<path d="M365.9,110.7c0-0.7,0-1.3-0.1-1.9h1v1.2h0.1c0.3-0.8,0.9-1.3,1.6-1.3c0.1,0,0.1,0,0.3,0v1c-0.1,0-0.1,0-0.4,0
		c-0.8,0-1.3,0.5-1.4,1.4c0,0.1-0.1,0.4-0.1,0.5v3.2h-1L365.9,110.7L365.9,110.7z"/>
	<path d="M369.7,113.8c0.4,0.1,0.9,0.4,1.4,0.4c0.8,0,1.2-0.4,1.2-0.9c0-0.5-0.3-0.8-1.1-1.1c-1.1-0.4-1.6-1-1.6-1.7
		c0-1,0.8-1.7,2.1-1.7c0.7,0,1.2,0.1,1.4,0.4l-0.3,0.8c-0.3-0.1-0.7-0.4-1.3-0.4c-0.7,0-1,0.4-1,0.8s0.4,0.7,1.2,1
		c1.1,0.4,1.5,0.9,1.5,1.8c0,1.1-0.8,1.8-2.2,1.8c-0.7,0-1.3-0.1-1.7-0.4L369.7,113.8z"/>
	<path d="M375.9,107.2c0,0.4-0.3,0.7-0.7,0.7c-0.4,0-0.7-0.3-0.7-0.7s0.3-0.7,0.7-0.7C375.6,106.5,375.9,106.9,375.9,107.2z
		 M374.7,114.8v-5.9h1.1v5.9H374.7z"/>
	<path d="M377.4,113.8c0.4,0.1,0.9,0.4,1.4,0.4c0.8,0,1.2-0.4,1.2-0.9c0-0.5-0.3-0.8-1.1-1.1c-1.1-0.4-1.6-1-1.6-1.7
		c0-1,0.8-1.7,2.1-1.7c0.7,0,1.2,0.1,1.4,0.4l-0.3,0.8c-0.3-0.1-0.7-0.4-1.3-0.4c-0.7,0-1,0.4-1,0.8s0.4,0.7,1.2,1
		c1.1,0.4,1.5,0.9,1.5,1.8c0,1.1-0.8,1.8-2.2,1.8c-0.7,0-1.3-0.1-1.7-0.4L377.4,113.8z"/>
	<path d="M383.7,107.2v1.7h1.5v0.8h-1.5v3.2c0,0.7,0.1,1.2,0.8,1.2c0.3,0,0.4,0,0.7-0.1l0.1,0.8c-0.1,0.1-0.5,0.1-1,0.1
		c-0.5,0-0.9-0.1-1.2-0.4c-0.3-0.4-0.4-0.8-0.4-1.5v-3.2h-0.9V109h0.9v-1.4L383.7,107.2z"/>
	<path d="M387,112c0,1.4,1,2.1,2.1,2.1c0.8,0,1.3-0.1,1.6-0.3l0.1,0.8c-0.4,0.1-1.1,0.4-2,0.4c-1.8,0-2.9-1.2-2.9-2.9
		s1.1-3.2,2.8-3.2c2,0,2.4,1.7,2.4,2.8c0,0.1,0,0.4,0,0.5L387,112L387,112L387,112z M390.2,111.3c0-0.7-0.3-1.8-1.5-1.8
		c-1.1,0-1.6,1-1.7,1.8H390.2z"/>
	<path d="M392.6,110.5c0-0.7,0-1.1-0.1-1.6h1l0.1,1l0,0c0.3-0.5,1-1.1,2-1.1c0.8,0,2.1,0.4,2.1,2.5v3.6h-1.1v-3.4
		c0-1-0.4-1.8-1.3-1.8c-0.7,0-1.3,0.5-1.4,1.1c-0.1,0.1-0.1,0.4-0.1,0.5v3.6h-1.1V110.5L392.6,110.5z"/>
	<path d="M400.7,107.2v1.7h1.5v0.8h-1.5v3.2c0,0.7,0.1,1.2,0.8,1.2c0.3,0,0.4,0,0.7-0.1l0.1,0.8c-0.1,0.1-0.5,0.1-1,0.1
		c-0.5,0-0.9-0.1-1.2-0.4c-0.3-0.4-0.4-0.8-0.4-1.5v-3.2h-0.9V109h0.9v-1.4L400.7,107.2z"/>
	<path d="M405.9,113.5c0.4,0.3,1.2,0.5,1.9,0.5c1.1,0,1.7-0.5,1.7-1.4c0-0.8-0.4-1.3-1.5-1.6c-1.3-0.4-2.1-1.2-2.1-2.4
		c0-1.3,1.1-2.2,2.6-2.2c0.8,0,1.4,0.1,1.8,0.4l-0.3,0.9c-0.3-0.1-0.8-0.4-1.6-0.4c-1.2,0-1.5,0.7-1.5,1.3c0,0.8,0.5,1.2,1.6,1.6
		c1.4,0.5,2.1,1.3,2.1,2.4c0,1.3-1,2.4-2.9,2.4c-0.8,0-1.7-0.3-2.1-0.5L405.9,113.5z"/>
	<path d="M413.3,107.2v1.7h1.5v0.8h-1.5v3.2c0,0.7,0.1,1.2,0.8,1.2c0.3,0,0.4,0,0.7-0.1l0.1,0.8c-0.1,0.1-0.5,0.1-1,0.1
		c-0.5,0-0.9-0.1-1.2-0.4c-0.3-0.4-0.4-0.8-0.4-1.5v-3.2h-0.9V109h0.9v-1.4L413.3,107.2z"/>
	<path d="M421.4,111.8c0,2.2-1.5,3.2-2.9,3.2c-1.6,0-2.9-1.2-2.9-3c0-2,1.3-3.2,2.9-3.2C420.2,108.8,421.4,110,421.4,111.8z
		 M416.6,111.9c0,1.3,0.7,2.4,1.8,2.4s1.8-1,1.8-2.4c0-1-0.5-2.4-1.8-2.4S416.6,110.7,416.6,111.9z"/>
	<path d="M422.7,110.7c0-0.7,0-1.3-0.1-1.9h1v1.2h0.1c0.3-0.8,0.9-1.3,1.6-1.3c0.1,0,0.1,0,0.3,0v1c-0.1,0-0.1,0-0.4,0
		c-0.8,0-1.3,0.5-1.4,1.4c0,0.1-0.1,0.4-0.1,0.5v3.2h-1.1L422.7,110.7L422.7,110.7z"/>
	<path d="M429.9,114.8l-0.1-0.7l0,0c-0.4,0.4-1,0.9-1.8,0.9c-1.2,0-1.8-0.8-1.8-1.7c0-1.4,1.3-2.2,3.6-2.2V111
		c0-0.4-0.1-1.3-1.3-1.3c-0.5,0-1.2,0.1-1.5,0.4l-0.3-0.7c0.4-0.4,1.2-0.5,2-0.5c1.8,0,2.2,1.3,2.2,2.4v2.2c0,0.5,0,1,0.1,1.4
		L429.9,114.8L429.9,114.8L429.9,114.8z M429.8,111.8c-1.2,0-2.5,0.1-2.5,1.3c0,0.7,0.4,1.1,1,1.1c0.8,0,1.3-0.4,1.4-1
		c0-0.1,0.1-0.3,0.1-0.4L429.8,111.8L429.8,111.8z"/>
	<path d="M437.7,108.9c0,0.4-0.1,0.9-0.1,1.6v3.5c0,1.3-0.3,2.2-0.8,2.6c-0.5,0.5-1.4,0.7-2.1,0.7s-1.5-0.1-2-0.4l0.3-0.8
		c0.4,0.3,1,0.4,1.7,0.4c1.1,0,1.9-0.5,1.9-2.1v-0.7l0,0c-0.4,0.5-1,1-1.9,1c-1.4,0-2.5-1.3-2.5-2.9c0-2,1.3-3.2,2.6-3.2
		c1.1,0,1.6,0.5,1.9,1.1l0,0l0.1-0.9L437.7,108.9L437.7,108.9z M436.5,111.3c0-0.1,0-0.4-0.1-0.4c-0.1-0.7-0.7-1.2-1.5-1.2
		c-1.1,0-1.8,0.9-1.8,2.2c0,1.2,0.7,2.1,1.8,2.1c0.7,0,1.3-0.4,1.5-1.1c0.1-0.1,0.1-0.4,0.1-0.5V111.3z"/>
	<path d="M440.1,112c0,1.4,1,2.1,2.1,2.1c0.8,0,1.3-0.1,1.6-0.3l0.1,0.8c-0.4,0.1-1.1,0.4-2,0.4c-1.8,0-2.9-1.2-2.9-2.9
		s1.1-3.2,2.8-3.2c2,0,2.4,1.7,2.4,2.8c0,0.1,0,0.4,0,0.5L440.1,112L440.1,112L440.1,112z M443.2,111.3c0-0.7-0.3-1.8-1.5-1.8
		c-1.1,0-1.6,1-1.7,1.8H443.2z"/>
</g>
<g>
	<g>
		<path d="M262.5,217.3h-3.4v1.4h3.2v1.1h-3.2v1.7h3.6v1.1h-4.9v-6.5h4.8L262.5,217.3L262.5,217.3z"/>
		<path d="M268.5,216.8c0.2,0.2,0.3,0.6,0.3,1s-0.1,0.7-0.3,1c-0.1,0.2-0.2,0.2-0.5,0.4c0.3,0.1,0.6,0.3,0.7,0.6
			c0.2,0.2,0.2,0.6,0.2,1c0,0.4-0.1,0.7-0.3,1.1c-0.2,0.2-0.2,0.4-0.5,0.5c-0.2,0.2-0.5,0.2-0.7,0.3c-0.2,0.1-0.6,0.1-0.9,0.1h-2.9
			v-6.5h3.2C267.7,216.2,268.1,216.4,268.5,216.8z M265,217.3v1.5h1.5c0.2,0,0.5-0.1,0.6-0.2c0.2-0.1,0.2-0.3,0.2-0.6
			c0-0.3-0.1-0.5-0.3-0.6c-0.2-0.1-0.5-0.1-0.7-0.1L265,217.3L265,217.3z M265,219.8v1.7h1.5c0.2,0,0.5,0,0.6-0.1
			c0.3-0.2,0.4-0.4,0.4-0.8c0-0.3-0.2-0.6-0.4-0.7c-0.2-0.1-0.4-0.1-0.6-0.1H265z"/>
		<path d="M271.1,220.6c0.1,0.3,0.2,0.5,0.2,0.6c0.2,0.2,0.6,0.4,1.1,0.4c0.3,0,0.6,0,0.8-0.1c0.4-0.2,0.6-0.4,0.6-0.7
			c0-0.2-0.1-0.4-0.2-0.5c-0.2-0.1-0.5-0.2-0.9-0.3l-0.7-0.2c-0.6-0.2-1.1-0.3-1.5-0.5c-0.4-0.3-0.6-0.7-0.6-1.4
			c0-0.6,0.2-1.1,0.6-1.5s1.1-0.6,1.9-0.6c0.7,0,1.3,0.2,1.8,0.6c0.5,0.3,0.7,0.9,0.7,1.5h-1.3c0-0.4-0.2-0.6-0.5-0.8
			c-0.2-0.1-0.5-0.2-0.8-0.2c-0.3,0-0.6,0.1-0.9,0.2c-0.2,0.2-0.3,0.3-0.3,0.6c0,0.2,0.1,0.4,0.3,0.5c0.2,0.1,0.4,0.2,0.9,0.2
			l1.1,0.2c0.5,0.1,0.9,0.2,1.1,0.5c0.4,0.3,0.6,0.7,0.6,1.3s-0.2,1.1-0.6,1.5s-1.1,0.6-1.9,0.6c-0.9,0-1.5-0.2-2-0.6
			s-0.7-0.9-0.7-1.6L271.1,220.6L271.1,220.6L271.1,220.6z"/>
	</g>
	<g>
		<path d="M238,230.3h2.8c0.8,0,1.4,0.2,1.7,0.7c0.2,0.2,0.3,0.6,0.3,1c0,0.4-0.1,0.7-0.3,1.1c-0.2,0.2-0.3,0.2-0.6,0.4
			c0.3,0.2,0.6,0.2,0.7,0.4c0.3,0.3,0.5,0.7,0.5,1.2c0,0.4-0.2,0.8-0.4,1.1c-0.4,0.5-1.1,0.8-1.9,0.8H238V230.3L238,230.3z
			 M240.6,233.1c0.4,0,0.6-0.1,0.9-0.2c0.3-0.2,0.5-0.5,0.5-0.9c0-0.4-0.2-0.7-0.6-0.9c-0.2-0.1-0.5-0.2-0.9-0.2h-1.6v2L240.6,233.1
			L240.6,233.1L240.6,233.1z M241,236.2c0.6,0,1-0.2,1.2-0.5c0.2-0.2,0.2-0.5,0.2-0.7c0-0.5-0.2-0.8-0.6-1c-0.2-0.1-0.6-0.2-0.9-0.2
			h-1.8v2.3H241L241,236.2z"/>
		<path d="M244.2,230.3h0.8v6.6h-0.8V230.3z"/>
		<path d="M249.8,232.6c0.4,0.4,0.6,1.1,0.6,1.9c0,0.8-0.2,1.5-0.6,1.9s-1,0.7-1.8,0.7c-0.6,0-1.2-0.2-1.5-0.6
			c-0.4-0.5-0.6-1.1-0.6-1.8c0-0.8,0.2-1.5,0.6-1.9c0.4-0.5,1-0.7,1.6-0.7C248.8,232,249.3,232.2,249.8,232.6z M249.2,235.8
			c0.2-0.4,0.3-0.9,0.3-1.4c0-0.5-0.1-0.8-0.2-1.1c-0.2-0.5-0.6-0.6-1.1-0.6c-0.5,0-0.8,0.2-1.1,0.6c-0.2,0.4-0.3,0.8-0.3,1.4
			c0,0.5,0.1,1,0.3,1.3c0.2,0.3,0.6,0.5,1.1,0.5C248.6,236.4,249,236.2,249.2,235.8z"/>
		<path d="M254.5,232.4c0.3,0.2,0.6,0.7,0.6,1.4h-0.8c-0.1-0.3-0.2-0.6-0.3-0.7c-0.2-0.2-0.5-0.3-0.8-0.3c-0.5,0-0.9,0.2-1.1,0.7
			c-0.2,0.3-0.2,0.7-0.2,1.2c0,0.5,0.1,0.9,0.3,1.2c0.2,0.3,0.6,0.5,1,0.5c0.3,0,0.6-0.1,0.8-0.3c0.2-0.2,0.3-0.5,0.4-0.8h0.8
			c-0.1,0.6-0.3,1.1-0.6,1.4c-0.3,0.3-0.8,0.5-1.4,0.5c-0.6,0-1.1-0.2-1.5-0.7c-0.4-0.5-0.6-1.1-0.6-1.7c0-0.9,0.2-1.5,0.6-2
			c0.4-0.5,1-0.7,1.6-0.7C253.8,232,254.2,232.1,254.5,232.4z"/>
		<path d="M256,230.3h0.8v3.9l2.1-2h1.1l-1.9,1.8l1.9,3.1H259l-1.5-2.4l-0.6,0.6v1.8H256L256,230.3L256,230.3z"/>
		<path d="M263.9,234.8c0,0.4,0.1,0.6,0.2,0.9c0.3,0.4,0.8,0.6,1.5,0.6c0.3,0,0.6-0.1,0.9-0.2c0.5-0.2,0.8-0.5,0.8-1
			c0-0.3-0.1-0.6-0.3-0.8c-0.2-0.2-0.6-0.2-1.1-0.4l-0.9-0.2c-0.6-0.2-1-0.2-1.2-0.4c-0.4-0.2-0.6-0.7-0.6-1.2
			c0-0.6,0.2-1.1,0.6-1.5c0.4-0.4,1-0.6,1.7-0.6c0.6,0,1.2,0.2,1.7,0.5c0.5,0.3,0.7,0.9,0.7,1.6h-0.8c-0.1-0.3-0.2-0.6-0.2-0.8
			c-0.2-0.3-0.7-0.5-1.4-0.5c-0.5,0-0.9,0.1-1.1,0.3c-0.2,0.2-0.3,0.5-0.3,0.8c0,0.3,0.2,0.6,0.4,0.7c0.2,0.1,0.6,0.2,1.1,0.3
			l0.9,0.2c0.4,0.1,0.8,0.2,1,0.4c0.4,0.3,0.6,0.7,0.6,1.4c0,0.7-0.2,1.3-0.8,1.6c-0.5,0.3-1.1,0.5-1.8,0.5c-0.8,0-1.5-0.2-1.9-0.6
			c-0.5-0.4-0.6-1-0.6-1.7L263.9,234.8L263.9,234.8z"/>
		<path d="M269.5,230.7h0.8v1.4h0.8v0.6h-0.8v3.2c0,0.2,0.1,0.2,0.2,0.3c0.1,0,0.2,0.1,0.3,0.1c0,0,0.1,0,0.2,0s0.1,0,0.2,0v0.6
			c-0.1,0-0.2,0.1-0.3,0.1c-0.1,0-0.2,0-0.3,0c-0.4,0-0.6-0.1-0.8-0.3c-0.2-0.2-0.2-0.5-0.2-0.7v-3.2h-0.6v-0.6h0.6L269.5,230.7
			L269.5,230.7z"/>
		<path d="M275.5,232.6c0.4,0.4,0.6,1.1,0.6,1.9c0,0.8-0.2,1.5-0.6,1.9s-1,0.7-1.8,0.7c-0.6,0-1.2-0.2-1.5-0.6
			c-0.4-0.5-0.6-1.1-0.6-1.8c0-0.8,0.2-1.5,0.6-1.9c0.4-0.5,1-0.7,1.6-0.7C274.5,232,275,232.2,275.5,232.6z M274.9,235.8
			c0.2-0.4,0.3-0.9,0.3-1.4c0-0.5-0.1-0.8-0.2-1.1c-0.2-0.5-0.6-0.6-1.1-0.6s-0.8,0.2-1.1,0.6s-0.3,0.8-0.3,1.4c0,0.5,0.1,1,0.3,1.3
			s0.6,0.5,1.1,0.5C274.4,236.4,274.8,236.2,274.9,235.8z"/>
		<path d="M277.1,232.1h0.8v0.8c0.1-0.2,0.2-0.3,0.5-0.6c0.2-0.2,0.6-0.3,0.9-0.3c0,0,0,0,0.1,0s0.1,0,0.2,0v0.9c-0.1,0-0.1,0-0.2,0
			s-0.1,0-0.2,0c-0.4,0-0.7,0.2-1,0.4c-0.2,0.2-0.3,0.6-0.3,0.9v2.8h-0.8V232.1L277.1,232.1z"/>
		<path d="M282.8,234c0.2,0,0.3-0.1,0.4-0.2c0-0.1,0.1-0.2,0.1-0.3c0-0.2-0.1-0.5-0.3-0.6c-0.2-0.2-0.5-0.2-0.8-0.2
			c-0.4,0-0.7,0.1-0.9,0.3c-0.1,0.2-0.2,0.3-0.2,0.6h-0.7c0-0.6,0.2-1.1,0.6-1.2c0.4-0.2,0.8-0.3,1.3-0.3c0.6,0,1.1,0.1,1.4,0.3
			c0.3,0.2,0.6,0.6,0.6,1.1v2.8c0,0.1,0,0.2,0.1,0.2c0,0.1,0.1,0.1,0.2,0.1c0,0,0.1,0,0.2,0c0.1,0,0.1,0,0.2,0v0.6
			c-0.2,0-0.2,0.1-0.3,0.1c-0.1,0-0.2,0-0.2,0c-0.2,0-0.5-0.1-0.6-0.3c-0.1-0.1-0.1-0.2-0.2-0.5c-0.2,0.2-0.4,0.4-0.7,0.6
			c-0.3,0.2-0.6,0.2-1.1,0.2c-0.5,0-0.8-0.2-1.1-0.4c-0.3-0.2-0.4-0.6-0.4-1.1c0-0.5,0.2-0.8,0.4-1.1c0.2-0.2,0.6-0.4,1.1-0.5
			L282.8,234z M281.1,236.2c0.2,0.2,0.4,0.2,0.6,0.2c0.3,0,0.6-0.1,0.8-0.2c0.5-0.2,0.6-0.6,0.6-1.1v-0.6c-0.1,0.1-0.2,0.1-0.4,0.2
			c-0.2,0.1-0.3,0.1-0.5,0.1l-0.5,0.1c-0.3,0-0.5,0.1-0.6,0.2c-0.2,0.2-0.4,0.4-0.4,0.6C280.8,235.9,280.9,236.1,281.1,236.2z"/>
		<path d="M288,232.3c0.2,0.1,0.3,0.2,0.5,0.5v-0.6h0.7v4.4c0,0.6-0.1,1.1-0.2,1.5c-0.3,0.6-1,1-1.9,1c-0.5,0-1-0.1-1.3-0.3
			c-0.3-0.2-0.6-0.6-0.6-1.1h0.8c0,0.2,0.1,0.4,0.2,0.5c0.2,0.2,0.5,0.2,0.9,0.2c0.6,0,1.1-0.2,1.2-0.6c0.1-0.2,0.2-0.7,0.2-1.4
			c-0.2,0.2-0.3,0.4-0.6,0.6c-0.2,0.1-0.6,0.2-0.9,0.2c-0.5,0-1-0.2-1.4-0.6s-0.6-1-0.6-1.9c0-0.8,0.2-1.5,0.6-1.9
			c0.4-0.5,0.9-0.6,1.5-0.6C287.4,232,287.7,232.1,288,232.3z M288.1,233.2c-0.2-0.3-0.6-0.4-1-0.4c-0.6,0-1,0.2-1.1,0.8
			c-0.1,0.3-0.2,0.6-0.2,1.1c0,0.6,0.1,1,0.3,1.2c0.2,0.3,0.5,0.4,0.9,0.4c0.6,0,1-0.2,1.2-0.8c0.2-0.3,0.2-0.6,0.2-1.1
			C288.5,233.9,288.4,233.5,288.1,233.2z"/>
		<path d="M293.5,232.2c0.3,0.2,0.6,0.4,0.7,0.6s0.2,0.6,0.3,0.9c0.1,0.2,0.1,0.6,0.1,1.1H291c0,0.5,0.2,0.9,0.3,1.2
			c0.2,0.3,0.6,0.5,1,0.5s0.7-0.2,1-0.4c0.2-0.2,0.2-0.3,0.3-0.6h0.8c0,0.2-0.1,0.4-0.2,0.6c-0.1,0.2-0.2,0.4-0.4,0.6
			c-0.2,0.2-0.6,0.4-0.9,0.5c-0.2,0.1-0.4,0.1-0.6,0.1c-0.6,0-1.1-0.2-1.5-0.6s-0.6-1.1-0.6-1.9c0-0.8,0.2-1.4,0.6-1.9
			c0.4-0.5,1-0.7,1.6-0.7C292.8,232,293.1,232,293.5,232.2z M293.8,234.1c0-0.3-0.1-0.6-0.2-0.8c-0.2-0.4-0.6-0.6-1.1-0.6
			c-0.4,0-0.6,0.2-1,0.4c-0.2,0.2-0.4,0.6-0.4,1.1L293.8,234.1L293.8,234.1z"/>
	</g>
	
		<linearGradient id="SVGID_3_" gradientUnits="userSpaceOnUse" x1="241.5033" y1="3164.1892" x2="259.8823" y2="3164.1892" gradientTransform="matrix(1 0 0 1 0 -2993)">
		<stop  offset="0" style="stop-color:#CCE0F4"/>
		<stop  offset="0" style="stop-color:#CDD8EB"/>
		<stop  offset="0" style="stop-color:#D0C4D1"/>
		<stop  offset="0" style="stop-color:#D5A3A8"/>
		<stop  offset="0" style="stop-color:#DB756F"/>
		<stop  offset="0" style="stop-color:#E05243"/>
		<stop  offset="0.1406" style="stop-color:#E05243"/>
		<stop  offset="0.9947" style="stop-color:#E05243"/>
	</linearGradient>
	<path class="st11" d="M289.3,198.7c-15.9,0-31.9,0-47.8,0c0-0.2,0-0.3,0-0.5c0-17.2,0-34.5,0-51.8c0-0.7,0-1.5,0-2.3
		c0-0.3,0.1-0.5,0.4-0.5c0.1,0,0.2,0,0.3,0c15.4,0,30.8,0,46.2,0c0.7,0,0.7,0,0.7,0.7c0,17.9,0,35.8,0.1,53.6
		C289.3,198.3,289.3,198.5,289.3,198.7z"/>
	<g>
		
			<linearGradient id="SVGID_4_" gradientUnits="userSpaceOnUse" x1="242.328" y1="3128.9136" x2="288.2027" y2="3128.9136" gradientTransform="matrix(1 0 0 1 0 -2993)">
			<stop  offset="0" style="stop-color:#CCE0F4"/>
			<stop  offset="0" style="stop-color:#CDD8EB"/>
			<stop  offset="0" style="stop-color:#D0C4D1"/>
			<stop  offset="0" style="stop-color:#D5A3A8"/>
			<stop  offset="0" style="stop-color:#DB756F"/>
			<stop  offset="0" style="stop-color:#E05243"/>
			<stop  offset="0.1406" style="stop-color:#E05243"/>
			<stop  offset="0.9947" style="stop-color:#E05243"/>
		</linearGradient>
		<path class="st12" d="M288.1,140.4c-0.2,0-0.4,0-0.6,0c-15,0-45.2,0-45.2,0v-0.6v-1.9c0,0,0,0,0-0.1c0.2-0.2,1.2-1.3,1.2-1.3
			l5.3-4.9c0,0,0.4-0.2,0.6-0.2c10.6,0,21.2,0,31.8,0c0.2,0,0.5,0.1,0.6,0.2c2,2,4,4,6,6.1c0.1,0.1,0.2,0.2,0.2,0.3
			C288.1,138.8,288.1,139.6,288.1,140.4z"/>
		<g id="darker_bars_4_">
			<rect x="242.3" y="137.9" class="st6" width="45.8" height="2.4"/>
			<rect x="241.5" y="196.3" class="st6" width="47.8" height="2.4"/>
		</g>
	</g>
	<g>
		<path id="path12_5_" class="st7" d="M268.3,207v-0.8c0-0.2,0.1-0.2,0.2-0.2h3.6c0.1,0,0.2,0.1,0.2,0.2v0.7c0,0.1-0.1,0.2-0.2,0.5
			l-1.9,2.8c0.7,0,1.5,0.1,2.1,0.5c0.2,0.1,0.2,0.2,0.2,0.3v0.9c0,0.1-0.2,0.2-0.2,0.2c-1.1-0.6-2.6-0.6-3.9,0
			c-0.2,0.1-0.2-0.1-0.2-0.2v-0.8c0-0.2,0-0.3,0.2-0.6l2.2-3.2h-1.9C268.5,207.2,268.3,207.1,268.3,207"/>
		<path id="path14_5_" class="st7" d="M254.9,212.1h-1.1c-0.1,0-0.2-0.1-0.2-0.2v-5.7c0-0.1,0.1-0.2,0.2-0.2h1.1
			c0.1,0,0.2,0.1,0.2,0.2v0.7l0,0c0.2-0.7,0.8-1.1,1.5-1.1c0.7,0,1.1,0.3,1.5,1.1c0.2-0.7,0.9-1.1,1.5-1.1c0.5,0,1,0.2,1.3,0.6
			c0.3,0.5,0.2,1.2,0.2,1.8v3.6c0,0.1-0.1,0.2-0.2,0.2h-1.1c-0.1,0-0.2-0.1-0.2-0.2v-3.1c0-0.2,0-0.8,0-1.1
			c-0.1-0.4-0.3-0.5-0.6-0.5c-0.2,0-0.6,0.2-0.6,0.5c-0.1,0.3-0.1,0.8-0.1,1.1v3.1c0,0.1-0.1,0.2-0.2,0.2h-1.1
			c-0.1,0-0.2-0.1-0.2-0.2v-3.1c0-0.6,0.1-1.6-0.6-1.6c-0.8,0-0.8,0.9-0.8,1.6v3.1C255.2,212,255.1,212.1,254.9,212.1"/>
		<path id="path16_5_" class="st7" d="M275.6,205.9c1.6,0,2.6,1.5,2.6,3.2s-1,3.2-2.6,3.2s-2.5-1.5-2.5-3.2
			C273.1,207.3,274,205.9,275.6,205.9 M275.6,207c-0.8,0-0.9,1.1-0.9,1.8c0,0.7,0,2.2,0.9,2.2s0.9-1.2,0.9-1.9c0-0.5,0-1.1-0.2-1.5
			C276.1,207.2,275.9,207,275.6,207"/>
		<path id="path18_5_" class="st7" d="M280.3,212.1h-1.1c-0.1,0-0.2-0.1-0.2-0.2v-5.7c0-0.1,0.1-0.2,0.2-0.2h1.1
			c0.1,0,0.2,0.1,0.2,0.2v0.9l0,0c0.3-0.8,0.7-1.1,1.5-1.1c0.5,0,1,0.2,1.3,0.6c0.3,0.5,0.3,1.2,0.3,1.8v3.6c0,0.1-0.1,0.2-0.2,0.2
			h-1.1c-0.1,0-0.2-0.1-0.2-0.2v-3.1c0-0.6,0.1-1.5-0.7-1.5c-0.2,0-0.5,0.2-0.6,0.5c-0.2,0.3-0.2,0.7-0.2,1.1v3.1
			C280.5,212,280.4,212.1,280.3,212.1"/>
		<path id="path28_5_" class="st7" d="M265.4,209.4c0,0.4,0,0.8-0.2,1.2c-0.2,0.3-0.5,0.5-0.8,0.5c-0.4,0-0.6-0.3-0.6-0.8
			c0-1,0.9-1.1,1.7-1.1L265.4,209.4 M266.5,212.1c-0.1,0.1-0.2,0.1-0.2,0c-0.4-0.3-0.4-0.5-0.6-0.7c-0.6,0.6-1.1,0.8-1.9,0.8
			c-1,0-1.7-0.6-1.7-1.7c0-0.9,0.5-1.5,1.2-1.9c0.6-0.2,1.5-0.3,2.1-0.4v-0.2c0-0.2,0-0.6-0.2-0.8c-0.2-0.2-0.4-0.3-0.6-0.3
			c-0.4,0-0.8,0.2-0.9,0.6c0,0.1-0.1,0.2-0.2,0.2l-1.1-0.1c-0.1,0-0.2-0.1-0.2-0.2c0.2-1.3,1.5-1.7,2.5-1.7c0.6,0,1.2,0.2,1.7,0.6
			c0.6,0.5,0.5,1.2,0.5,1.9v1.7c0,0.5,0.2,0.7,0.4,1.1c0.1,0.1,0.1,0.2,0,0.3C267.2,211.6,266.8,211.9,266.5,212.1L266.5,212.1"/>
		<path id="path30_5_" class="st7" d="M250.8,209.4c0,0.4,0,0.8-0.2,1.2c-0.2,0.3-0.5,0.5-0.8,0.5c-0.4,0-0.6-0.3-0.6-0.8
			c0-1,0.9-1.1,1.6-1.1L250.8,209.4 M251.9,212.1c-0.1,0.1-0.2,0.1-0.2,0c-0.4-0.3-0.4-0.5-0.6-0.7c-0.6,0.6-1.1,0.8-1.9,0.8
			c-1,0-1.7-0.6-1.7-1.7c0-0.9,0.5-1.5,1.2-1.9c0.6-0.2,1.5-0.3,2.1-0.4v-0.2c0-0.2,0-0.6-0.2-0.8c-0.2-0.2-0.4-0.3-0.6-0.3
			c-0.4,0-0.8,0.2-0.9,0.6c0,0.1-0.1,0.2-0.2,0.2l-1.1-0.1c-0.1,0-0.2-0.1-0.2-0.2c0.2-1.3,1.5-1.7,2.5-1.7c0.6,0,1.2,0.2,1.7,0.6
			c0.6,0.5,0.5,1.2,0.5,1.9v1.7c0,0.5,0.2,0.7,0.4,1.1c0.1,0.1,0.1,0.2,0,0.3C252.5,211.6,252.1,211.9,251.9,212.1L251.9,212.1"/>
	</g>
</g>
<g>
	<g>
		<path d="M442.4,217.3H439v1.4h3.2v1.1H439v1.7h3.6v1.1h-4.9v-6.5h4.8V217.3L442.4,217.3z"/>
		<path d="M448.4,216.9c0.2,0.2,0.3,0.6,0.3,1c0,0.4-0.1,0.7-0.3,1c-0.1,0.2-0.2,0.2-0.5,0.4c0.3,0.1,0.6,0.3,0.7,0.6s0.2,0.6,0.2,1
			s-0.1,0.7-0.3,1.1c-0.2,0.2-0.2,0.4-0.5,0.5c-0.2,0.2-0.5,0.2-0.7,0.3s-0.6,0.1-0.9,0.1h-2.9v-6.5h3.2
			C447.6,216.2,448.1,216.5,448.4,216.9z M444.9,217.3v1.5h1.5c0.2,0,0.5-0.1,0.6-0.2c0.2-0.1,0.2-0.3,0.2-0.6
			c0-0.3-0.1-0.5-0.3-0.6c-0.2-0.1-0.5-0.1-0.7-0.1L444.9,217.3L444.9,217.3z M444.9,219.9v1.7h1.5c0.2,0,0.5,0,0.6-0.1
			c0.3-0.2,0.4-0.4,0.4-0.8c0-0.3-0.2-0.6-0.4-0.7c-0.2-0.1-0.4-0.1-0.6-0.1H444.9z"/>
		<path d="M451.1,220.7c0.1,0.3,0.2,0.5,0.2,0.6c0.2,0.2,0.6,0.4,1.1,0.4c0.3,0,0.6,0,0.8-0.1c0.4-0.2,0.6-0.4,0.6-0.7
			c0-0.2-0.1-0.4-0.2-0.5s-0.5-0.2-0.9-0.3l-0.7-0.2c-0.6-0.2-1.1-0.3-1.5-0.5c-0.4-0.3-0.6-0.7-0.6-1.4c0-0.6,0.2-1.1,0.6-1.5
			c0.4-0.4,1.1-0.6,1.9-0.6c0.7,0,1.3,0.2,1.8,0.6c0.5,0.3,0.7,0.9,0.7,1.5h-1.3c0-0.4-0.2-0.6-0.5-0.8c-0.2-0.1-0.5-0.2-0.8-0.2
			s-0.6,0.1-0.9,0.2c-0.2,0.2-0.3,0.3-0.3,0.6s0.1,0.4,0.3,0.5c0.2,0.1,0.4,0.2,0.9,0.2l1.1,0.2c0.5,0.1,0.9,0.2,1.1,0.5
			c0.4,0.3,0.6,0.7,0.6,1.3s-0.2,1.1-0.6,1.5c-0.4,0.4-1.1,0.6-1.9,0.6c-0.9,0-1.5-0.2-2-0.6c-0.5-0.4-0.7-0.9-0.7-1.6L451.1,220.7
			L451.1,220.7L451.1,220.7z"/>
	</g>
	<g>
		<path d="M418,230.4h2.8c0.8,0,1.4,0.2,1.7,0.7c0.2,0.2,0.3,0.6,0.3,1s-0.1,0.7-0.3,1.1c-0.2,0.2-0.3,0.2-0.6,0.4
			c0.3,0.2,0.6,0.2,0.7,0.4c0.3,0.3,0.5,0.7,0.5,1.2c0,0.4-0.2,0.8-0.4,1.1c-0.4,0.5-1.1,0.8-1.9,0.8H418V230.4L418,230.4z
			 M420.6,233.1c0.4,0,0.6-0.1,0.9-0.2c0.3-0.2,0.5-0.5,0.5-0.9s-0.2-0.7-0.6-0.9c-0.2-0.1-0.5-0.2-0.9-0.2h-1.6v2L420.6,233.1
			L420.6,233.1L420.6,233.1z M420.9,236.2c0.6,0,1-0.2,1.2-0.5c0.2-0.2,0.2-0.5,0.2-0.7c0-0.5-0.2-0.8-0.6-1
			c-0.2-0.1-0.6-0.2-0.9-0.2H419v2.3H420.9L420.9,236.2z"/>
		<path d="M424.1,230.4h0.8v6.6h-0.8V230.4z"/>
		<path d="M429.7,232.6c0.4,0.4,0.6,1.1,0.6,1.9s-0.2,1.5-0.6,1.9c-0.4,0.5-1,0.7-1.8,0.7c-0.6,0-1.2-0.2-1.5-0.6
			c-0.4-0.5-0.6-1.1-0.6-1.8c0-0.8,0.2-1.5,0.6-1.9s1-0.7,1.6-0.7C428.7,232,429.2,232.2,429.7,232.6z M429.1,235.9
			c0.2-0.4,0.3-0.9,0.3-1.4s-0.1-0.8-0.2-1.1c-0.2-0.5-0.6-0.6-1.1-0.6c-0.5,0-0.8,0.2-1.1,0.6c-0.2,0.4-0.3,0.8-0.3,1.4
			c0,0.5,0.1,1,0.3,1.3c0.2,0.3,0.6,0.5,1.1,0.5C428.6,236.4,429,236.3,429.1,235.9z"/>
		<path d="M434.5,232.4c0.3,0.2,0.6,0.7,0.6,1.4h-0.8c-0.1-0.3-0.2-0.6-0.3-0.7c-0.2-0.2-0.5-0.3-0.8-0.3c-0.5,0-0.9,0.2-1.1,0.7
			c-0.2,0.3-0.2,0.7-0.2,1.2c0,0.5,0.1,0.9,0.3,1.2c0.2,0.3,0.6,0.5,1,0.5c0.3,0,0.6-0.1,0.8-0.3c0.2-0.2,0.3-0.5,0.4-0.8h0.8
			c-0.1,0.6-0.3,1.1-0.6,1.4c-0.3,0.3-0.8,0.5-1.4,0.5c-0.6,0-1.1-0.2-1.5-0.7c-0.4-0.5-0.6-1.1-0.6-1.7c0-0.9,0.2-1.5,0.6-2
			c0.4-0.5,1-0.7,1.6-0.7C433.8,232,434.2,232.2,434.5,232.4z"/>
		<path d="M435.9,230.4h0.8v3.9l2.1-2h1.1L438,234l1.9,3.1h-1.1l-1.5-2.4l-0.6,0.6v1.8h-0.8L435.9,230.4L435.9,230.4z"/>
		<path d="M443.9,234.8c0,0.4,0.1,0.6,0.2,0.9c0.3,0.4,0.8,0.6,1.5,0.6c0.3,0,0.6-0.1,0.9-0.2c0.5-0.2,0.8-0.5,0.8-1
			c0-0.3-0.1-0.6-0.3-0.8c-0.2-0.2-0.6-0.2-1.1-0.4l-0.9-0.2c-0.6-0.2-1-0.2-1.2-0.4c-0.4-0.2-0.6-0.7-0.6-1.2
			c0-0.6,0.2-1.1,0.6-1.5s1-0.6,1.7-0.6c0.6,0,1.2,0.2,1.7,0.5c0.5,0.3,0.7,0.9,0.7,1.6h-0.8c-0.1-0.3-0.2-0.6-0.2-0.8
			c-0.2-0.3-0.7-0.5-1.4-0.5c-0.5,0-0.9,0.1-1.1,0.3c-0.2,0.2-0.3,0.5-0.3,0.8s0.2,0.6,0.4,0.7c0.2,0.1,0.6,0.2,1.1,0.3l0.9,0.2
			c0.4,0.1,0.8,0.2,1,0.4c0.4,0.3,0.6,0.7,0.6,1.4c0,0.7-0.2,1.3-0.8,1.6c-0.5,0.3-1.1,0.5-1.8,0.5c-0.8,0-1.5-0.2-1.9-0.6
			c-0.5-0.4-0.6-1-0.6-1.7L443.9,234.8L443.9,234.8z"/>
		<path d="M449.4,230.8h0.8v1.4h0.8v0.6h-0.8v3.2c0,0.2,0.1,0.2,0.2,0.3c0.1,0,0.2,0.1,0.3,0.1c0,0,0.1,0,0.2,0c0.1,0,0.1,0,0.2,0
			v0.6c-0.1,0-0.2,0.1-0.3,0.1c-0.1,0-0.2,0-0.3,0c-0.4,0-0.6-0.1-0.8-0.3c-0.2-0.2-0.2-0.5-0.2-0.7v-3.2h-0.6v-0.6h0.6L449.4,230.8
			L449.4,230.8z"/>
		<path d="M455.4,232.6c0.4,0.4,0.6,1.1,0.6,1.9s-0.2,1.5-0.6,1.9c-0.4,0.5-1,0.7-1.8,0.7c-0.6,0-1.2-0.2-1.5-0.6
			c-0.4-0.5-0.6-1.1-0.6-1.8c0-0.8,0.2-1.5,0.6-1.9s1-0.7,1.6-0.7C454.5,232,454.9,232.2,455.4,232.6z M454.9,235.9
			c0.2-0.4,0.3-0.9,0.3-1.4s-0.1-0.8-0.2-1.1c-0.2-0.5-0.6-0.6-1.1-0.6c-0.5,0-0.8,0.2-1.1,0.6c-0.2,0.4-0.3,0.8-0.3,1.4
			c0,0.5,0.1,1,0.3,1.3s0.6,0.5,1.1,0.5C454.3,236.4,454.7,236.3,454.9,235.9z"/>
		<path d="M457.1,232.2h0.8v0.8c0.1-0.2,0.2-0.3,0.5-0.6c0.2-0.2,0.6-0.3,0.9-0.3c0,0,0,0,0.1,0c0.1,0,0.1,0,0.2,0v0.9
			c-0.1,0-0.1,0-0.2,0c-0.1,0-0.1,0-0.2,0c-0.4,0-0.7,0.2-1,0.4c-0.2,0.2-0.3,0.6-0.3,0.9v2.8h-0.8V232.2L457.1,232.2z"/>
		<path d="M462.7,234c0.2,0,0.3-0.1,0.4-0.2c0-0.1,0.1-0.2,0.1-0.3c0-0.2-0.1-0.5-0.3-0.6c-0.2-0.2-0.5-0.2-0.8-0.2
			c-0.4,0-0.7,0.1-0.9,0.3c-0.1,0.2-0.2,0.3-0.2,0.6h-0.7c0-0.6,0.2-1.1,0.6-1.2c0.4-0.2,0.8-0.3,1.3-0.3c0.6,0,1.1,0.1,1.4,0.3
			c0.3,0.2,0.6,0.6,0.6,1.1v2.8c0,0.1,0,0.2,0.1,0.2c0,0.1,0.1,0.1,0.2,0.1c0,0,0.1,0,0.2,0s0.1,0,0.2,0v0.6c-0.2,0-0.2,0.1-0.3,0.1
			s-0.2,0-0.2,0c-0.2,0-0.5-0.1-0.6-0.3c-0.1-0.1-0.1-0.2-0.2-0.5c-0.2,0.2-0.4,0.4-0.7,0.6c-0.3,0.2-0.6,0.2-1.1,0.2
			c-0.5,0-0.8-0.2-1.1-0.4c-0.3-0.2-0.4-0.6-0.4-1.1c0-0.5,0.2-0.8,0.4-1.1c0.2-0.2,0.6-0.4,1.1-0.5L462.7,234z M461,236.3
			c0.2,0.2,0.4,0.2,0.6,0.2c0.3,0,0.6-0.1,0.8-0.2c0.5-0.2,0.6-0.6,0.6-1.1v-0.6c-0.1,0.1-0.2,0.1-0.4,0.2c-0.2,0.1-0.3,0.1-0.5,0.1
			l-0.5,0.1c-0.3,0-0.5,0.1-0.6,0.2c-0.2,0.2-0.4,0.4-0.4,0.6C460.8,236,460.9,236.1,461,236.3z"/>
		<path d="M468,232.3c0.2,0.1,0.3,0.2,0.5,0.5v-0.6h0.7v4.4c0,0.6-0.1,1.1-0.2,1.5c-0.3,0.6-1,1-1.9,1c-0.5,0-1-0.1-1.3-0.3
			c-0.3-0.2-0.6-0.6-0.6-1.1h0.8c0,0.2,0.1,0.4,0.2,0.5c0.2,0.2,0.5,0.2,0.9,0.2c0.6,0,1.1-0.2,1.2-0.6c0.1-0.2,0.2-0.7,0.2-1.4
			c-0.2,0.2-0.3,0.4-0.6,0.6c-0.2,0.1-0.6,0.2-0.9,0.2c-0.5,0-1-0.2-1.4-0.6c-0.4-0.4-0.6-1-0.6-1.9c0-0.8,0.2-1.5,0.6-1.9
			c0.4-0.5,0.9-0.6,1.5-0.6C467.3,232.1,467.7,232.2,468,232.3z M468.1,233.2c-0.2-0.3-0.6-0.4-1-0.4c-0.6,0-1,0.2-1.1,0.8
			c-0.1,0.3-0.2,0.6-0.2,1.1c0,0.6,0.1,1,0.3,1.2c0.2,0.3,0.5,0.4,0.9,0.4c0.6,0,1-0.2,1.2-0.8c0.2-0.3,0.2-0.6,0.2-1.1
			C468.5,233.9,468.3,233.5,468.1,233.2z"/>
		<path d="M473.4,232.2c0.3,0.2,0.6,0.4,0.7,0.6c0.2,0.2,0.2,0.6,0.3,0.9c0.1,0.2,0.1,0.6,0.1,1.1H471c0,0.5,0.2,0.9,0.3,1.2
			c0.2,0.3,0.6,0.5,1,0.5c0.4,0,0.7-0.2,1-0.4c0.2-0.2,0.2-0.3,0.3-0.6h0.8c0,0.2-0.1,0.4-0.2,0.6c-0.1,0.2-0.2,0.4-0.4,0.6
			c-0.2,0.2-0.6,0.4-0.9,0.5c-0.2,0.1-0.4,0.1-0.6,0.1c-0.6,0-1.1-0.2-1.5-0.6s-0.6-1.1-0.6-1.9s0.2-1.4,0.6-1.9
			c0.4-0.5,1-0.7,1.6-0.7C472.7,232,473.1,232.1,473.4,232.2z M473.7,234.2c0-0.3-0.1-0.6-0.2-0.8c-0.2-0.4-0.6-0.6-1.1-0.6
			c-0.4,0-0.6,0.2-1,0.4c-0.2,0.2-0.4,0.6-0.4,1.1L473.7,234.2L473.7,234.2z"/>
	</g>
	
		<linearGradient id="SVGID_5_" gradientUnits="userSpaceOnUse" x1="421.4369" y1="3164.2288" x2="439.8159" y2="3164.2288" gradientTransform="matrix(1 0 0 1 0 -2993)">
		<stop  offset="0" style="stop-color:#CCE0F4"/>
		<stop  offset="0" style="stop-color:#CDD8EB"/>
		<stop  offset="0" style="stop-color:#D0C4D1"/>
		<stop  offset="0" style="stop-color:#D5A3A8"/>
		<stop  offset="0" style="stop-color:#DB756F"/>
		<stop  offset="0" style="stop-color:#E05243"/>
		<stop  offset="0.1406" style="stop-color:#E05243"/>
		<stop  offset="0.9947" style="stop-color:#E05243"/>
	</linearGradient>
	<path class="st13" d="M469.2,198.7c-15.9,0-31.9,0-47.8,0c0-0.2,0-0.3,0-0.5c0-17.2,0-34.5,0-51.8c0-0.7,0-1.5,0-2.3
		c0-0.3,0.1-0.5,0.4-0.5c0.1,0,0.2,0,0.3,0c15.4,0,30.8,0,46.2,0c0.7,0,0.7,0,0.7,0.7c0,17.9,0,35.8,0.1,53.6
		C469.2,198.3,469.2,198.5,469.2,198.7z"/>
	<g>
		
			<linearGradient id="SVGID_6_" gradientUnits="userSpaceOnUse" x1="422.2617" y1="3128.9531" x2="468.1363" y2="3128.9531" gradientTransform="matrix(1 0 0 1 0 -2993)">
			<stop  offset="0" style="stop-color:#CCE0F4"/>
			<stop  offset="0" style="stop-color:#CDD8EB"/>
			<stop  offset="0" style="stop-color:#D0C4D1"/>
			<stop  offset="0" style="stop-color:#D5A3A8"/>
			<stop  offset="0" style="stop-color:#DB756F"/>
			<stop  offset="0" style="stop-color:#E05243"/>
			<stop  offset="0.1406" style="stop-color:#E05243"/>
			<stop  offset="0.9947" style="stop-color:#E05243"/>
		</linearGradient>
		<path class="st14" d="M468.1,140.5c-0.2,0-0.4,0-0.6,0c-15,0-45.2,0-45.2,0v-0.6V138c0,0,0,0,0-0.1c0.2-0.2,1.2-1.3,1.2-1.3
			l5.3-4.9c0,0,0.4-0.2,0.6-0.2c10.6,0,21.2,0,31.8,0c0.2,0,0.5,0.1,0.6,0.2c2,2,4,4,6,6.1c0.1,0.1,0.2,0.2,0.2,0.3
			C468.1,138.9,468.1,139.6,468.1,140.5z"/>
		<g id="darker_bars_2_">
			<rect x="422.3" y="138" class="st6" width="45.8" height="2.4"/>
			<rect x="421.5" y="196.3" class="st6" width="47.8" height="2.4"/>
		</g>
	</g>
	<g>
		<path id="path12_3_" class="st7" d="M448.2,207.1v-0.8c0-0.2,0.1-0.2,0.2-0.2h3.6c0.1,0,0.2,0.1,0.2,0.2v0.7
			c0,0.1-0.1,0.2-0.2,0.5l-1.9,2.8c0.7,0,1.5,0.1,2.1,0.5c0.2,0.1,0.2,0.2,0.2,0.3v0.9c0,0.1-0.2,0.2-0.2,0.2
			c-1.1-0.6-2.6-0.6-3.9,0c-0.2,0.1-0.2-0.1-0.2-0.2v-0.8c0-0.2,0-0.3,0.2-0.6l2.2-3.2h-1.9C448.4,207.2,448.2,207.2,448.2,207.1"/>
		<path id="path14_3_" class="st7" d="M434.9,212.2h-1.1c-0.1,0-0.2-0.1-0.2-0.2v-5.7c0-0.1,0.1-0.2,0.2-0.2h1.1
			c0.1,0,0.2,0.1,0.2,0.2v0.7l0,0c0.2-0.7,0.8-1.1,1.5-1.1c0.7,0,1.1,0.3,1.5,1.1c0.2-0.7,0.9-1.1,1.5-1.1c0.5,0,1,0.2,1.3,0.6
			c0.3,0.5,0.2,1.2,0.2,1.8v3.6c0,0.1-0.1,0.2-0.2,0.2h-1.1c-0.1,0-0.2-0.1-0.2-0.2v-3.1c0-0.2,0-0.8,0-1.1
			c-0.1-0.4-0.3-0.5-0.6-0.5c-0.2,0-0.6,0.2-0.6,0.5c-0.1,0.3-0.1,0.8-0.1,1.1v3.1c0,0.1-0.1,0.2-0.2,0.2h-1.1
			c-0.1,0-0.2-0.1-0.2-0.2v-3.1c0-0.6,0.1-1.6-0.6-1.6c-0.8,0-0.8,0.9-0.8,1.6v3.1C435.1,212.1,435,212.2,434.9,212.2"/>
		<path id="path16_3_" class="st7" d="M455.5,205.9c1.6,0,2.6,1.5,2.6,3.2c0,1.8-1,3.2-2.6,3.2c-1.6,0-2.5-1.5-2.5-3.2
			C453,207.3,453.9,205.9,455.5,205.9 M455.5,207.1c-0.8,0-0.9,1.1-0.9,1.8c0,0.7,0,2.2,0.9,2.2s0.9-1.2,0.9-1.9
			c0-0.5,0-1.1-0.2-1.5C456.1,207.2,455.8,207.1,455.5,207.1"/>
		<path id="path18_3_" class="st7" d="M460.2,212.2h-1.1c-0.1,0-0.2-0.1-0.2-0.2v-5.7c0-0.1,0.1-0.2,0.2-0.2h1.1
			c0.1,0,0.2,0.1,0.2,0.2v0.9l0,0c0.3-0.8,0.7-1.1,1.5-1.1c0.5,0,1,0.2,1.3,0.6c0.3,0.5,0.3,1.2,0.3,1.8v3.6c0,0.1-0.1,0.2-0.2,0.2
			h-1.1c-0.1,0-0.2-0.1-0.2-0.2v-3.1c0-0.6,0.1-1.5-0.7-1.5c-0.2,0-0.5,0.2-0.6,0.5c-0.2,0.3-0.2,0.7-0.2,1.1v3.1
			C460.5,212.1,460.3,212.2,460.2,212.2"/>
		<path id="path28_3_" class="st7" d="M445.3,209.4c0,0.4,0,0.8-0.2,1.2c-0.2,0.3-0.5,0.5-0.8,0.5c-0.4,0-0.6-0.3-0.6-0.8
			c0-1,0.9-1.1,1.7-1.1L445.3,209.4 M446.5,212.2c-0.1,0.1-0.2,0.1-0.2,0c-0.4-0.3-0.4-0.5-0.6-0.7c-0.6,0.6-1.1,0.8-1.9,0.8
			c-1,0-1.7-0.6-1.7-1.7c0-0.9,0.5-1.5,1.2-1.9c0.6-0.2,1.5-0.3,2.1-0.4v-0.2c0-0.2,0-0.6-0.2-0.8c-0.2-0.2-0.4-0.3-0.6-0.3
			c-0.4,0-0.8,0.2-0.9,0.6c0,0.1-0.1,0.2-0.2,0.2l-1.1-0.1c-0.1,0-0.2-0.1-0.2-0.2c0.2-1.3,1.5-1.7,2.5-1.7c0.6,0,1.2,0.2,1.7,0.6
			c0.6,0.5,0.5,1.2,0.5,1.9v1.7c0,0.5,0.2,0.7,0.4,1.1c0.1,0.1,0.1,0.2,0,0.3C447.1,211.6,446.7,211.9,446.5,212.2L446.5,212.2"/>
		<path id="path30_3_" class="st7" d="M430.8,209.4c0,0.4,0,0.8-0.2,1.2c-0.2,0.3-0.5,0.5-0.8,0.5c-0.4,0-0.6-0.3-0.6-0.8
			c0-1,0.9-1.1,1.6-1.1L430.8,209.4 M431.8,212.2c-0.1,0.1-0.2,0.1-0.2,0c-0.4-0.3-0.4-0.5-0.6-0.7c-0.6,0.6-1.1,0.8-1.9,0.8
			c-1,0-1.7-0.6-1.7-1.7c0-0.9,0.5-1.5,1.2-1.9c0.6-0.2,1.5-0.3,2.1-0.4v-0.2c0-0.2,0-0.6-0.2-0.8s-0.4-0.3-0.6-0.3
			c-0.4,0-0.8,0.2-0.9,0.6c0,0.1-0.1,0.2-0.2,0.2l-1.1-0.1c-0.1,0-0.2-0.1-0.2-0.2c0.2-1.3,1.5-1.7,2.5-1.7c0.6,0,1.2,0.2,1.7,0.6
			c0.6,0.5,0.5,1.2,0.5,1.9v1.7c0,0.5,0.2,0.7,0.4,1.1c0.1,0.1,0.1,0.2,0,0.3C432.5,211.6,432.1,211.9,431.8,212.2L431.8,212.2"/>
	</g>
</g>
<g>
	<g>
		<path d="M612.5,217.3h-3.4v1.4h3.2v1.1h-3.2v1.7h3.6v1.1h-4.9v-6.5h4.8L612.5,217.3L612.5,217.3z"/>
		<path d="M618.5,216.9c0.2,0.2,0.3,0.6,0.3,1c0,0.4-0.1,0.7-0.3,1c-0.1,0.2-0.2,0.2-0.5,0.4c0.3,0.1,0.6,0.3,0.7,0.6s0.2,0.6,0.2,1
			s-0.1,0.7-0.3,1.1c-0.2,0.2-0.2,0.4-0.5,0.5c-0.2,0.2-0.5,0.2-0.7,0.3c-0.2,0.1-0.6,0.1-0.9,0.1h-2.9v-6.5h3.2
			C617.7,216.2,618.2,216.5,618.5,216.9z M615,217.3v1.5h1.5c0.2,0,0.5-0.1,0.6-0.2c0.2-0.1,0.2-0.3,0.2-0.6c0-0.3-0.1-0.5-0.3-0.6
			c-0.2-0.1-0.5-0.1-0.7-0.1L615,217.3L615,217.3z M615,219.9v1.7h1.5c0.2,0,0.5,0,0.6-0.1c0.3-0.2,0.4-0.4,0.4-0.8
			c0-0.3-0.2-0.6-0.4-0.7c-0.2-0.1-0.4-0.1-0.6-0.1H615z"/>
		<path d="M621.2,220.7c0.1,0.3,0.2,0.5,0.2,0.6c0.2,0.2,0.6,0.4,1.1,0.4c0.3,0,0.6,0,0.8-0.1c0.4-0.2,0.6-0.4,0.6-0.7
			c0-0.2-0.1-0.4-0.2-0.5c-0.2-0.1-0.5-0.2-0.9-0.3l-0.7-0.2c-0.6-0.2-1.1-0.3-1.5-0.5c-0.4-0.3-0.6-0.7-0.6-1.4
			c0-0.6,0.2-1.1,0.6-1.5s1.1-0.6,1.9-0.6c0.7,0,1.3,0.2,1.8,0.6c0.5,0.3,0.7,0.9,0.7,1.5h-1.3c0-0.4-0.2-0.6-0.5-0.8
			c-0.2-0.1-0.5-0.2-0.8-0.2s-0.6,0.1-0.9,0.2c-0.2,0.2-0.3,0.3-0.3,0.6s0.1,0.4,0.3,0.5c0.2,0.1,0.4,0.2,0.9,0.2l1.1,0.2
			c0.5,0.1,0.9,0.2,1.1,0.5c0.4,0.3,0.6,0.7,0.6,1.3s-0.2,1.1-0.6,1.5c-0.4,0.4-1.1,0.6-1.9,0.6c-0.9,0-1.5-0.2-2-0.6
			c-0.5-0.4-0.7-0.9-0.7-1.6L621.2,220.7L621.2,220.7L621.2,220.7z"/>
	</g>
	<g>
		<path d="M588.1,230.4h2.8c0.8,0,1.4,0.2,1.7,0.7c0.2,0.2,0.3,0.6,0.3,1s-0.1,0.7-0.3,1.1c-0.2,0.2-0.3,0.2-0.6,0.4
			c0.3,0.2,0.6,0.2,0.7,0.4c0.3,0.3,0.5,0.7,0.5,1.2c0,0.4-0.2,0.8-0.4,1.1c-0.4,0.5-1.1,0.8-1.9,0.8h-2.8V230.4L588.1,230.4z
			 M590.7,233.1c0.4,0,0.6-0.1,0.9-0.2c0.3-0.2,0.5-0.5,0.5-0.9s-0.2-0.7-0.6-0.9c-0.2-0.1-0.5-0.2-0.9-0.2H589v2L590.7,233.1
			L590.7,233.1L590.7,233.1z M591,236.2c0.6,0,1-0.2,1.2-0.5c0.2-0.2,0.2-0.5,0.2-0.7c0-0.5-0.2-0.8-0.6-1c-0.2-0.1-0.6-0.2-0.9-0.2
			h-1.8v2.3H591L591,236.2z"/>
		<path d="M594.2,230.4h0.8v6.6h-0.8V230.4z"/>
		<path d="M599.8,232.6c0.4,0.4,0.6,1.1,0.6,1.9s-0.2,1.5-0.6,1.9c-0.4,0.5-1,0.7-1.8,0.7c-0.6,0-1.2-0.2-1.5-0.6
			c-0.4-0.5-0.6-1.1-0.6-1.8c0-0.8,0.2-1.5,0.6-1.9s1-0.7,1.6-0.7C598.8,232,599.3,232.2,599.8,232.6z M599.2,235.9
			c0.2-0.4,0.3-0.9,0.3-1.4s-0.1-0.8-0.2-1.1c-0.2-0.5-0.6-0.6-1.1-0.6c-0.5,0-0.8,0.2-1.1,0.6c-0.2,0.4-0.3,0.8-0.3,1.4
			c0,0.5,0.1,1,0.3,1.3c0.2,0.3,0.6,0.5,1.1,0.5S599.1,236.3,599.2,235.9z"/>
		<path d="M604.6,232.4c0.3,0.2,0.6,0.7,0.6,1.4h-0.8c-0.1-0.3-0.2-0.6-0.3-0.7c-0.2-0.2-0.5-0.3-0.8-0.3c-0.5,0-0.9,0.2-1.1,0.7
			c-0.2,0.3-0.2,0.7-0.2,1.2c0,0.5,0.1,0.9,0.3,1.2c0.2,0.3,0.6,0.5,1,0.5c0.3,0,0.6-0.1,0.8-0.3c0.2-0.2,0.3-0.5,0.4-0.8h0.8
			c-0.1,0.6-0.3,1.1-0.6,1.4c-0.3,0.3-0.8,0.5-1.4,0.5c-0.6,0-1.1-0.2-1.5-0.7c-0.4-0.5-0.6-1.1-0.6-1.7c0-0.9,0.2-1.5,0.6-2
			c0.4-0.5,1-0.7,1.6-0.7C603.9,232,604.3,232.2,604.6,232.4z"/>
		<path d="M606,230.4h0.8v3.9l2.1-2h1.1l-1.9,1.8l1.9,3.1H609l-1.5-2.4l-0.6,0.6v1.8H606L606,230.4L606,230.4z"/>
		<path d="M614,234.8c0,0.4,0.1,0.6,0.2,0.9c0.3,0.4,0.8,0.6,1.5,0.6c0.3,0,0.6-0.1,0.9-0.2c0.5-0.2,0.8-0.5,0.8-1
			c0-0.3-0.1-0.6-0.3-0.8c-0.2-0.2-0.6-0.2-1.1-0.4l-0.9-0.2c-0.6-0.2-1-0.2-1.2-0.4c-0.4-0.2-0.6-0.7-0.6-1.2
			c0-0.6,0.2-1.1,0.6-1.5s1-0.6,1.7-0.6c0.6,0,1.2,0.2,1.7,0.5c0.5,0.3,0.7,0.9,0.7,1.6h-0.8c-0.1-0.3-0.2-0.6-0.2-0.8
			c-0.2-0.3-0.7-0.5-1.4-0.5c-0.5,0-0.9,0.1-1.1,0.3c-0.2,0.2-0.3,0.5-0.3,0.8s0.2,0.6,0.4,0.7c0.2,0.1,0.6,0.2,1.1,0.3l0.9,0.2
			c0.4,0.1,0.8,0.2,1,0.4c0.4,0.3,0.6,0.7,0.6,1.4c0,0.7-0.2,1.3-0.8,1.6c-0.5,0.3-1.1,0.5-1.8,0.5c-0.8,0-1.5-0.2-1.9-0.6
			c-0.5-0.4-0.6-1-0.6-1.7L614,234.8L614,234.8z"/>
		<path d="M619.5,230.8h0.8v1.4h0.8v0.6h-0.8v3.2c0,0.2,0.1,0.2,0.2,0.3c0.1,0,0.2,0.1,0.3,0.1c0,0,0.1,0,0.2,0s0.1,0,0.2,0v0.6
			c-0.1,0-0.2,0.1-0.3,0.1c-0.1,0-0.2,0-0.3,0c-0.4,0-0.6-0.1-0.8-0.3c-0.2-0.2-0.2-0.5-0.2-0.7v-3.2h-0.6v-0.6h0.6L619.5,230.8
			L619.5,230.8z"/>
		<path d="M625.5,232.6c0.4,0.4,0.6,1.1,0.6,1.9s-0.2,1.5-0.6,1.9c-0.4,0.5-1,0.7-1.8,0.7c-0.6,0-1.2-0.2-1.5-0.6
			c-0.4-0.5-0.6-1.1-0.6-1.8c0-0.8,0.2-1.5,0.6-1.9s1-0.7,1.6-0.7C624.6,232,625,232.2,625.5,232.6z M625,235.9
			c0.2-0.4,0.3-0.9,0.3-1.4s-0.1-0.8-0.2-1.1c-0.2-0.5-0.6-0.6-1.1-0.6s-0.8,0.2-1.1,0.6c-0.2,0.4-0.3,0.8-0.3,1.4
			c0,0.5,0.1,1,0.3,1.3c0.2,0.3,0.6,0.5,1.1,0.5C624.4,236.4,624.8,236.3,625,235.9z"/>
		<path d="M627.2,232.2h0.8v0.8c0.1-0.2,0.2-0.3,0.5-0.6c0.2-0.2,0.6-0.3,0.9-0.3c0,0,0,0,0.1,0c0.1,0,0.1,0,0.2,0v0.9
			c-0.1,0-0.1,0-0.2,0c-0.1,0-0.1,0-0.2,0c-0.4,0-0.7,0.2-1,0.4c-0.2,0.2-0.3,0.6-0.3,0.9v2.8h-0.8V232.2L627.2,232.2z"/>
		<path d="M632.8,234c0.2,0,0.3-0.1,0.4-0.2c0-0.1,0.1-0.2,0.1-0.3c0-0.2-0.1-0.5-0.3-0.6c-0.2-0.2-0.5-0.2-0.8-0.2
			c-0.4,0-0.7,0.1-0.9,0.3c-0.1,0.2-0.2,0.3-0.2,0.6h-0.7c0-0.6,0.2-1.1,0.6-1.2c0.4-0.2,0.8-0.3,1.3-0.3c0.6,0,1.1,0.1,1.4,0.3
			c0.3,0.2,0.6,0.6,0.6,1.1v2.8c0,0.1,0,0.2,0.1,0.2c0,0.1,0.1,0.1,0.2,0.1c0,0,0.1,0,0.2,0c0.1,0,0.1,0,0.2,0v0.6
			c-0.2,0-0.2,0.1-0.3,0.1c-0.1,0-0.2,0-0.2,0c-0.2,0-0.5-0.1-0.6-0.3c-0.1-0.1-0.1-0.2-0.2-0.5c-0.2,0.2-0.4,0.4-0.7,0.6
			c-0.3,0.2-0.6,0.2-1.1,0.2c-0.5,0-0.8-0.2-1.1-0.4c-0.3-0.2-0.4-0.6-0.4-1.1c0-0.5,0.2-0.8,0.4-1.1c0.2-0.2,0.6-0.4,1.1-0.5
			L632.8,234z M631.1,236.3c0.2,0.2,0.4,0.2,0.6,0.2c0.3,0,0.6-0.1,0.8-0.2c0.5-0.2,0.6-0.6,0.6-1.1v-0.6c-0.1,0.1-0.2,0.1-0.4,0.2
			c-0.2,0.1-0.3,0.1-0.5,0.1l-0.5,0.1c-0.3,0-0.5,0.1-0.6,0.2c-0.2,0.2-0.4,0.4-0.4,0.6C630.9,236,631,236.1,631.1,236.3z"/>
		<path d="M638.1,232.3c0.2,0.1,0.3,0.2,0.5,0.5v-0.6h0.7v4.4c0,0.6-0.1,1.1-0.2,1.5c-0.3,0.6-1,1-1.9,1c-0.5,0-1-0.1-1.3-0.3
			c-0.3-0.2-0.6-0.6-0.6-1.1h0.8c0,0.2,0.1,0.4,0.2,0.5c0.2,0.2,0.5,0.2,0.9,0.2c0.6,0,1.1-0.2,1.2-0.6c0.1-0.2,0.2-0.7,0.2-1.4
			c-0.2,0.2-0.3,0.4-0.6,0.6c-0.2,0.1-0.6,0.2-0.9,0.2c-0.5,0-1-0.2-1.4-0.6c-0.4-0.4-0.6-1-0.6-1.9c0-0.8,0.2-1.5,0.6-1.9
			c0.4-0.5,0.9-0.6,1.5-0.6C637.4,232.1,637.8,232.2,638.1,232.3z M638.2,233.2c-0.2-0.3-0.6-0.4-1-0.4c-0.6,0-1,0.2-1.1,0.8
			c-0.1,0.3-0.2,0.6-0.2,1.1c0,0.6,0.1,1,0.3,1.2c0.2,0.3,0.5,0.4,0.9,0.4c0.6,0,1-0.2,1.2-0.8c0.2-0.3,0.2-0.6,0.2-1.1
			C638.6,233.9,638.4,233.5,638.2,233.2z"/>
		<path d="M643.5,232.2c0.3,0.2,0.6,0.4,0.7,0.6c0.2,0.2,0.2,0.6,0.3,0.9c0.1,0.2,0.1,0.6,0.1,1.1h-3.6c0,0.5,0.2,0.9,0.3,1.2
			c0.2,0.3,0.6,0.5,1,0.5s0.7-0.2,1-0.4c0.2-0.2,0.2-0.3,0.3-0.6h0.8c0,0.2-0.1,0.4-0.2,0.6c-0.1,0.2-0.2,0.4-0.4,0.6
			c-0.2,0.2-0.6,0.4-0.9,0.5c-0.2,0.1-0.4,0.1-0.6,0.1c-0.6,0-1.1-0.2-1.5-0.6s-0.6-1.1-0.6-1.9s0.2-1.4,0.6-1.9
			c0.4-0.5,1-0.7,1.6-0.7C642.8,232,643.2,232.1,643.5,232.2z M643.8,234.2c0-0.3-0.1-0.6-0.2-0.8c-0.2-0.4-0.6-0.6-1.1-0.6
			c-0.4,0-0.6,0.2-1,0.4c-0.2,0.2-0.4,0.6-0.4,1.1L643.8,234.2L643.8,234.2z"/>
	</g>
	
		<linearGradient id="SVGID_7_" gradientUnits="userSpaceOnUse" x1="591.5369" y1="3164.2288" x2="609.9159" y2="3164.2288" gradientTransform="matrix(1 0 0 1 0 -2993)">
		<stop  offset="0" style="stop-color:#CCE0F4"/>
		<stop  offset="0" style="stop-color:#CDD8EB"/>
		<stop  offset="0" style="stop-color:#D0C4D1"/>
		<stop  offset="0" style="stop-color:#D5A3A8"/>
		<stop  offset="0" style="stop-color:#DB756F"/>
		<stop  offset="0" style="stop-color:#E05243"/>
		<stop  offset="0.1406" style="stop-color:#E05243"/>
		<stop  offset="0.9947" style="stop-color:#E05243"/>
	</linearGradient>
	<path class="st15" d="M639.3,198.7c-15.9,0-31.9,0-47.8,0c0-0.2,0-0.3,0-0.5c0-17.2,0-34.5,0-51.8c0-0.7,0-1.5,0-2.3
		c0-0.3,0.1-0.5,0.4-0.5c0.1,0,0.2,0,0.3,0c15.4,0,30.8,0,46.2,0c0.7,0,0.7,0,0.7,0.7c0,17.9,0,35.8,0.1,53.6
		C639.3,198.3,639.3,198.5,639.3,198.7z"/>
	<g>
		
			<linearGradient id="SVGID_8_" gradientUnits="userSpaceOnUse" x1="592.3616" y1="3128.9531" x2="638.2363" y2="3128.9531" gradientTransform="matrix(1 0 0 1 0 -2993)">
			<stop  offset="0" style="stop-color:#CCE0F4"/>
			<stop  offset="0" style="stop-color:#CDD8EB"/>
			<stop  offset="0" style="stop-color:#D0C4D1"/>
			<stop  offset="0" style="stop-color:#D5A3A8"/>
			<stop  offset="0" style="stop-color:#DB756F"/>
			<stop  offset="0" style="stop-color:#E05243"/>
			<stop  offset="0.1406" style="stop-color:#E05243"/>
			<stop  offset="0.9947" style="stop-color:#E05243"/>
		</linearGradient>
		<path class="st16" d="M638.2,140.5c-0.2,0-0.4,0-0.6,0c-15,0-45.2,0-45.2,0v-0.6V138c0,0,0,0,0-0.1c0.2-0.2,1.2-1.3,1.2-1.3
			l5.3-4.9c0,0,0.4-0.2,0.6-0.2c10.6,0,21.2,0,31.8,0c0.2,0,0.5,0.1,0.6,0.2c2,2,4,4,6,6.1c0.1,0.1,0.2,0.2,0.2,0.3
			C638.2,138.9,638.2,139.6,638.2,140.5z"/>
		<g id="darker_bars_3_">
			<rect x="592.4" y="138" class="st6" width="45.8" height="2.4"/>
			<rect x="591.6" y="196.3" class="st6" width="47.8" height="2.4"/>
		</g>
	</g>
	<g>
		<path id="path12_4_" class="st7" d="M618.3,207.1v-0.8c0-0.2,0.1-0.2,0.2-0.2h3.6c0.1,0,0.2,0.1,0.2,0.2v0.7
			c0,0.1-0.1,0.2-0.2,0.5l-1.9,2.8c0.7,0,1.5,0.1,2.1,0.5c0.2,0.1,0.2,0.2,0.2,0.3v0.9c0,0.1-0.2,0.2-0.2,0.2
			c-1.1-0.6-2.6-0.6-3.9,0c-0.2,0.1-0.2-0.1-0.2-0.2v-0.8c0-0.2,0-0.3,0.2-0.6l2.2-3.2h-1.9C618.5,207.2,618.3,207.2,618.3,207.1"/>
		<path id="path14_4_" class="st7" d="M605,212.2h-1.1c-0.1,0-0.2-0.1-0.2-0.2v-5.7c0-0.1,0.1-0.2,0.2-0.2h1.1
			c0.1,0,0.2,0.1,0.2,0.2v0.7l0,0c0.2-0.7,0.8-1.1,1.5-1.1c0.7,0,1.1,0.3,1.5,1.1c0.2-0.7,0.9-1.1,1.5-1.1c0.5,0,1,0.2,1.3,0.6
			c0.3,0.5,0.2,1.2,0.2,1.8v3.6c0,0.1-0.1,0.2-0.2,0.2h-1.1c-0.1,0-0.2-0.1-0.2-0.2v-3.1c0-0.2,0-0.8,0-1.1
			c-0.1-0.4-0.3-0.5-0.6-0.5c-0.2,0-0.6,0.2-0.6,0.5s-0.1,0.8-0.1,1.1v3.1c0,0.1-0.1,0.2-0.2,0.2h-1.1c-0.1,0-0.2-0.1-0.2-0.2v-3.1
			c0-0.6,0.1-1.6-0.6-1.6c-0.8,0-0.8,0.9-0.8,1.6v3.1C605.2,212.1,605.1,212.2,605,212.2"/>
		<path id="path16_4_" class="st7" d="M625.6,205.9c1.6,0,2.6,1.5,2.6,3.2c0,1.8-1,3.2-2.6,3.2c-1.6,0-2.5-1.5-2.5-3.2
			C623.1,207.3,624,205.9,625.6,205.9 M625.6,207.1c-0.8,0-0.9,1.1-0.9,1.8c0,0.7,0,2.2,0.9,2.2c0.9,0,0.9-1.2,0.9-1.9
			c0-0.5,0-1.1-0.2-1.5C626.2,207.2,625.9,207.1,625.6,207.1"/>
		<path id="path18_4_" class="st7" d="M630.3,212.2h-1.1c-0.1,0-0.2-0.1-0.2-0.2v-5.7c0-0.1,0.1-0.2,0.2-0.2h1.1
			c0.1,0,0.2,0.1,0.2,0.2v0.9l0,0c0.3-0.8,0.7-1.1,1.5-1.1c0.5,0,1,0.2,1.3,0.6c0.3,0.5,0.3,1.2,0.3,1.8v3.6c0,0.1-0.1,0.2-0.2,0.2
			h-1.1c-0.1,0-0.2-0.1-0.2-0.2v-3.1c0-0.6,0.1-1.5-0.7-1.5c-0.2,0-0.5,0.2-0.6,0.5s-0.2,0.7-0.2,1.1v3.1
			C630.6,212.1,630.4,212.2,630.3,212.2"/>
		<path id="path28_4_" class="st7" d="M615.4,209.4c0,0.4,0,0.8-0.2,1.2c-0.2,0.3-0.5,0.5-0.8,0.5c-0.4,0-0.6-0.3-0.6-0.8
			c0-1,0.9-1.1,1.7-1.1V209.4 M616.6,212.2c-0.1,0.1-0.2,0.1-0.2,0c-0.4-0.3-0.4-0.5-0.6-0.7c-0.6,0.6-1.1,0.8-1.9,0.8
			c-1,0-1.7-0.6-1.7-1.7c0-0.9,0.5-1.5,1.2-1.9c0.6-0.2,1.5-0.3,2.1-0.4v-0.2c0-0.2,0-0.6-0.2-0.8s-0.4-0.3-0.6-0.3
			c-0.4,0-0.8,0.2-0.9,0.6c0,0.1-0.1,0.2-0.2,0.2l-1.1-0.1c-0.1,0-0.2-0.1-0.2-0.2c0.2-1.3,1.5-1.7,2.5-1.7c0.6,0,1.2,0.2,1.7,0.6
			c0.6,0.5,0.5,1.2,0.5,1.9v1.7c0,0.5,0.2,0.7,0.4,1.1c0.1,0.1,0.1,0.2,0,0.3C617.2,211.6,616.8,211.9,616.6,212.2L616.6,212.2"/>
		<path id="path30_4_" class="st7" d="M600.9,209.4c0,0.4,0,0.8-0.2,1.2c-0.2,0.3-0.5,0.5-0.8,0.5c-0.4,0-0.6-0.3-0.6-0.8
			c0-1,0.9-1.1,1.6-1.1L600.9,209.4 M601.9,212.2c-0.1,0.1-0.2,0.1-0.2,0c-0.4-0.3-0.4-0.5-0.6-0.7c-0.6,0.6-1.1,0.8-1.9,0.8
			c-1,0-1.7-0.6-1.7-1.7c0-0.9,0.5-1.5,1.2-1.9c0.6-0.2,1.5-0.3,2.1-0.4v-0.2c0-0.2,0-0.6-0.2-0.8s-0.4-0.3-0.6-0.3
			c-0.4,0-0.8,0.2-0.9,0.6c0,0.1-0.1,0.2-0.2,0.2l-1.1-0.1c-0.1,0-0.2-0.1-0.2-0.2c0.2-1.3,1.5-1.7,2.5-1.7c0.6,0,1.2,0.2,1.7,0.6
			c0.6,0.5,0.5,1.2,0.5,1.9v1.7c0,0.5,0.2,0.7,0.4,1.1c0.1,0.1,0.1,0.2,0,0.3C602.6,211.6,602.2,211.9,601.9,212.2L601.9,212.2"/>
	</g>
</g>
<g>
	<g>
		<path d="M84.7,217.3h-3.4v1.4h3.2v1.1h-3.2v1.7h3.6v1.1h-4.9v-6.5h4.8L84.7,217.3L84.7,217.3z"/>
		<path d="M90.7,216.8c0.2,0.2,0.3,0.6,0.3,1s-0.1,0.7-0.3,1c-0.1,0.2-0.2,0.2-0.5,0.4c0.3,0.1,0.6,0.3,0.7,0.6
			c0.2,0.2,0.2,0.6,0.2,1c0,0.4-0.1,0.7-0.3,1.1c-0.2,0.2-0.2,0.4-0.5,0.5c-0.2,0.2-0.5,0.2-0.7,0.3c-0.2,0.1-0.6,0.1-0.9,0.1h-2.9
			v-6.5H89C89.9,216.2,90.3,216.4,90.7,216.8z M87.2,217.3v1.5h1.5c0.2,0,0.5-0.1,0.6-0.2c0.2-0.1,0.2-0.3,0.2-0.6
			c0-0.3-0.1-0.5-0.3-0.6c-0.2-0.1-0.5-0.1-0.7-0.1L87.2,217.3L87.2,217.3z M87.2,219.8v1.7h1.5c0.2,0,0.5,0,0.6-0.1
			c0.3-0.2,0.4-0.4,0.4-0.8c0-0.3-0.2-0.6-0.4-0.7c-0.2-0.1-0.4-0.1-0.6-0.1H87.2z"/>
		<path d="M93.3,220.6c0.1,0.3,0.2,0.5,0.2,0.6c0.2,0.2,0.6,0.4,1.1,0.4c0.3,0,0.6,0,0.8-0.1c0.4-0.2,0.6-0.4,0.6-0.7
			c0-0.2-0.1-0.4-0.2-0.5c-0.2-0.1-0.5-0.2-0.9-0.3l-0.7-0.2c-0.6-0.2-1.1-0.3-1.5-0.5c-0.4-0.3-0.6-0.7-0.6-1.4
			c0-0.6,0.2-1.1,0.6-1.5s1.1-0.6,1.9-0.6c0.7,0,1.3,0.2,1.8,0.6c0.5,0.3,0.7,0.9,0.7,1.5h-1.3c0-0.4-0.2-0.6-0.5-0.8
			c-0.2-0.1-0.5-0.2-0.8-0.2s-0.6,0.1-0.9,0.2s-0.3,0.3-0.3,0.6c0,0.2,0.1,0.4,0.3,0.5c0.2,0.1,0.4,0.2,0.9,0.2l1.1,0.2
			c0.5,0.1,0.9,0.2,1.1,0.5c0.4,0.3,0.6,0.7,0.6,1.3s-0.2,1.1-0.6,1.5s-1.1,0.6-1.9,0.6c-0.9,0-1.5-0.2-2-0.6s-0.7-0.9-0.7-1.6
			L93.3,220.6L93.3,220.6L93.3,220.6z"/>
	</g>
	<g>
		<path d="M60.2,230.3h2.8c0.8,0,1.4,0.2,1.7,0.7c0.2,0.2,0.3,0.6,0.3,1c0,0.4-0.1,0.7-0.3,1.1c-0.2,0.2-0.3,0.2-0.6,0.4
			c0.3,0.2,0.6,0.2,0.7,0.4c0.3,0.3,0.5,0.7,0.5,1.2c0,0.4-0.2,0.8-0.4,1.1c-0.4,0.5-1.1,0.8-1.9,0.8h-2.8V230.3L60.2,230.3z
			 M62.8,233.1c0.4,0,0.6-0.1,0.9-0.2c0.3-0.2,0.5-0.5,0.5-0.9c0-0.4-0.2-0.7-0.6-0.9c-0.2-0.1-0.5-0.2-0.9-0.2h-1.6v2L62.8,233.1
			L62.8,233.1L62.8,233.1z M63.2,236.2c0.6,0,1-0.2,1.2-0.5c0.2-0.2,0.2-0.5,0.2-0.7c0-0.5-0.2-0.8-0.6-1c-0.2-0.1-0.6-0.2-0.9-0.2
			h-1.8v2.3H63.2L63.2,236.2z"/>
		<path d="M66.4,230.3h0.8v6.6h-0.8V230.3z"/>
		<path d="M72,232.6c0.4,0.4,0.6,1.1,0.6,1.9c0,0.8-0.2,1.5-0.6,1.9c-0.4,0.5-1,0.7-1.8,0.7c-0.6,0-1.2-0.2-1.5-0.6
			c-0.4-0.5-0.6-1.1-0.6-1.8c0-0.8,0.2-1.5,0.6-1.9c0.4-0.5,1-0.7,1.6-0.7C71,232,71.5,232.2,72,232.6z M71.4,235.8
			c0.2-0.4,0.3-0.9,0.3-1.4c0-0.5-0.1-0.8-0.2-1.1c-0.2-0.5-0.6-0.6-1.1-0.6s-0.8,0.2-1.1,0.6s-0.3,0.8-0.3,1.4c0,0.5,0.1,1,0.3,1.3
			s0.6,0.5,1.1,0.5C70.8,236.4,71.2,236.2,71.4,235.8z"/>
		<path d="M76.7,232.4c0.3,0.2,0.6,0.7,0.6,1.4h-0.8c-0.1-0.3-0.2-0.6-0.3-0.7c-0.2-0.2-0.5-0.3-0.8-0.3c-0.5,0-0.9,0.2-1.1,0.7
			c-0.2,0.3-0.2,0.7-0.2,1.2c0,0.5,0.1,0.9,0.3,1.2c0.2,0.3,0.6,0.5,1,0.5c0.3,0,0.6-0.1,0.8-0.3c0.2-0.2,0.3-0.5,0.4-0.8h0.8
			c-0.1,0.6-0.3,1.1-0.6,1.4c-0.3,0.3-0.8,0.5-1.4,0.5c-0.6,0-1.1-0.2-1.5-0.7c-0.4-0.5-0.6-1.1-0.6-1.7c0-0.9,0.2-1.5,0.6-2
			c0.4-0.5,1-0.7,1.6-0.7C76,232,76.4,232.1,76.7,232.4z"/>
		<path d="M78.2,230.3H79v3.9l2.1-2h1.1l-1.9,1.8l1.9,3.1h-1.1l-1.5-2.4l-0.6,0.6v1.8h-0.8L78.2,230.3L78.2,230.3z"/>
		<path d="M86.1,234.8c0,0.4,0.1,0.6,0.2,0.9c0.3,0.4,0.8,0.6,1.5,0.6c0.3,0,0.6-0.1,0.9-0.2c0.5-0.2,0.8-0.5,0.8-1
			c0-0.3-0.1-0.6-0.3-0.8c-0.2-0.2-0.6-0.2-1.1-0.4l-0.9-0.2c-0.6-0.2-1-0.2-1.2-0.4c-0.4-0.2-0.6-0.7-0.6-1.2
			c0-0.6,0.2-1.1,0.6-1.5c0.4-0.4,1-0.6,1.7-0.6c0.6,0,1.2,0.2,1.7,0.5c0.5,0.3,0.7,0.9,0.7,1.6h-0.8c-0.1-0.3-0.2-0.6-0.2-0.8
			c-0.2-0.3-0.7-0.5-1.4-0.5c-0.5,0-0.9,0.1-1.1,0.3c-0.2,0.2-0.3,0.5-0.3,0.8c0,0.3,0.2,0.6,0.4,0.7c0.2,0.1,0.6,0.2,1.1,0.3
			l0.9,0.2c0.4,0.1,0.8,0.2,1,0.4c0.4,0.3,0.6,0.7,0.6,1.4c0,0.7-0.2,1.3-0.8,1.6c-0.5,0.3-1.1,0.5-1.8,0.5c-0.8,0-1.5-0.2-1.9-0.6
			c-0.5-0.4-0.6-1-0.6-1.7L86.1,234.8L86.1,234.8z"/>
		<path d="M91.7,230.7h0.8v1.4h0.8v0.6h-0.8v3.2c0,0.2,0.1,0.2,0.2,0.3c0.1,0,0.2,0.1,0.3,0.1c0,0,0.1,0,0.2,0c0.1,0,0.1,0,0.2,0
			v0.6c-0.1,0-0.2,0.1-0.3,0.1c-0.1,0-0.2,0-0.3,0c-0.4,0-0.6-0.1-0.8-0.3c-0.2-0.2-0.2-0.5-0.2-0.7v-3.2H91v-0.6h0.6L91.7,230.7
			L91.7,230.7z"/>
		<path d="M97.7,232.6c0.4,0.4,0.6,1.1,0.6,1.9c0,0.8-0.2,1.5-0.6,1.9s-1,0.7-1.8,0.7c-0.6,0-1.2-0.2-1.5-0.6
			c-0.4-0.5-0.6-1.1-0.6-1.8c0-0.8,0.2-1.5,0.6-1.9c0.4-0.5,1-0.7,1.6-0.7C96.7,232,97.2,232.2,97.7,232.6z M97.1,235.8
			c0.2-0.4,0.3-0.9,0.3-1.4c0-0.5-0.1-0.8-0.2-1.1c-0.2-0.5-0.6-0.6-1.1-0.6s-0.8,0.2-1.1,0.6s-0.3,0.8-0.3,1.4c0,0.5,0.1,1,0.3,1.3
			s0.6,0.5,1.1,0.5C96.6,236.4,97,236.2,97.1,235.8z"/>
		<path d="M99.3,232.1h0.8v0.8c0.1-0.2,0.2-0.3,0.5-0.6c0.2-0.2,0.6-0.3,0.9-0.3c0,0,0,0,0.1,0c0.1,0,0.1,0,0.2,0v0.9
			c-0.1,0-0.1,0-0.2,0c-0.1,0-0.1,0-0.2,0c-0.4,0-0.7,0.2-1,0.4c-0.2,0.2-0.3,0.6-0.3,0.9v2.8h-0.8V232.1L99.3,232.1z"/>
		<path d="M105,234c0.2,0,0.3-0.1,0.4-0.2c0-0.1,0.1-0.2,0.1-0.3c0-0.2-0.1-0.5-0.3-0.6c-0.2-0.2-0.5-0.2-0.8-0.2
			c-0.4,0-0.7,0.1-0.9,0.3c-0.1,0.2-0.2,0.3-0.2,0.6h-0.7c0-0.6,0.2-1.1,0.6-1.2c0.4-0.2,0.8-0.3,1.3-0.3c0.6,0,1.1,0.1,1.4,0.3
			c0.3,0.2,0.6,0.6,0.6,1.1v2.8c0,0.1,0,0.2,0.1,0.2c0,0.1,0.1,0.1,0.2,0.1c0,0,0.1,0,0.2,0c0.1,0,0.1,0,0.2,0v0.6
			c-0.2,0-0.2,0.1-0.3,0.1s-0.2,0-0.2,0c-0.2,0-0.5-0.1-0.6-0.3c-0.1-0.1-0.1-0.2-0.2-0.5c-0.2,0.2-0.4,0.4-0.7,0.6
			c-0.3,0.2-0.6,0.2-1.1,0.2c-0.5,0-0.8-0.2-1.1-0.4c-0.3-0.2-0.4-0.6-0.4-1.1c0-0.5,0.2-0.8,0.4-1.1s0.6-0.4,1.1-0.5L105,234z
			 M103.3,236.2c0.2,0.2,0.4,0.2,0.6,0.2c0.3,0,0.6-0.1,0.8-0.2c0.5-0.2,0.6-0.6,0.6-1.1v-0.6c-0.1,0.1-0.2,0.1-0.4,0.2
			c-0.2,0.1-0.3,0.1-0.5,0.1l-0.5,0.1c-0.3,0-0.5,0.1-0.6,0.2c-0.2,0.2-0.4,0.4-0.4,0.6C103,235.9,103.1,236.1,103.3,236.2z"/>
		<path d="M110.2,232.3c0.2,0.1,0.3,0.2,0.5,0.5v-0.6h0.7v4.4c0,0.6-0.1,1.1-0.2,1.5c-0.3,0.6-1,1-1.9,1c-0.5,0-1-0.1-1.3-0.3
			s-0.6-0.6-0.6-1.1h0.8c0,0.2,0.1,0.4,0.2,0.5c0.2,0.2,0.5,0.2,0.9,0.2c0.6,0,1.1-0.2,1.2-0.6c0.1-0.2,0.2-0.7,0.2-1.4
			c-0.2,0.2-0.3,0.4-0.6,0.6c-0.2,0.1-0.6,0.2-0.9,0.2c-0.5,0-1-0.2-1.4-0.6c-0.4-0.4-0.6-1-0.6-1.9c0-0.8,0.2-1.5,0.6-1.9
			c0.4-0.5,0.9-0.6,1.5-0.6C109.6,232,109.9,232.1,110.2,232.3z M110.3,233.2c-0.2-0.3-0.6-0.4-1-0.4c-0.6,0-1,0.2-1.1,0.8
			c-0.1,0.3-0.2,0.6-0.2,1.1c0,0.6,0.1,1,0.3,1.2c0.2,0.3,0.5,0.4,0.9,0.4c0.6,0,1-0.2,1.2-0.8c0.2-0.3,0.2-0.6,0.2-1.1
			C110.7,233.9,110.6,233.5,110.3,233.2z"/>
		<path d="M115.7,232.2c0.3,0.2,0.6,0.4,0.7,0.6c0.2,0.2,0.2,0.6,0.3,0.9c0.1,0.2,0.1,0.6,0.1,1.1h-3.6c0,0.5,0.2,0.9,0.3,1.2
			c0.2,0.3,0.6,0.5,1,0.5c0.4,0,0.7-0.2,1-0.4c0.2-0.2,0.2-0.3,0.3-0.6h0.8c0,0.2-0.1,0.4-0.2,0.6c-0.1,0.2-0.2,0.4-0.4,0.6
			c-0.2,0.2-0.6,0.4-0.9,0.5c-0.2,0.1-0.4,0.1-0.6,0.1c-0.6,0-1.1-0.2-1.5-0.6c-0.4-0.4-0.6-1.1-0.6-1.9c0-0.8,0.2-1.4,0.6-1.9
			c0.4-0.5,1-0.7,1.6-0.7C115,232,115.3,232,115.7,232.2z M116,234.1c0-0.3-0.1-0.6-0.2-0.8c-0.2-0.4-0.6-0.6-1.1-0.6
			c-0.4,0-0.6,0.2-1,0.4c-0.2,0.2-0.4,0.6-0.4,1.1L116,234.1L116,234.1z"/>
	</g>
	
		<linearGradient id="SVGID_9_" gradientUnits="userSpaceOnUse" x1="63.7033" y1="3164.1892" x2="82.0823" y2="3164.1892" gradientTransform="matrix(1 0 0 1 0 -2993)">
		<stop  offset="0" style="stop-color:#CCE0F4"/>
		<stop  offset="0" style="stop-color:#CDD8EB"/>
		<stop  offset="0" style="stop-color:#D0C4D1"/>
		<stop  offset="0" style="stop-color:#D5A3A8"/>
		<stop  offset="0" style="stop-color:#DB756F"/>
		<stop  offset="0" style="stop-color:#E05243"/>
		<stop  offset="0.1406" style="stop-color:#E05243"/>
		<stop  offset="0.9947" style="stop-color:#E05243"/>
	</linearGradient>
	<path class="st17" d="M111.5,198.7c-15.9,0-31.9,0-47.8,0c0-0.2,0-0.3,0-0.5c0-17.2,0-34.5,0-51.8c0-0.7,0-1.5,0-2.3
		c0-0.3,0.1-0.5,0.4-0.5c0.1,0,0.2,0,0.3,0c15.4,0,30.8,0,46.2,0c0.7,0,0.7,0,0.7,0.7c0,17.9,0,35.8,0.1,53.6
		C111.5,198.3,111.5,198.5,111.5,198.7z"/>
	<g>
		
			<linearGradient id="SVGID_10_" gradientUnits="userSpaceOnUse" x1="64.5281" y1="3128.9136" x2="110.4027" y2="3128.9136" gradientTransform="matrix(1 0 0 1 0 -2993)">
			<stop  offset="0" style="stop-color:#CCE0F4"/>
			<stop  offset="0" style="stop-color:#CDD8EB"/>
			<stop  offset="0" style="stop-color:#D0C4D1"/>
			<stop  offset="0" style="stop-color:#D5A3A8"/>
			<stop  offset="0" style="stop-color:#DB756F"/>
			<stop  offset="0" style="stop-color:#E05243"/>
			<stop  offset="0.1406" style="stop-color:#E05243"/>
			<stop  offset="0.9947" style="stop-color:#E05243"/>
		</linearGradient>
		<path class="st18" d="M110.3,140.4c-0.2,0-0.4,0-0.6,0c-15,0-45.2,0-45.2,0v-0.6v-1.9c0,0,0,0,0-0.1c0.2-0.2,1.2-1.3,1.2-1.3
			l5.3-4.9c0,0,0.4-0.2,0.6-0.2c10.6,0,21.2,0,31.8,0c0.2,0,0.5,0.1,0.6,0.2c2,2,4,4,6,6.1c0.1,0.1,0.2,0.2,0.2,0.3
			C110.3,138.8,110.3,139.6,110.3,140.4z"/>
		<g id="darker_bars_1_">
			<rect x="64.5" y="137.9" class="st6" width="45.8" height="2.4"/>
			<rect x="63.7" y="196.3" class="st6" width="47.8" height="2.4"/>
		</g>
	</g>
	<g>
		<path id="path12_2_" class="st7" d="M90.5,207v-0.8c0-0.2,0.1-0.2,0.2-0.2h3.6c0.1,0,0.2,0.1,0.2,0.2v0.7c0,0.1-0.1,0.2-0.2,0.5
			l-1.9,2.8c0.7,0,1.5,0.1,2.1,0.5c0.2,0.1,0.2,0.2,0.2,0.3v0.9c0,0.1-0.2,0.2-0.2,0.2c-1.1-0.6-2.6-0.6-3.9,0
			c-0.2,0.1-0.2-0.1-0.2-0.2v-0.8c0-0.2,0-0.3,0.2-0.6l2.2-3.2h-1.9C90.7,207.2,90.5,207.1,90.5,207"/>
		<path id="path14_2_" class="st7" d="M77.1,212.1H76c-0.1,0-0.2-0.1-0.2-0.2v-5.7c0-0.1,0.1-0.2,0.2-0.2h1.1c0.1,0,0.2,0.1,0.2,0.2
			v0.7l0,0c0.2-0.7,0.8-1.1,1.5-1.1c0.7,0,1.1,0.3,1.5,1.1c0.2-0.7,0.9-1.1,1.5-1.1c0.5,0,1,0.2,1.3,0.6c0.3,0.5,0.2,1.2,0.2,1.8
			v3.6c0,0.1-0.1,0.2-0.2,0.2H82c-0.1,0-0.2-0.1-0.2-0.2v-3.1c0-0.2,0-0.8,0-1.1c-0.1-0.4-0.3-0.5-0.6-0.5c-0.2,0-0.6,0.2-0.6,0.5
			c-0.1,0.3-0.1,0.8-0.1,1.1v3.1c0,0.1-0.1,0.2-0.2,0.2h-1.1c-0.1,0-0.2-0.1-0.2-0.2v-3.1c0-0.6,0.1-1.6-0.6-1.6
			c-0.8,0-0.8,0.9-0.8,1.6v3.1C77.4,212,77.3,212.1,77.1,212.1"/>
		<path id="path16_2_" class="st7" d="M97.8,205.9c1.6,0,2.6,1.5,2.6,3.2s-1,3.2-2.6,3.2c-1.6,0-2.5-1.5-2.5-3.2
			C95.3,207.3,96.2,205.9,97.8,205.9 M97.8,207c-0.8,0-0.9,1.1-0.9,1.8c0,0.7,0,2.2,0.9,2.2c0.9,0,0.9-1.2,0.9-1.9
			c0-0.5,0-1.1-0.2-1.5C98.3,207.2,98.1,207,97.8,207"/>
		<path id="path18_2_" class="st7" d="M102.5,212.1h-1.1c-0.1,0-0.2-0.1-0.2-0.2v-5.7c0-0.1,0.1-0.2,0.2-0.2h1.1
			c0.1,0,0.2,0.1,0.2,0.2v0.9l0,0c0.3-0.8,0.7-1.1,1.5-1.1c0.5,0,1,0.2,1.3,0.6c0.3,0.5,0.3,1.2,0.3,1.8v3.6c0,0.1-0.1,0.2-0.2,0.2
			h-1.1c-0.1,0-0.2-0.1-0.2-0.2v-3.1c0-0.6,0.1-1.5-0.7-1.5c-0.2,0-0.5,0.2-0.6,0.5c-0.2,0.3-0.2,0.7-0.2,1.1v3.1
			C102.7,212,102.6,212.1,102.5,212.1"/>
		<path id="path28_2_" class="st7" d="M87.6,209.4c0,0.4,0,0.8-0.2,1.2c-0.2,0.3-0.5,0.5-0.8,0.5c-0.4,0-0.6-0.3-0.6-0.8
			c0-1,0.9-1.1,1.7-1.1L87.6,209.4 M88.7,212.1c-0.1,0.1-0.2,0.1-0.2,0c-0.4-0.3-0.4-0.5-0.6-0.7c-0.6,0.6-1.1,0.8-1.9,0.8
			c-1,0-1.7-0.6-1.7-1.7c0-0.9,0.5-1.5,1.2-1.9c0.6-0.2,1.5-0.3,2.1-0.4v-0.2c0-0.2,0-0.6-0.2-0.8c-0.2-0.2-0.4-0.3-0.6-0.3
			c-0.4,0-0.8,0.2-0.9,0.6c0,0.1-0.1,0.2-0.2,0.2l-1.1-0.1c-0.1,0-0.2-0.1-0.2-0.2c0.2-1.3,1.5-1.7,2.5-1.7c0.6,0,1.2,0.2,1.7,0.6
			c0.6,0.5,0.5,1.2,0.5,1.9v1.7c0,0.5,0.2,0.7,0.4,1.1c0.1,0.1,0.1,0.2,0,0.3C89.4,211.6,89,211.9,88.7,212.1L88.7,212.1"/>
		<path id="path30_2_" class="st7" d="M73,209.4c0,0.4,0,0.8-0.2,1.2c-0.2,0.3-0.5,0.5-0.8,0.5c-0.4,0-0.6-0.3-0.6-0.8
			c0-1,0.9-1.1,1.6-1.1L73,209.4 M74.1,212.1c-0.1,0.1-0.2,0.1-0.2,0c-0.4-0.3-0.4-0.5-0.6-0.7c-0.6,0.6-1.1,0.8-1.9,0.8
			c-1,0-1.7-0.6-1.7-1.7c0-0.9,0.5-1.5,1.2-1.9c0.6-0.2,1.5-0.3,2.1-0.4v-0.2c0-0.2,0-0.6-0.2-0.8c-0.2-0.2-0.4-0.3-0.6-0.3
			c-0.4,0-0.8,0.2-0.9,0.6c0,0.1-0.1,0.2-0.2,0.2l-1.1-0.1c-0.1,0-0.2-0.1-0.2-0.2c0.2-1.3,1.5-1.7,2.5-1.7c0.6,0,1.2,0.2,1.7,0.6
			c0.6,0.5,0.5,1.2,0.5,1.9v1.7c0,0.5,0.2,0.7,0.4,1.1c0.1,0.1,0.1,0.2,0,0.3C74.7,211.6,74.3,211.9,74.1,212.1L74.1,212.1"/>
	</g>
</g>
</svg>
