<?xml version="1.0" encoding="utf-8"?>
<!-- Generator: Adobe Illustrator 24.1.2, SVG Export Plug-In . SVG Version: 6.00 Build 0)  -->
<svg version="1.1" id="Layer_1" xmlns="http://www.w3.org/2000/svg" xmlns:xlink="http://www.w3.org/1999/xlink" x="0px" y="0px"
	 viewBox="0 0 700 265" style="enable-background:new 0 0 700 265;" xml:space="preserve">
<style type="text/css">
	.st0{display:none;}
	.st1{fill:none;stroke:#000000;stroke-width:2.5;stroke-miterlimit:10;}
	.st2{fill:#FFFFFF;stroke:#000000;stroke-width:2.5;stroke-miterlimit:10;}
	.st3{fill:url(#SVGID_1_);}
	.st4{fill:url(#SVGID_2_);}
	.st5{fill:#8C3123;}
	.st6{fill-rule:evenodd;clip-rule:evenodd;}
	.st7{fill:url(#SVGID_3_);}
	.st8{fill:url(#SVGID_4_);}
	.st9{fill:url(#SVGID_5_);}
	.st10{fill:url(#SVGID_6_);}
	.st11{fill:url(#SVGID_7_);}
	.st12{fill:url(#SVGID_8_);}
</style>
<g class="st0">
	
		<image style="display:inline;overflow:visible;enable-background:new    ;" width="1805" height="368" xlink:href="../../repos/thoughtspot.github.io/images/cloud-vm-storage.png"  transform="matrix(1.0019 0 0 1.0019 -538.2466 -48.6067)">
	</image>
</g>
<line class="st1" x1="88.3" y1="95.1" x2="88.3" y2="72.8"/>
<line class="st1" x1="266.2" y1="95.1" x2="266.2" y2="72.8"/>
<line class="st1" x1="446.3" y1="95.8" x2="446.3" y2="73.4"/>
<line class="st1" x1="616.3" y1="97.5" x2="616.3" y2="70.1"/>
<line class="st1" x1="153" y1="40" x2="549.6" y2="40"/>
<rect x="6.6" y="8" class="st2" width="154.5" height="64.4"/>
<rect x="183.8" y="8" class="st2" width="154.5" height="64.4"/>
<rect x="361.5" y="8" class="st2" width="154.5" height="64.4"/>
<rect x="537.9" y="8" class="st2" width="154.5" height="64.4"/>
<rect x="6.6" y="88.6" class="st2" width="685.9" height="169.2"/>
<g>
	<path d="M53.7,44.4l-3-9.2H52l1.4,4.6c0.4,1.2,0.7,2.4,1,3.5l0,0c0.3-1.1,0.6-2.2,1.1-3.4l1.6-4.6h1.3l-3.3,9.2L53.7,44.4
		L53.7,44.4z"/>
	<path d="M67.1,40.3c-0.1-1.3-0.2-2.8-0.1-4l0,0c-0.3,1.1-0.7,2.2-1.2,3.5l-1.6,4.5h-0.9l-1.5-4.4c-0.4-1.3-0.8-2.5-1.1-3.6l0,0
		c0,1.2-0.1,2.7-0.2,4.1l-0.2,4h-1.1l0.6-9.2h1.5l1.6,4.5c0.4,1.1,0.7,2.2,0.9,3.1l0,0c0.2-0.9,0.6-1.9,1-3.1l1.6-4.5h1.5l0.6,9.2
		h-1.2L67.1,40.3z"/>
	<path d="M74.4,35.2v9.2h-1.2v-9.2H74.4z"/>
	<path d="M76.6,39.6c0-0.7,0-1.2-0.1-1.8h1.1l0.1,1.1l0,0c0.3-0.6,1.1-1.2,2.2-1.2c0.9,0,2.3,0.5,2.3,2.8v4H81v-3.8
		c0-1.1-0.4-2-1.5-2c-0.8,0-1.4,0.6-1.6,1.2c0,0.1-0.1,0.3-0.1,0.5v4h-1.2C76.6,44.4,76.6,39.6,76.6,39.6z"/>
	<path d="M84.1,43.2c0.4,0.2,1,0.5,1.6,0.5c0.9,0,1.3-0.4,1.3-1s-0.3-0.9-1.2-1.2c-1.2-0.4-1.8-1.1-1.8-1.9c0-1.1,0.9-1.9,2.3-1.9
		c0.7,0,1.3,0.2,1.6,0.4L87.6,39c-0.3-0.2-0.7-0.4-1.4-0.4c-0.7,0-1.1,0.4-1.1,0.9s0.4,0.8,1.3,1.1c1.2,0.4,1.7,1,1.7,2
		c0,1.2-0.9,2-2.5,2c-0.7,0-1.4-0.2-1.9-0.5L84.1,43.2z"/>
	<path d="M91.1,35.9v1.9h1.7v0.9h-1.7v3.6c0,0.8,0.2,1.3,0.9,1.3c0.3,0,0.5,0,0.7-0.1l0.1,0.9c-0.2,0.1-0.6,0.2-1.1,0.2
		c-0.6,0-1-0.2-1.3-0.5c-0.3-0.4-0.5-0.9-0.5-1.7v-3.6h-1v-0.9h1v-1.7L91.1,35.9z"/>
	<path d="M97.9,44.4l-0.1-0.8l0,0c-0.4,0.5-1.1,1-2,1c-1.3,0-2-0.9-2-1.9c0-1.6,1.4-2.5,4-2.5v-0.1c0-0.5-0.2-1.5-1.5-1.5
		c-0.6,0-1.3,0.2-1.7,0.5l-0.4-0.9c0.5-0.4,1.3-0.6,2.2-0.6c2,0,2.5,1.4,2.5,2.7v2.5c0,0.6,0,1.1,0.1,1.6H97.9z M97.7,41
		c-1.3,0-2.8,0.2-2.8,1.5c0,0.8,0.5,1.2,1.1,1.2c0.9,0,1.4-0.5,1.6-1.1c0-0.1,0.1-0.3,0.1-0.4C97.7,42.2,97.7,41,97.7,41z"/>
	<path d="M100.8,39.6c0-0.7,0-1.2-0.1-1.8h1.1l0.1,1.1l0,0c0.3-0.6,1.1-1.2,2.2-1.2c0.9,0,2.3,0.5,2.3,2.8v4h-1.2v-3.8
		c0-1.1-0.4-2-1.5-2c-0.8,0-1.4,0.6-1.6,1.2c-0.1,0.2-0.1,0.4-0.1,0.6v4h-1.2C100.8,44.5,100.8,39.6,100.8,39.6z"/>
	<path d="M113.2,44.2c-0.3,0.2-1,0.4-1.9,0.4c-2,0-3.3-1.4-3.3-3.4s1.4-3.5,3.6-3.5c0.7,0,1.3,0.2,1.7,0.3l-0.3,0.9
		c-0.3-0.2-0.7-0.3-1.4-0.3c-1.5,0-2.3,1.1-2.3,2.5c0,1.5,1,2.5,2.3,2.5c0.7,0,1.1-0.2,1.5-0.3L113.2,44.2z"/>
	<path d="M115.2,41.3c0,1.6,1.1,2.3,2.3,2.3c0.9,0,1.4-0.2,1.8-0.3l0.2,0.9c-0.4,0.2-1.2,0.4-2.2,0.4c-2,0-3.3-1.3-3.3-3.3
		s1.2-3.6,3.1-3.6c2.2,0,2.7,1.9,2.7,3.1c0,0.2,0,0.4,0,0.6h-4.6V41.3z M118.7,40.4c0-0.8-0.3-2-1.7-2c-1.2,0-1.8,1.1-1.9,2H118.7z"
		/>
</g>
<g>
	<path d="M229.8,44.4l-3-9.2h1.3l1.4,4.6c0.4,1.2,0.7,2.4,1,3.5l0,0c0.3-1.1,0.6-2.2,1.1-3.4l1.6-4.6h1.3l-3.3,9.2L229.8,44.4
		L229.8,44.4z"/>
	<path d="M243.3,40.3c-0.1-1.3-0.2-2.8-0.1-4l0,0c-0.3,1.1-0.7,2.2-1.2,3.5l-1.6,4.5h-0.9l-1.5-4.4c-0.4-1.3-0.8-2.5-1.1-3.6l0,0
		c0,1.2-0.1,2.7-0.2,4.1l-0.2,4h-1.1l0.6-9.2h1.5l1.6,4.5c0.4,1.1,0.7,2.2,0.9,3.1l0,0c0.2-0.9,0.6-1.9,1-3.1l1.6-4.5h1.5l0.6,9.2
		h-1.2L243.3,40.3z"/>
	<path d="M250.6,35.2v9.2h-1.2v-9.2H250.6z"/>
	<path d="M252.8,39.6c0-0.7,0-1.2-0.1-1.8h1.1l0.1,1.1l0,0c0.3-0.6,1.1-1.2,2.2-1.2c0.9,0,2.3,0.5,2.3,2.8v4h-1.2v-3.8
		c0-1.1-0.4-2-1.5-2c-0.8,0-1.4,0.6-1.6,1.2c-0.1,0.2-0.1,0.4-0.1,0.6v4h-1.2L252.8,39.6L252.8,39.6z"/>
	<path d="M260.2,43.2c0.4,0.2,1,0.5,1.6,0.5c0.9,0,1.3-0.4,1.3-1s-0.3-0.9-1.2-1.2c-1.2-0.4-1.8-1.1-1.8-1.9c0-1.1,0.9-1.9,2.3-1.9
		c0.7,0,1.3,0.2,1.6,0.4l-0.3,0.9c-0.3-0.2-0.7-0.4-1.4-0.4c-0.7,0-1.1,0.4-1.1,0.9s0.4,0.8,1.3,1.1c1.2,0.4,1.7,1,1.7,2
		c0,1.2-0.9,2-2.5,2c-0.7,0-1.4-0.2-1.9-0.5L260.2,43.2z"/>
	<path d="M267.3,35.9v1.9h1.7v0.9h-1.7v3.6c0,0.8,0.2,1.3,0.9,1.3c0.3,0,0.5,0,0.7-0.1l0.1,0.9c-0.2,0.1-0.6,0.2-1.1,0.2
		c-0.6,0-1-0.2-1.3-0.5c-0.3-0.4-0.5-0.9-0.5-1.7v-3.6h-1v-0.9h1v-1.7L267.3,35.9z"/>
	<path d="M274.1,44.4l-0.1-0.8l0,0c-0.4,0.5-1.1,1-2,1c-1.3,0-2-0.9-2-1.9c0-1.6,1.4-2.5,4-2.5v-0.1c0-0.5-0.2-1.5-1.5-1.5
		c-0.6,0-1.3,0.2-1.7,0.5l-0.3-0.8c0.5-0.4,1.3-0.6,2.2-0.6c2,0,2.5,1.4,2.5,2.7v2.5c0,0.6,0,1.1,0.1,1.6h-1.2V44.4z M273.9,41
		c-1.3,0-2.8,0.2-2.8,1.5c0,0.8,0.5,1.2,1.1,1.2c0.9,0,1.4-0.5,1.6-1.1c0-0.1,0.1-0.3,0.1-0.4L273.9,41L273.9,41z"/>
	<path d="M277,39.6c0-0.7,0-1.2-0.1-1.8h1.1l0.1,1.1l0,0c0.3-0.6,1.1-1.2,2.2-1.2c0.9,0,2.3,0.5,2.3,2.8v4h-1.2v-3.8
		c0-1.1-0.4-2-1.5-2c-0.8,0-1.4,0.6-1.6,1.2c-0.1,0.2-0.1,0.4-0.1,0.6v4H277V39.6L277,39.6z"/>
	<path d="M289.3,44.2c-0.3,0.2-1,0.4-1.9,0.4c-2,0-3.3-1.4-3.3-3.4s1.4-3.5,3.6-3.5c0.7,0,1.3,0.2,1.7,0.3l-0.3,0.9
		c-0.3-0.2-0.7-0.3-1.4-0.3c-1.5,0-2.3,1.1-2.3,2.5c0,1.5,1,2.5,2.3,2.5c0.7,0,1.1-0.2,1.5-0.3L289.3,44.2z"/>
	<path d="M291.3,41.3c0,1.6,1.1,2.3,2.3,2.3c0.9,0,1.4-0.2,1.8-0.3l0.2,0.9c-0.4,0.2-1.2,0.4-2.2,0.4c-2,0-3.3-1.3-3.3-3.3
		s1.2-3.6,3.1-3.6c2.2,0,2.7,1.9,2.7,3.1c0,0.2,0,0.4,0,0.6h-4.6V41.3z M294.9,40.4c0-0.8-0.3-2-1.7-2c-1.2,0-1.8,1.1-1.9,2H294.9z"
		/>
</g>
<g>
	<path d="M410.6,44.4l-3-9.2h1.3l1.4,4.6c0.4,1.2,0.7,2.4,1,3.5l0,0c0.3-1.1,0.6-2.2,1.1-3.4l1.6-4.6h1.3l-3.3,9.2L410.6,44.4
		L410.6,44.4z"/>
	<path d="M424,40.3c-0.1-1.3-0.2-2.8-0.1-4l0,0c-0.3,1.1-0.7,2.2-1.2,3.5l-1.6,4.5h-0.9l-1.5-4.4c-0.4-1.3-0.8-2.5-1.1-3.6l0,0
		c0,1.2-0.1,2.7-0.2,4.1l-0.2,4h-1.1l0.6-9.2h1.5l1.6,4.5c0.4,1.1,0.7,2.2,0.9,3.1l0,0c0.2-0.9,0.6-1.9,1-3.1l1.6-4.5h1.5l0.6,9.2
		h-1.2L424,40.3z"/>
	<path d="M431.3,35.2v9.2h-1.2v-9.2H431.3z"/>
	<path d="M433.5,39.6c0-0.7,0-1.2-0.1-1.8h1.1l0.1,1.1l0,0c0.3-0.6,1.1-1.2,2.2-1.2c0.9,0,2.3,0.5,2.3,2.8v4h-1.2v-3.8
		c0-1.1-0.4-2-1.5-2c-0.8,0-1.4,0.6-1.6,1.2c-0.1,0.2-0.1,0.4-0.1,0.6v4h-1.2L433.5,39.6L433.5,39.6z"/>
	<path d="M441,43.2c0.4,0.2,1,0.5,1.6,0.5c0.9,0,1.3-0.4,1.3-1s-0.3-0.9-1.2-1.2c-1.2-0.4-1.8-1.1-1.8-1.9c0-1.1,0.9-1.9,2.3-1.9
		c0.7,0,1.3,0.2,1.6,0.4l-0.3,0.9c-0.3-0.2-0.7-0.4-1.4-0.4c-0.7,0-1.1,0.4-1.1,0.9s0.4,0.8,1.3,1.1c1.2,0.4,1.7,1,1.7,2
		c0,1.2-0.9,2-2.5,2c-0.7,0-1.4-0.2-1.9-0.5L441,43.2z"/>
	<path d="M448,35.9v1.9h1.7v0.9H448v3.6c0,0.8,0.2,1.3,0.9,1.3c0.3,0,0.5,0,0.7-0.1l0.1,0.9c-0.2,0.1-0.6,0.2-1.1,0.2
		c-0.6,0-1-0.2-1.3-0.5c-0.3-0.4-0.5-0.9-0.5-1.7v-3.6h-1v-0.9h1v-1.7L448,35.9z"/>
	<path d="M454.8,44.4l-0.1-0.8l0,0c-0.4,0.5-1.1,1-2,1c-1.3,0-2-0.9-2-1.9c0-1.6,1.4-2.5,4-2.5v-0.1c0-0.5-0.2-1.5-1.5-1.5
		c-0.6,0-1.3,0.2-1.7,0.5l-0.3-0.8c0.5-0.4,1.3-0.6,2.2-0.6c2,0,2.5,1.4,2.5,2.7v2.5c0,0.6,0,1.1,0.1,1.6h-1.2V44.4z M454.6,41
		c-1.3,0-2.8,0.2-2.8,1.5c0,0.8,0.5,1.2,1.1,1.2c0.9,0,1.4-0.5,1.6-1.1c0-0.1,0.1-0.3,0.1-0.4L454.6,41L454.6,41z"/>
	<path d="M457.7,39.6c0-0.7,0-1.2-0.1-1.8h1.1l0.1,1.1l0,0c0.3-0.6,1.1-1.2,2.2-1.2c0.9,0,2.3,0.5,2.3,2.8v4h-1.2v-3.8
		c0-1.1-0.4-2-1.5-2c-0.8,0-1.4,0.6-1.6,1.2c-0.1,0.2-0.1,0.4-0.1,0.6v4h-1.2L457.7,39.6L457.7,39.6z"/>
	<path d="M470.1,44.2c-0.3,0.2-1,0.4-1.9,0.4c-2,0-3.3-1.4-3.3-3.4s1.4-3.5,3.6-3.5c0.7,0,1.3,0.2,1.7,0.3l-0.3,0.9
		c-0.3-0.2-0.7-0.3-1.4-0.3c-1.5,0-2.3,1.1-2.3,2.5c0,1.5,1,2.5,2.3,2.5c0.7,0,1.1-0.2,1.5-0.3L470.1,44.2z"/>
	<path d="M472.1,41.3c0,1.6,1.1,2.3,2.3,2.3c0.9,0,1.4-0.2,1.8-0.3l0.2,0.9c-0.4,0.2-1.2,0.4-2.2,0.4c-2,0-3.3-1.3-3.3-3.3
		s1.2-3.6,3.1-3.6c2.2,0,2.7,1.9,2.7,3.1c0,0.2,0,0.4,0,0.6h-4.6V41.3z M475.6,40.4c0-0.8-0.3-2-1.7-2c-1.2,0-1.8,1.1-1.9,2H475.6z"
		/>
</g>
<g>
	<path d="M581.6,44.4l-3-9.2h1.3l1.4,4.6c0.4,1.2,0.7,2.4,1,3.5l0,0c0.3-1.1,0.6-2.2,1.1-3.4l1.6-4.6h1.3l-3.3,9.2L581.6,44.4
		L581.6,44.4z"/>
	<path d="M595,40.3c-0.1-1.3-0.2-2.8-0.1-4l0,0c-0.3,1.1-0.7,2.2-1.2,3.5l-1.6,4.5h-0.9l-1.5-4.4c-0.4-1.3-0.8-2.5-1.1-3.6l0,0
		c0,1.2-0.1,2.7-0.2,4.1l-0.2,4h-1.1l0.6-9.2h1.5l1.6,4.5c0.4,1.1,0.7,2.2,0.9,3.1l0,0c0.2-0.9,0.6-1.9,1-3.1l1.6-4.5h1.5l0.6,9.2
		h-1.2L595,40.3z"/>
	<path d="M602.4,35.2v9.2h-1.2v-9.2H602.4z"/>
	<path d="M604.6,39.6c0-0.7,0-1.2-0.1-1.8h1.1l0.1,1.1l0,0c0.3-0.6,1.1-1.2,2.2-1.2c0.9,0,2.3,0.5,2.3,2.8v4H609v-3.8
		c0-1.1-0.4-2-1.5-2c-0.8,0-1.4,0.6-1.6,1.2c-0.1,0.2-0.1,0.4-0.1,0.6v4h-1.2L604.6,39.6L604.6,39.6z"/>
	<path d="M612,43.2c0.4,0.2,1,0.5,1.6,0.5c0.9,0,1.3-0.4,1.3-1s-0.3-0.9-1.2-1.2c-1.2-0.4-1.8-1.1-1.8-1.9c0-1.1,0.9-1.9,2.3-1.9
		c0.7,0,1.3,0.2,1.6,0.4l-0.3,0.9c-0.3-0.2-0.7-0.4-1.4-0.4S613,39,613,39.5s0.4,0.8,1.3,1.1c1.2,0.4,1.7,1,1.7,2c0,1.2-0.9,2-2.5,2
		c-0.7,0-1.4-0.2-1.9-0.5L612,43.2z"/>
	<path d="M619.1,35.9v1.9h1.7v0.9h-1.7v3.6c0,0.8,0.2,1.3,0.9,1.3c0.3,0,0.5,0,0.7-0.1l0.1,0.9c-0.2,0.1-0.6,0.2-1.1,0.2
		c-0.6,0-1-0.2-1.3-0.5c-0.3-0.4-0.5-0.9-0.5-1.7v-3.6h-1v-0.9h1v-1.7L619.1,35.9z"/>
	<path d="M625.8,44.4l-0.1-0.8l0,0c-0.4,0.5-1.1,1-2,1c-1.3,0-2-0.9-2-1.9c0-1.6,1.4-2.5,4-2.5v-0.1c0-0.5-0.2-1.5-1.5-1.5
		c-0.6,0-1.3,0.2-1.7,0.5l-0.3-0.8c0.5-0.4,1.3-0.6,2.2-0.6c2,0,2.5,1.4,2.5,2.7v2.5c0,0.6,0,1.1,0.1,1.6h-1.2V44.4z M625.6,41
		c-1.3,0-2.8,0.2-2.8,1.5c0,0.8,0.5,1.2,1.1,1.2c0.9,0,1.4-0.5,1.6-1.1c0-0.1,0.1-0.3,0.1-0.4L625.6,41L625.6,41z"/>
	<path d="M628.8,39.6c0-0.7,0-1.2-0.1-1.8h1.1l0.1,1.1l0,0c0.3-0.6,1.1-1.2,2.2-1.2c0.9,0,2.3,0.5,2.3,2.8v4h-1.2v-3.8
		c0-1.1-0.4-2-1.5-2c-0.8,0-1.4,0.6-1.6,1.2c-0.1,0.2-0.1,0.4-0.1,0.6v4h-1.2V39.6z"/>
	<path d="M641.1,44.2c-0.3,0.2-1,0.4-1.9,0.4c-2,0-3.3-1.4-3.3-3.4s1.4-3.5,3.6-3.5c0.7,0,1.3,0.2,1.7,0.3l-0.3,0.9
		c-0.3-0.2-0.7-0.3-1.4-0.3c-1.5,0-2.3,1.1-2.3,2.5c0,1.5,1,2.5,2.3,2.5c0.7,0,1.1-0.2,1.5-0.3L641.1,44.2z"/>
	<path d="M643.1,41.3c0,1.6,1.1,2.3,2.3,2.3c0.9,0,1.4-0.2,1.8-0.3l0.2,0.9c-0.4,0.2-1.2,0.4-2.2,0.4c-2,0-3.3-1.3-3.3-3.3
		s1.2-3.6,3.1-3.6c2.2,0,2.7,1.9,2.7,3.1c0,0.2,0,0.4,0,0.6h-4.6V41.3z M646.6,40.4c0-0.8-0.3-2-1.7-2c-1.2,0-1.8,1.1-1.9,2H646.6z"
		/>
</g>
<g>
	<path d="M269.3,105.3v3.5h4v-3.5h1.1v8.2h-1.1v-3.8h-4v3.8h-1.1v-8.2H269.3z"/>
	<path d="M277.5,105.9c0,0.4-0.3,0.7-0.7,0.7c-0.4,0-0.7-0.3-0.7-0.7s0.3-0.7,0.7-0.7C277.3,105.2,277.5,105.6,277.5,105.9z
		 M276.3,113.5v-5.9h1.1v5.9H276.3z"/>
	<path d="M284.3,107.6c0,0.4-0.1,0.9-0.1,1.6v3.5c0,1.3-0.3,2.2-0.8,2.6c-0.5,0.5-1.4,0.7-2.1,0.7s-1.5-0.1-2-0.4l0.3-0.8
		c0.4,0.3,1,0.4,1.7,0.4c1.1,0,1.9-0.5,1.9-2.1v-0.7l0,0c-0.4,0.5-1,1-1.9,1c-1.4,0-2.5-1.3-2.5-2.9c0-2,1.3-3.2,2.6-3.2
		c1.1,0,1.6,0.5,1.9,1.1l0,0l0.1-0.9L284.3,107.6L284.3,107.6L284.3,107.6z M283.2,110c0-0.1,0-0.4-0.1-0.4
		c-0.1-0.7-0.7-1.2-1.5-1.2c-1.1,0-1.8,0.9-1.8,2.2c0,1.2,0.7,2.1,1.8,2.1c0.7,0,1.3-0.4,1.5-1.1c0.1-0.1,0.1-0.4,0.1-0.5V110z"/>
	<path d="M286,104.8h1.1v3.7l0,0c0.1-0.3,0.4-0.5,0.8-0.7s0.7-0.3,1.1-0.3c0.8,0,2.1,0.4,2.1,2.5v3.6H290v-3.4c0-1-0.4-1.8-1.3-1.8
		c-0.7,0-1.3,0.4-1.4,1.1c-0.1,0.1-0.1,0.3-0.1,0.5v3.6h-1.1L286,104.8L286,104.8z"/>
	<path d="M292.9,104.8h1.1v8.7h-1.1V104.8z"/>
	<path d="M296.2,107.6l1.3,3.5c0.1,0.4,0.3,0.9,0.4,1.3l0,0c0.1-0.4,0.3-0.8,0.4-1.3l1.2-3.5h1.2l-1.6,4.2c-0.8,2.1-1.3,3-2.1,3.8
		c-0.5,0.4-1.1,0.7-1.3,0.7l-0.3-0.9c0.3-0.1,0.7-0.3,1-0.5c0.3-0.3,0.7-0.7,0.9-1.2c0.1-0.1,0.1-0.1,0.1-0.3c0-0.1,0-0.1-0.1-0.3
		l-2.2-5.4L296.2,107.6L296.2,107.6L296.2,107.6z"/>
	<path d="M305.4,110.9l-0.9,2.6h-1.1l2.8-8.2h1.3l2.9,8.2h-1.2l-0.9-2.6H305.4z M308.2,110.1l-0.8-2.4c-0.1-0.5-0.3-1.1-0.4-1.5l0,0
		c-0.1,0.4-0.3,1-0.4,1.5l-0.8,2.4H308.2z"/>
	<path d="M311.8,107.6l1.2,3.3c0.1,0.5,0.4,1.1,0.4,1.5l0,0c0.1-0.4,0.3-1,0.5-1.5l1.2-3.3h1.2l-2.4,5.9h-1.1l-2.2-5.9H311.8z"/>
	<path d="M320.5,113.5l-0.1-0.7l0,0c-0.4,0.4-1,0.9-1.8,0.9c-1.2,0-1.8-0.8-1.8-1.7c0-1.4,1.3-2.2,3.6-2.2v-0.1
		c0-0.4-0.1-1.3-1.3-1.3c-0.5,0-1.2,0.1-1.5,0.4l-0.3-0.7c0.4-0.4,1.2-0.5,2-0.5c1.8,0,2.2,1.3,2.2,2.4v2.2c0,0.5,0,1,0.1,1.4
		L320.5,113.5L320.5,113.5z M320.3,110.5c-1.2,0-2.5,0.1-2.5,1.3c0,0.7,0.4,1.1,1,1.1c0.8,0,1.3-0.4,1.4-1c0-0.1,0.1-0.3,0.1-0.4
		L320.3,110.5L320.3,110.5z"/>
	<path d="M326,104.8h1.1v8.7H326V104.8z"/>
	<path d="M324.4,105.9c0,0.4-0.3,0.7-0.7,0.7c-0.4,0-0.7-0.3-0.7-0.7s0.3-0.7,0.7-0.7C324.2,105.2,324.4,105.6,324.4,105.9z
		 M323.2,113.5v-5.9h1.1v5.9H323.2z"/>
	<path d="M332.1,113.5l-0.1-0.7l0,0c-0.4,0.4-1,0.9-1.8,0.9c-1.2,0-1.8-0.8-1.8-1.7c0-1.4,1.3-2.2,3.6-2.2v-0.1
		c0-0.4-0.1-1.3-1.3-1.3c-0.5,0-1.2,0.1-1.5,0.4l-0.3-0.7c0.4-0.4,1.2-0.5,2-0.5c1.8,0,2.2,1.3,2.2,2.4v2.2c0,0.5,0,1,0.1,1.4
		L332.1,113.5L332.1,113.5z M332,110.5c-1.2,0-2.5,0.1-2.5,1.3c0,0.7,0.4,1.1,1,1.1c0.8,0,1.3-0.4,1.4-1c0-0.1,0.1-0.3,0.1-0.4
		L332,110.5L332,110.5z"/>
	<path d="M334.7,113.5c0-0.4,0.1-1,0.1-1.5v-7.1h1.1v3.8l0,0c0.4-0.7,1.1-1.1,2.1-1.1c1.4,0,2.5,1.3,2.5,3c0,2.1-1.3,3.2-2.6,3.2
		c-0.9,0-1.5-0.4-2-1.1l0,0l-0.1,1L334.7,113.5L334.7,113.5L334.7,113.5z M335.8,111.1c0,0.1,0,0.3,0.1,0.4c0.1,0.7,0.8,1.3,1.6,1.3
		c1.2,0,1.8-0.9,1.8-2.4c0-1.2-0.7-2.2-1.8-2.2c-0.7,0-1.4,0.5-1.6,1.3c0,0.1-0.1,0.3-0.1,0.4V111.1z"/>
	<path d="M341.7,104.8h1.1v8.7h-1.1V104.8z"/>
	<path d="M345.2,110.7c0,1.4,1,2.1,2.1,2.1c0.8,0,1.3-0.1,1.6-0.3l0.1,0.8c-0.4,0.1-1.1,0.4-2,0.4c-1.8,0-2.9-1.2-2.9-2.9
		s1.1-3.2,2.8-3.2c2,0,2.4,1.7,2.4,2.8c0,0.1,0,0.4,0,0.5L345.2,110.7L345.2,110.7L345.2,110.7z M348.4,110c0-0.7-0.3-1.8-1.5-1.8
		c-1.1,0-1.6,1-1.7,1.8H348.4z"/>
	<path d="M353.4,105.4c0.5-0.1,1.2-0.1,2.1-0.1c1.1,0,1.8,0.3,2.4,0.7c0.4,0.4,0.7,1,0.7,1.7c0,0.7-0.1,1.3-0.7,1.8
		c-0.5,0.7-1.5,0.9-2.5,0.9c-0.4,0-0.7,0-0.9-0.1v3.3h-1.1V105.4L353.4,105.4z M354.5,109.3c0.3,0.1,0.5,0.1,0.9,0.1
		c1.3,0,2.1-0.7,2.1-1.8c0-1.1-0.8-1.6-2-1.6c-0.4,0-0.8,0-1,0.1V109.3L354.5,109.3z"/>
	<path d="M360.2,110.7c0,1.4,1,2.1,2.1,2.1c0.8,0,1.3-0.1,1.6-0.3l0.1,0.8c-0.4,0.1-1.1,0.4-2,0.4c-1.8,0-2.9-1.2-2.9-2.9
		s1.1-3.2,2.8-3.2c2,0,2.4,1.7,2.4,2.8c0,0.1,0,0.4,0,0.5L360.2,110.7L360.2,110.7L360.2,110.7z M363.3,110c0-0.7-0.3-1.8-1.5-1.8
		c-1.1,0-1.6,1-1.7,1.8H363.3z"/>
	<path d="M365.8,109.4c0-0.7,0-1.3-0.1-1.9h1v1.2h0.1c0.3-0.8,0.9-1.3,1.6-1.3c0.1,0,0.1,0,0.3,0v1c-0.1,0-0.1,0-0.4,0
		c-0.8,0-1.3,0.5-1.4,1.4c0,0.1-0.1,0.4-0.1,0.5v3.2h-1L365.8,109.4L365.8,109.4z"/>
	<path d="M369.6,112.5c0.4,0.1,0.9,0.4,1.4,0.4c0.8,0,1.2-0.4,1.2-0.9s-0.3-0.8-1.1-1.1c-1.1-0.4-1.6-1-1.6-1.7c0-1,0.8-1.7,2.1-1.7
		c0.7,0,1.2,0.1,1.4,0.4l-0.3,0.8c-0.3-0.1-0.7-0.4-1.3-0.4c-0.7,0-1,0.4-1,0.8s0.4,0.7,1.2,1c1.1,0.4,1.5,0.9,1.5,1.8
		c0,1.1-0.8,1.8-2.2,1.8c-0.7,0-1.3-0.1-1.7-0.4L369.6,112.5z"/>
	<path d="M375.8,105.9c0,0.4-0.3,0.7-0.7,0.7c-0.4,0-0.7-0.3-0.7-0.7s0.3-0.7,0.7-0.7C375.5,105.2,375.8,105.6,375.8,105.9z
		 M374.6,113.5v-5.9h1.1v5.9H374.6z"/>
	<path d="M377.3,112.5c0.4,0.1,0.9,0.4,1.4,0.4c0.8,0,1.2-0.4,1.2-0.9s-0.3-0.8-1.1-1.1c-1.1-0.4-1.6-1-1.6-1.7c0-1,0.8-1.7,2.1-1.7
		c0.7,0,1.2,0.1,1.4,0.4l-0.3,0.8c-0.3-0.1-0.7-0.4-1.3-0.4c-0.7,0-1,0.4-1,0.8s0.4,0.7,1.2,1c1.1,0.4,1.5,0.9,1.5,1.8
		c0,1.1-0.8,1.8-2.2,1.8c-0.7,0-1.3-0.1-1.7-0.4L377.3,112.5z"/>
	<path d="M383.6,105.9v1.7h1.5v0.8h-1.5v3.2c0,0.7,0.1,1.2,0.8,1.2c0.3,0,0.4,0,0.7-0.1l0.1,0.8c-0.1,0.1-0.5,0.1-1,0.1
		c-0.5,0-0.9-0.1-1.2-0.4c-0.3-0.4-0.4-0.8-0.4-1.5v-3.2h-0.9v-0.8h0.9v-1.4L383.6,105.9z"/>
	<path d="M387,110.7c0,1.4,1,2.1,2.1,2.1c0.8,0,1.3-0.1,1.6-0.3l0.1,0.8c-0.4,0.1-1.1,0.4-2,0.4c-1.8,0-2.9-1.2-2.9-2.9
		s1.1-3.2,2.8-3.2c2,0,2.4,1.7,2.4,2.8c0,0.1,0,0.4,0,0.5L387,110.7L387,110.7L387,110.7z M390.1,110c0-0.7-0.3-1.8-1.5-1.8
		c-1.1,0-1.6,1-1.7,1.8H390.1z"/>
	<path d="M392.5,109.2c0-0.7,0-1.1-0.1-1.6h1l0.1,1l0,0c0.3-0.5,1-1.1,2-1.1c0.8,0,2.1,0.4,2.1,2.5v3.6h-1.1v-3.4
		c0-1-0.4-1.8-1.3-1.8c-0.7,0-1.3,0.5-1.4,1.1c-0.1,0.1-0.1,0.4-0.1,0.5v3.6h-1.1V109.2L392.5,109.2z"/>
	<path d="M400.6,105.9v1.7h1.5v0.8h-1.5v3.2c0,0.7,0.1,1.2,0.8,1.2c0.3,0,0.4,0,0.7-0.1l0.1,0.8c-0.1,0.1-0.5,0.1-1,0.1
		c-0.5,0-0.9-0.1-1.2-0.4c-0.3-0.4-0.4-0.8-0.4-1.5v-3.2h-0.9v-0.8h0.9v-1.4L400.6,105.9z"/>
	<path d="M405.8,112.2c0.4,0.3,1.2,0.5,1.9,0.5c1.1,0,1.7-0.5,1.7-1.4c0-0.8-0.4-1.3-1.5-1.6c-1.3-0.4-2.1-1.2-2.1-2.4
		c0-1.3,1.1-2.2,2.6-2.2c0.8,0,1.4,0.1,1.8,0.4l-0.3,0.9c-0.3-0.1-0.8-0.4-1.6-0.4c-1.2,0-1.5,0.7-1.5,1.3c0,0.8,0.5,1.2,1.6,1.6
		c1.4,0.5,2.1,1.3,2.1,2.4c0,1.3-1,2.4-2.9,2.4c-0.8,0-1.7-0.3-2.1-0.5L405.8,112.2z"/>
	<path d="M413.2,105.9v1.7h1.5v0.8h-1.5v3.2c0,0.7,0.1,1.2,0.8,1.2c0.3,0,0.4,0,0.7-0.1l0.1,0.8c-0.1,0.1-0.5,0.1-1,0.1
		c-0.5,0-0.9-0.1-1.2-0.4c-0.3-0.4-0.4-0.8-0.4-1.5v-3.2h-0.9v-0.8h0.9v-1.4L413.2,105.9z"/>
	<path d="M421.3,110.5c0,2.2-1.5,3.2-2.9,3.2c-1.6,0-2.9-1.2-2.9-3c0-2,1.3-3.2,2.9-3.2C420.1,107.5,421.3,108.7,421.3,110.5z
		 M416.5,110.6c0,1.3,0.7,2.4,1.8,2.4c1,0,1.8-1,1.8-2.4c0-1-0.5-2.4-1.8-2.4C417,108.2,416.5,109.4,416.5,110.6z"/>
	<path d="M422.6,109.4c0-0.7,0-1.3-0.1-1.9h1v1.2h0.1c0.3-0.8,0.9-1.3,1.6-1.3c0.1,0,0.1,0,0.3,0v1c-0.1,0-0.1,0-0.4,0
		c-0.8,0-1.3,0.5-1.4,1.4c0,0.1-0.1,0.4-0.1,0.5v3.2h-1.1L422.6,109.4L422.6,109.4z"/>
	<path d="M429.8,113.5l-0.1-0.7l0,0c-0.4,0.4-1,0.9-1.8,0.9c-1.2,0-1.8-0.8-1.8-1.7c0-1.4,1.3-2.2,3.6-2.2v-0.1
		c0-0.4-0.1-1.3-1.3-1.3c-0.5,0-1.2,0.1-1.5,0.4l-0.3-0.7c0.4-0.4,1.2-0.5,2-0.5c1.8,0,2.2,1.3,2.2,2.4v2.2c0,0.5,0,1,0.1,1.4
		L429.8,113.5L429.8,113.5L429.8,113.5z M429.7,110.5c-1.2,0-2.5,0.1-2.5,1.3c0,0.7,0.4,1.1,1,1.1c0.8,0,1.3-0.4,1.4-1
		c0-0.1,0.1-0.3,0.1-0.4L429.7,110.5L429.7,110.5z"/>
	<path d="M437.6,107.6c0,0.4-0.1,0.9-0.1,1.6v3.5c0,1.3-0.3,2.2-0.8,2.6c-0.5,0.5-1.4,0.7-2.1,0.7s-1.5-0.1-2-0.4l0.3-0.8
		c0.4,0.3,1,0.4,1.7,0.4c1.1,0,1.9-0.5,1.9-2.1v-0.7l0,0c-0.4,0.5-1,1-1.9,1c-1.4,0-2.5-1.3-2.5-2.9c0-2,1.3-3.2,2.6-3.2
		c1.1,0,1.6,0.5,1.9,1.1l0,0l0.1-0.9L437.6,107.6L437.6,107.6z M436.5,110c0-0.1,0-0.4-0.1-0.4c-0.1-0.7-0.7-1.2-1.5-1.2
		c-1.1,0-1.8,0.9-1.8,2.2c0,1.2,0.7,2.1,1.8,2.1c0.7,0,1.3-0.4,1.5-1.1c0.1-0.1,0.1-0.4,0.1-0.5V110z"/>
	<path d="M440,110.7c0,1.4,1,2.1,2.1,2.1c0.8,0,1.3-0.1,1.6-0.3l0.1,0.8c-0.4,0.1-1.1,0.4-2,0.4c-1.8,0-2.9-1.2-2.9-2.9
		s1.1-3.2,2.8-3.2c2,0,2.4,1.7,2.4,2.8c0,0.1,0,0.4,0,0.5L440,110.7L440,110.7L440,110.7z M443.1,110c0-0.7-0.3-1.8-1.5-1.8
		c-1.1,0-1.6,1-1.7,1.8H443.1z"/>
</g>
<g>
	<g>
		<path d="M262.3,216.7h-3.4v1.4h3.2v1.1h-3.2v1.7h3.6v1.1h-4.9v-6.5h4.8L262.3,216.7L262.3,216.7z"/>
		<path d="M268.3,216.2c0.2,0.2,0.3,0.6,0.3,1s-0.1,0.7-0.3,1c-0.1,0.2-0.2,0.2-0.5,0.4c0.3,0.1,0.6,0.3,0.7,0.6
			c0.2,0.2,0.2,0.6,0.2,1s-0.1,0.7-0.3,1.1c-0.2,0.2-0.2,0.4-0.5,0.5c-0.2,0.2-0.5,0.2-0.7,0.3c-0.2,0.1-0.6,0.1-0.9,0.1h-2.9v-6.5
			h3.2C267.5,215.6,268,215.8,268.3,216.2z M264.9,216.7v1.5h1.5c0.2,0,0.5-0.1,0.6-0.2c0.2-0.1,0.2-0.3,0.2-0.6
			c0-0.3-0.1-0.5-0.3-0.6c-0.2-0.1-0.5-0.1-0.7-0.1L264.9,216.7L264.9,216.7z M264.9,219.2v1.7h1.5c0.2,0,0.5,0,0.6-0.1
			c0.3-0.2,0.4-0.4,0.4-0.8c0-0.3-0.2-0.6-0.4-0.7c-0.2-0.1-0.4-0.1-0.6-0.1H264.9z"/>
		<path d="M271,220c0.1,0.3,0.2,0.5,0.2,0.6c0.2,0.2,0.6,0.4,1.1,0.4c0.3,0,0.6,0,0.8-0.1c0.4-0.2,0.6-0.4,0.6-0.7
			c0-0.2-0.1-0.4-0.2-0.5c-0.2-0.1-0.5-0.2-0.9-0.3l-0.7-0.2c-0.6-0.2-1.1-0.3-1.5-0.5c-0.4-0.3-0.6-0.7-0.6-1.4
			c0-0.6,0.2-1.1,0.6-1.5s1.1-0.6,1.9-0.6c0.7,0,1.3,0.2,1.8,0.6c0.5,0.3,0.7,0.9,0.7,1.5h-1.3c0-0.4-0.2-0.6-0.5-0.8
			c-0.2-0.1-0.5-0.2-0.8-0.2c-0.3,0-0.6,0.1-0.9,0.2c-0.2,0.2-0.3,0.3-0.3,0.6s0.1,0.4,0.3,0.5c0.2,0.1,0.4,0.2,0.9,0.2l1.1,0.2
			c0.5,0.1,0.9,0.2,1.1,0.5c0.4,0.3,0.6,0.7,0.6,1.3c0,0.6-0.2,1.1-0.6,1.5s-1.1,0.6-1.9,0.6c-0.9,0-1.5-0.2-2-0.6s-0.7-0.9-0.7-1.6
			L271,220L271,220L271,220z"/>
	</g>
	<g>
		<path d="M237.9,229.7h2.8c0.8,0,1.4,0.2,1.7,0.7c0.2,0.2,0.3,0.6,0.3,1s-0.1,0.7-0.3,1.1c-0.2,0.2-0.3,0.2-0.6,0.4
			c0.3,0.2,0.6,0.2,0.7,0.4c0.3,0.3,0.5,0.7,0.5,1.2c0,0.4-0.2,0.8-0.4,1.1c-0.4,0.5-1.1,0.8-1.9,0.8h-2.8V229.7L237.9,229.7z
			 M240.5,232.5c0.4,0,0.6-0.1,0.9-0.2c0.3-0.2,0.5-0.5,0.5-0.9s-0.2-0.7-0.6-0.9c-0.2-0.1-0.5-0.2-0.9-0.2h-1.6v2L240.5,232.5
			L240.5,232.5L240.5,232.5z M240.8,235.6c0.6,0,1-0.2,1.2-0.5c0.2-0.2,0.2-0.5,0.2-0.7c0-0.5-0.2-0.8-0.6-1
			c-0.2-0.1-0.6-0.2-0.9-0.2H239v2.3H240.8L240.8,235.6z"/>
		<path d="M244.1,229.7h0.8v6.6h-0.8V229.7z"/>
		<path d="M249.6,232c0.4,0.4,0.6,1.1,0.6,1.9c0,0.8-0.2,1.5-0.6,1.9c-0.4,0.5-1,0.7-1.8,0.7c-0.6,0-1.2-0.2-1.5-0.6
			c-0.4-0.5-0.6-1.1-0.6-1.8c0-0.8,0.2-1.5,0.6-1.9c0.4-0.5,1-0.7,1.6-0.7C248.7,231.4,249.2,231.6,249.6,232z M249.1,235.3
			c0.2-0.4,0.3-0.9,0.3-1.4c0-0.5-0.1-0.8-0.2-1.1c-0.2-0.5-0.6-0.6-1.1-0.6c-0.5,0-0.8,0.2-1.1,0.6c-0.2,0.4-0.3,0.8-0.3,1.4
			c0,0.5,0.1,1,0.3,1.3c0.2,0.3,0.6,0.5,1.1,0.5C248.5,235.8,248.9,235.7,249.1,235.3z"/>
		<path d="M254.4,231.8c0.3,0.2,0.6,0.7,0.6,1.4h-0.8c-0.1-0.3-0.2-0.6-0.3-0.7s-0.5-0.3-0.8-0.3c-0.5,0-0.9,0.2-1.1,0.7
			c-0.2,0.3-0.2,0.7-0.2,1.2c0,0.5,0.1,0.9,0.3,1.2c0.2,0.3,0.6,0.5,1,0.5c0.3,0,0.6-0.1,0.8-0.3c0.2-0.2,0.3-0.5,0.4-0.8h0.8
			c-0.1,0.6-0.3,1.1-0.6,1.4c-0.3,0.3-0.8,0.5-1.4,0.5c-0.6,0-1.1-0.2-1.5-0.7s-0.6-1.1-0.6-1.7c0-0.9,0.2-1.5,0.6-2
			c0.4-0.5,1-0.7,1.6-0.7C253.7,231.4,254.1,231.5,254.4,231.8z"/>
		<path d="M255.9,229.7h0.8v3.9l2.1-2h1.1l-1.9,1.8l1.9,3.1h-1.1l-1.5-2.4l-0.6,0.6v1.8h-0.8L255.9,229.7L255.9,229.7z"/>
		<path d="M263.8,234.2c0,0.4,0.1,0.6,0.2,0.9c0.3,0.4,0.8,0.6,1.5,0.6c0.3,0,0.6-0.1,0.9-0.2c0.5-0.2,0.8-0.5,0.8-1
			c0-0.3-0.1-0.6-0.3-0.8c-0.2-0.2-0.6-0.2-1.1-0.4l-0.9-0.2c-0.6-0.2-1-0.2-1.2-0.4c-0.4-0.2-0.6-0.7-0.6-1.2
			c0-0.6,0.2-1.1,0.6-1.5s1-0.6,1.7-0.6c0.6,0,1.2,0.2,1.7,0.5c0.5,0.3,0.7,0.9,0.7,1.6H267c-0.1-0.3-0.2-0.6-0.2-0.8
			c-0.2-0.3-0.7-0.5-1.4-0.5c-0.5,0-0.9,0.1-1.1,0.3c-0.2,0.2-0.3,0.5-0.3,0.8s0.2,0.6,0.4,0.7c0.2,0.1,0.6,0.2,1.1,0.3l0.9,0.2
			c0.4,0.1,0.8,0.2,1,0.4c0.4,0.3,0.6,0.7,0.6,1.4c0,0.7-0.2,1.3-0.8,1.6c-0.5,0.3-1.1,0.5-1.8,0.5c-0.8,0-1.5-0.2-1.9-0.6
			c-0.5-0.4-0.6-1-0.6-1.7L263.8,234.2L263.8,234.2z"/>
		<path d="M269.4,230.2h0.8v1.4h0.8v0.6h-0.8v3.2c0,0.2,0.1,0.2,0.2,0.3c0.1,0,0.2,0.1,0.3,0.1c0,0,0.1,0,0.2,0s0.1,0,0.2,0v0.6
			c-0.1,0-0.2,0.1-0.3,0.1c-0.1,0-0.2,0-0.3,0c-0.4,0-0.6-0.1-0.8-0.3c-0.2-0.2-0.2-0.5-0.2-0.7v-3.2h-0.6v-0.6h0.6L269.4,230.2
			L269.4,230.2z"/>
		<path d="M275.4,232c0.4,0.4,0.6,1.1,0.6,1.9c0,0.8-0.2,1.5-0.6,1.9c-0.4,0.5-1,0.7-1.8,0.7c-0.6,0-1.2-0.2-1.5-0.6
			c-0.4-0.5-0.6-1.1-0.6-1.8c0-0.8,0.2-1.5,0.6-1.9c0.4-0.5,1-0.7,1.6-0.7C274.4,231.4,274.9,231.6,275.4,232z M274.8,235.3
			c0.2-0.4,0.3-0.9,0.3-1.4c0-0.5-0.1-0.8-0.2-1.1c-0.2-0.5-0.6-0.6-1.1-0.6s-0.8,0.2-1.1,0.6s-0.3,0.8-0.3,1.4c0,0.5,0.1,1,0.3,1.3
			c0.2,0.3,0.6,0.5,1.1,0.5C274.2,235.8,274.6,235.7,274.8,235.3z"/>
		<path d="M277,231.5h0.8v0.8c0.1-0.2,0.2-0.3,0.5-0.6s0.6-0.3,0.9-0.3c0,0,0,0,0.1,0c0.1,0,0.1,0,0.2,0v0.9c-0.1,0-0.1,0-0.2,0
			c-0.1,0-0.1,0-0.2,0c-0.4,0-0.7,0.2-1,0.4s-0.3,0.6-0.3,0.9v2.8H277V231.5L277,231.5z"/>
		<path d="M282.7,233.4c0.2,0,0.3-0.1,0.4-0.2c0-0.1,0.1-0.2,0.1-0.3c0-0.2-0.1-0.5-0.3-0.6c-0.2-0.2-0.5-0.2-0.8-0.2
			c-0.4,0-0.7,0.1-0.9,0.3c-0.1,0.2-0.2,0.3-0.2,0.6h-0.7c0-0.6,0.2-1.1,0.6-1.2c0.4-0.2,0.8-0.3,1.3-0.3c0.6,0,1.1,0.1,1.4,0.3
			c0.3,0.2,0.6,0.6,0.6,1.1v2.8c0,0.1,0,0.2,0.1,0.2c0,0.1,0.1,0.1,0.2,0.1c0,0,0.1,0,0.2,0c0.1,0,0.1,0,0.2,0v0.6
			c-0.2,0-0.2,0.1-0.3,0.1c-0.1,0-0.2,0-0.2,0c-0.2,0-0.5-0.1-0.6-0.3c-0.1-0.1-0.1-0.2-0.2-0.5c-0.2,0.2-0.4,0.4-0.7,0.6
			c-0.3,0.2-0.6,0.2-1.1,0.2c-0.5,0-0.8-0.2-1.1-0.4c-0.3-0.2-0.4-0.6-0.4-1.1c0-0.5,0.2-0.8,0.4-1.1c0.2-0.2,0.6-0.4,1.1-0.5
			L282.7,233.4z M281,235.7c0.2,0.2,0.4,0.2,0.6,0.2c0.3,0,0.6-0.1,0.8-0.2c0.5-0.2,0.6-0.6,0.6-1.1V234c-0.1,0.1-0.2,0.1-0.4,0.2
			s-0.3,0.1-0.5,0.1l-0.5,0.1c-0.3,0-0.5,0.1-0.6,0.2c-0.2,0.2-0.4,0.4-0.4,0.6C280.7,235.3,280.8,235.5,281,235.7z"/>
		<path d="M287.9,231.7c0.2,0.1,0.3,0.2,0.5,0.5v-0.6h0.7v4.4c0,0.6-0.1,1.1-0.2,1.5c-0.3,0.6-1,1-1.9,1c-0.5,0-1-0.1-1.3-0.3
			c-0.3-0.2-0.6-0.6-0.6-1.1h0.8c0,0.2,0.1,0.4,0.2,0.5c0.2,0.2,0.5,0.2,0.9,0.2c0.6,0,1.1-0.2,1.2-0.6c0.1-0.2,0.2-0.7,0.2-1.4
			c-0.2,0.2-0.3,0.4-0.6,0.6c-0.2,0.1-0.6,0.2-0.9,0.2c-0.5,0-1-0.2-1.4-0.6s-0.6-1-0.6-1.9c0-0.8,0.2-1.5,0.6-1.9
			c0.4-0.5,0.9-0.6,1.5-0.6C287.3,231.4,287.6,231.5,287.9,231.7z M288,232.6c-0.2-0.3-0.6-0.4-1-0.4c-0.6,0-1,0.2-1.1,0.8
			c-0.1,0.3-0.2,0.6-0.2,1.1c0,0.6,0.1,1,0.3,1.2c0.2,0.3,0.5,0.4,0.9,0.4c0.6,0,1-0.2,1.2-0.8c0.2-0.3,0.2-0.6,0.2-1.1
			C288.4,233.3,288.2,232.9,288,232.6z"/>
		<path d="M293.3,231.6c0.3,0.2,0.6,0.4,0.7,0.6c0.2,0.2,0.2,0.6,0.3,0.9c0.1,0.2,0.1,0.6,0.1,1.1h-3.6c0,0.5,0.2,0.9,0.3,1.2
			c0.2,0.3,0.6,0.5,1,0.5s0.7-0.2,1-0.4c0.2-0.2,0.2-0.3,0.3-0.6h0.8c0,0.2-0.1,0.4-0.2,0.6c-0.1,0.2-0.2,0.4-0.4,0.6
			c-0.2,0.2-0.6,0.4-0.9,0.5c-0.2,0.1-0.4,0.1-0.6,0.1c-0.6,0-1.1-0.2-1.5-0.6c-0.4-0.4-0.6-1.1-0.6-1.9s0.2-1.4,0.6-1.9
			c0.4-0.5,1-0.7,1.6-0.7C292.7,231.4,293,231.4,293.3,231.6z M293.7,233.6c0-0.3-0.1-0.6-0.2-0.8c-0.2-0.4-0.6-0.6-1.1-0.6
			c-0.4,0-0.6,0.2-1,0.4c-0.2,0.2-0.4,0.6-0.4,1.1L293.7,233.6L293.7,233.6z"/>
	</g>
	
		<linearGradient id="SVGID_1_" gradientUnits="userSpaceOnUse" x1="241.3756" y1="3163.606" x2="259.7546" y2="3163.606" gradientTransform="matrix(1 0 0 1 0 -2993)">
		<stop  offset="0" style="stop-color:#CCE0F4"/>
		<stop  offset="0" style="stop-color:#CDD8EB"/>
		<stop  offset="0" style="stop-color:#D0C4D1"/>
		<stop  offset="0" style="stop-color:#D5A3A8"/>
		<stop  offset="0" style="stop-color:#DB756F"/>
		<stop  offset="0" style="stop-color:#E05243"/>
		<stop  offset="0.1406" style="stop-color:#E05243"/>
		<stop  offset="0.9947" style="stop-color:#E05243"/>
	</linearGradient>
	<path class="st3" d="M289.1,198.1c-15.9,0-31.9,0-47.8,0c0-0.2,0-0.3,0-0.5c0-17.2,0-34.5,0-51.8c0-0.7,0-1.5,0-2.3
		c0-0.3,0.1-0.5,0.4-0.5c0.1,0,0.2,0,0.3,0c15.4,0,30.8,0,46.2,0c0.7,0,0.7,0,0.7,0.7c0,17.9,0,35.8,0.1,53.6
		C289.1,197.7,289.1,197.9,289.1,198.1z"/>
	<g>
		
			<linearGradient id="SVGID_2_" gradientUnits="userSpaceOnUse" x1="242.2004" y1="3128.3303" x2="288.075" y2="3128.3303" gradientTransform="matrix(1 0 0 1 0 -2993)">
			<stop  offset="0" style="stop-color:#CCE0F4"/>
			<stop  offset="0" style="stop-color:#CDD8EB"/>
			<stop  offset="0" style="stop-color:#D0C4D1"/>
			<stop  offset="0" style="stop-color:#D5A3A8"/>
			<stop  offset="0" style="stop-color:#DB756F"/>
			<stop  offset="0" style="stop-color:#E05243"/>
			<stop  offset="0.1406" style="stop-color:#E05243"/>
			<stop  offset="0.9947" style="stop-color:#E05243"/>
		</linearGradient>
		<path class="st4" d="M288,139.9c-0.2,0-0.4,0-0.6,0c-15,0-45.2,0-45.2,0v-0.6v-1.9c0,0,0,0,0-0.1c0.2-0.2,1.2-1.3,1.2-1.3l5.3-4.9
			c0,0,0.4-0.2,0.6-0.2c10.6,0,21.2,0,31.8,0c0.2,0,0.5,0.1,0.6,0.2c2,2,4,4,6,6.1c0.1,0.1,0.2,0.2,0.2,0.3
			C288,138.2,288,139,288,139.9z"/>
		<g id="darker_bars">
			<rect x="242.2" y="137.4" class="st5" width="45.8" height="2.4"/>
			<rect x="241.4" y="195.7" class="st5" width="47.8" height="2.4"/>
		</g>
	</g>
	<g>
		<path id="path12_1_" class="st6" d="M268.2,206.4v-0.8c0-0.2,0.1-0.2,0.2-0.2h3.6c0.1,0,0.2,0.1,0.2,0.2v0.7
			c0,0.1-0.1,0.2-0.2,0.5l-1.9,2.8c0.7,0,1.5,0.1,2.1,0.5c0.2,0.1,0.2,0.2,0.2,0.3v0.9c0,0.1-0.2,0.2-0.2,0.2
			c-1.1-0.6-2.6-0.6-3.9,0c-0.2,0.1-0.2-0.1-0.2-0.2v-0.8c0-0.2,0-0.3,0.2-0.6l2.2-3.2h-1.9C268.3,206.6,268.2,206.5,268.2,206.4"/>
		<path id="path14_1_" class="st6" d="M254.8,211.5h-1.1c-0.1,0-0.2-0.1-0.2-0.2v-5.7c0-0.1,0.1-0.2,0.2-0.2h1.1
			c0.1,0,0.2,0.1,0.2,0.2v0.7l0,0c0.2-0.7,0.8-1.1,1.5-1.1c0.7,0,1.1,0.3,1.5,1.1c0.2-0.7,0.9-1.1,1.5-1.1c0.5,0,1,0.2,1.3,0.6
			c0.3,0.5,0.2,1.2,0.2,1.8v3.6c0,0.1-0.1,0.2-0.2,0.2h-1.1c-0.1,0-0.2-0.1-0.2-0.2v-3.1c0-0.2,0-0.8,0-1.1
			c-0.1-0.4-0.3-0.5-0.6-0.5c-0.2,0-0.6,0.2-0.6,0.5c-0.1,0.3-0.1,0.8-0.1,1.1v3.1c0,0.1-0.1,0.2-0.2,0.2h-1.1
			c-0.1,0-0.2-0.1-0.2-0.2v-3.1c0-0.6,0.1-1.6-0.6-1.6c-0.8,0-0.8,0.9-0.8,1.6v3.1C255.1,211.5,255,211.5,254.8,211.5"/>
		<path id="path16_1_" class="st6" d="M275.5,205.3c1.6,0,2.6,1.5,2.6,3.2s-1,3.2-2.6,3.2s-2.5-1.5-2.5-3.2
			C272.9,206.7,273.8,205.3,275.5,205.3 M275.5,206.4c-0.8,0-0.9,1.1-0.9,1.8c0,0.7,0,2.2,0.9,2.2s0.9-1.2,0.9-1.9
			c0-0.5,0-1.1-0.2-1.5C276,206.6,275.8,206.4,275.5,206.4"/>
		<path id="path18_1_" class="st6" d="M280.1,211.5H279c-0.1,0-0.2-0.1-0.2-0.2v-5.7c0-0.1,0.1-0.2,0.2-0.2h1.1
			c0.1,0,0.2,0.1,0.2,0.2v0.9l0,0c0.3-0.8,0.7-1.1,1.5-1.1c0.5,0,1,0.2,1.3,0.6c0.3,0.5,0.3,1.2,0.3,1.8v3.6c0,0.1-0.1,0.2-0.2,0.2
			h-1.1c-0.1,0-0.2-0.1-0.2-0.2v-3.1c0-0.6,0.1-1.5-0.7-1.5c-0.2,0-0.5,0.2-0.6,0.5s-0.2,0.7-0.2,1.1v3.1
			C280.4,211.5,280.2,211.5,280.1,211.5"/>
		<path id="path28_1_" class="st6" d="M265.3,208.8c0,0.4,0,0.8-0.2,1.2c-0.2,0.3-0.5,0.5-0.8,0.5c-0.4,0-0.6-0.3-0.6-0.8
			c0-1,0.9-1.1,1.7-1.1L265.3,208.8 M266.4,211.5c-0.1,0.1-0.2,0.1-0.2,0c-0.4-0.3-0.4-0.5-0.6-0.7c-0.6,0.6-1.1,0.8-1.9,0.8
			c-1,0-1.7-0.6-1.7-1.7c0-0.9,0.5-1.5,1.2-1.9c0.6-0.2,1.5-0.3,2.1-0.4v-0.2c0-0.2,0-0.6-0.2-0.8c-0.2-0.2-0.4-0.3-0.6-0.3
			c-0.4,0-0.8,0.2-0.9,0.6c0,0.1-0.1,0.2-0.2,0.2l-1.1-0.1c-0.1,0-0.2-0.1-0.2-0.2c0.2-1.3,1.5-1.7,2.5-1.7c0.6,0,1.2,0.2,1.7,0.6
			c0.6,0.5,0.5,1.2,0.5,1.9v1.7c0,0.5,0.2,0.7,0.4,1.1c0.1,0.1,0.1,0.2,0,0.3C267,211,266.6,211.3,266.4,211.5L266.4,211.5"/>
		<path id="path30_1_" class="st6" d="M250.7,208.8c0,0.4,0,0.8-0.2,1.2c-0.2,0.3-0.5,0.5-0.8,0.5c-0.4,0-0.6-0.3-0.6-0.8
			c0-1,0.9-1.1,1.6-1.1L250.7,208.8 M251.7,211.5c-0.1,0.1-0.2,0.1-0.2,0c-0.4-0.3-0.4-0.5-0.6-0.7c-0.6,0.6-1.1,0.8-1.9,0.8
			c-1,0-1.7-0.6-1.7-1.7c0-0.9,0.5-1.5,1.2-1.9c0.6-0.2,1.5-0.3,2.1-0.4v-0.2c0-0.2,0-0.6-0.2-0.8c-0.2-0.2-0.4-0.3-0.6-0.3
			c-0.4,0-0.8,0.2-0.9,0.6c0,0.1-0.1,0.2-0.2,0.2l-1.1-0.1c-0.1,0-0.2-0.1-0.2-0.2c0.2-1.3,1.5-1.7,2.5-1.7c0.6,0,1.2,0.2,1.7,0.6
			c0.6,0.5,0.5,1.2,0.5,1.9v1.7c0,0.5,0.2,0.7,0.4,1.1c0.1,0.1,0.1,0.2,0,0.3C252.4,211,252,211.3,251.7,211.5L251.7,211.5"/>
	</g>
</g>
<g>
	<g>
		<path d="M443,216.8h-3.4v1.4h3.2v1.1h-3.2v1.7h3.6v1.1h-4.9v-6.5h4.8L443,216.8L443,216.8z"/>
		<path d="M449,216.3c0.2,0.2,0.3,0.6,0.3,1s-0.1,0.7-0.3,1c-0.1,0.2-0.2,0.2-0.5,0.4c0.3,0.1,0.6,0.3,0.7,0.6
			c0.2,0.2,0.2,0.6,0.2,1c0,0.4-0.1,0.7-0.3,1.1c-0.2,0.2-0.2,0.4-0.5,0.5c-0.2,0.2-0.5,0.2-0.7,0.3c-0.2,0.1-0.6,0.1-0.9,0.1h-2.9
			v-6.5h3.2C448.2,215.6,448.6,215.9,449,216.3z M445.5,216.8v1.5h1.5c0.2,0,0.5-0.1,0.6-0.2c0.2-0.1,0.2-0.3,0.2-0.6
			c0-0.3-0.1-0.5-0.3-0.6c-0.2-0.1-0.5-0.1-0.7-0.1L445.5,216.8L445.5,216.8z M445.5,219.3v1.7h1.5c0.2,0,0.5,0,0.6-0.1
			c0.3-0.2,0.4-0.4,0.4-0.8c0-0.3-0.2-0.6-0.4-0.7c-0.2-0.1-0.4-0.1-0.6-0.1H445.5z"/>
		<path d="M451.6,220.1c0.1,0.3,0.2,0.5,0.2,0.6c0.2,0.2,0.6,0.4,1.1,0.4c0.3,0,0.6,0,0.8-0.1c0.4-0.2,0.6-0.4,0.6-0.7
			c0-0.2-0.1-0.4-0.2-0.5c-0.2-0.1-0.5-0.2-0.9-0.3l-0.7-0.2c-0.6-0.2-1.1-0.3-1.5-0.5c-0.4-0.3-0.6-0.7-0.6-1.4
			c0-0.6,0.2-1.1,0.6-1.5c0.4-0.4,1.1-0.6,1.9-0.6c0.7,0,1.3,0.2,1.8,0.6c0.5,0.3,0.7,0.9,0.7,1.5h-1.3c0-0.4-0.2-0.6-0.5-0.8
			c-0.2-0.1-0.5-0.2-0.8-0.2c-0.3,0-0.6,0.1-0.9,0.2c-0.2,0.2-0.3,0.3-0.3,0.6c0,0.2,0.1,0.4,0.3,0.5c0.2,0.1,0.4,0.2,0.9,0.2
			l1.1,0.2c0.5,0.1,0.9,0.2,1.1,0.5c0.4,0.3,0.6,0.7,0.6,1.3s-0.2,1.1-0.6,1.5s-1.1,0.6-1.9,0.6c-0.9,0-1.5-0.2-2-0.6
			s-0.7-0.9-0.7-1.6L451.6,220.1L451.6,220.1L451.6,220.1z"/>
	</g>
	<g>
		<path d="M418.5,229.8h2.8c0.8,0,1.4,0.2,1.7,0.7c0.2,0.2,0.3,0.6,0.3,1s-0.1,0.7-0.3,1.1c-0.2,0.2-0.3,0.2-0.6,0.4
			c0.3,0.2,0.6,0.2,0.7,0.4c0.3,0.3,0.5,0.7,0.5,1.2c0,0.4-0.2,0.8-0.4,1.1c-0.4,0.5-1.1,0.8-1.9,0.8h-2.8V229.8L418.5,229.8z
			 M421.1,232.5c0.4,0,0.6-0.1,0.9-0.2c0.3-0.2,0.5-0.5,0.5-0.9c0-0.4-0.2-0.7-0.6-0.9c-0.2-0.1-0.5-0.2-0.9-0.2h-1.6v2L421.1,232.5
			L421.1,232.5L421.1,232.5z M421.5,235.6c0.6,0,1-0.2,1.2-0.5c0.2-0.2,0.2-0.5,0.2-0.7c0-0.5-0.2-0.8-0.6-1
			c-0.2-0.1-0.6-0.2-0.9-0.2h-1.8v2.3H421.5L421.5,235.6z"/>
		<path d="M424.7,229.8h0.8v6.6h-0.8V229.8z"/>
		<path d="M430.3,232.1c0.4,0.4,0.6,1.1,0.6,1.9c0,0.8-0.2,1.5-0.6,1.9c-0.4,0.5-1,0.7-1.8,0.7c-0.6,0-1.2-0.2-1.5-0.6
			c-0.4-0.5-0.6-1.1-0.6-1.8c0-0.8,0.2-1.5,0.6-1.9c0.4-0.5,1-0.7,1.6-0.7C429.3,231.4,429.8,231.7,430.3,232.1z M429.7,235.3
			c0.2-0.4,0.3-0.9,0.3-1.4c0-0.5-0.1-0.8-0.2-1.1c-0.2-0.5-0.6-0.6-1.1-0.6s-0.8,0.2-1.1,0.6s-0.3,0.8-0.3,1.4c0,0.5,0.1,1,0.3,1.3
			s0.6,0.5,1.1,0.5C429.1,235.9,429.5,235.7,429.7,235.3z"/>
		<path d="M435.1,231.8c0.3,0.2,0.6,0.7,0.6,1.4h-0.8c-0.1-0.3-0.2-0.6-0.3-0.7c-0.2-0.2-0.5-0.3-0.8-0.3c-0.5,0-0.9,0.2-1.1,0.7
			c-0.2,0.3-0.2,0.7-0.2,1.2c0,0.5,0.1,0.9,0.3,1.2c0.2,0.3,0.6,0.5,1,0.5c0.3,0,0.6-0.1,0.8-0.3c0.2-0.2,0.3-0.5,0.4-0.8h0.8
			c-0.1,0.6-0.3,1.1-0.6,1.4c-0.3,0.3-0.8,0.5-1.4,0.5c-0.6,0-1.1-0.2-1.5-0.7s-0.6-1.1-0.6-1.7c0-0.9,0.2-1.5,0.6-2
			c0.4-0.5,1-0.7,1.6-0.7C434.3,231.4,434.7,231.6,435.1,231.8z"/>
		<path d="M436.5,229.8h0.8v3.9l2.1-2h1.1l-1.9,1.8l1.9,3.1h-1.1l-1.5-2.4l-0.6,0.6v1.8h-0.8L436.5,229.8L436.5,229.8z"/>
		<path d="M444.4,234.2c0,0.4,0.1,0.6,0.2,0.9c0.3,0.4,0.8,0.6,1.5,0.6c0.3,0,0.6-0.1,0.9-0.2c0.5-0.2,0.8-0.5,0.8-1
			c0-0.3-0.1-0.6-0.3-0.8c-0.2-0.2-0.6-0.2-1.1-0.4l-0.9-0.2c-0.6-0.2-1-0.2-1.2-0.4c-0.4-0.2-0.6-0.7-0.6-1.2
			c0-0.6,0.2-1.1,0.6-1.5c0.4-0.4,1-0.6,1.7-0.6c0.6,0,1.2,0.2,1.7,0.5c0.5,0.3,0.7,0.9,0.7,1.6h-0.8c-0.1-0.3-0.2-0.6-0.2-0.8
			c-0.2-0.3-0.7-0.5-1.4-0.5c-0.5,0-0.9,0.1-1.1,0.3c-0.2,0.2-0.3,0.5-0.3,0.8c0,0.3,0.2,0.6,0.4,0.7c0.2,0.1,0.6,0.2,1.1,0.3
			l0.9,0.2c0.4,0.1,0.8,0.2,1,0.4c0.4,0.3,0.6,0.7,0.6,1.4c0,0.7-0.2,1.3-0.8,1.6c-0.5,0.3-1.1,0.5-1.8,0.5c-0.8,0-1.5-0.2-1.9-0.6
			c-0.5-0.4-0.6-1-0.6-1.7L444.4,234.2L444.4,234.2z"/>
		<path d="M450,230.2h0.8v1.4h0.8v0.6h-0.8v3.2c0,0.2,0.1,0.2,0.2,0.3c0.1,0,0.2,0.1,0.3,0.1c0,0,0.1,0,0.2,0s0.1,0,0.2,0v0.6
			c-0.1,0-0.2,0.1-0.3,0.1c-0.1,0-0.2,0-0.3,0c-0.4,0-0.6-0.1-0.8-0.3c-0.2-0.2-0.2-0.5-0.2-0.7v-3.2h-0.6v-0.6h0.6L450,230.2
			L450,230.2z"/>
		<path d="M456,232.1c0.4,0.4,0.6,1.1,0.6,1.9c0,0.8-0.2,1.5-0.6,1.9s-1,0.7-1.8,0.7c-0.6,0-1.2-0.2-1.5-0.6
			c-0.4-0.5-0.6-1.1-0.6-1.8c0-0.8,0.2-1.5,0.6-1.9c0.4-0.5,1-0.7,1.6-0.7C455,231.4,455.5,231.7,456,232.1z M455.4,235.3
			c0.2-0.4,0.3-0.9,0.3-1.4c0-0.5-0.1-0.8-0.2-1.1c-0.2-0.5-0.6-0.6-1.1-0.6s-0.8,0.2-1.1,0.6s-0.3,0.8-0.3,1.4c0,0.5,0.1,1,0.3,1.3
			s0.6,0.5,1.1,0.5C454.9,235.9,455.3,235.7,455.4,235.3z"/>
		<path d="M457.6,231.6h0.8v0.8c0.1-0.2,0.2-0.3,0.5-0.6c0.2-0.2,0.6-0.3,0.9-0.3c0,0,0,0,0.1,0c0.1,0,0.1,0,0.2,0v0.9
			c-0.1,0-0.1,0-0.2,0c-0.1,0-0.1,0-0.2,0c-0.4,0-0.7,0.2-1,0.4c-0.2,0.2-0.3,0.6-0.3,0.9v2.8h-0.8V231.6L457.6,231.6z"/>
		<path d="M463.3,233.4c0.2,0,0.3-0.1,0.4-0.2c0-0.1,0.1-0.2,0.1-0.3c0-0.2-0.1-0.5-0.3-0.6c-0.2-0.2-0.5-0.2-0.8-0.2
			c-0.4,0-0.7,0.1-0.9,0.3c-0.1,0.2-0.2,0.3-0.2,0.6h-0.7c0-0.6,0.2-1.1,0.6-1.2c0.4-0.2,0.8-0.3,1.3-0.3c0.6,0,1.1,0.1,1.4,0.3
			c0.3,0.2,0.6,0.6,0.6,1.1v2.8c0,0.1,0,0.2,0.1,0.2c0,0.1,0.1,0.1,0.2,0.1c0,0,0.1,0,0.2,0c0.1,0,0.1,0,0.2,0v0.6
			c-0.2,0-0.2,0.1-0.3,0.1c-0.1,0-0.2,0-0.2,0c-0.2,0-0.5-0.1-0.6-0.3c-0.1-0.1-0.1-0.2-0.2-0.5c-0.2,0.2-0.4,0.4-0.7,0.6
			c-0.3,0.2-0.6,0.2-1.1,0.2c-0.5,0-0.8-0.2-1.1-0.4c-0.3-0.2-0.4-0.6-0.4-1.1c0-0.5,0.2-0.8,0.4-1.1c0.2-0.2,0.6-0.4,1.1-0.5
			L463.3,233.4z M461.6,235.7c0.2,0.2,0.4,0.2,0.6,0.2c0.3,0,0.6-0.1,0.8-0.2c0.5-0.2,0.6-0.6,0.6-1.1v-0.6
			c-0.1,0.1-0.2,0.1-0.4,0.2s-0.3,0.1-0.5,0.1l-0.5,0.1c-0.3,0-0.5,0.1-0.6,0.2c-0.2,0.2-0.4,0.4-0.4,0.6
			C461.3,235.4,461.4,235.5,461.6,235.7z"/>
		<path d="M468.5,231.7c0.2,0.1,0.3,0.2,0.5,0.5v-0.6h0.7v4.4c0,0.6-0.1,1.1-0.2,1.5c-0.3,0.6-1,1-1.9,1c-0.5,0-1-0.1-1.3-0.3
			s-0.6-0.6-0.6-1.1h0.8c0,0.2,0.1,0.4,0.2,0.5c0.2,0.2,0.5,0.2,0.9,0.2c0.6,0,1.1-0.2,1.2-0.6c0.1-0.2,0.2-0.7,0.2-1.4
			c-0.2,0.2-0.3,0.4-0.6,0.6c-0.2,0.1-0.6,0.2-0.9,0.2c-0.5,0-1-0.2-1.4-0.6s-0.6-1-0.6-1.9c0-0.8,0.2-1.5,0.6-1.9
			c0.4-0.5,0.9-0.6,1.5-0.6C467.9,231.5,468.2,231.6,468.5,231.7z M468.6,232.6c-0.2-0.3-0.6-0.4-1-0.4c-0.6,0-1,0.2-1.1,0.8
			c-0.1,0.3-0.2,0.6-0.2,1.1c0,0.6,0.1,1,0.3,1.2c0.2,0.3,0.5,0.4,0.9,0.4c0.6,0,1-0.2,1.2-0.8c0.2-0.3,0.2-0.6,0.2-1.1
			C469,233.3,468.9,232.9,468.6,232.6z"/>
		<path d="M474,231.7c0.3,0.2,0.6,0.4,0.7,0.6s0.2,0.6,0.3,0.9c0.1,0.2,0.1,0.6,0.1,1.1h-3.6c0,0.5,0.2,0.9,0.3,1.2
			c0.2,0.3,0.6,0.5,1,0.5s0.7-0.2,1-0.4c0.2-0.2,0.2-0.3,0.3-0.6h0.8c0,0.2-0.1,0.4-0.2,0.6c-0.1,0.2-0.2,0.4-0.4,0.6
			c-0.2,0.2-0.6,0.4-0.9,0.5c-0.2,0.1-0.4,0.1-0.6,0.1c-0.6,0-1.1-0.2-1.5-0.6s-0.6-1.1-0.6-1.9c0-0.8,0.2-1.4,0.6-1.9
			s1-0.7,1.6-0.7C473.3,231.4,473.6,231.5,474,231.7z M474.3,233.6c0-0.3-0.1-0.6-0.2-0.8c-0.2-0.4-0.6-0.6-1.1-0.6
			c-0.4,0-0.6,0.2-1,0.4c-0.2,0.2-0.4,0.6-0.4,1.1L474.3,233.6L474.3,233.6z"/>
	</g>
	
		<linearGradient id="SVGID_3_" gradientUnits="userSpaceOnUse" x1="422.0092" y1="3163.6455" x2="440.3882" y2="3163.6455" gradientTransform="matrix(1 0 0 1 0 -2993)">
		<stop  offset="0" style="stop-color:#CCE0F4"/>
		<stop  offset="0" style="stop-color:#CDD8EB"/>
		<stop  offset="0" style="stop-color:#D0C4D1"/>
		<stop  offset="0" style="stop-color:#D5A3A8"/>
		<stop  offset="0" style="stop-color:#DB756F"/>
		<stop  offset="0" style="stop-color:#E05243"/>
		<stop  offset="0.1406" style="stop-color:#E05243"/>
		<stop  offset="0.9947" style="stop-color:#E05243"/>
	</linearGradient>
	<path class="st7" d="M469.8,198.2c-15.9,0-31.9,0-47.8,0c0-0.2,0-0.3,0-0.5c0-17.2,0-34.5,0-51.8c0-0.7,0-1.5,0-2.3
		c0-0.3,0.1-0.5,0.4-0.5c0.1,0,0.2,0,0.3,0c15.4,0,30.8,0,46.2,0c0.7,0,0.7,0,0.7,0.7c0,17.9,0,35.8,0.1,53.6
		C469.8,197.7,469.8,197.9,469.8,198.2z"/>
	<g>
		
			<linearGradient id="SVGID_4_" gradientUnits="userSpaceOnUse" x1="422.834" y1="3128.3699" x2="468.7086" y2="3128.3699" gradientTransform="matrix(1 0 0 1 0 -2993)">
			<stop  offset="0" style="stop-color:#CCE0F4"/>
			<stop  offset="0" style="stop-color:#CDD8EB"/>
			<stop  offset="0" style="stop-color:#D0C4D1"/>
			<stop  offset="0" style="stop-color:#D5A3A8"/>
			<stop  offset="0" style="stop-color:#DB756F"/>
			<stop  offset="0" style="stop-color:#E05243"/>
			<stop  offset="0.1406" style="stop-color:#E05243"/>
			<stop  offset="0.9947" style="stop-color:#E05243"/>
		</linearGradient>
		<path class="st8" d="M468.6,139.9c-0.2,0-0.4,0-0.6,0c-15,0-45.2,0-45.2,0v-0.6v-1.9c0,0,0,0,0-0.1c0.2-0.2,1.2-1.3,1.2-1.3
			l5.3-4.9c0,0,0.4-0.2,0.6-0.2c10.6,0,21.2,0,31.8,0c0.2,0,0.5,0.1,0.6,0.2c2,2,4,4,6,6.1c0.1,0.1,0.2,0.2,0.2,0.3
			C468.6,138.3,468.6,139,468.6,139.9z"/>
		<g id="darker_bars_2_">
			<rect x="422.8" y="137.4" class="st5" width="45.8" height="2.4"/>
			<rect x="422" y="195.7" class="st5" width="47.8" height="2.4"/>
		</g>
	</g>
	<g>
		<path id="path12_3_" class="st6" d="M448.8,206.5v-0.8c0-0.2,0.1-0.2,0.2-0.2h3.6c0.1,0,0.2,0.1,0.2,0.2v0.7
			c0,0.1-0.1,0.2-0.2,0.5l-1.9,2.8c0.7,0,1.5,0.1,2.1,0.5c0.2,0.1,0.2,0.2,0.2,0.3v0.9c0,0.1-0.2,0.2-0.2,0.2
			c-1.1-0.6-2.6-0.6-3.9,0c-0.2,0.1-0.2-0.1-0.2-0.2v-0.8c0-0.2,0-0.3,0.2-0.6l2.2-3.2h-1.9C449,206.6,448.8,206.6,448.8,206.5"/>
		<path id="path14_3_" class="st6" d="M435.5,211.6h-1.1c-0.1,0-0.2-0.1-0.2-0.2v-5.7c0-0.1,0.1-0.2,0.2-0.2h1.1
			c0.1,0,0.2,0.1,0.2,0.2v0.7l0,0c0.2-0.7,0.8-1.1,1.5-1.1c0.7,0,1.1,0.3,1.5,1.1c0.2-0.7,0.9-1.1,1.5-1.1c0.5,0,1,0.2,1.3,0.6
			c0.3,0.5,0.2,1.2,0.2,1.8v3.6c0,0.1-0.1,0.2-0.2,0.2h-1.1c-0.1,0-0.2-0.1-0.2-0.2v-3.1c0-0.2,0-0.8,0-1.1
			c-0.1-0.4-0.3-0.5-0.6-0.5c-0.2,0-0.6,0.2-0.6,0.5c-0.1,0.3-0.1,0.8-0.1,1.1v3.1c0,0.1-0.1,0.2-0.2,0.2h-1.1
			c-0.1,0-0.2-0.1-0.2-0.2v-3.1c0-0.6,0.1-1.6-0.6-1.6c-0.8,0-0.8,0.9-0.8,1.6v3.1C435.7,211.5,435.6,211.6,435.5,211.6"/>
		<path id="path16_3_" class="st6" d="M456.1,205.4c1.6,0,2.6,1.5,2.6,3.2s-1,3.2-2.6,3.2c-1.6,0-2.5-1.5-2.5-3.2
			C453.6,206.7,454.5,205.4,456.1,205.4 M456.1,206.5c-0.8,0-0.9,1.1-0.9,1.8c0,0.7,0,2.2,0.9,2.2s0.9-1.2,0.9-1.9
			c0-0.5,0-1.1-0.2-1.5C456.7,206.6,456.4,206.5,456.1,206.5"/>
		<path id="path18_3_" class="st6" d="M460.8,211.6h-1.1c-0.1,0-0.2-0.1-0.2-0.2v-5.7c0-0.1,0.1-0.2,0.2-0.2h1.1
			c0.1,0,0.2,0.1,0.2,0.2v0.9l0,0c0.3-0.8,0.7-1.1,1.5-1.1c0.5,0,1,0.2,1.3,0.6c0.3,0.5,0.3,1.2,0.3,1.8v3.6c0,0.1-0.1,0.2-0.2,0.2
			h-1.1c-0.1,0-0.2-0.1-0.2-0.2v-3.1c0-0.6,0.1-1.5-0.7-1.5c-0.2,0-0.5,0.2-0.6,0.5s-0.2,0.7-0.2,1.1v3.1
			C461,211.5,460.9,211.6,460.8,211.6"/>
		<path id="path28_3_" class="st6" d="M445.9,208.8c0,0.4,0,0.8-0.2,1.2c-0.2,0.3-0.5,0.5-0.8,0.5c-0.4,0-0.6-0.3-0.6-0.8
			c0-1,0.9-1.1,1.7-1.1V208.8 M447,211.6c-0.1,0.1-0.2,0.1-0.2,0c-0.4-0.3-0.4-0.5-0.6-0.7c-0.6,0.6-1.1,0.8-1.9,0.8
			c-1,0-1.7-0.6-1.7-1.7c0-0.9,0.5-1.5,1.2-1.9c0.6-0.2,1.5-0.3,2.1-0.4v-0.2c0-0.2,0-0.6-0.2-0.8c-0.2-0.2-0.4-0.3-0.6-0.3
			c-0.4,0-0.8,0.2-0.9,0.6c0,0.1-0.1,0.2-0.2,0.2l-1.1-0.1c-0.1,0-0.2-0.1-0.2-0.2c0.2-1.3,1.5-1.7,2.5-1.7c0.6,0,1.2,0.2,1.7,0.6
			c0.6,0.5,0.5,1.2,0.5,1.9v1.7c0,0.5,0.2,0.7,0.4,1.1c0.1,0.1,0.1,0.2,0,0.3C447.7,211,447.3,211.3,447,211.6L447,211.6"/>
		<path id="path30_3_" class="st6" d="M431.3,208.8c0,0.4,0,0.8-0.2,1.2c-0.2,0.3-0.5,0.5-0.8,0.5c-0.4,0-0.6-0.3-0.6-0.8
			c0-1,0.9-1.1,1.6-1.1L431.3,208.8 M432.4,211.6c-0.1,0.1-0.2,0.1-0.2,0c-0.4-0.3-0.4-0.5-0.6-0.7c-0.6,0.6-1.1,0.8-1.9,0.8
			c-1,0-1.7-0.6-1.7-1.7c0-0.9,0.5-1.5,1.2-1.9c0.6-0.2,1.5-0.3,2.1-0.4v-0.2c0-0.2,0-0.6-0.2-0.8c-0.2-0.2-0.4-0.3-0.6-0.3
			c-0.4,0-0.8,0.2-0.9,0.6c0,0.1-0.1,0.2-0.2,0.2l-1.1-0.1c-0.1,0-0.2-0.1-0.2-0.2c0.2-1.3,1.5-1.7,2.5-1.7c0.6,0,1.2,0.2,1.7,0.6
			c0.6,0.5,0.5,1.2,0.5,1.9v1.7c0,0.5,0.2,0.7,0.4,1.1c0.1,0.1,0.1,0.2,0,0.3C433,211,432.6,211.3,432.4,211.6L432.4,211.6"/>
	</g>
</g>
<g>
	<g>
		<path d="M612.6,216.8h-3.4v1.4h3.2v1.1h-3.2v1.7h3.6v1.1h-4.9v-6.5h4.8V216.8L612.6,216.8z"/>
		<path d="M618.6,216.3c0.2,0.2,0.3,0.6,0.3,1s-0.1,0.7-0.3,1c-0.1,0.2-0.2,0.2-0.5,0.4c0.3,0.1,0.6,0.3,0.7,0.6
			c0.2,0.2,0.2,0.6,0.2,1c0,0.4-0.1,0.7-0.3,1.1c-0.2,0.2-0.2,0.4-0.5,0.5c-0.2,0.2-0.5,0.2-0.7,0.3s-0.6,0.1-0.9,0.1h-2.9v-6.5h3.2
			C617.8,215.6,618.2,215.9,618.6,216.3z M615.1,216.8v1.5h1.5c0.2,0,0.5-0.1,0.6-0.2c0.2-0.1,0.2-0.3,0.2-0.6
			c0-0.3-0.1-0.5-0.3-0.6c-0.2-0.1-0.5-0.1-0.7-0.1L615.1,216.8L615.1,216.8z M615.1,219.3v1.7h1.5c0.2,0,0.5,0,0.6-0.1
			c0.3-0.2,0.4-0.4,0.4-0.8c0-0.3-0.2-0.6-0.4-0.7c-0.2-0.1-0.4-0.1-0.6-0.1H615.1z"/>
		<path d="M621.2,220.1c0.1,0.3,0.2,0.5,0.2,0.6c0.2,0.2,0.6,0.4,1.1,0.4c0.3,0,0.6,0,0.8-0.1c0.4-0.2,0.6-0.4,0.6-0.7
			c0-0.2-0.1-0.4-0.2-0.5c-0.2-0.1-0.5-0.2-0.9-0.3l-0.7-0.2c-0.6-0.2-1.1-0.3-1.5-0.5c-0.4-0.3-0.6-0.7-0.6-1.4
			c0-0.6,0.2-1.1,0.6-1.5c0.4-0.4,1.1-0.6,1.9-0.6c0.7,0,1.3,0.2,1.8,0.6c0.5,0.3,0.7,0.9,0.7,1.5h-1.3c0-0.4-0.2-0.6-0.5-0.8
			c-0.2-0.1-0.5-0.2-0.8-0.2c-0.3,0-0.6,0.1-0.9,0.2c-0.2,0.2-0.3,0.3-0.3,0.6c0,0.2,0.1,0.4,0.3,0.5c0.2,0.1,0.4,0.2,0.9,0.2
			l1.1,0.2c0.5,0.1,0.9,0.2,1.1,0.5c0.4,0.3,0.6,0.7,0.6,1.3s-0.2,1.1-0.6,1.5s-1.1,0.6-1.9,0.6c-0.9,0-1.5-0.2-2-0.6
			s-0.7-0.9-0.7-1.6L621.2,220.1L621.2,220.1L621.2,220.1z"/>
	</g>
	<g>
		<path d="M588.1,229.8h2.8c0.8,0,1.4,0.2,1.7,0.7c0.2,0.2,0.3,0.6,0.3,1s-0.1,0.7-0.3,1.1c-0.2,0.2-0.3,0.2-0.6,0.4
			c0.3,0.2,0.6,0.2,0.7,0.4c0.3,0.3,0.5,0.7,0.5,1.2c0,0.4-0.2,0.8-0.4,1.1c-0.4,0.5-1.1,0.8-1.9,0.8h-2.8V229.8L588.1,229.8z
			 M590.7,232.5c0.4,0,0.6-0.1,0.9-0.2c0.3-0.2,0.5-0.5,0.5-0.9c0-0.4-0.2-0.7-0.6-0.9c-0.2-0.1-0.5-0.2-0.9-0.2H589v2L590.7,232.5
			L590.7,232.5L590.7,232.5z M591.1,235.6c0.6,0,1-0.2,1.2-0.5c0.2-0.2,0.2-0.5,0.2-0.7c0-0.5-0.2-0.8-0.6-1
			c-0.2-0.1-0.6-0.2-0.9-0.2h-1.8v2.3H591.1L591.1,235.6z"/>
		<path d="M594.3,229.8h0.8v6.6h-0.8V229.8z"/>
		<path d="M599.9,232.1c0.4,0.4,0.6,1.1,0.6,1.9c0,0.8-0.2,1.5-0.6,1.9s-1,0.7-1.8,0.7c-0.6,0-1.2-0.2-1.5-0.6
			c-0.4-0.5-0.6-1.1-0.6-1.8c0-0.8,0.2-1.5,0.6-1.9c0.4-0.5,1-0.7,1.6-0.7C598.9,231.4,599.4,231.7,599.9,232.1z M599.3,235.3
			c0.2-0.4,0.3-0.9,0.3-1.4c0-0.5-0.1-0.8-0.2-1.1c-0.2-0.5-0.6-0.6-1.1-0.6s-0.8,0.2-1.1,0.6c-0.2,0.4-0.3,0.8-0.3,1.4
			c0,0.5,0.1,1,0.3,1.3c0.2,0.3,0.6,0.5,1.1,0.5C598.7,235.9,599.1,235.7,599.3,235.3z"/>
		<path d="M604.7,231.8c0.3,0.2,0.6,0.7,0.6,1.4h-0.8c-0.1-0.3-0.2-0.6-0.3-0.7c-0.2-0.2-0.5-0.3-0.8-0.3c-0.5,0-0.9,0.2-1.1,0.7
			c-0.2,0.3-0.2,0.7-0.2,1.2c0,0.5,0.1,0.9,0.3,1.2c0.2,0.3,0.6,0.5,1,0.5c0.3,0,0.6-0.1,0.8-0.3c0.2-0.2,0.3-0.5,0.4-0.8h0.8
			c-0.1,0.6-0.3,1.1-0.6,1.4c-0.3,0.3-0.8,0.5-1.4,0.5c-0.6,0-1.1-0.2-1.5-0.7s-0.6-1.1-0.6-1.7c0-0.9,0.2-1.5,0.6-2
			c0.4-0.5,1-0.7,1.6-0.7C603.9,231.4,604.3,231.6,604.7,231.8z"/>
		<path d="M606.1,229.8h0.8v3.9l2.1-2h1.1l-1.9,1.8l1.9,3.1h-1.1l-1.5-2.4l-0.6,0.6v1.8h-0.8V229.8L606.1,229.8z"/>
		<path d="M614,234.2c0,0.4,0.1,0.6,0.2,0.9c0.3,0.4,0.8,0.6,1.5,0.6c0.3,0,0.6-0.1,0.9-0.2c0.5-0.2,0.8-0.5,0.8-1
			c0-0.3-0.1-0.6-0.3-0.8c-0.2-0.2-0.6-0.2-1.1-0.4l-0.9-0.2c-0.6-0.2-1-0.2-1.2-0.4c-0.4-0.2-0.6-0.7-0.6-1.2
			c0-0.6,0.2-1.1,0.6-1.5c0.4-0.4,1-0.6,1.7-0.6c0.6,0,1.2,0.2,1.7,0.5c0.5,0.3,0.7,0.9,0.7,1.6h-0.8c-0.1-0.3-0.2-0.6-0.2-0.8
			c-0.2-0.3-0.7-0.5-1.4-0.5c-0.5,0-0.9,0.1-1.1,0.3c-0.2,0.2-0.3,0.5-0.3,0.8c0,0.3,0.2,0.6,0.4,0.7c0.2,0.1,0.6,0.2,1.1,0.3
			l0.9,0.2c0.4,0.1,0.8,0.2,1,0.4c0.4,0.3,0.6,0.7,0.6,1.4c0,0.7-0.2,1.3-0.8,1.6c-0.5,0.3-1.1,0.5-1.8,0.5c-0.8,0-1.5-0.2-1.9-0.6
			c-0.5-0.4-0.6-1-0.6-1.7L614,234.2L614,234.2z"/>
		<path d="M619.6,230.2h0.8v1.4h0.8v0.6h-0.8v3.2c0,0.2,0.1,0.2,0.2,0.3c0.1,0,0.2,0.1,0.3,0.1c0,0,0.1,0,0.2,0s0.1,0,0.2,0v0.6
			c-0.1,0-0.2,0.1-0.3,0.1c-0.1,0-0.2,0-0.3,0c-0.4,0-0.6-0.1-0.8-0.3c-0.2-0.2-0.2-0.5-0.2-0.7v-3.2h-0.6v-0.6h0.6L619.6,230.2
			L619.6,230.2z"/>
		<path d="M625.6,232.1c0.4,0.4,0.6,1.1,0.6,1.9c0,0.8-0.2,1.5-0.6,1.9s-1,0.7-1.8,0.7c-0.6,0-1.2-0.2-1.5-0.6
			c-0.4-0.5-0.6-1.1-0.6-1.8c0-0.8,0.2-1.5,0.6-1.9c0.4-0.5,1-0.7,1.6-0.7C624.6,231.4,625.1,231.7,625.6,232.1z M625,235.3
			c0.2-0.4,0.3-0.9,0.3-1.4c0-0.5-0.1-0.8-0.2-1.1c-0.2-0.5-0.6-0.6-1.1-0.6c-0.5,0-0.8,0.2-1.1,0.6c-0.2,0.4-0.3,0.8-0.3,1.4
			c0,0.5,0.1,1,0.3,1.3c0.2,0.3,0.6,0.5,1.1,0.5C624.5,235.9,624.9,235.7,625,235.3z"/>
		<path d="M627.2,231.6h0.8v0.8c0.1-0.2,0.2-0.3,0.5-0.6c0.2-0.2,0.6-0.3,0.9-0.3c0,0,0,0,0.1,0c0.1,0,0.1,0,0.2,0v0.9
			c-0.1,0-0.1,0-0.2,0c-0.1,0-0.1,0-0.2,0c-0.4,0-0.7,0.2-1,0.4c-0.2,0.2-0.3,0.6-0.3,0.9v2.8h-0.8V231.6L627.2,231.6z"/>
		<path d="M632.9,233.4c0.2,0,0.3-0.1,0.4-0.2c0-0.1,0.1-0.2,0.1-0.3c0-0.2-0.1-0.5-0.3-0.6c-0.2-0.2-0.5-0.2-0.8-0.2
			c-0.4,0-0.7,0.1-0.9,0.3c-0.1,0.2-0.2,0.3-0.2,0.6h-0.7c0-0.6,0.2-1.1,0.6-1.2c0.4-0.2,0.8-0.3,1.3-0.3c0.6,0,1.1,0.1,1.4,0.3
			c0.3,0.2,0.6,0.6,0.6,1.1v2.8c0,0.1,0,0.2,0.1,0.2c0,0.1,0.1,0.1,0.2,0.1c0,0,0.1,0,0.2,0s0.1,0,0.2,0v0.6c-0.2,0-0.2,0.1-0.3,0.1
			s-0.2,0-0.2,0c-0.2,0-0.5-0.1-0.6-0.3c-0.1-0.1-0.1-0.2-0.2-0.5c-0.2,0.2-0.4,0.4-0.7,0.6c-0.3,0.2-0.6,0.2-1.1,0.2
			c-0.5,0-0.8-0.2-1.1-0.4c-0.3-0.2-0.4-0.6-0.4-1.1c0-0.5,0.2-0.8,0.4-1.1c0.2-0.2,0.6-0.4,1.1-0.5L632.9,233.4z M631.2,235.7
			c0.2,0.2,0.4,0.2,0.6,0.2c0.3,0,0.6-0.1,0.8-0.2c0.5-0.2,0.6-0.6,0.6-1.1v-0.6c-0.1,0.1-0.2,0.1-0.4,0.2c-0.2,0.1-0.3,0.1-0.5,0.1
			l-0.5,0.1c-0.3,0-0.5,0.1-0.6,0.2c-0.2,0.2-0.4,0.4-0.4,0.6C630.9,235.4,631,235.5,631.2,235.7z"/>
		<path d="M638.1,231.7c0.2,0.1,0.3,0.2,0.5,0.5v-0.6h0.7v4.4c0,0.6-0.1,1.1-0.2,1.5c-0.3,0.6-1,1-1.9,1c-0.5,0-1-0.1-1.3-0.3
			s-0.6-0.6-0.6-1.1h0.8c0,0.2,0.1,0.4,0.2,0.5c0.2,0.2,0.5,0.2,0.9,0.2c0.6,0,1.1-0.2,1.2-0.6c0.1-0.2,0.2-0.7,0.2-1.4
			c-0.2,0.2-0.3,0.4-0.6,0.6c-0.2,0.1-0.6,0.2-0.9,0.2c-0.5,0-1-0.2-1.4-0.6s-0.6-1-0.6-1.9c0-0.8,0.2-1.5,0.6-1.9
			c0.4-0.5,0.9-0.6,1.5-0.6C637.5,231.5,637.8,231.6,638.1,231.7z M638.2,232.6c-0.2-0.3-0.6-0.4-1-0.4c-0.6,0-1,0.2-1.1,0.8
			c-0.1,0.3-0.2,0.6-0.2,1.1c0,0.6,0.1,1,0.3,1.2c0.2,0.3,0.5,0.4,0.9,0.4c0.6,0,1-0.2,1.2-0.8c0.2-0.3,0.2-0.6,0.2-1.1
			C638.6,233.3,638.5,232.9,638.2,232.6z"/>
		<path d="M643.6,231.7c0.3,0.2,0.6,0.4,0.7,0.6c0.2,0.2,0.2,0.6,0.3,0.9c0.1,0.2,0.1,0.6,0.1,1.1h-3.6c0,0.5,0.2,0.9,0.3,1.2
			c0.2,0.3,0.6,0.5,1,0.5s0.7-0.2,1-0.4c0.2-0.2,0.2-0.3,0.3-0.6h0.8c0,0.2-0.1,0.4-0.2,0.6c-0.1,0.2-0.2,0.4-0.4,0.6
			c-0.2,0.2-0.6,0.4-0.9,0.5c-0.2,0.1-0.4,0.1-0.6,0.1c-0.6,0-1.1-0.2-1.5-0.6s-0.6-1.1-0.6-1.9c0-0.8,0.2-1.4,0.6-1.9
			s1-0.7,1.6-0.7C642.9,231.4,643.2,231.5,643.6,231.7z M643.9,233.6c0-0.3-0.1-0.6-0.2-0.8c-0.2-0.4-0.6-0.6-1.1-0.6
			c-0.4,0-0.6,0.2-1,0.4c-0.2,0.2-0.4,0.6-0.4,1.1L643.9,233.6L643.9,233.6z"/>
	</g>
	
		<linearGradient id="SVGID_5_" gradientUnits="userSpaceOnUse" x1="591.6093" y1="3163.6455" x2="609.9882" y2="3163.6455" gradientTransform="matrix(1 0 0 1 0 -2993)">
		<stop  offset="0" style="stop-color:#CCE0F4"/>
		<stop  offset="0" style="stop-color:#CDD8EB"/>
		<stop  offset="0" style="stop-color:#D0C4D1"/>
		<stop  offset="0" style="stop-color:#D5A3A8"/>
		<stop  offset="0" style="stop-color:#DB756F"/>
		<stop  offset="0" style="stop-color:#E05243"/>
		<stop  offset="0.1406" style="stop-color:#E05243"/>
		<stop  offset="0.9947" style="stop-color:#E05243"/>
	</linearGradient>
	<path class="st9" d="M639.4,198.2c-15.9,0-31.9,0-47.8,0c0-0.2,0-0.3,0-0.5c0-17.2,0-34.5,0-51.8c0-0.7,0-1.5,0-2.3
		c0-0.3,0.1-0.5,0.4-0.5c0.1,0,0.2,0,0.3,0c15.4,0,30.8,0,46.2,0c0.7,0,0.7,0,0.7,0.7c0,17.9,0,35.8,0.1,53.6
		C639.4,197.7,639.4,197.9,639.4,198.2z"/>
	<g>
		
			<linearGradient id="SVGID_6_" gradientUnits="userSpaceOnUse" x1="592.434" y1="3128.3699" x2="638.3087" y2="3128.3699" gradientTransform="matrix(1 0 0 1 0 -2993)">
			<stop  offset="0" style="stop-color:#CCE0F4"/>
			<stop  offset="0" style="stop-color:#CDD8EB"/>
			<stop  offset="0" style="stop-color:#D0C4D1"/>
			<stop  offset="0" style="stop-color:#D5A3A8"/>
			<stop  offset="0" style="stop-color:#DB756F"/>
			<stop  offset="0" style="stop-color:#E05243"/>
			<stop  offset="0.1406" style="stop-color:#E05243"/>
			<stop  offset="0.9947" style="stop-color:#E05243"/>
		</linearGradient>
		<path class="st10" d="M638.2,139.9c-0.2,0-0.4,0-0.6,0c-15,0-45.2,0-45.2,0v-0.6v-1.9c0,0,0,0,0-0.1c0.2-0.2,1.2-1.3,1.2-1.3
			l5.3-4.9c0,0,0.4-0.2,0.6-0.2c10.6,0,21.2,0,31.8,0c0.2,0,0.5,0.1,0.6,0.2c2,2,4,4,6,6.1c0.1,0.1,0.2,0.2,0.2,0.3
			C638.2,138.3,638.2,139,638.2,139.9z"/>
		<g id="darker_bars_3_">
			<rect x="592.4" y="137.4" class="st5" width="45.8" height="2.4"/>
			<rect x="591.6" y="195.7" class="st5" width="47.8" height="2.4"/>
		</g>
	</g>
	<g>
		<path id="path12_4_" class="st6" d="M618.4,206.5v-0.8c0-0.2,0.1-0.2,0.2-0.2h3.6c0.1,0,0.2,0.1,0.2,0.2v0.7
			c0,0.1-0.1,0.2-0.2,0.5l-1.9,2.8c0.7,0,1.5,0.1,2.1,0.5c0.2,0.1,0.2,0.2,0.2,0.3v0.9c0,0.1-0.2,0.2-0.2,0.2
			c-1.1-0.6-2.6-0.6-3.9,0c-0.2,0.1-0.2-0.1-0.2-0.2v-0.8c0-0.2,0-0.3,0.2-0.6l2.2-3.2h-1.9C618.6,206.6,618.4,206.6,618.4,206.5"/>
		<path id="path14_4_" class="st6" d="M605.1,211.6h-1.1c-0.1,0-0.2-0.1-0.2-0.2v-5.7c0-0.1,0.1-0.2,0.2-0.2h1.1
			c0.1,0,0.2,0.1,0.2,0.2v0.7l0,0c0.2-0.7,0.8-1.1,1.5-1.1c0.7,0,1.1,0.3,1.5,1.1c0.2-0.7,0.9-1.1,1.5-1.1c0.5,0,1,0.2,1.3,0.6
			c0.3,0.5,0.2,1.2,0.2,1.8v3.6c0,0.1-0.1,0.2-0.2,0.2h-1.1c-0.1,0-0.2-0.1-0.2-0.2v-3.1c0-0.2,0-0.8,0-1.1
			c-0.1-0.4-0.3-0.5-0.6-0.5c-0.2,0-0.6,0.2-0.6,0.5c-0.1,0.3-0.1,0.8-0.1,1.1v3.1c0,0.1-0.1,0.2-0.2,0.2H607
			c-0.1,0-0.2-0.1-0.2-0.2v-3.1c0-0.6,0.1-1.6-0.6-1.6c-0.8,0-0.8,0.9-0.8,1.6v3.1C605.3,211.5,605.2,211.6,605.1,211.6"/>
		<path id="path16_4_" class="st6" d="M625.7,205.4c1.6,0,2.6,1.5,2.6,3.2s-1,3.2-2.6,3.2s-2.5-1.5-2.5-3.2
			C623.2,206.7,624.1,205.4,625.7,205.4 M625.7,206.5c-0.8,0-0.9,1.1-0.9,1.8c0,0.7,0,2.2,0.9,2.2c0.9,0,0.9-1.2,0.9-1.9
			c0-0.5,0-1.1-0.2-1.5C626.3,206.6,626,206.5,625.7,206.5"/>
		<path id="path18_4_" class="st6" d="M630.4,211.6h-1.1c-0.1,0-0.2-0.1-0.2-0.2v-5.7c0-0.1,0.1-0.2,0.2-0.2h1.1
			c0.1,0,0.2,0.1,0.2,0.2v0.9l0,0c0.3-0.8,0.7-1.1,1.5-1.1c0.5,0,1,0.2,1.3,0.6c0.3,0.5,0.3,1.2,0.3,1.8v3.6c0,0.1-0.1,0.2-0.2,0.2
			h-1.1c-0.1,0-0.2-0.1-0.2-0.2v-3.1c0-0.6,0.1-1.5-0.7-1.5c-0.2,0-0.5,0.2-0.6,0.5s-0.2,0.7-0.2,1.1v3.1
			C630.6,211.5,630.5,211.6,630.4,211.6"/>
		<path id="path28_4_" class="st6" d="M615.5,208.8c0,0.4,0,0.8-0.2,1.2c-0.2,0.3-0.5,0.5-0.8,0.5c-0.4,0-0.6-0.3-0.6-0.8
			c0-1,0.9-1.1,1.7-1.1V208.8 M616.6,211.6c-0.1,0.1-0.2,0.1-0.2,0c-0.4-0.3-0.4-0.5-0.6-0.7c-0.6,0.6-1.1,0.8-1.9,0.8
			c-1,0-1.7-0.6-1.7-1.7c0-0.9,0.5-1.5,1.2-1.9c0.6-0.2,1.5-0.3,2.1-0.4v-0.2c0-0.2,0-0.6-0.2-0.8c-0.2-0.2-0.4-0.3-0.6-0.3
			c-0.4,0-0.8,0.2-0.9,0.6c0,0.1-0.1,0.2-0.2,0.2l-1.1-0.1c-0.1,0-0.2-0.1-0.2-0.2c0.2-1.3,1.5-1.7,2.5-1.7c0.6,0,1.2,0.2,1.7,0.6
			c0.6,0.5,0.5,1.2,0.5,1.9v1.7c0,0.5,0.2,0.7,0.4,1.1c0.1,0.1,0.1,0.2,0,0.3C617.3,211,616.9,211.3,616.6,211.6L616.6,211.6"/>
		<path id="path30_4_" class="st6" d="M600.9,208.8c0,0.4,0,0.8-0.2,1.2c-0.2,0.3-0.5,0.5-0.8,0.5c-0.4,0-0.6-0.3-0.6-0.8
			c0-1,0.9-1.1,1.6-1.1L600.9,208.8 M602,211.6c-0.1,0.1-0.2,0.1-0.2,0c-0.4-0.3-0.4-0.5-0.6-0.7c-0.6,0.6-1.1,0.8-1.9,0.8
			c-1,0-1.7-0.6-1.7-1.7c0-0.9,0.5-1.5,1.2-1.9c0.6-0.2,1.5-0.3,2.1-0.4v-0.2c0-0.2,0-0.6-0.2-0.8c-0.2-0.2-0.4-0.3-0.6-0.3
			c-0.4,0-0.8,0.2-0.9,0.6c0,0.1-0.1,0.2-0.2,0.2l-1.1-0.1c-0.1,0-0.2-0.1-0.2-0.2c0.2-1.3,1.5-1.7,2.5-1.7c0.6,0,1.2,0.2,1.7,0.6
			c0.6,0.5,0.5,1.2,0.5,1.9v1.7c0,0.5,0.2,0.7,0.4,1.1c0.1,0.1,0.1,0.2,0,0.3C602.6,211,602.2,211.3,602,211.6L602,211.6"/>
	</g>
</g>
<g>
	<g>
		<path d="M84.5,216.7h-3.4v1.4h3.2v1.1h-3.2v1.7h3.6v1.1h-4.9v-6.5h4.8L84.5,216.7L84.5,216.7z"/>
		<path d="M90.5,216.2c0.2,0.2,0.3,0.6,0.3,1s-0.1,0.7-0.3,1c-0.1,0.2-0.2,0.2-0.5,0.4c0.3,0.1,0.6,0.3,0.7,0.6
			c0.2,0.2,0.2,0.6,0.2,1s-0.1,0.7-0.3,1.1c-0.2,0.2-0.2,0.4-0.5,0.5c-0.2,0.2-0.5,0.2-0.7,0.3c-0.2,0.1-0.6,0.1-0.9,0.1h-2.9v-6.5
			h3.2C89.7,215.6,90.2,215.8,90.5,216.2z M87.1,216.7v1.5h1.5c0.2,0,0.5-0.1,0.6-0.2c0.2-0.1,0.2-0.3,0.2-0.6
			c0-0.3-0.1-0.5-0.3-0.6c-0.2-0.1-0.5-0.1-0.7-0.1L87.1,216.7L87.1,216.7z M87.1,219.2v1.7h1.5c0.2,0,0.5,0,0.6-0.1
			c0.3-0.2,0.4-0.4,0.4-0.8c0-0.3-0.2-0.6-0.4-0.7c-0.2-0.1-0.4-0.1-0.6-0.1H87.1z"/>
		<path d="M93.2,220c0.1,0.3,0.2,0.5,0.2,0.6c0.2,0.2,0.6,0.4,1.1,0.4c0.3,0,0.6,0,0.8-0.1c0.4-0.2,0.6-0.4,0.6-0.7
			c0-0.2-0.1-0.4-0.2-0.5c-0.2-0.1-0.5-0.2-0.9-0.3l-0.7-0.2c-0.6-0.2-1.1-0.3-1.5-0.5c-0.4-0.3-0.6-0.7-0.6-1.4
			c0-0.6,0.2-1.1,0.6-1.5c0.4-0.4,1.1-0.6,1.9-0.6c0.7,0,1.3,0.2,1.8,0.6c0.5,0.3,0.7,0.9,0.7,1.5h-1.3c0-0.4-0.2-0.6-0.5-0.8
			c-0.2-0.1-0.5-0.2-0.8-0.2c-0.3,0-0.6,0.1-0.9,0.2c-0.2,0.2-0.3,0.3-0.3,0.6s0.1,0.4,0.3,0.5c0.2,0.1,0.4,0.2,0.9,0.2l1.1,0.2
			c0.5,0.1,0.9,0.2,1.1,0.5c0.4,0.3,0.6,0.7,0.6,1.3c0,0.6-0.2,1.1-0.6,1.5c-0.4,0.4-1.1,0.6-1.9,0.6c-0.9,0-1.5-0.2-2-0.6
			s-0.7-0.9-0.7-1.6L93.2,220L93.2,220L93.2,220z"/>
	</g>
	<g>
		<path d="M60.1,229.7h2.8c0.8,0,1.4,0.2,1.7,0.7c0.2,0.2,0.3,0.6,0.3,1s-0.1,0.7-0.3,1.1c-0.2,0.2-0.3,0.2-0.6,0.4
			c0.3,0.2,0.6,0.2,0.7,0.4c0.3,0.3,0.5,0.7,0.5,1.2c0,0.4-0.2,0.8-0.4,1.1c-0.4,0.5-1.1,0.8-1.9,0.8h-2.8V229.7L60.1,229.7z
			 M62.7,232.5c0.4,0,0.6-0.1,0.9-0.2c0.3-0.2,0.5-0.5,0.5-0.9s-0.2-0.7-0.6-0.9c-0.2-0.1-0.5-0.2-0.9-0.2H61v2L62.7,232.5
			L62.7,232.5L62.7,232.5z M63,235.6c0.6,0,1-0.2,1.2-0.5c0.2-0.2,0.2-0.5,0.2-0.7c0-0.5-0.2-0.8-0.6-1c-0.2-0.1-0.6-0.2-0.9-0.2
			h-1.8v2.3H63L63,235.6z"/>
		<path d="M66.3,229.7h0.8v6.6h-0.8V229.7z"/>
		<path d="M71.8,232c0.4,0.4,0.6,1.1,0.6,1.9c0,0.8-0.2,1.5-0.6,1.9c-0.4,0.5-1,0.7-1.8,0.7c-0.6,0-1.2-0.2-1.5-0.6
			c-0.4-0.5-0.6-1.1-0.6-1.8c0-0.8,0.2-1.5,0.6-1.9c0.4-0.5,1-0.7,1.6-0.7C70.9,231.4,71.4,231.6,71.8,232z M71.3,235.3
			c0.2-0.4,0.3-0.9,0.3-1.4c0-0.5-0.1-0.8-0.2-1.1c-0.2-0.5-0.6-0.6-1.1-0.6s-0.8,0.2-1.1,0.6s-0.3,0.8-0.3,1.4c0,0.5,0.1,1,0.3,1.3
			c0.2,0.3,0.6,0.5,1.1,0.5C70.7,235.8,71.1,235.7,71.3,235.3z"/>
		<path d="M76.6,231.8c0.3,0.2,0.6,0.7,0.6,1.4h-0.8c-0.1-0.3-0.2-0.6-0.3-0.7c-0.2-0.2-0.5-0.3-0.8-0.3c-0.5,0-0.9,0.2-1.1,0.7
			c-0.2,0.3-0.2,0.7-0.2,1.2c0,0.5,0.1,0.9,0.3,1.2s0.6,0.5,1,0.5c0.3,0,0.6-0.1,0.8-0.3c0.2-0.2,0.3-0.5,0.4-0.8h0.8
			c-0.1,0.6-0.3,1.1-0.6,1.4c-0.3,0.3-0.8,0.5-1.4,0.5c-0.6,0-1.1-0.2-1.5-0.7c-0.4-0.5-0.6-1.1-0.6-1.7c0-0.9,0.2-1.5,0.6-2
			c0.4-0.5,1-0.7,1.6-0.7C75.9,231.4,76.3,231.5,76.6,231.8z"/>
		<path d="M78.1,229.7h0.8v3.9l2.1-2H82l-1.9,1.8l1.9,3.1h-1.1l-1.5-2.4l-0.6,0.6v1.8h-0.8L78.1,229.7L78.1,229.7z"/>
		<path d="M86,234.2c0,0.4,0.1,0.6,0.2,0.9c0.3,0.4,0.8,0.6,1.5,0.6c0.3,0,0.6-0.1,0.9-0.2c0.5-0.2,0.8-0.5,0.8-1
			c0-0.3-0.1-0.6-0.3-0.8c-0.2-0.2-0.6-0.2-1.1-0.4l-0.9-0.2c-0.6-0.2-1-0.2-1.2-0.4c-0.4-0.2-0.6-0.7-0.6-1.2
			c0-0.6,0.2-1.1,0.6-1.5s1-0.6,1.7-0.6c0.6,0,1.2,0.2,1.7,0.5c0.5,0.3,0.7,0.9,0.7,1.6h-0.8c-0.1-0.3-0.2-0.6-0.2-0.8
			c-0.2-0.3-0.7-0.5-1.4-0.5c-0.5,0-0.9,0.1-1.1,0.3c-0.2,0.2-0.3,0.5-0.3,0.8s0.2,0.6,0.4,0.7c0.2,0.1,0.6,0.2,1.1,0.3l0.9,0.2
			c0.4,0.1,0.8,0.2,1,0.4c0.4,0.3,0.6,0.7,0.6,1.4c0,0.7-0.2,1.3-0.8,1.6c-0.5,0.3-1.1,0.5-1.8,0.5c-0.8,0-1.5-0.2-1.9-0.6
			c-0.5-0.4-0.6-1-0.6-1.7L86,234.2L86,234.2z"/>
		<path d="M91.6,230.2h0.8v1.4h0.8v0.6h-0.8v3.2c0,0.2,0.1,0.2,0.2,0.3c0.1,0,0.2,0.1,0.3,0.1c0,0,0.1,0,0.2,0c0.1,0,0.1,0,0.2,0
			v0.6c-0.1,0-0.2,0.1-0.3,0.1c-0.1,0-0.2,0-0.3,0c-0.4,0-0.6-0.1-0.8-0.3c-0.2-0.2-0.2-0.5-0.2-0.7v-3.2h-0.6v-0.6h0.6L91.6,230.2
			L91.6,230.2z"/>
		<path d="M97.6,232c0.4,0.4,0.6,1.1,0.6,1.9c0,0.8-0.2,1.5-0.6,1.9c-0.4,0.5-1,0.7-1.8,0.7c-0.6,0-1.2-0.2-1.5-0.6
			c-0.4-0.5-0.6-1.1-0.6-1.8c0-0.8,0.2-1.5,0.6-1.9c0.4-0.5,1-0.7,1.6-0.7C96.6,231.4,97.1,231.6,97.6,232z M97,235.3
			c0.2-0.4,0.3-0.9,0.3-1.4c0-0.5-0.1-0.8-0.2-1.1c-0.2-0.5-0.6-0.6-1.1-0.6s-0.8,0.2-1.1,0.6s-0.3,0.8-0.3,1.4c0,0.5,0.1,1,0.3,1.3
			c0.2,0.3,0.6,0.5,1.1,0.5C96.4,235.8,96.8,235.7,97,235.3z"/>
		<path d="M99.2,231.5h0.8v0.8c0.1-0.2,0.2-0.3,0.5-0.6c0.2-0.2,0.6-0.3,0.9-0.3c0,0,0,0,0.1,0c0.1,0,0.1,0,0.2,0v0.9
			c-0.1,0-0.1,0-0.2,0c-0.1,0-0.1,0-0.2,0c-0.4,0-0.7,0.2-1,0.4s-0.3,0.6-0.3,0.9v2.8h-0.8V231.5L99.2,231.5z"/>
		<path d="M104.9,233.4c0.2,0,0.3-0.1,0.4-0.2c0-0.1,0.1-0.2,0.1-0.3c0-0.2-0.1-0.5-0.3-0.6c-0.2-0.2-0.5-0.2-0.8-0.2
			c-0.4,0-0.7,0.1-0.9,0.3c-0.1,0.2-0.2,0.3-0.2,0.6h-0.7c0-0.6,0.2-1.1,0.6-1.2c0.4-0.2,0.8-0.3,1.3-0.3c0.6,0,1.1,0.1,1.4,0.3
			c0.3,0.2,0.6,0.6,0.6,1.1v2.8c0,0.1,0,0.2,0.1,0.2c0,0.1,0.1,0.1,0.2,0.1c0,0,0.1,0,0.2,0c0.1,0,0.1,0,0.2,0v0.6
			c-0.2,0-0.2,0.1-0.3,0.1c-0.1,0-0.2,0-0.2,0c-0.2,0-0.5-0.1-0.6-0.3c-0.1-0.1-0.1-0.2-0.2-0.5c-0.2,0.2-0.4,0.4-0.7,0.6
			c-0.3,0.2-0.6,0.2-1.1,0.2c-0.5,0-0.8-0.2-1.1-0.4s-0.4-0.6-0.4-1.1c0-0.5,0.2-0.8,0.4-1.1c0.2-0.2,0.6-0.4,1.1-0.5L104.9,233.4z
			 M103.2,235.7c0.2,0.2,0.4,0.2,0.6,0.2c0.3,0,0.6-0.1,0.8-0.2c0.5-0.2,0.6-0.6,0.6-1.1V234c-0.1,0.1-0.2,0.1-0.4,0.2
			s-0.3,0.1-0.5,0.1l-0.5,0.1c-0.3,0-0.5,0.1-0.6,0.2c-0.2,0.2-0.4,0.4-0.4,0.6C102.9,235.3,103,235.5,103.2,235.7z"/>
		<path d="M110.1,231.7c0.2,0.1,0.3,0.2,0.5,0.5v-0.6h0.7v4.4c0,0.6-0.1,1.1-0.2,1.5c-0.3,0.6-1,1-1.9,1c-0.5,0-1-0.1-1.3-0.3
			c-0.3-0.2-0.6-0.6-0.6-1.1h0.8c0,0.2,0.1,0.4,0.2,0.5c0.2,0.2,0.5,0.2,0.9,0.2c0.6,0,1.1-0.2,1.2-0.6c0.1-0.2,0.2-0.7,0.2-1.4
			c-0.2,0.2-0.3,0.4-0.6,0.6c-0.2,0.1-0.6,0.2-0.9,0.2c-0.5,0-1-0.2-1.4-0.6s-0.6-1-0.6-1.9c0-0.8,0.2-1.5,0.6-1.9
			c0.4-0.5,0.9-0.6,1.5-0.6C109.5,231.4,109.8,231.5,110.1,231.7z M110.2,232.6c-0.2-0.3-0.6-0.4-1-0.4c-0.6,0-1,0.2-1.1,0.8
			c-0.1,0.3-0.2,0.6-0.2,1.1c0,0.6,0.1,1,0.3,1.2c0.2,0.3,0.5,0.4,0.9,0.4c0.6,0,1-0.2,1.2-0.8c0.2-0.3,0.2-0.6,0.2-1.1
			C110.6,233.3,110.4,232.9,110.2,232.6z"/>
		<path d="M115.5,231.6c0.3,0.2,0.6,0.4,0.7,0.6c0.2,0.2,0.2,0.6,0.3,0.9c0.1,0.2,0.1,0.6,0.1,1.1h-3.6c0,0.5,0.2,0.9,0.3,1.2
			c0.2,0.3,0.6,0.5,1,0.5c0.4,0,0.7-0.2,1-0.4c0.2-0.2,0.2-0.3,0.3-0.6h0.8c0,0.2-0.1,0.4-0.2,0.6c-0.1,0.2-0.2,0.4-0.4,0.6
			c-0.2,0.2-0.6,0.4-0.9,0.5c-0.2,0.1-0.4,0.1-0.6,0.1c-0.6,0-1.1-0.2-1.5-0.6c-0.4-0.4-0.6-1.1-0.6-1.9s0.2-1.4,0.6-1.9
			c0.4-0.5,1-0.7,1.6-0.7C114.9,231.4,115.2,231.4,115.5,231.6z M115.9,233.6c0-0.3-0.1-0.6-0.2-0.8c-0.2-0.4-0.6-0.6-1.1-0.6
			c-0.4,0-0.6,0.2-1,0.4c-0.2,0.2-0.4,0.6-0.4,1.1L115.9,233.6L115.9,233.6z"/>
	</g>
	
		<linearGradient id="SVGID_7_" gradientUnits="userSpaceOnUse" x1="63.5756" y1="3163.606" x2="81.9546" y2="3163.606" gradientTransform="matrix(1 0 0 1 0 -2993)">
		<stop  offset="0" style="stop-color:#CCE0F4"/>
		<stop  offset="0" style="stop-color:#CDD8EB"/>
		<stop  offset="0" style="stop-color:#D0C4D1"/>
		<stop  offset="0" style="stop-color:#D5A3A8"/>
		<stop  offset="0" style="stop-color:#DB756F"/>
		<stop  offset="0" style="stop-color:#E05243"/>
		<stop  offset="0.1406" style="stop-color:#E05243"/>
		<stop  offset="0.9947" style="stop-color:#E05243"/>
	</linearGradient>
	<path class="st11" d="M111.3,198.1c-15.9,0-31.9,0-47.8,0c0-0.2,0-0.3,0-0.5c0-17.2,0-34.5,0-51.8c0-0.7,0-1.5,0-2.3
		c0-0.3,0.1-0.5,0.4-0.5c0.1,0,0.2,0,0.3,0c15.4,0,30.8,0,46.2,0c0.7,0,0.7,0,0.7,0.7c0,17.9,0,35.8,0.1,53.6
		C111.3,197.7,111.3,197.9,111.3,198.1z"/>
	<g>
		
			<linearGradient id="SVGID_8_" gradientUnits="userSpaceOnUse" x1="64.4004" y1="3128.3303" x2="110.275" y2="3128.3303" gradientTransform="matrix(1 0 0 1 0 -2993)">
			<stop  offset="0" style="stop-color:#CCE0F4"/>
			<stop  offset="0" style="stop-color:#CDD8EB"/>
			<stop  offset="0" style="stop-color:#D0C4D1"/>
			<stop  offset="0" style="stop-color:#D5A3A8"/>
			<stop  offset="0" style="stop-color:#DB756F"/>
			<stop  offset="0" style="stop-color:#E05243"/>
			<stop  offset="0.1406" style="stop-color:#E05243"/>
			<stop  offset="0.9947" style="stop-color:#E05243"/>
		</linearGradient>
		<path class="st12" d="M110.2,139.9c-0.2,0-0.4,0-0.6,0c-15,0-45.2,0-45.2,0v-0.6v-1.9c0,0,0,0,0-0.1c0.2-0.2,1.2-1.3,1.2-1.3
			L71,131c0,0,0.4-0.2,0.6-0.2c10.6,0,21.2,0,31.8,0c0.2,0,0.5,0.1,0.6,0.2c2,2,4,4,6,6.1c0.1,0.1,0.2,0.2,0.2,0.3
			C110.2,138.2,110.2,139,110.2,139.9z"/>
		<g id="darker_bars_1_">
			<rect x="64.4" y="137.4" class="st5" width="45.8" height="2.4"/>
			<rect x="63.6" y="195.7" class="st5" width="47.8" height="2.4"/>
		</g>
	</g>
	<g>
		<path id="path12_2_" class="st6" d="M90.4,206.4v-0.8c0-0.2,0.1-0.2,0.2-0.2h3.6c0.1,0,0.2,0.1,0.2,0.2v0.7c0,0.1-0.1,0.2-0.2,0.5
			l-1.9,2.8c0.7,0,1.5,0.1,2.1,0.5c0.2,0.1,0.2,0.2,0.2,0.3v0.9c0,0.1-0.2,0.2-0.2,0.2c-1.1-0.6-2.6-0.6-3.9,0
			c-0.2,0.1-0.2-0.1-0.2-0.2v-0.8c0-0.2,0-0.3,0.2-0.6l2.2-3.2h-1.9C90.5,206.6,90.4,206.5,90.4,206.4"/>
		<path id="path14_2_" class="st6" d="M77,211.5h-1.1c-0.1,0-0.2-0.1-0.2-0.2v-5.7c0-0.1,0.1-0.2,0.2-0.2H77c0.1,0,0.2,0.1,0.2,0.2
			v0.7l0,0c0.2-0.7,0.8-1.1,1.5-1.1c0.7,0,1.1,0.3,1.5,1.1c0.2-0.7,0.9-1.1,1.5-1.1c0.5,0,1,0.2,1.3,0.6c0.3,0.5,0.2,1.2,0.2,1.8
			v3.6c0,0.1-0.1,0.2-0.2,0.2h-1.1c-0.1,0-0.2-0.1-0.2-0.2v-3.1c0-0.2,0-0.8,0-1.1c-0.1-0.4-0.3-0.5-0.6-0.5c-0.2,0-0.6,0.2-0.6,0.5
			s-0.1,0.8-0.1,1.1v3.1c0,0.1-0.1,0.2-0.2,0.2H79c-0.1,0-0.2-0.1-0.2-0.2v-3.1c0-0.6,0.1-1.6-0.6-1.6c-0.8,0-0.8,0.9-0.8,1.6v3.1
			C77.3,211.5,77.2,211.5,77,211.5"/>
		<path id="path16_2_" class="st6" d="M97.7,205.3c1.6,0,2.6,1.5,2.6,3.2s-1,3.2-2.6,3.2s-2.5-1.5-2.5-3.2
			C95.1,206.7,96,205.3,97.7,205.3 M97.7,206.4c-0.8,0-0.9,1.1-0.9,1.8c0,0.7,0,2.2,0.9,2.2s0.9-1.2,0.9-1.9c0-0.5,0-1.1-0.2-1.5
			C98.2,206.6,98,206.4,97.7,206.4"/>
		<path id="path18_2_" class="st6" d="M102.3,211.5h-1.1c-0.1,0-0.2-0.1-0.2-0.2v-5.7c0-0.1,0.1-0.2,0.2-0.2h1.1
			c0.1,0,0.2,0.1,0.2,0.2v0.9l0,0c0.3-0.8,0.7-1.1,1.5-1.1c0.5,0,1,0.2,1.3,0.6c0.3,0.5,0.3,1.2,0.3,1.8v3.6c0,0.1-0.1,0.2-0.2,0.2
			h-1.1c-0.1,0-0.2-0.1-0.2-0.2v-3.1c0-0.6,0.1-1.5-0.7-1.5c-0.2,0-0.5,0.2-0.6,0.5c-0.2,0.3-0.2,0.7-0.2,1.1v3.1
			C102.6,211.5,102.4,211.5,102.3,211.5"/>
		<path id="path28_2_" class="st6" d="M87.5,208.8c0,0.4,0,0.8-0.2,1.2c-0.2,0.3-0.5,0.5-0.8,0.5c-0.4,0-0.6-0.3-0.6-0.8
			c0-1,0.9-1.1,1.7-1.1L87.5,208.8 M88.6,211.5c-0.1,0.1-0.2,0.1-0.2,0c-0.4-0.3-0.4-0.5-0.6-0.7c-0.6,0.6-1.1,0.8-1.9,0.8
			c-1,0-1.7-0.6-1.7-1.7c0-0.9,0.5-1.5,1.2-1.9c0.6-0.2,1.5-0.3,2.1-0.4v-0.2c0-0.2,0-0.6-0.2-0.8c-0.2-0.2-0.4-0.3-0.6-0.3
			c-0.4,0-0.8,0.2-0.9,0.6c0,0.1-0.1,0.2-0.2,0.2l-1.1-0.1c-0.1,0-0.2-0.1-0.2-0.2c0.2-1.3,1.5-1.7,2.5-1.7c0.6,0,1.2,0.2,1.7,0.6
			c0.6,0.5,0.5,1.2,0.5,1.9v1.7c0,0.5,0.2,0.7,0.4,1.1c0.1,0.1,0.1,0.2,0,0.3C89.2,211,88.8,211.3,88.6,211.5L88.6,211.5"/>
		<path id="path30_2_" class="st6" d="M72.9,208.8c0,0.4,0,0.8-0.2,1.2c-0.2,0.3-0.5,0.5-0.8,0.5c-0.4,0-0.6-0.3-0.6-0.8
			c0-1,0.9-1.1,1.6-1.1L72.9,208.8 M73.9,211.5c-0.1,0.1-0.2,0.1-0.2,0c-0.4-0.3-0.4-0.5-0.6-0.7c-0.6,0.6-1.1,0.8-1.9,0.8
			c-1,0-1.7-0.6-1.7-1.7c0-0.9,0.5-1.5,1.2-1.9c0.6-0.2,1.5-0.3,2.1-0.4v-0.2c0-0.2,0-0.6-0.2-0.8c-0.2-0.2-0.4-0.3-0.6-0.3
			c-0.4,0-0.8,0.2-0.9,0.6c0,0.1-0.1,0.2-0.2,0.2l-1.1-0.1c-0.1,0-0.2-0.1-0.2-0.2c0.2-1.3,1.5-1.7,2.5-1.7c0.6,0,1.2,0.2,1.7,0.6
			c0.6,0.5,0.5,1.2,0.5,1.9v1.7c0,0.5,0.2,0.7,0.4,1.1c0.1,0.1,0.1,0.2,0,0.3C74.6,211,74.2,211.3,73.9,211.5L73.9,211.5"/>
	</g>
</g>
</svg>
