<?xml version="1.0" encoding="utf-8"?>
<!-- Generator: Adobe Illustrator 23.0.3, SVG Export Plug-In . SVG Version: 6.00 Build 0)  -->
<svg version="1.1" id="Layer_1" xmlns="http://www.w3.org/2000/svg" xmlns:xlink="http://www.w3.org/1999/xlink" x="0px" y="0px"
	 viewBox="0 0 48 48" style="enable-background:new 0 0 48 48;" xml:space="preserve">
<style type="text/css">
	.st0{opacity:0.75;clip-path:url(#SVGID_2_);fill:#C79EFF;}
	.st1{opacity:0.5;clip-path:url(#SVGID_2_);fill:#AC6DFF;}
	.st2{opacity:0.5;clip-path:url(#SVGID_2_);fill:#BF8EFF;}
	.st3{clip-path:url(#SVGID_2_);}
	.st4{opacity:0.75;}
	.st5{opacity:0.5;fill:none;stroke:#824ACC;stroke-width:1.5;stroke-miterlimit:10;}
	.st6{opacity:0.25;}
	.st7{fill:none;stroke:#FFFFFF;stroke-width:1.5;stroke-miterlimit:10;}
	.st8{fill:#9354E6;stroke:#FFFFFF;stroke-width:1.5;stroke-miterlimit:10;}
	.st9{fill:#DABEFF;}
	.st10{fill:#9354E6;}
	.st11{fill:#9354E6;stroke:#FFFFFF;stroke-miterlimit:10;}
	.st12{fill:#FFFFFF;}
</style>
<g>
	<g>
		<defs>
			<circle id="SVGID_1_" cx="24" cy="24" r="24"/>
		</defs>
		<use xlink:href="#SVGID_1_"  style="overflow:visible;fill:#9354E6;"/>
		<clipPath id="SVGID_2_">
			<use xlink:href="#SVGID_1_"  style="overflow:visible;"/>
		</clipPath>
		<rect y="0" class="st0" width="38" height="24"/>
		<rect x="38" y="0" class="st1" width="22" height="24"/>
		<rect x="0" y="24" class="st2" width="10" height="24"/>
		<g class="st3">
			<g class="st4">
				<line class="st5" x1="2" y1="0" x2="2" y2="24"/>
				<line class="st5" x1="6" y1="0" x2="6" y2="24"/>
				<line class="st5" x1="10" y1="0" x2="10" y2="24"/>
				<line class="st5" x1="14" y1="0" x2="14" y2="24"/>
				<line class="st5" x1="18" y1="0" x2="18" y2="24"/>
				<line class="st5" x1="22" y1="0" x2="22" y2="24"/>
				<line class="st5" x1="26" y1="0" x2="26" y2="24"/>
				<line class="st5" x1="30" y1="0" x2="30" y2="24"/>
				<line class="st5" x1="34" y1="0" x2="34" y2="24"/>
			</g>
			<g class="st6">
				<line class="st7" x1="48" y1="36" x2="38" y2="36"/>
				<line class="st7" x1="48" y1="32" x2="10" y2="32"/>
				<line class="st7" x1="48" y1="28" x2="10" y2="28"/>
				<line class="st7" x1="34" y1="24" x2="10" y2="24"/>
				<line class="st8" x1="48" y1="40" x2="10" y2="40"/>
				<line class="st7" x1="48" y1="44" x2="10" y2="44"/>
			</g>
			<g class="st4">
				<circle class="st9" cx="7" cy="31" r="1"/>
				<circle class="st9" cx="7" cy="35" r="1"/>
				<circle class="st9" cx="7" cy="27" r="1"/>
				<circle class="st9" cx="7" cy="39" r="1"/>
				<circle class="st9" cx="3" cy="31" r="1"/>
				<circle class="st9" cx="3" cy="35" r="1"/>
				<circle class="st9" cx="3" cy="27" r="1"/>
			</g>
			<g class="st4">
				<circle class="st9" cx="41" cy="17" r="1"/>
				<circle class="st9" cx="41" cy="13" r="1"/>
				<circle class="st9" cx="41" cy="21" r="1"/>
				<circle class="st9" cx="41" cy="9" r="1"/>
				<circle class="st9" cx="45" cy="17" r="1"/>
				<circle class="st9" cx="45" cy="13" r="1"/>
				<circle class="st9" cx="45" cy="21" r="1"/>
			</g>
		</g>
		<g class="st3">
			<rect x="32" y="30" class="st10" width="4" height="6"/>
			<g>
				<rect x="18" y="26" class="st10" width="8" height="4"/>
				<path class="st11" d="M22,30"/>
				<path class="st11" d="M22,26"/>
			</g>
		</g>
	</g>
</g>
<path class="st12" d="M33.22,28.25c0.89,0,1.75,0.35,2.37,0.98c0.63,0.63,0.98,1.49,0.98,2.38c0,0.89-0.35,1.75-0.98,2.38
	c-0.63,0.63-1.48,0.98-2.37,0.98c-0.89,0-1.75-0.35-2.38-0.98c-0.63-0.63-0.98-1.49-0.98-2.38c0-0.89,0.35-1.75,0.98-2.38
	C31.48,28.6,32.33,28.25,33.22,28.25z M32.1,23.21c-0.31,0-0.56,0.25-0.56,0.56v1.92v0c-0.98,0.28-1.87,0.8-2.61,1.5l-1.66-0.96
	c-0.27-0.15-0.61-0.06-0.76,0.2l-1.12,1.94c-0.15,0.27-0.06,0.61,0.2,0.76l1.66,0.96c-0.13,0.49-0.19,1-0.19,1.51
	c0,0.51,0.07,1.01,0.19,1.5l-1.66,0.96c-0.27,0.15-0.36,0.5-0.2,0.76l1.12,1.94c0.15,0.27,0.5,0.36,0.76,0.2l1.65-0.96h0
	c0.73,0.71,1.63,1.23,2.61,1.51v1.91c0,0.31,0.25,0.56,0.56,0.56h2.24c0.31,0,0.56-0.25,0.56-0.56v-1.92
	c0.98-0.28,1.87-0.8,2.6-1.51l1.66,0.96c0.27,0.15,0.61,0.06,0.76-0.2l1.12-1.94c0.15-0.27,0.06-0.61-0.2-0.76l-1.66-0.96v0
	c0.13-0.49,0.19-1,0.19-1.5c0-0.51-0.07-1.01-0.2-1.5l1.66-0.96c0.27-0.15,0.36-0.5,0.2-0.76l-1.12-1.94
	c-0.15-0.27-0.5-0.36-0.76-0.2l-1.66,0.96c-0.73-0.71-1.63-1.23-2.61-1.51v-1.91c0-0.31-0.25-0.56-0.56-0.56L32.1,23.21z
	 M15.02,22.22c2.58,0,4.68,2.09,4.68,4.68c0,2.58-2.09,4.68-4.68,4.68c-2.58,0-4.68-2.09-4.68-4.68c0-1.24,0.49-2.43,1.37-3.31
	C12.59,22.71,13.78,22.22,15.02,22.22L15.02,22.22z M13.46,15.2c-0.43,0-0.78,0.35-0.78,0.78v2.67c-1.37,0.39-2.61,1.11-3.63,2.1
	l-2.32-1.34c-0.37-0.22-0.85-0.09-1.07,0.29l-1.56,2.7c-0.22,0.37-0.09,0.85,0.29,1.07l2.32,1.34v0c-0.18,0.69-0.27,1.39-0.27,2.1
	c0,0.71,0.09,1.41,0.27,2.09l-2.32,1.34c-0.37,0.22-0.5,0.69-0.29,1.07l1.56,2.7c0.22,0.37,0.69,0.5,1.07,0.29l2.31-1.33v0
	c1.02,0.99,2.27,1.71,3.64,2.1v2.67c0,0.43,0.35,0.78,0.78,0.78h3.12c0.43,0,0.78-0.35,0.78-0.78v-2.67
	c1.37-0.39,2.61-1.11,3.63-2.1l2.32,1.34c0.37,0.22,0.85,0.09,1.07-0.29l1.56-2.7c0.22-0.37,0.09-0.85-0.29-1.07l-2.32-1.34v0
	c0.18-0.69,0.27-1.39,0.27-2.1c0-0.71-0.09-1.41-0.27-2.09l2.32-1.34c0.38-0.22,0.5-0.69,0.29-1.07l-1.56-2.7
	c-0.22-0.37-0.69-0.5-1.07-0.29L21,20.74h0c-1.02-0.99-2.27-1.71-3.64-2.1v-2.67c0-0.43-0.35-0.78-0.78-0.78L13.46,15.2z
	 M27.53,9.83c0.89,0,1.74,0.35,2.37,0.98c0.63,0.63,0.98,1.49,0.98,2.38c0,0.89-0.35,1.75-0.98,2.38c-0.63,0.63-1.48,0.98-2.37,0.98
	c-1.86,0-3.36-1.5-3.36-3.36S25.67,9.83,27.53,9.83z M26.41,4.79c-0.31,0-0.56,0.25-0.56,0.56v1.92c-0.98,0.28-1.88,0.8-2.61,1.51
	l-1.66-0.96c-0.27-0.15-0.61-0.06-0.76,0.2L19.7,9.96c-0.15,0.27-0.06,0.61,0.2,0.76l1.66,0.96v0c-0.13,0.49-0.19,1-0.19,1.5
	c0,0.51,0.07,1.01,0.19,1.5l-1.66,0.96c-0.27,0.15-0.36,0.5-0.2,0.76l1.12,1.94c0.15,0.27,0.5,0.36,0.76,0.2l1.65-0.96h0
	c0.73,0.71,1.63,1.23,2.61,1.51v1.91c0,0.31,0.25,0.56,0.56,0.56h2.24c0.31,0,0.56-0.25,0.56-0.56v-1.92v0
	c0.98-0.28,1.87-0.8,2.6-1.5l1.66,0.96c0.27,0.15,0.61,0.06,0.76-0.2l1.12-1.94c0.15-0.27,0.06-0.61-0.2-0.76l-1.66-0.96
	c0.13-0.49,0.19-1,0.19-1.51c0-0.51-0.07-1.01-0.19-1.5l1.66-0.96c0.27-0.15,0.36-0.5,0.2-0.76l-1.12-1.94
	c-0.15-0.27-0.49-0.36-0.76-0.2l-1.66,0.96l0,0c-0.73-0.71-1.63-1.23-2.61-1.51V5.36c0-0.31-0.25-0.56-0.56-0.56L26.41,4.79
	L26.41,4.79z"/>
</svg>
